<?xml version="1.0"?>
<!--Icons from directory ""-->
<svg xmlns="http://www.w3.org/2000/svg" width="39" height="330" viewBox="0 0 39 330"><svg xmlns:xlink="http://www.w3.org/1999/xlink" id="tab-one" xml:space="preserve" height="55" viewBox="0 0 38.705 55" width="39" version="1.1" y="0" x="0px" enable-background="new 0 0 38.705 55"><g id="tab-one-_x23_1_un-highlighted">		<path stroke="#3FA6DF" stroke-miterlimit="10" d="m13.793 30.137v-0.729h2.402v-18.167h-2.402v-0.728h1.984c1.637 0 2.96-0.108 3.97-0.327s2.089-0.655 3.308-1.311v20.533h2.333v0.729h-11.595z" fill="#3FA6DF"/>		<path d="m19.352 3c9.017 0 16.352 7.336 16.352 16.353s-7.336 16.352-16.352 16.352c-9.017 0-16.352-7.336-16.352-16.352 0-9.017 7.335-16.353 16.352-16.353m0-3c-10.688 0-19.352 8.664-19.352 19.353 0 10.688 8.664 19.352 19.353 19.352s19.352-8.664 19.352-19.352c0-10.689-8.664-19.353-19.353-19.353z" fill="#3FA6DF"/></g></svg><svg xmlns:xlink="http://www.w3.org/1999/xlink" id="tab-one~hover" xml:space="preserve" height="55" viewBox="0 0 38.705 55" width="39" version="1.1" y="55" x="0px" enable-background="new 0 0 38.705 55"><g id="tab-one~hover-_x23_1_highlighted">	<circle cy="19.353" cx="19.353" r="19.353" fill="#3FA6DF"/>		<path d="m13.555 29.983v-0.728h2.402v-18.167h-2.402v-0.729h1.984c1.637 0 2.96-0.108 3.97-0.327s2.089-0.655 3.308-1.311v20.533h2.333v0.728h-11.595z" fill="#fff"/>	<polygon id="tab-one~hover-pointer" points="19.353 65.505 31.838 65.505 25.595 54.692 19.353 43.88 13.11 54.692 6.867 65.505" fill="#3FA6DF"/></g></svg><svg xmlns:xlink="http://www.w3.org/1999/xlink" id="tab-three" xml:space="preserve" height="55" viewBox="0 0 38.705 55" width="39" version="1.1" y="110" x="0px" enable-background="new 0 0 38.705 55"><g id="tab-three-_x23_3_un-highlighted">		<path d="m19.353 3.001c9.017 0 16.352 7.336 16.352 16.353s-7.336 16.352-16.352 16.352c-9.017 0-16.353-7.336-16.353-16.353s7.336-16.352 16.353-16.352m0-3c-10.689 0-19.353 8.664-19.353 19.352s8.664 19.352 19.353 19.352c10.688 0 19.352-8.664 19.352-19.352s-8.664-19.352-19.352-19.352z" fill="#3FA6DF"/>	<path d="m26.785 26.672c-0.487 0.874-1.079 1.529-1.811 2.002-0.696 0.438-1.637 0.802-2.855 1.093-1.184 0.255-2.402 0.364-3.586 0.4-2.403 0-4.214-0.437-5.502-1.311-1.254-0.874-1.846-1.966-1.846-3.277 0-0.946 0.244-1.711 0.836-2.402 0.557-0.619 1.288-0.946 2.193-0.946 0.836-0.037 1.532 0.255 2.055 0.837 0.522 0.546 0.801 1.274 0.801 2.111 0 0.838-0.244 1.529-0.732 2.075-0.452 0.474-1.079 0.729-1.846 0.765-0.521 0-1.079-0.218-1.74-0.655 0.696 1.238 2.193 1.857 4.561 1.894 0.835 0 1.462-0.182 1.845-0.583 0.384-0.363 0.558-1.019 0.558-2.038v-6.444c0-0.619-0.104-1.02-0.383-1.274-0.244-0.255-0.627-0.4-1.289-0.4h-1.531v-0.838h1.811c0.939 0 1.393-0.509 1.393-1.565v-4.405c0-0.873-0.14-1.492-0.487-1.856-0.313-0.328-0.905-0.51-1.811-0.51-1.045-0.036-1.915 0.182-2.682 0.583l0.209-0.037c0.696 0 1.323 0.255 1.846 0.765 0.522 0.51 0.766 1.165 0.766 1.966 0.035 0.802-0.243 1.493-0.801 2.075-0.522 0.547-1.184 0.838-2.019 0.838-0.801 0-1.462-0.255-1.984-0.765-0.523-0.51-0.767-1.201-0.801-2.075 0-1.31 0.592-2.366 1.845-3.095 1.254-0.728 3.029-1.056 5.328-1.056 2.402-0.036 4.248 0.436 5.605 1.347 1.358 0.874 2.055 2.075 2.055 3.678 0 1.529-0.418 2.621-1.288 3.422-0.836 0.729-2.228 1.129-4.214 1.129 1.846 0 3.378 0.546 4.527 1.675 1.114 1.056 1.706 2.439 1.706 4.15 0.035 0.907-0.209 1.817-0.732 2.727z" fill="#3FA6DF"/></g></svg><svg xmlns:xlink="http://www.w3.org/1999/xlink" id="tab-three~hover" xml:space="preserve" height="55" viewBox="0 0 38.705 55" width="39" version="1.1" y="165" x="0px" enable-background="new 0 0 38.705 55"><g id="tab-three~hover-_x23_3_highlighted">		<circle cy="19.353" cx="19.353" r="19.352" fill="#3FA6DF"/>	<path d="m26.785 26.672c-0.487 0.874-1.079 1.529-1.811 2.002-0.696 0.438-1.637 0.802-2.855 1.093-1.184 0.255-2.402 0.364-3.586 0.4-2.403 0-4.214-0.437-5.502-1.311-1.254-0.874-1.846-1.966-1.846-3.277 0-0.946 0.244-1.711 0.836-2.402 0.557-0.619 1.288-0.946 2.193-0.946 0.836-0.037 1.532 0.255 2.055 0.837 0.522 0.546 0.801 1.274 0.801 2.111 0 0.838-0.244 1.529-0.732 2.075-0.452 0.474-1.079 0.729-1.846 0.765-0.521 0-1.079-0.218-1.74-0.655 0.696 1.238 2.193 1.857 4.561 1.894 0.835 0 1.462-0.182 1.845-0.583 0.384-0.363 0.558-1.019 0.558-2.038v-6.444c0-0.619-0.104-1.02-0.383-1.274-0.244-0.255-0.627-0.4-1.289-0.4h-1.531v-0.838h1.811c0.939 0 1.393-0.509 1.393-1.565v-4.405c0-0.873-0.14-1.492-0.487-1.856-0.313-0.328-0.905-0.51-1.811-0.51-1.045-0.036-1.915 0.182-2.682 0.583l0.209-0.037c0.696 0 1.323 0.255 1.846 0.765 0.522 0.51 0.766 1.165 0.766 1.966 0.035 0.802-0.243 1.493-0.801 2.075-0.522 0.547-1.184 0.838-2.019 0.838-0.801 0-1.462-0.255-1.984-0.765-0.523-0.51-0.767-1.201-0.801-2.075 0-1.31 0.592-2.366 1.845-3.095 1.254-0.728 3.029-1.056 5.328-1.056 2.402-0.036 4.248 0.436 5.605 1.347 1.358 0.874 2.055 2.075 2.055 3.678 0 1.529-0.418 2.621-1.288 3.422-0.836 0.729-2.228 1.129-4.214 1.129 1.846 0 3.378 0.546 4.527 1.675 1.114 1.056 1.706 2.439 1.706 4.15 0.035 0.907-0.209 1.817-0.732 2.727z" fill="#fff"/>	<polygon id="tab-three~hover-pointer_3_" points="18.811 65.121 31.296 65.121 25.053 54.309 18.811 43.496 12.569 54.309 6.325 65.121" fill="#3FA6DF"/></g></svg><svg xmlns:xlink="http://www.w3.org/1999/xlink" id="tab-two" xml:space="preserve" height="55" viewBox="0 0 38.705 55" width="39" version="1.1" y="220" x="0px" enable-background="new 0 0 38.705 55"><g id="tab-two-_x23_2_un-highlighted">		<path d="m19.352 3c9.017 0 16.353 7.336 16.353 16.353s-7.336 16.352-16.353 16.352-16.353-7.336-16.353-16.352c0-9.017 7.336-16.353 16.353-16.353m0-3c-10.688 0-19.353 8.664-19.353 19.353s8.664 19.352 19.353 19.352c10.689 0 19.353-8.664 19.353-19.352s-8.665-19.353-19.353-19.353z" fill="#3FA6DF"/>		<path d="m27.065 24.943c-0.313 0.618-0.94 1.602-1.88 2.985-0.905 1.347-2.299 2.039-4.318 2.039-0.487 0-1.044-0.073-1.775-0.219-0.627-0.109-1.184-0.183-1.706-0.291-0.488-0.109-1.01-0.219-1.672-0.292-0.592-0.072-1.114-0.108-1.566-0.108-0.662-0.037-1.184 0.072-1.637 0.254-0.418 0.146-0.905 0.438-1.428 0.91l-0.627-0.4c0.244-1.056 0.558-1.893 1.01-2.548 0.418-0.619 0.767-1.093 1.114-1.493 0.349-0.364 0.662-0.765 1.149-1.129l0.592-0.473 1.219-0.91 0.661-0.474c1.393-1.02 2.368-2.147 2.96-3.386 0.592-1.201 0.905-2.767 0.905-4.66 0-1.129-0.069-2.002-0.209-2.585-0.139-0.546-0.348-1.019-0.766-1.456-0.349-0.4-0.767-0.728-1.288-0.947-0.488-0.182-1.01-0.291-1.602-0.291-1.323-0.036-2.472 0.51-3.377 1.602 0.487-0.109 0.87-0.183 1.219-0.219 0.87 0 1.532 0.255 2.089 0.801 0.487 0.546 0.731 1.238 0.766 2.184 0 0.91-0.278 1.639-0.87 2.294-0.557 0.618-1.288 0.91-2.159 0.91-0.87 0-1.602-0.292-2.263-0.947-0.627-0.618-0.941-1.347-0.941-2.293 0-0.729 0.244-1.493 0.696-2.258 0.487-0.765 1.219-1.42 2.264-2.075 1.01-0.655 2.576-0.982 4.735-0.982 2.82-0.037 5.049 0.618 6.721 1.892 1.602 1.238 2.438 2.913 2.438 5.098 0.034 1.783-0.627 3.203-1.95 4.332-1.254 1.092-2.891 1.894-4.875 2.366-1.984 0.474-3.099 0.765-3.447 0.91-0.313 0.146-0.696 0.4-1.114 0.765 0.592-0.327 1.219-0.473 1.984-0.51h0.523c0.14 0 0.836 0.073 2.09 0.219 1.253 0.146 2.229 0.182 2.959 0.182 1.323 0 2.194-0.072 2.612-0.255 0.452-0.182 0.87-0.655 1.288-1.456l0.661 0.438c-0.419 1.019-0.836 1.82-1.185 2.476z" fill="#3FA6DF"/></g></svg><svg xmlns:xlink="http://www.w3.org/1999/xlink" id="tab-two~hover" xml:space="preserve" height="55" viewBox="0 0 38.705 55" width="39" version="1.1" y="275" x="0px" enable-background="new 0 0 38.705 55"><g id="tab-two~hover-_x23_2_highlighted">		<circle cy="19.353" cx="19.352" r="19.353" fill="#3FA6DF"/>		<path d="m27.065 24.942c-0.313 0.618-0.94 1.602-1.88 2.985-0.905 1.347-2.299 2.039-4.318 2.039-0.487 0-1.044-0.073-1.775-0.219-0.627-0.109-1.184-0.183-1.706-0.291-0.488-0.109-1.01-0.219-1.672-0.292-0.592-0.072-1.114-0.108-1.566-0.108-0.662-0.037-1.184 0.072-1.637 0.254-0.418 0.147-0.905 0.438-1.428 0.91l-0.627-0.4c0.244-1.056 0.558-1.893 1.01-2.548 0.418-0.619 0.767-1.093 1.114-1.493 0.349-0.364 0.662-0.765 1.149-1.129l0.592-0.473 1.219-0.91 0.661-0.474c1.393-1.019 2.368-2.147 2.96-3.386 0.592-1.201 0.905-2.767 0.905-4.66 0-1.129-0.069-2.002-0.209-2.585-0.139-0.546-0.348-1.019-0.766-1.456-0.349-0.4-0.767-0.729-1.288-0.947-0.488-0.182-1.01-0.291-1.602-0.291-1.323-0.036-2.472 0.51-3.377 1.602 0.487-0.109 0.87-0.183 1.219-0.219 0.87 0 1.532 0.255 2.089 0.801 0.487 0.546 0.731 1.238 0.766 2.185 0 0.91-0.278 1.639-0.87 2.294-0.557 0.618-1.288 0.91-2.159 0.91-0.87 0-1.602-0.292-2.263-0.947-0.627-0.618-0.941-1.347-0.941-2.293 0-0.729 0.244-1.493 0.696-2.258 0.487-0.765 1.219-1.42 2.264-2.075 1.01-0.655 2.576-0.982 4.735-0.982 2.82-0.037 5.049 0.618 6.721 1.892 1.602 1.238 2.438 2.913 2.438 5.098 0.034 1.783-0.627 3.203-1.95 4.332-1.254 1.092-2.891 1.894-4.875 2.366-1.984 0.474-3.099 0.765-3.447 0.91-0.313 0.146-0.696 0.4-1.114 0.765 0.592-0.327 1.219-0.473 1.984-0.51h0.523c0.14 0 0.836 0.073 2.09 0.219 1.253 0.146 2.229 0.182 2.959 0.182 1.323 0 2.194-0.072 2.612-0.255 0.452-0.182 0.87-0.655 1.288-1.456l0.661 0.438c-0.419 1.018-0.836 1.82-1.185 2.475z" fill="#fff"/>	<polygon id="tab-two~hover-pointer_2_" points="19.559 65.713 32.044 65.713 25.801 54.9 19.559 44.088 13.317 54.9 7.074 65.713" fill="#3FA6DF"/></g></svg></svg>
