<?xml version="1.0" encoding="utf-8"?>
<!-- Generator: Adobe Illustrator 17.0.0, SVG Export Plug-In . SVG Version: 6.00 Build 0)  -->
<!DOCTYPE svg PUBLIC "-//W3C//DTD SVG 1.1//EN" "http://www.w3.org/Graphics/SVG/1.1/DTD/svg11.dtd">
<svg version="1.1" id="Layer_1" xmlns="http://www.w3.org/2000/svg" xmlns:xlink="http://www.w3.org/1999/xlink" x="0px" y="0px"
	 width="38.705px" height="55px" viewBox="0 0 38.705 55" enable-background="new 0 0 38.705 55" xml:space="preserve">
<g id="_x23_3_un-highlighted">
	<g>
		<path fill="#3FA6DF" d="M19.353,3.001c9.017,0,16.352,7.336,16.352,16.353c0,9.017-7.336,16.352-16.352,16.352
			C10.336,35.706,3,28.37,3,19.353C3,10.336,10.336,3.001,19.353,3.001 M19.353,0.001C8.664,0.001,0,8.665,0,19.353
			s8.664,19.352,19.353,19.352c10.688,0,19.352-8.664,19.352-19.352S30.041,0.001,19.353,0.001L19.353,0.001z"/>
	</g>
	<path fill="#3FA6DF" d="M26.785,26.672c-0.487,0.874-1.079,1.529-1.811,2.002c-0.696,0.438-1.637,0.802-2.855,1.093
		c-1.184,0.255-2.402,0.364-3.586,0.4c-2.403,0-4.214-0.437-5.502-1.311c-1.254-0.874-1.846-1.966-1.846-3.277
		c0-0.946,0.244-1.711,0.836-2.402c0.557-0.619,1.288-0.946,2.193-0.946c0.836-0.037,1.532,0.255,2.055,0.837
		c0.522,0.546,0.801,1.274,0.801,2.111c0,0.838-0.244,1.529-0.732,2.075c-0.452,0.474-1.079,0.729-1.846,0.765
		c-0.521,0-1.079-0.218-1.74-0.655c0.696,1.238,2.193,1.857,4.561,1.894c0.835,0,1.462-0.182,1.845-0.583
		c0.384-0.363,0.558-1.019,0.558-2.038v-6.444c0-0.619-0.104-1.02-0.383-1.274c-0.244-0.255-0.627-0.4-1.289-0.4h-1.531v-0.838
		h1.811c0.939,0,1.393-0.509,1.393-1.565v-4.405c0-0.873-0.14-1.492-0.487-1.856c-0.313-0.328-0.905-0.51-1.811-0.51
		c-1.045-0.036-1.915,0.182-2.682,0.583l0.209-0.037c0.696,0,1.323,0.255,1.846,0.765c0.522,0.51,0.766,1.165,0.766,1.966
		c0.035,0.802-0.243,1.493-0.801,2.075c-0.522,0.547-1.184,0.838-2.019,0.838c-0.801,0-1.462-0.255-1.984-0.765
		c-0.523-0.51-0.767-1.201-0.801-2.075c0-1.31,0.592-2.366,1.845-3.095c1.254-0.728,3.029-1.056,5.328-1.056
		c2.402-0.036,4.248,0.436,5.605,1.347c1.358,0.874,2.055,2.075,2.055,3.678c0,1.529-0.418,2.621-1.288,3.422
		c-0.836,0.729-2.228,1.129-4.214,1.129c1.846,0,3.378,0.546,4.527,1.675c1.114,1.056,1.706,2.439,1.706,4.15
		C27.552,24.852,27.308,25.762,26.785,26.672z"/>
</g>
</svg>
