<?xml version="1.0" encoding="utf-8"?>
<!-- Generator: Adobe Illustrator 17.0.0, SVG Export Plug-In . SVG Version: 6.00 Build 0)  -->
<!DOCTYPE svg PUBLIC "-//W3C//DTD SVG 1.1//EN" "http://www.w3.org/Graphics/SVG/1.1/DTD/svg11.dtd">
<svg version="1.1" id="Layer_1" xmlns="http://www.w3.org/2000/svg" xmlns:xlink="http://www.w3.org/1999/xlink" x="0px" y="0px"
	 width="40px" height="40px" viewBox="0.362 0.362 40 40" enable-background="new 0.362 0.362 40 40" xml:space="preserve">
<g id="close_button">
	<g>
		<g>
			<circle fill="#FFFFFF" cx="20.362" cy="20.362" r="20"/>
		</g>
		<path fill="#FFFFFF" d="M22.445,20.363l6.27-6.271c0.576-0.576,0.576-1.509,0-2.083c-0.576-0.576-1.508-0.576-2.083,0l-6.27,6.271
			l-6.271-6.27c-0.576-0.576-1.508-0.576-2.083,0s-0.576,1.509,0,2.083l6.271,6.27l-6.27,6.27c-0.576,0.576-0.576,1.509,0,2.083
			c0.288,0.288,0.665,0.431,1.042,0.431c0.377,0,0.754-0.143,1.042-0.431l6.27-6.27l6.27,6.27c0.288,0.288,0.665,0.431,1.041,0.431
			c0.377,0,0.754-0.143,1.042-0.431c0.576-0.576,0.576-1.509,0-2.083L22.445,20.363z"/>
	</g>
	<g>
		<path fill="#19140C" d="M22.445,20.363l6.27-6.271c0.576-0.576,0.576-1.509,0-2.083c-0.576-0.576-1.508-0.576-2.083,0l-6.27,6.271
			l-6.271-6.27c-0.576-0.576-1.508-0.576-2.083,0s-0.576,1.509,0,2.083l6.271,6.27l-6.27,6.27c-0.576,0.576-0.576,1.509,0,2.083
			c0.288,0.288,0.665,0.431,1.042,0.431c0.377,0,0.754-0.143,1.042-0.431l6.27-6.27l6.27,6.27c0.288,0.288,0.665,0.431,1.041,0.431
			c0.377,0,0.754-0.143,1.042-0.431c0.576-0.576,0.576-1.509,0-2.083L22.445,20.363z"/>
	</g>
</g>
</svg>
