<?xml version="1.0" encoding="utf-8"?>
<!-- Generator: Adobe Illustrator 17.0.0, SVG Export Plug-In . SVG Version: 6.00 Build 0)  -->
<!DOCTYPE svg PUBLIC "-//W3C//DTD SVG 1.1//EN" "http://www.w3.org/Graphics/SVG/1.1/DTD/svg11.dtd">
<svg version="1.1" id="Layer_1" xmlns="http://www.w3.org/2000/svg" xmlns:xlink="http://www.w3.org/1999/xlink" x="0px" y="0px"
	 width="749.706px" height="81.296px" viewBox="0 0 749.706 81.296" enable-background="new 0 0 749.706 81.296"
	 xml:space="preserve">
<g id="pattern_8_">
	<defs>
		<rect id="SVGID_1_" x="-0.147" y="0" width="750" height="81.296"/>
	</defs>
	<clipPath id="SVGID_2_">
		<use xlink:href="#SVGID_1_"  overflow="visible"/>
	</clipPath>
	<g clip-path="url(#SVGID_2_)">
		<path fill="#1392D8" d="M513.742,20.3c1.21,0.435,2.532,0.6,3.667-0.26c0.582-0.44,1.057-1.035,1.541-1.594
			c1.121-1.302,1.922-2.754,1.566-4.537c-0.436-2.178-1.187-3.116-3.173-3.479c-0.802-0.148-1.601-0.328-2.393-0.537
			c-1.338-0.356-2.285-1.176-2.741-2.49c-0.242-0.703-0.371-1.441-0.63-2.135c-0.353-0.949-0.754-1.86-1.77-2.368
			c-1.047-0.522-2.145-0.708-3.288-0.75c-0.233,0-0.478-0.039-0.704,0.007c-2.9,0.574-5.621,1.552-7.96,3.433
			c-1.215,0.977-1.826,2.171-1.511,3.741c0.208,1.035,0.881,1.742,1.679,2.389c0.974,0.793,1.696,1.748,1.534,3.116
			c-0.051,0.427-0.089,0.856-0.138,1.282c-0.412,3.69,3.035,5.663,5.336,5.805c1.64,0.101,3.067-0.489,4.506-1.139
			C510.689,20.138,512.128,19.718,513.742,20.3z"/>
		<path fill="#1392D8" d="M760.359,44.549c1.862-0.359,3.482-1.226,4.652-2.748c1.223-1.588,1.794-3.428,1.733-5.422
			c-0.066-2.115-1.68-3.654-3.673-3.293c-0.596,0.107-1.196,0.215-1.8,0.26c-1.047,0.076-1.493-0.254-1.876-1.221
			c-0.391-0.981-0.603-1.981-0.455-3.158c-0.029-0.387-0.002-0.908-0.118-1.394c-0.183-0.75-0.558-1.332-1.441-1.5
			c-0.957-0.182-1.804,0.041-2.573,0.537c-1.084,0.699-2.089,1.525-3.189,2.195c-0.93,0.566-1.918,1.064-2.933,1.453
			c-1.572,0.606-3.191,0.441-4.808,0.096c-0.564-0.119-1.184-0.217-1.736-0.106c-1.513,0.299-2.688,1.223-3.513,2.465
			c-1.18,1.783-2.778,2.912-4.771,3.592c-0.315,0.107-0.613,0.248-0.902,0.406v7.947c0.294,0.207,0.618,0.393,1.006,0.537
			c0.753,0.277,1.353,0.803,1.863,1.469c1.487,1.947,3.462,2.726,5.889,2.191c1.227-0.273,2.435-0.322,3.655,0.039
			c0.968,0.285,1.484,0.92,1.592,1.883c0.126,1.082,0.188,2.146,0.789,3.141c0.568,0.932,1.312,1.377,2.347,1.367
			c0.445-0.002,0.898-0.107,1.324-0.238c1.326-0.404,2.607-0.604,4.031-0.272c2.042,0.477,3.766-1.334,3.376-3.383
			c-0.216-1.131-0.48-2.252-0.742-3.373C757.748,46.567,758.955,44.819,760.359,44.549z"/>
		<path fill="#1392D8" d="M115.131,4.763c-0.967-0.061-1.958,0.071-2.925,0.208c-2.266,0.321-4.159-0.209-5.492-2.188
			c-0.94-1.394-1.929-2.731-3.135-3.935c-1.878-1.879-4.798-0.859-5.942,0.693c-1.292,1.752-1.322,3.776-0.526,5.756
			c0.667,1.662,0.728,3.33,0.416,5.055c-0.096,0.537-0.212,1.08-0.229,1.623c-0.083,2.553,1.283,4.645,3.662,5.697
			c1.758,0.779,3.536,0.949,5.102-0.289c1.267-1.004,2.612-1.45,4.125-1.344c0.904-0.041,1.755-0.01,2.583-0.131
			c1.021-0.151,2.084-0.283,3.018-0.679c2.811-1.198,4.178-3.376,3.627-6.403C118.992,6.493,117.595,4.916,115.131,4.763z"/>
		<path fill="#1392D8" d="M724.353,75.032c1.19,1.066,2.413,1.178,3.83,0.396c0.92-0.506,1.783-1.193,2.548-1.006
			c2.188,0.238,3.263-0.799,4.093-2.164c0.61-1.004,1.143-2.045,2.095-2.789c0.182-0.143,0.35-0.322,0.471-0.516
			c0.936-1.494,1.235-3.088,0.803-4.822c-0.647-2.604-2.255-4.547-4.256-6.217c-1.135-0.949-2.44-1.555-3.941-1.65
			c-2.849-0.182-4.665,1.498-6.262,3.516c-0.641,0.809-1.163,1.711-1.792,2.531c-1.206,1.574-1.293,2.564-0.258,3.906
			c0.166,0.217,0.361,0.416,0.558,0.605c1.464,1.422,1.941,3.1,1.394,5.078C723.319,73.055,723.383,74.168,724.353,75.032z"/>
		<path fill="#1392D8" d="M427.866,71.538c1.191,1.066,2.414,1.178,3.831,0.396c0.919-0.506,1.783-1.193,2.547-1.006
			c2.189,0.238,3.264-0.799,4.095-2.164c0.61-1.004,1.142-2.045,2.094-2.789c0.182-0.143,0.35-0.322,0.472-0.516
			c0.935-1.494,1.235-3.088,0.803-4.822c-0.648-2.604-2.255-4.547-4.257-6.217c-1.136-0.949-2.44-1.555-3.942-1.65
			c-2.848-0.182-4.665,1.498-6.262,3.516c-0.64,0.809-1.163,1.711-1.792,2.531c-1.206,1.574-1.293,2.564-0.257,3.906
			c0.166,0.217,0.36,0.416,0.557,0.605c1.463,1.422,1.941,3.1,1.394,5.078C426.832,69.562,426.897,70.675,427.866,71.538z"/>
		<path fill="#1392D8" d="M643.346,34.894c1.301,0.417,2.679,0.298,3.722-0.759c0.486-0.492,0.889-1.104,1.196-1.729
			c0.651-1.329,1.628-2.276,2.974-2.871c0.68-0.298,1.354-0.611,2.026-0.927c1.596-0.748,2.622-2.511,2.474-4.241
			c-0.031-1.284-0.682-2.238-1.596-3.079c-0.742-0.685-1.575-1.299-1.936-2.314c-0.287-0.808-0.586-1.616-0.951-2.392
			c-0.479-1.019-1.215-1.843-2.413-1.891c-0.737-0.031-1.52,0.122-2.224,0.369c-0.991,0.35-1.923,0.869-2.888,1.302
			c-0.969,0.435-1.874,0.292-2.691-0.368c-0.944-0.766-1.221-1.804-1.049-2.945c0.106-0.688,0.35-1.357,0.551-2.027
			c0.436-1.436,0.143-2.42-1.004-3.33c-0.909-0.719-2.05-0.737-3.251-0.049c-0.236,0.139-0.473,0.28-0.698,0.44
			c-1.368,0.991-2.864,1.243-4.517,0.89c-1.889-0.406-3.257,0.365-3.734,2.131c-0.19,0.703-0.285,1.48-0.199,2.197
			c0.135,1.097,0.42,2.185,0.717,3.256c0.586,2.101,0.299,2.978-1.487,4.21c-0.018,0.011-0.035,0.02-0.051,0.032
			c-1.944,1.449-3.484,3.136-3.64,5.73c-0.121,1.995,0.361,3.907,2.493,4.823c1.725,0.744,3.013,2.006,3.738,3.791
			c0.631,1.559,1.88,2.393,3.468,2.796c2.313,0.589,4.302,0.094,5.926-1.704C639.686,34.698,641.312,34.244,643.346,34.894z"/>
		<path fill="#1392D8" d="M229.855,42.977c0.002,1.564,0.946,2.556,2.181,3.31c0.33,0.203,0.776,0.268,1.176,0.299
			c1.611,0.123,2.927-0.577,4.125-1.562c1.245-1.023,2.544-1.62,4.215-0.965c0.963,0.379,1.876-0.071,2.388-0.987
			c0.229-0.408,0.336-0.894,0.604-1.27c0.363-0.512,0.774-1.025,1.268-1.401c0.424-0.322,0.977-0.513,1.502-0.654
			c2.364-0.632,3.855-2.977,3.783-5.259c0.014-1.573-0.406-2.988-1.258-4.166c-1.34-1.85-3.347-2.25-5.508-2.021
			c-1.643,0.173-3.106,0.925-4.617,1.522c-1.325,0.524-2.683,0.913-4.121,0.535c-1.155-0.304-2.28-0.712-3.44-0.979
			c-0.986-0.228-2.008-0.466-3.004-0.438c-2.13,0.058-3.671,1.242-4.825,2.948c-0.458,0.679-0.737,1.495-0.479,2.277
			c0.255,0.77,0.726,1.49,1.532,1.856c0.801,0.363,1.624,0.678,2.425,1.035c1.599,0.712,2.297,1.896,2.15,3.521
			C229.879,41.375,229.853,42.178,229.855,42.977z"/>
		<path fill="#1392D8" d="M143.136,87.252c0.645-2.189,1.911-3.69,4.269-4.082c1.663-0.275,3.292-0.622,4.893-1.218
			c2.491-0.93,2.767-4,1.821-5.679c-1.067-1.898-2.903-2.761-5.043-2.856c-1.794-0.08-3.345-0.717-4.789-1.711
			c-0.451-0.311-0.901-0.639-1.39-0.878c-2.299-1.13-4.774-0.755-6.719,0.969c-1.438,1.274-2.329,2.815-1.843,4.749
			c0.391,1.565,0.246,2.973-0.477,4.301c-0.338,0.836-0.717,1.595-0.948,2.399c-0.283,0.988-0.605,2.007-0.625,3.02
			c-0.066,3.045,1.354,5.186,4.349,5.936c2.308,0.578,4.325-0.037,5.484-2.21C142.575,89.139,142.862,88.187,143.136,87.252z"/>
		<path fill="#1392D8" d="M693.584,68.748c-1.708-1.157-3.236-2.451-4.109-4.397c-0.262-0.588-0.713-1.123-1.176-1.584
			c-1.389-1.379-2.985-1.163-4.007,0.503c-0.143,0.233-0.271,0.478-0.377,0.73c-0.989,2.34-2.808,3.67-5.211,4.339
			c-0.959,0.266-1.906,0.589-2.827,0.966c-0.42,0.171-0.838,0.47-1.125,0.82c-0.899,1.102-1.32,2.375-1.19,3.817
			c0.066,0.729,0.342,1.32,0.809,1.895c0.854,1.05,2.024,1.506,3.234,1.918c1.069,0.364,2.089,0.797,2.82,1.711
			c0.442,0.549,0.881,1.1,1.338,1.637c2.388,2.81,6.678,2.415,8.624-0.4c0.453-0.655,0.802-1.383,1.241-2.049
			c0.244-0.369,0.537-0.731,0.883-1.005c0.533-0.425,1.124-0.781,1.701-1.149c1.187-0.757,1.971-1.76,2.053-3.249
			C696.096,71.339,695.184,69.832,693.584,68.748z"/>
		<path fill="#1392D8" d="M732.743,24.062c1.014-0.381,1.878-1.005,2.341-2.027c0.361-0.799,0.723-1.609,0.969-2.447
			c0.422-1.423,1.057-2.667,2.266-3.6c0.504-0.39,0.942-0.887,1.34-1.392c0.918-1.167,0.897-2.298,0-3.485
			c-0.293-0.391-0.659-0.752-0.852-1.189c-0.201-0.457-0.34-0.988-0.324-1.482c0.025-0.904,0.707-1.486,1.256-2.123
			c1.106-1.274,1.942-2.612,1.176-4.406c-0.375-0.875-1.168-1.474-2.134-1.447c-0.864,0.021-1.727,0.097-2.585,0.051
			c-0.377-0.018-0.784-0.217-1.1-0.441c-0.95-0.672-1.022-1.662-0.961-2.73c0.129-2.197,0.283-4.421-1.733-6.013
			c-1.846,0-3.693,0-5.539,0c-0.584,0.622-1.159,1.258-1.76,1.865c-0.389,0.396-0.764,0.915-1.25,1.091
			c-0.85,0.309-1.776,0.484-2.683,0.559c-1.85,0.149-2.991,1.212-3.026,3.053c-0.053,2.632,1.293,4.591,3.169,6.26
			c0.875,0.778,1.813,1.484,2.665,2.286c1.571,1.483,2.19,3.276,1.464,5.375c-0.287,0.825-0.705,1.607-1.1,2.391
			c-1.362,2.703-1.551,5.375,0.189,8.001c0.746,1.124,1.69,1.987,3.036,2.35C729.358,25.04,731.07,24.693,732.743,24.062z"/>
		<path fill="#1392D8" d="M260.635,61.49c-1.725-0.743-3.014-2.006-3.738-3.791c-0.632-1.561-1.882-2.393-3.47-2.797
			c-2.313-0.588-4.302-0.094-5.924,1.705c-1.386,1.535-3.013,1.99-5.045,1.34c-1.301-0.417-2.681-0.297-3.724,0.76
			c-0.487,0.49-0.889,1.104-1.195,1.729c-0.65,1.329-1.627,2.276-2.973,2.87c-0.681,0.298-1.356,0.612-2.028,0.927
			c-1.595,0.748-2.62,2.512-2.473,4.241c0.032,1.285,0.683,2.239,1.595,3.081c0.742,0.684,1.575,1.297,1.936,2.313
			c0.288,0.809,0.588,1.617,0.953,2.391c0.479,1.021,1.215,1.846,2.411,1.893c0.739,0.031,1.522-0.121,2.223-0.369
			c0.993-0.35,1.923-0.869,2.888-1.301c0.969-0.436,1.876-0.293,2.693,0.367c0.944,0.766,1.219,1.803,1.047,2.945
			c-0.104,0.689-0.348,1.357-0.551,2.027c-0.434,1.436-0.143,2.42,1.004,3.33c0.909,0.717,2.05,0.734,3.251,0.047
			c0.236-0.137,0.475-0.277,0.699-0.439c1.368-0.988,2.864-1.244,4.515-0.889c1.891,0.406,3.257-0.363,3.734-2.131
			c0.189-0.703,0.285-1.48,0.199-2.195c-0.133-1.1-0.418-2.186-0.717-3.256c-0.584-2.102-0.297-2.979,1.489-4.211
			c0.016-0.012,0.033-0.021,0.049-0.033c1.942-1.449,3.484-3.136,3.642-5.729C263.248,64.318,262.765,62.406,260.635,61.49z"/>
		<path fill="#1392D8" d="M324.305-1.164c-0.412-3.713-2.828-6.454-6.494-7.48c-2.703-0.761-5.314-0.635-7.319,1.484
			c-1.624,1.718-3.478,2.645-5.693,2.808c-1.297,0.248-2.537,0.381-3.709,0.729c-1.445,0.433-2.956,0.845-4.224,1.612
			c-3.819,2.321-5.343,5.76-3.912,10.025c1.101,3.287,3.453,5.277,7.05,4.984c1.413-0.114,2.818-0.513,4.19-0.912
			c3.213-0.939,6.064-0.567,8.408,2.02c1.651,1.821,3.366,3.549,5.359,5.04c3.112,2.327,7.124,0.239,8.454-2.244
			c1.506-2.808,1.124-5.741-0.44-8.442c-1.314-2.266-1.752-4.666-1.66-7.228C324.339,0.434,324.394-0.375,324.305-1.164z"/>
		<path fill="#1392D8" d="M346.298,40.997c1.192,1.066,2.415,1.178,3.832,0.396c0.92-0.506,1.782-1.193,2.547-1.006
			c2.188,0.238,3.262-0.799,4.094-2.164c0.609-1.004,1.141-2.045,2.095-2.789c0.18-0.143,0.348-0.322,0.47-0.516
			c0.935-1.494,1.236-3.088,0.804-4.822c-0.649-2.604-2.255-4.547-4.256-6.217c-1.137-0.949-2.44-1.555-3.943-1.65
			c-2.847-0.182-4.664,1.498-6.262,3.516c-0.639,0.809-1.163,1.711-1.791,2.531c-1.206,1.574-1.293,2.564-0.257,3.906
			c0.165,0.217,0.36,0.416,0.558,0.605c1.464,1.422,1.941,3.1,1.394,5.078C345.264,39.021,345.331,40.134,346.298,40.997z"/>
		<path fill="#1392D8" d="M288.083,32.031c-0.055-0.223-0.15-0.449-0.275-0.641c-0.978-1.467-2.311-2.398-4.072-2.723
			c-2.649-0.49-5.088,0.164-7.443,1.289c-1.336,0.639-2.428,1.57-3.137,2.895c-1.34,2.508-0.561,4.851,0.623,7.135
			c0.473,0.918,1.082,1.764,1.57,2.674c0.939,1.746,1.809,2.232,3.464,1.85c0.267-0.061,0.527-0.156,0.781-0.256
			c1.905-0.74,3.634-0.479,5.219,0.836c0.92,0.764,1.965,1.164,3.155,0.644c1.464-0.641,2.075-1.703,1.949-3.312
			c-0.084-1.045-0.356-2.111,0.131-2.727c1.125-1.887,0.621-3.291-0.283-4.611C289.101,34.115,288.368,33.203,288.083,32.031z"/>
		<path fill="#1392D8" d="M71.325,106.261c5.204,3.675,10.698,4.901,16.705,2.099c2.571-1.202,4.662-2.896,5.835-5.582
			c1.561-3.571,1.371-7.239,0.577-10.908c-0.478-2.23-1.502-4.22-3.487-5.5c-1.55-1.001-3.124-2.005-4.79-2.781
			c-2.828-1.319-5.219-3.026-6.782-5.834c-0.655-1.17-1.549-2.236-2.478-3.219c-2.139-2.27-4.497-2.578-7.247-1.087
			c-0.905,0.49-1.775,1.136-2.744,1.4c-1.012,0.279-2.163,0.4-3.186,0.218c-1.874-0.339-2.873-1.936-4.023-3.28
			c-2.308-2.695-4.828-4.849-8.802-3.814c-1.936,0.504-3.432,1.971-3.681,3.988c-0.222,1.798-0.333,3.617-0.693,5.386
			c-0.157,0.776-0.696,1.558-1.263,2.151c-1.696,1.763-3.778,1.607-5.98,1.146c-4.526-0.952-9.112-1.967-13.051,1.726
			c-0.575,3.841-1.15,7.678-1.726,11.52c1.117,1.412,2.255,2.8,3.332,4.237c0.702,0.938,1.665,1.876,1.882,2.939
			c0.378,1.869,0.453,3.846,0.325,5.754c-0.264,3.894,1.59,6.596,5.409,7.245c5.461,0.928,9.955-1.26,14.013-4.64
			c1.889-1.574,3.654-3.307,5.585-4.826c3.575-2.805,7.499-3.536,11.64-1.366C68.325,104.083,69.821,105.196,71.325,106.261z"/>
		<path fill="#1392D8" d="M632.903,81.754c3.206-2.441,7.075-2.986,11.002-3.219c2.157-0.127,4.316-0.51,6.063-1.88
			c5.51-4.325,7.534-10.975,4.084-17.706c-1.335-2.596-3.367-4.429-6.415-4.598c-2.083-0.115-4.199-0.067-6.264,0.18
			c-2.696,0.316-5.344,1.036-8.038,1.34c-3.879,0.433-7.37-1.653-8.308-4.957c-0.883-3.128-2.79-5.255-5.686-6.573
			c-2.138-0.973-4.308-1.86-6.436-2.847c-1.557-0.725-2.835-1.837-3.023-3.625c-0.148-1.371,0.057-2.78,0.121-4.173
			c0.059-1.349,0.272-2.709,0.168-4.048c-0.238-3.129-2.812-5.05-5.928-4.713c-1.807,0.195-3.361,0.966-4.719,2.017
			c-4.056,3.15-8.378,4.638-13.666,3.845c-5.143-0.766-8.82,1.695-10.991,6.376c-1.237,2.666-0.758,5.294,1.393,7.314
			c1.202,1.125,2.538,2.107,3.675,3.289c1.997,2.074,3.064,5.259,1.258,7.98c-0.795,1.198-1.688,2.332-2.532,3.501
			c-2.2,3.043-3.671,6.249-3.312,10.188c0.395,4.356,2.558,7.741,5.311,10.87c0.631,0.714,1.506,1.318,2.392,1.695
			c3.105,1.312,6.2,0.999,9.183-0.544c1.163-0.256,2.319-0.713,3.48-0.732c3.099-0.048,6.127,2.427,6.799,5.463
			c0.297,1.308,0.469,2.659,0.553,4.003c0.131,2.036,0.428,4.018,1.44,5.812c0.754,1.338,1.852,2.381,3.349,2.741
			c3.124,0.751,6.088,0.211,8.689-1.684c1.489-1.087,2.857-2.349,4.185-3.628c2.106-2.027,4.107-4.162,6.206-6.196
			C628.878,85.363,630.763,83.389,632.903,81.754z"/>
		<path fill="#1392D8" d="M175.114-6.85c-3.891,0.885-7.232,2.816-9.59,6.097c-2.458,3.42-3.532,7.325-3.262,11.514
			c0.283,4.443,3.783,7.561,7.947,6.67c1.245-0.27,2.498-0.537,3.763-0.67c2.196-0.236,3.154,0.424,4.027,2.434
			c0.891,2.031,1.405,4.119,1.176,6.604c0.091,0.81,0.068,1.908,0.346,2.924c0.436,1.562,1.264,2.761,3.133,3.05
			c2.025,0.314,3.788-0.208,5.369-1.307c2.231-1.545,4.286-3.351,6.551-4.838c1.915-1.251,3.956-2.365,6.062-3.257
			c3.263-1.378,6.675-1.148,10.1-0.532c1.192,0.216,2.504,0.374,3.658,0.106c3.157-0.735,5.563-2.759,7.21-5.429
			c2.357-3.827,5.637-6.312,9.778-7.877c1.864-0.706,3.519-1.804,4.726-3.441c1.603-2.178,1.526-4.514,0.894-7.044
			c-0.928-3.75-2.447-6.854-6.457-8.193c-1.601-0.534-2.9-1.596-4.018-2.961c-0.224-0.274-0.463-0.504-0.697-0.756l-46.111,1.522
			C179.347-9.769,177.398-7.371,175.114-6.85z"/>
		<path fill="#1392D8" d="M209.376,58.901c2.887-0.893,4.786-3.6,4.529-6.068c-0.281-2.685-1.723-4.604-4.264-5.556
			c-2.191-0.824-3.85-2.263-5.465-3.898c-0.91-0.921-2.165-1.744-3.402-2.054c-3.557-0.882-6.484,0.529-8.765,3.203
			c-1.538,1.806-3.348,2.587-5.713,2.608c-3.791,0.031-7.188-1.31-10.614-2.624c-3.492-1.339-6.991-1.695-10.101,0.708
			c-3.534,2.729-5.161,7.755-0.417,11.516c1.928,1.53,3.301,3.563,4.245,5.834c0.963,2.313,1.638,4.766,2.806,6.968
			c2.023,3.83,5.29,6.013,9.747,6.072c1.431,0.017,2.867-0.166,4.297-0.297c3.232-0.303,4.06,0.229,4.963,3.271
			c0.909,3.053,2.316,4.158,5.969,4.331c1.348-0.076,3.02-0.572,4.404-1.785c2.35-2.068,3.321-4.748,3.361-7.807
			c0.036-2.876-0.139-5.768,0.072-8.632C205.231,61.961,206.409,59.819,209.376,58.901z"/>
		<path fill="#1392D8" d="M83.131,19.927c1.142-4.222,0.288-8.152-1.205-12.034c-0.342-0.891-0.954-1.766-1.654-2.423
			c-2.455-2.312-5.465-3.089-8.799-2.678c-1.179-0.165-2.422-0.136-3.521-0.526c-2.919-1.026-4.899-4.398-4.477-7.478
			c0.18-1.334,0.488-2.661,0.875-3.948c0.584-1.953,0.993-3.914,0.668-5.952c-0.242-1.511-0.91-2.872-2.187-3.728
			c-2.671-1.795-5.639-2.316-8.738-1.44c-1.773,0.499-3.49,1.214-5.182,1.949c-2.678,1.171-5.296,2.481-7.971,3.657
			c-2.476,1.091-4.93,2.29-7.505,3.079c-3.858,1.179-7.671,0.345-11.432-0.799c-2.069-0.631-4.226-1.023-6.341-0.344
			c-6.67,2.142-10.879,7.678-9.98,15.19c0.349,2.895,1.616,5.322,4.42,6.538c1.91,0.83,3.914,1.519,5.937,2.005
			c2.636,0.641,5.37,0.883,8.003,1.531c3.788,0.936,6.336,4.111,6.064,7.533c-0.255,3.24,0.794,5.897,3.052,8.136
			c1.666,1.651,3.394,3.245,5.046,4.908c1.21,1.216,2.019,2.703,1.578,4.448c-0.339,1.335-1.021,2.588-1.563,3.873
			c-0.526,1.245-1.199,2.444-1.567,3.733c-0.862,3.02,0.883,5.709,3.924,6.478c1.761,0.447,3.486,0.259,5.123-0.255
			c4.9-1.54,9.469-1.437,14.152,1.138c4.558,2.51,8.862,1.475,12.522-2.16c2.083-2.07,2.549-4.703,1.232-7.344
			c-0.733-1.471-1.645-2.858-2.304-4.357c-1.15-2.642-1.047-5.997,1.596-7.923c1.16-0.851,2.39-1.598,3.589-2.403
			C79.607,26.239,82.101,23.742,83.131,19.927z"/>
		<path fill="#1392D8" d="M670.721,46.576c2.192,0.825,3.853,2.263,5.467,3.901c0.908,0.92,2.165,1.742,3.401,2.05
			c3.559,0.883,6.485-0.525,8.766-3.204c1.536-1.807,3.348-2.587,5.712-2.608c3.787-0.029,7.189,1.315,10.612,2.628
			c3.494,1.34,6.991,1.692,10.102-0.71c3.536-2.728,5.163-7.75,0.419-11.513c-1.929-1.528-3.301-3.565-4.246-5.836
			c-0.963-2.312-1.638-4.765-2.805-6.966c-2.024-3.832-5.29-6.017-9.748-6.075c-1.432-0.017-2.866,0.164-4.298,0.3
			c-3.231,0.304-4.058-0.229-4.959-3.273c-0.912-3.056-2.32-4.16-5.97-4.333c-1.349,0.078-3.021,0.571-4.406,1.791
			c-2.348,2.062-3.32,4.748-3.359,7.8c-0.037,2.879,0.138,5.767-0.074,8.633c-0.201,2.732-1.38,4.871-4.346,5.787
			c-2.886,0.896-4.787,3.603-4.531,6.07C666.74,43.709,668.183,45.623,670.721,46.576z"/>
		<path fill="#1392D8" d="M394.742-5.496c-3.03-3.102-5.632-6.417-6.604-10.796c-0.296-1.319-0.995-2.61-1.758-3.757
			c-2.282-3.428-5.662-3.655-8.467-0.655c-0.395,0.419-0.757,0.869-1.085,1.346c-3.027,4.402-7.342,6.373-12.571,6.73
			c-2.09,0.146-4.174,0.41-6.232,0.802c-0.936,0.173-1.927,0.611-2.664,1.215c-2.319,1.885-3.723,4.335-4.065,7.355
			c-0.174,1.536,0.146,2.864,0.865,4.252c1.317,2.521,3.535,3.957,5.849,5.317c2.049,1.2,3.965,2.524,5.088,4.712
			c0.675,1.321,1.347,2.637,2.059,3.936c3.735,6.799,12.741,7.8,17.937,2.819c1.212-1.156,2.241-2.509,3.428-3.695
			c0.657-0.658,1.416-1.278,2.242-1.695c1.274-0.648,2.646-1.134,3.988-1.648c2.767-1.058,4.807-2.795,5.606-5.826
			C398.819,0.905,397.577-2.587,394.742-5.496z"/>
		<path fill="#1392D8" d="M389.486,60.698c2.505,2.242,5.077,2.476,8.056,0.834c1.933-1.064,3.748-2.51,5.356-2.115
			c4.605,0.501,6.863-1.681,8.611-4.551c1.282-2.111,2.402-4.301,4.404-5.865c0.381-0.3,0.735-0.678,0.991-1.085
			c1.967-3.142,2.598-6.493,1.689-10.141c-1.361-5.475-4.741-9.562-8.949-13.073c-2.39-1.996-5.133-3.27-8.29-3.471
			c-5.989-0.382-9.809,3.15-13.168,7.394c-1.347,1.7-2.445,3.598-3.77,5.322c-2.536,3.31-2.718,5.393-0.54,8.215
			c0.35,0.456,0.758,0.875,1.172,1.274c3.078,2.99,4.082,6.517,2.933,10.679C387.311,56.542,387.447,58.883,389.486,60.698z"/>
		<path fill="#1392D8" d="M576.147-2.473c-1.861-2.799-4.292-3.671-7.588-2.828c-2.139,0.545-4.258,1.489-5.715,0.704
			c-4.331-1.64-7.064-0.095-9.477,2.245c-1.771,1.722-3.405,3.561-5.735,4.573c-0.444,0.194-0.881,0.472-1.232,0.801
			c-2.692,2.548-4.144,5.634-4.18,9.393c-0.058,5.641,2.188,10.445,5.38,14.9c1.811,2.531,4.148,4.453,7.153,5.439
			c5.7,1.872,10.285-0.589,14.602-3.853c1.73-1.308,3.27-2.87,4.983-4.207c3.286-2.568,3.986-4.539,2.586-7.816
			c-0.224-0.529-0.515-1.037-0.814-1.526c-2.228-3.667-2.315-7.333-0.157-11.072C577.208,2.096,577.664-0.204,576.147-2.473z"/>
		<path fill="#1392D8" d="M469.238,60.775c-4.566,1.347-7.801,4.44-7.508,9.655c0.137,2.422,0.831,5.045,1.814,7.507
			c2.089,5.238,2.244,9.996,0.44,14.432c-0.918,2.236-1.778,4.507-2.629,6.779c-2.017,5.391,0.335,12.664,5.638,17.505
			c3.734,3.749,8.132,5.287,12.899,5.969c3.877,0.557,7.78,0.727,11.609,3.021c3.042,1.826,6.117,3.632,9.272,5.21
			c4.14,2.074,8.396,3.055,11.64,0.814c2.004-1.371,3.602-3.382,4.724-5.511c1.582-3.009,2.526-6.402,3.798-9.608
			c1.281-3.215,4.037-4.589,8.036-4.253c4.625,0.398,8.3,2.931,11.098,6.658c1.68,2.252,2.947,4.724,4.326,7.111
			c2.954,5.129,6.516,7.469,12.078,7.889c4.403,0.328,7.42-1.885,8.584-6.316c0.216-0.883,0.431-1.771,0.561-2.692
			c0.733-5.661,3.902-9.383,9.197-11.617c6.061-2.554,7.42-7.561,3.636-13.749c-1.506-2.462-3.463-4.958-5.727-6.917
			c-3.469-2.989-7.298-5.649-11.116-8.238c-7.495-5.074-9.244-8.247-8.109-15.454c0.015-0.068,0.036-0.127,0.039-0.2
			c0.926-8.16,0.133-16.23-6.839-24.239c-5.355-6.166-12.046-10.883-20.188-9.368c-6.594,1.221-13.526,0.035-20.484-3.824
			c-6.071-3.372-11.685-3.364-16.956-1.406c-7.685,2.847-11.44,8.27-10.544,16.834C479.301,54.082,476.366,58.665,469.238,60.775z"
			/>
		<path fill="#1392D8" d="M334.245,95.918c2.736,0.878,5.633,0.627,7.829-1.597c1.021-1.035,1.869-2.322,2.513-3.637
			c1.368-2.795,3.424-4.787,6.253-6.037c1.429-0.626,2.847-1.285,4.262-1.948c3.355-1.573,5.512-5.281,5.2-8.919
			c-0.066-2.7-1.434-4.706-3.355-6.476c-1.564-1.44-3.312-2.731-4.074-4.866c-0.605-1.698-1.233-3.399-2.002-5.03
			c-1.006-2.144-2.556-3.876-5.074-3.977c-1.548-0.064-3.197,0.257-4.674,0.775c-2.085,0.735-4.045,1.828-6.075,2.738
			c-2.038,0.915-3.94,0.614-5.659-0.773c-1.984-1.611-2.567-3.794-2.206-6.194c0.222-1.446,0.736-2.855,1.161-4.262
			c0.914-3.019,0.298-5.09-2.114-7.003c-1.91-1.512-4.31-1.551-6.837-0.103c-0.497,0.292-0.994,0.588-1.467,0.924
			c-2.876,2.084-6.023,2.614-9.497,1.871c-3.975-0.854-6.852,0.768-7.853,4.481c-0.401,1.479-0.602,3.112-0.421,4.62
			c0.286,2.307,0.883,4.594,1.508,6.847c1.233,4.418,0.628,6.262-3.127,8.853c-0.037,0.023-0.074,0.041-0.106,0.068
			c-4.087,3.046-7.326,6.594-7.652,12.05c-0.257,4.194,0.757,8.216,5.24,10.143c3.628,1.564,6.335,4.219,7.861,7.973
			c1.327,3.279,3.955,5.031,7.293,5.881c4.865,1.239,9.047,0.197,12.462-3.584C326.548,95.507,329.969,94.551,334.245,95.918z"/>
		<path fill="#1392D8" d="M457.582,7.313c2.764-1.603,3.506-3.229,2.813-6.806c-0.388-1.288-1.267-2.791-2.781-3.84
			c-2.568-1.792-5.412-2.093-8.401-1.41c-2.815,0.65-5.592,1.5-8.432,1.974c-2.714,0.451-5.08-0.184-6.671-2.84
			c-1.553-2.587-4.642-3.784-6.987-2.948c-2.551,0.906-4.085,2.756-4.415,5.445c-0.287,2.314-1.296,4.262-2.51,6.214
			c-0.685,1.097-1.192,2.507-1.199,3.778c-0.023,3.652,2.042,6.157,5.191,7.73c2.12,1.062,3.311,2.63,3.887,4.914
			c0.926,3.661,0.418,7.273-0.051,10.897c-0.485,3.704-0.008,7.171,3.068,9.615c3.497,2.78,8.786,3.167,11.33-2.315
			c1.036-2.232,2.698-4.044,4.691-5.495c2.025-1.483,4.255-2.715,6.127-4.367c3.256-2.867,4.617-6.544,3.618-10.876
			c-0.314-1.389-0.831-2.741-1.298-4.095C454.501,9.835,454.83,8.91,457.582,7.313z"/>
		<path fill="#1392D8" d="M102.22,59.883c0.345,0.337,0.768,0.635,1.204,0.837c3.377,1.533,6.794,1.714,10.297,0.338
			c5.275-2.067,8.901-5.944,11.855-10.569c1.675-2.624,2.589-5.5,2.383-8.652c-0.394-5.966-4.392-9.285-9.044-12.046
			c-1.865-1.113-3.893-1.946-5.776-3.029c-3.617-2.074-5.711-1.976-8.241,0.546c-0.409,0.404-0.766,0.863-1.109,1.324
			c-2.578,3.437-5.957,4.891-10.246,4.304c-2.492-0.341-4.802,0.104-6.349,2.354c-1.903,2.77-1.811,5.345,0.203,8.079
			c1.312,1.772,2.981,3.375,2.797,5.013c0.088,4.619,2.55,6.566,5.632,7.918C98.086,57.292,100.407,58.107,102.22,59.883z"/>
		<path fill="#1392D8" d="M-1.835,40.802c-4.441,2.711-7.919,6.284-10.118,11.008c-1.943,4.165-0.69,7.767,1.434,10.26
			c2.667,3.121,6.295,4.201,10.334,4c0.41,0,0.829,0.037,1.233-0.008c2.567-0.283,5.103-0.727,6.993-2.694
			c1.567-1.639,2.465-3.659,3.005-5.845c0.631-2.538,1.412-4.97,4.465-5.614c0.764-0.164,1.503-0.407,2.264-0.596
			c2.121-0.518,3.854-1.627,5.215-3.323c1.278-1.593,1.462-3.819,0.155-5.359c-1.101-1.294-2.416-2.452-3.784-3.475
			c-2.518-1.886-3.85-5.286-2.911-7.923c1.185-3.344,0.318-6.526-2.36-8.63c-2.182-1.712-6.948-1.93-9.269-0.263
			c-2.69,1.938-3.066,4.847-2.758,7.85c0.16,1.536,0.646,3.047,1.073,4.546c0.32,1.105,0.21,2.1-0.656,2.822
			C1.101,38.712-0.304,39.866-1.835,40.802z"/>
	</g>
</g>
</svg>
