<?xml version="1.0" encoding="utf-8"?>
<!-- Generator: Adobe Illustrator 17.0.0, SVG Export Plug-In . SVG Version: 6.00 Build 0)  -->
<!DOCTYPE svg PUBLIC "-//W3C//DTD SVG 1.1//EN" "http://www.w3.org/Graphics/SVG/1.1/DTD/svg11.dtd">
<svg version="1.1" id="Layer_1" xmlns="http://www.w3.org/2000/svg" xmlns:xlink="http://www.w3.org/1999/xlink" x="0px" y="0px"
	 width="232px" height="232px" viewBox="0.035 0.221 232 232" enable-background="new 0.035 0.221 232 232" xml:space="preserve">
<g id="_x31_0._EPA_1_">
	<g>
		<rect x="0.036" y="0.221" fill="#363947" width="231.787" height="231.968"/>
	</g>
	<g>
		<g>
			<defs>
				<rect id="SVGID_1_" x="0.196" y="0.253" width="231.839" height="231.968"/>
			</defs>
			<clipPath id="SVGID_2_">
				<use xlink:href="#SVGID_1_"  overflow="visible"/>
			</clipPath>
			<g clip-path="url(#SVGID_2_)">
				
					<line fill="none" stroke="#8A8B8E" stroke-width="0.25" stroke-miterlimit="10" x1="-96.015" y1="-145.516" x2="-96.015" y2="377.99"/>
				
					<line fill="none" stroke="#8A8B8E" stroke-width="0.25" stroke-miterlimit="10" x1="-85.679" y1="-145.516" x2="-85.679" y2="377.99"/>
				
					<line fill="none" stroke="#8A8B8E" stroke-width="0.25" stroke-miterlimit="10" x1="-75.343" y1="-145.516" x2="-75.343" y2="377.99"/>
				
					<line fill="none" stroke="#8A8B8E" stroke-width="0.25" stroke-miterlimit="10" x1="-65.008" y1="-145.516" x2="-65.008" y2="377.99"/>
				
					<line fill="none" stroke="#8A8B8E" stroke-width="0.25" stroke-miterlimit="10" x1="-54.672" y1="-145.516" x2="-54.672" y2="377.99"/>
				
					<line fill="none" stroke="#8A8B8E" stroke-width="0.25" stroke-miterlimit="10" x1="-44.337" y1="-145.516" x2="-44.337" y2="377.99"/>
				
					<line fill="none" stroke="#8A8B8E" stroke-width="0.25" stroke-miterlimit="10" x1="-34.001" y1="-145.516" x2="-34.001" y2="377.99"/>
				
					<line fill="none" stroke="#8A8B8E" stroke-width="0.25" stroke-miterlimit="10" x1="-23.665" y1="-145.516" x2="-23.665" y2="377.99"/>
				
					<line fill="none" stroke="#8A8B8E" stroke-width="0.25" stroke-miterlimit="10" x1="-13.329" y1="-145.516" x2="-13.329" y2="377.99"/>
				
					<line fill="none" stroke="#8A8B8E" stroke-width="0.25" stroke-miterlimit="10" x1="-2.994" y1="-145.516" x2="-2.994" y2="377.99"/>
				
					<line fill="none" stroke="#8A8B8E" stroke-width="0.25" stroke-miterlimit="10" x1="7.339" y1="-145.516" x2="7.339" y2="377.99"/>
				
					<line fill="none" stroke="#8A8B8E" stroke-width="0.25" stroke-miterlimit="10" x1="17.676" y1="-145.516" x2="17.676" y2="377.99"/>
				
					<line fill="none" stroke="#8A8B8E" stroke-width="0.25" stroke-miterlimit="10" x1="28.011" y1="-145.516" x2="28.011" y2="377.99"/>
				
					<line fill="none" stroke="#8A8B8E" stroke-width="0.25" stroke-miterlimit="10" x1="38.347" y1="-145.516" x2="38.347" y2="377.99"/>
				
					<line fill="none" stroke="#8A8B8E" stroke-width="0.25" stroke-miterlimit="10" x1="48.683" y1="-145.516" x2="48.683" y2="377.99"/>
				
					<line fill="none" stroke="#8A8B8E" stroke-width="0.25" stroke-miterlimit="10" x1="59.018" y1="-145.516" x2="59.018" y2="377.99"/>
				
					<line fill="none" stroke="#8A8B8E" stroke-width="0.25" stroke-miterlimit="10" x1="69.354" y1="-145.516" x2="69.354" y2="377.99"/>
				
					<line fill="none" stroke="#8A8B8E" stroke-width="0.25" stroke-miterlimit="10" x1="79.69" y1="-145.516" x2="79.69" y2="377.99"/>
				
					<line fill="none" stroke="#8A8B8E" stroke-width="0.25" stroke-miterlimit="10" x1="131.367" y1="-145.516" x2="131.367" y2="377.99"/>
				
					<line fill="none" stroke="#8A8B8E" stroke-width="0.25" stroke-miterlimit="10" x1="90.026" y1="-145.516" x2="90.026" y2="377.99"/>
				
					<line fill="none" stroke="#8A8B8E" stroke-width="0.25" stroke-miterlimit="10" x1="100.362" y1="-145.516" x2="100.362" y2="377.99"/>
				
					<line fill="none" stroke="#8A8B8E" stroke-width="0.25" stroke-miterlimit="10" x1="110.696" y1="-145.516" x2="110.696" y2="377.99"/>
				
					<line fill="none" stroke="#8A8B8E" stroke-width="0.25" stroke-miterlimit="10" x1="121.031" y1="-145.516" x2="121.031" y2="377.99"/>
				
					<line fill="none" stroke="#8A8B8E" stroke-width="0.25" stroke-miterlimit="10" x1="141.702" y1="-145.516" x2="141.702" y2="377.99"/>
				
					<line fill="none" stroke="#8A8B8E" stroke-width="0.25" stroke-miterlimit="10" x1="152.039" y1="-145.516" x2="152.039" y2="377.99"/>
				
					<line fill="none" stroke="#8A8B8E" stroke-width="0.25" stroke-miterlimit="10" x1="162.375" y1="-145.516" x2="162.375" y2="377.99"/>
				
					<line fill="none" stroke="#8A8B8E" stroke-width="0.25" stroke-miterlimit="10" x1="172.711" y1="-145.516" x2="172.711" y2="377.99"/>
				
					<line fill="none" stroke="#8A8B8E" stroke-width="0.25" stroke-miterlimit="10" x1="193.382" y1="-145.516" x2="193.382" y2="377.99"/>
				
					<line fill="none" stroke="#8A8B8E" stroke-width="0.25" stroke-miterlimit="10" x1="224.387" y1="-145.516" x2="224.387" y2="377.99"/>
				
					<line fill="none" stroke="#8A8B8E" stroke-width="0.25" stroke-miterlimit="10" x1="245.059" y1="-145.516" x2="245.059" y2="377.99"/>
				
					<line fill="none" stroke="#8A8B8E" stroke-width="0.25" stroke-miterlimit="10" x1="265.73" y1="-145.516" x2="265.73" y2="377.99"/>
				
					<line fill="none" stroke="#8A8B8E" stroke-width="0.25" stroke-miterlimit="10" x1="214.051" y1="-145.516" x2="214.051" y2="377.99"/>
				
					<line fill="none" stroke="#8A8B8E" stroke-width="0.25" stroke-miterlimit="10" x1="183.045" y1="-145.516" x2="183.045" y2="377.99"/>
				
					<line fill="none" stroke="#8A8B8E" stroke-width="0.25" stroke-miterlimit="10" x1="203.718" y1="-145.516" x2="203.718" y2="377.99"/>
				
					<line fill="none" stroke="#8A8B8E" stroke-width="0.25" stroke-miterlimit="10" x1="234.723" y1="-145.516" x2="234.723" y2="377.99"/>
				
					<line fill="none" stroke="#8A8B8E" stroke-width="0.25" stroke-miterlimit="10" x1="255.394" y1="-145.516" x2="255.394" y2="377.99"/>
				
					<line fill="none" stroke="#8A8B8E" stroke-width="0.25" stroke-miterlimit="10" x1="276.067" y1="-145.516" x2="276.067" y2="377.99"/>
				
					<line fill="none" stroke="#8A8B8E" stroke-width="0.25" stroke-miterlimit="10" x1="286.404" y1="-145.516" x2="286.404" y2="377.99"/>
				
					<line fill="none" stroke="#8A8B8E" stroke-width="0.25" stroke-miterlimit="10" x1="296.739" y1="-145.516" x2="296.739" y2="377.99"/>
				
					<line fill="none" stroke="#8A8B8E" stroke-width="0.25" stroke-miterlimit="10" x1="307.075" y1="-145.516" x2="307.075" y2="377.99"/>
				
					<line fill="none" stroke="#8A8B8E" stroke-width="0.25" stroke-miterlimit="10" x1="317.407" y1="-145.516" x2="317.407" y2="377.99"/>
				
					<line fill="none" stroke="#8A8B8E" stroke-width="0.25" stroke-miterlimit="10" x1="327.744" y1="-145.516" x2="327.744" y2="377.99"/>
			</g>
		</g>
		<g>
			<defs>
				<rect id="SVGID_3_" x="0.196" y="0.253" width="231.839" height="231.968"/>
			</defs>
			<clipPath id="SVGID_4_">
				<use xlink:href="#SVGID_3_"  overflow="visible"/>
			</clipPath>
			<g clip-path="url(#SVGID_4_)">
				
					<line fill="none" stroke="#8A8B8E" stroke-width="0.25" stroke-miterlimit="10" x1="378.037" y1="-95.304" x2="-146.305" y2="-95.304"/>
				
					<line fill="none" stroke="#8A8B8E" stroke-width="0.25" stroke-miterlimit="10" x1="378.037" y1="-84.985" x2="-146.305" y2="-84.985"/>
				
					<line fill="none" stroke="#8A8B8E" stroke-width="0.25" stroke-miterlimit="10" x1="378.037" y1="-74.665" x2="-146.305" y2="-74.665"/>
				
					<line fill="none" stroke="#8A8B8E" stroke-width="0.25" stroke-miterlimit="10" x1="378.037" y1="-64.346" x2="-146.305" y2="-64.346"/>
				
					<line fill="none" stroke="#8A8B8E" stroke-width="0.25" stroke-miterlimit="10" x1="378.037" y1="-54.027" x2="-146.305" y2="-54.027"/>
				
					<line fill="none" stroke="#8A8B8E" stroke-width="0.25" stroke-miterlimit="10" x1="378.037" y1="-43.707" x2="-146.305" y2="-43.707"/>
				
					<line fill="none" stroke="#8A8B8E" stroke-width="0.25" stroke-miterlimit="10" x1="378.037" y1="-33.388" x2="-146.305" y2="-33.388"/>
				
					<line fill="none" stroke="#8A8B8E" stroke-width="0.25" stroke-miterlimit="10" x1="378.037" y1="-23.069" x2="-146.305" y2="-23.069"/>
				
					<line fill="none" stroke="#8A8B8E" stroke-width="0.25" stroke-miterlimit="10" x1="378.037" y1="-12.751" x2="-146.305" y2="-12.751"/>
				
					<line fill="none" stroke="#8A8B8E" stroke-width="0.25" stroke-miterlimit="10" x1="378.037" y1="-2.432" x2="-146.305" y2="-2.432"/>
				
					<line fill="none" stroke="#8A8B8E" stroke-width="0.25" stroke-miterlimit="10" x1="378.037" y1="7.887" x2="-146.305" y2="7.887"/>
				
					<line fill="none" stroke="#8A8B8E" stroke-width="0.25" stroke-miterlimit="10" x1="378.037" y1="18.207" x2="-146.305" y2="18.207"/>
				
					<line fill="none" stroke="#8A8B8E" stroke-width="0.25" stroke-miterlimit="10" x1="378.037" y1="28.525" x2="-146.305" y2="28.525"/>
				
					<line fill="none" stroke="#8A8B8E" stroke-width="0.25" stroke-miterlimit="10" x1="378.037" y1="38.844" x2="-146.305" y2="38.844"/>
				
					<line fill="none" stroke="#8A8B8E" stroke-width="0.25" stroke-miterlimit="10" x1="378.037" y1="49.164" x2="-146.305" y2="49.164"/>
				
					<line fill="none" stroke="#8A8B8E" stroke-width="0.25" stroke-miterlimit="10" x1="378.037" y1="59.483" x2="-146.305" y2="59.483"/>
				
					<line fill="none" stroke="#8A8B8E" stroke-width="0.25" stroke-miterlimit="10" x1="378.037" y1="69.803" x2="-146.305" y2="69.803"/>
				
					<line fill="none" stroke="#8A8B8E" stroke-width="0.25" stroke-miterlimit="10" x1="378.037" y1="80.123" x2="-146.305" y2="80.123"/>
				
					<line fill="none" stroke="#8A8B8E" stroke-width="0.25" stroke-miterlimit="10" x1="378.037" y1="131.716" x2="-146.305" y2="131.716"/>
				
					<line fill="none" stroke="#8A8B8E" stroke-width="0.25" stroke-miterlimit="10" x1="378.037" y1="90.439" x2="-146.305" y2="90.439"/>
				
					<line fill="none" stroke="#8A8B8E" stroke-width="0.25" stroke-miterlimit="10" x1="378.037" y1="100.757" x2="-146.305" y2="100.757"/>
				
					<line fill="none" stroke="#8A8B8E" stroke-width="0.25" stroke-miterlimit="10" x1="378.037" y1="111.077" x2="-146.305" y2="111.077"/>
				
					<line fill="none" stroke="#8A8B8E" stroke-width="0.25" stroke-miterlimit="10" x1="378.037" y1="121.397" x2="-146.305" y2="121.397"/>
				
					<line fill="none" stroke="#8A8B8E" stroke-width="0.25" stroke-miterlimit="10" x1="378.037" y1="142.036" x2="-146.305" y2="142.036"/>
				
					<line fill="none" stroke="#8A8B8E" stroke-width="0.25" stroke-miterlimit="10" x1="378.037" y1="152.355" x2="-146.305" y2="152.355"/>
				
					<line fill="none" stroke="#8A8B8E" stroke-width="0.25" stroke-miterlimit="10" x1="378.037" y1="162.674" x2="-146.305" y2="162.674"/>
				
					<line fill="none" stroke="#8A8B8E" stroke-width="0.25" stroke-miterlimit="10" x1="378.037" y1="172.994" x2="-146.305" y2="172.994"/>
				
					<line fill="none" stroke="#8A8B8E" stroke-width="0.25" stroke-miterlimit="10" x1="378.037" y1="193.63" x2="-146.305" y2="193.63"/>
				
					<line fill="none" stroke="#8A8B8E" stroke-width="0.25" stroke-miterlimit="10" x1="378.037" y1="224.588" x2="-146.305" y2="224.588"/>
				
					<line fill="none" stroke="#8A8B8E" stroke-width="0.25" stroke-miterlimit="10" x1="378.037" y1="245.226" x2="-146.305" y2="245.226"/>
				
					<line fill="none" stroke="#8A8B8E" stroke-width="0.25" stroke-miterlimit="10" x1="378.037" y1="265.865" x2="-146.305" y2="265.865"/>
				
					<line fill="none" stroke="#8A8B8E" stroke-width="0.25" stroke-miterlimit="10" x1="378.037" y1="214.268" x2="-146.305" y2="214.268"/>
				
					<line fill="none" stroke="#8A8B8E" stroke-width="0.25" stroke-miterlimit="10" x1="378.037" y1="183.312" x2="-146.305" y2="183.312"/>
				
					<line fill="none" stroke="#8A8B8E" stroke-width="0.25" stroke-miterlimit="10" x1="378.037" y1="203.949" x2="-146.305" y2="203.949"/>
				
					<line fill="none" stroke="#8A8B8E" stroke-width="0.25" stroke-miterlimit="10" x1="378.037" y1="234.907" x2="-146.305" y2="234.907"/>
				
					<line fill="none" stroke="#8A8B8E" stroke-width="0.25" stroke-miterlimit="10" x1="378.037" y1="255.546" x2="-146.305" y2="255.546"/>
				
					<line fill="none" stroke="#8A8B8E" stroke-width="0.25" stroke-miterlimit="10" x1="378.037" y1="276.184" x2="-146.305" y2="276.184"/>
				
					<line fill="none" stroke="#8A8B8E" stroke-width="0.25" stroke-miterlimit="10" x1="378.037" y1="286.504" x2="-146.305" y2="286.504"/>
				
					<line fill="none" stroke="#8A8B8E" stroke-width="0.25" stroke-miterlimit="10" x1="378.037" y1="296.821" x2="-146.305" y2="296.821"/>
				
					<line fill="none" stroke="#8A8B8E" stroke-width="0.25" stroke-miterlimit="10" x1="378.037" y1="307.14" x2="-146.305" y2="307.14"/>
				
					<line fill="none" stroke="#8A8B8E" stroke-width="0.25" stroke-miterlimit="10" x1="378.037" y1="317.46" x2="-146.305" y2="317.46"/>
				
					<line fill="none" stroke="#8A8B8E" stroke-width="0.25" stroke-miterlimit="10" x1="378.037" y1="327.779" x2="-146.305" y2="327.779"/>
			</g>
		</g>
	</g>
	<ellipse fill="#F8A01C" cx="118.672" cy="116.355" rx="94.346" ry="94.196"/>
	<path fill="#FFAA39" d="M29.191,146.283h178.964c0.612-1.828,1.168-3.681,1.669-5.556H27.521
		C28.023,142.601,28.577,144.455,29.191,146.283z"/>
	<path fill="#FFAA39" d="M27.521,140.725h182.302c0.49-1.833,0.931-3.684,1.311-5.558H26.209
		C26.589,137.041,27.03,138.893,27.521,140.725z"/>
	<path fill="#FFAA39" d="M26.209,135.167h184.924c0.373-1.834,0.687-3.687,0.95-5.556H25.26
		C25.524,131.48,25.837,133.333,26.209,135.167z"/>
	<path fill="#FFAA39" d="M25.26,129.61h186.825c0.259-1.836,0.468-3.689,0.619-5.558H24.641
		C24.792,125.921,25.001,127.774,25.26,129.61z"/>
	<path fill="#FFAA39" d="M24.641,124.051h188.062c0.15-1.839,0.247-3.69,0.288-5.556H24.353
		C24.394,120.361,24.491,122.214,24.641,124.051z"/>
	<path fill="#FFAA39" d="M24.394,112.937c-0.04,1.136-0.068,2.273-0.068,3.418c0,0.716,0.011,1.428,0.027,2.14h188.638
		c0.016-0.712,0.027-1.424,0.027-2.14c0-1.145-0.027-2.283-0.068-3.418H24.394z"/>
	<path fill="#FFAA39" d="M212.59,107.379H24.754c-0.174,1.838-0.294,3.691-0.36,5.557H212.95
		C212.884,111.071,212.764,109.216,212.59,107.379z"/>
	<path fill="#FFAA39" d="M211.9,101.821H25.445c-0.285,1.835-0.513,3.689-0.69,5.557H212.59
		C212.413,105.51,212.185,103.657,211.9,101.821z"/>
	<path fill="#FFAA39" d="M210.86,96.265H26.484c-0.399,1.834-0.75,3.685-1.04,5.556h186.456
		C211.61,99.95,211.26,98.098,210.86,96.265z"/>
	<path fill="#FFAA39" d="M209.476,90.706H27.867c-0.518,1.831-0.977,3.685-1.384,5.558H210.86
		C210.453,94.392,209.994,92.536,209.476,90.706z"/>
	<path fill="#FFAA39" d="M207.711,85.149H29.633c-0.643,1.828-1.235,3.68-1.766,5.556h181.609
		C208.946,88.828,208.353,86.977,207.711,85.149z"/>
	<path fill="#FFAA39" d="M205.592,79.66H31.753c-0.764,1.802-1.467,3.634-2.119,5.49h178.077
		C207.057,83.293,206.354,81.461,205.592,79.66z"/>
	<path fill="#FFAA39" d="M34.131,74.51c-0.83,1.668-1.617,3.36-2.348,5.082h173.778c-0.731-1.723-1.518-3.414-2.348-5.082H34.131z"
		/>
	<path fill="#FFAA39" d="M36.889,69.36c-0.884,1.53-1.722,3.09-2.52,4.673h168.607c-0.799-1.583-1.637-3.142-2.522-4.673H36.889z"/>
	<path fill="#FFAA39" d="M40.094,64.211c-0.931,1.395-1.823,2.819-2.681,4.265H199.93c-0.857-1.446-1.75-2.87-2.682-4.265H40.094z"
		/>
	<path fill="#FFAA39" d="M43.786,59.062c-0.969,1.261-1.906,2.546-2.811,3.856h155.394c-0.905-1.31-1.843-2.596-2.811-3.856H43.786z
		"/>
	<path fill="#FFAA39" d="M48.042,53.913c-0.999,1.126-1.972,2.276-2.917,3.448h147.094c-0.945-1.173-1.917-2.323-2.917-3.448H48.042
		z"/>
	<path fill="#FFAA39" d="M49.97,51.804h137.404c-0.977-1.036-1.976-2.049-2.999-3.039H52.969
		C51.947,49.755,50.946,50.768,49.97,51.804z"/>
	<path fill="#FFAA39" d="M58.728,43.613c-1.039,0.855-2.057,1.734-3.059,2.632h126.005c-1.002-0.897-2.02-1.777-3.059-2.632H58.728z
		"/>
	<path fill="#FFAA39" d="M65.605,38.465c-1.059,0.721-2.101,1.461-3.128,2.223h112.389c-1.027-0.762-2.069-1.502-3.129-2.223H65.605
		z"/>
	<path fill="#FFAA39" d="M74.104,33.316c-1.089,0.584-2.163,1.19-3.227,1.815h95.589c-1.063-0.625-2.138-1.231-3.227-1.815H74.104z"
		/>
	<path fill="#FFAA39" d="M85.465,28.167c-1.19,0.447-2.372,0.912-3.54,1.405h73.495c-1.168-0.493-2.349-0.958-3.54-1.405H85.465z"/>
	<path fill="#FFAA39" d="M105.933,23.018c-2.011,0.27-4.004,0.603-5.972,0.998h37.423c-1.969-0.395-3.961-0.728-5.973-0.998H105.933
		z"/>
	<path fill="#D9D4DB" d="M179.362,145.725l-48.384-90.182c-0.428-0.798-1.339-1.307-2.339-1.307c-0.002,0-0.005,0-0.009,0
		c-1.003,0.003-1.914,0.517-2.338,1.319l-47.548,90.182c-0.373,0.707-0.311,1.532,0.165,2.19s1.298,1.056,2.182,1.056h95.935
		c0.887,0,1.712-0.4,2.187-1.062C179.686,147.261,179.742,146.431,179.362,145.725z"/>
	<path fill="#AFAEAE" d="M149.325,89.595l-17.6-32.806c-0.562-1.05-1.776-1.728-3.106-1.728c-1.323,0.004-2.536,0.69-3.093,1.746
		l-17.29,32.792c-0.124,0.233-0.064,0.511,0.145,0.688c0.211,0.181,0.525,0.225,0.787,0.104l11.147-5.009l8.591,5.19
		c0.117,0.07,0.252,0.105,0.388,0.105s0.269-0.034,0.385-0.104l8.654-5.182l10.036,4.988c0.262,0.129,0.588,0.096,0.805-0.084
		C149.392,90.115,149.454,89.831,149.325,89.595z"/>
	<path fill="#FFFFFF" d="M148.191,86.29l-16.629-30.991c-0.532-0.992-1.679-1.634-2.935-1.634c-1.249,0.005-2.394,0.652-2.922,1.65
		l-16.333,30.977c-0.117,0.222-0.062,0.482,0.137,0.651c0.198,0.171,0.495,0.211,0.743,0.099l10.531-4.732l8.117,4.903
		c0.11,0.066,0.238,0.101,0.365,0.101c0.127,0,0.254-0.032,0.363-0.099l8.175-4.896l9.483,4.712c0.248,0.122,0.553,0.091,0.76-0.079
		C148.251,86.783,148.31,86.516,148.191,86.29z"/>
	<path fill="#FFFFFF" d="M79.579,100.662c0-0.018,0.003-0.036,0.003-0.055c0-4.419-4.037-8-9.016-8c-1.75,0-3.379,0.449-4.763,1.217
		c-1.801-3.766-6.007-6.407-10.909-6.407c-3.731,0-7.036,1.548-9.206,3.939c-1.512-3.762-5.549-6.46-10.308-6.46
		c-6.025,0-10.91,4.318-10.95,9.655c-2.456,0.085-4.423,1.867-4.423,4.067c0,1.583,1.026,2.939,2.51,3.618l-10.618,5.135h19.094
		c0.001,0.022,0.002,0.045,0.004,0.067h3.118h26.45h4.882c0.001-0.026,0.003-0.055,0.004-0.081h28.931L79.579,100.662z"/>
	<path opacity="0.5" fill="#AFAEAE" enable-background="new    " d="M146.811,145.884l-33.332-67.343l-2.403,4.352l-8.587,19.598
		l-37.95,43.405c-0.305,0.618-0.254,1.34,0.135,1.915c0.389,0.575,1.062,0.923,1.784,0.923h78.441c0.726,0,1.4-0.349,1.787-0.929
		C147.074,147.228,147.12,146.503,146.811,145.884z"/>
	<path fill="#CECCCA" d="M143.322,145.884l-39.563-78.85c-0.35-0.698-1.095-1.143-1.912-1.143c-0.002,0-0.004,0-0.007,0
		c-0.821,0.003-1.565,0.452-1.911,1.154l-38.879,78.85c-0.305,0.618-0.254,1.34,0.135,1.915c0.388,0.575,1.061,0.923,1.783,0.923
		h78.441c0.727,0,1.4-0.349,1.788-0.929C143.585,147.228,143.632,146.503,143.322,145.884z"/>
	<path fill="#AFAEAE" d="M118.628,96.807l-14.392-28.683c-0.46-0.917-1.454-1.511-2.54-1.511c-1.081,0.004-2.073,0.603-2.528,1.526
		L85.031,96.81c-0.102,0.204-0.053,0.446,0.118,0.602c0.172,0.158,0.429,0.196,0.644,0.092l9.114-4.381l7.025,4.538
		c0.096,0.062,0.206,0.093,0.316,0.093s0.22-0.03,0.314-0.091l7.077-4.531l8.206,4.361c0.214,0.113,0.479,0.084,0.658-0.073
		C118.682,97.263,118.733,97.015,118.628,96.807z"/>
	<path fill="#FFFFFF" d="M117.7,93.918l-13.596-27.096c-0.435-0.867-1.374-1.428-2.4-1.428c-1.021,0.004-1.958,0.57-2.389,1.442
		L85.96,93.921c-0.096,0.193-0.05,0.422,0.112,0.569c0.162,0.149,0.405,0.185,0.607,0.086l8.61-4.138l6.638,4.287
		c0.09,0.059,0.194,0.088,0.299,0.088c0.104,0,0.207-0.028,0.297-0.086l6.686-4.281l7.754,4.12c0.201,0.106,0.452,0.079,0.621-0.069
		C117.751,94.35,117.798,94.115,117.7,93.918z"/>
	<path fill="#FFFFFF" d="M88.968,55.041l-13.399-6.82c0.001-0.019,0.003-0.037,0.003-0.056c0-4.5-3.653-8.147-8.161-8.147
		c-1.585,0-3.059,0.458-4.311,1.239c-1.631-3.836-5.436-6.525-9.872-6.525c-3.541,0-6.671,1.722-8.623,4.363
		c-7.394,1.233-13.037,7.632-13.037,15.367c0,0.225,0.024,0.441,0.033,0.663H62.78c0.001-0.027,0.002-0.056,0.004-0.083
		C62.784,55.041,88.968,55.041,88.968,55.041z"/>
	<path fill="#AFAEAE" d="M130.347,90.291C129.54,89.563,129.621,91.177,130.347,90.291L130.347,90.291z"/>
	<path fill="#AFAEAE" d="M145.217,91.487c0.012-0.412-0.184-0.613-0.48-0.719C144.393,91.12,144.553,91.527,145.217,91.487z"/>
	<path fill="#AFAEAE" d="M147.855,91.487c0.056,0,0.111,0,0.166,0c-0.051-0.018-0.112-0.034-0.166-0.052
		C147.855,91.452,147.855,91.47,147.855,91.487z"/>
	<path fill="#AFAEAE" d="M143.298,91.249c-0.412-0.014-0.614,0.184-0.719,0.478C142.956,91.705,143.411,91.76,143.298,91.249z"/>
	<path fill="#AFAEAE" d="M120.036,91.728c-0.064-0.037-0.105-0.047-0.159-0.071c-0.151,0.059-0.308,0.116-0.446,0.177
		C119.537,91.982,119.78,92.073,120.036,91.728z"/>
	<path fill="#AFAEAE" d="M141.62,91.487c-0.324-0.321-1.173-0.136-1.439,0.478c0.322,0.414,0.81-0.161,0.959-0.239
		C141.179,91.707,141.779,91.647,141.62,91.487z"/>
	<path fill="#AFAEAE" d="M124.112,91.966c0.05,0.289,0.266,0.148,0.481,0C124.588,91.725,124.171,91.666,124.112,91.966z"/>
	<path fill="#AFAEAE" d="M142.099,92.206C140.865,92.785,142.925,92.825,142.099,92.206L142.099,92.206z"/>
	<path fill="#AFAEAE" d="M141.14,92.686c-0.414-0.013-0.615,0.185-0.721,0.478C140.798,93.142,141.251,93.196,141.14,92.686z"/>
	<path fill="#AFAEAE" d="M121.712,94.361c0-0.159,0-0.318,0-0.478c-0.159,0-0.318,0-0.479,0c0,0.16,0,0.319,0,0.478
		C121.394,94.361,121.553,94.361,121.712,94.361z"/>
	<path fill="#AFAEAE" d="M137.063,94.122c-0.412-0.014-0.614,0.185-0.72,0.478C136.756,94.614,136.958,94.417,137.063,94.122z"/>
	<path fill="#AFAEAE" d="M123.154,94.84c0.158,0,0.318,0,0.479,0c0-0.159,0-0.318,0-0.478c-0.16,0-0.32,0-0.479,0
		C123.154,94.52,123.154,94.681,123.154,94.84z"/>
	<path fill="#AFAEAE" d="M123.874,94.84C123.872,96.099,124.879,95.091,123.874,94.84L123.874,94.84z"/>
	<path fill="#AFAEAE" d="M142.579,96.037C141.999,96.841,143.384,95.459,142.579,96.037L142.579,96.037z"/>
	<path fill="#AFAEAE" d="M125.79,96.276c0.448-0.228,0.803,0.718,0.961,0C126.602,96.206,125.827,95.682,125.79,96.276z"/>
	<path fill="#AFAEAE" d="M147.376,97.474c0.281-0.037,0.68,0.042,0.72-0.24C147.813,97.272,147.413,97.192,147.376,97.474z"/>
	<path fill="#AFAEAE" d="M132.985,98.192c0.283-0.038,0.682,0.04,0.721-0.24C133.422,97.991,133.024,97.911,132.985,98.192z"/>
	<path fill="#AFAEAE" d="M137.782,98.911c0.16,0,0.32,0,0.479,0c0-0.159,0-0.319,0-0.478c-0.159,0-0.319,0-0.479,0
		C137.782,98.592,137.782,98.752,137.782,98.911z"/>
	<path fill="#AFAEAE" d="M127.468,101.067c0.27-0.025,0.373,0.347,0.48,0C127.945,100.824,127.528,100.764,127.468,101.067z"/>
	<path fill="#AFAEAE" d="M125.071,101.546c0.412,0.013,0.615-0.185,0.719-0.478C125.378,101.053,125.176,101.252,125.071,101.546z"
		/>
	<path fill="#AFAEAE" d="M147.616,101.785c-0.32,0.036-0.725-0.974-0.96-0.239C146.975,101.509,147.38,102.519,147.616,101.785z"/>
	<path fill="#AFAEAE" d="M133.705,101.546C132.472,102.124,134.531,102.165,133.705,101.546L133.705,101.546z"/>
	<path fill="#AFAEAE" d="M137.782,101.785c-0.349,0.132-1.24-0.278-1.199,0.24C136.931,101.893,137.822,102.304,137.782,101.785z"/>
	<path fill="#AFAEAE" d="M133.465,102.504C134.273,103.231,134.193,101.617,133.465,102.504L133.465,102.504z"/>
	<path fill="#AFAEAE" d="M124.831,104.178c0.16,0,0.32,0,0.48,0c0-0.16,0-0.317,0-0.478c-0.16,0-0.32,0-0.48,0
		C124.831,103.861,124.831,104.018,124.831,104.178z"/>
	<path fill="#AFAEAE" d="M148.816,103.94c0,0.104,0,0.208,0,0.311l0.061-0.311C148.856,103.94,148.835,103.94,148.816,103.94z"/>
	<path fill="#AFAEAE" d="M146.896,104.418C146.317,105.221,147.7,103.84,146.896,104.418L146.896,104.418z"/>
	<path fill="#AFAEAE" d="M126.751,104.657c-0.003-0.241-0.421-0.3-0.48,0C126.54,104.634,126.645,105.006,126.751,104.657z"/>
	<path fill="#AFAEAE" d="M131.545,107.052c0.282-0.039,0.682,0.04,0.721-0.24C131.983,106.85,131.586,106.771,131.545,107.052z"/>
	<path fill="#AFAEAE" d="M134.663,107.291c0.413,0.014,0.616-0.186,0.72-0.478C134.972,106.8,134.767,106.998,134.663,107.291z"/>
	<path fill="#AFAEAE" d="M143.779,108.01c0-0.239,0-0.478,0-0.719c-0.24,0-0.48,0-0.719,0
		C142.915,107.913,143.155,108.153,143.779,108.01z"/>
	<path fill="#AFAEAE" d="M129.148,107.771c0.283-0.038,0.682,0.041,0.72-0.239C129.585,107.568,129.186,107.491,129.148,107.771z"/>
	<path fill="#AFAEAE" d="M123.394,109.926c-0.256-0.893,0.899-0.379,0.718-1.198C123.492,108.612,122.752,109.575,123.394,109.926z"
		/>
	<path fill="#AFAEAE" d="M135.623,108.969c0.282-0.039,0.681,0.039,0.72-0.241C136.061,108.766,135.661,108.688,135.623,108.969z"/>
	<path fill="#AFAEAE" d="M123.632,110.882C122.398,111.461,124.456,111.502,123.632,110.882L123.632,110.882z"/>
	<path fill="#AFAEAE" d="M126.27,111.123c0.453-0.055,0.53,0.27,0.961,0.239C127.613,110.696,126.194,110.701,126.27,111.123z"/>
	<path fill="#AFAEAE" d="M140.42,112.079c-0.455-0.102-0.602-0.514-1.199-0.477C139.053,112.197,140.248,112.616,140.42,112.079z"/>
	<path fill="#AFAEAE" d="M121.955,112.319c-0.337,0.024-0.621,0.101-0.809,0.274l0.041,0.211
		C121.619,112.818,121.903,112.687,121.955,112.319z"/>
	<path fill="#AFAEAE" d="M135.144,112.799c-0.002-0.241-0.42-0.301-0.48,0C134.714,113.089,134.931,112.944,135.144,112.799z"/>
	<path fill="#AFAEAE" d="M126.03,114.236c0.166-0.645-0.496-0.464-0.719-0.72C125.145,114.161,125.807,113.981,126.03,114.236z"/>
	<path fill="#AFAEAE" d="M122.193,113.757C120.959,114.335,123.017,114.375,122.193,113.757L122.193,113.757z"/>
	<path fill="#AFAEAE" d="M139.941,113.757C138.405,113.481,139.414,114.487,139.941,113.757L139.941,113.757z"/>
	<path fill="#AFAEAE" d="M122.912,114.714c0.473-0.071,0.477,0.323,0.721,0.478C124.317,114.823,123.163,114.045,122.912,114.714z"
		/>
	<path fill="#AFAEAE" d="M125.79,116.629c0.638-0.003,1.413,0.134,1.441-0.478C126.736,116.298,125.563,115.765,125.79,116.629z"/>
	<path fill="#AFAEAE" d="M138.501,116.391C137.698,115.812,139.082,117.194,138.501,116.391L138.501,116.391z"/>
	<path fill="#AFAEAE" d="M132.026,117.108c0.373-0.589-0.816-0.703-0.719-0.239c0.145,0.014,0.283,0.036,0.238,0.239
		C131.705,117.108,131.866,117.108,132.026,117.108z"/>
	<path fill="#AFAEAE" d="M146.291,117.182c-0.129-0.062-0.316-0.03-0.354,0.167c0.102-0.01,0.181,0.039,0.245,0.084
		C146.235,117.35,146.27,117.266,146.291,117.182z"/>
	<path fill="#AFAEAE" d="M138.261,118.785c0.27-0.025,0.374,0.347,0.482,0C138.739,118.545,138.321,118.483,138.261,118.785z"/>
	<path fill="#AFAEAE" d="M132.266,119.264c0.445-0.033,0.801-0.157,0.961-0.478C132.678,118.718,132.323,118.843,132.266,119.264z"
		/>
	<path fill="#AFAEAE" d="M122.085,90.976c-0.045,0.011-0.086,0.022-0.13,0.034C122.095,91.251,122.16,91.154,122.085,90.976z"/>
	<path fill="#AFAEAE" d="M119.316,93.402c-0.2,0.161,0.441,0.222,0.479,0.24C120.477,93.984,119.556,93.211,119.316,93.402z"/>
	<path fill="#AFAEAE" d="M118.596,93.883c0.287-0.251,0.055-0.172-0.241,0C118.028,94.073,118.316,94.127,118.596,93.883z"/>
	<path fill="#AFAEAE" d="M135.623,94.601c-0.335-0.018-0.918,0.053-0.479,0.239C135.808,95.157,135.968,93.894,135.623,94.601z"/>
	<path fill="#AFAEAE" d="M127.468,96.516c0.073,0.434,1.01-0.243,1.201-0.478c-0.242,0-0.482,0-0.721,0
		c-0.055-0.187-0.008-0.473-0.24-0.478C128.13,96.774,126.905,96.208,127.468,96.516z"/>
	<path fill="#AFAEAE" d="M129.388,95.558c-0.198,0.159,0.442,0.222,0.479,0.239C130.552,96.14,129.629,95.365,129.388,95.558z"/>
	<path fill="#AFAEAE" d="M138.261,96.276c-0.198,0.161,0.442,0.223,0.482,0.24C139.426,96.858,138.502,96.084,138.261,96.276z"/>
	<path fill="#AFAEAE" d="M130.827,96.756c-0.211,0.494,0.791,0.906,0.719,0.478C131.168,97.213,131.36,96.624,130.827,96.756z"/>
	<path fill="#AFAEAE" d="M137.541,97.714c0.181-0.09,0.365-0.422,0-0.24c-0.061,0.031-0.172-0.018-0.24,0
		C137.006,97.554,137.22,97.875,137.541,97.714z"/>
	<path fill="#AFAEAE" d="M143.538,97.714C142.148,97.023,142.908,98.303,143.538,97.714L143.538,97.714z"/>
	<path fill="#AFAEAE" d="M124.592,101.305c-0.174,0.072-0.408,0.329-0.481,0.478C123.712,102.618,125.398,100.82,124.592,101.305z"
		/>
	<path fill="#AFAEAE" d="M136.823,104.418c-0.431,0.031-0.561-0.24-0.48-0.72c-0.684-0.327-1.441,0.429-0.72,0.72
		C135.695,103.694,136.633,105.262,136.823,104.418z"/>
	<path fill="#AFAEAE" d="M125.071,104.897c0.18-0.09,0.365-0.421,0-0.24c-0.061,0.031-0.174-0.017-0.24,0
		C124.534,104.738,124.749,105.057,125.071,104.897z"/>
	<path fill="#AFAEAE" d="M123.874,105.376c0.286-0.25,0.056-0.17-0.241,0C123.304,105.565,123.591,105.621,123.874,105.376z"/>
	<path fill="#AFAEAE" d="M119.932,106.364l0.067,0.344C120.055,106.553,120.042,106.418,119.932,106.364z"/>
	<path fill="#AFAEAE" d="M137.301,111.123c0.494,0.212,0.909-0.788,0.48-0.718C137.76,110.781,137.171,110.592,137.301,111.123z"/>
	<path fill="#AFAEAE" d="M138.981,116.87c-0.754,0.114-0.938-0.342-1.439-0.479c-0.053,0.187-0.006,0.472-0.24,0.479
		c-0.609-0.564-0.117,0.237,0.24,0.239c0.092,0.002,0.152-0.387,0.48-0.239c0.169,0.075-0.09,0.508,0.239,0.478
		C138.734,117.309,139.399,116.548,138.981,116.87z"/>
	<path fill="#AFAEAE" d="M142.339,116.391c0.682,0.341-0.238-0.431-0.48-0.24C141.659,116.31,142.302,116.372,142.339,116.391z"/>
	<path fill="#AFAEAE" d="M132.59,124.359C133.321,123.553,131.705,123.635,132.59,124.359L132.59,124.359z"/>
	<path fill="#AFAEAE" d="M131.393,139.206c0.413,0.013,0.614-0.184,0.719-0.479C131.76,138.384,131.352,138.544,131.393,139.206z"/>
	<path fill="#AFAEAE" d="M131.393,141.841c0,0.055,0,0.11,0,0.166c0.018-0.052,0.034-0.113,0.052-0.166
		C131.428,141.841,131.411,141.841,131.393,141.841z"/>
	<path fill="#AFAEAE" d="M131.632,137.291c0.014-0.412-0.184-0.614-0.479-0.719C131.175,136.949,131.12,137.403,131.632,137.291z"/>
	<path fill="#AFAEAE" d="M131.153,114.065c0.037-0.064,0.047-0.105,0.071-0.159c-0.06-0.151-0.116-0.307-0.177-0.444
		C130.897,113.567,130.806,113.81,131.153,114.065z"/>
	<path fill="#AFAEAE" d="M131.393,135.615c0.322-0.323,0.136-1.171-0.48-1.436c-0.414,0.322,0.162,0.807,0.24,0.957
		C131.173,135.176,131.233,135.774,131.393,135.615z"/>
	<path fill="#AFAEAE" d="M130.912,118.134c-0.289,0.05-0.148,0.265,0,0.48C131.156,118.61,131.213,118.193,130.912,118.134z"/>
	<path fill="#AFAEAE" d="M130.673,136.094C130.094,134.86,130.054,136.918,130.673,136.094L130.673,136.094z"/>
	<path fill="#AFAEAE" d="M130.194,135.136c0.013-0.412-0.185-0.614-0.479-0.719C129.737,134.795,129.681,135.247,130.194,135.136z"
		/>
	<path fill="#AFAEAE" d="M128.515,115.74c0.159,0,0.318,0,0.479,0c0-0.16,0-0.318,0-0.478c-0.161,0-0.32,0-0.479,0
		C128.515,115.422,128.515,115.58,128.515,115.74z"/>
	<path fill="#AFAEAE" d="M128.754,131.065c0.014-0.411-0.184-0.613-0.48-0.719C128.261,130.758,128.458,130.96,128.754,131.065z"/>
	<path fill="#AFAEAE" d="M128.035,117.178c0,0.158,0,0.318,0,0.478c0.16,0,0.32,0,0.48,0c0-0.159,0-0.319,0-0.478
		C128.355,117.178,128.195,117.178,128.035,117.178z"/>
	<path fill="#AFAEAE" d="M128.035,117.896C126.775,117.894,127.783,118.902,128.035,117.896L128.035,117.896z"/>
	<path fill="#AFAEAE" d="M126.836,136.572C126.032,135.993,127.417,137.376,126.836,136.572L126.836,136.572z"/>
	<path fill="#AFAEAE" d="M126.596,119.81c0.229,0.446-0.718,0.8,0,0.958C126.667,120.621,127.192,119.847,126.596,119.81z"/>
	<path fill="#AFAEAE" d="M125.397,141.362c0.037,0.28-0.042,0.679,0.24,0.719C125.598,141.798,125.678,141.4,125.397,141.362z"/>
	<path fill="#AFAEAE" d="M124.677,126.994c0.038,0.281-0.04,0.681,0.239,0.719C124.879,127.43,124.959,127.033,124.677,126.994z"/>
	<path fill="#AFAEAE" d="M123.959,131.783c0,0.159,0,0.318,0,0.478c0.159,0,0.32,0,0.479,0c0-0.159,0-0.318,0-0.478
		C124.278,131.783,124.118,131.783,123.959,131.783z"/>
	<path fill="#AFAEAE" d="M121.798,121.487c0.025,0.269-0.348,0.372,0,0.478C122.041,121.963,122.101,121.546,121.798,121.487z"/>
	<path fill="#AFAEAE" d="M121.319,119.093c-0.013,0.411,0.185,0.614,0.479,0.719C121.812,119.399,121.614,119.197,121.319,119.093z"
		/>
	<path fill="#AFAEAE" d="M121.08,141.602c-0.037-0.319,0.975-0.724,0.239-0.958C121.355,140.962,120.344,141.366,121.08,141.602z"/>
	<path fill="#AFAEAE" d="M121.319,127.712C120.741,126.481,120.7,128.538,121.319,127.712L121.319,127.712z"/>
	<path fill="#AFAEAE" d="M121.08,131.783c-0.132-0.349,0.279-1.238-0.24-1.198C120.97,130.934,120.56,131.822,121.08,131.783z"/>
	<path fill="#AFAEAE" d="M120.36,127.473C119.631,128.28,121.248,128.2,120.36,127.473L120.36,127.473z"/>
	<path fill="#AFAEAE" d="M118.682,118.853c0,0.159,0,0.318,0,0.478c0.16,0,0.318,0,0.479,0c0-0.16,0-0.319,0-0.478
		C119.001,118.853,118.842,118.853,118.682,118.853z"/>
	<path fill="#AFAEAE" d="M118.92,142.799c-0.104,0-0.208,0-0.312,0l0.312,0.061C118.92,142.839,118.92,142.819,118.92,142.799z"/>
	<path fill="#AFAEAE" d="M118.441,140.882C117.638,140.304,119.021,141.685,118.441,140.882L118.441,140.882z"/>
	<path fill="#AFAEAE" d="M118.202,120.768c0.242-0.003,0.301-0.42,0-0.478C118.225,120.559,117.852,120.664,118.202,120.768z"/>
	<path fill="#AFAEAE" d="M115.803,125.557c0.038,0.28-0.04,0.681,0.24,0.719C116.006,125.993,116.086,125.597,115.803,125.557z"/>
	<path fill="#AFAEAE" d="M115.564,128.67c-0.014,0.411,0.186,0.614,0.479,0.718C116.056,128.978,115.858,128.774,115.564,128.67z"/>
	<path fill="#AFAEAE" d="M114.843,137.77c0.24,0,0.479,0,0.721,0c0-0.239,0-0.479,0-0.718
		C114.941,136.908,114.701,137.146,114.843,137.77z"/>
	<path fill="#AFAEAE" d="M115.084,123.164c0.037,0.281-0.041,0.68,0.238,0.718C115.287,123.599,115.365,123.201,115.084,123.164z"/>
	<path fill="#AFAEAE" d="M112.925,117.418c0.895-0.256,0.38,0.897,1.2,0.717C114.241,117.517,113.276,116.777,112.925,117.418z"/>
	<path fill="#AFAEAE" d="M113.883,129.627c0.04,0.281-0.039,0.681,0.242,0.719C114.087,130.065,114.166,129.666,113.883,129.627z"/>
	<path fill="#AFAEAE" d="M111.967,117.655C111.387,116.424,111.346,118.479,111.967,117.655L111.967,117.655z"/>
	<path fill="#AFAEAE" d="M111.726,120.29c0.054,0.452-0.271,0.528-0.239,0.959C112.155,121.631,112.149,120.213,111.726,120.29z"/>
	<path fill="#AFAEAE" d="M110.769,134.417c0.102-0.455,0.515-0.602,0.478-1.197C110.65,133.052,110.231,134.245,110.769,134.417z"/>
	<path fill="#AFAEAE" d="M110.527,115.98c-0.023-0.336-0.1-0.62-0.274-0.807l-0.212,0.042
		C110.028,115.646,110.16,115.93,110.527,115.98z"/>
	<path fill="#AFAEAE" d="M110.048,129.149c0.24-0.002,0.302-0.419,0-0.478C109.757,128.721,109.902,128.936,110.048,129.149z"/>
	<path fill="#AFAEAE" d="M108.608,120.051c0.646,0.165,0.464-0.496,0.72-0.719C108.683,119.166,108.864,119.828,108.608,120.051z"/>
	<path fill="#AFAEAE" d="M109.088,116.219C108.509,114.986,108.469,117.042,109.088,116.219L109.088,116.219z"/>
	<path fill="#AFAEAE" d="M109.088,133.938C109.365,132.405,108.356,133.412,109.088,133.938L109.088,133.938z"/>
	<path fill="#AFAEAE" d="M108.129,116.937c0.072,0.471-0.324,0.476-0.479,0.719C108.019,118.34,108.798,117.186,108.129,116.937z"/>
	<path fill="#AFAEAE" d="M106.212,119.81c0.002,0.636-0.135,1.409,0.479,1.438C106.544,120.754,107.077,119.584,106.212,119.81z"/>
	<path fill="#AFAEAE" d="M106.45,132.501C107.031,131.7,105.645,133.081,106.45,132.501L106.45,132.501z"/>
	<path fill="#AFAEAE" d="M105.731,126.036c0.59,0.372,0.703-0.813,0.239-0.718c-0.015,0.146-0.036,0.282-0.239,0.239
		C105.731,125.716,105.731,125.877,105.731,126.036z"/>
	<path fill="#AFAEAE" d="M105.657,140.277c0.062-0.128,0.031-0.313-0.166-0.351c0.01,0.102-0.039,0.181-0.084,0.245
		C105.49,140.222,105.573,140.257,105.657,140.277z"/>
	<path fill="#AFAEAE" d="M104.052,132.261c0.025,0.268-0.348,0.373,0,0.48C104.294,132.739,104.355,132.321,104.052,132.261z"/>
	<path fill="#AFAEAE" d="M103.572,126.276c0.033,0.444,0.158,0.799,0.48,0.959C104.12,126.687,103.994,126.333,103.572,126.276z"/>
	<path fill="#AFAEAE" d="M131.906,116.111c-0.011-0.045-0.023-0.086-0.034-0.13C131.63,116.121,131.727,116.186,131.906,116.111z"/>
	<path fill="#AFAEAE" d="M129.474,113.346c-0.16-0.2-0.221,0.44-0.24,0.478C128.892,114.506,129.667,113.586,129.474,113.346z"/>
	<path fill="#AFAEAE" d="M128.995,112.628c0.251,0.286,0.171,0.056,0-0.241C128.803,112.061,128.749,112.348,128.995,112.628z"/>
	<path fill="#AFAEAE" d="M128.275,129.627c0.018-0.334-0.053-0.916-0.24-0.479C127.716,129.812,128.984,129.972,128.275,129.627z"/>
	<path fill="#AFAEAE" d="M126.356,121.487c-0.434,0.072,0.244,1.007,0.48,1.198c0-0.242,0-0.48,0-0.72
		c0.186-0.054,0.473-0.007,0.479-0.239C126.098,122.147,126.665,120.923,126.356,121.487z"/>
	<path fill="#AFAEAE" d="M127.316,123.402c-0.159-0.198-0.222,0.441-0.239,0.478C126.733,124.564,127.509,123.643,127.316,123.402z"
		/>
	<path fill="#AFAEAE" d="M126.596,132.261c-0.16-0.198-0.223,0.441-0.24,0.48C126.014,133.424,126.79,132.502,126.596,132.261z"/>
	<path fill="#AFAEAE" d="M126.117,124.839c-0.495-0.211-0.909,0.79-0.479,0.719C125.659,125.18,126.249,125.372,126.117,124.839z"/>
	<path fill="#AFAEAE" d="M125.157,131.544c0.09,0.18,0.422,0.363,0.24,0c-0.031-0.061,0.018-0.173,0-0.24
		C125.318,131.008,124.996,131.222,125.157,131.544z"/>
	<path fill="#AFAEAE" d="M125.157,137.53C125.848,136.143,124.565,136.9,125.157,137.53L125.157,137.53z"/>
	<path fill="#AFAEAE" d="M121.559,118.614c-0.073-0.173-0.331-0.407-0.479-0.48C120.245,117.736,122.044,119.419,121.559,118.614z"
		/>
	<path fill="#AFAEAE" d="M118.441,130.824c-0.031-0.429,0.24-0.559,0.72-0.478c0.328-0.683-0.429-1.438-0.72-0.719
		C119.167,129.699,117.597,130.636,118.441,130.824z"/>
	<path fill="#AFAEAE" d="M117.961,119.093c0.091,0.18,0.422,0.365,0.24,0c-0.03-0.062,0.018-0.174,0-0.239
		C118.122,118.557,117.801,118.77,117.961,119.093z"/>
	<path fill="#AFAEAE" d="M117.483,117.896c0.25,0.285,0.17,0.056,0-0.241C117.294,117.329,117.238,117.615,117.483,117.896z"/>
	<path fill="#AFAEAE" d="M116.494,113.961l-0.346,0.066C116.302,114.085,116.439,114.07,116.494,113.961z"/>
	<path fill="#AFAEAE" d="M111.726,131.304c-0.212,0.493,0.79,0.906,0.718,0.479C112.067,131.761,112.258,131.173,111.726,131.304z"
		/>
	<path fill="#AFAEAE" d="M105.97,132.981c-0.114-0.754,0.343-0.937,0.479-1.436c-0.186-0.054-0.473-0.007-0.479-0.24
		c0.565-0.609-0.237-0.117-0.239,0.24c-0.002,0.091,0.388,0.152,0.239,0.479c-0.075,0.169-0.509-0.089-0.479,0.239
		C105.531,132.734,106.293,133.397,105.97,132.981z"/>
	<path fill="#AFAEAE" d="M106.45,136.333c-0.342,0.681,0.433-0.238,0.24-0.478C106.532,135.654,106.469,136.296,106.45,136.333z"/>
	<path fill="#AFAEAE" d="M161.739,116.746C162.03,115.699,160.622,116.494,161.739,116.746L161.739,116.746z"/>
	<path fill="#AFAEAE" d="M167.327,130.557c0.375-0.174,0.467-0.438,0.428-0.75C167.286,129.657,166.993,129.983,167.327,130.557z"/>
	<path fill="#AFAEAE" d="M168.508,132.912c0.024,0.049,0.05,0.1,0.075,0.147c-0.008-0.054-0.02-0.115-0.028-0.171
		C168.54,132.897,168.525,132.904,168.508,132.912z"/>
	<path fill="#AFAEAE" d="M166.682,128.737c-0.172-0.373-0.439-0.467-0.75-0.427C166.12,128.635,166.275,129.067,166.682,128.737z"/>
	<path fill="#AFAEAE" d="M155.835,108.184c0.005-0.074-0.004-0.114-0.007-0.175c-0.12-0.107-0.241-0.223-0.358-0.317
		C155.385,107.853,155.411,108.11,155.835,108.184z"/>
	<path fill="#AFAEAE" d="M165.716,127.346c0.144-0.433-0.403-1.106-1.073-1.07c-0.227,0.474,0.508,0.651,0.645,0.75
		C165.322,127.05,165.645,127.558,165.716,127.346z"/>
	<path fill="#AFAEAE" d="M157.445,111.93c-0.235,0.175-0.013,0.303,0.217,0.43C157.877,112.247,157.741,111.848,157.445,111.93z"/>
	<path fill="#AFAEAE" d="M165.287,128.096C164.215,127.252,165.103,129.109,165.287,128.096L165.287,128.096z"/>
	<path fill="#AFAEAE" d="M164.429,127.455c-0.174-0.374-0.441-0.467-0.752-0.429C163.866,127.353,164.021,127.782,164.429,127.455z"
		/>
	<path fill="#AFAEAE" d="M154.228,110.862c0.143-0.071,0.285-0.143,0.43-0.215c-0.071-0.143-0.143-0.284-0.215-0.428
		c-0.144,0.072-0.287,0.144-0.429,0.216C154.085,110.577,154.157,110.719,154.228,110.862z"/>
	<path fill="#AFAEAE" d="M161.316,124.456c-0.173-0.373-0.439-0.465-0.751-0.427C160.737,124.403,161.005,124.496,161.316,124.456z"
		/>
	<path fill="#AFAEAE" d="M154.445,112.361c0.07,0.142,0.143,0.284,0.214,0.427c0.144-0.071,0.285-0.143,0.429-0.216
		c-0.071-0.142-0.143-0.284-0.215-0.426C154.729,112.219,154.587,112.29,154.445,112.361z"/>
	<path fill="#AFAEAE" d="M154.767,113.004C153.638,113.567,154.992,114.016,154.767,113.004L154.767,113.004z"/>
	<path fill="#AFAEAE" d="M162.071,130.241C161.092,130.081,162.95,130.697,162.071,130.241L162.071,130.241z"/>
	<path fill="#AFAEAE" d="M154.338,115.358c0.404,0.298-0.282,1.038,0.431,0.858C154.765,116.052,154.888,115.124,154.338,115.358z"
		/>
	<path fill="#AFAEAE" d="M162.933,135.165c0.159,0.235,0.268,0.626,0.537,0.535C163.309,135.465,163.2,135.074,162.933,135.165z"/>
	<path fill="#AFAEAE" d="M155.845,122.64c0.16,0.236,0.27,0.626,0.537,0.536C156.222,122.94,156.114,122.55,155.845,122.64z"/>
	<path fill="#AFAEAE" d="M157.349,127.245c0.071,0.144,0.144,0.284,0.214,0.427c0.144-0.071,0.287-0.144,0.43-0.215
		c-0.071-0.142-0.143-0.284-0.215-0.427C157.636,127.101,157.492,127.172,157.349,127.245z"/>
	<path fill="#AFAEAE" d="M150.8,119.004c0.144,0.229-0.144,0.488,0.215,0.428C151.231,119.32,151.098,118.921,150.8,119.004z"/>
	<path fill="#AFAEAE" d="M149.298,117.076c0.174,0.373,0.441,0.466,0.75,0.427C149.876,117.131,149.61,117.039,149.298,117.076z"/>
	<path fill="#AFAEAE" d="M159.18,137.31c-0.175-0.269,0.549-1.082-0.215-0.963C159.139,136.614,158.416,137.429,159.18,137.31z"/>
	<path fill="#AFAEAE" d="M153.164,124.785C152.094,123.943,152.98,125.798,153.164,124.785L153.164,124.785z"/>
	<path fill="#AFAEAE" d="M154.776,128.532c-0.273-0.253-0.305-1.232-0.753-0.963C154.298,127.82,154.329,128.798,154.776,128.532z"
		/>
	<path fill="#AFAEAE" d="M152.197,124.999C151.908,126.044,153.32,125.253,152.197,124.999L152.197,124.999z"/>
	<path fill="#AFAEAE" d="M146.833,118.042c0.071,0.143,0.143,0.285,0.214,0.428c0.144-0.071,0.285-0.142,0.43-0.214
		c-0.072-0.143-0.145-0.285-0.216-0.429C147.117,117.899,146.976,117.971,146.833,118.042z"/>
	<path fill="#AFAEAE" d="M157.786,139.345c-0.093,0.047-0.187,0.094-0.28,0.141l0.307-0.086
		C157.805,139.381,157.795,139.363,157.786,139.345z"/>
	<path fill="#AFAEAE" d="M156.497,137.847C155.52,137.688,157.377,138.306,156.497,137.847L156.497,137.847z"/>
	<path fill="#AFAEAE" d="M147.262,119.97c0.216-0.111,0.081-0.51-0.214-0.428C147.19,119.77,146.904,120.032,147.262,119.97z"/>
	<path fill="#AFAEAE" d="M147.265,125.324c0.161,0.234,0.27,0.627,0.538,0.534C147.642,125.623,147.536,125.233,147.265,125.324z"/>
	<path fill="#AFAEAE" d="M148.448,128.214c0.173,0.373,0.442,0.466,0.751,0.427C149.027,128.269,148.757,128.173,148.448,128.214z"
		/>
	<path fill="#AFAEAE" d="M151.885,136.671c0.215-0.106,0.428-0.215,0.645-0.321c-0.107-0.214-0.215-0.428-0.322-0.642
		C151.586,135.858,151.478,136.179,151.885,136.671z"/>
	<path fill="#AFAEAE" d="M145.548,123.505c0.161,0.234,0.268,0.626,0.536,0.535C145.925,123.804,145.817,123.412,145.548,123.505z"
		/>
	<path fill="#AFAEAE" d="M141.04,119.332c0.686-0.629,0.742,0.634,1.395,0.104C142.262,118.832,141.068,118.601,141.04,119.332z"/>
	<path fill="#AFAEAE" d="M147.374,129.821c0.162,0.235,0.271,0.626,0.539,0.534C147.752,130.12,147.644,129.729,147.374,129.821z"/>
	<path fill="#AFAEAE" d="M140.291,119.973C139.221,119.13,140.106,120.987,140.291,119.973L140.291,119.973z"/>
	<path fill="#AFAEAE" d="M141.257,122.436c0.252,0.379-0.004,0.594,0.217,0.964C142.242,123.443,141.602,122.179,141.257,122.436z"
		/>
	<path fill="#AFAEAE" d="M146.739,135.496c-0.113-0.452,0.191-0.769-0.111-1.284C146.02,134.327,146.18,135.582,146.739,135.496z"/>
	<path fill="#AFAEAE" d="M138.252,119.119c-0.172-0.29-0.367-0.509-0.607-0.599l-0.171,0.132
		C137.655,119.044,137.901,119.237,138.252,119.119z"/>
	<path fill="#AFAEAE" d="M143.732,131.108c0.214-0.108,0.082-0.509-0.215-0.427C143.279,130.855,143.504,130.984,143.732,131.108z"
		/>
	<path fill="#AFAEAE" d="M138.362,123.616c0.652-0.142,0.193-0.651,0.322-0.963C138.033,122.793,138.492,123.302,138.362,123.616z"
		/>
	<path fill="#AFAEAE" d="M137.074,119.975C136.003,119.132,136.89,120.988,137.074,119.975L137.074,119.975z"/>
	<path fill="#AFAEAE" d="M145.021,135.82C144.578,134.324,144.13,135.677,145.021,135.82L145.021,135.82z"/>
	<path fill="#AFAEAE" d="M136.538,121.047c0.275,0.39-0.077,0.569-0.107,0.856C137.07,122.348,137.249,120.97,136.538,121.047z"/>
	<path fill="#AFAEAE" d="M136.111,124.472c0.289,0.567,0.514,1.321,1.075,1.073C136.832,125.17,136.784,123.883,136.111,124.472z"/>
	<path fill="#AFAEAE" d="M142.017,135.714C142.175,134.737,141.557,136.591,142.017,135.714L142.017,135.714z"/>
	<path fill="#AFAEAE" d="M138.474,130.253c0.695,0.069,0.265-1.042-0.106-0.748c0.052,0.137,0.094,0.27-0.107,0.319
		C138.33,129.968,138.403,130.112,138.474,130.253z"/>
	<path fill="#AFAEAE" d="M144.797,143.021c-0.002-0.143-0.114-0.294-0.309-0.24c0.055,0.087,0.046,0.179,0.035,0.257
		C144.621,143.047,144.711,143.041,144.797,143.021z"/>
	<path fill="#AFAEAE" d="M139.766,136.571c0.143,0.229-0.144,0.489,0.215,0.43C140.196,136.891,140.063,136.488,139.766,136.571z"/>
	<path fill="#AFAEAE" d="M136.652,131.434c0.229,0.383,0.5,0.644,0.859,0.642C137.325,131.557,137.054,131.296,136.652,131.434z"/>
	<path fill="#AFAEAE" d="M157.426,109.677c-0.029-0.034-0.059-0.066-0.088-0.101C157.186,109.81,157.299,109.824,157.426,109.677z"
		/>
	<path fill="#AFAEAE" d="M154.013,108.292c-0.234-0.106-0.001,0.493-0.001,0.535C154.012,109.59,154.292,108.421,154.013,108.292z"
		/>
	<path fill="#AFAEAE" d="M153.262,107.865c0.352,0.144,0.178-0.027-0.108-0.215C152.836,107.444,152.917,107.725,153.262,107.865z"
		/>
	<path fill="#AFAEAE" d="M118.93,103.948c0.047-0.08,0.059-0.13,0.091-0.196c-0.072-0.189-0.142-0.386-0.217-0.56
		C118.618,103.324,118.5,103.625,118.93,103.948z"/>
	<path fill="#AFAEAE" d="M118.582,109.032c-0.362,0.059-0.189,0.328-0.007,0.601C118.879,109.629,118.957,109.109,118.582,109.032z"
		/>
	<path fill="#AFAEAE" d="M115.614,106.01c0.198,0.002,0.397,0.004,0.6,0.007c0.002-0.199,0.005-0.399,0.006-0.599
		c-0.202-0.002-0.4-0.005-0.6-0.005C115.618,105.613,115.616,105.812,115.614,106.01z"/>
	<path fill="#AFAEAE" d="M114.997,107.801c-0.002,0.199-0.004,0.398-0.006,0.598c0.2,0.003,0.398,0.004,0.601,0.005
		c0-0.198,0.004-0.398,0.004-0.597C115.395,107.805,115.196,107.804,114.997,107.801z"/>
	<path fill="#AFAEAE" d="M114.989,108.7C113.413,108.682,114.662,109.952,114.989,108.7L114.989,108.7z"/>
	<path fill="#AFAEAE" d="M119.847,106.515c-0.015-0.056-0.028-0.107-0.041-0.162C119.503,106.525,119.621,106.606,119.847,106.515z"
		/>
	<path fill="#AFAEAE" d="M116.841,103.032c-0.199-0.253-0.283,0.548-0.307,0.594C116.099,104.473,117.08,103.335,116.841,103.032z"
		/>
	<path fill="#AFAEAE" d="M116.252,102.127c0.309,0.361,0.212,0.072,0-0.298C116.018,101.417,115.947,101.777,116.252,102.127z"/>
	<path fill="#AFAEAE" d="M160.242,123.386c-0.135-0.307-0.458-0.795-0.429-0.32C159.828,123.801,161.03,123.378,160.242,123.386z"/>
	<path fill="#AFAEAE" d="M154.875,116.966c-0.355,0.26,0.669,0.792,0.967,0.856c-0.108-0.216-0.216-0.43-0.322-0.644
		c0.143-0.132,0.419-0.218,0.321-0.428C154.942,117.671,154.899,116.323,154.875,116.966z"/>
	<path fill="#AFAEAE" d="M156.593,118.249c-0.232-0.105,0,0.494,0,0.535C156.593,119.549,156.874,118.379,156.593,118.249z"/>
	<path fill="#AFAEAE" d="M159.924,126.492c-0.232-0.104-0.001,0.494,0,0.537C159.925,127.791,160.202,126.621,159.924,126.492z"/>
	<path fill="#AFAEAE" d="M156.165,120.07c-0.537,0.033-0.458,1.113-0.107,0.856C155.909,120.58,156.522,120.487,156.165,120.07z"/>
	<path fill="#AFAEAE" d="M158.314,126.494c0.161,0.12,0.542,0.137,0.214-0.107c-0.055-0.041-0.062-0.163-0.107-0.216
		C158.217,125.942,158.026,126.278,158.314,126.494z"/>
	<path fill="#AFAEAE" d="M160.999,131.847C160.995,130.296,160.187,131.547,160.999,131.847L160.999,131.847z"/>
	<path fill="#AFAEAE" d="M149.298,116.541c-0.142-0.122-0.479-0.217-0.645-0.216C147.728,116.346,150.095,117.044,149.298,116.541z"
		/>
	<path fill="#AFAEAE" d="M151.987,128.854c-0.221-0.369-0.036-0.607,0.43-0.751c-0.013-0.758-1.029-1.095-0.967-0.32
		C152.131,127.522,151.147,129.062,151.987,128.854z"/>
	<path fill="#AFAEAE" d="M146.296,118.578c0.161,0.12,0.541,0.139,0.216-0.108c-0.055-0.04-0.063-0.162-0.107-0.213
		C146.199,118.027,146.009,118.361,146.296,118.578z"/>
	<path fill="#AFAEAE" d="M145.331,117.723c0.351,0.145,0.177-0.027-0.108-0.217C144.907,117.3,144.985,117.581,145.331,117.723z"/>
	<path fill="#AFAEAE" d="M142.681,114.647l-0.279,0.215C142.567,114.843,142.681,114.769,142.681,114.647z"/>
	<path fill="#AFAEAE" d="M146.198,132.283c0.031,0.536,1.114,0.458,0.858,0.108C146.707,132.541,146.615,131.929,146.198,132.283z"
		/>
	<path fill="#AFAEAE" d="M141.802,136.357c-0.439-0.621-0.113-0.99-0.215-1.498c-0.192,0.035-0.425,0.206-0.537-0.001
		c0.232-0.796-0.264,0.002-0.105,0.321c0.039,0.083,0.414-0.037,0.43,0.321c0.008,0.186-0.496,0.148-0.322,0.428
		C141.299,136.332,142.279,136.585,141.802,136.357z"/>
	<path fill="#AFAEAE" d="M143.737,139.14c0,0.762,0.28-0.406,0-0.536C143.504,138.497,143.737,139.099,143.737,139.14z"/>
	<path fill="#AFAEAE" d="M97.878,94.113C97.117,93.426,97.194,94.947,97.878,94.113L97.878,94.113z"/>
	<path fill="#AFAEAE" d="M111.89,95.24c0.012-0.389-0.173-0.578-0.452-0.677C111.115,94.894,111.265,95.278,111.89,95.24z"/>
	<path fill="#AFAEAE" d="M114.378,95.24c0.052,0,0.104,0,0.156,0c-0.049-0.017-0.106-0.032-0.156-0.049
		C114.378,95.207,114.378,95.224,114.378,95.24z"/>
	<path fill="#AFAEAE" d="M110.083,95.015c-0.389-0.013-0.579,0.173-0.678,0.451C109.759,95.445,110.189,95.496,110.083,95.015z"/>
	<path fill="#AFAEAE" d="M88.161,95.467c-0.061-0.035-0.099-0.044-0.149-0.067c-0.143,0.056-0.29,0.109-0.42,0.167
		C87.691,95.706,87.92,95.792,88.161,95.467z"/>
	<path fill="#AFAEAE" d="M108.501,95.24c-0.305-0.303-1.104-0.128-1.356,0.451c0.305,0.39,0.764-0.152,0.904-0.226
		C108.086,95.447,108.65,95.391,108.501,95.24z"/>
	<path fill="#AFAEAE" d="M92.002,95.691c0.047,0.272,0.25,0.14,0.453,0C92.451,95.464,92.057,95.409,92.002,95.691z"/>
	<path fill="#AFAEAE" d="M108.953,95.918C107.79,96.463,109.73,96.501,108.953,95.918L108.953,95.918z"/>
	<path fill="#AFAEAE" d="M108.048,96.369c-0.39-0.012-0.58,0.174-0.679,0.451C107.727,96.799,108.153,96.85,108.048,96.369z"/>
	<path fill="#AFAEAE" d="M89.742,97.948c0-0.15,0-0.3,0-0.451c-0.15,0-0.301,0-0.451,0c0,0.151,0,0.301,0,0.451
		C89.441,97.948,89.592,97.948,89.742,97.948z"/>
	<path fill="#AFAEAE" d="M104.207,97.722c-0.389-0.013-0.579,0.174-0.679,0.451C103.918,98.186,104.108,98.001,104.207,97.722z"/>
	<path fill="#AFAEAE" d="M91.099,98.399c0.149,0,0.301,0,0.451,0c0-0.15,0-0.3,0-0.451c-0.15,0-0.302,0-0.451,0
		C91.099,98.099,91.099,98.249,91.099,98.399z"/>
	<path fill="#AFAEAE" d="M91.777,98.399C91.775,99.586,92.726,98.636,91.777,98.399L91.777,98.399z"/>
	<path fill="#AFAEAE" d="M109.405,99.528C108.858,100.284,110.163,98.982,109.405,99.528L109.405,99.528z"/>
	<path fill="#AFAEAE" d="M93.584,99.753c0.422-0.215,0.756,0.676,0.905,0C94.349,99.687,93.618,99.192,93.584,99.753z"/>
	<path fill="#AFAEAE" d="M113.925,100.882c0.266-0.035,0.641,0.039,0.679-0.227C114.338,100.692,113.962,100.617,113.925,100.882z"
		/>
	<path fill="#AFAEAE" d="M100.364,101.558c0.267-0.035,0.643,0.038,0.679-0.226C100.776,101.368,100.401,101.293,100.364,101.558z"
		/>
	<path fill="#AFAEAE" d="M104.884,102.236c0.15,0,0.301,0,0.451,0c0-0.15,0-0.301,0-0.451c-0.15,0-0.301,0-0.451,0
		C104.884,101.934,104.884,102.086,104.884,102.236z"/>
	<path fill="#AFAEAE" d="M95.166,104.267c0.254-0.023,0.352,0.327,0.452,0C95.615,104.039,95.221,103.982,95.166,104.267z"/>
	<path fill="#AFAEAE" d="M92.906,104.718c0.389,0.012,0.58-0.174,0.678-0.451C93.196,104.254,93.006,104.44,92.906,104.718z"/>
	<path fill="#AFAEAE" d="M114.152,104.943c-0.302,0.034-0.683-0.917-0.904-0.226C113.547,104.684,113.929,105.635,114.152,104.943z"
		/>
	<path fill="#AFAEAE" d="M101.043,104.718C99.881,105.263,101.82,105.301,101.043,104.718L101.043,104.718z"/>
	<path fill="#AFAEAE" d="M104.884,104.943c-0.329,0.124-1.169-0.263-1.131,0.227C104.083,105.045,104.922,105.433,104.884,104.943z"
		/>
	<path fill="#AFAEAE" d="M100.816,105.621C101.577,106.306,101.502,104.786,100.816,105.621L100.816,105.621z"/>
	<path fill="#AFAEAE" d="M92.68,107.199c0.15,0,0.301,0,0.452,0c0-0.15,0-0.299,0-0.45c-0.151,0-0.302,0-0.452,0
		C92.68,106.9,92.68,107.048,92.68,107.199z"/>
	<path fill="#AFAEAE" d="M115.281,106.975c0,0.098,0,0.196,0,0.293l0.058-0.293C115.319,106.975,115.3,106.975,115.281,106.975z"/>
	<path fill="#AFAEAE" d="M113.472,107.426C112.926,108.182,114.231,106.88,113.472,107.426L113.472,107.426z"/>
	<path fill="#AFAEAE" d="M94.489,107.65c-0.003-0.228-0.396-0.282-0.452,0C94.291,107.628,94.389,107.98,94.489,107.65z"/>
	<path fill="#AFAEAE" d="M99.008,109.908c0.266-0.036,0.643,0.038,0.679-0.227C99.42,109.716,99.046,109.643,99.008,109.908z"/>
	<path fill="#AFAEAE" d="M101.946,110.133c0.389,0.013,0.58-0.175,0.678-0.451C102.236,109.669,102.044,109.856,101.946,110.133z"/>
	<path fill="#AFAEAE" d="M110.535,110.81c0-0.226,0-0.45,0-0.678c-0.226,0-0.452,0-0.678,0
		C109.721,110.718,109.947,110.945,110.535,110.81z"/>
	<path fill="#AFAEAE" d="M96.749,110.585c0.266-0.036,0.642,0.038,0.678-0.226C97.16,110.394,96.784,110.32,96.749,110.585z"/>
	<path fill="#AFAEAE" d="M91.326,112.615c-0.241-0.841,0.848-0.356,0.677-1.129C91.419,111.377,90.721,112.285,91.326,112.615z"/>
	<path fill="#AFAEAE" d="M102.85,111.714c0.266-0.037,0.642,0.037,0.678-0.228C103.262,111.523,102.886,111.448,102.85,111.714z"/>
	<path fill="#AFAEAE" d="M91.55,113.517C90.387,114.062,92.327,114.101,91.55,113.517L91.55,113.517z"/>
	<path fill="#AFAEAE" d="M94.037,113.743c0.427-0.051,0.499,0.255,0.905,0.226C95.301,113.34,93.965,113.345,94.037,113.743z"/>
	<path fill="#AFAEAE" d="M107.371,114.645c-0.43-0.096-0.567-0.484-1.13-0.449C106.082,114.756,107.208,115.15,107.371,114.645z"/>
	<path fill="#AFAEAE" d="M89.969,114.872c-0.317,0.022-0.585,0.095-0.762,0.259l0.039,0.199
		C89.653,115.342,89.921,115.217,89.969,114.872z"/>
	<path fill="#AFAEAE" d="M102.398,115.322c-0.002-0.227-0.396-0.283-0.452,0C101.994,115.596,102.197,115.46,102.398,115.322z"/>
	<path fill="#AFAEAE" d="M93.81,116.677c0.156-0.607-0.468-0.437-0.678-0.678C92.976,116.606,93.6,116.437,93.81,116.677z"/>
	<path fill="#AFAEAE" d="M90.194,116.226C89.031,116.77,90.971,116.808,90.194,116.226L90.194,116.226z"/>
	<path fill="#AFAEAE" d="M106.919,116.226C105.47,115.965,106.423,116.914,106.919,116.226L106.919,116.226z"/>
	<path fill="#AFAEAE" d="M90.872,117.127c0.445-0.067,0.449,0.305,0.679,0.451C92.195,117.23,91.108,116.497,90.872,117.127z"/>
	<path fill="#AFAEAE" d="M93.584,118.933c0.601-0.003,1.331,0.126,1.358-0.451C94.475,118.619,93.37,118.117,93.584,118.933z"/>
	<path fill="#AFAEAE" d="M105.562,118.707C104.804,118.161,106.109,119.465,105.562,118.707L105.562,118.707z"/>
	<path fill="#AFAEAE" d="M99.46,119.384c0.352-0.555-0.769-0.662-0.677-0.226c0.137,0.014,0.267,0.034,0.225,0.226
		C99.158,119.384,99.309,119.384,99.46,119.384z"/>
	<path fill="#AFAEAE" d="M112.902,119.453c-0.121-0.059-0.297-0.028-0.333,0.157c0.097-0.009,0.171,0.037,0.231,0.079
		C112.849,119.611,112.882,119.532,112.902,119.453z"/>
	<path fill="#AFAEAE" d="M105.336,120.964c0.254-0.023,0.352,0.327,0.453,0C105.786,120.736,105.391,120.68,105.336,120.964z"/>
	<path fill="#AFAEAE" d="M99.686,121.415c0.42-0.031,0.755-0.148,0.905-0.451C100.075,120.9,99.74,121.018,99.686,121.415z"/>
	<path fill="#AFAEAE" d="M90.093,94.758c-0.042,0.011-0.081,0.021-0.122,0.032C90.102,95.017,90.163,94.927,90.093,94.758z"/>
	<path fill="#AFAEAE" d="M87.483,97.046c-0.188,0.151,0.416,0.209,0.451,0.227C88.577,97.593,87.71,96.864,87.483,97.046z"/>
	<path fill="#AFAEAE" d="M86.804,97.497c0.271-0.236,0.053-0.161-0.227,0C86.269,97.677,86.541,97.727,86.804,97.497z"/>
	<path fill="#AFAEAE" d="M102.85,98.174c-0.316-0.017-0.865,0.05-0.452,0.226C103.024,98.698,103.174,97.508,102.85,98.174z"/>
	<path fill="#AFAEAE" d="M95.166,99.979c0.068,0.408,0.951-0.229,1.131-0.451c-0.228,0-0.453,0-0.679,0
		c-0.051-0.176-0.007-0.445-0.226-0.451C95.789,100.221,94.634,99.688,95.166,99.979z"/>
	<path fill="#AFAEAE" d="M96.974,99.077c-0.187,0.15,0.417,0.209,0.452,0.226C98.071,99.625,97.202,98.894,96.974,99.077z"/>
	<path fill="#AFAEAE" d="M105.336,99.753c-0.187,0.151,0.417,0.21,0.453,0.227C106.433,100.3,105.563,99.572,105.336,99.753z"/>
	<path fill="#AFAEAE" d="M98.33,100.205c-0.199,0.466,0.746,0.854,0.678,0.451C98.652,100.635,98.832,100.081,98.33,100.205z"/>
	<path fill="#AFAEAE" d="M104.658,101.108c0.17-0.085,0.344-0.397,0-0.227c-0.058,0.029-0.163-0.017-0.227,0
		C104.153,100.956,104.355,101.259,104.658,101.108z"/>
	<path fill="#AFAEAE" d="M110.309,101.108C108.999,100.457,109.714,101.664,110.309,101.108L110.309,101.108z"/>
	<path fill="#AFAEAE" d="M92.455,104.492c-0.163,0.068-0.385,0.31-0.453,0.451C91.626,105.729,93.215,104.035,92.455,104.492z"/>
	<path fill="#AFAEAE" d="M103.98,107.426c-0.405,0.029-0.528-0.227-0.452-0.678c-0.645-0.309-1.358,0.403-0.678,0.678
		C102.917,106.743,103.801,108.22,103.98,107.426z"/>
	<path fill="#AFAEAE" d="M92.906,107.876c0.169-0.085,0.345-0.396,0-0.227c-0.058,0.029-0.164-0.016-0.226,0
		C92.4,107.726,92.602,108.028,92.906,107.876z"/>
	<path fill="#AFAEAE" d="M91.777,108.327c0.27-0.235,0.052-0.16-0.228,0C91.242,108.506,91.512,108.559,91.777,108.327z"/>
	<path fill="#AFAEAE" d="M88.063,109.258l0.063,0.325C88.18,109.438,88.167,109.31,88.063,109.258z"/>
	<path fill="#AFAEAE" d="M104.432,113.743c0.466,0.2,0.856-0.743,0.453-0.676C104.863,113.422,104.308,113.243,104.432,113.743z"/>
	<path fill="#AFAEAE" d="M106.014,119.158c-0.711,0.108-0.885-0.321-1.356-0.451c-0.051,0.176-0.006,0.444-0.227,0.451
		c-0.575-0.531-0.11,0.224,0.227,0.226c0.086,0.002,0.144-0.364,0.452-0.226c0.159,0.071-0.084,0.478,0.226,0.451
		C105.781,119.572,106.408,118.855,106.014,119.158z"/>
	<path fill="#AFAEAE" d="M109.178,118.707c0.643,0.321-0.225-0.406-0.452-0.227C108.538,118.631,109.143,118.689,109.178,118.707z"
		/>
	<path fill="#AFAEAE" d="M99.993,126.216C100.68,125.457,99.157,125.534,99.993,126.216L99.993,126.216z"/>
	<path fill="#AFAEAE" d="M98.864,140.207c0.389,0.012,0.578-0.173,0.678-0.451C99.21,139.433,98.825,139.583,98.864,140.207z"/>
	<path fill="#AFAEAE" d="M98.864,142.69c0,0.052,0,0.104,0,0.156c0.016-0.049,0.031-0.106,0.049-0.156
		C98.897,142.69,98.88,142.69,98.864,142.69z"/>
	<path fill="#AFAEAE" d="M99.089,138.402c0.014-0.388-0.172-0.578-0.451-0.677C98.659,138.079,98.606,138.509,99.089,138.402z"/>
	<path fill="#AFAEAE" d="M98.637,116.515c0.035-0.061,0.043-0.099,0.066-0.149c-0.055-0.143-0.109-0.289-0.166-0.419
		C98.397,116.046,98.311,116.274,98.637,116.515z"/>
	<path fill="#AFAEAE" d="M98.864,136.823c0.303-0.304,0.127-1.103-0.453-1.354c-0.391,0.304,0.152,0.763,0.227,0.902
		C98.657,136.409,98.714,136.972,98.864,136.823z"/>
	<path fill="#AFAEAE" d="M98.411,120.35c-0.273,0.047-0.139,0.25,0,0.452C98.639,120.799,98.694,120.406,98.411,120.35z"/>
	<path fill="#AFAEAE" d="M98.184,137.274C97.64,136.112,97.601,138.05,98.184,137.274L98.184,137.274z"/>
	<path fill="#AFAEAE" d="M97.734,136.372c0.012-0.389-0.174-0.579-0.453-0.678C97.302,136.05,97.252,136.476,97.734,136.372z"/>
	<path fill="#AFAEAE" d="M96.152,118.094c0.15,0,0.301,0,0.451,0c0-0.15,0-0.3,0-0.45c-0.15,0-0.301,0-0.451,0
		C96.152,117.794,96.152,117.944,96.152,118.094z"/>
	<path fill="#AFAEAE" d="M96.377,132.535c0.014-0.388-0.174-0.578-0.451-0.678C95.912,132.246,96.099,132.437,96.377,132.535z"/>
	<path fill="#AFAEAE" d="M95.699,119.449c0,0.149,0,0.3,0,0.45c0.15,0,0.301,0,0.453,0c0-0.15,0-0.301,0-0.45
		C96,119.449,95.849,119.449,95.699,119.449z"/>
	<path fill="#AFAEAE" d="M95.699,120.127C94.512,120.125,95.463,121.074,95.699,120.127L95.699,120.127z"/>
	<path fill="#AFAEAE" d="M94.569,137.726C93.811,137.18,95.115,138.482,94.569,137.726L94.569,137.726z"/>
	<path fill="#AFAEAE" d="M94.344,121.929c0.215,0.421-0.678,0.755,0,0.903C94.411,122.694,94.904,121.964,94.344,121.929z"/>
	<path fill="#AFAEAE" d="M93.214,142.238c0.035,0.265-0.039,0.64,0.227,0.678C93.403,142.65,93.479,142.274,93.214,142.238z"/>
	<path fill="#AFAEAE" d="M92.535,128.699c0.035,0.266-0.038,0.642,0.226,0.678C92.726,129.11,92.801,128.736,92.535,128.699z"/>
	<path fill="#AFAEAE" d="M91.857,133.213c0,0.15,0,0.3,0,0.45c0.15,0,0.302,0,0.452,0c0-0.15,0-0.3,0-0.45
		C92.158,133.213,92.007,133.213,91.857,133.213z"/>
	<path fill="#AFAEAE" d="M89.822,123.509c0.023,0.254-0.328,0.351,0,0.451C90.051,123.958,90.108,123.565,89.822,123.509z"/>
	<path fill="#AFAEAE" d="M89.37,121.253c-0.012,0.388,0.174,0.579,0.452,0.677C89.835,121.543,89.649,121.352,89.37,121.253z"/>
	<path fill="#AFAEAE" d="M89.145,142.465c-0.034-0.301,0.919-0.682,0.226-0.902C89.405,141.861,88.451,142.242,89.145,142.465z"/>
	<path fill="#AFAEAE" d="M89.37,129.376C88.824,128.216,88.786,130.153,89.37,129.376L89.37,129.376z"/>
	<path fill="#AFAEAE" d="M89.145,133.213c-0.124-0.328,0.264-1.167-0.227-1.129C89.042,132.411,88.655,133.25,89.145,133.213z"/>
	<path fill="#AFAEAE" d="M88.466,129.15C87.781,129.91,89.303,129.835,88.466,129.15L88.466,129.15z"/>
	<path fill="#AFAEAE" d="M86.886,121.028c0,0.15,0,0.3,0,0.451c0.15,0,0.3,0,0.451,0c0-0.151,0-0.301,0-0.451
		C87.186,121.028,87.036,121.028,86.886,121.028z"/>
	<path fill="#AFAEAE" d="M87.111,143.593c-0.098,0-0.196,0-0.294,0l0.294,0.058C87.111,143.631,87.111,143.612,87.111,143.593z"/>
	<path fill="#AFAEAE" d="M86.658,141.786C85.901,141.241,87.205,142.544,86.658,141.786L86.658,141.786z"/>
	<path fill="#AFAEAE" d="M86.434,122.833c0.228-0.003,0.283-0.395,0-0.451C86.455,122.635,86.104,122.734,86.434,122.833z"/>
	<path fill="#AFAEAE" d="M84.173,127.345c0.036,0.265-0.038,0.642,0.227,0.678C84.365,127.756,84.439,127.383,84.173,127.345z"/>
	<path fill="#AFAEAE" d="M83.948,130.279c-0.013,0.388,0.175,0.579,0.452,0.677C84.411,130.569,84.225,130.376,83.948,130.279z"/>
	<path fill="#AFAEAE" d="M83.269,138.853c0.226,0,0.451,0,0.679,0c0-0.225,0-0.451,0-0.677
		C83.361,138.041,83.134,138.267,83.269,138.853z"/>
	<path fill="#AFAEAE" d="M83.494,125.089c0.036,0.265-0.038,0.641,0.226,0.677C83.686,125.5,83.76,125.125,83.494,125.089z"/>
	<path fill="#AFAEAE" d="M81.461,119.675c0.843-0.241,0.357,0.846,1.131,0.676C82.7,119.767,81.791,119.072,81.461,119.675z"/>
	<path fill="#AFAEAE" d="M82.364,131.182c0.037,0.266-0.037,0.641,0.228,0.677C82.555,131.593,82.629,131.217,82.364,131.182z"/>
	<path fill="#AFAEAE" d="M80.558,119.899C80.012,118.738,79.973,120.676,80.558,119.899L80.558,119.899z"/>
	<path fill="#AFAEAE" d="M80.331,122.382c0.051,0.426-0.255,0.498-0.226,0.903C80.735,123.645,80.73,122.309,80.331,122.382z"/>
	<path fill="#AFAEAE" d="M79.428,135.694c0.096-0.429,0.485-0.566,0.45-1.128C79.317,134.407,78.921,135.531,79.428,135.694z"/>
	<path fill="#AFAEAE" d="M79.2,118.321c-0.022-0.316-0.095-0.584-0.259-0.761l-0.199,0.039
		C78.73,118.006,78.855,118.272,79.2,118.321z"/>
	<path fill="#AFAEAE" d="M78.749,130.73c0.227-0.002,0.284-0.394,0-0.451C78.475,130.327,78.611,130.53,78.749,130.73z"/>
	<path fill="#AFAEAE" d="M77.393,122.156c0.608,0.156,0.438-0.467,0.679-0.677C77.463,121.323,77.634,121.946,77.393,122.156z"/>
	<path fill="#AFAEAE" d="M77.845,118.546C77.3,117.385,77.262,119.321,77.845,118.546L77.845,118.546z"/>
	<path fill="#AFAEAE" d="M77.845,135.243C78.106,133.798,77.156,134.748,77.845,135.243L77.845,135.243z"/>
	<path fill="#AFAEAE" d="M76.942,119.222c0.067,0.444-0.306,0.448-0.452,0.678C76.838,120.544,77.573,119.458,76.942,119.222z"/>
	<path fill="#AFAEAE" d="M75.134,121.929c0.003,0.6-0.126,1.328,0.452,1.355C75.447,122.819,75.95,121.717,75.134,121.929z"/>
	<path fill="#AFAEAE" d="M75.359,133.889C75.906,133.133,74.601,134.435,75.359,133.889L75.359,133.889z"/>
	<path fill="#AFAEAE" d="M74.682,127.796c0.556,0.351,0.663-0.768,0.226-0.676c-0.014,0.137-0.034,0.266-0.226,0.225
		C74.682,127.496,74.682,127.646,74.682,127.796z"/>
	<path fill="#AFAEAE" d="M74.613,141.217c0.059-0.121,0.028-0.296-0.157-0.332c0.009,0.097-0.037,0.171-0.079,0.231
		C74.454,141.164,74.534,141.197,74.613,141.217z"/>
	<path fill="#AFAEAE" d="M73.099,133.663c0.023,0.254-0.328,0.351,0,0.452C73.326,134.112,73.384,133.719,73.099,133.663z"/>
	<path fill="#AFAEAE" d="M72.647,128.023c0.031,0.419,0.149,0.754,0.452,0.903C73.162,128.411,73.044,128.076,72.647,128.023z"/>
	<path fill="#AFAEAE" d="M99.346,118.444c-0.01-0.042-0.021-0.081-0.031-0.122C99.087,118.454,99.178,118.515,99.346,118.444z"/>
	<path fill="#AFAEAE" d="M97.056,115.839c-0.152-0.188-0.209,0.415-0.227,0.45C96.508,116.932,97.238,116.064,97.056,115.839z"/>
	<path fill="#AFAEAE" d="M96.603,115.161c0.236,0.27,0.162,0.053,0-0.227C96.424,114.627,96.373,114.899,96.603,115.161z"/>
	<path fill="#AFAEAE" d="M95.925,131.182c0.016-0.315-0.051-0.863-0.227-0.451C95.4,131.355,96.593,131.505,95.925,131.182z"/>
	<path fill="#AFAEAE" d="M94.118,123.509c-0.41,0.068,0.229,0.949,0.451,1.129c0-0.228,0-0.452,0-0.678
		c0.176-0.051,0.447-0.007,0.453-0.226C93.874,124.131,94.409,122.978,94.118,123.509z"/>
	<path fill="#AFAEAE" d="M95.021,125.315c-0.15-0.187-0.209,0.416-0.227,0.451C94.473,126.41,95.203,125.542,95.021,125.315z"/>
	<path fill="#AFAEAE" d="M94.344,133.663c-0.152-0.187-0.211,0.416-0.227,0.452C93.796,134.759,94.526,133.89,94.344,133.663z"/>
	<path fill="#AFAEAE" d="M93.891,126.668c-0.467-0.199-0.855,0.745-0.451,0.677C93.46,126.99,94.016,127.169,93.891,126.668z"/>
	<path fill="#AFAEAE" d="M92.987,132.986c0.084,0.17,0.398,0.343,0.227,0c-0.029-0.058,0.016-0.163,0-0.226
		C93.139,132.482,92.835,132.684,92.987,132.986z"/>
	<path fill="#AFAEAE" d="M92.987,138.628C93.639,137.32,92.43,138.033,92.987,138.628L92.987,138.628z"/>
	<path fill="#AFAEAE" d="M89.597,120.803c-0.068-0.163-0.312-0.384-0.452-0.452C88.358,119.975,90.055,121.561,89.597,120.803z"/>
	<path fill="#AFAEAE" d="M86.658,132.309c-0.029-0.404,0.227-0.527,0.679-0.451c0.31-0.644-0.404-1.355-0.679-0.677
		C87.343,131.247,85.863,132.131,86.658,132.309z"/>
	<path fill="#AFAEAE" d="M86.207,121.253c0.085,0.169,0.397,0.344,0.227,0c-0.029-0.058,0.016-0.164,0-0.226
		C86.358,120.748,86.056,120.95,86.207,121.253z"/>
	<path fill="#AFAEAE" d="M85.755,120.127c0.235,0.269,0.16,0.052,0-0.228C85.576,119.592,85.524,119.861,85.755,120.127z"/>
	<path fill="#AFAEAE" d="M84.824,116.418l-0.326,0.063C84.644,116.534,84.772,116.52,84.824,116.418z"/>
	<path fill="#AFAEAE" d="M80.331,132.76c-0.2,0.465,0.744,0.854,0.677,0.452C80.653,133.192,80.832,132.637,80.331,132.76z"/>
	<path fill="#AFAEAE" d="M74.908,134.34c-0.108-0.71,0.322-0.883,0.452-1.354c-0.176-0.051-0.445-0.006-0.452-0.226
		c0.532-0.574-0.224-0.11-0.226,0.226c-0.002,0.086,0.365,0.144,0.226,0.451c-0.071,0.159-0.479-0.084-0.452,0.226
		C74.493,134.108,75.21,134.733,74.908,134.34z"/>
	<path fill="#AFAEAE" d="M75.359,137.499c-0.322,0.642,0.407-0.225,0.227-0.451C75.435,136.86,75.376,137.465,75.359,137.499z"/>
	<path fill="#AFAEAE" d="M127.459,119.043C127.734,118.057,126.407,118.806,127.459,119.043L127.459,119.043z"/>
	<path fill="#AFAEAE" d="M132.725,132.057c0.354-0.164,0.441-0.413,0.404-0.707C132.688,131.208,132.412,131.516,132.725,132.057z"
		/>
	<path fill="#AFAEAE" d="M133.838,134.277c0.023,0.046,0.047,0.094,0.07,0.14c-0.006-0.051-0.018-0.109-0.025-0.161
		C133.87,134.262,133.854,134.27,133.838,134.277z"/>
	<path fill="#AFAEAE" d="M132.118,130.341c-0.162-0.352-0.414-0.439-0.707-0.401C131.588,130.245,131.733,130.652,132.118,130.341z"
		/>
	<path fill="#AFAEAE" d="M121.896,110.974c0.004-0.069-0.004-0.107-0.006-0.164c-0.113-0.102-0.229-0.21-0.338-0.3
		C121.472,110.662,121.496,110.905,121.896,110.974z"/>
	<path fill="#AFAEAE" d="M131.207,129.032c0.135-0.408-0.381-1.043-1.012-1.009c-0.213,0.446,0.479,0.613,0.607,0.707
		C130.836,128.752,131.139,129.231,131.207,129.032z"/>
	<path fill="#AFAEAE" d="M123.416,114.504c-0.223,0.164-0.014,0.285,0.203,0.404C123.822,114.803,123.693,114.427,123.416,114.504z"
		/>
	<path fill="#AFAEAE" d="M130.803,129.738C129.794,128.943,130.63,130.692,130.803,129.738L130.803,129.738z"/>
	<path fill="#AFAEAE" d="M129.996,129.132c-0.164-0.353-0.416-0.439-0.709-0.403C129.464,129.037,129.611,129.442,129.996,129.132z"
		/>
	<path fill="#AFAEAE" d="M120.383,113.497c0.133-0.067,0.268-0.135,0.404-0.202c-0.068-0.135-0.135-0.269-0.203-0.403
		c-0.135,0.068-0.27,0.135-0.404,0.203C120.249,113.23,120.315,113.362,120.383,113.497z"/>
	<path fill="#AFAEAE" d="M127.061,126.308c-0.162-0.352-0.414-0.438-0.707-0.402C126.516,126.258,126.768,126.345,127.061,126.308z"
		/>
	<path fill="#AFAEAE" d="M120.586,114.91c0.066,0.134,0.135,0.267,0.201,0.402c0.135-0.067,0.27-0.135,0.404-0.203
		c-0.066-0.134-0.135-0.269-0.201-0.401C120.854,114.776,120.721,114.844,120.586,114.91z"/>
	<path fill="#AFAEAE" d="M120.891,115.516C119.827,116.046,121.101,116.47,120.891,115.516L120.891,115.516z"/>
	<path fill="#AFAEAE" d="M127.773,131.758C126.85,131.609,128.601,132.19,127.773,131.758L127.773,131.758z"/>
	<path fill="#AFAEAE" d="M120.487,117.734c0.381,0.28-0.268,0.977,0.404,0.809C120.889,118.389,121.003,117.515,120.487,117.734z"/>
	<path fill="#AFAEAE" d="M128.583,136.4c0.15,0.222,0.252,0.59,0.508,0.504C128.939,136.682,128.837,136.314,128.583,136.4z"/>
	<path fill="#AFAEAE" d="M121.906,124.596c0.15,0.223,0.254,0.59,0.506,0.505C122.261,124.88,122.16,124.51,121.906,124.596z"/>
	<path fill="#AFAEAE" d="M123.324,128.936c0.066,0.135,0.135,0.268,0.201,0.401c0.135-0.066,0.271-0.135,0.404-0.202
		c-0.066-0.134-0.135-0.268-0.201-0.402C123.593,128.8,123.459,128.868,123.324,128.936z"/>
	<path fill="#AFAEAE" d="M117.152,121.17c0.135,0.217-0.135,0.46,0.203,0.403C117.558,121.468,117.433,121.092,117.152,121.17z"/>
	<path fill="#AFAEAE" d="M115.736,119.353c0.164,0.352,0.416,0.439,0.707,0.402C116.281,119.405,116.029,119.318,115.736,119.353z"
		/>
	<path fill="#AFAEAE" d="M125.047,138.42c-0.164-0.254,0.518-1.019-0.203-0.907C125.01,137.765,124.329,138.531,125.047,138.42z"/>
	<path fill="#AFAEAE" d="M119.379,126.617C118.372,125.825,119.206,127.572,119.379,126.617L119.379,126.617z"/>
	<path fill="#AFAEAE" d="M120.899,130.148c-0.258-0.239-0.287-1.162-0.709-0.908C120.448,129.478,120.477,130.4,120.899,130.148z"/>
	<path fill="#AFAEAE" d="M118.469,126.819C118.196,127.805,119.526,127.057,118.469,126.819L118.469,126.819z"/>
	<path fill="#AFAEAE" d="M113.413,120.263c0.068,0.135,0.135,0.269,0.203,0.403c0.135-0.067,0.268-0.134,0.404-0.202
		c-0.068-0.135-0.137-0.269-0.203-0.403C113.682,120.13,113.547,120.195,113.413,120.263z"/>
	<path fill="#AFAEAE" d="M123.736,140.338c-0.088,0.044-0.176,0.088-0.264,0.132l0.289-0.08
		C123.753,140.372,123.744,140.355,123.736,140.338z"/>
	<path fill="#AFAEAE" d="M122.521,138.926C121.599,138.776,123.349,139.358,122.521,138.926L122.521,138.926z"/>
	<path fill="#AFAEAE" d="M113.819,122.08c0.203-0.104,0.076-0.48-0.203-0.403C113.751,121.892,113.479,122.138,113.819,122.08z"/>
	<path fill="#AFAEAE" d="M113.821,127.125c0.152,0.221,0.254,0.591,0.508,0.504C114.176,127.408,114.077,127.04,113.821,127.125z"/>
	<path fill="#AFAEAE" d="M114.935,129.849c0.162,0.351,0.416,0.439,0.707,0.402C115.48,129.901,115.226,129.811,114.935,129.849z"/>
	<path fill="#AFAEAE" d="M118.174,137.818c0.201-0.1,0.402-0.202,0.607-0.303c-0.102-0.201-0.203-0.403-0.305-0.604
		C117.891,137.051,117.79,137.355,118.174,137.818z"/>
	<path fill="#AFAEAE" d="M112.202,125.411c0.152,0.221,0.254,0.59,0.506,0.504C112.557,125.693,112.456,125.324,112.202,125.411z"/>
	<path fill="#AFAEAE" d="M107.955,121.479c0.646-0.593,0.699,0.597,1.314,0.099C109.105,121.008,107.98,120.791,107.955,121.479z"/>
	<path fill="#AFAEAE" d="M113.924,131.363c0.152,0.222,0.254,0.59,0.508,0.504C114.28,131.646,114.178,131.277,113.924,131.363z"/>
	<path fill="#AFAEAE" d="M107.249,122.084C106.241,121.289,107.075,123.039,107.249,122.084L107.249,122.084z"/>
	<path fill="#AFAEAE" d="M108.16,124.404c0.236,0.357-0.004,0.56,0.203,0.908C109.088,125.354,108.484,124.162,108.16,124.404z"/>
	<path fill="#AFAEAE" d="M113.325,136.711c-0.107-0.426,0.18-0.724-0.105-1.21C112.647,135.61,112.797,136.792,113.325,136.711z"/>
	<path fill="#AFAEAE" d="M105.327,121.278c-0.162-0.272-0.346-0.479-0.572-0.563l-0.16,0.124
		C104.764,121.208,104.997,121.389,105.327,121.278z"/>
	<path fill="#AFAEAE" d="M110.49,132.575c0.203-0.102,0.078-0.479-0.201-0.402C110.064,132.337,110.277,132.458,110.49,132.575z"/>
	<path fill="#AFAEAE" d="M105.43,125.515c0.615-0.133,0.182-0.613,0.305-0.907C105.12,124.741,105.553,125.22,105.43,125.515z"/>
	<path fill="#AFAEAE" d="M104.216,122.086C103.209,121.291,104.043,123.04,104.216,122.086L104.216,122.086z"/>
	<path fill="#AFAEAE" d="M111.706,137.016C111.29,135.606,110.867,136.882,111.706,137.016L111.706,137.016z"/>
	<path fill="#AFAEAE" d="M103.713,123.094c0.26,0.367-0.072,0.537-0.102,0.808C104.213,124.322,104.383,123.023,103.713,123.094z"/>
	<path fill="#AFAEAE" d="M103.31,126.324c0.271,0.534,0.482,1.245,1.012,1.011C103.99,126.979,103.943,125.768,103.31,126.324z"/>
	<path fill="#AFAEAE" d="M108.875,136.917C109.025,135.995,108.441,137.743,108.875,136.917L108.875,136.917z"/>
	<path fill="#AFAEAE" d="M105.536,131.771c0.656,0.065,0.25-0.982-0.1-0.705c0.049,0.129,0.088,0.254-0.102,0.301
		C105.401,131.502,105.469,131.637,105.536,131.771z"/>
	<path fill="#AFAEAE" d="M111.495,143.802c-0.002-0.134-0.107-0.276-0.291-0.227c0.051,0.082,0.043,0.169,0.033,0.242
		C111.329,143.826,111.415,143.82,111.495,143.802z"/>
	<path fill="#AFAEAE" d="M106.753,137.725c0.135,0.216-0.135,0.461,0.203,0.404C107.159,138.024,107.034,137.647,106.753,137.725z"
		/>
	<path fill="#AFAEAE" d="M103.82,132.883c0.215,0.36,0.471,0.607,0.809,0.605C104.455,132.999,104.199,132.754,103.82,132.883z"/>
	<path fill="#AFAEAE" d="M123.396,112.381c-0.027-0.032-0.055-0.062-0.082-0.095C123.169,112.506,123.277,112.52,123.396,112.381z"
		/>
	<path fill="#AFAEAE" d="M120.18,111.076c-0.221-0.101-0.002,0.465-0.002,0.504C120.178,112.298,120.444,111.198,120.18,111.076z"/>
	<path fill="#AFAEAE" d="M119.471,110.673c0.332,0.136,0.168-0.025-0.102-0.202C119.071,110.276,119.147,110.541,119.471,110.673z"
		/>
	<path fill="#AFAEAE" d="M87.119,106.983c0.044-0.075,0.056-0.122,0.086-0.186c-0.068-0.178-0.133-0.363-0.204-0.526
		C86.825,106.394,86.714,106.677,87.119,106.983z"/>
	<path fill="#AFAEAE" d="M86.791,111.772c-0.342,0.056-0.178,0.31-0.006,0.566C87.073,112.335,87.145,111.845,86.791,111.772z"/>
	<path fill="#AFAEAE" d="M83.994,108.926c0.187,0.002,0.375,0.004,0.565,0.006c0.001-0.188,0.004-0.376,0.005-0.563
		c-0.19-0.002-0.377-0.005-0.565-0.005C83.998,108.551,83.996,108.739,83.994,108.926z"/>
	<path fill="#AFAEAE" d="M83.413,110.614c-0.001,0.188-0.003,0.375-0.005,0.563c0.188,0.002,0.375,0.003,0.565,0.004
		c0.001-0.187,0.004-0.375,0.005-0.561C83.788,110.617,83.601,110.616,83.413,110.614z"/>
	<path fill="#AFAEAE" d="M83.406,111.46C81.919,111.444,83.097,112.641,83.406,111.46L83.406,111.46z"/>
	<path fill="#AFAEAE" d="M87.984,109.402c-0.014-0.053-0.026-0.102-0.039-0.152C87.659,109.41,87.77,109.488,87.984,109.402z"/>
	<path fill="#AFAEAE" d="M85.151,106.119c-0.188-0.238-0.267,0.517-0.289,0.56C84.452,107.478,85.375,106.404,85.151,106.119z"/>
	<path fill="#AFAEAE" d="M84.595,105.266c0.291,0.34,0.2,0.067,0.001-0.281C84.376,104.597,84.309,104.936,84.595,105.266z"/>
	<path fill="#AFAEAE" d="M126.049,125.3c-0.127-0.289-0.432-0.75-0.404-0.302C125.659,125.69,126.792,125.292,126.049,125.3z"/>
	<path fill="#AFAEAE" d="M120.992,119.249c-0.336,0.244,0.631,0.747,0.91,0.807c-0.102-0.203-0.203-0.404-0.303-0.606
		c0.135-0.124,0.395-0.205,0.303-0.403C121.054,119.914,121.013,118.643,120.992,119.249z"/>
	<path fill="#AFAEAE" d="M122.611,120.459c-0.219-0.1,0,0.466,0,0.504C122.611,121.683,122.875,120.581,122.611,120.459z"/>
	<path fill="#AFAEAE" d="M125.749,128.226c-0.219-0.099,0,0.466,0,0.506C125.751,129.45,126.012,128.348,125.749,128.226z"/>
	<path fill="#AFAEAE" d="M122.207,122.175c-0.506,0.031-0.432,1.049-0.1,0.807C121.966,122.655,122.543,122.567,122.207,122.175z"/>
	<path fill="#AFAEAE" d="M124.231,128.228c0.152,0.113,0.512,0.129,0.203-0.102c-0.053-0.038-0.059-0.153-0.102-0.203
		C124.142,127.708,123.96,128.025,124.231,128.228z"/>
	<path fill="#AFAEAE" d="M126.762,133.273C126.758,131.811,125.999,132.989,126.762,133.273L126.762,133.273z"/>
	<path fill="#AFAEAE" d="M115.736,118.849c-0.133-0.115-0.451-0.204-0.607-0.203C114.258,118.664,116.486,119.323,115.736,118.849z"
		/>
	<path fill="#AFAEAE" d="M118.27,130.452c-0.209-0.348-0.035-0.572,0.404-0.707c-0.012-0.714-0.971-1.031-0.91-0.302
		C118.405,129.197,117.478,130.648,118.27,130.452z"/>
	<path fill="#AFAEAE" d="M112.907,120.767c0.152,0.113,0.51,0.131,0.203-0.102c-0.051-0.038-0.059-0.153-0.102-0.201
		C112.815,120.249,112.637,120.564,112.907,120.767z"/>
	<path fill="#AFAEAE" d="M111.999,119.963c0.33,0.136,0.166-0.025-0.104-0.204C111.598,119.564,111.672,119.829,111.999,119.963z"/>
	<path fill="#AFAEAE" d="M109.502,117.063l-0.264,0.202C109.392,117.248,109.502,117.179,109.502,117.063z"/>
	<path fill="#AFAEAE" d="M112.815,133.684c0.029,0.506,1.049,0.432,0.809,0.103C113.296,133.926,113.208,133.349,112.815,133.684z"
		/>
	<path fill="#AFAEAE" d="M108.673,137.521c-0.414-0.586-0.107-0.934-0.203-1.412c-0.18,0.033-0.4,0.194-0.506-0.001
		c0.219-0.751-0.248,0.002-0.1,0.303c0.037,0.078,0.391-0.035,0.404,0.303c0.008,0.175-0.467,0.14-0.305,0.403
		C108.199,137.498,109.121,137.737,108.673,137.521z"/>
	<path fill="#AFAEAE" d="M110.496,140.144c0,0.718,0.264-0.383,0-0.505C110.277,139.539,110.496,140.105,110.496,140.144z"/>
	<g>
		<path fill="#1F6B75" d="M31.652,153.023c14.324,33.807,47.852,57.528,86.93,57.528c39.079,0,72.609-23.722,86.931-57.528H31.652z"
			/>
		<path fill="#4FC094" d="M208.307,145.537H29.037v0.546c0.784,2.355,1.654,4.671,2.615,6.94h173.862
			C206.549,150.58,207.477,148.081,208.307,145.537z"/>
	</g>
	<path fill="none" stroke="#0CCFEF" stroke-miterlimit="10" d="M78.828,172.095c6.56,6.55,11.63,0,11.63,0h0.035
		c6.56,6.55,11.63,0,11.63,0"/>
	<path fill="none" stroke="#0CCFEF" stroke-miterlimit="10" d="M101.734,172.095c6.56,6.55,11.631,0,11.631,0h0.035
		c6.56,6.55,11.629,0,11.629,0"/>
	<path fill="none" stroke="#0CCFEF" stroke-miterlimit="10" d="M140.797,191.166c4.952,4.945,8.779,0,8.779,0h0.027
		c4.951,4.945,8.778,0,8.778,0"/>
	<path fill="none" stroke="#0CCFEF" stroke-miterlimit="10" d="M158.09,191.166c4.951,4.945,8.778,0,8.778,0h0.027"/>
	<path fill="none" stroke="#0CCFEF" stroke-miterlimit="10" d="M152.794,160.724c4.952,4.945,8.779,0,8.779,0h0.027
		c4.951,4.945,8.778,0,8.778,0"/>
	<path fill="none" stroke="#0CCFEF" stroke-miterlimit="10" d="M170.086,160.724c4.951,4.945,8.778,0,8.778,0h0.027"/>
	<path fill="none" stroke="#0CCFEF" stroke-miterlimit="10" d="M65.855,184.02c3.421,3.416,6.065,0,6.065,0h0.019
		c3.421,3.416,6.065,0,6.065,0"/>
	<path fill="none" stroke="#0CCFEF" stroke-miterlimit="10" d="M77.803,184.02c3.421,3.416,6.065,0,6.065,0h0.019"/>
	<path fill="none" stroke="#0CCFEF" stroke-miterlimit="10" d="M46.111,160.315c3.421,3.416,6.065,0,6.065,0h0.019
		c3.421,3.416,6.065,0,6.065,0"/>
	<path fill="none" stroke="#0CCFEF" stroke-miterlimit="10" d="M58.059,160.315c3.421,3.416,6.065,0,6.065,0h0.019"/>
	<polygon fill="#4FAF86" points="54.185,137.286 50.413,133.519 50.413,133.517 50.411,133.518 50.41,133.517 50.41,133.519 
		46.637,137.286 50.41,137.286 50.413,137.286 	"/>
	<polygon fill="#4FAF86" points="55.215,141.225 50.413,137.288 50.413,137.286 50.411,137.287 50.41,137.286 50.41,137.288 
		45.608,141.225 50.41,141.225 50.413,141.225 	"/>
	<polygon fill="#4FAF86" points="50.413,141.228 50.413,141.225 50.411,141.226 50.41,141.225 50.41,141.228 45.351,145.424 
		50.41,145.424 50.413,145.424 55.473,145.424 	"/>
	<polygon fill="#4FAF86" points="191.963,137.633 188.19,133.865 188.19,133.863 188.19,133.864 188.188,133.863 188.188,133.865 
		184.416,137.633 188.188,137.633 188.19,137.633 	"/>
	<polygon fill="#4FAF86" points="192.993,141.573 188.19,137.635 188.19,137.633 188.19,137.634 188.188,137.633 188.188,137.635 
		183.385,141.573 188.188,141.573 188.19,141.573 	"/>
	<polygon fill="#4FAF86" points="188.19,141.576 188.19,141.573 188.19,141.574 188.188,141.573 188.188,141.576 183.128,145.771 
		188.188,145.771 188.19,145.771 193.25,145.771 	"/>
	<polygon fill="#4FAF86" points="174.599,139.509 171.695,136.608 171.695,136.607 171.695,136.608 171.693,136.607 
		171.693,136.608 168.79,139.509 171.693,139.509 171.695,139.509 	"/>
	<polygon fill="#4FAF86" points="175.392,142.54 171.695,139.51 171.695,139.509 171.695,139.509 171.693,139.509 171.693,139.51 
		167.998,142.54 171.693,142.54 171.695,142.54 	"/>
	<polygon fill="#4FAF86" points="171.695,142.543 171.695,142.54 171.695,142.541 171.693,142.54 171.693,142.543 167.8,145.771 
		171.693,145.771 171.695,145.771 175.59,145.771 	"/>
	<polygon fill="#4FAF86" points="77.264,130.262 70.082,123.091 70.082,123.086 70.079,123.089 70.076,123.086 70.076,123.091 
		62.894,130.262 70.076,130.262 70.082,130.262 	"/>
	<polygon fill="#4FAF86" points="79.224,137.765 70.082,130.267 70.082,130.262 70.079,130.264 70.076,130.262 70.076,130.267 
		60.934,137.765 70.076,137.765 70.082,137.765 	"/>
	<polygon fill="#4FAF86" points="70.082,137.77 70.082,137.765 70.079,137.766 70.076,137.765 70.076,137.77 60.443,145.756 
		70.076,145.756 70.082,145.756 79.715,145.756 	"/>
	<polygon fill="#4FAF86" points="92.495,133.331 86.736,127.581 86.736,127.577 86.734,127.579 86.731,127.577 86.731,127.581 
		80.972,133.331 86.731,133.331 86.736,133.331 	"/>
	<polygon fill="#4FAF86" points="94.067,139.348 86.736,133.335 86.736,133.331 86.734,133.333 86.731,133.331 86.731,133.335 
		79.4,139.348 86.731,139.348 86.736,139.348 	"/>
	<polygon fill="#4FAF86" points="86.736,139.351 86.736,139.348 86.734,139.349 86.731,139.348 86.731,139.351 79.007,145.756 
		86.731,145.756 86.736,145.756 94.461,145.756 	"/>
	<path fill="#FFFFFF" d="M139.432,118.919c-0.001-0.019-0.004-0.037-0.004-0.056c0-4.5,3.653-8.147,8.16-8.147
		c1.585,0,3.059,0.458,4.31,1.239c1.632-3.836,5.437-6.525,9.873-6.525c3.377,0,6.368,1.576,8.332,4.012
		c1.368-3.831,5.021-6.578,9.329-6.578c5.453,0,9.874,4.398,9.909,9.833c2.224,0.087,4.003,1.901,4.003,4.142
		c0,1.612-0.929,2.994-2.272,3.684l9.609,5.23h-17.28c-0.002,0.022-0.003,0.046-0.004,0.068h-2.822h-23.938h-4.418
		c-0.002-0.027-0.003-0.056-0.004-0.083h-26.184L139.432,118.919z"/>
	<path fill="#EADEC7" d="M203.003,66.466c-0.256,0-0.512-0.098-0.707-0.292c-3.24-3.234-6.542-4.772-9.807-4.569
		c-4.882,0.302-8.158,4.434-8.19,4.475c-0.353,0.451-1.15,0.498-1.557,0.094c-3.239-3.234-6.539-4.772-9.806-4.569
		c-4.882,0.302-8.159,4.434-8.19,4.475c-0.34,0.435-0.967,0.514-1.402,0.176c-0.437-0.337-0.517-0.962-0.18-1.397
		c0.154-0.199,3.837-4.876,9.628-5.245c3.611-0.231,7.187,1.265,10.632,4.445c1.344-1.401,4.526-4.164,8.921-4.445
		c3.868-0.25,7.695,1.486,11.365,5.149c0.391,0.39,0.391,1.021,0,1.411C203.515,66.368,203.259,66.466,203.003,66.466z"/>
	<g>
		<path fill="#5A6568" d="M202.908,65.764c-0.256,0-0.512-0.098-0.707-0.292c-3.24-3.234-6.543-4.774-9.806-4.569
			c-4.882,0.302-8.159,4.434-8.191,4.475c-0.352,0.451-1.149,0.498-1.556,0.094c-3.24-3.234-6.541-4.774-9.806-4.569
			c-4.882,0.302-8.159,4.434-8.191,4.475c-0.339,0.434-0.967,0.513-1.402,0.176c-0.436-0.337-0.516-0.962-0.179-1.397
			c0.154-0.199,3.837-4.876,9.628-5.245c3.608-0.233,7.186,1.265,10.631,4.445c1.345-1.401,4.526-4.164,8.922-4.445
			c3.866-0.249,7.695,1.486,11.365,5.149c0.391,0.39,0.391,1.021,0,1.411C203.42,65.666,203.164,65.764,202.908,65.764z"/>
	</g>
	<path fill="#EADEC7" d="M197.919,77.289c-0.214,0-0.429-0.068-0.61-0.209c-0.438-0.337-0.518-0.964-0.181-1.399
		c0.073-0.096,1.837-2.335,4.621-2.512c1.609-0.103,3.169,0.484,4.672,1.743c0.776-0.697,2.126-1.631,3.884-1.743
		c1.871-0.12,3.682,0.695,5.405,2.416c0.391,0.39,0.391,1.021,0,1.411c-0.391,0.39-1.024,0.39-1.414,0
		c-1.301-1.299-2.597-1.921-3.864-1.836c-1.862,0.119-3.154,1.725-3.167,1.74c-0.352,0.453-1.117,0.501-1.523,0.096
		c-1.302-1.299-2.595-1.921-3.865-1.836c-1.861,0.119-3.154,1.725-3.166,1.74C198.514,77.155,198.218,77.289,197.919,77.289z"/>
	<path fill="#5A6568" d="M197.67,76.618c-0.215,0-0.43-0.068-0.611-0.209c-0.438-0.337-0.518-0.964-0.18-1.399
		c0.073-0.096,1.837-2.335,4.621-2.512c1.609-0.103,3.168,0.484,4.672,1.743c0.775-0.697,2.126-1.631,3.884-1.743
		c1.87-0.12,3.681,0.695,5.404,2.416c0.391,0.39,0.391,1.021,0,1.411c-0.391,0.39-1.024,0.39-1.414,0
		c-1.301-1.299-2.597-1.921-3.864-1.835c-1.861,0.119-3.153,1.725-3.166,1.74c-0.353,0.453-1.118,0.501-1.524,0.096
		c-1.301-1.299-2.595-1.921-3.864-1.835c-1.862,0.119-3.154,1.725-3.167,1.74C198.264,76.485,197.969,76.618,197.67,76.618z"/>
</g>
</svg>
