<?xml version="1.0" encoding="utf-8"?>
<!-- Generator: Adobe Illustrator 17.0.0, SVG Export Plug-In . SVG Version: 6.00 Build 0)  -->
<!DOCTYPE svg PUBLIC "-//W3C//DTD SVG 1.1//EN" "http://www.w3.org/Graphics/SVG/1.1/DTD/svg11.dtd">
<svg version="1.1" id="Layer_1" xmlns="http://www.w3.org/2000/svg" xmlns:xlink="http://www.w3.org/1999/xlink" x="0px" y="0px"
	 width="750px" height="125px" viewBox="0 0 750 125" enable-background="new 0 0 750 125" xml:space="preserve">
<polygon fill="none" points="0,0.498 749.945,0 750,124.504 0.055,125 "/>
<path fill="#386EC5" d="M692.46,68.718c-0.104-3.003,2.046-5.047,5.061-5.152c3.597-0.125,5.188,2.22,5.276,4.771
	c0.139,3.997-3.801,4.22-3.686,7.547l-3.403,0.118c-0.174-5.012,3.352-4.723,3.262-7.316c-0.025-0.734-0.607-1.32-1.446-1.29
	c-0.948,0.033-1.469,0.569-1.438,1.477L692.46,68.718z M699.337,79.275c0.037,1.079-0.816,1.975-1.872,2.012
	c-1.076,0.037-1.968-0.798-2.005-1.877c-0.038-1.081,0.794-1.975,1.871-2.013C698.409,77.359,699.299,78.194,699.337,79.275z"/>
<path fill="#386EC5" d="M722.398,41.906c2.624-1.449,5.414-0.447,6.867,2.203c1.737,3.162,0.369,5.646-1.859,6.878
	c-3.493,1.929-5.47-1.495-8.378,0.111l-1.642-2.992c4.379-2.42,5.715,0.865,7.98-0.386c0.644-0.354,0.902-1.14,0.495-1.877
	c-0.457-0.833-1.171-1.058-1.962-0.619L722.398,41.906z M716.117,52.831c-0.944,0.521-2.125,0.162-2.635-0.766
	c-0.519-0.948-0.18-2.121,0.764-2.644c0.944-0.521,2.116-0.181,2.635,0.766C717.401,51.134,717.06,52.309,716.117,52.831z"/>
<path fill="#386EC5" d="M748.071,70.289c2.625-1.45,5.414-0.447,6.869,2.203c1.736,3.162,0.368,5.646-1.858,6.877
	c-3.495,1.93-5.473-1.495-8.379,0.112l-1.642-2.992c4.379-2.42,5.716,0.866,7.982-0.386c0.64-0.355,0.899-1.14,0.493-1.877
	c-0.456-0.834-1.169-1.057-1.962-0.619L748.071,70.289z M741.791,81.213c-0.943,0.521-2.125,0.163-2.635-0.766
	c-0.522-0.948-0.182-2.121,0.764-2.643c0.944-0.521,2.114-0.182,2.635,0.765C743.075,79.517,742.735,80.691,741.791,81.213z"/>
<path fill="#386EC5" d="M681.05,36.341c2.624-1.45,5.415-0.449,6.869,2.204c1.738,3.162,0.368,5.646-1.859,6.876
	c-3.493,1.929-5.472-1.495-8.378,0.112l-1.642-2.993c4.379-2.42,5.716,0.866,7.981-0.386c0.642-0.355,0.901-1.139,0.494-1.878
	c-0.457-0.833-1.17-1.056-1.963-0.618L681.05,36.341z M674.771,47.264c-0.945,0.522-2.127,0.162-2.635-0.765
	c-0.52-0.947-0.18-2.122,0.762-2.643c0.943-0.522,2.116-0.182,2.635,0.765C676.054,45.568,675.714,46.743,674.771,47.264z"/>
<path fill="#386EC5" d="M526.773,37.813c-0.104-3.003,2.046-5.047,5.062-5.152c3.596-0.125,5.186,2.221,5.274,4.772
	c0.139,3.998-3.799,4.221-3.684,7.548l-3.403,0.118c-0.174-5.014,3.35-4.724,3.261-7.317c-0.025-0.734-0.607-1.321-1.447-1.291
	c-0.947,0.033-1.467,0.57-1.436,1.478L526.773,37.813z M533.65,48.369c0.037,1.081-0.817,1.976-1.872,2.013
	c-1.076,0.037-1.967-0.797-2.004-1.878c-0.038-1.08,0.794-1.974,1.87-2.012C532.721,46.455,533.612,47.289,533.65,48.369z"/>
<path fill="#386EC5" d="M445.768,75.569c-0.105-3.004,2.046-5.047,5.061-5.152c3.597-0.125,5.188,2.221,5.275,4.771
	c0.139,3.997-3.8,4.221-3.684,7.548l-3.403,0.118c-0.174-5.013,3.35-4.724,3.261-7.317c-0.025-0.735-0.607-1.321-1.447-1.292
	c-0.947,0.033-1.467,0.571-1.436,1.479L445.768,75.569z M452.645,86.125c0.037,1.08-0.817,1.976-1.871,2.013
	c-1.076,0.037-1.969-0.798-2.006-1.878c-0.037-1.081,0.795-1.974,1.871-2.012C451.716,84.21,452.607,85.044,452.645,86.125z"/>
<path fill="#386EC5" d="M558.334-1.639c-0.104-3.003,2.047-5.047,5.061-5.152c3.598-0.125,5.188,2.222,5.276,4.771
	c0.138,3.998-3.801,4.222-3.686,7.549l-3.403,0.118c-0.174-5.013,3.351-4.724,3.261-7.317c-0.025-0.734-0.605-1.32-1.446-1.29
	c-0.946,0.033-1.468,0.57-1.437,1.477L558.334-1.639z M565.211,8.917c0.037,1.08-0.815,1.976-1.87,2.013
	c-1.077,0.037-1.97-0.798-2.007-1.878c-0.037-1.079,0.795-1.973,1.873-2.011C564.283,7.004,565.174,7.838,565.211,8.917z"/>
<path fill="#386EC5" d="M642.039,38.779c-0.104-3.003,2.047-5.047,5.063-5.152c3.596-0.125,5.188,2.221,5.276,4.771
	c0.138,3.997-3.8,4.222-3.685,7.549l-3.405,0.118c-0.172-5.013,3.352-4.724,3.262-7.317c-0.025-0.734-0.606-1.32-1.446-1.29
	c-0.947,0.033-1.467,0.57-1.436,1.477L642.039,38.779z M648.916,49.336c0.038,1.081-0.816,1.976-1.87,2.013
	c-1.076,0.037-1.968-0.797-2.006-1.878c-0.037-1.08,0.795-1.975,1.872-2.012C647.988,47.421,648.879,48.255,648.916,49.336z"/>
<path fill="#386EC5" d="M600.539,28.762c-0.105-3.003,2.046-5.047,5.061-5.152c3.597-0.125,5.188,2.222,5.276,4.771
	c0.139,3.998-3.802,4.221-3.686,7.549l-3.403,0.119c-0.174-5.013,3.352-4.725,3.262-7.317c-0.025-0.735-0.606-1.32-1.446-1.291
	c-0.947,0.033-1.469,0.571-1.438,1.478L600.539,28.762z M607.417,39.319c0.037,1.08-0.817,1.975-1.872,2.012
	c-1.076,0.038-1.967-0.797-2.004-1.877c-0.038-1.08,0.793-1.975,1.87-2.013C606.488,37.404,607.378,38.239,607.417,39.319z"/>
<path fill="#386EC5" d="M618.95,85.163c-0.104-3.003,2.046-5.046,5.062-5.151c3.596-0.125,5.188,2.222,5.276,4.771
	c0.138,3.998-3.802,4.221-3.686,7.548l-3.404,0.119c-0.173-5.012,3.353-4.725,3.263-7.317c-0.025-0.734-0.608-1.32-1.447-1.291
	c-0.948,0.033-1.469,0.571-1.438,1.478L618.95,85.163z M625.827,95.72c0.037,1.08-0.817,1.975-1.872,2.012
	c-1.075,0.038-1.968-0.797-2.005-1.877s0.795-1.974,1.871-2.012C624.899,93.805,625.79,94.64,625.827,95.72z"/>
<path fill="#386EC5" d="M519.943,78.14c-1.464-2.622-0.485-5.427,2.147-6.906c3.14-1.764,5.626-0.41,6.868,1.816
	c1.95,3.49-1.449,5.498,0.172,8.405l-2.971,1.669c-2.444-4.376,0.821-5.74-0.441-8.003c-0.359-0.641-1.143-0.896-1.876-0.484
	c-0.827,0.465-1.044,1.183-0.603,1.974L519.943,78.14z M530.876,84.363c0.527,0.943,0.178,2.131-0.744,2.648
	c-0.94,0.529-2.114,0.197-2.639-0.746c-0.527-0.943-0.197-2.12,0.743-2.649C529.177,83.088,530.351,83.419,530.876,84.363z"/>
<path fill="#386EC5" d="M568.292,48.163c-1.464-2.622-0.485-5.427,2.148-6.906c3.14-1.764,5.626-0.409,6.868,1.816
	c1.948,3.49-1.451,5.499,0.171,8.404l-2.972,1.669c-2.442-4.376,0.823-5.74-0.441-8.004c-0.357-0.641-1.142-0.894-1.875-0.484
	c-0.826,0.465-1.044,1.183-0.602,1.975L568.292,48.163z M579.227,54.386c0.527,0.943,0.176,2.131-0.745,2.649
	c-0.94,0.529-2.113,0.196-2.64-0.747c-0.526-0.943-0.195-2.12,0.745-2.648C577.526,53.109,578.699,53.443,579.227,54.386z"/>
<path fill="#386EC5" d="M609.712,55.832c-1.464-2.622-0.485-5.429,2.148-6.907c3.139-1.764,5.625-0.41,6.869,1.817
	c1.948,3.49-1.45,5.499,0.171,8.404l-2.973,1.669c-2.442-4.376,0.822-5.739-0.44-8.003c-0.359-0.641-1.142-0.896-1.876-0.483
	c-0.826,0.464-1.043,1.183-0.602,1.974L609.712,55.832z M620.648,62.054c0.526,0.944,0.177,2.131-0.745,2.649
	c-0.941,0.529-2.114,0.196-2.64-0.746c-0.527-0.944-0.196-2.121,0.743-2.648C618.947,60.778,620.12,61.112,620.648,62.054z"/>
<path fill="#386EC5" d="M541.703,53.048c2.623-1.45,5.413-0.448,6.868,2.202c1.737,3.162,0.368,5.646-1.86,6.878
	c-3.493,1.929-5.472-1.495-8.379,0.111l-1.642-2.992c4.38-2.42,5.716,0.866,7.981-0.386c0.642-0.354,0.901-1.14,0.495-1.877
	c-0.458-0.834-1.171-1.058-1.964-0.619L541.703,53.048z M535.421,63.972c-0.943,0.521-2.124,0.162-2.634-0.766
	c-0.52-0.948-0.18-2.121,0.762-2.644c0.946-0.521,2.116-0.181,2.635,0.766C536.705,62.275,536.365,63.45,535.421,63.972z"/>
<path fill="#386EC5" d="M475.706,48.758c2.624-1.45,5.413-0.448,6.868,2.203c1.737,3.162,0.369,5.646-1.86,6.877
	c-3.492,1.93-5.47-1.494-8.378,0.112l-1.641-2.992c4.38-2.42,5.715,0.865,7.98-0.386c0.643-0.355,0.901-1.14,0.496-1.877
	c-0.459-0.834-1.172-1.057-1.965-0.619L475.706,48.758z M469.426,59.682c-0.943,0.521-2.127,0.162-2.635-0.767
	c-0.52-0.947-0.18-2.12,0.763-2.643c0.945-0.521,2.116-0.181,2.634,0.765C470.709,57.986,470.368,59.16,469.426,59.682z"/>
<path fill="#386EC5" d="M501.38,77.14c2.623-1.45,5.413-0.448,6.867,2.204c1.737,3.162,0.369,5.645-1.858,6.876
	c-3.495,1.93-5.471-1.495-8.378,0.111l-1.643-2.992c4.38-2.42,5.716,0.866,7.981-0.386c0.643-0.355,0.901-1.141,0.495-1.877
	c-0.457-0.834-1.17-1.057-1.963-0.62L501.38,77.14z M495.098,88.064c-0.944,0.523-2.125,0.163-2.635-0.765
	c-0.52-0.948-0.181-2.122,0.764-2.643c0.944-0.522,2.116-0.181,2.635,0.765C496.382,86.368,496.042,87.543,495.098,88.064z"/>
<path fill="#386EC5" d="M665.66,67.322c2.624-1.45,5.413-0.447,6.869,2.204c1.735,3.162,0.367,5.645-1.86,6.876
	c-3.493,1.93-5.472-1.495-8.378,0.111l-1.643-2.992c4.38-2.42,5.716,0.866,7.982-0.386c0.641-0.354,0.9-1.139,0.494-1.877
	c-0.457-0.834-1.169-1.056-1.962-0.619L665.66,67.322z M659.378,78.245c-0.943,0.523-2.125,0.163-2.634-0.766
	c-0.521-0.947-0.181-2.121,0.765-2.642c0.942-0.522,2.114-0.182,2.634,0.765C660.662,76.55,660.324,77.724,659.378,78.245z"/>
<path fill="#386EC5" d="M592.02,80.021c2.623-1.45,5.413-0.449,6.868,2.203c1.736,3.162,0.369,5.646-1.86,6.877
	c-3.493,1.929-5.471-1.495-8.378,0.112l-1.642-2.993c4.378-2.42,5.714,0.866,7.98-0.385c0.643-0.355,0.901-1.14,0.494-1.878
	c-0.456-0.833-1.17-1.057-1.963-0.618L592.02,80.021z M585.738,90.945c-0.943,0.522-2.124,0.163-2.633-0.765
	c-0.52-0.948-0.182-2.123,0.763-2.644c0.945-0.522,2.115-0.18,2.635,0.766C587.023,89.249,586.683,90.424,585.738,90.945z"/>
<path fill="#386EC5" d="M434.359,43.191c2.623-1.449,5.413-0.448,6.868,2.205c1.737,3.162,0.369,5.646-1.858,6.876
	c-3.495,1.93-5.472-1.495-8.379,0.113l-1.642-2.993c4.38-2.42,5.716,0.865,7.98-0.386c0.643-0.355,0.901-1.14,0.496-1.878
	c-0.458-0.834-1.17-1.056-1.963-0.619L434.359,43.191z M428.078,54.116c-0.944,0.521-2.126,0.162-2.635-0.765
	c-0.52-0.947-0.181-2.122,0.764-2.644c0.943-0.522,2.114-0.181,2.635,0.766C429.362,52.419,429.022,53.595,428.078,54.116z"/>
<path fill="#386EC5" d="M550.799,18.524c-0.105-3.003,2.046-5.047,5.062-5.152c3.596-0.125,5.188,2.221,5.276,4.771
	c0.138,3.997-3.802,4.22-3.686,7.548l-3.403,0.119c-0.174-5.013,3.352-4.723,3.262-7.317c-0.025-0.734-0.608-1.321-1.447-1.291
	c-0.948,0.033-1.468,0.571-1.437,1.479L550.799,18.524z M557.676,29.08c0.037,1.08-0.817,1.975-1.871,2.012
	c-1.076,0.038-1.969-0.797-2.006-1.877c-0.037-1.081,0.795-1.975,1.871-2.013C556.748,27.166,557.639,27.999,557.676,29.08z"/>
<path fill="#386EC5" d="M665.73,9.746c-0.105-3.004,2.046-5.047,5.062-5.151c3.596-0.125,5.186,2.221,5.274,4.77
	c0.139,3.998-3.799,4.221-3.684,7.55l-3.403,0.118c-0.174-5.013,3.35-4.725,3.261-7.317c-0.025-0.735-0.607-1.32-1.447-1.291
	c-0.947,0.033-1.467,0.571-1.436,1.478L665.73,9.746z M672.607,20.303c0.037,1.081-0.817,1.975-1.871,2.012
	c-1.076,0.038-1.968-0.796-2.005-1.877c-0.037-1.079,0.794-1.975,1.87-2.013C671.677,18.388,672.57,19.223,672.607,20.303z"/>
<path fill="#386EC5" d="M731.663,12.234c-0.104-3.003,2.046-5.046,5.063-5.151c3.596-0.125,5.186,2.221,5.274,4.77
	c0.139,3.998-3.799,4.221-3.684,7.55l-3.405,0.119c-0.174-5.014,3.352-4.725,3.262-7.318c-0.025-0.734-0.606-1.32-1.446-1.292
	c-0.947,0.033-1.467,0.571-1.436,1.479L731.663,12.234z M738.54,22.79c0.037,1.081-0.816,1.976-1.87,2.013
	c-1.076,0.038-1.969-0.797-2.006-1.878c-0.037-1.079,0.795-1.974,1.871-2.012C737.611,20.876,738.502,21.711,738.54,22.79z"/>
<path fill="#386EC5" d="M624.434,5.496c-1.463-2.622-0.484-5.428,2.149-6.905c3.141-1.765,5.626-0.41,6.867,1.816
	c1.949,3.49-1.45,5.498,0.171,8.404l-2.971,1.669c-2.444-4.375,0.822-5.74-0.441-8.003c-0.357-0.641-1.142-0.896-1.874-0.483
	c-0.828,0.464-1.045,1.182-0.604,1.974L624.434,5.496z M635.37,11.719c0.526,0.944,0.176,2.13-0.745,2.649
	c-0.939,0.528-2.113,0.197-2.64-0.747c-0.527-0.943-0.195-2.12,0.746-2.648C633.669,10.444,634.842,10.777,635.37,11.719z"/>
<path fill="#386EC5" d="M597.65,4.783c2.624-1.45,5.415-0.447,6.869,2.204c1.738,3.162,0.368,5.646-1.859,6.876
	c-3.494,1.931-5.472-1.493-8.378,0.113l-1.643-2.992c4.38-2.42,5.717,0.865,7.981-0.386c0.643-0.355,0.902-1.141,0.495-1.877
	c-0.457-0.834-1.171-1.057-1.963-0.619L597.65,4.783z M591.37,15.707c-0.944,0.521-2.125,0.162-2.635-0.766
	c-0.52-0.948-0.18-2.122,0.764-2.643s2.115-0.182,2.635,0.765C592.654,14.011,592.313,15.185,591.37,15.707z"/>
<path fill="#386EC5" d="M704.733,7.092c2.624-1.45,5.412-0.448,6.869,2.204c1.737,3.162,0.368,5.646-1.86,6.876
	c-3.493,1.93-5.471-1.494-8.379,0.113l-1.643-2.994c4.382-2.419,5.716,0.866,7.982-0.384c0.641-0.356,0.901-1.14,0.496-1.879
	c-0.459-0.833-1.172-1.056-1.965-0.618L704.733,7.092z M698.453,18.015c-0.944,0.522-2.127,0.163-2.635-0.765
	c-0.521-0.946-0.181-2.122,0.762-2.643c0.945-0.522,2.116-0.18,2.635,0.766C699.735,16.32,699.395,17.495,698.453,18.015z"/>
<path fill="#386EC5" d="M295.347,10.063c-0.104-3.003,2.047-5.047,5.062-5.152c3.597-0.125,5.188,2.221,5.276,4.771
	c0.138,3.997-3.801,4.221-3.687,7.548l-3.403,0.118c-0.173-5.013,3.353-4.723,3.263-7.316c-0.025-0.735-0.607-1.321-1.446-1.292
	c-0.948,0.033-1.469,0.571-1.437,1.479L295.347,10.063z M302.225,20.619c0.038,1.08-0.816,1.976-1.871,2.013
	c-1.077,0.037-1.969-0.798-2.006-1.878c-0.037-1.081,0.795-1.975,1.872-2.012C301.296,18.704,302.187,19.538,302.225,20.619z"/>
<path fill="#386EC5" d="M419.038,16.597c-0.104-3.004,2.047-5.048,5.062-5.152c3.597-0.125,5.188,2.221,5.276,4.771
	c0.138,3.998-3.801,4.221-3.686,7.55l-3.403,0.118c-0.173-5.013,3.351-4.725,3.262-7.317c-0.025-0.734-0.606-1.322-1.447-1.292
	c-0.946,0.033-1.468,0.571-1.437,1.478L419.038,16.597z M425.914,27.154c0.037,1.08-0.815,1.975-1.869,2.012
	c-1.078,0.038-1.969-0.797-2.006-1.877c-0.037-1.08,0.793-1.975,1.871-2.013C424.986,25.239,425.877,26.074,425.914,27.154z"/>
<path fill="#386EC5" d="M484.971,19.085c-0.105-3.003,2.047-5.047,5.063-5.151c3.596-0.125,5.187,2.221,5.275,4.771
	c0.139,3.998-3.801,4.221-3.685,7.549l-3.404,0.118c-0.174-5.013,3.352-4.725,3.262-7.317c-0.025-0.734-0.606-1.321-1.446-1.291
	c-0.948,0.033-1.469,0.571-1.438,1.478L484.971,19.085z M491.848,29.642c0.037,1.08-0.816,1.975-1.871,2.012
	c-1.076,0.038-1.968-0.797-2.005-1.877c-0.038-1.08,0.794-1.975,1.871-2.013C490.92,27.727,491.811,28.562,491.848,29.642z"/>
<path fill="#386EC5" d="M369.521,12.634c-1.463-2.622-0.484-5.427,2.149-6.906c3.14-1.764,5.625-0.41,6.868,1.816
	c1.948,3.489-1.451,5.498,0.171,8.404l-2.971,1.669c-2.445-4.376,0.821-5.74-0.442-8.004c-0.357-0.641-1.142-0.895-1.875-0.484
	c-0.826,0.465-1.045,1.183-0.602,1.974L369.521,12.634z M380.457,18.857c0.525,0.943,0.176,2.13-0.744,2.648
	c-0.942,0.529-2.115,0.196-2.641-0.747c-0.526-0.943-0.195-2.12,0.744-2.648C378.757,17.581,379.929,17.913,380.457,18.857z"/>
<path fill="#386EC5" d="M350.958,11.634c2.624-1.45,5.414-0.448,6.869,2.204c1.736,3.162,0.368,5.645-1.859,6.877
	c-3.494,1.929-5.471-1.495-8.379,0.111l-1.642-2.992c4.38-2.421,5.716,0.866,7.981-0.386c0.643-0.355,0.9-1.141,0.496-1.877
	c-0.457-0.834-1.172-1.057-1.964-0.62L350.958,11.634z M344.678,22.558c-0.944,0.522-2.125,0.163-2.635-0.765
	c-0.52-0.948-0.181-2.122,0.764-2.643c0.944-0.522,2.115-0.182,2.635,0.765C345.961,20.862,345.622,22.036,344.678,22.558z"/>
<path fill="#386EC5" d="M515.239,1.816c2.624-1.45,5.413-0.448,6.868,2.204c1.737,3.162,0.368,5.645-1.858,6.876
	c-3.495,1.929-5.473-1.495-8.38,0.111l-1.642-2.992c4.379-2.421,5.716,0.866,7.98-0.386c0.643-0.354,0.9-1.14,0.496-1.877
	c-0.457-0.833-1.172-1.056-1.963-0.619L515.239,1.816z M508.958,12.739c-0.944,0.522-2.125,0.162-2.635-0.766
	c-0.52-0.946-0.18-2.121,0.764-2.642c0.944-0.522,2.114-0.183,2.635,0.765C510.242,11.044,509.902,12.218,508.958,12.739z"/>
<path fill="#386EC5" d="M458.041,13.944c2.624-1.451,5.413-0.449,6.869,2.203c1.737,3.162,0.368,5.646-1.86,6.876
	c-3.493,1.929-5.471-1.495-8.378,0.112l-1.644-2.993c4.381-2.42,5.717,0.866,7.982-0.386c0.642-0.354,0.9-1.139,0.495-1.877
	c-0.457-0.833-1.171-1.057-1.964-0.619L458.041,13.944z M451.76,24.867c-0.944,0.522-2.125,0.162-2.635-0.765
	c-0.52-0.947-0.18-2.122,0.764-2.643c0.944-0.522,2.114-0.18,2.634,0.766C453.044,23.171,452.704,24.346,451.76,24.867z"/>
<path fill="#386EC5" d="M271.939,47.253c-0.104-3.004,2.048-5.047,5.063-5.151c3.597-0.125,5.188,2.22,5.276,4.77
	c0.138,3.997-3.801,4.221-3.686,7.548l-3.403,0.119c-0.173-5.013,3.351-4.724,3.262-7.318c-0.025-0.734-0.606-1.321-1.446-1.292
	c-0.947,0.033-1.469,0.57-1.437,1.478L271.939,47.253z M278.816,57.81c0.037,1.08-0.816,1.974-1.871,2.011
	c-1.077,0.038-1.969-0.796-2.006-1.876c-0.038-1.081,0.794-1.975,1.871-2.013S278.778,56.729,278.816,57.81z"/>
<path fill="#386EC5" d="M190.933,85.009c-0.104-3.003,2.048-5.048,5.063-5.152c3.598-0.125,5.188,2.22,5.276,4.771
	c0.138,3.996-3.801,4.221-3.686,7.547l-3.404,0.119c-0.173-5.013,3.352-4.724,3.263-7.317c-0.025-0.734-0.606-1.321-1.446-1.292
	c-0.947,0.033-1.469,0.571-1.437,1.479L190.933,85.009z M197.811,95.565c0.037,1.081-0.816,1.975-1.871,2.012
	c-1.077,0.037-1.969-0.796-2.006-1.877c-0.038-1.08,0.795-1.975,1.871-2.013C196.882,93.65,197.774,94.485,197.811,95.565z"/>
<path fill="#386EC5" d="M314.624,91.543c-0.104-3.004,2.047-5.047,5.062-5.152c3.597-0.125,5.188,2.221,5.276,4.77
	c0.138,3.998-3.8,4.223-3.685,7.55l-3.404,0.118c-0.173-5.013,3.352-4.725,3.262-7.318c-0.025-0.734-0.607-1.32-1.447-1.291
	c-0.947,0.033-1.468,0.571-1.437,1.478L314.624,91.543z M321.502,102.099c0.038,1.081-0.816,1.976-1.871,2.013
	c-1.077,0.037-1.968-0.797-2.005-1.878c-0.037-1.08,0.794-1.974,1.871-2.012C320.574,100.185,321.464,101.02,321.502,102.099z"/>
<path fill="#386EC5" d="M395.427,47.934c-0.104-3.004,2.047-5.046,5.061-5.151c3.598-0.125,5.189,2.221,5.277,4.77
	c0.139,3.998-3.8,4.222-3.686,7.549l-3.403,0.118c-0.174-5.013,3.352-4.725,3.262-7.318c-0.025-0.734-0.608-1.32-1.447-1.291
	c-0.947,0.033-1.468,0.571-1.437,1.478L395.427,47.934z M402.304,58.489c0.038,1.081-0.816,1.976-1.871,2.013
	c-1.076,0.037-1.968-0.797-2.006-1.878c-0.037-1.08,0.795-1.974,1.872-2.012C401.376,56.575,402.267,57.41,402.304,58.489z"/>
<path fill="#386EC5" d="M353.926,37.916c-0.104-3.004,2.047-5.047,5.063-5.152c3.597-0.125,5.188,2.221,5.276,4.77
	c0.138,3.998-3.801,4.222-3.686,7.55l-3.403,0.119c-0.173-5.014,3.351-4.726,3.261-7.318c-0.025-0.735-0.605-1.321-1.445-1.292
	c-0.948,0.033-1.469,0.57-1.438,1.477L353.926,37.916z M360.803,48.472c0.038,1.081-0.815,1.976-1.87,2.013
	c-1.077,0.038-1.968-0.797-2.006-1.878c-0.037-1.079,0.795-1.973,1.871-2.011C359.875,46.559,360.765,47.394,360.803,48.472z"/>
<path fill="#386EC5" d="M388.778,93.745c-0.104-3.004,2.047-5.047,5.063-5.151c3.596-0.125,5.188,2.221,5.276,4.77
	c0.138,3.998-3.801,4.222-3.686,7.55l-3.404,0.119c-0.173-5.014,3.353-4.726,3.263-7.317c-0.025-0.736-0.608-1.322-1.447-1.292
	c-0.948,0.033-1.469,0.571-1.438,1.478L388.778,93.745z M395.657,104.302c0.037,1.081-0.817,1.976-1.871,2.013
	c-1.076,0.038-1.969-0.797-2.006-1.878c-0.037-1.079,0.795-1.974,1.871-2.012C394.728,102.388,395.619,103.223,395.657,104.302z"/>
<path fill="#386EC5" d="M265.109,87.58c-1.464-2.622-0.486-5.428,2.146-6.905c3.141-1.765,5.626-0.411,6.868,1.815
	c1.95,3.49-1.449,5.499,0.172,8.404l-2.971,1.669c-2.443-4.376,0.823-5.741-0.442-8.004c-0.358-0.641-1.141-0.895-1.875-0.482
	c-0.827,0.464-1.044,1.181-0.603,1.974L265.109,87.58z M276.043,93.802c0.527,0.944,0.177,2.131-0.744,2.648
	c-0.94,0.53-2.114,0.198-2.641-0.747c-0.526-0.943-0.196-2.119,0.745-2.648C274.344,92.527,275.517,92.859,276.043,93.802z"/>
<path fill="#386EC5" d="M329.901,57.031c-1.464-2.623-0.486-5.428,2.147-6.907c3.14-1.764,5.625-0.41,6.868,1.816
	c1.948,3.49-1.45,5.498,0.171,8.404l-2.971,1.669c-2.443-4.376,0.823-5.74-0.441-8.004c-0.358-0.642-1.142-0.895-1.876-0.483
	c-0.827,0.465-1.045,1.182-0.603,1.974L329.901,57.031z M340.835,63.253c0.527,0.943,0.177,2.132-0.744,2.649
	c-0.94,0.528-2.114,0.197-2.64-0.748c-0.527-0.943-0.196-2.119,0.745-2.648C339.136,61.978,340.309,62.311,340.835,63.253z"/>
<path fill="#386EC5" d="M363.099,64.986c-1.464-2.623-0.485-5.427,2.148-6.907c3.14-1.764,5.626-0.409,6.868,1.817
	c1.95,3.49-1.449,5.499,0.172,8.405l-2.972,1.668c-2.443-4.376,0.822-5.74-0.441-8.003c-0.358-0.642-1.142-0.895-1.875-0.484
	c-0.828,0.465-1.045,1.183-0.603,1.974L363.099,64.986z M374.034,71.209c0.526,0.943,0.177,2.13-0.745,2.648
	c-0.941,0.529-2.114,0.197-2.64-0.747c-0.526-0.943-0.196-2.12,0.744-2.649C372.334,69.933,373.508,70.265,374.034,71.209z"/>
<path fill="#386EC5" d="M295.09,62.202c2.624-1.45,5.413-0.448,6.868,2.203c1.737,3.161,0.369,5.645-1.859,6.877
	c-3.492,1.929-5.471-1.495-8.378,0.111l-1.643-2.992c4.38-2.42,5.716,0.866,7.981-0.386c0.641-0.353,0.901-1.139,0.494-1.877
	c-0.457-0.833-1.17-1.057-1.963-0.619L295.09,62.202z M288.809,73.126c-0.944,0.522-2.126,0.163-2.635-0.766
	c-0.519-0.946-0.18-2.121,0.764-2.642c0.944-0.522,2.115-0.182,2.635,0.765C290.092,71.43,289.753,72.604,288.809,73.126z"/>
<path fill="#386EC5" d="M310.317,26.479c2.625-1.449,5.414-0.447,6.869,2.204c1.736,3.163,0.369,5.646-1.86,6.877
	c-3.492,1.929-5.471-1.495-8.378,0.111l-1.643-2.992c4.38-2.42,5.716,0.865,7.981-0.387c0.642-0.354,0.901-1.139,0.495-1.876
	c-0.458-0.834-1.171-1.057-1.963-0.62L310.317,26.479z M304.036,37.404c-0.943,0.522-2.125,0.162-2.634-0.766
	c-0.52-0.947-0.181-2.121,0.763-2.642c0.944-0.522,2.116-0.182,2.635,0.765C305.319,35.707,304.979,36.882,304.036,37.404z"/>
<path fill="#386EC5" d="M220.872,58.198c2.624-1.45,5.413-0.448,6.867,2.203c1.738,3.162,0.37,5.646-1.858,6.877
	c-3.492,1.93-5.471-1.495-8.378,0.111l-1.643-2.991c4.379-2.42,5.716,0.866,7.981-0.387c0.641-0.354,0.901-1.139,0.494-1.877
	c-0.457-0.833-1.17-1.057-1.962-0.619L220.872,58.198z M214.591,69.122c-0.944,0.521-2.125,0.162-2.634-0.766
	c-0.521-0.947-0.181-2.121,0.763-2.643c0.944-0.521,2.114-0.181,2.634,0.766C215.875,67.425,215.536,68.6,214.591,69.122z"/>
<path fill="#386EC5" d="M246.546,86.58c2.624-1.451,5.413-0.448,6.868,2.204c1.737,3.161,0.37,5.645-1.859,6.877
	c-3.492,1.929-5.471-1.495-8.378,0.111l-1.643-2.993c4.38-2.419,5.716,0.866,7.982-0.386c0.641-0.354,0.901-1.139,0.494-1.876
	c-0.457-0.834-1.171-1.058-1.963-0.62L246.546,86.58z M240.265,97.503c-0.943,0.522-2.125,0.163-2.634-0.765
	c-0.52-0.948-0.181-2.122,0.763-2.644c0.943-0.522,2.115-0.181,2.634,0.766C241.548,95.808,241.209,96.982,240.265,97.503z"/>
<path fill="#386EC5" d="M419.048,76.476c2.623-1.45,5.413-0.448,6.868,2.204c1.737,3.162,0.367,5.646-1.86,6.877
	c-3.493,1.929-5.47-1.495-8.379,0.111l-1.643-2.992c4.381-2.419,5.716,0.866,7.982-0.387c0.643-0.353,0.901-1.138,0.495-1.877
	c-0.458-0.833-1.171-1.056-1.963-0.618L419.048,76.476z M412.766,87.399c-0.944,0.522-2.124,0.162-2.635-0.766
	c-0.521-0.947-0.181-2.12,0.764-2.642c0.944-0.522,2.115-0.182,2.635,0.766C414.051,85.704,413.71,86.878,412.766,87.399z"/>
<path fill="#386EC5" d="M345.407,89.175c2.625-1.449,5.413-0.448,6.869,2.203c1.736,3.163,0.368,5.647-1.859,6.878
	c-3.492,1.928-5.47-1.495-8.378,0.112l-1.643-2.994c4.379-2.419,5.715,0.866,7.981-0.385c0.641-0.356,0.9-1.14,0.495-1.879
	c-0.458-0.833-1.171-1.056-1.963-0.618L345.407,89.175z M339.126,100.098c-0.943,0.522-2.124,0.163-2.634-0.764
	c-0.52-0.948-0.181-2.122,0.764-2.645c0.943-0.521,2.115-0.18,2.635,0.766C340.41,98.403,340.071,99.577,339.126,100.098z"/>
<path fill="#386EC5" d="M179.525,52.631c2.624-1.449,5.414-0.447,6.868,2.204c1.737,3.162,0.369,5.646-1.859,6.877
	c-3.492,1.929-5.47-1.494-8.378,0.112l-1.643-2.993c4.38-2.419,5.716,0.866,7.981-0.386c0.641-0.356,0.901-1.139,0.495-1.878
	c-0.457-0.833-1.171-1.057-1.963-0.618L179.525,52.631z M173.244,63.556c-0.943,0.522-2.124,0.162-2.634-0.765
	c-0.52-0.948-0.181-2.122,0.763-2.644s2.115-0.181,2.635,0.765C174.528,61.858,174.188,63.034,173.244,63.556z"/>
<path fill="#386EC5" d="M25.246,54.105c-0.104-3.005,2.047-5.048,5.063-5.153c3.598-0.125,5.188,2.222,5.276,4.771
	c0.138,3.998-3.8,4.222-3.685,7.549l-3.404,0.119c-0.173-5.014,3.352-4.724,3.263-7.318c-0.025-0.735-0.607-1.321-1.447-1.292
	c-0.947,0.033-1.469,0.571-1.438,1.478L25.246,54.105z M32.124,64.661c0.037,1.08-0.817,1.974-1.871,2.011
	c-1.077,0.037-1.969-0.796-2.006-1.876c-0.038-1.081,0.795-1.976,1.872-2.014C31.196,62.745,32.087,63.58,32.124,64.661z"/>
<path fill="#386EC5" d="M56.808,14.653c-0.104-3.004,2.047-5.047,5.062-5.152c3.597-0.125,5.187,2.221,5.275,4.77
	c0.138,3.998-3.8,4.222-3.686,7.55l-3.403,0.118c-0.173-5.014,3.352-4.726,3.262-7.319c-0.025-0.735-0.606-1.32-1.446-1.291
	c-0.948,0.033-1.469,0.571-1.437,1.477L56.808,14.653z M63.684,25.209c0.038,1.081-0.816,1.976-1.871,2.013
	c-1.077,0.037-1.968-0.797-2.006-1.878c-0.037-1.079,0.794-1.974,1.871-2.012C62.756,23.295,63.647,24.129,63.684,25.209z"/>
<path fill="#386EC5" d="M140.513,55.071c-0.104-3.004,2.047-5.047,5.063-5.152c3.597-0.125,5.188,2.221,5.276,4.77
	c0.138,3.998-3.801,4.222-3.686,7.549l-3.403,0.119c-0.173-5.013,3.352-4.726,3.262-7.318c-0.025-0.734-0.607-1.32-1.446-1.29
	c-0.948,0.033-1.468,0.57-1.437,1.477L140.513,55.071z M147.391,65.626c0.038,1.08-0.816,1.976-1.872,2.013
	c-1.076,0.037-1.968-0.797-2.005-1.877s0.795-1.975,1.871-2.012C146.463,63.712,147.354,64.547,147.391,65.626z"/>
<path fill="#386EC5" d="M99.013,45.054c-0.104-3.004,2.047-5.047,5.063-5.152c3.597-0.125,5.188,2.221,5.275,4.771
	c0.138,3.998-3.8,4.221-3.685,7.549l-3.404,0.118c-0.173-5.013,3.353-4.725,3.263-7.318c-0.025-0.734-0.606-1.32-1.446-1.291
	c-0.948,0.033-1.469,0.57-1.438,1.478L99.013,45.054z M105.89,55.61c0.038,1.08-0.816,1.975-1.871,2.012
	c-1.077,0.038-1.969-0.797-2.006-1.877c-0.037-1.079,0.795-1.975,1.872-2.013C104.962,53.695,105.853,54.531,105.89,55.61z"/>
<path fill="#386EC5" d="M117.423,101.455c-0.104-3.003,2.049-5.047,5.063-5.152c3.598-0.125,5.188,2.222,5.276,4.771
	c0.138,3.998-3.8,4.222-3.686,7.55l-3.403,0.118c-0.173-5.014,3.352-4.726,3.262-7.318c-0.025-0.734-0.606-1.32-1.446-1.291
	c-0.947,0.033-1.468,0.571-1.436,1.478L117.423,101.455z M124.3,112.011c0.038,1.081-0.815,1.976-1.87,2.013
	c-1.077,0.038-1.969-0.797-2.006-1.878c-0.037-1.079,0.795-1.974,1.872-2.012C123.372,110.097,124.263,110.932,124.3,112.011z"/>
<path fill="#386EC5" d="M18.417,94.431c-1.464-2.622-0.486-5.428,2.146-6.906c3.141-1.764,5.626-0.411,6.868,1.816
	c1.95,3.49-1.45,5.499,0.172,8.404l-2.972,1.669c-2.443-4.377,0.822-5.741-0.441-8.004c-0.359-0.641-1.143-0.896-1.875-0.483
	c-0.827,0.464-1.045,1.181-0.603,1.973L18.417,94.431z M29.351,100.653c0.526,0.944,0.176,2.131-0.744,2.648
	c-0.94,0.529-2.114,0.197-2.641-0.746s-0.196-2.12,0.745-2.648C27.651,99.378,28.824,99.71,29.351,100.653z"/>
<path fill="#386EC5" d="M66.766,64.454c-1.464-2.622-0.485-5.427,2.148-6.906c3.14-1.764,5.626-0.41,6.868,1.816
	c1.948,3.49-1.451,5.499,0.171,8.404l-2.971,1.669c-2.444-4.376,0.821-5.74-0.442-8.004c-0.358-0.641-1.142-0.895-1.875-0.484
	c-0.827,0.466-1.045,1.183-0.603,1.975L66.766,64.454z M77.702,70.677c0.526,0.943,0.176,2.131-0.745,2.648
	c-0.94,0.529-2.113,0.196-2.64-0.747c-0.526-0.943-0.196-2.12,0.745-2.649C76.001,69.401,77.175,69.734,77.702,70.677z"/>
<path fill="#386EC5" d="M108.187,72.124c-1.465-2.623-0.486-5.428,2.147-6.907c3.14-1.764,5.626-0.409,6.867,1.816
	c1.95,3.49-1.45,5.499,0.171,8.404l-2.971,1.669c-2.442-4.376,0.823-5.739-0.441-8.003c-0.358-0.642-1.142-0.895-1.875-0.483
	c-0.828,0.465-1.045,1.182-0.603,1.974L108.187,72.124z M119.121,78.346c0.527,0.944,0.177,2.131-0.745,2.649
	c-0.94,0.529-2.113,0.196-2.64-0.747c-0.526-0.944-0.196-2.12,0.745-2.648C117.42,77.069,118.594,77.403,119.121,78.346z"/>
<path fill="#386EC5" d="M40.176,69.339c2.624-1.451,5.413-0.448,6.869,2.203c1.736,3.162,0.368,5.646-1.859,6.876
	c-3.493,1.93-5.471-1.494-8.379,0.112l-1.642-2.992c4.38-2.42,5.715,0.866,7.981-0.386c0.642-0.355,0.9-1.139,0.495-1.877
	c-0.458-0.834-1.172-1.058-1.964-0.619L40.176,69.339z M33.895,80.263c-0.944,0.521-2.125,0.162-2.635-0.766
	c-0.52-0.947-0.181-2.121,0.764-2.642c0.943-0.522,2.115-0.182,2.635,0.764C35.179,78.566,34.839,79.741,33.895,80.263z"/>
<path fill="#386EC5" d="M-0.147,93.431c2.624-1.45,5.413-0.448,6.868,2.204c1.737,3.162,0.369,5.645-1.859,6.876
	c-3.492,1.929-5.471-1.495-8.378,0.111l-1.643-2.992c4.38-2.42,5.716,0.866,7.982-0.386c0.641-0.353,0.9-1.139,0.494-1.877
	c-0.457-0.833-1.17-1.056-1.963-0.618L-0.147,93.431z M-6.427,104.355c-0.944,0.522-2.126,0.163-2.635-0.766
	c-0.52-0.946-0.181-2.121,0.763-2.642c0.944-0.522,2.115-0.183,2.635,0.765C-5.145,102.659-5.483,103.834-6.427,104.355z"/>
<path fill="#386EC5" d="M164.134,83.613c2.624-1.451,5.413-0.448,6.868,2.203c1.737,3.162,0.369,5.646-1.859,6.876
	c-3.493,1.929-5.471-1.494-8.378,0.111l-1.643-2.992c4.38-2.419,5.716,0.866,7.981-0.387c0.641-0.353,0.901-1.139,0.495-1.876
	c-0.457-0.833-1.17-1.057-1.963-0.618L164.134,83.613z M157.853,94.537c-0.944,0.522-2.125,0.162-2.635-0.766
	c-0.52-0.947-0.18-2.122,0.763-2.643c0.944-0.522,2.115-0.182,2.635,0.765C159.136,92.84,158.796,94.015,157.853,94.537z"/>
<path fill="#386EC5" d="M90.494,96.312c2.625-1.45,5.414-0.448,6.868,2.203c1.737,3.162,0.369,5.646-1.859,6.877
	c-3.493,1.929-5.471-1.494-8.378,0.112l-1.643-2.993c4.379-2.419,5.715,0.866,7.981-0.385c0.641-0.356,0.901-1.14,0.495-1.878
	c-0.457-0.833-1.171-1.056-1.963-0.618L90.494,96.312z M84.213,107.236c-0.943,0.522-2.124,0.162-2.634-0.765
	c-0.521-0.947-0.181-2.122,0.763-2.644c0.943-0.522,2.114-0.181,2.634,0.766S85.157,106.715,84.213,107.236z"/>
<path fill="#386EC5" d="M49.273,34.815c-0.104-3.003,2.047-5.048,5.062-5.153c3.597-0.125,5.188,2.222,5.276,4.772
	c0.138,3.998-3.801,4.22-3.686,7.548L52.523,42.1c-0.173-5.013,3.351-4.723,3.262-7.316c-0.025-0.735-0.607-1.321-1.446-1.292
	c-0.948,0.033-1.469,0.571-1.437,1.479L49.273,34.815z M56.151,45.371c0.037,1.08-0.817,1.976-1.872,2.012
	c-1.077,0.038-1.968-0.797-2.005-1.877c-0.038-1.081,0.794-1.974,1.871-2.012C55.222,43.457,56.113,44.29,56.151,45.371z"/>
<path fill="#386EC5" d="M164.203,26.037c-0.104-3.003,2.047-5.047,5.063-5.152c3.597-0.125,5.188,2.221,5.276,4.77
	c0.138,3.998-3.801,4.223-3.686,7.55l-3.403,0.118c-0.173-5.013,3.352-4.724,3.263-7.317c-0.025-0.734-0.607-1.32-1.447-1.291
	c-0.947,0.033-1.469,0.571-1.438,1.478L164.203,26.037z M171.081,36.593c0.037,1.081-0.817,1.976-1.871,2.012
	c-1.078,0.038-1.969-0.796-2.006-1.877c-0.038-1.08,0.794-1.975,1.872-2.013C170.152,34.678,171.044,35.513,171.081,36.593z"/>
<path fill="#386EC5" d="M230.137,28.525c-0.104-3.003,2.047-5.047,5.062-5.152c3.598-0.125,5.189,2.222,5.277,4.771
	c0.138,3.999-3.801,4.222-3.686,7.55l-3.404,0.118c-0.173-5.014,3.352-4.725,3.263-7.317c-0.025-0.735-0.607-1.321-1.446-1.292
	c-0.947,0.033-1.47,0.571-1.438,1.479L230.137,28.525z M237.015,39.081c0.037,1.081-0.817,1.977-1.873,2.014
	c-1.076,0.037-1.967-0.798-2.004-1.879c-0.038-1.079,0.794-1.973,1.87-2.011C236.086,37.168,236.977,38.002,237.015,39.081z"/>
<path fill="#386EC5" d="M122.909,21.788c-1.464-2.622-0.485-5.427,2.148-6.905c3.139-1.765,5.625-0.41,6.869,1.815
	c1.948,3.49-1.451,5.498,0.17,8.404l-2.971,1.669c-2.444-4.376,0.822-5.74-0.442-8.003c-0.359-0.642-1.143-0.895-1.876-0.483
	c-0.827,0.464-1.044,1.182-0.602,1.974L122.909,21.788z M133.844,28.011c0.526,0.944,0.177,2.13-0.744,2.648
	c-0.941,0.53-2.114,0.198-2.641-0.747c-0.527-0.943-0.195-2.119,0.744-2.649C132.144,26.735,133.318,27.067,133.844,28.011z"/>
<path fill="#386EC5" d="M220.899-0.805c-1.463-2.623-0.484-5.428,2.148-6.908c3.14-1.764,5.625-0.409,6.868,1.817
	c1.948,3.49-1.451,5.499,0.171,8.405l-2.972,1.668c-2.443-4.376,0.822-5.739-0.442-8.003c-0.358-0.641-1.142-0.895-1.875-0.483
	c-0.827,0.464-1.045,1.182-0.603,1.973L220.899-0.805z M231.834,5.418c0.526,0.942,0.177,2.13-0.745,2.647
	c-0.94,0.529-2.113,0.197-2.64-0.747c-0.526-0.942-0.196-2.12,0.745-2.648C230.134,4.141,231.307,4.474,231.834,5.418z"/>
<path fill="#386EC5" d="M152.889-3.59c2.624-1.45,5.414-0.448,6.868,2.204c1.737,3.161,0.369,5.645-1.859,6.876
	c-3.492,1.929-5.471-1.495-8.378,0.111l-1.643-2.991c4.38-2.421,5.716,0.865,7.982-0.387c0.641-0.354,0.901-1.14,0.495-1.877
	c-0.458-0.833-1.171-1.056-1.964-0.619L152.889-3.59z M146.609,7.334c-0.943,0.522-2.126,0.162-2.635-0.766
	c-0.52-0.947-0.181-2.121,0.763-2.643s2.114-0.182,2.634,0.766C147.891,5.638,147.552,6.812,146.609,7.334z"/>
<path fill="#386EC5" d="M78.672-7.594c2.624-1.45,5.414-0.448,6.869,2.202c1.736,3.162,0.369,5.646-1.859,6.878
	c-3.493,1.929-5.471-1.495-8.379,0.111L73.66-1.395c4.381-2.42,5.716,0.866,7.981-0.386c0.642-0.354,0.901-1.139,0.495-1.877
	c-0.458-0.834-1.171-1.058-1.964-0.619L78.672-7.594z M72.393,3.33c-0.944,0.521-2.127,0.162-2.635-0.767
	c-0.52-0.947-0.181-2.121,0.763-2.643c0.945-0.521,2.115-0.181,2.635,0.765C73.675,1.633,73.335,2.808,72.393,3.33z"/>
<path fill="#386EC5" d="M96.125,21.074c2.624-1.45,5.413-0.448,6.869,2.204c1.736,3.161,0.368,5.645-1.86,6.877
	c-3.493,1.929-5.471-1.495-8.378,0.111l-1.642-2.993c4.379-2.419,5.715,0.866,7.98-0.386c0.642-0.355,0.901-1.139,0.496-1.877
	c-0.458-0.834-1.172-1.057-1.964-0.619L96.125,21.074z M89.844,31.998c-0.943,0.522-2.125,0.163-2.634-0.766
	c-0.52-0.948-0.181-2.121,0.763-2.643s2.115-0.182,2.635,0.766C91.128,30.301,90.787,31.476,89.844,31.998z"/>
<path fill="#386EC5" d="M260.405,11.255c2.624-1.45,5.413-0.448,6.869,2.203c1.736,3.162,0.368,5.646-1.859,6.878
	c-3.493,1.928-5.471-1.495-8.379,0.11l-1.643-2.992c4.38-2.419,5.716,0.866,7.981-0.386c0.642-0.354,0.901-1.138,0.495-1.877
	c-0.458-0.833-1.172-1.056-1.963-0.618L260.405,11.255z M254.124,22.179c-0.943,0.522-2.125,0.162-2.635-0.766
	c-0.52-0.947-0.181-2.12,0.764-2.643c0.944-0.521,2.115-0.181,2.634,0.766C255.408,20.483,255.068,21.658,254.124,22.179z"/>
<path fill="#386EC5" d="M203.208,23.383c2.624-1.45,5.413-0.448,6.868,2.204c1.737,3.163,0.369,5.647-1.859,6.877
	c-3.492,1.929-5.471-1.495-8.378,0.112l-1.643-2.994c4.38-2.419,5.715,0.866,7.981-0.384c0.642-0.356,0.901-1.141,0.495-1.879
	c-0.457-0.833-1.171-1.056-1.963-0.618L203.208,23.383z M196.926,34.306c-0.944,0.522-2.125,0.163-2.634-0.764
	c-0.52-0.947-0.181-2.122,0.763-2.645c0.944-0.521,2.115-0.18,2.635,0.767C198.21,32.611,197.871,33.785,196.926,34.306z"/>
<path fill="#386EC5" d="M-1.686-10.722c-0.104-3.003,2.046-5.047,5.063-5.152c3.597-0.125,5.188,2.222,5.276,4.771
	c0.138,3.998-3.801,4.221-3.686,7.549L1.563-3.435C1.39-8.448,4.915-8.161,4.826-10.753c-0.025-0.734-0.606-1.32-1.446-1.291
	c-0.948,0.033-1.469,0.571-1.438,1.478L-1.686-10.722z M5.192-0.165c0.037,1.08-0.817,1.976-1.872,2.012
	C2.243,1.885,1.351,1.05,1.314-0.03C1.276-1.11,2.109-2.005,3.185-2.043C4.262-2.08,5.154-1.245,5.192-0.165z"/>
<path fill="#386EC5" d="M13.713,18.106c2.625-1.45,5.413-0.447,6.869,2.204c1.736,3.162,0.369,5.646-1.859,6.877
	c-3.493,1.929-5.471-1.494-8.378,0.111l-1.643-2.992c4.38-2.419,5.716,0.866,7.981-0.387c0.642-0.353,0.901-1.139,0.495-1.877
	c-0.458-0.833-1.171-1.056-1.963-0.618L13.713,18.106z M7.432,29.03c-0.943,0.523-2.125,0.163-2.634-0.766
	c-0.521-0.947-0.181-2.121,0.763-2.642c0.943-0.522,2.114-0.182,2.634,0.765C8.716,27.333,8.376,28.509,7.432,29.03z"/>
</svg>
