<?xml version="1.0" encoding="utf-8"?>
<!-- Generator: Adobe Illustrator 17.0.0, SVG Export Plug-In . SVG Version: 6.00 Build 0)  -->
<!DOCTYPE svg PUBLIC "-//W3C//DTD SVG 1.1//EN" "http://www.w3.org/Graphics/SVG/1.1/DTD/svg11.dtd">
<svg version="1.1" id="Layer_1" xmlns="http://www.w3.org/2000/svg" xmlns:xlink="http://www.w3.org/1999/xlink" x="0px" y="0px"
	 width="232px" height="232px" viewBox="0.222 0.204 232 232" enable-background="new 0.222 0.204 232 232" xml:space="preserve">
<g>
	<rect x="0.222" y="0.204" fill="#386E9B" width="231.966" height="232"/>
</g>
<g>
	<g>
		<defs>
			<rect id="SVGID_1_" x="0.256" y="0.204" width="231.966" height="231.576"/>
		</defs>
		<clipPath id="SVGID_2_">
			<use xlink:href="#SVGID_1_"  overflow="visible"/>
		</clipPath>
		<g clip-path="url(#SVGID_2_)">
			<g>
				<path fill="#407EA8" d="M5.649-2.67C1.844-3.518-2.02-4.008-5.894-4.143c0.66-0.601,1.074-1.463,1.074-2.424
					c0-1.816-1.476-3.287-3.295-3.287c-1.821,0-3.297,1.471-3.297,3.287c0,0.96,0.417,1.824,1.074,2.424
					c-3.875,0.137-7.737,0.625-11.541,1.474c0.215,0.963,0.432,1.927,0.646,2.891c2.952-0.662,5.941-1.089,8.942-1.297l-2.519,6.639
					h3.935v6.94h5.516V5.564h3.935L-3.94-1.076c3,0.208,5.99,0.635,8.941,1.297C5.218-0.743,5.433-1.707,5.649-2.67z"/>
				<path fill="#407EA8" d="M31.385-2.67c-3.804-0.85-7.669-1.338-11.541-1.474c0.657-0.601,1.072-1.463,1.072-2.424
					c0-1.816-1.475-3.287-3.296-3.287c-1.82,0-3.295,1.471-3.295,3.287c0,0.96,0.415,1.824,1.072,2.424
					C11.525-4.008,7.661-3.519,3.856-2.67c0.218,0.963,0.432,1.927,0.646,2.891c2.952-0.662,5.942-1.089,8.944-1.297l-2.518,6.639
					h3.932v6.94h5.519v-6.94h3.932l-2.518-6.639c3.002,0.208,5.992,0.635,8.944,1.297C30.953-0.743,31.168-1.707,31.385-2.67z"/>
				<path fill="#407EA8" d="M57.12-2.67c-3.804-0.85-7.667-1.338-11.541-1.474c0.657-0.601,1.074-1.463,1.074-2.424
					c0-1.816-1.476-3.287-3.297-3.287c-1.819,0-3.295,1.471-3.295,3.287c0,0.96,0.414,1.824,1.074,2.424
					c-3.875,0.137-7.738,0.625-11.542,1.474c0.216,0.963,0.43,1.927,0.647,2.891c2.951-0.662,5.941-1.089,8.941-1.297l-2.518,6.639
					h3.933v6.94h5.518v-6.94h3.933l-2.517-6.639c3.001,0.208,5.99,0.635,8.942,1.297C56.688-0.743,56.906-1.707,57.12-2.67z"/>
				<path fill="#407EA8" d="M82.855-2.67c-3.804-0.85-7.667-1.338-11.541-1.474c0.66-0.601,1.074-1.463,1.074-2.424
					c0-1.816-1.476-3.287-3.295-3.287c-1.821,0-3.297,1.471-3.297,3.287c0,0.96,0.416,1.824,1.074,2.424
					C62.998-4.008,59.132-3.519,55.33-2.67c0.215,0.963,0.431,1.927,0.646,2.891c2.952-0.662,5.941-1.089,8.941-1.297l-2.518,6.639
					h3.935v6.94h5.516v-6.94h3.935l-2.518-6.639c3.002,0.208,5.99,0.635,8.941,1.297C82.426-0.743,82.64-1.707,82.855-2.67z"/>
				<path fill="#407EA8" d="M108.593-2.67c-3.805-0.85-7.67-1.338-11.543-1.474c0.658-0.601,1.072-1.463,1.072-2.424
					c0-1.816-1.474-3.287-3.295-3.287c-1.819,0-3.295,1.471-3.295,3.287c0,0.96,0.415,1.824,1.074,2.424
					c-3.875,0.137-7.737,0.625-11.543,1.474c0.217,0.963,0.432,1.927,0.646,2.891c2.952-0.662,5.942-1.089,8.944-1.297l-2.519,6.639
					h3.933v6.94h5.518v-6.94h3.933l-2.516-6.639c3.002,0.208,5.992,0.635,8.943,1.297C108.161-0.743,108.375-1.707,108.593-2.67z"/>
				<path fill="#407EA8" d="M134.327-2.67c-3.804-0.85-7.667-1.338-11.541-1.474c0.659-0.601,1.074-1.463,1.074-2.424
					c0-1.816-1.476-3.287-3.297-3.287c-1.819,0-3.296,1.471-3.296,3.287c0,0.96,0.415,1.824,1.074,2.424
					c-3.875,0.137-7.737,0.625-11.541,1.474c0.216,0.963,0.432,1.927,0.646,2.891c2.952-0.662,5.942-1.089,8.942-1.297l-2.518,6.639
					h3.932v6.94h5.519v-6.94h3.934l-2.518-6.639c3,0.208,5.99,0.635,8.942,1.297C133.896-0.743,134.112-1.707,134.327-2.67z"/>
				<path fill="#407EA8" d="M160.064-2.67c-3.807-0.85-7.669-1.338-11.543-1.474c0.659-0.601,1.074-1.463,1.074-2.424
					c0-1.816-1.476-3.287-3.295-3.287c-1.821,0-3.295,1.471-3.295,3.287c0,0.96,0.414,1.824,1.072,2.424
					c-3.873,0.137-7.738,0.625-11.542,1.474c0.218,0.963,0.432,1.927,0.647,2.891c2.951-0.662,5.941-1.089,8.943-1.297l-2.518,6.639
					h3.933v6.94h5.518v-6.94h3.933l-2.519-6.639c3.003,0.208,5.992,0.635,8.944,1.297C159.633-0.743,159.849-1.707,160.064-2.67z"/>
				<path fill="#407EA8" d="M185.8-2.67c-3.804-0.85-7.669-1.338-11.541-1.474c0.658-0.601,1.074-1.463,1.074-2.424
					c0-1.816-1.476-3.287-3.297-3.287c-1.819,0-3.295,1.471-3.295,3.287c0,0.96,0.414,1.824,1.074,2.424
					c-3.875,0.137-7.738,0.625-11.542,1.474c0.215,0.963,0.429,1.927,0.647,2.891c2.951-0.662,5.939-1.089,8.941-1.297l-2.518,6.639
					h3.933v6.94h5.518v-6.94h3.933l-2.516-6.639c3,0.208,5.989,0.635,8.941,1.297C185.369-0.743,185.585-1.707,185.8-2.67z"/>
				<path fill="#407EA8" d="M211.536-2.67c-3.804-0.85-7.668-1.338-11.542-1.474c0.66-0.601,1.074-1.463,1.074-2.424
					c0-1.816-1.476-3.287-3.295-3.287c-1.821,0-3.297,1.471-3.297,3.287c0,0.96,0.417,1.824,1.074,2.424
					c-3.875,0.137-7.737,0.625-11.542,1.474c0.215,0.963,0.432,1.927,0.647,2.891c2.952-0.662,5.941-1.089,8.942-1.297l-2.519,6.639
					h3.934v6.94h5.516v-6.94h3.935l-2.518-6.639c3,0.208,5.99,0.635,8.941,1.297C211.105-0.743,211.32-1.707,211.536-2.67z"/>
				<path fill="#407EA8" d="M237.272-2.67c-3.805-0.85-7.669-1.338-11.542-1.474c0.657-0.601,1.072-1.463,1.072-2.424
					c0-1.816-1.474-3.287-3.295-3.287c-1.821,0-3.296,1.471-3.296,3.287c0,0.96,0.415,1.824,1.072,2.424
					c-3.873,0.137-7.737,0.625-11.541,1.474c0.218,0.963,0.432,1.927,0.646,2.891c2.952-0.662,5.942-1.089,8.944-1.297l-2.518,6.639
					h3.932v6.94h5.519v-6.94h3.932l-2.518-6.639c3.002,0.208,5.992,0.635,8.944,1.297C236.84-0.743,237.056-1.707,237.272-2.67z"/>
				<path fill="#407EA8" d="M253.711,30.437c0.215-0.961,0.431-1.925,0.646-2.888c-3.454-0.771-6.957-1.244-10.469-1.428v-0.009
					h-0.184c-0.296-0.014-0.593-0.025-0.889-0.034c0.657-0.603,1.072-1.464,1.072-2.427c0-1.815-1.475-3.289-3.295-3.289
					c-1.819,0-3.296,1.474-3.296,3.289c0,0.962,0.415,1.823,1.073,2.427c-0.296,0.009-0.593,0.021-0.889,0.034h-0.185v0.009
					c-3.28,0.172-6.549,0.606-9.781,1.29c-3.229-0.684-6.5-1.118-9.779-1.29v-0.009h-0.186c-0.296-0.014-0.593-0.025-0.889-0.034
					c0.659-0.603,1.074-1.464,1.074-2.427c0-1.815-1.476-3.289-3.297-3.289c-1.819,0-3.293,1.474-3.293,3.289
					c0,0.962,0.412,1.823,1.072,2.427c-0.298,0.009-0.593,0.021-0.889,0.034h-0.184v0.009c-3.283,0.172-6.551,0.606-9.782,1.29
					c-3.23-0.684-6.501-1.118-9.781-1.29v-0.009h-0.186c-0.294-0.014-0.591-0.025-0.887-0.034c0.658-0.603,1.072-1.464,1.072-2.427
					c0-1.815-1.474-3.289-3.295-3.289c-1.819,0-3.295,1.474-3.295,3.289c0,0.962,0.414,1.823,1.072,2.427
					c-0.296,0.009-0.593,0.021-0.889,0.034h-0.184v0.009c-3.281,0.172-6.55,0.606-9.781,1.29c-3.229-0.684-6.5-1.118-9.78-1.29
					v-0.009h-0.186c-0.296-0.014-0.593-0.025-0.889-0.034c0.66-0.603,1.074-1.464,1.074-2.427c0-1.815-1.476-3.289-3.297-3.289
					c-1.819,0-3.295,1.474-3.295,3.289c0,0.962,0.415,1.823,1.074,2.427c-0.298,0.009-0.593,0.021-0.889,0.034h-0.186v0.009
					c-3.281,0.172-6.551,0.606-9.78,1.29c-3.23-0.684-6.501-1.118-9.781-1.29v-0.009h-0.186c-0.294-0.014-0.591-0.025-0.887-0.034
					c0.658-0.603,1.072-1.464,1.072-2.427c0-1.815-1.474-3.289-3.295-3.289c-1.819,0-3.295,1.474-3.295,3.289
					c0,0.962,0.415,1.823,1.072,2.427c-0.296,0.009-0.593,0.021-0.889,0.034h-0.184v0.009c-3.28,0.172-6.549,0.606-9.781,1.29
					c-3.23-0.684-6.5-1.118-9.781-1.29v-0.009h-0.185c-0.296-0.014-0.593-0.025-0.889-0.034c0.66-0.603,1.073-1.464,1.073-2.427
					c0-1.815-1.475-3.289-3.296-3.289c-1.818,0-3.295,1.474-3.295,3.289c0,0.962,0.415,1.823,1.074,2.427
					c-0.298,0.009-0.593,0.021-0.889,0.034h-0.186v0.009c-3.28,0.172-6.549,0.606-9.779,1.29c-3.231-0.684-6.502-1.118-9.781-1.29
					v-0.009h-0.169c-0.296-0.014-0.591-0.025-0.887-0.034c0.657-0.603,1.072-1.464,1.072-2.427c0-1.815-1.475-3.289-3.296-3.289
					c-1.82,0-3.295,1.474-3.295,3.289c0,0.962,0.415,1.823,1.072,2.427c-0.296,0.009-0.593,0.021-0.889,0.034H80.39v0.009
					c-3.28,0.172-6.549,0.606-9.781,1.29c-3.23-0.684-6.5-1.118-9.781-1.29v-0.009h-0.181c-0.296-0.014-0.593-0.025-0.889-0.034
					c0.659-0.603,1.072-1.464,1.072-2.427c0-1.815-1.475-3.289-3.295-3.289c-1.819,0-3.296,1.474-3.296,3.289
					c0,0.962,0.415,1.823,1.074,2.427c-0.297,0.009-0.593,0.021-0.889,0.034h-0.186v0.009c-3.28,0.172-6.549,0.606-9.779,1.29
					c-3.231-0.684-6.502-1.118-9.781-1.29v-0.009h-0.186c-0.296-0.014-0.591-0.025-0.889-0.034c0.659-0.603,1.074-1.464,1.074-2.427
					c0-1.815-1.474-3.289-3.295-3.289s-3.295,1.474-3.295,3.289c0,0.962,0.414,1.823,1.072,2.427
					c-0.296,0.009-0.593,0.021-0.889,0.034h-0.184v0.009c-3.283,0.172-6.551,0.606-9.782,1.29c-3.229-0.684-6.5-1.118-9.781-1.29
					v-0.009H8.344c-0.296-0.014-0.593-0.025-0.889-0.034c0.658-0.603,1.072-1.464,1.072-2.427c0-1.815-1.473-3.289-3.295-3.289
					c-1.819,0-3.295,1.474-3.295,3.289c0,0.962,0.414,1.823,1.074,2.427c-0.298,0.009-0.593,0.021-0.89,0.034H1.939v0.009
					c-3.513,0.184-7.016,0.657-10.469,1.428c0.217,0.963,0.431,1.927,0.648,2.888c3.239-0.721,6.525-1.173,9.821-1.354v5.539
					l-5.199,3.816l-2.285-0.846l-1.15,1.311l3.795,2.917l0.381,0.358l0.621,0.582l0.1-0.094l0.121,0.094l1-1.144l5.912-4.485
					l5.912,4.485l1,1.144l0.121-0.094l0.1,0.094l0.623-0.582l0.379-0.358l3.795-2.917l-1.15-1.311l-2.285,0.846L8.53,34.622v-5.539
					c3.268,0.18,6.524,0.628,9.736,1.337c0.001,0.006,0.003,0.012,0.004,0.018c0.014-0.003,0.027-0.005,0.041-0.009
					c0.015,0.004,0.028,0.006,0.042,0.009c0.001-0.006,0.003-0.012,0.004-0.018c3.213-0.709,6.467-1.157,9.736-1.337v5.539
					l-5.201,3.816l-2.286-0.846l-1.148,1.311l3.794,2.917l0.381,0.358l0.623,0.582l0.098-0.094l0.121,0.094l1.002-1.144l5.912-4.485
					l5.91,4.485l1.002,1.144l0.12-0.094l0.101,0.094l0.62-0.582l0.382-0.358l3.793-2.917l-1.148-1.311l-2.286,0.846l-5.198-3.816
					v-5.539c3.267,0.18,6.525,0.628,9.735,1.337c0.001,0.006,0.003,0.012,0.004,0.018c0.014-0.003,0.027-0.005,0.041-0.008
					c0.014,0.003,0.027,0.005,0.041,0.008c0.001-0.006,0.003-0.012,0.004-0.018c3.213-0.709,6.468-1.157,9.735-1.337v5.539
					l-5.198,3.816l-2.286-0.846l-1.15,1.311l3.796,2.917l0.381,0.358l0.621,0.582l0.1-0.094l0.121,0.094l1-1.144l5.912-4.485
					l5.912,4.485l1,1.144l0.122-0.094l0.099,0.094l0.622-0.582l0.382-0.358l3.793-2.917l-1.148-1.311l-2.288,0.846l-5.198-3.816
					v-5.539c3.267,0.18,6.523,0.628,9.735,1.337c0.001,0.006,0.003,0.012,0.004,0.018c0.014-0.003,0.028-0.005,0.042-0.009
					c0.014,0.004,0.028,0.006,0.042,0.009c0.001-0.006,0.003-0.012,0.004-0.018c3.213-0.709,6.468-1.157,9.735-1.337v5.539
					l-5.198,3.816l-2.288-0.846l-1.148,1.311l3.793,2.917l0.382,0.358l0.622,0.582l0.099-0.094l0.121,0.094l1.001-1.144l5.912-4.485
					l5.912,4.485l1.001,1.144l0.12-0.094l0.101,0.094l0.62-0.582l0.382-0.358l3.795-2.917l-1.15-1.311l-2.286,0.846l-5.198-3.816
					v-5.539c3.267,0.18,6.525,0.628,9.735,1.337c0.001,0.006,0.003,0.012,0.004,0.018c0.014-0.003,0.027-0.005,0.041-0.008
					c0.014,0.003,0.027,0.005,0.041,0.008c0.001-0.006,0.003-0.012,0.004-0.018c3.211-0.709,6.468-1.157,9.735-1.337v5.539
					l-5.198,3.816l-2.286-0.846l-1.15,1.311l3.795,2.917l0.382,0.358l0.62,0.582l0.101-0.094l0.12,0.094l1-1.144l5.912-4.485
					l5.912,4.485l1.002,1.144l0.121-0.094l0.099,0.094l0.622-0.582l0.381-0.358l3.794-2.917l-1.148-1.311l-2.288,0.846l-5.198-3.816
					v-5.539c3.267,0.18,6.522,0.628,9.735,1.337c0.001,0.006,0.003,0.012,0.004,0.018c0.014-0.003,0.028-0.005,0.042-0.009
					c0.014,0.004,0.028,0.006,0.042,0.009c0.001-0.006,0.003-0.012,0.004-0.018c3.213-0.709,6.469-1.157,9.735-1.337v5.539
					l-5.198,3.816l-2.288-0.846l-1.148,1.311l3.793,2.917l0.382,0.358l0.622,0.582l0.099-0.094l0.12,0.094l1.002-1.144l5.912-4.485
					l5.912,4.485l1,1.144l0.121-0.094l0.1,0.094l0.621-0.582l0.381-0.358l3.796-2.917l-1.15-1.311l-2.286,0.846l-5.199-3.816v-5.539
					c3.269,0.18,6.525,0.628,9.736,1.338c0.001,0.005,0.003,0.011,0.004,0.017c0.014-0.003,0.027-0.005,0.041-0.008
					c0.013,0.003,0.026,0.005,0.04,0.008c0.001-0.006,0.003-0.012,0.004-0.017c3.214-0.71,6.468-1.158,9.736-1.338v5.539
					l-5.199,3.816l-2.285-0.846l-1.15,1.311l3.795,2.917l0.381,0.358l0.621,0.582l0.101-0.094l0.12,0.094l1-1.144l5.912-4.485
					l5.912,4.485l1.002,1.144l0.121-0.094l0.098,0.094l0.623-0.582l0.381-0.358l3.793-2.917l-1.148-1.311l-2.287,0.846l-5.197-3.816
					v-5.539c3.266,0.18,6.523,0.628,9.736,1.338c0.001,0.005,0.003,0.011,0.004,0.017c0.014-0.003,0.027-0.005,0.04-0.008
					c0.014,0.003,0.027,0.005,0.041,0.008c0.001-0.006,0.003-0.012,0.004-0.017c3.212-0.71,6.468-1.158,9.736-1.338v5.539
					l-5.199,3.816l-2.285-0.846l-1.15,1.311l3.793,2.917l0.381,0.358l0.623,0.582l0.1-0.094l0.121,0.094l1-1.144l5.912-4.485
					l5.912,4.485l1,1.144l0.12-0.094l0.101,0.094l0.621-0.582l0.381-0.358l3.795-2.917l-1.15-1.311l-2.285,0.846l-5.199-3.816
					v-5.539c3.267,0.18,6.524,0.628,9.736,1.337c0.001,0.006,0.003,0.012,0.004,0.018c0.014-0.003,0.027-0.005,0.041-0.009
					c0.015,0.004,0.028,0.006,0.042,0.009c0.001-0.006,0.003-0.012,0.004-0.018c3.213-0.709,6.467-1.157,9.736-1.337v5.539
					l-5.201,3.816l-2.286-0.846l-1.148,1.311l3.794,2.917l0.381,0.358l0.621,0.582l0.1-0.094l0.121,0.094l1.002-1.144l5.91-4.485
					l5.912,4.485l1.002,1.144l0.12-0.094l0.099,0.094l0.622-0.582l0.382-0.358l3.793-2.917l-1.148-1.311l-2.286,0.846l-5.198-3.816
					v-5.539c3.267,0.18,6.525,0.628,9.735,1.337c0.001,0.006,0.003,0.012,0.004,0.018c0.014-0.003,0.027-0.005,0.041-0.008
					c0.014,0.003,0.027,0.005,0.041,0.008c0.001-0.006,0.003-0.012,0.004-0.018c3.212-0.709,6.468-1.157,9.735-1.337v5.539
					l-5.198,3.816l-2.286-0.846l-1.15,1.311l3.796,2.917l0.379,0.358l0.622,0.582l0.101-0.094l0.121,0.094l1-1.144l5.912-4.485
					l5.912,4.485l1,1.144l0.12-0.094l0.101,0.094l0.62-0.582l0.382-0.358l3.795-2.917l-1.15-1.311l-2.286,0.846l-5.198-3.816v-5.539
					C247.184,29.264,250.47,29.716,253.711,30.437z"/>
				<path fill="#407EA8" d="M237.272,63.688c-3.805-0.848-7.669-1.336-11.542-1.472c0.657-0.601,1.072-1.463,1.072-2.424
					c0-1.817-1.474-3.289-3.295-3.289c-1.821,0-3.296,1.472-3.296,3.289c0,0.96,0.415,1.823,1.072,2.424
					c-3.569,0.126-7.131,0.565-10.646,1.295c-3.514-0.729-7.075-1.169-10.647-1.295c0.66-0.601,1.074-1.463,1.074-2.424
					c0-1.817-1.476-3.289-3.295-3.289c-1.821,0-3.297,1.472-3.297,3.289c0,0.96,0.417,1.823,1.074,2.424
					c-3.571,0.126-7.131,0.565-10.647,1.295c-3.514-0.729-7.076-1.169-10.646-1.295c0.658-0.601,1.074-1.463,1.074-2.424
					c0-1.817-1.476-3.289-3.297-3.289c-1.819,0-3.295,1.472-3.295,3.289c0,0.96,0.414,1.823,1.074,2.424
					c-3.571,0.126-7.132,0.565-10.647,1.295c-3.516-0.729-7.076-1.169-10.648-1.295c0.659-0.601,1.074-1.463,1.074-2.424
					c0-1.817-1.476-3.289-3.295-3.289c-1.821,0-3.295,1.472-3.295,3.289c0,0.96,0.414,1.823,1.072,2.424
					c-3.569,0.126-7.131,0.565-10.647,1.295c-3.514-0.729-7.074-1.169-10.646-1.295c0.659-0.601,1.074-1.463,1.074-2.424
					c0-1.817-1.476-3.289-3.297-3.289c-1.819,0-3.296,1.472-3.296,3.289c0,0.96,0.415,1.823,1.074,2.424
					c-3.571,0.126-7.13,0.565-10.646,1.295c-3.515-0.729-7.077-1.169-10.647-1.295c0.658-0.601,1.072-1.463,1.072-2.424
					c0-1.817-1.474-3.289-3.295-3.289c-1.819,0-3.295,1.472-3.295,3.289c0,0.96,0.415,1.823,1.074,2.424
					c-3.571,0.126-7.131,0.565-10.648,1.295c-3.514-0.729-7.075-1.169-10.647-1.295c0.66-0.601,1.074-1.463,1.074-2.424
					c0-1.817-1.476-3.289-3.295-3.289c-1.821,0-3.297,1.472-3.297,3.289c0,0.96,0.416,1.823,1.074,2.424
					c-3.569,0.126-7.132,0.565-10.647,1.295c-3.514-0.729-7.074-1.169-10.646-1.295c0.657-0.601,1.074-1.463,1.074-2.424
					c0-1.817-1.476-3.289-3.297-3.289c-1.819,0-3.295,1.472-3.295,3.289c0,0.96,0.414,1.823,1.074,2.424
					c-3.571,0.126-7.132,0.565-10.647,1.295c-3.514-0.729-7.076-1.169-10.646-1.295c0.657-0.601,1.072-1.463,1.072-2.424
					c0-1.817-1.475-3.289-3.296-3.289c-1.82,0-3.295,1.472-3.295,3.289c0,0.96,0.415,1.823,1.072,2.424
					c-3.569,0.126-7.131,0.565-10.646,1.295c-3.514-0.729-7.075-1.169-10.647-1.295c0.66-0.601,1.074-1.463,1.074-2.424
					c0-1.817-1.476-3.289-3.295-3.289c-1.821,0-3.297,1.472-3.297,3.289c0,0.96,0.417,1.823,1.074,2.424
					c-3.875,0.137-7.737,0.625-11.541,1.472c0.215,0.963,0.432,1.927,0.646,2.889c2.952-0.658,5.941-1.086,8.942-1.296l-2.519,6.641
					h3.935v6.94h5.516v-6.94h3.935l-2.518-6.641c2.824,0.197,5.637,0.596,8.42,1.189c0.008,0.036,0.016,0.071,0.023,0.106
					c0.083-0.019,0.167-0.032,0.25-0.051c0.082,0.019,0.166,0.032,0.249,0.051C5,66.541,5.008,66.506,5.015,66.47
					c2.783-0.594,5.596-0.992,8.422-1.189l-2.518,6.641h3.932v6.94h5.519v-6.94h3.932l-2.518-6.641
					c2.826,0.197,5.639,0.596,8.422,1.189c0.008,0.036,0.016,0.071,0.023,0.106c0.083-0.019,0.166-0.032,0.249-0.051
					c0.083,0.019,0.167,0.032,0.25,0.051c0.008-0.035,0.016-0.07,0.023-0.106c2.783-0.594,5.595-0.992,8.42-1.189l-2.518,6.641
					h3.933v6.94h5.518v-6.94h3.933l-2.506-6.641c2.825,0.197,5.637,0.596,8.421,1.189c0.008,0.036,0.016,0.071,0.023,0.106
					c0.083-0.019,0.167-0.032,0.249-0.051c0.084,0.019,0.167,0.032,0.25,0.051c0.008-0.035,0.016-0.07,0.024-0.106
					c2.783-0.594,5.595-0.992,8.419-1.189l-2.518,6.641h3.935v6.94h5.516v-6.94h3.935l-2.518-6.641
					c2.826,0.197,5.637,0.596,8.42,1.189c0.008,0.036,0.016,0.071,0.023,0.106c0.083-0.019,0.167-0.032,0.25-0.051
					c0.082,0.019,0.166,0.032,0.249,0.051c0.008-0.035,0.016-0.07,0.023-0.106c2.783-0.594,5.596-0.992,8.422-1.189l-2.519,6.641
					h3.933v6.94h5.518v-6.94h3.933l-2.518-6.641c2.826,0.197,5.638,0.596,8.422,1.189c0.008,0.036,0.016,0.071,0.023,0.106
					c0.083-0.019,0.167-0.032,0.25-0.051c0.083,0.019,0.166,0.032,0.249,0.051c0.008-0.035,0.016-0.07,0.024-0.106
					c2.783-0.594,5.596-0.992,8.42-1.189l-2.518,6.641h3.932v6.94h5.519v-6.94h3.934l-2.518-6.641
					c2.824,0.197,5.637,0.596,8.421,1.189c0.008,0.036,0.016,0.071,0.023,0.106c0.083-0.019,0.167-0.032,0.249-0.051
					c0.084,0.019,0.167,0.032,0.25,0.051c0.008-0.035,0.016-0.07,0.023-0.106c2.783-0.594,5.596-0.992,8.422-1.189l-2.518,6.641
					h3.933v6.94h5.518v-6.94h3.933l-2.519-6.641c2.827,0.197,5.639,0.596,8.422,1.189c0.008,0.036,0.016,0.071,0.023,0.106
					c0.083-0.019,0.166-0.032,0.249-0.051c0.083,0.019,0.167,0.032,0.25,0.051c0.008-0.035,0.016-0.07,0.023-0.106
					c2.782-0.594,5.594-0.992,8.42-1.189l-2.518,6.641h3.933v6.94h5.518v-6.94h3.933l-2.516-6.641
					c2.824,0.197,5.636,0.596,8.419,1.189c0.008,0.036,0.016,0.071,0.024,0.106c0.083-0.019,0.167-0.032,0.249-0.051
					c0.084,0.019,0.167,0.032,0.25,0.051c0.008-0.035,0.016-0.07,0.023-0.106c2.783-0.594,5.596-0.992,8.421-1.189l-2.519,6.641
					h3.934v6.94h5.516v-6.94h3.935l-2.518-6.641c2.824,0.197,5.636,0.596,8.42,1.189c0.008,0.036,0.016,0.071,0.023,0.106
					c0.083-0.019,0.167-0.032,0.25-0.051c0.082,0.019,0.166,0.032,0.249,0.051c0.008-0.035,0.016-0.07,0.023-0.106
					c2.783-0.594,5.596-0.992,8.423-1.189l-2.518,6.641h3.932v6.94h5.519v-6.94h3.932l-2.518-6.641
					c3.002,0.21,5.992,0.638,8.944,1.296C236.84,65.614,237.056,64.652,237.272,63.688z"/>
				<path fill="#407EA8" d="M253.711,99.718c0.215-0.963,0.431-1.928,0.646-2.891c-3.454-0.77-6.957-1.244-10.469-1.429v-0.006
					h-0.184c-0.296-0.016-0.593-0.028-0.889-0.038c0.657-0.6,1.072-1.464,1.072-2.424c0-1.818-1.475-3.288-3.295-3.288
					c-1.819,0-3.296,1.47-3.296,3.288c0,0.959,0.415,1.824,1.073,2.424c-0.296,0.01-0.593,0.022-0.889,0.038h-0.185v0.006
					c-3.28,0.173-6.549,0.609-9.781,1.291c-3.229-0.682-6.5-1.118-9.779-1.291v-0.006h-0.186c-0.296-0.016-0.593-0.028-0.889-0.038
					c0.659-0.6,1.074-1.464,1.074-2.424c0-1.818-1.476-3.288-3.297-3.288c-1.819,0-3.293,1.47-3.293,3.288
					c0,0.959,0.412,1.824,1.072,2.424c-0.298,0.01-0.593,0.022-0.889,0.038h-0.184v0.006c-3.283,0.173-6.551,0.609-9.782,1.291
					c-3.23-0.682-6.501-1.118-9.781-1.291v-0.006h-0.186c-0.294-0.016-0.591-0.028-0.887-0.038c0.658-0.6,1.072-1.464,1.072-2.424
					c0-1.818-1.474-3.288-3.295-3.288c-1.819,0-3.295,1.47-3.295,3.288c0,0.959,0.414,1.824,1.072,2.424
					c-0.296,0.01-0.593,0.022-0.889,0.038h-0.184v0.006c-3.281,0.173-6.55,0.609-9.781,1.291c-3.229-0.682-6.5-1.118-9.78-1.291
					v-0.006h-0.186c-0.296-0.016-0.593-0.028-0.889-0.038c0.66-0.6,1.074-1.464,1.074-2.424c0-1.818-1.476-3.288-3.297-3.288
					c-1.819,0-3.295,1.47-3.295,3.288c0,0.959,0.415,1.824,1.074,2.424c-0.298,0.01-0.593,0.022-0.889,0.038h-0.186v0.006
					c-3.281,0.173-6.551,0.609-9.78,1.291c-3.23-0.682-6.501-1.118-9.781-1.291v-0.006h-0.186c-0.294-0.016-0.591-0.028-0.887-0.038
					c0.658-0.6,1.072-1.464,1.072-2.424c0-1.818-1.474-3.288-3.295-3.288c-1.819,0-3.295,1.47-3.295,3.288
					c0,0.959,0.415,1.824,1.072,2.424c-0.296,0.01-0.593,0.022-0.889,0.038h-0.184v0.006c-3.28,0.173-6.549,0.609-9.781,1.291
					c-3.23-0.682-6.5-1.118-9.781-1.291v-0.006h-0.185c-0.296-0.016-0.593-0.028-0.889-0.038c0.66-0.6,1.073-1.464,1.073-2.424
					c0-1.818-1.475-3.288-3.296-3.288c-1.818,0-3.295,1.47-3.295,3.288c0,0.959,0.415,1.824,1.074,2.424
					c-0.298,0.01-0.593,0.022-0.889,0.038h-0.186v0.006c-3.28,0.173-6.549,0.609-9.779,1.291c-3.231-0.682-6.502-1.118-9.781-1.291
					v-0.006h-0.169c-0.296-0.016-0.591-0.028-0.887-0.038c0.657-0.6,1.072-1.464,1.072-2.424c0-1.818-1.475-3.288-3.296-3.288
					c-1.82,0-3.295,1.47-3.295,3.288c0,0.959,0.415,1.824,1.072,2.424c-0.296,0.01-0.593,0.022-0.889,0.038H80.39v0.006
					c-3.28,0.173-6.549,0.609-9.781,1.291c-3.23-0.682-6.5-1.118-9.781-1.291v-0.006h-0.181c-0.296-0.016-0.593-0.028-0.889-0.038
					c0.659-0.6,1.072-1.464,1.072-2.424c0-1.818-1.475-3.288-3.295-3.288c-1.819,0-3.296,1.47-3.296,3.288
					c0,0.959,0.415,1.824,1.074,2.424c-0.297,0.01-0.593,0.022-0.889,0.038h-0.186v0.006c-3.28,0.173-6.549,0.609-9.779,1.291
					c-3.231-0.682-6.502-1.118-9.781-1.291v-0.006h-0.186c-0.296-0.016-0.591-0.028-0.889-0.038c0.659-0.6,1.074-1.464,1.074-2.424
					c0-1.818-1.474-3.288-3.295-3.288s-3.295,1.47-3.295,3.288c0,0.959,0.414,1.824,1.072,2.424
					c-0.296,0.01-0.593,0.022-0.889,0.038h-0.184v0.006c-3.283,0.173-6.551,0.609-9.782,1.291c-3.229-0.682-6.5-1.118-9.781-1.291
					v-0.006H8.344c-0.296-0.016-0.593-0.028-0.889-0.038c0.658-0.6,1.072-1.464,1.072-2.424c0-1.818-1.473-3.288-3.295-3.288
					c-1.819,0-3.295,1.47-3.295,3.288c0,0.959,0.414,1.824,1.074,2.424c-0.298,0.01-0.593,0.022-0.89,0.038H1.939v0.006
					c-3.513,0.186-7.016,0.66-10.469,1.429c0.217,0.963,0.431,1.928,0.648,2.891c3.239-0.724,6.525-1.177,9.821-1.357v5.539
					l-5.199,3.815l-2.285-0.846l-1.15,1.313l3.795,2.915l0.381,0.358l0.621,0.584l0.1-0.094l0.121,0.094l1-1.145l5.912-4.485
					l5.912,4.485l1,1.145l0.121-0.094l0.1,0.094l0.623-0.584l0.379-0.358l3.795-2.915l-1.15-1.313l-2.285,0.846l-5.199-3.815v-5.539
					c3.268,0.179,6.524,0.628,9.736,1.34c0.001,0.006,0.003,0.012,0.004,0.018c0.014-0.003,0.027-0.005,0.041-0.009
					c0.015,0.004,0.028,0.006,0.042,0.009c0.001-0.006,0.003-0.012,0.004-0.018c3.213-0.712,6.467-1.161,9.736-1.34v5.539
					l-5.201,3.815l-2.286-0.846l-1.148,1.313l3.794,2.915l0.381,0.358l0.623,0.584l0.098-0.094l0.121,0.094l1.002-1.145l5.912-4.485
					l5.91,4.485l1.002,1.145l0.12-0.094l0.101,0.094l0.62-0.584l0.382-0.358l3.793-2.915l-1.148-1.313l-2.286,0.846l-5.198-3.815
					v-5.539c3.267,0.179,6.525,0.628,9.735,1.34c0.001,0.006,0.003,0.012,0.004,0.018c0.014-0.003,0.027-0.005,0.041-0.008
					c0.014,0.003,0.027,0.005,0.041,0.008c0.001-0.006,0.003-0.012,0.004-0.018c3.213-0.712,6.468-1.161,9.735-1.34v5.539
					l-5.198,3.815l-2.286-0.846l-1.15,1.313l3.796,2.915l0.381,0.358l0.621,0.584l0.1-0.094l0.121,0.094l1-1.145l5.912-4.485
					l5.912,4.485l1,1.145l0.122-0.094l0.099,0.094l0.622-0.584l0.382-0.358l3.793-2.915l-1.148-1.313l-2.288,0.846l-5.198-3.815
					v-5.539c3.267,0.179,6.523,0.627,9.735,1.34c0.001,0.006,0.003,0.012,0.004,0.018c0.014-0.003,0.028-0.006,0.042-0.009
					c0.014,0.003,0.028,0.006,0.042,0.009c0.001-0.006,0.003-0.012,0.004-0.018c3.213-0.713,6.468-1.161,9.735-1.34v5.539
					l-5.198,3.815l-2.288-0.846l-1.148,1.313l3.793,2.915l0.382,0.358l0.622,0.584l0.099-0.094l0.121,0.094l1.001-1.145l5.912-4.485
					l5.912,4.485l1.001,1.145l0.12-0.094l0.101,0.094l0.62-0.584l0.382-0.358l3.795-2.915l-1.15-1.313l-2.286,0.846l-5.198-3.815
					v-5.539c3.267,0.179,6.525,0.628,9.735,1.34c0.001,0.006,0.003,0.012,0.004,0.018c0.014-0.003,0.027-0.005,0.041-0.008
					c0.014,0.003,0.027,0.005,0.041,0.008c0.001-0.006,0.003-0.012,0.004-0.018c3.211-0.712,6.468-1.161,9.735-1.34v5.539
					l-5.198,3.815l-2.286-0.846l-1.15,1.313l3.795,2.915l0.382,0.358l0.62,0.584l0.101-0.094l0.12,0.094l1-1.145l5.912-4.485
					l5.912,4.485l1.002,1.145l0.121-0.094l0.099,0.094l0.622-0.584l0.381-0.358l3.794-2.915l-1.148-1.313l-2.288,0.846l-5.198-3.815
					v-5.539c3.267,0.179,6.522,0.627,9.735,1.34c0.001,0.006,0.003,0.012,0.004,0.018c0.014-0.003,0.028-0.006,0.042-0.009
					c0.014,0.003,0.028,0.006,0.042,0.009c0.001-0.006,0.003-0.012,0.004-0.018c3.213-0.713,6.469-1.161,9.735-1.34v5.539
					l-5.198,3.815l-2.288-0.846l-1.148,1.313l3.793,2.915l0.382,0.358l0.622,0.584l0.099-0.094l0.12,0.094l1.002-1.145l5.912-4.485
					l5.912,4.485l1,1.145l0.121-0.094l0.1,0.094l0.621-0.584l0.381-0.358l3.796-2.915l-1.15-1.313l-2.286,0.846l-5.199-3.815v-5.539
					c3.269,0.179,6.525,0.628,9.736,1.34c0.001,0.006,0.003,0.012,0.004,0.018c0.014-0.003,0.027-0.005,0.041-0.008
					c0.013,0.003,0.026,0.005,0.04,0.008c0.001-0.006,0.003-0.012,0.004-0.018c3.214-0.712,6.468-1.161,9.736-1.34v5.539
					l-5.199,3.815l-2.285-0.846l-1.15,1.313l3.795,2.915l0.381,0.358l0.621,0.584l0.101-0.094l0.12,0.094l1-1.145l5.912-4.485
					l5.912,4.485l1.002,1.145l0.121-0.094l0.098,0.094l0.623-0.584l0.381-0.358l3.793-2.915l-1.148-1.313l-2.287,0.846l-5.197-3.815
					v-5.539c3.266,0.179,6.523,0.628,9.736,1.34c0.001,0.006,0.003,0.012,0.004,0.018c0.014-0.003,0.027-0.005,0.04-0.008
					c0.014,0.003,0.027,0.005,0.041,0.008c0.001-0.006,0.003-0.012,0.004-0.018c3.212-0.712,6.468-1.161,9.736-1.34v5.539
					l-5.199,3.815l-2.285-0.846l-1.15,1.313l3.793,2.915l0.381,0.358l0.623,0.584l0.1-0.094l0.121,0.094l1-1.145l5.912-4.485
					l5.912,4.485l1,1.145l0.12-0.094l0.101,0.094l0.621-0.584l0.381-0.358l3.795-2.915l-1.15-1.313l-2.285,0.846l-5.199-3.815
					v-5.539c3.267,0.179,6.524,0.628,9.736,1.34c0.001,0.006,0.003,0.012,0.004,0.018c0.014-0.003,0.027-0.005,0.041-0.009
					c0.015,0.004,0.028,0.006,0.042,0.009c0.001-0.006,0.003-0.012,0.004-0.018c3.213-0.712,6.467-1.161,9.736-1.34v5.539
					l-5.201,3.815l-2.286-0.846l-1.148,1.313l3.794,2.915l0.381,0.358l0.621,0.584l0.1-0.094l0.121,0.094l1.002-1.145l5.91-4.485
					l5.912,4.485l1.002,1.145l0.12-0.094l0.099,0.094l0.622-0.584l0.382-0.358l3.793-2.915l-1.148-1.313l-2.286,0.846l-5.198-3.815
					v-5.539c3.267,0.179,6.525,0.628,9.735,1.34c0.001,0.006,0.003,0.012,0.004,0.018c0.014-0.003,0.027-0.005,0.041-0.008
					c0.014,0.003,0.027,0.005,0.041,0.008c0.001-0.006,0.003-0.012,0.004-0.018c3.212-0.712,6.468-1.161,9.735-1.34v5.539
					l-5.198,3.815l-2.286-0.846l-1.15,1.313l3.796,2.915l0.379,0.358l0.622,0.584l0.101-0.094l0.121,0.094l1-1.145l5.912-4.485
					l5.912,4.485l1,1.145l0.12-0.094l0.101,0.094l0.62-0.584l0.382-0.358l3.795-2.915l-1.15-1.313l-2.286,0.846l-5.198-3.815v-5.539
					C247.184,98.542,250.47,98.995,253.711,99.718z"/>
				<path fill="#407EA8" d="M237.272,130.048c-3.805-0.849-7.669-1.337-11.542-1.472c0.657-0.602,1.072-1.463,1.072-2.425
					c0-1.815-1.474-3.289-3.295-3.289c-1.821,0-3.296,1.474-3.296,3.289c0,0.961,0.415,1.823,1.072,2.425
					c-3.569,0.126-7.131,0.564-10.646,1.295c-3.514-0.73-7.075-1.169-10.647-1.295c0.66-0.602,1.074-1.463,1.074-2.425
					c0-1.815-1.476-3.289-3.295-3.289c-1.821,0-3.297,1.474-3.297,3.289c0,0.961,0.417,1.823,1.074,2.425
					c-3.571,0.126-7.131,0.564-10.647,1.295c-3.514-0.73-7.076-1.169-10.646-1.295c0.658-0.602,1.074-1.463,1.074-2.425
					c0-1.815-1.476-3.289-3.297-3.289c-1.819,0-3.295,1.474-3.295,3.289c0,0.961,0.414,1.823,1.074,2.425
					c-3.571,0.126-7.132,0.564-10.647,1.296c-3.516-0.731-7.076-1.17-10.648-1.296c0.659-0.602,1.074-1.463,1.074-2.425
					c0-1.815-1.476-3.289-3.295-3.289c-1.821,0-3.295,1.474-3.295,3.289c0,0.961,0.414,1.823,1.072,2.425
					c-3.569,0.126-7.131,0.564-10.647,1.295c-3.514-0.73-7.074-1.169-10.646-1.295c0.659-0.602,1.074-1.463,1.074-2.425
					c0-1.815-1.476-3.289-3.297-3.289c-1.819,0-3.296,1.474-3.296,3.289c0,0.961,0.415,1.823,1.074,2.425
					c-3.571,0.126-7.13,0.564-10.646,1.295c-3.515-0.73-7.077-1.169-10.647-1.295c0.658-0.602,1.072-1.463,1.072-2.425
					c0-1.815-1.474-3.289-3.295-3.289c-1.819,0-3.295,1.474-3.295,3.289c0,0.961,0.415,1.823,1.074,2.425
					c-3.571,0.126-7.131,0.564-10.648,1.296c-3.514-0.731-7.075-1.17-10.647-1.296c0.66-0.602,1.074-1.463,1.074-2.425
					c0-1.815-1.476-3.289-3.295-3.289c-1.821,0-3.297,1.474-3.297,3.289c0,0.961,0.416,1.823,1.074,2.425
					c-3.569,0.126-7.132,0.564-10.647,1.295c-3.514-0.73-7.074-1.169-10.646-1.295c0.657-0.602,1.074-1.463,1.074-2.425
					c0-1.815-1.476-3.289-3.297-3.289c-1.819,0-3.295,1.474-3.295,3.289c0,0.961,0.414,1.823,1.074,2.425
					c-3.571,0.126-7.132,0.564-10.647,1.295c-3.514-0.73-7.076-1.169-10.646-1.295c0.657-0.602,1.072-1.463,1.072-2.425
					c0-1.815-1.475-3.289-3.296-3.289c-1.82,0-3.295,1.474-3.295,3.289c0,0.961,0.415,1.823,1.072,2.425
					c-3.569,0.126-7.131,0.564-10.646,1.295c-3.514-0.73-7.075-1.169-10.647-1.295c0.66-0.602,1.074-1.463,1.074-2.425
					c0-1.815-1.476-3.289-3.295-3.289c-1.821,0-3.297,1.474-3.297,3.289c0,0.961,0.417,1.823,1.074,2.425
					c-3.875,0.137-7.737,0.624-11.541,1.472c0.215,0.963,0.432,1.926,0.646,2.889c2.952-0.658,5.941-1.089,8.942-1.295l-2.519,6.641
					h3.935v6.938h5.516v-6.938h3.935l-2.518-6.641c2.824,0.194,5.637,0.595,8.42,1.188c0.008,0.035,0.016,0.071,0.023,0.106
					c0.083-0.019,0.167-0.032,0.25-0.051c0.082,0.019,0.166,0.032,0.249,0.051c0.008-0.035,0.016-0.07,0.023-0.106
					c2.784-0.594,5.596-0.994,8.422-1.188l-2.518,6.641h3.932v6.938h5.519v-6.938h3.932l-2.518-6.641
					c2.826,0.194,5.638,0.595,8.422,1.188c0.008,0.036,0.016,0.071,0.023,0.106c0.083-0.019,0.166-0.032,0.249-0.051
					c0.083,0.019,0.167,0.032,0.25,0.051c0.008-0.035,0.016-0.071,0.023-0.106c2.783-0.594,5.595-0.994,8.42-1.188l-2.518,6.641
					h3.933v6.938h5.518v-6.938h3.933l-2.517-6.641c2.825,0.194,5.637,0.595,8.421,1.188c0.008,0.036,0.016,0.071,0.023,0.106
					c0.083-0.019,0.167-0.032,0.249-0.051c0.084,0.019,0.167,0.032,0.25,0.051c0.008-0.035,0.016-0.07,0.024-0.106
					c2.783-0.594,5.595-0.994,8.419-1.188l-2.518,6.641h3.935v6.938h5.516v-6.938h3.935l-2.518-6.641
					c2.826,0.194,5.637,0.595,8.42,1.188c0.008,0.035,0.016,0.071,0.023,0.106c0.083-0.019,0.167-0.032,0.25-0.051
					c0.082,0.019,0.166,0.032,0.249,0.051c0.008-0.035,0.016-0.07,0.023-0.106c2.783-0.594,5.596-0.994,8.422-1.188l-2.519,6.641
					h3.933v6.938h5.518v-6.938h3.933l-2.518-6.641c2.826,0.194,5.638,0.595,8.422,1.188c0.008,0.035,0.016,0.071,0.023,0.106
					c0.083-0.019,0.167-0.032,0.25-0.051c0.083,0.019,0.166,0.032,0.249,0.051c0.008-0.035,0.016-0.07,0.024-0.106
					c2.784-0.594,5.596-0.994,8.42-1.188l-2.518,6.641h3.932v6.938h5.519v-6.938h3.934l-2.518-6.641
					c2.824,0.194,5.636,0.595,8.421,1.188c0.008,0.036,0.016,0.071,0.023,0.106c0.083-0.019,0.167-0.032,0.249-0.051
					c0.084,0.019,0.167,0.032,0.25,0.051c0.008-0.035,0.016-0.071,0.023-0.106c2.783-0.594,5.596-0.994,8.422-1.188l-2.518,6.641
					h3.933v6.938h5.518v-6.938h3.933l-2.519-6.641c2.827,0.194,5.639,0.595,8.422,1.188c0.008,0.036,0.016,0.071,0.023,0.106
					c0.083-0.019,0.166-0.032,0.249-0.051c0.083,0.019,0.167,0.032,0.25,0.051c0.008-0.035,0.016-0.071,0.023-0.106
					c2.782-0.594,5.594-0.994,8.42-1.188l-2.518,6.641h3.933v6.938h5.518v-6.938h3.933l-2.516-6.641
					c2.824,0.194,5.636,0.595,8.419,1.188c0.008,0.036,0.016,0.071,0.024,0.106c0.083-0.019,0.167-0.032,0.249-0.051
					c0.084,0.019,0.167,0.032,0.25,0.051c0.008-0.035,0.016-0.07,0.023-0.106c2.783-0.594,5.596-0.994,8.421-1.188l-2.519,6.641
					h3.934v6.938h5.516v-6.938h3.935l-2.518-6.641c2.824,0.194,5.636,0.595,8.42,1.188c0.008,0.035,0.016,0.071,0.023,0.106
					c0.083-0.019,0.167-0.032,0.25-0.051c0.082,0.019,0.166,0.032,0.249,0.051c0.008-0.035,0.016-0.07,0.023-0.106
					c2.784-0.594,5.596-0.994,8.423-1.188l-2.518,6.641h3.932v6.938h5.519v-6.938h3.932l-2.518-6.641
					c3.002,0.206,5.992,0.637,8.944,1.295C236.84,131.973,237.056,131.011,237.272,130.048z"/>
				<path fill="#407EA8" d="M253.711,166.15c0.215-0.964,0.431-1.927,0.646-2.888c-3.454-0.772-6.957-1.246-10.469-1.429v-0.008
					h-0.184c-0.296-0.015-0.593-0.024-0.889-0.037c0.657-0.601,1.072-1.461,1.072-2.423c0-1.816-1.475-3.29-3.295-3.29
					c-1.819,0-3.296,1.474-3.296,3.29c0,0.961,0.415,1.822,1.073,2.423c-0.296,0.013-0.593,0.023-0.889,0.037h-0.185v0.008
					c-3.28,0.172-6.549,0.607-9.781,1.291c-3.229-0.684-6.5-1.119-9.779-1.291v-0.008h-0.186c-0.296-0.015-0.593-0.024-0.889-0.037
					c0.659-0.601,1.074-1.461,1.074-2.423c0-1.816-1.476-3.29-3.297-3.29c-1.819,0-3.293,1.474-3.293,3.29
					c0,0.961,0.412,1.822,1.072,2.423c-0.298,0.013-0.593,0.023-0.889,0.037h-0.184v0.008c-3.283,0.172-6.551,0.607-9.782,1.291
					c-3.23-0.684-6.501-1.119-9.781-1.291v-0.008h-0.186c-0.294-0.015-0.591-0.024-0.887-0.037c0.658-0.601,1.072-1.461,1.072-2.423
					c0-1.816-1.474-3.29-3.295-3.29c-1.819,0-3.295,1.474-3.295,3.29c0,0.961,0.414,1.822,1.072,2.423
					c-0.296,0.013-0.593,0.023-0.889,0.037h-0.184v0.008c-3.281,0.172-6.55,0.607-9.781,1.291c-3.229-0.684-6.5-1.119-9.78-1.291
					v-0.008h-0.186c-0.296-0.015-0.593-0.024-0.889-0.037c0.66-0.601,1.074-1.461,1.074-2.423c0-1.816-1.476-3.29-3.297-3.29
					c-1.819,0-3.295,1.474-3.295,3.29c0,0.961,0.415,1.822,1.074,2.423c-0.298,0.013-0.593,0.023-0.889,0.037h-0.186v0.008
					c-3.281,0.172-6.551,0.607-9.78,1.291c-3.23-0.684-6.501-1.119-9.781-1.291v-0.008h-0.186c-0.294-0.015-0.591-0.024-0.887-0.037
					c0.658-0.601,1.072-1.461,1.072-2.423c0-1.816-1.474-3.29-3.295-3.29c-1.819,0-3.295,1.474-3.295,3.29
					c0,0.961,0.415,1.822,1.072,2.423c-0.296,0.013-0.593,0.023-0.889,0.037h-0.184v0.008c-3.28,0.172-6.549,0.607-9.781,1.291
					c-3.23-0.684-6.5-1.119-9.781-1.291v-0.008h-0.185c-0.296-0.015-0.593-0.024-0.889-0.037c0.66-0.601,1.073-1.461,1.073-2.423
					c0-1.816-1.475-3.29-3.296-3.29c-1.818,0-3.295,1.474-3.295,3.29c0,0.961,0.415,1.822,1.074,2.423
					c-0.298,0.013-0.593,0.023-0.889,0.037h-0.186v0.008c-3.28,0.172-6.549,0.607-9.779,1.291c-3.231-0.684-6.502-1.119-9.781-1.291
					v-0.008h-0.169c-0.296-0.015-0.591-0.024-0.887-0.037c0.657-0.601,1.072-1.461,1.072-2.423c0-1.816-1.475-3.29-3.296-3.29
					c-1.82,0-3.295,1.474-3.295,3.29c0,0.961,0.415,1.822,1.072,2.423c-0.296,0.013-0.593,0.023-0.889,0.037H80.39v0.008
					c-3.28,0.172-6.549,0.607-9.781,1.291c-3.23-0.684-6.5-1.119-9.781-1.291v-0.008h-0.181c-0.296-0.015-0.593-0.024-0.889-0.037
					c0.659-0.601,1.072-1.461,1.072-2.423c0-1.816-1.475-3.29-3.295-3.29c-1.819,0-3.296,1.474-3.296,3.29
					c0,0.961,0.415,1.822,1.074,2.423c-0.297,0.013-0.593,0.023-0.889,0.037h-0.186v0.008c-3.28,0.172-6.549,0.607-9.779,1.291
					c-3.231-0.684-6.502-1.119-9.781-1.291v-0.008h-0.186c-0.296-0.015-0.591-0.024-0.889-0.037
					c0.659-0.601,1.074-1.461,1.074-2.423c0-1.816-1.474-3.29-3.295-3.29s-3.295,1.474-3.295,3.29c0,0.961,0.414,1.822,1.072,2.423
					c-0.296,0.013-0.593,0.023-0.889,0.037h-0.184v0.008c-3.283,0.172-6.551,0.607-9.782,1.291c-3.229-0.684-6.5-1.119-9.781-1.291
					v-0.008H8.344c-0.296-0.015-0.593-0.024-0.889-0.037c0.658-0.601,1.072-1.461,1.072-2.423c0-1.816-1.473-3.29-3.295-3.29
					c-1.819,0-3.295,1.474-3.295,3.29c0,0.961,0.414,1.822,1.074,2.423c-0.298,0.013-0.593,0.023-0.89,0.037H1.939v0.008
					c-3.513,0.184-7.016,0.658-10.469,1.429c0.217,0.961,0.431,1.924,0.648,2.888c3.239-0.723,6.525-1.174,9.821-1.355v5.539
					l-5.199,3.816l-2.285-0.848l-1.15,1.315l3.795,2.916l0.38,0.357l0.621,0.581l0.1-0.091l0.121,0.091l1-1.143l5.912-4.485
					l5.912,4.485l1,1.143l0.121-0.091l0.1,0.091l0.622-0.581l0.379-0.356l3.795-2.916l-1.15-1.315l-2.285,0.848l-5.199-3.816v-5.539
					c3.268,0.18,6.524,0.626,9.736,1.338c0.001,0.006,0.003,0.012,0.004,0.018c0.014-0.003,0.027-0.005,0.041-0.009
					c0.015,0.004,0.028,0.006,0.042,0.009c0.001-0.006,0.003-0.012,0.004-0.018c3.213-0.712,6.467-1.158,9.736-1.338v5.539
					l-5.201,3.816l-2.286-0.848l-1.148,1.315l3.794,2.916l0.379,0.356l0.623,0.581l0.098-0.091l0.121,0.091l1.002-1.143l5.912-4.485
					l5.91,4.485l1.002,1.143l0.12-0.091l0.101,0.091l0.619-0.581l0.382-0.356l3.793-2.916l-1.148-1.315l-2.286,0.848l-5.198-3.816
					v-5.539c3.267,0.18,6.525,0.627,9.735,1.338c0.001,0.006,0.003,0.012,0.004,0.018c0.014-0.003,0.027-0.005,0.041-0.008
					c0.014,0.003,0.027,0.005,0.041,0.008c0.001-0.006,0.003-0.012,0.004-0.018c3.213-0.711,6.468-1.158,9.735-1.338v5.539
					l-5.198,3.816l-2.286-0.848l-1.15,1.315l3.796,2.916l0.379,0.356l0.621,0.581l0.1-0.091l0.121,0.091l1-1.143l5.912-4.485
					l5.912,4.485l1,1.143l0.122-0.091l0.099,0.091l0.621-0.581l0.382-0.356l3.793-2.916l-1.148-1.315l-2.288,0.848l-5.198-3.816
					v-5.539c3.267,0.18,6.523,0.626,9.735,1.338c0.001,0.006,0.003,0.012,0.004,0.018c0.014-0.003,0.028-0.005,0.042-0.009
					c0.014,0.004,0.028,0.006,0.042,0.009c0.001-0.006,0.003-0.012,0.004-0.018c3.213-0.712,6.468-1.158,9.735-1.338v5.539
					l-5.198,3.816l-2.288-0.848l-1.148,1.315l3.793,2.916l0.38,0.356l0.622,0.581l0.099-0.091l0.121,0.091l1.001-1.143l5.912-4.485
					l5.912,4.485l1.001,1.143l0.12-0.091l0.101,0.091l0.62-0.581l0.382-0.356l3.795-2.916l-1.15-1.315l-2.286,0.848l-5.198-3.816
					v-5.539c3.267,0.18,6.525,0.627,9.735,1.338c0.001,0.006,0.003,0.012,0.004,0.018c0.014-0.003,0.027-0.005,0.041-0.008
					c0.014,0.003,0.027,0.005,0.041,0.008c0.001-0.006,0.003-0.012,0.004-0.018c3.211-0.711,6.468-1.158,9.735-1.338v5.539
					l-5.198,3.816l-2.286-0.848l-1.15,1.315l3.795,2.916l0.382,0.356l0.62,0.581l0.101-0.091l0.12,0.091l1-1.143l5.912-4.485
					l5.912,4.485l1.002,1.143l0.121-0.091l0.099,0.091l0.622-0.581l0.381-0.356l3.794-2.916l-1.148-1.315l-2.288,0.848l-5.198-3.816
					v-5.539c3.267,0.18,6.522,0.626,9.735,1.338c0.001,0.006,0.003,0.012,0.004,0.018c0.014-0.003,0.028-0.005,0.042-0.009
					c0.014,0.004,0.028,0.006,0.042,0.009c0.001-0.006,0.003-0.012,0.004-0.018c3.213-0.712,6.469-1.158,9.735-1.338v5.539
					l-5.198,3.816l-2.288-0.848l-1.148,1.315l3.793,2.916l0.382,0.356l0.622,0.581l0.099-0.091l0.12,0.091l1.002-1.143l5.912-4.485
					l5.912,4.485l1,1.143l0.121-0.091l0.1,0.091l0.621-0.581l0.381-0.356l3.796-2.916l-1.15-1.315l-2.286,0.848l-5.199-3.816v-5.539
					c3.269,0.18,6.525,0.627,9.736,1.338c0.001,0.006,0.003,0.012,0.004,0.018c0.014-0.003,0.027-0.005,0.041-0.008
					c0.013,0.003,0.026,0.005,0.04,0.008c0.001-0.006,0.003-0.012,0.004-0.018c3.214-0.711,6.468-1.158,9.736-1.338v5.539
					l-5.199,3.816l-2.285-0.848l-1.15,1.315l3.795,2.916l0.381,0.356l0.621,0.581l0.101-0.091l0.12,0.091l1-1.143l5.912-4.485
					l5.912,4.485l1.002,1.143l0.121-0.091l0.098,0.091l0.623-0.581l0.381-0.356l3.793-2.916l-1.148-1.315l-2.287,0.848l-5.197-3.816
					v-5.539c3.266,0.18,6.523,0.627,9.736,1.338c0.001,0.006,0.003,0.012,0.004,0.018c0.014-0.003,0.027-0.005,0.04-0.008
					c0.014,0.003,0.027,0.005,0.041,0.008c0.001-0.006,0.003-0.012,0.004-0.018c3.212-0.711,6.468-1.158,9.736-1.338v5.539
					l-5.199,3.816l-2.285-0.848l-1.15,1.315l3.793,2.916l0.381,0.356l0.623,0.581l0.1-0.091l0.121,0.091l1-1.143l5.912-4.485
					l5.912,4.485l1,1.143l0.12-0.091l0.101,0.091l0.621-0.581l0.381-0.356l3.795-2.916l-1.15-1.315l-2.285,0.848l-5.199-3.816
					v-5.539c3.267,0.18,6.524,0.626,9.736,1.338c0.001,0.006,0.003,0.012,0.004,0.018c0.014-0.003,0.027-0.005,0.041-0.009
					c0.015,0.004,0.028,0.006,0.042,0.009c0.001-0.006,0.003-0.012,0.004-0.018c3.213-0.712,6.467-1.158,9.736-1.338v5.539
					l-5.201,3.816l-2.286-0.848l-1.148,1.315l3.794,2.916l0.381,0.356l0.621,0.581l0.1-0.091l0.121,0.091l1.002-1.143l5.91-4.485
					l5.912,4.485l1.002,1.143l0.12-0.091l0.099,0.091l0.622-0.581l0.382-0.356l3.793-2.916l-1.148-1.315l-2.286,0.848l-5.198-3.816
					v-5.539c3.267,0.18,6.525,0.627,9.735,1.338c0.001,0.006,0.003,0.012,0.004,0.018c0.014-0.003,0.027-0.005,0.041-0.008
					c0.014,0.003,0.027,0.005,0.041,0.008c0.001-0.006,0.003-0.012,0.004-0.018c3.212-0.711,6.468-1.158,9.735-1.338v5.539
					l-5.198,3.816l-2.286-0.848l-1.15,1.315l3.796,2.916l0.379,0.356l0.622,0.581l0.101-0.091l0.121,0.091l1-1.143l5.912-4.485
					l5.912,4.485l1,1.143l0.12-0.091l0.101,0.091l0.62-0.581l0.382-0.356l3.795-2.916l-1.15-1.315l-2.286,0.848l-5.198-3.816v-5.539
					C247.184,164.976,250.47,165.428,253.711,166.15z"/>
				<path fill="#407EA8" d="M237.272,196.408c-3.805-0.851-7.669-1.338-11.542-1.475c0.657-0.6,1.072-1.462,1.072-2.424
					c0-1.816-1.474-3.287-3.295-3.287c-1.821,0-3.296,1.471-3.296,3.287c0,0.961,0.415,1.824,1.072,2.424
					c-3.569,0.127-7.131,0.565-10.646,1.297c-3.514-0.731-7.075-1.17-10.647-1.297c0.66-0.6,1.074-1.462,1.074-2.424
					c0-1.816-1.476-3.287-3.295-3.287c-1.821,0-3.297,1.471-3.297,3.287c0,0.961,0.417,1.824,1.074,2.424
					c-3.571,0.127-7.131,0.565-10.647,1.297c-3.514-0.731-7.076-1.17-10.646-1.297c0.658-0.6,1.074-1.462,1.074-2.424
					c0-1.816-1.476-3.287-3.297-3.287c-1.819,0-3.295,1.471-3.295,3.287c0,0.961,0.414,1.824,1.074,2.424
					c-3.571,0.127-7.132,0.565-10.647,1.297c-3.516-0.731-7.076-1.17-10.648-1.297c0.659-0.6,1.074-1.462,1.074-2.424
					c0-1.816-1.476-3.287-3.295-3.287c-1.821,0-3.295,1.471-3.295,3.287c0,0.961,0.414,1.824,1.072,2.424
					c-3.569,0.127-7.131,0.565-10.647,1.297c-3.514-0.731-7.074-1.17-10.646-1.297c0.659-0.6,1.074-1.462,1.074-2.424
					c0-1.816-1.476-3.287-3.297-3.287c-1.819,0-3.296,1.471-3.296,3.287c0,0.961,0.415,1.824,1.074,2.424
					c-3.571,0.127-7.13,0.565-10.646,1.297c-3.515-0.731-7.077-1.17-10.647-1.297c0.658-0.6,1.072-1.462,1.072-2.424
					c0-1.816-1.474-3.287-3.295-3.287c-1.819,0-3.295,1.471-3.295,3.287c0,0.961,0.415,1.824,1.074,2.424
					c-3.571,0.127-7.131,0.565-10.648,1.297c-3.514-0.731-7.075-1.17-10.647-1.297c0.66-0.6,1.074-1.462,1.074-2.424
					c0-1.816-1.476-3.287-3.295-3.287c-1.821,0-3.297,1.471-3.297,3.287c0,0.961,0.416,1.824,1.074,2.424
					c-3.569,0.127-7.132,0.565-10.647,1.297c-3.514-0.731-7.074-1.17-10.646-1.297c0.657-0.6,1.074-1.462,1.074-2.424
					c0-1.816-1.476-3.287-3.297-3.287c-1.819,0-3.295,1.471-3.295,3.287c0,0.961,0.414,1.824,1.074,2.424
					c-3.571,0.127-7.132,0.565-10.647,1.297c-3.514-0.731-7.076-1.17-10.646-1.297c0.657-0.6,1.072-1.462,1.072-2.424
					c0-1.816-1.475-3.287-3.296-3.287c-1.82,0-3.295,1.471-3.295,3.287c0,0.961,0.415,1.824,1.072,2.424
					c-3.569,0.127-7.131,0.565-10.646,1.297c-3.514-0.731-7.075-1.17-10.647-1.297c0.66-0.6,1.074-1.462,1.074-2.424
					c0-1.816-1.476-3.287-3.295-3.287c-1.821,0-3.297,1.471-3.297,3.287c0,0.961,0.417,1.824,1.074,2.424
					c-3.875,0.138-7.737,0.625-11.541,1.475c0.215,0.962,0.432,1.926,0.646,2.889c2.952-0.66,5.941-1.087,8.942-1.296l-2.519,6.64
					h3.935v6.939h5.516v-6.939h3.935l-2.518-6.64c2.824,0.196,5.637,0.594,8.42,1.189c0.008,0.035,0.016,0.071,0.023,0.107
					c0.083-0.019,0.167-0.032,0.25-0.051c0.082,0.018,0.166,0.032,0.249,0.051c0.008-0.035,0.016-0.071,0.023-0.107
					c2.784-0.596,5.596-0.993,8.422-1.189l-2.518,6.64h3.932v6.939h5.519v-6.939h3.932l-2.518-6.64
					c2.826,0.196,5.638,0.594,8.422,1.189c0.008,0.035,0.016,0.071,0.023,0.107c0.083-0.019,0.166-0.032,0.249-0.051
					c0.083,0.018,0.167,0.032,0.25,0.051c0.008-0.035,0.016-0.071,0.023-0.107c2.783-0.596,5.595-0.993,8.42-1.189l-2.518,6.64
					h3.933v6.939h5.518v-6.939h3.933l-2.517-6.64c2.825,0.196,5.637,0.594,8.421,1.189c0.008,0.035,0.016,0.071,0.023,0.107
					c0.083-0.019,0.167-0.032,0.249-0.051c0.084,0.018,0.167,0.032,0.25,0.051c0.008-0.035,0.016-0.071,0.024-0.107
					c2.783-0.596,5.595-0.993,8.419-1.189l-2.518,6.64h3.935v6.939h5.516v-6.939h3.935l-2.518-6.64
					c2.826,0.196,5.637,0.594,8.42,1.189c0.008,0.035,0.016,0.071,0.023,0.107c0.083-0.019,0.167-0.032,0.25-0.051
					c0.082,0.018,0.166,0.032,0.249,0.051c0.008-0.035,0.016-0.071,0.023-0.107c2.783-0.596,5.596-0.993,8.422-1.189l-2.519,6.64
					h3.933v6.939h5.518v-6.939h3.933l-2.518-6.64c2.826,0.196,5.638,0.594,8.422,1.189c0.008,0.035,0.016,0.071,0.023,0.107
					c0.083-0.019,0.167-0.032,0.25-0.051c0.083,0.018,0.166,0.032,0.249,0.051c0.008-0.035,0.016-0.071,0.024-0.107
					c2.784-0.596,5.596-0.993,8.42-1.189l-2.518,6.64h3.932v6.939h5.519v-6.939h3.934l-2.518-6.64
					c2.824,0.196,5.636,0.594,8.421,1.189c0.008,0.035,0.016,0.071,0.023,0.107c0.083-0.019,0.167-0.032,0.249-0.051
					c0.084,0.018,0.167,0.032,0.25,0.051c0.008-0.035,0.016-0.071,0.023-0.107c2.783-0.596,5.596-0.993,8.422-1.189l-2.518,6.64
					h3.933v6.939h5.518v-6.939h3.933l-2.519-6.64c2.827,0.196,5.638,0.594,8.422,1.189c0.008,0.035,0.016,0.071,0.023,0.107
					c0.083-0.019,0.166-0.032,0.249-0.051c0.083,0.018,0.167,0.032,0.25,0.051c0.008-0.035,0.016-0.071,0.023-0.107
					c2.783-0.596,5.594-0.993,8.42-1.189l-2.518,6.64h3.933v6.939h5.518v-6.939h3.933l-2.516-6.64
					c2.824,0.196,5.636,0.594,8.419,1.189c0.008,0.035,0.016,0.071,0.024,0.107c0.083-0.019,0.167-0.032,0.249-0.051
					c0.084,0.018,0.167,0.032,0.25,0.051c0.008-0.035,0.016-0.071,0.023-0.107c2.783-0.596,5.596-0.993,8.421-1.189l-2.519,6.64
					h3.934v6.939h5.516v-6.939h3.935l-2.518-6.64c2.824,0.196,5.636,0.594,8.42,1.189c0.008,0.035,0.016,0.071,0.023,0.107
					c0.083-0.019,0.167-0.032,0.25-0.051c0.082,0.018,0.166,0.032,0.249,0.051c0.008-0.035,0.016-0.071,0.023-0.107
					c2.784-0.596,5.596-0.993,8.423-1.189l-2.518,6.64h3.932v6.939h5.519v-6.939h3.932l-2.518-6.64
					c3.002,0.209,5.992,0.636,8.944,1.296C236.84,198.333,237.056,197.37,237.272,196.408z"/>
				<path fill="#407EA8" d="M253.711,229.515c0.215-0.961,0.431-1.925,0.646-2.888c-3.454-0.77-6.957-1.244-10.469-1.428v-0.008
					h-0.184c-0.296-0.015-0.593-0.026-0.889-0.034c0.657-0.604,1.072-1.465,1.072-2.428c0-1.815-1.475-3.289-3.295-3.289
					c-1.819,0-3.296,1.474-3.296,3.289c0,0.962,0.415,1.824,1.073,2.428c-0.296,0.008-0.593,0.02-0.889,0.034h-0.185v0.008
					c-3.28,0.173-6.549,0.607-9.781,1.29c-3.229-0.683-6.5-1.117-9.779-1.29v-0.008h-0.186c-0.296-0.015-0.593-0.026-0.889-0.034
					c0.659-0.604,1.074-1.465,1.074-2.428c0-1.815-1.476-3.289-3.297-3.289c-1.819,0-3.293,1.474-3.293,3.289
					c0,0.962,0.412,1.824,1.072,2.428c-0.298,0.008-0.593,0.02-0.889,0.034h-0.184v0.008c-3.283,0.173-6.551,0.607-9.782,1.29
					c-3.23-0.683-6.501-1.117-9.781-1.29v-0.008h-0.186c-0.294-0.015-0.591-0.026-0.887-0.034c0.658-0.604,1.072-1.465,1.072-2.428
					c0-1.815-1.474-3.289-3.295-3.289c-1.819,0-3.295,1.474-3.295,3.289c0,0.962,0.414,1.824,1.072,2.428
					c-0.296,0.008-0.593,0.02-0.889,0.034h-0.184v0.008c-3.281,0.173-6.55,0.607-9.781,1.29c-3.229-0.683-6.5-1.117-9.78-1.29
					v-0.008h-0.186c-0.296-0.015-0.593-0.026-0.889-0.034c0.66-0.604,1.074-1.465,1.074-2.428c0-1.815-1.476-3.289-3.297-3.289
					c-1.819,0-3.295,1.474-3.295,3.289c0,0.962,0.415,1.824,1.074,2.428c-0.298,0.008-0.593,0.02-0.889,0.034h-0.186v0.008
					c-3.281,0.173-6.551,0.607-9.78,1.29c-3.23-0.683-6.501-1.117-9.781-1.29v-0.008h-0.186c-0.294-0.015-0.591-0.026-0.887-0.034
					c0.658-0.604,1.072-1.465,1.072-2.428c0-1.815-1.474-3.289-3.295-3.289c-1.819,0-3.295,1.474-3.295,3.289
					c0,0.962,0.415,1.824,1.072,2.428c-0.296,0.008-0.593,0.02-0.889,0.034h-0.184v0.008c-3.28,0.173-6.549,0.607-9.781,1.29
					c-3.23-0.683-6.5-1.117-9.781-1.29v-0.008h-0.185c-0.296-0.015-0.593-0.026-0.889-0.034c0.66-0.604,1.073-1.465,1.073-2.428
					c0-1.815-1.475-3.289-3.296-3.289c-1.818,0-3.295,1.474-3.295,3.289c0,0.962,0.415,1.824,1.074,2.428
					c-0.298,0.008-0.593,0.02-0.889,0.034h-0.186v0.008c-3.28,0.173-6.549,0.607-9.779,1.29c-3.231-0.683-6.502-1.117-9.781-1.29
					v-0.008h-0.169c-0.296-0.015-0.591-0.026-0.887-0.034c0.657-0.604,1.072-1.465,1.072-2.428c0-1.815-1.475-3.289-3.296-3.289
					c-1.82,0-3.295,1.474-3.295,3.289c0,0.962,0.415,1.824,1.072,2.428c-0.296,0.008-0.593,0.02-0.889,0.034H80.39v0.008
					c-3.28,0.173-6.549,0.607-9.781,1.29c-3.23-0.683-6.5-1.117-9.781-1.29v-0.008h-0.181c-0.296-0.015-0.593-0.026-0.889-0.034
					c0.659-0.604,1.072-1.465,1.072-2.428c0-1.815-1.475-3.289-3.295-3.289c-1.819,0-3.296,1.474-3.296,3.289
					c0,0.962,0.415,1.824,1.074,2.428c-0.297,0.008-0.593,0.02-0.889,0.034h-0.186v0.008c-3.28,0.173-6.549,0.607-9.779,1.29
					c-3.231-0.683-6.502-1.117-9.781-1.29v-0.008h-0.186c-0.296-0.015-0.591-0.026-0.889-0.034c0.659-0.604,1.074-1.465,1.074-2.428
					c0-1.815-1.474-3.289-3.295-3.289s-3.295,1.474-3.295,3.289c0,0.962,0.414,1.824,1.072,2.428
					c-0.296,0.008-0.593,0.02-0.889,0.034h-0.184v0.008c-3.283,0.173-6.551,0.607-9.782,1.29c-3.229-0.683-6.5-1.117-9.781-1.29
					v-0.008H8.344c-0.296-0.015-0.593-0.026-0.889-0.034c0.658-0.604,1.072-1.465,1.072-2.428c0-1.815-1.473-3.289-3.295-3.289
					c-1.819,0-3.295,1.474-3.295,3.289c0,0.962,0.414,1.824,1.074,2.428c-0.298,0.008-0.593,0.02-0.89,0.034H1.939v0.008
					c-3.513,0.185-7.016,0.658-10.469,1.428c0.217,0.964,0.431,1.928,0.648,2.888c3.239-0.722,6.525-1.174,9.821-1.355v5.54
					l-5.199,3.816l-2.285-0.847l-1.15,1.312l3.795,2.916l0.381,0.358l0.621,0.583l0.1-0.096l0.121,0.096l1-1.144l5.912-4.486
					l5.912,4.486l1,1.144l0.121-0.096l0.1,0.096l0.623-0.583l0.379-0.358l3.795-2.916l-1.15-1.312l-2.285,0.847L8.53,233.7v-5.54
					c3.268,0.18,6.524,0.628,9.736,1.338c0.001,0.006,0.003,0.012,0.004,0.018c0.014-0.003,0.027-0.005,0.041-0.009
					c0.015,0.004,0.028,0.006,0.042,0.009c0.001-0.006,0.003-0.012,0.004-0.018c3.213-0.71,6.467-1.158,9.736-1.338v5.54
					l-5.201,3.816l-2.286-0.847l-1.148,1.312l3.794,2.916l0.381,0.358l0.623,0.583l0.098-0.096l0.121,0.096l1.002-1.144l5.912-4.486
					l5.91,4.486l1.002,1.144l0.12-0.096l0.101,0.096l0.62-0.583l0.382-0.358l3.793-2.916l-1.148-1.312l-2.286,0.847l-5.198-3.816
					v-5.54c3.267,0.18,6.525,0.628,9.735,1.338c0.001,0.006,0.003,0.012,0.004,0.018c0.014-0.003,0.027-0.005,0.041-0.008
					c0.014,0.003,0.027,0.005,0.041,0.008c0.001-0.006,0.003-0.012,0.004-0.018c3.213-0.71,6.468-1.158,9.735-1.338v5.54
					l-5.198,3.816l-2.286-0.847l-1.15,1.312l3.796,2.916l0.381,0.358l0.621,0.583l0.1-0.096l0.121,0.096l1-1.144l5.912-4.486
					l5.912,4.486l1,1.144l0.122-0.096l0.099,0.096l0.622-0.583l0.382-0.358l3.793-2.916l-1.148-1.312l-2.288,0.847l-5.198-3.816
					v-5.54c3.267,0.18,6.523,0.627,9.735,1.338c0.001,0.006,0.003,0.012,0.004,0.018c0.014-0.003,0.028-0.005,0.042-0.009
					c0.014,0.004,0.028,0.006,0.042,0.009c0.001-0.006,0.003-0.012,0.004-0.018c3.213-0.711,6.468-1.158,9.735-1.338v5.54
					l-5.198,3.816l-2.288-0.847l-1.148,1.312l3.793,2.916l0.382,0.358l0.622,0.583l0.099-0.096l0.121,0.096l1.001-1.144l5.912-4.486
					l5.912,4.486l1.001,1.144l0.12-0.096l0.101,0.096l0.62-0.583l0.382-0.358l3.795-2.916l-1.15-1.312l-2.286,0.847l-5.198-3.816
					v-5.54c3.267,0.18,6.525,0.628,9.735,1.338c0.001,0.006,0.003,0.012,0.004,0.018c0.014-0.003,0.027-0.005,0.041-0.008
					c0.014,0.003,0.027,0.005,0.041,0.008c0.001-0.006,0.003-0.012,0.004-0.018c3.211-0.71,6.468-1.158,9.735-1.338v5.54
					l-5.198,3.816l-2.286-0.847l-1.15,1.312l3.795,2.916l0.382,0.358l0.62,0.583l0.101-0.096l0.12,0.096l1-1.144l5.912-4.486
					l5.912,4.486l1.002,1.144l0.121-0.096l0.099,0.096l0.622-0.583l0.381-0.358l3.794-2.916l-1.148-1.312l-2.288,0.847l-5.198-3.816
					v-5.54c3.267,0.18,6.522,0.627,9.735,1.338c0.001,0.006,0.003,0.012,0.004,0.018c0.014-0.003,0.028-0.005,0.042-0.009
					c0.014,0.004,0.028,0.006,0.042,0.009c0.001-0.006,0.003-0.012,0.004-0.018c3.213-0.711,6.469-1.158,9.735-1.338v5.54
					l-5.198,3.816l-2.288-0.847l-1.148,1.312l3.793,2.916l0.382,0.358l0.622,0.583l0.099-0.096l0.12,0.096l1.002-1.144l5.912-4.486
					l5.912,4.486l1,1.144l0.121-0.096l0.1,0.096l0.621-0.583l0.381-0.358l3.796-2.916l-1.15-1.312l-2.286,0.847L139.3,233.7v-5.54
					c3.269,0.18,6.525,0.628,9.736,1.339c0.001,0.005,0.003,0.011,0.004,0.017c0.014-0.003,0.027-0.005,0.041-0.008
					c0.013,0.003,0.026,0.005,0.04,0.008c0.001-0.006,0.003-0.012,0.004-0.017c3.214-0.711,6.468-1.159,9.736-1.339v5.54
					l-5.199,3.816l-2.285-0.847l-1.15,1.312l3.795,2.916l0.381,0.358l0.621,0.583l0.101-0.096l0.12,0.096l1-1.144l5.912-4.486
					l5.912,4.486l1.002,1.144l0.121-0.096l0.098,0.096l0.623-0.583l0.381-0.358l3.793-2.916l-1.148-1.312l-2.287,0.847l-5.197-3.816
					v-5.54c3.266,0.18,6.523,0.628,9.736,1.339c0.001,0.005,0.003,0.011,0.004,0.017c0.014-0.003,0.027-0.005,0.04-0.008
					c0.014,0.003,0.027,0.005,0.041,0.008c0.001-0.006,0.003-0.012,0.004-0.017c3.212-0.711,6.468-1.159,9.736-1.339v5.54
					l-5.199,3.816l-2.285-0.847l-1.15,1.312l3.793,2.916l0.381,0.358l0.623,0.583l0.1-0.096l0.121,0.096l1-1.144l5.912-4.486
					l5.912,4.486l1,1.144l0.12-0.096l0.101,0.096l0.621-0.583l0.381-0.358l3.795-2.916l-1.15-1.312l-2.285,0.847l-5.199-3.816v-5.54
					c3.267,0.18,6.524,0.628,9.736,1.338c0.001,0.006,0.003,0.012,0.004,0.018c0.014-0.003,0.027-0.005,0.041-0.009
					c0.015,0.004,0.028,0.006,0.042,0.009c0.001-0.006,0.003-0.012,0.004-0.018c3.213-0.711,6.467-1.158,9.736-1.338v5.54
					l-5.201,3.816l-2.286-0.847l-1.148,1.312l3.794,2.916l0.381,0.358l0.621,0.583l0.1-0.096l0.121,0.096l1.002-1.144l5.91-4.486
					l5.912,4.486l1.002,1.144l0.12-0.096l0.099,0.096l0.622-0.583l0.382-0.358l3.793-2.916l-1.148-1.312l-2.286,0.847l-5.198-3.816
					v-5.54c3.267,0.18,6.525,0.628,9.735,1.338c0.001,0.006,0.003,0.012,0.004,0.018c0.014-0.003,0.027-0.005,0.041-0.008
					c0.014,0.003,0.027,0.005,0.041,0.008c0.001-0.006,0.003-0.012,0.004-0.018c3.212-0.71,6.468-1.158,9.735-1.338v5.54
					l-5.198,3.816l-2.286-0.847l-1.15,1.312l3.796,2.916l0.379,0.358l0.622,0.583l0.101-0.096l0.121,0.096l1-1.144l5.912-4.486
					l5.912,4.486l1,1.144l0.12-0.096l0.101,0.096l0.62-0.583l0.382-0.358l3.795-2.916l-1.15-1.312l-2.286,0.847l-5.198-3.816v-5.54
					C247.184,228.341,250.47,228.793,253.711,229.515z"/>
			</g>
		</g>
	</g>
</g>
<path fill="#8CA3AA" d="M115.324,97.739c0,0-16.541,0-33.834,0S61.942,80.148,61.942,80.148h51.58"/>
<path fill="#768184" d="M61.063,78.097c0,0,1.01,4.382,1.715,5.41l52.876-0.038L99.57,78.378L61.063,78.097z"/>
<path fill="#A2BCC5" d="M96.636,80.52c0,0-16.541,0-33.834,0S43.255,62.929,43.255,62.929h51.58"/>
<path fill="#8CA3AA" d="M43.294,63.394c0,0,1.01,4.383,1.715,5.41L81.8,68.766v-5.09L43.294,63.394z"/>
<path fill="#D9D4DB" d="M82.044,66.295c0,0-16.541,0-33.835,0c-17.293,0-19.548-17.591-19.548-17.591h51.58"/>
<path fill="#A2BCC5" d="M28.371,46.848c0,0,0.529,4.465,1.234,5.493l36.738-0.063v-5.091L28.371,46.848z"/>
<path fill="#F2EEEC" d="M116.082,84.31c-36.609,0-35.61-18.543-35.61-18.543c-15.511,0-17.492-17.051-17.492-17.051
	s-14.521,0-29.702,0c-15.182,0-17.161-18.438-17.161-18.438h66.665c0,0-3.302,34.523,33.663,34.523"/>
<g>
	<path fill="#8CA3AA" d="M121.777,97.116c0,0,16.541,0,33.834,0s19.548-17.591,19.548-17.591h-51.58"/>
	<path fill="#768184" d="M176.039,77.473c0,0-1.01,4.382-1.715,5.41l-52.876-0.038l16.083-5.091L176.039,77.473z"/>
	<path fill="#A2BCC5" d="M140.466,79.896c0,0,16.541,0,33.834,0s19.548-17.591,19.548-17.591h-51.58"/>
	<path fill="#8CA3AA" d="M193.808,62.77c0,0-1.01,4.383-1.715,5.41l-36.792-0.038v-5.09L193.808,62.77z"/>
	<path fill="#D9D4DB" d="M155.058,65.671c0,0,16.541,0,33.834,0S208.44,48.08,208.44,48.08h-51.58"/>
	<path fill="#A2BCC5" d="M208.73,46.224c0,0-0.529,4.465-1.234,5.493l-36.738-0.063v-5.091L208.73,46.224z"/>
	<path fill="#F2EEEC" d="M121.019,84.31c36.609,0,35.61-18.543,35.61-18.543c15.511,0,17.492-17.051,17.492-17.051
		s14.521,0,29.702,0c15.182,0,17.161-18.438,17.161-18.438h-66.665c0,0,3.302,34.523-33.663,34.523"/>
</g>
<polygon fill="#B22D1B" points="115.008,84.591 118.875,83.3 123.221,84.361 123.325,82.206 118.794,81.029 114.881,82.119 "/>
<g>
	<polygon fill="#DD3E1F" points="124.11,56.784 119.119,214.007 114.129,56.784 	"/>
	<g>
		<path fill="#FF5539" d="M128.889,39.301c5.405,5.406,5.407,14.174,0,19.584c-5.409,5.402-14.174,5.402-19.581-0.004
			c-5.407-5.405-5.407-14.173,0-19.58C114.715,33.891,123.48,33.895,128.889,39.301z"/>
		<path fill="#B22D1B" d="M114.423,64.832c3.462,0.516,6.192,0.327,9.421,0.013l0.196-4.242l-9.849,0.059L114.423,64.832z"/>
		<path fill="#DD3E1F" d="M128.93,58.925c5.406-5.406,5.406-14.176,0-19.583l-19.579,19.583
			C114.757,64.331,123.523,64.331,128.93,58.925z"/>
	</g>
</g>
<polygon fill="#B22D1B" points="115.867,110.436 119.103,109.545 122.411,110.479 122.521,108.004 118.794,107.092 115.722,107.874 
	"/>
<polygon fill="#B22D1B" points="116.652,136.05 118.891,135.183 121.588,136.13 121.693,133.925 118.794,133.213 116.515,133.878 
	"/>
<polygon fill="#B22D1B" points="117.456,161.577 118.891,160.971 120.772,161.673 120.85,159.442 118.794,159 117.348,159.648 "/>
<path fill="#F8A01C" d="M87.274,73.706c0,3.454,4.058,5.298,9.752,5.298c3.168,0,6.238-0.873,8.234-0.749
	c0.669,0.042,2.47,0.294,3.749,0.657c2.021,0.571,4.299,1.094,6.792,1.636c2.487,0.55,5.228,1.107,8.012,1.874
	c1.377,0.383,2.793,0.835,3.955,1.385c0.268,0.128,0.533,0.273,0.753,0.405c-0.444,0.288-1.036,0.606-1.733,0.879
	c-1.49,0.621-3.272,1.139-5.125,1.628c-3.733,0.994-7.822,1.796-12.207,3.075c-1.097,0.317-2.224,0.695-3.382,1.148
	c-1.156,0.464-2.363,1.004-3.667,1.983c-0.313,0.211-0.67,0.587-0.986,0.891c-0.161,0.154-0.33,0.403-0.486,0.609
	c-0.155,0.235-0.315,0.4-0.444,0.705c-0.27,0.558-0.497,1.13-0.554,1.808l-0.048,0.491c-0.015,0.012,0.044,0.896,0.028,0.567
	l0.016,0.107l0.063,0.427c0.072,0.321,0.213,0.756,0.368,1.115c0.079,0.182,0.171,0.376,0.259,0.532l0.233,0.333
	c0.158,0.221,0.324,0.437,0.495,0.645l0.505,0.483c0.688,0.632,1.351,1.026,1.997,1.384c2.573,1.335,4.971,1.932,7.41,2.568
	c2.424,0.601,4.854,1.107,7.271,1.642c2.413,0.532,4.834,1.084,7.102,1.804c1.114,0.364,2.209,0.788,3.038,1.267
	c0.239,0.114,0.354,0.241,0.543,0.35c0.095,0.058,0.115,0.109,0.181,0.159c0.045,0.046,0.145,0.102,0.138,0.129
	c0.001,0.002,0.002,0.002,0.003,0.004c-0.021,0.024-0.049,0.049-0.084,0.077l-0.167,0.167l-0.258,0.186
	c-0.146,0.131-0.4,0.252-0.606,0.382c-0.91,0.507-2.064,0.947-3.248,1.338c-2.389,0.786-4.986,1.4-7.621,2.029
	c-2.641,0.636-5.345,1.244-8.106,2.071c-1.382,0.419-2.777,0.877-4.212,1.534c-0.721,0.345-1.445,0.702-2.196,1.256
	c-0.723,0.509-1.56,1.248-2.114,2.455c-0.127,0.311-0.269,0.606-0.308,0.965c-0.029,0.174-0.053,0.349-0.071,0.522l-0.023,0.262
	c-0.017,0.039,0.04,0.714,0.027,0.483l0.077,0.52c0.101,0.39,0.249,0.802,0.429,1.178c0.097,0.215,0.178,0.313,0.262,0.435
	l0.263,0.356c0.18,0.252,0.364,0.438,0.553,0.606c0.38,0.382,0.758,0.649,1.135,0.904c1.51,0.986,2.951,1.495,4.384,1.979
	c2.86,0.916,5.68,1.526,8.482,2.144c2.797,0.616,5.589,1.191,8.255,1.944c1.324,0.376,2.632,0.8,3.774,1.326
	c0.588,0.256,1.071,0.563,1.487,0.855c0.367,0.302,0.545,0.575,0.567,0.663c-0.004,0.014-0.004,0.025,0.002,0.037l0.01,0.016
	l-0.043,0.333c-0.035,0.025-0.043-0.049-0.024-0.072c-0.008,0.008-0.016,0.018-0.025,0.029l-0.067,0.092
	c-0.198,0.262-0.606,0.612-1.127,0.904c-1.025,0.604-2.314,1.098-3.621,1.526c-2.64,0.859-5.454,1.509-8.271,2.184
	c-2.827,0.679-5.682,1.328-8.553,2.26c-1.435,0.478-2.878,1-4.326,1.843c-0.718,0.421-1.464,0.947-2.12,1.782
	c-0.334,0.397-0.6,0.949-0.776,1.526c-0.056,0.304-0.098,0.614-0.122,0.922c0.021,0.524,0.017,0.223,0.026,0.374l0.021,0.135
	l0.04,0.268c-0.002,0.057,0.057,0.252,0.115,0.421c0.059,0.17,0.125,0.339,0.198,0.505c0.151,0.372,0.308,0.53,0.468,0.759
	c0.316,0.464,0.683,0.728,1.037,1.053c0.718,0.534,1.447,0.963,2.167,1.281c1.443,0.665,2.874,1.115,4.3,1.526
	c2.851,0.804,5.676,1.381,8.463,1.994c2.782,0.612,5.543,1.217,8.14,2.051c1.285,0.421,2.558,0.912,3.54,1.563
	c0.511,0.313,0.861,0.692,1.06,1.008c0.026,0.08,0.069,0.154,0.108,0.229c-0.001,0.078,0.009,0.148,0.032,0.223
	c0,0.014,0.001,0.008,0.001,0.014l-0.004,0.031l-0.034,0.262c-0.012,0.244-0.08,0.156-0.089,0.215
	c-0.01,0.016-0.009,0.031-0.015,0.057l-0.1,0.129c-0.076,0.084-0.096,0.18-0.207,0.266c-0.184,0.176-0.362,0.36-0.615,0.524
	c-0.456,0.343-1.029,0.638-1.605,0.912c-1.175,0.542-2.456,0.971-3.747,1.361c-2.592,0.778-5.26,1.385-7.909,2.019
	c-2.65,0.636-5.299,1.256-7.905,2.107c-1.303,0.434-2.598,0.908-3.857,1.602c-0.312,0.189-0.629,0.347-0.932,0.583l-0.454,0.333
	l-0.434,0.407c-0.293,0.25-0.538,0.64-0.767,0.994c-0.095,0.209-0.184,0.419-0.265,0.632c-0.075,0.215-0.087,0.458-0.121,0.687
	l-0.019,0.176c-0.017-0.057,0,0.275,0.008,0.281l0.036,0.242c0.027,0.164,0.025,0.296,0.139,0.575
	c0.092,0.238,0.194,0.503,0.313,0.698l0.376,0.505c0.536,0.612,1.145,1.053,1.757,1.404c1.228,0.708,2.483,1.17,3.73,1.583
	c2.5,0.796,4.984,1.355,7.426,1.895c2.442,0.538,4.846,1.041,7.179,1.618c2.318,0.593,4.627,1.217,6.594,2.248
	c0.962,0.511,1.843,1.201,2.096,2c0.01,0.104,0.024,0.203,0.043,0.304l0.014,0.076c0.002,0.01,0.004,0.008,0.005,0.002
	c0,0.002,0,0,0,0.004l-0.027,0.215c-0.026,0.123-0.019,0.327-0.073,0.384c-0.045,0.076-0.081,0.152-0.111,0.236
	c-0.092,0.168-0.245,0.372-0.394,0.548c-0.191,0.164-0.332,0.358-0.557,0.501c-1.679,1.24-3.85,1.915-5.887,2.545
	c-4.143,1.213-8.25,2.025-12.101,3.048c-1.926,0.509-3.803,1.045-5.57,1.774c-0.887,0.353-1.74,0.786-2.527,1.32
	c-0.767,0.53-1.545,1.244-1.77,2.26c-0.016,0.262-0.11,0.479-0.048,0.77c0.046,0.223,0.027,0.419,0.154,0.673
	c0.182,0.507,0.478,0.869,0.798,1.195c0.647,0.655,1.421,1.066,2.172,1.442c1.523,0.722,3.06,1.195,4.539,1.612
	c2.965,0.817,7.631,1.638,10.111,2.187h0.031c-2.469-0.597-7.089-1.763-10.014-2.628c-1.457-0.44-2.97-0.939-4.424-1.663
	c-1.384-0.712-3.035-1.788-2.691-3.443c0.169-0.747,0.815-1.361,1.535-1.833c0.731-0.476,1.547-0.873,2.412-1.199
	c1.723-0.675,3.585-1.17,5.502-1.638c3.842-0.943,7.951-1.673,12.192-2.829c1.06-0.285,2.126-0.624,3.192-1.019
	c1.063-0.399,2.133-0.879,3.133-1.606c0.5-0.37,0.967-0.821,1.326-1.454c0.083-0.18,0.16-0.366,0.229-0.552
	c0.082-0.201,0.059-0.3,0.094-0.456l0.031-0.213c0.001,0.045,0.02-0.176,0.01-0.207l-0.016-0.139l-0.076-0.552
	c-0.225-0.692-0.626-1.322-1.126-1.737c-0.479-0.46-1.014-0.8-1.555-1.107c-2.182-1.189-4.519-1.849-6.875-2.502
	c-2.361-0.634-4.768-1.182-7.187-1.765c-2.418-0.583-4.864-1.186-7.231-1.987c-1.173-0.413-2.339-0.877-3.346-1.485
	c-0.505-0.3-0.946-0.655-1.261-1.027l-0.206-0.281c-0.047-0.084-0.046-0.133-0.093-0.191c-0.052-0.012-0.069-0.211-0.089-0.37
	l-0.022-0.178c0.001-0.006,0.002-0.006,0.002-0.027l0.015-0.07c0.014-0.728,0.973-1.503,2.02-2.057
	c1.071-0.565,2.293-0.996,3.532-1.383c2.492-0.765,5.118-1.33,7.771-1.915c2.655-0.585,5.355-1.143,8.077-1.903
	c1.359-0.384,2.726-0.808,4.094-1.406c0.683-0.311,1.367-0.638,2.04-1.119c0.676-0.472,1.338-1.008,1.847-2.086
	c0.112-0.27,0.25-0.659,0.245-0.774l0.038-0.26l0.02-0.131c0.008,0.004,0.031-0.429,0.011-0.347
	c-0.025-0.273-0.064-0.55-0.113-0.819c-0.084-0.254-0.191-0.499-0.3-0.743c-0.499-0.896-1.193-1.518-1.864-1.968
	c-1.361-0.926-2.756-1.458-4.144-1.952c-2.782-0.949-5.581-1.612-8.367-2.281c-2.782-0.667-5.571-1.297-8.249-2.107
	c-1.331-0.407-2.647-0.859-3.815-1.427c-0.598-0.273-1.103-0.606-1.543-0.936c-0.162-0.172-0.398-0.339-0.468-0.493
	c-0.046-0.066-0.146-0.178-0.105-0.156l-0.017,0.008c-0.012,0.004-0.04,0.037-0.047-0.092l-0.035-0.269l-0.007-0.055
	c0.017-0.041,0.028-0.082,0.022-0.127c0.062-0.104,0.086-0.225,0.231-0.376c0.242-0.3,0.686-0.651,1.225-0.941
	c1.066-0.599,2.371-1.066,3.693-1.472c2.665-0.811,5.489-1.406,8.319-2.027c2.841-0.626,5.705-1.223,8.603-2.101
	c1.45-0.454,2.907-0.951,4.4-1.786c0.738-0.413,1.517-0.943,2.223-1.809l0.256-0.345c0.082-0.113,0.164-0.221,0.252-0.421
	c0.165-0.343,0.318-0.772,0.393-1.084l0.08-0.536c0.009,0.029,0.032-0.636,0.011-0.477l-0.026-0.25
	c-0.02-0.168-0.044-0.335-0.073-0.501c-0.319-1.332-1.146-2.195-1.87-2.817c-0.741-0.569-1.491-1.025-2.222-1.365
	c-1.467-0.708-2.906-1.189-4.339-1.63c-2.86-0.863-5.681-1.495-8.455-2.162c-2.766-0.661-5.505-1.32-8.028-2.183
	c-1.24-0.431-2.468-0.943-3.303-1.53c-0.204-0.145-0.397-0.286-0.508-0.415c-0.078-0.064-0.14-0.127-0.152-0.174
	c-0.015-0.023-0.031-0.045-0.051-0.066c-0.009-0.01-0.022-0.023-0.027-0.029l-0.009-0.072c0.006,0.002,0.007,0.004,0.002,0.002
	c-0.032,0.002,0.02-0.012,0.019-0.025c0.03-0.064,0.231-0.347,0.659-0.612c0.376-0.275,0.91-0.536,1.449-0.78
	c1.105-0.483,2.358-0.879,3.627-1.236c2.551-0.712,5.216-1.266,7.878-1.851c2.669-0.589,5.344-1.16,8.056-1.991
	c1.358-0.427,2.722-0.891,4.144-1.641c0.36-0.211,0.708-0.374,1.082-0.653l0.547-0.39c0.188-0.156,0.375-0.335,0.559-0.505
	c0.183-0.164,0.364-0.349,0.543-0.601c0.183-0.25,0.338-0.427,0.519-0.753c0.189-0.376,0.348-0.784,0.461-1.188
	c0.074-0.258,0.057-0.257,0.076-0.356l0.036-0.243l0.018-0.122c-0.016,0.273,0.045-0.494,0.029-0.524
	c-0.013-0.175-0.03-0.35-0.053-0.523c-0.049-0.349-0.099-0.705-0.235-1.002c-0.122-0.304-0.256-0.628-0.409-0.895
	c-0.162-0.241-0.331-0.478-0.509-0.709c-0.18-0.254-0.353-0.388-0.536-0.573c-0.179-0.164-0.37-0.364-0.547-0.489
	c-0.351-0.25-0.728-0.556-1.068-0.736c-1.403-0.839-2.73-1.343-4.035-1.805c-2.599-0.877-5.107-1.489-7.555-2.08
	c-2.444-0.587-4.825-1.132-7.095-1.74c-2.235-0.609-4.482-1.296-6.061-2.177c-0.309-0.173-0.585-0.356-0.765-0.511
	c0.027-0.022,0.06-0.046,0.103-0.07c0.517-0.375,1.363-0.798,2.278-1.128c0.918-0.338,1.884-0.648,2.885-0.916
	c3.999-1.091,8.127-1.829,12.085-2.798c1.991-0.49,3.948-1.001,5.949-1.783c0.993-0.378,2.018-0.855,3.086-1.556
	c0.274-0.201,0.529-0.353,0.81-0.603c0.281-0.26,0.552-0.493,0.821-0.794c0.284-0.366,0.524-0.647,0.794-1.121
	c0.149-0.294,0.28-0.606,0.388-0.923c0.099-0.278,0.218-0.748,0.205-0.762l0.049-0.327l0.024-0.164
	c0.066-0.893,0.012-0.36,0.022-0.612l-0.016-0.199c-0.059-0.523-0.119-1.084-0.323-1.526c-0.182-0.459-0.397-0.947-0.647-1.26
	c-0.242-0.337-0.517-0.726-0.767-0.941c-1.059-1.074-2.019-1.565-2.932-2.053c-1.814-0.894-3.448-1.416-5.007-1.89
	c-3.107-0.916-5.874-1.526-8.336-2.121c-2.46-0.582-4.596-1.119-6.364-1.655c-1.763-0.528-3.162-1.077-3.988-1.551
	c-0.199-0.112-0.369-0.22-0.504-0.312c-3.418-1.778-6.825-2.039-9.219-1.987C91.521,68.646,87.274,70.251,87.274,73.706z
	 M104.991,124.356c-0.005-0.006-0.004-0.004,0.016,0.018c0.042,0.053,0.05,0.143,0.014,0.209L104.991,124.356z M129.602,111.013
	C129.603,111.013,129.602,111.012,129.602,111.013c0.003,0.001,0.004,0.004,0.007,0.006
	C129.613,111.032,129.587,111.021,129.602,111.013z M129.546,111.124c-0.009-0.055-0.004-0.109,0.011-0.161
	c0.007,0.009,0.016,0.017,0.023,0.024l-0.002,0.018C129.568,111.065,129.555,111.237,129.546,111.124z M105.649,97.723
	c-0.001,0.004,0.001,0.016-0.001,0.02l-0.002-0.018C105.647,97.725,105.648,97.724,105.649,97.723z M129.063,83.784
	c0.013-0.033-0.011-0.011,0.012-0.011C129.073,83.776,129.066,83.781,129.063,83.784z"/>
<path fill="#BF6E2C" d="M118.688,133.362l7.635-2.197c0,0,2.262,0.702,2.916,1.107c-4.7,1.08-7.012,1.901-7.012,1.901
	L118.688,133.362z"/>
<path fill="#BF6E2C" d="M117.828,159.235l5.783-1.556c0,0,2.152,0.53,2.807,0.936c-4.7,1.08-5.05,1.431-5.05,1.431L117.828,159.235z
	"/>
<path fill="#19DAF9" d="M110.277,131.57c1.874,0.493,3.506,0.898,5.359,1.309c0.921,0.203,2.067,0.386,2.983,0.589
	c0.916-0.203,2.143-0.481,3.064-0.685c1.852-0.409,3.715-0.823,5.589-1.316c-0.272-0.487-0.787-0.624-1.359-0.8
	c-2.232-0.675-4.365-1.491-6.985-1.489c-2.181,0.519-4.39,1.051-6.622,1.726C111.735,131.078,110.853,131.368,110.277,131.57z"/>
<path fill="#BF6E2C" d="M117.95,81.033l12.819-2.964c0,0,1.645,0.957,1.925,1.238c-4.7,1.08-10.355,2.712-10.355,2.712
	L117.95,81.033z"/>
<path fill="#BF6E2C" d="M118.496,107.228l10.23-2.658c0,0,1.606,0.702,2.262,1.107c-4.7,1.082-8.952,2.361-8.952,2.361
	L118.496,107.228z"/>
<path fill="#19DAF9" d="M112.709,158.189c1.722,0.405,3.27,0.767,4.966,1.141c0.301,0.066,0.646,0.127,0.947,0.193
	c0.301-0.066,0.906-0.188,1.208-0.254c1.696-0.374,3.704-0.78,5.426-1.186c-2.009-0.595-4.047-1.098-6.054-1.579
	C117.192,156.986,114.718,157.594,112.709,158.189z"/>
<path fill="#19DAF9" d="M140.568,68.522c-2.394-0.053-5.801,0.209-9.219,1.987c-0.135,0.094-0.305,0.201-0.504,0.312
	c-0.826,0.474-2.226,1.022-3.988,1.551c-1.768,0.536-3.904,1.073-6.364,1.655c-0.51,0.123-1.04,0.249-1.576,0.375
	c-0.012-0.002-0.023-0.005-0.035-0.007c-2.055,0.489-4.297,1.026-6.759,1.758c-1.527,0.467-3.131,0.985-4.898,1.851
	c-0.025,0.013-0.049,0.021-0.074,0.034c-0.001,0.001-0.002,0.001-0.003,0.002c-0.018,0.009-0.034,0.015-0.052,0.023
	c-0.22,0.118-0.442,0.237-0.669,0.363c0.002,0,0.004,0.001,0.005,0.001c-0.698,0.392-1.429,0.866-2.214,1.663
	c-0.25,0.217-0.524,0.604-0.767,0.941c-0.25,0.311-0.466,0.801-0.647,1.26c-0.205,0.442-0.264,1.003-0.323,1.526l-0.016,0.199
	c0.011,0.252-0.044-0.281,0.022,0.612l0.024,0.164l0.049,0.327c-0.013,0.014,0.106,0.483,0.205,0.762
	c0.107,0.316,0.239,0.629,0.388,0.923c0.27,0.474,0.51,0.755,0.794,1.121c0.27,0.3,0.54,0.534,0.821,0.794
	c0.281,0.25,0.536,0.401,0.81,0.603c1.067,0.7,2.093,1.178,3.086,1.556c2,0.782,3.957,1.293,5.949,1.783
	c3.958,0.969,8.087,1.707,12.085,2.798c1.001,0.269,1.967,0.578,2.885,0.916c0.914,0.33,1.762,0.753,2.278,1.128
	c0.043,0.024,0.075,0.048,0.102,0.07c-0.18,0.154-0.455,0.338-0.765,0.511c-1.579,0.881-3.827,1.567-6.061,2.177
	c-2.271,0.608-4.651,1.153-7.095,1.74c-2.447,0.591-4.957,1.203-7.555,2.08c-1.305,0.462-2.632,0.966-4.035,1.805
	c-0.341,0.181-0.718,0.486-1.068,0.736c-0.177,0.125-0.368,0.325-0.547,0.489c-0.183,0.186-0.356,0.319-0.536,0.573
	c-0.178,0.23-0.347,0.468-0.509,0.709c-0.154,0.269-0.287,0.592-0.409,0.895c-0.137,0.297-0.187,0.653-0.235,1.002
	c-0.022,0.174-0.04,0.349-0.053,0.523c-0.016,0.03,0.045,0.797,0.029,0.524l0.018,0.122l0.036,0.243
	c0.02,0.101,0.002,0.1,0.076,0.356c0.113,0.404,0.271,0.812,0.461,1.188c0.181,0.325,0.336,0.503,0.519,0.753
	c0.179,0.252,0.36,0.437,0.543,0.601c0.184,0.17,0.371,0.349,0.559,0.505l0.547,0.39c0.374,0.279,0.722,0.442,1.082,0.653
	c1.423,0.75,2.786,1.214,4.144,1.641c2.712,0.831,5.388,1.402,8.056,1.991c2.662,0.585,5.328,1.139,7.879,1.851
	c1.269,0.356,2.521,0.753,3.627,1.236c0.539,0.244,1.073,0.505,1.449,0.78c0.428,0.266,0.629,0.548,0.659,0.612
	c-0.001,0.014,0.051,0.027,0.018,0.025c-0.005,0.002-0.004,0,0.002-0.002l-0.009,0.072l-0.029,0.227
	c-0.036-0.066-0.028-0.156,0.014-0.209c0.02-0.021,0.021-0.023,0.016-0.018c-0.006,0.006-0.019,0.02-0.027,0.029
	c-0.02,0.021-0.036,0.043-0.051,0.066c-0.013,0.047-0.074,0.109-0.152,0.174c-0.11,0.129-0.304,0.271-0.508,0.415
	c-0.834,0.587-2.062,1.1-3.303,1.53c-2.522,0.863-5.261,1.522-8.028,2.183c-2.773,0.667-5.594,1.299-8.455,2.162
	c-1.432,0.44-2.871,0.922-4.339,1.63c-0.731,0.339-1.48,0.796-2.222,1.365c-0.725,0.622-1.551,1.485-1.87,2.817
	c-0.029,0.166-0.054,0.333-0.073,0.501l-0.026,0.25c-0.021-0.158,0.002,0.507,0.011,0.477l0.08,0.536
	c0.074,0.311,0.229,0.741,0.393,1.084c0.088,0.201,0.17,0.308,0.252,0.421l0.256,0.345c0.706,0.865,1.485,1.396,2.224,1.809
	c1.492,0.835,2.949,1.332,4.4,1.786c2.897,0.879,5.762,1.476,8.603,2.101c2.83,0.622,5.654,1.217,8.319,2.027
	c1.321,0.405,2.627,0.873,3.693,1.472c0.539,0.29,0.982,0.642,1.225,0.941c0.146,0.152,0.169,0.273,0.231,0.376
	c-0.006,0.045,0.006,0.086,0.022,0.127l-0.007,0.055l-0.035,0.269c-0.007,0.129-0.035,0.096-0.047,0.092l-0.017-0.008
	c0.04-0.021-0.06,0.09-0.105,0.156c-0.07,0.154-0.306,0.321-0.468,0.493c-0.439,0.329-0.945,0.663-1.543,0.936
	c-1.168,0.567-2.483,1.019-3.815,1.427c-2.678,0.811-5.467,1.44-8.249,2.107c-2.786,0.669-5.585,1.332-8.367,2.281
	c-1.389,0.493-2.783,1.025-4.144,1.952c-0.672,0.448-1.365,1.07-1.864,1.968c-0.109,0.244-0.217,0.489-0.3,0.743
	c-0.05,0.27-0.088,0.546-0.113,0.819c-0.02-0.082,0.003,0.351,0.011,0.347l0.02,0.131l0.038,0.26
	c-0.005,0.115,0.133,0.505,0.245,0.774c0.509,1.078,1.172,1.614,1.846,2.086c0.673,0.481,1.357,0.808,2.04,1.119
	c1.367,0.599,2.734,1.021,4.094,1.406c2.722,0.761,5.422,1.318,8.077,1.903c2.653,0.585,5.279,1.15,7.771,1.915
	c1.24,0.386,2.461,0.817,3.532,1.383c1.048,0.554,2.007,1.33,2.02,2.057l0.015,0.07c0,0.021,0.001,0.021,0.002,0.027l-0.023,0.178
	c-0.02,0.16-0.037,0.358-0.089,0.37c-0.047,0.059-0.046,0.107-0.093,0.191l-0.206,0.281c-0.313,0.372-0.756,0.728-1.261,1.027
	c-1.007,0.608-2.173,1.072-3.346,1.485c-2.367,0.802-4.813,1.404-7.231,1.987c-2.419,0.583-4.826,1.131-7.187,1.765
	c-2.354,0.653-4.693,1.312-6.875,2.502c-0.541,0.308-1.076,0.647-1.555,1.107c-0.5,0.415-0.9,1.045-1.126,1.737l-0.076,0.552
	L105,191.064c-0.01,0.031,0.009,0.252,0.01,0.207l0.031,0.213c0.035,0.156,0.012,0.256,0.094,0.456
	c0.069,0.186,0.146,0.372,0.229,0.552c0.359,0.634,0.826,1.084,1.326,1.454c1,0.728,2.069,1.207,3.133,1.606
	c1.066,0.395,2.132,0.735,3.192,1.019c4.241,1.156,8.35,1.886,12.192,2.829c1.917,0.468,3.78,0.963,5.502,1.638
	c0.865,0.325,1.683,0.724,2.412,1.199c0.72,0.472,1.366,1.086,1.535,1.833c0.344,1.655-1.307,2.731-2.691,3.443
	c-1.453,0.724-2.966,1.223-4.424,1.663c-2.925,0.865-7.546,2.031-10.014,2.628h0.031c2.479-0.55,7.145-1.371,10.111-2.187
	c1.478-0.417,3.015-0.891,4.539-1.612c0.751-0.376,1.524-0.788,2.172-1.442c0.319-0.325,0.617-0.688,0.798-1.195
	c0.127-0.254,0.108-0.45,0.154-0.673c0.062-0.29-0.032-0.509-0.048-0.77c-0.226-1.016-1.004-1.729-1.771-2.26
	c-0.787-0.534-1.64-0.967-2.527-1.32c-1.768-0.729-3.644-1.266-5.57-1.774c-3.851-1.021-7.958-1.835-12.101-3.048
	c-2.037-0.63-4.209-1.305-5.887-2.545c-0.225-0.143-0.366-0.337-0.557-0.501c-0.149-0.176-0.302-0.38-0.394-0.548
	c-0.03-0.084-0.066-0.16-0.111-0.236c-0.055-0.057-0.047-0.262-0.073-0.384l-0.027-0.215c0-0.004,0-0.002,0-0.004
	c0.001,0.006,0.003,0.008,0.005-0.002l0.014-0.076c0.019-0.102,0.033-0.201,0.043-0.304c0.253-0.8,1.134-1.489,2.096-2
	c1.968-1.031,4.277-1.655,6.594-2.248c2.334-0.577,4.737-1.08,7.179-1.618c2.441-0.54,4.927-1.1,7.426-1.895
	c1.247-0.413,2.502-0.875,3.73-1.583c0.611-0.351,1.221-0.792,1.757-1.404l0.376-0.505c0.12-0.195,0.223-0.46,0.313-0.698
	c0.113-0.279,0.111-0.411,0.139-0.575l0.036-0.242c0.008-0.006,0.024-0.337,0.008-0.281l-0.019-0.176
	c-0.034-0.229-0.046-0.472-0.121-0.687c-0.082-0.213-0.171-0.423-0.266-0.632c-0.229-0.354-0.473-0.745-0.767-0.994l-0.434-0.407
	l-0.454-0.333c-0.303-0.236-0.619-0.394-0.932-0.583c-1.26-0.694-2.555-1.168-3.857-1.602c-2.606-0.853-5.255-1.472-7.905-2.107
	c-2.648-0.636-5.317-1.242-7.909-2.019c-1.291-0.39-2.572-0.819-3.747-1.361c-0.576-0.275-1.149-0.569-1.605-0.912
	c-0.253-0.164-0.432-0.349-0.615-0.524c-0.111-0.086-0.131-0.182-0.207-0.266l-0.1-0.129c-0.006-0.025-0.005-0.041-0.015-0.057
	c-0.009-0.059-0.077,0.029-0.089-0.215l-0.034-0.262l-0.004-0.031c0-0.006,0.001,0,0.001-0.014c0.023-0.074,0.033-0.145,0.032-0.223
	c0.039-0.074,0.082-0.148,0.108-0.229c0.199-0.315,0.55-0.694,1.06-1.008c0.981-0.651,2.256-1.143,3.54-1.563
	c2.597-0.835,5.359-1.438,8.14-2.051c2.787-0.614,5.612-1.191,8.463-1.995c1.425-0.411,2.856-0.861,4.3-1.526
	c0.72-0.317,1.449-0.747,2.167-1.281c0.354-0.325,0.721-0.589,1.037-1.053c0.16-0.228,0.316-0.386,0.468-0.759
	c0.073-0.166,0.14-0.335,0.198-0.505c0.059-0.17,0.117-0.364,0.115-0.421l0.04-0.268l0.02-0.135c0.01-0.152,0.006,0.15,0.026-0.374
	c-0.024-0.308-0.066-0.618-0.122-0.922c-0.177-0.577-0.441-1.129-0.776-1.526c-0.656-0.835-1.402-1.361-2.12-1.782
	c-1.448-0.843-2.89-1.365-4.326-1.843c-2.87-0.932-5.726-1.581-8.553-2.26c-2.818-0.675-5.632-1.324-8.271-2.184
	c-1.307-0.429-2.596-0.922-3.621-1.526c-0.52-0.292-0.929-0.644-1.127-0.904l-0.067-0.092c-0.01-0.012-0.018-0.021-0.025-0.029
	c0.019,0.023,0.011,0.098-0.024,0.072l-0.043-0.333l0.01-0.016c0.006-0.012,0.006-0.023,0.002-0.037
	c0.022-0.088,0.2-0.36,0.567-0.663c0.416-0.292,0.899-0.601,1.487-0.855c1.143-0.526,2.449-0.949,3.774-1.326
	c2.667-0.753,5.46-1.328,8.255-1.944c2.803-0.618,5.622-1.228,8.482-2.144c1.433-0.483,2.875-0.992,4.385-1.979
	c0.377-0.256,0.755-0.522,1.135-0.904c0.188-0.168,0.373-0.354,0.553-0.606l0.264-0.356c0.085-0.121,0.166-0.221,0.262-0.435
	c0.181-0.376,0.328-0.788,0.429-1.178l0.077-0.52c-0.013,0.23,0.044-0.444,0.027-0.483l-0.023-0.262
	c-0.018-0.174-0.042-0.349-0.071-0.522c-0.039-0.358-0.182-0.653-0.308-0.965c-0.554-1.207-1.392-1.946-2.114-2.455
	c-0.751-0.554-1.476-0.91-2.196-1.256c-1.435-0.657-2.83-1.115-4.212-1.534c-2.762-0.828-5.466-1.435-8.106-2.071
	c-2.635-0.63-5.232-1.244-7.621-2.029c-1.184-0.39-2.338-0.831-3.248-1.338c-0.206-0.131-0.46-0.252-0.606-0.382l-0.259-0.186
	l-0.167-0.167c-0.035-0.028-0.063-0.054-0.084-0.077c0.001-0.002,0.002-0.002,0.003-0.004c-0.007-0.027,0.093-0.083,0.138-0.129
	c0.065-0.05,0.086-0.102,0.181-0.159c0.188-0.11,0.304-0.237,0.543-0.35c0.829-0.478,1.924-0.901,3.038-1.267
	c2.27-0.72,4.689-1.271,7.102-1.804c2.417-0.534,4.847-1.041,7.271-1.642c2.437-0.638,4.837-1.234,7.41-2.568
	c0.647-0.356,1.309-0.752,1.997-1.384l0.505-0.483c0.171-0.209,0.337-0.425,0.495-0.645l0.233-0.333
	c0.088-0.156,0.18-0.351,0.259-0.532c0.156-0.359,0.296-0.794,0.368-1.115l0.063-0.427l0.016-0.107
	c-0.016,0.329,0.043-0.556,0.028-0.567l-0.048-0.491c-0.057-0.678-0.283-1.25-0.554-1.808c-0.129-0.304-0.289-0.47-0.444-0.705
	c-0.156-0.206-0.325-0.455-0.486-0.609c-0.316-0.304-0.673-0.681-0.986-0.891c-1.303-0.978-2.511-1.518-3.667-1.983
	c-1.158-0.453-2.285-0.831-3.382-1.148c-4.386-1.279-8.474-2.08-12.207-3.075c-1.853-0.489-3.635-1.007-5.125-1.628
	c-0.697-0.273-1.289-0.591-1.733-0.879c0.22-0.133,0.484-0.278,0.753-0.405c1.163-0.55,2.578-1.001,3.955-1.385
	c1.92-0.528,3.813-0.955,5.623-1.352c0.82-0.16,1.68-0.311,2.391-0.47c2.502-0.548,4.788-1.076,6.817-1.653
	c0.777-0.223,1.878-0.447,2.671-0.565c-0.002-0.002-0.009-0.005-0.011-0.007c0.445-0.063,0.825-0.105,1.061-0.12
	c1.996-0.125,5.066,0.749,8.234,0.749c5.694,0,9.752-1.844,9.752-5.298C150.508,70.251,146.262,68.646,140.568,68.522z
	 M108.173,111.019c0.003-0.002,0.004-0.005,0.007-0.007c0,0-0.001,0.001,0,0.001C108.195,111.021,108.169,111.032,108.173,111.019z
	 M108.204,111.005l-0.002-0.018c0.008-0.008,0.017-0.016,0.023-0.024c0.015,0.052,0.02,0.106,0.011,0.161
	C108.227,111.237,108.214,111.065,108.204,111.005z M132.137,97.725l-0.002,0.018c-0.002-0.004,0-0.016-0.001-0.02
	C132.135,97.724,132.136,97.725,132.137,97.725z M108.707,83.773c0.022,0-0.001-0.022,0.012,0.011
	C108.716,83.781,108.709,83.776,108.707,83.773z"/>
<path fill="#19DAF9" d="M119.047,211.493c-0.038-0.01-0.08-0.021-0.118-0.029c-0.038,0.008-0.08,0.02-0.118,0.029
	c0.039,0.008,0.08,0.016,0.118,0.023C118.967,211.509,119.008,211.501,119.047,211.493z"/>
<path fill="#19DAF9" d="M122.342,184.812c-0.884-0.538-2.054-0.819-3.414-0.855c-1.146,0.275-2.53,0.599-3.661,0.893
	c0.035,0.008,0.318-0.029,0.352-0.016c0.989,0.421,1.86,0.569,2.954,0.811c1.094-0.242,2.551-0.565,3.664-0.811
	C122.272,184.827,122.307,184.819,122.342,184.812z"/>
<path fill="#19DAF9" d="M120.134,101.824c-0.286-0.068-0.92,0.029-1.205-0.039c-0.284,0.068-0.561,0.135-0.847,0.203
	c-2.447,0.591-4.957,1.203-7.555,2.08c-0.653,0.231-1.466,0.54-2.137,0.829c0.921,0.271,1.544,0.711,2.464,0.951
	c2.424,0.601,5.021,0.934,7.439,1.466c0.119,0.027,0.1,0.053,0.219,0.078c0.119-0.025,0.655-0.148,0.774-0.174
	c2.417-0.534,4.847-1.041,7.271-1.642c0.92-0.241,2.013-0.519,2.933-0.79c-0.478-0.493-1.033-0.55-1.902-0.857
	C124.989,103.052,122.581,102.416,120.134,101.824z"/>
<polygon fill="#DD3E1F" points="115.013,84.815 123.24,84.815 122.814,97.266 115.426,97.332 "/>
<polygon fill="#DD3E1F" points="115.892,112.017 122.368,112.017 121.973,124.503 116.255,124.535 "/>
<polygon fill="#DD3E1F" points="116.784,140.64 121.457,140.661 121.248,146.875 117.012,146.89 "/>
<polygon fill="#DD3E1F" points="117.669,167.896 120.57,167.943 120.414,172.956 117.808,172.967 "/>
<polygon fill="#DD3E1F" points="118.527,195.208 119.712,195.223 119.588,198.78 118.636,198.788 "/>
</svg>
