<?xml version="1.0" encoding="utf-8"?>
<!-- Generator: Adobe Illustrator 17.0.0, SVG Export Plug-In . SVG Version: 6.00 Build 0)  -->
<!DOCTYPE svg PUBLIC "-//W3C//DTD SVG 1.1//EN" "http://www.w3.org/Graphics/SVG/1.1/DTD/svg11.dtd">
<svg version="1.1" id="landing_x2F_icons" xmlns="http://www.w3.org/2000/svg" xmlns:xlink="http://www.w3.org/1999/xlink" x="0px"
	 y="0px" width="186.015px" height="106.026px" viewBox="0 0 186.015 106.026" enable-background="new 0 0 186.015 106.026"
	 xml:space="preserve">
<g id="GOOD_logo">
	<polygon fill="#95A7AF" points="186.015,106.026 10.764,106.026 0,92.548 10.764,0 186.015,0 	"/>
	<rect x="0" y="0" fill="#AFC6D2" width="172.767" height="92.548"/>
	<path fill="#231F20" d="M131.083,62.722c0,2.269-1.851,4.116-4.131,4.116h-4.132V24.19h4.132c2.281,0,4.131,1.847,4.131,4.113
		V62.722z M126.952,15.964h-11.643c-0.416,0-0.752,0.331-0.752,0.747v57.606c0,0.417,0.336,0.752,0.752,0.752h11.643
		c6.837,0,12.396-5.545,12.396-12.347V28.303C139.349,21.498,133.789,15.964,126.952,15.964z M104.04,62.722
		c0,2.269-1.853,4.116-4.131,4.116s-4.135-1.847-4.135-4.116V28.303c0-2.267,1.856-4.113,4.135-4.113s4.131,1.847,4.131,4.113
		V62.722z M99.909,15.964c-6.836,0-12.394,5.535-12.394,12.339v34.418c0,6.802,5.559,12.347,12.394,12.347
		c6.836,0,12.395-5.545,12.395-12.347V28.303C112.303,21.498,106.745,15.964,99.909,15.964z M45.813,15.964
		c-6.832,0-12.395,5.535-12.395,12.339v34.418c0,6.802,5.562,12.347,12.395,12.347c2.908,0,5.575-1.012,7.691-2.682l0.951,2.682
		h3.003c0.415,0,0.751-0.335,0.751-0.752V40.651c0-0.415-0.336-0.746-0.751-0.746H46.192c-0.417,0-0.754,0.332-0.754,0.746v6.731
		c0,0.417,0.337,0.749,0.754,0.749h3.755v14.59c0,2.269-1.854,4.116-4.134,4.116c-2.277,0-4.132-1.847-4.132-4.116V28.303
		c0-2.267,1.854-4.113,4.132-4.113c2.279,0,4.134,1.847,4.134,4.113v2.622c0,0.41,0.336,0.747,0.755,0.747h6.757
		c0.415,0,0.751-0.336,0.751-0.747v-2.622C58.21,21.498,52.65,15.964,45.813,15.964z M76.995,62.722
		c0,2.269-1.856,4.116-4.133,4.116c-2.279,0-4.133-1.847-4.133-4.116V28.303c0-2.267,1.854-4.113,4.133-4.113
		c2.276,0,4.133,1.847,4.133,4.113V62.722z M72.862,15.964c-6.836,0-12.398,5.535-12.398,12.339v34.418
		c0,6.802,5.562,12.347,12.398,12.347s12.396-5.545,12.396-12.347V28.303C85.258,21.498,79.698,15.964,72.862,15.964z"/>
</g>
</svg>
