<?xml version="1.0" encoding="utf-8"?>
<!-- Generator: Adobe Illustrator 17.0.0, SVG Export Plug-In . SVG Version: 6.00 Build 0)  -->
<!DOCTYPE svg PUBLIC "-//W3C//DTD SVG 1.1//EN" "http://www.w3.org/Graphics/SVG/1.1/DTD/svg11.dtd">
<svg version="1.1" id="Layer_1" xmlns="http://www.w3.org/2000/svg" xmlns:xlink="http://www.w3.org/1999/xlink" x="0px" y="0px"
	 width="765.865px" height="152.281px" viewBox="0 0 765.865 152.281" enable-background="new 0 0 765.865 152.281"
	 xml:space="preserve">
<g id="Text_Block">
	<g enable-background="new    ">
		<path fill="#3C3F4C" d="M153.924,49.677v-2.365c0-2.577-1.183-3.675-2.534-3.675c-2.112,0-2.788,1.098-2.788,3.379v15.459
			c0,2.28,0.676,3.379,2.788,3.379c1.901,0,2.534-1.099,2.534-3.084v-3.674h5.237v3.505c0,4.309-2.534,7.813-7.771,7.813
			c-5.491,0-8.025-3.505-8.025-7.813V46.889c0-4.308,2.534-7.813,8.025-7.813c5.237,0,7.771,3.802,7.771,8.362v2.239H153.924z"/>
		<path fill="#3C3F4C" d="M164.949,55.294c0-4.983,1.943-8.447,7.349-8.447s7.349,3.464,7.349,8.447v6.673
			c0,4.984-1.943,8.447-7.349,8.447s-7.349-3.463-7.349-8.447V55.294z M174.917,54.45c0-2.619-0.929-3.717-2.619-3.717
			s-2.619,1.098-2.619,3.717v8.363c0,2.618,0.929,3.717,2.619,3.717s2.619-1.099,2.619-3.717V54.45z"/>
		<path fill="#3C3F4C" d="M184.928,69.993V47.27h4.477v2.28c1.985-1.689,2.999-2.703,5.744-2.703c2.492,0,3.97,1.816,3.97,4.772
			v18.373h-4.73V52.38c0-1.141-0.676-1.647-1.689-1.647s-1.943,0.634-3.041,1.436v17.824H184.928z"/>
		<path fill="#3C3F4C" d="M202.795,51.155V47.27h2.619v-6.125h4.73v6.125h3.167v3.885h-3.167v13.094
			c0,1.183,0.507,1.858,1.605,1.858h1.562v4.055c-0.633,0.169-1.183,0.253-2.365,0.253c-3.548,0-5.533-1.646-5.533-5.11V51.155
			H202.795z"/>
		<path fill="#3C3F4C" d="M217.368,69.993V47.27h4.519v2.66h0.085c1.14-1.942,3.125-3.083,5.364-3.083h0.971v4.941
			c-0.845-0.211-1.647-0.464-3.041-0.464c-1.604,0-3.167,1.014-3.167,3.041v15.627H217.368z"/>
		<path fill="#3C3F4C" d="M232.152,55.294c0-4.983,1.943-8.447,7.349-8.447s7.349,3.464,7.349,8.447v6.673
			c0,4.984-1.943,8.447-7.349,8.447s-7.349-3.463-7.349-8.447V55.294z M242.12,54.45c0-2.619-0.929-3.717-2.619-3.717
			s-2.619,1.098-2.619,3.717v8.363c0,2.618,0.929,3.717,2.619,3.717s2.619-1.099,2.619-3.717V54.45z"/>
		<path fill="#3C3F4C" d="M261.042,47.27h4.814l-5.49,22.723h-4.604l-5.491-22.723h4.815l2.915,15.205h0.084L261.042,47.27z"/>
		<path fill="#3C3F4C" d="M283.978,59.518h-9.968v3.295c0,2.618,0.93,3.717,2.619,3.717s2.618-1.099,2.618-3.717v-0.508h4.73
			c-0.085,4.815-2.069,8.109-7.349,8.109c-5.406,0-7.35-3.463-7.35-8.447v-6.673c0-4.983,1.943-8.447,7.35-8.447
			s7.349,3.464,7.349,8.447V59.518z M279.247,55.632V54.45c0-2.619-0.929-3.717-2.618-3.717s-2.619,1.098-2.619,3.717v1.183H279.247
			z"/>
		<path fill="#3C3F4C" d="M289.258,69.993V47.27h4.52v2.66h0.085c1.14-1.942,3.125-3.083,5.364-3.083h0.971v4.941
			c-0.845-0.211-1.646-0.464-3.041-0.464c-1.604,0-3.168,1.014-3.168,3.041v15.627H289.258z"/>
		<path fill="#3C3F4C" d="M312.912,53.563c-0.338-1.816-1.184-2.83-2.703-2.83c-1.226,0-2.07,0.634-2.07,1.816
			c0,3.548,8.87,4.983,8.87,11.741c0,4.055-2.788,6.124-6.632,6.124c-4.139,0-6.504-2.365-7.222-6.335l4.139-1.141
			c0.296,1.901,0.972,3.591,3.126,3.591c1.225,0,2.111-0.719,2.111-1.985c0-3.929-8.869-5.406-8.869-11.615
			c0-3.59,2.787-6.082,6.335-6.082c3.717,0,6.209,2.492,6.927,6.04L312.912,53.563z"/>
		<path fill="#3C3F4C" d="M321.741,43.806v-4.308h4.73v4.308H321.741z M321.741,69.993V47.27h4.73v22.723H321.741z"/>
		<path fill="#3C3F4C" d="M331.539,53.943c0.253-4.604,3.167-7.096,7.602-7.096c4.393,0,6.885,2.027,6.885,6.167v14.571
			c0,0.718,0.169,1.647,0.296,2.407h-4.52c-0.042-0.634-0.211-1.225-0.253-1.773c-1.774,1.436-3.252,2.195-5.533,2.195
			c-3.21,0-4.814-2.195-4.814-5.11c0-4.983,3.294-7.729,10.094-10.306v-1.352c0-1.9-0.76-2.914-2.322-2.914
			c-2.154,0-2.619,1.268-2.703,3.21H331.539z M341.295,58.462c-4.308,2.449-5.363,4.013-5.363,5.997c0,1.479,0.76,2.07,2.195,2.07
			c1.31,0,2.365-0.972,3.168-2.112V58.462z"/>
		<path fill="#3C3F4C" d="M351.814,69.993V39.498h4.73v30.494H351.814z"/>
		<path fill="#3C3F4C" d="M372.721,69.993V39.498h5.237v12.417h5.576V39.498h5.237v30.494h-5.237V56.477h-5.576v13.516H372.721z"/>
		<path fill="#3C3F4C" d="M409.005,59.518h-9.968v3.295c0,2.618,0.929,3.717,2.618,3.717s2.619-1.099,2.619-3.717v-0.508h4.73
			c-0.084,4.815-2.069,8.109-7.35,8.109c-5.406,0-7.349-3.463-7.349-8.447v-6.673c0-4.983,1.942-8.447,7.349-8.447
			s7.35,3.464,7.35,8.447V59.518z M404.274,55.632V54.45c0-2.619-0.93-3.717-2.619-3.717s-2.618,1.098-2.618,3.717v1.183H404.274z"
			/>
		<path fill="#3C3F4C" d="M413.778,53.943c0.254-4.604,3.168-7.096,7.604-7.096c4.393,0,6.884,2.027,6.884,6.167v14.571
			c0,0.718,0.169,1.647,0.296,2.407h-4.52c-0.042-0.634-0.211-1.225-0.253-1.773c-1.774,1.436-3.253,2.195-5.533,2.195
			c-3.21,0-4.815-2.195-4.815-5.11c0-4.983,3.295-7.729,10.095-10.306v-1.352c0-1.9-0.76-2.914-2.323-2.914
			c-2.153,0-2.618,1.268-2.703,3.21H413.778z M423.535,58.462c-4.308,2.449-5.364,4.013-5.364,5.997c0,1.479,0.761,2.07,2.197,2.07
			c1.309,0,2.365-0.972,3.167-2.112V58.462z"/>
		<path fill="#3C3F4C" d="M434.054,69.993V39.498h4.73v30.494H434.054z"/>
		<path fill="#3C3F4C" d="M442.501,51.155V47.27h2.618v-6.125h4.73v6.125h3.168v3.885h-3.168v13.094
			c0,1.183,0.507,1.858,1.604,1.858h1.563v4.055c-0.634,0.169-1.183,0.253-2.365,0.253c-3.548,0-5.533-1.646-5.533-5.11V51.155
			H442.501z"/>
		<path fill="#3C3F4C" d="M457.073,69.993V39.498h4.73v9.883c1.732-1.521,2.746-2.534,5.491-2.534c2.492,0,3.97,1.816,3.97,4.772
			v18.373h-4.73V52.38c0-1.141-0.676-1.647-1.689-1.647s-1.942,0.634-3.041,1.436v17.824H457.073z"/>
		<path fill="#3C3F4C" d="M488.118,69.993V39.498h5.237v30.494H488.118z"/>
		<path fill="#3C3F4C" d="M499.86,69.993V47.27h4.478v2.28c1.985-1.689,2.999-2.703,5.744-2.703c2.492,0,3.97,1.816,3.97,4.772
			v18.373h-4.73V52.38c0-1.141-0.676-1.647-1.689-1.647s-1.942,0.634-3.041,1.436v17.824H499.86z"/>
		<path fill="#3C3F4C" d="M519.587,69.993V47.27h4.477v2.28c1.985-1.689,2.999-2.703,5.744-2.703c2.492,0,3.971,1.816,3.971,4.772
			v18.373h-4.73V52.38c0-1.141-0.676-1.647-1.689-1.647s-1.943,0.634-3.041,1.436v17.824H519.587z"/>
		<path fill="#3C3F4C" d="M539.058,55.294c0-4.983,1.942-8.447,7.349-8.447s7.35,3.464,7.35,8.447v6.673
			c0,4.984-1.943,8.447-7.35,8.447s-7.349-3.463-7.349-8.447V55.294z M549.026,54.45c0-2.619-0.93-3.717-2.619-3.717
			s-2.618,1.098-2.618,3.717v8.363c0,2.618,0.929,3.717,2.618,3.717s2.619-1.099,2.619-3.717V54.45z"/>
		<path fill="#3C3F4C" d="M567.949,47.27h4.815l-5.491,22.723h-4.604l-5.491-22.723h4.815l2.914,15.205h0.085L567.949,47.27z"/>
		<path fill="#3C3F4C" d="M575.932,53.943c0.254-4.604,3.168-7.096,7.604-7.096c4.393,0,6.884,2.027,6.884,6.167v14.571
			c0,0.718,0.169,1.647,0.296,2.407h-4.52c-0.042-0.634-0.211-1.225-0.253-1.773c-1.774,1.436-3.253,2.195-5.533,2.195
			c-3.21,0-4.815-2.195-4.815-5.11c0-4.983,3.295-7.729,10.095-10.306v-1.352c0-1.9-0.76-2.914-2.323-2.914
			c-2.153,0-2.618,1.268-2.703,3.21H575.932z M585.689,58.462c-4.308,2.449-5.364,4.013-5.364,5.997c0,1.479,0.761,2.07,2.197,2.07
			c1.309,0,2.365-0.972,3.167-2.112V58.462z"/>
		<path fill="#3C3F4C" d="M594.307,51.155V47.27h2.618v-6.125h4.73v6.125h3.168v3.885h-3.168v13.094
			c0,1.183,0.507,1.858,1.604,1.858h1.563v4.055c-0.634,0.169-1.183,0.253-2.365,0.253c-3.548,0-5.533-1.646-5.533-5.11V51.155
			H594.307z"/>
		<path fill="#3C3F4C" d="M608.922,43.806v-4.308h4.73v4.308H608.922z M608.922,69.993V47.27h4.73v22.723H608.922z"/>
		<path fill="#3C3F4C" d="M618.974,55.294c0-4.983,1.942-8.447,7.349-8.447s7.35,3.464,7.35,8.447v6.673
			c0,4.984-1.943,8.447-7.35,8.447s-7.349-3.463-7.349-8.447V55.294z M628.942,54.45c0-2.619-0.93-3.717-2.619-3.717
			s-2.618,1.098-2.618,3.717v8.363c0,2.618,0.929,3.717,2.618,3.717s2.619-1.099,2.619-3.717V54.45z"/>
		<path fill="#3C3F4C" d="M638.954,69.993V47.27h4.477v2.28c1.985-1.689,2.999-2.703,5.744-2.703c2.492,0,3.971,1.816,3.971,4.772
			v18.373h-4.73V52.38c0-1.141-0.676-1.647-1.689-1.647s-1.943,0.634-3.041,1.436v17.824H638.954z"/>
		<path fill="#3C3F4C" d="M667.294,53.563c-0.338-1.816-1.182-2.83-2.703-2.83c-1.225,0-2.069,0.634-2.069,1.816
			c0,3.548,8.87,4.983,8.87,11.741c0,4.055-2.788,6.124-6.631,6.124c-4.14,0-6.505-2.365-7.223-6.335l4.139-1.141
			c0.296,1.901,0.972,3.591,3.126,3.591c1.225,0,2.111-0.719,2.111-1.985c0-3.929-8.869-5.406-8.869-11.615
			c0-3.59,2.787-6.082,6.335-6.082c3.717,0,6.209,2.492,6.927,6.04L667.294,53.563z"/>
	</g>
	<g enable-background="new    ">
		<path fill="#3C3F4C" d="M148.912,90.245h-6.688v-2.077h15.651v2.077h-6.688v17.843h-2.276V90.245z"/>
		<path fill="#3C3F4C" d="M161.26,87.313h2.191v8.623c0.967-1.594,2.504-2.874,5.037-2.874c3.557,0,5.634,2.391,5.634,5.891v9.135
			h-2.191v-8.594c0-2.732-1.48-4.439-4.07-4.439c-2.533,0-4.411,1.85-4.411,4.609v8.424h-2.191V87.313z"/>
		<path fill="#3C3F4C" d="M177.677,103.819v-0.057c0-3.103,2.562-4.753,6.289-4.753c1.878,0,3.216,0.256,4.525,0.626v-0.512
			c0-2.646-1.622-4.013-4.382-4.013c-1.736,0-3.102,0.455-4.468,1.081l-0.655-1.793c1.622-0.739,3.216-1.224,5.35-1.224
			c2.078,0,3.671,0.541,4.752,1.622c0.996,0.996,1.508,2.419,1.508,4.298v8.992h-2.106v-2.22c-1.024,1.338-2.732,2.533-5.322,2.533
			C180.438,108.401,177.677,106.836,177.677,103.819z M188.519,102.681v-1.423c-1.081-0.312-2.533-0.626-4.325-0.626
			c-2.761,0-4.297,1.195-4.297,3.045v0.057c0,1.851,1.708,2.932,3.7,2.932C186.3,106.665,188.519,105.015,188.519,102.681z"/>
		<path fill="#3C3F4C" d="M195.888,104.189V95.31h-2.049v-1.936h2.049v-4.439h2.191v4.439h4.667v1.936h-4.667v8.594
			c0,1.793,0.996,2.447,2.476,2.447c0.74,0,1.366-0.142,2.134-0.512v1.878c-0.769,0.398-1.594,0.626-2.646,0.626
			C197.68,108.344,195.888,107.178,195.888,104.189z"/>
		<path fill="#3C3F4C" d="M215.52,88.168h7.456c4.496,0,7.456,2.39,7.456,6.317v0.057c0,4.297-3.585,6.517-7.826,6.517h-4.838v7.029
			h-2.248V88.168z M222.691,99.01c3.301,0,5.464-1.765,5.464-4.383V94.57c0-2.846-2.134-4.325-5.35-4.325h-5.037v8.765H222.691z"/>
		<path fill="#3C3F4C" d="M233.103,100.774v-0.057c0-4.24,2.988-7.655,7.058-7.655c4.354,0,6.858,3.472,6.858,7.769
			c0,0.285,0,0.455-0.029,0.712h-11.667c0.313,3.187,2.561,4.979,5.179,4.979c2.021,0,3.443-0.825,4.639-2.077l1.366,1.224
			c-1.48,1.65-3.273,2.761-6.062,2.761C236.405,108.43,233.103,105.327,233.103,100.774z M244.8,99.921
			c-0.228-2.676-1.765-5.009-4.696-5.009c-2.561,0-4.496,2.134-4.781,5.009H244.8z"/>
		<path fill="#3C3F4C" d="M249.948,100.803v-0.057c0-4.155,3.244-7.684,7.684-7.684c4.411,0,7.655,3.472,7.655,7.626v0.058
			c0,4.154-3.272,7.684-7.712,7.684C253.163,108.43,249.948,104.958,249.948,100.803z M263.038,100.803v-0.057
			c0-3.159-2.362-5.749-5.464-5.749c-3.188,0-5.379,2.59-5.379,5.691v0.058c0,3.158,2.333,5.72,5.436,5.72
			C260.819,106.466,263.038,103.904,263.038,100.803z"/>
		<path fill="#3C3F4C" d="M269.239,93.375h2.191v2.96c1.195-1.765,2.931-3.272,5.635-3.272c3.528,0,7.029,2.789,7.029,7.626v0.058
			c0,4.809-3.473,7.655-7.029,7.655c-2.732,0-4.496-1.48-5.635-3.131v7.37h-2.191V93.375z M281.845,100.774v-0.057
			c0-3.473-2.39-5.692-5.179-5.692c-2.732,0-5.322,2.306-5.322,5.663v0.058c0,3.415,2.59,5.691,5.322,5.691
			C279.512,106.437,281.845,104.331,281.845,100.774z"/>
		<path fill="#3C3F4C" d="M288.33,87.313h2.191v20.774h-2.191V87.313z"/>
		<path fill="#3C3F4C" d="M294.703,100.774v-0.057c0-4.24,2.987-7.655,7.057-7.655c4.354,0,6.858,3.472,6.858,7.769
			c0,0.285,0,0.455-0.028,0.712h-11.667c0.312,3.187,2.561,4.979,5.179,4.979c2.021,0,3.443-0.825,4.639-2.077l1.366,1.224
			c-1.479,1.65-3.272,2.761-6.062,2.761C298.004,108.43,294.703,105.327,294.703,100.774z M306.399,99.921
			c-0.228-2.676-1.764-5.009-4.695-5.009c-2.561,0-4.496,2.134-4.78,5.009H306.399z"/>
		<path fill="#3C3F4C" d="M328.734,88.025h2.106l9.078,20.062h-2.419l-2.334-5.265h-10.842l-2.362,5.265h-2.306L328.734,88.025z
			 M334.284,100.774l-4.525-10.131l-4.553,10.131H334.284z"/>
		<path fill="#3C3F4C" d="M343.471,93.375h2.191v3.842c1.081-2.447,3.216-4.212,6.005-4.098v2.362h-0.171
			c-3.216,0-5.834,2.305-5.834,6.744v5.862h-2.191V93.375z"/>
		<path fill="#3C3F4C" d="M353.458,100.774v-0.057c0-4.24,2.987-7.655,7.057-7.655c4.354,0,6.858,3.472,6.858,7.769
			c0,0.285,0,0.455-0.028,0.712h-11.667c0.312,3.187,2.561,4.979,5.179,4.979c2.021,0,3.443-0.825,4.639-2.077l1.366,1.224
			c-1.479,1.65-3.272,2.761-6.062,2.761C356.759,108.43,353.458,105.327,353.458,100.774z M365.154,99.921
			c-0.228-2.676-1.764-5.009-4.695-5.009c-2.561,0-4.496,2.134-4.78,5.009H365.154z"/>
		<path fill="#3C3F4C" d="M378.809,105.185l1.395-1.65c2.078,1.878,4.07,2.816,6.831,2.816c2.675,0,4.439-1.423,4.439-3.386v-0.058
			c0-1.85-0.996-2.902-5.18-3.784c-4.582-0.996-6.688-2.477-6.688-5.749v-0.057c0-3.13,2.761-5.436,6.546-5.436
			c2.902,0,4.979,0.825,7,2.447l-1.309,1.736c-1.85-1.509-3.699-2.163-5.749-2.163c-2.589,0-4.241,1.423-4.241,3.216v0.057
			c0,1.879,1.025,2.932,5.408,3.87c4.439,0.968,6.488,2.59,6.488,5.635v0.058c0,3.414-2.846,5.634-6.801,5.634
			C383.79,108.372,381.2,107.319,378.809,105.185z"/>
		<path fill="#3C3F4C" d="M398.586,104.189V95.31h-2.049v-1.936h2.049v-4.439h2.191v4.439h4.667v1.936h-4.667v8.594
			c0,1.793,0.996,2.447,2.476,2.447c0.74,0,1.366-0.142,2.135-0.512v1.878c-0.769,0.398-1.594,0.626-2.647,0.626
			C400.379,108.344,398.586,107.178,398.586,104.189z"/>
		<path fill="#3C3F4C" d="M409.368,87.74h2.505v2.419h-2.505V87.74z M409.511,93.375h2.191v14.713h-2.191V93.375z"/>
		<path fill="#3C3F4C" d="M416.994,87.313h2.191v20.774h-2.191V87.313z"/>
		<path fill="#3C3F4C" d="M424.476,87.313h2.191v20.774h-2.191V87.313z"/>
		<path fill="#3C3F4C" d="M445.931,90.245h-6.688v-2.077h15.651v2.077h-6.688v17.843h-2.276V90.245z"/>
		<path fill="#3C3F4C" d="M454.01,103.819v-0.057c0-3.103,2.561-4.753,6.289-4.753c1.878,0,3.216,0.256,4.524,0.626v-0.512
			c0-2.646-1.622-4.013-4.383-4.013c-1.735,0-3.102,0.455-4.468,1.081l-0.654-1.793c1.622-0.739,3.216-1.224,5.351-1.224
			c2.077,0,3.671,0.541,4.752,1.622c0.996,0.996,1.508,2.419,1.508,4.298v8.992h-2.105v-2.22c-1.024,1.338-2.731,2.533-5.321,2.533
			C456.769,108.401,454.01,106.836,454.01,103.819z M464.851,102.681v-1.423c-1.081-0.312-2.532-0.626-4.325-0.626
			c-2.761,0-4.297,1.195-4.297,3.045v0.057c0,1.851,1.707,2.932,3.699,2.932C462.632,106.665,464.851,105.015,464.851,102.681z"/>
		<path fill="#3C3F4C" d="M471.793,87.313h2.191v20.774h-2.191V87.313z"/>
		<path fill="#3C3F4C" d="M479.076,87.313h2.191v14.343l7.939-8.281h2.732l-6.176,6.318l6.375,8.395h-2.618l-5.265-6.858
			l-2.988,3.017v3.842h-2.191V87.313z"/>
		<path fill="#3C3F4C" d="M495.322,87.74h2.505v2.419h-2.505V87.74z M495.465,93.375h2.191v14.713h-2.191V93.375z"/>
		<path fill="#3C3F4C" d="M502.748,93.375h2.191v2.562c0.968-1.594,2.504-2.874,5.037-2.874c3.557,0,5.635,2.391,5.635,5.891v9.135
			h-2.191v-8.594c0-2.732-1.479-4.439-4.069-4.439c-2.533,0-4.411,1.85-4.411,4.609v8.424h-2.191V93.375z"/>
		<path fill="#3C3F4C" d="M520.104,110.649l0.996-1.708c1.679,1.224,3.558,1.879,5.663,1.879c3.244,0,5.351-1.793,5.351-5.236
			v-1.736c-1.281,1.707-3.074,3.102-5.777,3.102c-3.528,0-6.915-2.646-6.915-6.887v-0.057c0-4.297,3.415-6.943,6.915-6.943
			c2.761,0,4.554,1.365,5.748,2.959v-2.646h2.191v12.151c0,2.277-0.683,4.013-1.878,5.208c-1.309,1.31-3.272,1.964-5.606,1.964
			C524.345,112.698,522.068,112.015,520.104,110.649z M532.171,100.034v-0.057c0-3.017-2.618-4.98-5.407-4.98
			s-5.094,1.936-5.094,4.952v0.057c0,2.96,2.362,5.009,5.094,5.009C529.553,105.015,532.171,102.994,532.171,100.034z"/>
		<path fill="#3C3F4C" d="M555.443,88.025h2.106l9.078,20.062h-2.419l-2.334-5.265h-10.842l-2.362,5.265h-2.306L555.443,88.025z
			 M560.993,100.774l-4.525-10.131l-4.553,10.131H560.993z"/>
		<path fill="#3C3F4C" d="M572.372,105.27v2.817h-2.191V87.313h2.191v9.021c1.195-1.765,2.931-3.272,5.635-3.272
			c3.528,0,7.029,2.789,7.029,7.626v0.058c0,4.809-3.473,7.655-7.029,7.655C575.274,108.401,573.511,106.921,572.372,105.27z
			 M582.787,100.774v-0.057c0-3.473-2.39-5.692-5.179-5.692c-2.732,0-5.322,2.306-5.322,5.663v0.058c0,3.415,2.59,5.691,5.322,5.691
			C580.454,106.437,582.787,104.331,582.787,100.774z"/>
		<path fill="#3C3F4C" d="M588.163,100.803v-0.057c0-4.155,3.244-7.684,7.684-7.684c4.41,0,7.654,3.472,7.654,7.626v0.058
			c0,4.154-3.272,7.684-7.712,7.684C591.378,108.43,588.163,104.958,588.163,100.803z M601.253,100.803v-0.057
			c0-3.159-2.361-5.749-5.464-5.749c-3.187,0-5.378,2.59-5.378,5.691v0.058c0,3.158,2.333,5.72,5.436,5.72
			C599.033,106.466,601.253,103.904,601.253,100.803z"/>
		<path fill="#3C3F4C" d="M607.226,102.51v-9.135h2.191v8.595c0,2.731,1.479,4.439,4.069,4.439c2.504,0,4.411-1.85,4.411-4.61
			v-8.424h2.162v14.713h-2.162v-2.562c-0.996,1.594-2.505,2.875-5.037,2.875C609.304,108.401,607.226,106.011,607.226,102.51z"/>
		<path fill="#3C3F4C" d="M625.749,104.189V95.31H623.7v-1.936h2.049v-4.439h2.191v4.439h4.667v1.936h-4.667v8.594
			c0,1.793,0.996,2.447,2.476,2.447c0.74,0,1.366-0.142,2.134-0.512v1.878c-0.768,0.398-1.593,0.626-2.646,0.626
			C627.542,108.344,625.749,107.178,625.749,104.189z"/>
		<path fill="#3C3F4C" d="M650.645,90.245h-6.688v-2.077h15.651v2.077h-6.688v17.843h-2.276V90.245z"/>
		<path fill="#3C3F4C" d="M658.925,100.803v-0.057c0-4.155,3.244-7.684,7.684-7.684c4.41,0,7.654,3.472,7.654,7.626v0.058
			c0,4.154-3.272,7.684-7.712,7.684C662.14,108.43,658.925,104.958,658.925,100.803z M672.015,100.803v-0.057
			c0-3.159-2.361-5.749-5.464-5.749c-3.187,0-5.378,2.59-5.378,5.691v0.058c0,3.158,2.333,5.72,5.436,5.72
			C669.795,106.466,672.015,103.904,672.015,100.803z"/>
		<path fill="#3C3F4C" d="M677.362,100.774v-0.057c0-4.81,3.5-7.655,7.029-7.655c2.731,0,4.496,1.479,5.634,3.13v-8.879h2.191
			v20.774h-2.191v-2.96c-1.194,1.765-2.931,3.273-5.634,3.273C680.862,108.401,677.362,105.612,677.362,100.774z M690.111,100.746
			v-0.058c0-3.386-2.59-5.663-5.321-5.663c-2.846,0-5.18,2.106-5.18,5.663v0.058c0,3.472,2.419,5.691,5.18,5.691
			C687.521,106.437,690.111,104.132,690.111,100.746z"/>
		<path fill="#3C3F4C" d="M695.999,103.819v-0.057c0-3.103,2.561-4.753,6.289-4.753c1.878,0,3.216,0.256,4.524,0.626v-0.512
			c0-2.646-1.622-4.013-4.383-4.013c-1.735,0-3.102,0.455-4.468,1.081l-0.654-1.793c1.622-0.739,3.216-1.224,5.351-1.224
			c2.077,0,3.671,0.541,4.752,1.622c0.996,0.996,1.508,2.419,1.508,4.298v8.992h-2.105v-2.22c-1.024,1.338-2.731,2.533-5.321,2.533
			C698.759,108.401,695.999,106.836,695.999,103.819z M706.841,102.681v-1.423c-1.081-0.312-2.532-0.626-4.325-0.626
			c-2.761,0-4.297,1.195-4.297,3.045v0.057c0,1.851,1.707,2.932,3.699,2.932C704.621,106.665,706.841,105.015,706.841,102.681z"/>
		<path fill="#3C3F4C" d="M724.027,93.375h2.333l-6.175,15.196c-1.253,3.045-2.676,4.155-4.896,4.155
			c-1.224,0-2.134-0.256-3.13-0.74l0.74-1.735c0.711,0.37,1.365,0.54,2.305,0.54c1.309,0,2.134-0.683,3.017-2.76l-6.688-14.656
			h2.419l5.35,12.266L724.027,93.375z"/>
	</g>
	<g enable-background="new    ">
		<path fill="#3FA6DF" d="M16.821,117.855v-3.007h9.92V39.834h-9.92v-3.007h8.195c6.757,0,12.22-0.451,16.39-1.353
			c4.169-0.902,8.626-2.706,13.658-5.412v84.786h9.632v3.007H16.821z"/>
	</g>
	<g enable-background="new    ">
		<path fill="#3FA6DF" d="M77.635,117.855v-3.007h9.92V39.834h-9.92v-3.007h8.195c6.757,0,12.22-0.451,16.39-1.353
			c4.169-0.902,8.626-2.706,13.658-5.412v84.786h9.632v3.007H77.635z"/>
	</g>
</g>
</svg>
