<?xml version="1.0" encoding="utf-8"?>
<!-- Generator: Adobe Illustrator 17.0.0, SVG Export Plug-In . SVG Version: 6.00 Build 0)  -->
<!DOCTYPE svg PUBLIC "-//W3C//DTD SVG 1.1//EN" "http://www.w3.org/Graphics/SVG/1.1/DTD/svg11.dtd">
<svg version="1.1" id="Layer_1" xmlns="http://www.w3.org/2000/svg" xmlns:xlink="http://www.w3.org/1999/xlink" x="0px" y="0px"
	 width="750px" height="83px" viewBox="0 0 750 83" enable-background="new 0 0 750 83" xml:space="preserve">
<g id="pattern_5_">
	<defs>
		<rect id="SVGID_1_" x="0.027" y="0.247" width="749.945" height="82.506"/>
	</defs>
	<clipPath id="SVGID_2_">
		<use xlink:href="#SVGID_1_"  overflow="visible"/>
	</clipPath>
	<path clip-path="url(#SVGID_2_)" fill="#76E5E2" d="M245.936,193.481l7.394,7.906l10.516-2.422l7.395,7.906l10.516-2.422
		l7.394,7.906l10.518-2.42l7.394,7.906l10.517-2.424l7.393,7.908l10.517-2.424l7.394,7.908l10.517-2.422l7.393,7.906l10.517-2.424
		l7.393,7.908l10.517-2.424l7.394,7.908l10.557-2.43l7.451,7.965l10.517-2.424l7.392,7.908l10.518-2.422l7.394,7.906l10.517-2.424
		l7.392,7.908l10.52-2.424l7.393,7.908l10.517-2.424l7.393,7.91l10.518-2.424l7.392,7.906l10.518-2.422l7.394,7.906l10.516-2.422
		l7.394,7.908l10.52-2.424l7.392,7.908l11.344-2.613l3.154-10.3l10.518-2.422l3.155-10.3l10.516-2.424l3.154-10.298l10.517-2.424
		l3.156-10.3l10.517-2.422l3.155-10.3l10.517-2.422l3.154-10.3l10.518-2.422l3.152-10.3l10.518-2.422l3.154-10.3l10.518-2.424
		l3.153-10.298l10.518-2.422l3.155-10.3l10.517-2.424l3.159-10.313l10.535-2.428l3.152-10.3l10.518-2.422l3.155-10.3l10.517-2.422
		l3.154-10.3l10.517-2.422l3.155-10.299l10.518-2.424l3.153-10.299l10.518-2.423l3.154-10.3l10.517-2.423l3.155-10.298l10.516-2.423
		l3.155-10.3l10.518-2.422l3.156-10.299l10.517-2.423l3.154-10.299l10.517-2.422l3.4-11.109l-7.939-8.49l-10.519,2.421l-7.393-7.907
		l-10.517,2.422l-7.391-7.906l-10.521,2.423l-7.393-7.908l-10.516,2.425l-7.395-7.909L787.59-8.759l-7.392-7.907l-10.519,2.423
		l-7.394-7.907l-10.515,2.422l-7.394-7.906l-10.52,2.421l-7.391-7.905l-10.517,2.422l-7.396-7.908l-10.557,2.435l-7.449-7.969
		l-10.517,2.423l-7.395-7.907l-10.516,2.423l-7.394-7.908l-10.52,2.424l-7.392-7.907l-10.518,2.422l-7.393-7.907l-10.518,2.424
		l-7.394-7.907l-10.516,2.422l-7.394-7.907l-10.518,2.423l-7.394-7.907l-10.518,2.423l-7.393-7.907l-10.517,2.423l-7.395-7.907
		l-11.343,2.615l-3.154,10.297l-10.517,2.424L501.18-67.86l-10.518,2.424l-3.154,10.298l-10.517,2.424l-3.153,10.298l-10.518,2.424
		l-3.154,10.299l-10.518,2.423l-3.153,10.298l-10.516,2.423l-3.156,10.3l-10.517,2.423L419.15,8.473l-10.517,2.424l-3.156,10.298
		l-10.516,2.423l-3.154,10.298l-10.517,2.423l-3.161,10.316l-10.533,2.425l-3.154,10.3l-10.518,2.422l-3.154,10.298l-10.518,2.425
		l-3.153,10.298l-10.516,2.423l-3.157,10.299l-10.516,2.423l-3.155,10.298l-10.516,2.424l-3.155,10.299l-10.518,2.423l-3.154,10.299
		l-10.517,2.424l-3.154,10.298l-10.518,2.424l-3.154,10.3l-10.518,2.422l-3.153,10.298l-10.517,2.424l-3.402,11.108l7.941,8.491
		L245.936,193.481z M260.713,179.792l2.907-9.491l9.69-2.231l6.785,7.254l-2.907,9.493l-9.692,2.231L260.713,179.792z
		 M274.385,167.071l2.906-9.489l9.692-2.233l6.783,7.255l-2.909,9.489l-9.688,2.233L274.385,167.071z M288.057,154.347l2.907-9.489
		l9.69-2.231l6.785,7.255l-2.906,9.489l-9.692,2.233L288.057,154.347z M301.728,141.627l2.906-9.489l9.693-2.235l6.785,7.257
		l-2.909,9.489l-9.69,2.233L301.728,141.627z M315.4,128.903l2.906-9.487l9.692-2.234l6.785,7.256l-2.907,9.489l-9.692,2.233
		L315.4,128.903z M329.072,116.182l2.906-9.49l9.692-2.233l6.785,7.257l-2.909,9.487l-9.69,2.234L329.072,116.182z M342.743,103.459
		l2.906-9.488l9.692-2.234l6.781,7.255l-2.904,9.491l-9.692,2.232L342.743,103.459z M356.414,90.738l2.907-9.49l9.692-2.233
		l6.783,7.255l-2.905,9.491l-9.691,2.233L356.414,90.738z M370.088,78.017l2.905-9.492l9.692-2.232l6.783,7.256l-2.907,9.49
		l-9.69,2.232L370.088,78.017z M383.758,65.293l2.906-9.49l9.691-2.231l6.783,7.253l-2.905,9.492l-9.692,2.231L383.758,65.293z
		 M411.122,39.829l2.905-9.489l9.693-2.233l6.784,7.254l-2.907,9.49l-9.689,2.234L411.122,39.829z M424.794,27.107l2.905-9.49
		l9.693-2.232l6.784,7.254l-2.908,9.491l-9.69,2.233L424.794,27.107z M438.465,14.386l2.907-9.491l9.69-2.233l6.784,7.255
		l-2.907,9.49l-9.689,2.234L438.465,14.386z M452.138,1.662l2.904-9.489l9.693-2.233l6.782,7.255l-2.906,9.489l-9.69,2.234
		L452.138,1.662z M465.809-11.06l2.907-9.489l9.689-2.233l6.784,7.255l-2.906,9.49l-9.692,2.232L465.809-11.06z M479.481-23.781
		l2.905-9.489l9.691-2.234l6.784,7.255l-2.908,9.49l-9.69,2.233L479.481-23.781z M493.152-36.503l2.907-9.489l9.689-2.234
		l6.785,7.255l-2.908,9.49l-9.69,2.233L493.152-36.503z M506.823-49.226l2.907-9.489l9.691-2.233l6.784,7.256l-2.908,9.489
		l-9.69,2.233L506.823-49.226z M830.785,39.588l-2.908,9.489l-9.689,2.233l-6.783-7.255l2.906-9.49l9.691-2.233L830.785,39.588z
		 M817.114,52.311l-2.907,9.489l-9.691,2.233l-6.783-7.256l2.907-9.49l9.69-2.232L817.114,52.311z M803.441,65.032l-2.905,9.489
		l-9.692,2.235l-6.783-7.256l2.906-9.491l9.69-2.232L803.441,65.032z M789.771,77.755l-2.907,9.49l-9.69,2.232l-6.785-7.256
		l2.907-9.489l9.692-2.232L789.771,77.755z M776.1,90.476l-2.908,9.49l-9.691,2.232l-6.783-7.253l2.905-9.491l9.692-2.233
		L776.1,90.476z M762.429,103.199l-2.908,9.488l-9.691,2.234l-6.784-7.255l2.906-9.49l9.692-2.233L762.429,103.199z
		 M748.757,115.921l-2.908,9.489l-9.69,2.232l-6.784-7.256l2.906-9.488l9.692-2.232L748.757,115.921z M735.085,128.643l-2.908,9.487
		l-9.691,2.235l-6.784-7.257l2.906-9.487l9.692-2.234L735.085,128.643z M721.413,141.366l-2.908,9.489l-9.689,2.233l-6.785-7.255
		l2.908-9.489l9.689-2.235L721.413,141.366z M694.049,166.829l-2.908,9.489l-9.69,2.235l-6.783-7.257l2.905-9.489l9.691-2.233
		L694.049,166.829z M680.377,179.551l-2.908,9.491l-9.69,2.233l-6.784-7.257l2.906-9.489l9.691-2.233L680.377,179.551z
		 M666.705,192.273l-2.907,9.491l-9.69,2.233l-6.784-7.257l2.907-9.489l9.69-2.233L666.705,192.273z M653.034,204.994l-2.909,9.491
		l-9.689,2.233l-6.786-7.257l2.909-9.489l9.69-2.233L653.034,204.994z M639.361,217.718l-2.906,9.489l-9.691,2.233l-6.784-7.255
		l2.907-9.491l9.691-2.233L639.361,217.718z M625.69,230.438l-2.907,9.491l-9.69,2.233l-6.783-7.255l2.906-9.489l9.69-2.235
		L625.69,230.438z M612.018,243.164l-2.907,9.487l-9.691,2.233l-6.781-7.255l2.904-9.489l9.692-2.233L612.018,243.164z
		 M598.348,255.884l-2.908,9.489l-9.689,2.231l-6.785-7.254l2.906-9.489l9.693-2.231L598.348,255.884z M292.297,172.556l2.906-9.491
		l9.691-2.233l6.786,7.255l-2.908,9.491l-9.69,2.231L292.297,172.556z M401.668,70.778l2.908-9.491l9.689-2.232l6.785,7.256
		l-2.908,9.49l-9.689,2.231L401.668,70.778z M703.502,135.88l-2.906,9.491l-9.692,2.233l-6.784-7.257l2.907-9.487l9.692-2.236
		L703.502,135.88z M323.878,165.317l2.908-9.491l9.689-2.231l6.787,7.255l-2.908,9.489l-9.692,2.233L323.878,165.317z
		 M419.579,76.261l2.905-9.489l9.693-2.233l6.784,7.256l-2.908,9.49l-9.69,2.231L419.579,76.261z M685.592,130.398l-2.907,9.489
		l-9.691,2.233l-6.784-7.257l2.906-9.488l9.691-2.233L685.592,130.398z M731.798,43.096l-2.908,9.487l-9.689,2.235l-6.784-7.256
		l2.907-9.488l9.69-2.234L731.798,43.096z M437.49,81.746l2.907-9.49l9.69-2.232l6.785,7.254l-2.907,9.49l-9.691,2.234
		L437.49,81.746z M667.681,124.913l-2.908,9.487l-9.689,2.235l-6.784-7.257l2.906-9.489l9.69-2.233L667.681,124.913z
		 M369.134,145.357l2.905-9.489l9.692-2.235l6.784,7.257l-2.906,9.489l-9.691,2.233L369.134,145.357z M382.804,132.633l2.907-9.487
		l9.691-2.234l6.783,7.256l-2.907,9.489l-9.689,2.233L382.804,132.633z M396.475,119.912l2.907-9.489l9.691-2.232l6.784,7.255
		l-2.908,9.49l-9.69,2.233L396.475,119.912z M410.147,107.191l2.906-9.489l9.693-2.235l6.782,7.255l-2.907,9.49l-9.688,2.234
		L410.147,107.191z M464.854,56.282l2.908-9.49l9.69-2.234l6.786,7.257l-2.908,9.488l-9.69,2.234L464.854,56.282z M478.528,43.56
		l2.904-9.491l9.693-2.231l6.783,7.254l-2.906,9.49l-9.691,2.233L478.528,43.56z M492.199,30.837l2.906-9.489l9.69-2.233
		l6.784,7.255l-2.906,9.489l-9.692,2.233L492.199,30.837z M505.871,18.115l2.905-9.49l9.689-2.233l6.785,7.255l-2.907,9.49
		l-9.691,2.233L505.871,18.115z M519.543,5.393l2.906-9.49l9.689-2.233l6.784,7.256l-2.906,9.489l-9.691,2.232L519.543,5.393z
		 M722.367,74.024l-2.907,9.49l-9.69,2.232l-6.785-7.254l2.906-9.49l9.691-2.233L722.367,74.024z M708.695,86.747l-2.906,9.489
		l-9.692,2.232l-6.783-7.255l2.907-9.491l9.69-2.231L708.695,86.747z M695.024,99.468l-2.907,9.49l-9.691,2.232l-6.785-7.256
		l2.908-9.49l9.689-2.231L695.024,99.468z M640.315,150.377l-2.907,9.489l-9.691,2.233l-6.783-7.254l2.908-9.493l9.689-2.231
		L640.315,150.377z M626.645,163.099l-2.909,9.489l-9.689,2.233l-6.784-7.255l2.907-9.489l9.689-2.233L626.645,163.099z
		 M612.972,175.821l-2.907,9.491l-9.692,2.231l-6.783-7.255l2.907-9.489l9.692-2.233L612.972,175.821z M599.301,188.543
		l-2.908,9.491l-9.69,2.233l-6.783-7.257l2.907-9.489l9.689-2.233L599.301,188.543z M585.63,201.266l-2.908,9.489l-9.691,2.233
		l-6.782-7.255l2.906-9.489l9.691-2.235L585.63,201.266z M455.401,87.23l2.908-9.489l9.69-2.234l6.784,7.255l-2.907,9.489
		l-9.691,2.235L455.401,87.23z M704.456,68.54l-2.908,9.489l-9.69,2.234l-6.785-7.256l2.908-9.489l9.691-2.233L704.456,68.54z
		 M649.768,119.427l-2.906,9.491l-9.69,2.231l-6.783-7.255l2.905-9.489l9.69-2.233L649.768,119.427z M473.313,92.714l2.905-9.488
		l9.693-2.235l6.782,7.255l-2.906,9.49l-9.69,2.234L473.313,92.714z M672.874,75.778l-2.908,9.489l-9.691,2.234l-6.784-7.255
		l2.908-9.489l9.69-2.235L672.874,75.778z M631.859,113.944l-2.907,9.489l-9.69,2.232l-6.785-7.255l2.908-9.488l9.69-2.233
		L631.859,113.944z M477.554,110.921l2.904-9.49l9.691-2.233l6.783,7.256l-2.907,9.488l-9.691,2.233L477.554,110.921z
		 M491.222,98.198l2.907-9.489l9.69-2.234l6.786,7.256l-2.908,9.489l-9.691,2.234L491.222,98.198z M641.291,83.016l-2.909,9.489
		l-9.69,2.234l-6.784-7.256l2.907-9.489l9.691-2.233L641.291,83.016z M627.62,95.739l-2.908,9.488l-9.69,2.235l-6.784-7.255
		l2.906-9.49l9.69-2.233L627.62,95.739z M613.947,108.46l-2.908,9.488l-9.689,2.234l-6.783-7.255l2.905-9.489l9.691-2.233
		L613.947,108.46z M518.587,72.735l2.906-9.491l9.691-2.232l6.784,7.255l-2.905,9.49l-9.692,2.232L518.587,72.735z M586.583,133.925
		l-2.907,9.489l-9.691,2.233l-6.784-7.255l2.907-9.489l9.69-2.235L586.583,133.925z M609.708,90.254l-2.907,9.49l-9.69,2.234
		l-6.785-7.257l2.908-9.488l9.69-2.234L609.708,90.254z M509.134,103.683l2.905-9.489l9.692-2.234l6.784,7.256l-2.906,9.489
		l-9.691,2.232L509.134,103.683z M596.038,102.976l-2.907,9.488l-9.691,2.233l-6.785-7.255l2.909-9.487l9.689-2.235L596.038,102.976
		z M527.045,109.167l2.905-9.491l9.693-2.233l6.783,7.255l-2.907,9.491l-9.689,2.233L527.045,109.167z M545.051,114.7l2.908-9.488
		l9.689-2.234l6.785,7.257l-2.907,9.489l-9.69,2.233L545.051,114.7z M578.126,97.491l-2.908,9.49l-9.69,2.234l-6.784-7.257
		l2.907-9.488l9.691-2.233L578.126,97.491z M560.117,91.957l-2.905,9.49l-9.691,2.233l-6.784-7.256l2.906-9.489l9.693-2.233
		L560.117,91.957z M562.963,120.184l2.905-9.489l9.691-2.234l6.783,7.256l-2.908,9.49l-9.689,2.233L562.963,120.184z
		 M542.209,86.473l-2.907,9.49l-9.691,2.232l-6.785-7.255l2.91-9.489l9.689-2.233L542.209,86.473z M513.372,121.889l2.907-9.491
		l9.691-2.231l6.783,7.254l-2.906,9.491l-9.691,2.231L513.372,121.889z M531.38,127.422l2.907-9.49l9.691-2.231l6.783,7.254
		l-2.908,9.49l-9.691,2.233L531.38,127.422z M549.29,132.906l2.906-9.488l9.692-2.233l6.784,7.256l-2.906,9.489l-9.69,2.233
		L549.29,132.906z M591.798,84.77l-2.908,9.489l-9.691,2.235l-6.784-7.257l2.906-9.489l9.693-2.234L591.798,84.77z M573.791,79.235
		l-2.907,9.489l-9.69,2.233l-6.784-7.254l2.906-9.491l9.692-2.232L573.791,79.235z M555.879,73.752l-2.907,9.489l-9.69,2.232
		l-6.783-7.255l2.906-9.49l9.691-2.233L555.879,73.752z M514.844,111.938l-2.909,9.488l-9.688,2.233l-6.785-7.255l2.906-9.49
		l9.692-2.231L514.844,111.938z M580.871,125.668l2.909-9.488l9.69-2.235l6.783,7.256l-2.906,9.488l-9.69,2.235L580.871,125.668z
		 M524.297,80.99l-2.907,9.489l-9.691,2.232l-6.783-7.254l2.906-9.491l9.692-2.231L524.297,80.99z M481.791,129.127l2.907-9.489
		l9.691-2.232l6.784,7.254l-2.907,9.489l-9.692,2.231L481.791,129.127z M499.702,134.611l2.904-9.49l9.693-2.232l6.783,7.256
		l-2.907,9.491l-9.691,2.229L499.702,134.611z M517.708,140.146l2.907-9.489l9.69-2.235l6.784,7.257l-2.907,9.489l-9.691,2.233
		L517.708,140.146z M535.621,145.63l2.905-9.489l9.69-2.235l6.783,7.257l-2.905,9.487l-9.691,2.235L535.621,145.63z
		 M553.528,151.114l2.909-9.489l9.689-2.233l6.784,7.255l-2.907,9.489l-9.689,2.233L553.528,151.114z M623.379,77.532l-2.905,9.489
		l-9.691,2.234l-6.784-7.256l2.907-9.489l9.69-2.233L623.379,77.532z M605.469,72.048l-2.907,9.488l-9.69,2.235l-6.785-7.256
		l2.908-9.489l9.69-2.233L605.469,72.048z M587.46,66.511l-2.905,9.491l-9.691,2.233l-6.783-7.255l2.905-9.49l9.693-2.231
		L587.46,66.511z M569.552,61.029l-2.907,9.489l-9.69,2.233l-6.785-7.255l2.909-9.489l9.69-2.233L569.552,61.029z M551.64,55.545
		l-2.906,9.489l-9.691,2.233l-6.783-7.254l2.906-9.491l9.69-2.233L551.64,55.545z M483.262,119.176l-2.909,9.489l-9.689,2.234
		l-6.784-7.256l2.907-9.489l9.689-2.234L483.262,119.176z M450.209,136.365l2.906-9.489l9.691-2.233l6.783,7.254l-2.905,9.491
		l-9.691,2.233L450.209,136.365z M468.118,141.849l2.907-9.489l9.691-2.233l6.784,7.255l-2.909,9.489l-9.689,2.233L468.118,141.849z
		 M486.03,147.333l2.907-9.489l9.691-2.233l6.783,7.255l-2.906,9.489l-9.693,2.233L486.03,147.333z M504.036,152.868l2.908-9.489
		l9.69-2.235l6.784,7.257l-2.907,9.489l-9.69,2.233L504.036,152.868z M521.946,158.352l2.907-9.489l9.692-2.235l6.784,7.257
		l-2.909,9.489l-9.689,2.233L521.946,158.352z M539.859,163.835l2.907-9.489l9.69-2.235l6.783,7.257l-2.907,9.489l-9.691,2.233
		L539.859,163.835z M557.768,169.321l2.908-9.491l9.691-2.233l6.782,7.255l-2.907,9.489l-9.689,2.233L557.768,169.321z
		 M571.44,156.6l2.909-9.491l9.69-2.233l6.785,7.255l-2.908,9.489l-9.691,2.235L571.44,156.6z M585.112,143.876l2.907-9.489
		l9.691-2.233l6.783,7.255l-2.908,9.489l-9.689,2.233L585.112,143.876z M598.783,131.154l2.906-9.489l9.693-2.233l6.782,7.255
		l-2.906,9.487l-9.69,2.235L598.783,131.154z M639.819,92.966l2.908-9.488l9.69-2.233l6.784,7.255l-2.906,9.489l-9.691,2.233
		L639.819,92.966z M654.962,70.294l-2.907,9.489l-9.691,2.233l-6.784-7.255l2.908-9.488l9.69-2.236L654.962,70.294z M637.052,64.81
		l-2.908,9.489l-9.689,2.233l-6.786-7.255l2.907-9.489l9.692-2.234L637.052,64.81z M619.141,59.326l-2.906,9.489l-9.691,2.233
		l-6.785-7.256l2.908-9.488l9.691-2.235L619.141,59.326z M601.134,53.79l-2.907,9.49l-9.691,2.233l-6.784-7.256l2.906-9.489
		l9.692-2.233L601.134,53.79z M583.222,48.307l-2.906,9.49l-9.69,2.232l-6.785-7.254l2.907-9.492l9.691-2.233L583.222,48.307z
		 M565.312,42.823l-2.907,9.489l-9.69,2.233l-6.784-7.255l2.906-9.49l9.691-2.233L565.312,42.823z M547.402,37.338l-2.907,9.489
		l-9.69,2.234l-6.786-7.255l2.906-9.491l9.693-2.233L547.402,37.338z M533.732,50.061l-2.909,9.489l-9.691,2.233l-6.782-7.255
		l2.904-9.491l9.692-2.232L533.732,50.061z M520.058,62.784l-2.908,9.489l-9.689,2.232l-6.786-7.255l2.907-9.489l9.692-2.234
		L520.058,62.784z M506.387,75.505l-2.907,9.489l-9.691,2.233l-6.782-7.254l2.907-9.49l9.689-2.233L506.387,75.505z
		 M465.351,113.692l-2.908,9.488l-9.691,2.233l-6.782-7.254l2.905-9.49l9.692-2.232L465.351,113.692z M451.68,126.414l-2.908,9.489
		l-9.69,2.233l-6.785-7.255l2.907-9.489l9.691-2.233L451.68,126.414z M626.149,105.69l2.907-9.49l9.69-2.234l6.785,7.256
		l-2.907,9.489l-9.692,2.233L626.149,105.69z M479.023,100.97l-2.908,9.488l-9.689,2.233l-6.785-7.255l2.907-9.489l9.691-2.234
		L479.023,100.97z M418.627,143.603l2.906-9.491l9.69-2.231l6.784,7.253l-2.907,9.491l-9.691,2.233L418.627,143.603z
		 M436.536,149.087l2.907-9.489l9.691-2.233l6.783,7.253l-2.905,9.491l-9.69,2.233L436.536,149.087z M454.447,154.571l2.908-9.491
		l9.689-2.231l6.784,7.255l-2.907,9.489l-9.69,2.233L454.447,154.571z M472.358,160.055l2.905-9.489l9.693-2.233l6.783,7.255
		l-2.907,9.489l-9.691,2.233L472.358,160.055z M490.364,165.589l2.907-9.489l9.69-2.235l6.785,7.257l-2.908,9.489l-9.69,2.233
		L490.364,165.589z M508.276,171.073l2.907-9.489l9.69-2.235l6.785,7.259l-2.908,9.487l-9.691,2.233L508.276,171.073z
		 M526.187,176.557l2.905-9.489l9.693-2.233l6.783,7.255l-2.905,9.489l-9.693,2.233L526.187,176.557z M544.097,182.041l2.908-9.489
		l9.69-2.233l6.784,7.255l-2.907,9.491l-9.691,2.231L544.097,182.041z M562.008,187.525l2.905-9.489l9.693-2.233l6.782,7.255
		l-2.905,9.491l-9.691,2.233L562.008,187.525z M575.68,174.803l2.908-9.489l9.69-2.233l6.783,7.255l-2.907,9.489l-9.688,2.233
		L575.68,174.803z M589.352,162.082l2.905-9.489l9.694-2.233l6.781,7.255l-2.906,9.489l-9.692,2.233L589.352,162.082z
		 M603.023,149.36l2.907-9.489l9.689-2.233l6.785,7.257l-2.908,9.487l-9.69,2.233L603.023,149.36z M616.695,136.638l2.907-9.488
		l9.689-2.235l6.785,7.255l-2.908,9.491l-9.69,2.233L616.695,136.638z M657.732,98.452l2.905-9.491l9.69-2.232l6.784,7.254
		l-2.906,9.49l-9.691,2.234L657.732,98.452z M671.403,85.729l2.907-9.489l9.69-2.234l6.784,7.255l-2.907,9.49l-9.691,2.233
		L671.403,85.729z M686.544,63.056l-2.905,9.489l-9.691,2.233l-6.785-7.256l2.906-9.488l9.692-2.233L686.544,63.056z
		 M668.635,57.571l-2.909,9.489l-9.689,2.234l-6.785-7.255l2.906-9.489l9.693-2.234L668.635,57.571z M650.721,52.087l-2.907,9.49
		l-9.691,2.233l-6.781-7.255l2.905-9.491l9.691-2.231L650.721,52.087z M632.812,46.603l-2.907,9.49l-9.69,2.232l-6.785-7.255
		l2.909-9.489l9.689-2.233L632.812,46.603z M614.806,41.068l-2.906,9.49l-9.692,2.233l-6.783-7.255l2.905-9.491l9.694-2.232
		L614.806,41.068z M596.896,35.584l-2.908,9.49l-9.691,2.233l-6.784-7.255l2.907-9.491l9.691-2.232L596.896,35.584z M578.984,30.101
		l-2.907,9.489l-9.69,2.233l-6.786-7.255l2.909-9.49l9.69-2.233L578.984,30.101z M561.072,24.617l-2.906,9.489l-9.691,2.233
		l-6.783-7.255l2.904-9.49l9.693-2.233L561.072,24.617z M543.163,19.133l-2.908,9.488l-9.69,2.235L523.78,23.6l2.908-9.489
		l9.69-2.235L543.163,19.133z M529.491,31.854l-2.907,9.49l-9.691,2.233l-6.784-7.255l2.909-9.49l9.689-2.234L529.491,31.854z
		 M515.818,44.577l-2.907,9.489l-9.69,2.233l-6.784-7.255l2.908-9.49l9.689-2.234L515.818,44.577z M502.147,57.3l-2.907,9.488
		l-9.69,2.233l-6.782-7.255l2.905-9.49l9.69-2.233L502.147,57.3z M488.475,70.022l-2.908,9.489l-9.689,2.232l-6.783-7.254
		L472,64.998l9.691-2.233L488.475,70.022z M447.44,108.208l-2.908,9.488l-9.69,2.235l-6.783-7.256l2.907-9.491l9.69-2.233
		L447.44,108.208z M433.767,120.93l-2.908,9.489l-9.688,2.233l-6.785-7.257l2.907-9.488l9.691-2.233L433.767,120.93z
		 M420.096,133.652l-2.907,9.489l-9.689,2.233l-6.785-7.255l2.906-9.489l9.691-2.233L420.096,133.652z M644.059,111.173l2.906-9.489
		l9.692-2.234l6.784,7.256l-2.908,9.49l-9.689,2.231L644.059,111.173z M461.111,95.486l-2.908,9.488l-9.69,2.234l-6.783-7.256
		l2.907-9.489l9.69-2.233L461.111,95.486z M387.043,150.839l2.907-9.487l9.691-2.233l6.782,7.255l-2.905,9.491l-9.69,2.229
		L387.043,150.839z M404.953,156.325l2.907-9.489l9.693-2.235l6.782,7.257l-2.907,9.489l-9.689,2.233L404.953,156.325z
		 M422.865,161.809l2.906-9.489l9.692-2.233l6.785,7.255l-2.907,9.489l-9.692,2.233L422.865,161.809z M440.776,167.293l2.905-9.489
		l9.692-2.231l6.783,7.253l-2.907,9.489l-9.689,2.233L440.776,167.293z M458.687,172.777l2.907-9.489l9.69-2.235l6.785,7.259
		l-2.909,9.487l-9.689,2.235L458.687,172.777z M476.694,178.311l2.906-9.487l9.69-2.237l6.783,7.257l-2.907,9.489l-9.69,2.233
		L476.694,178.311z M494.604,183.797l2.907-9.491l9.691-2.233l6.784,7.257l-2.908,9.487l-9.69,2.235L494.604,183.797z
		 M512.515,189.279l2.907-9.489l9.69-2.233l6.784,7.255l-2.907,9.491l-9.69,2.231L512.515,189.279z M530.425,194.765l2.908-9.491
		l9.689-2.233l6.784,7.255l-2.907,9.491l-9.691,2.231L530.425,194.765z M548.336,200.247l2.909-9.489l9.689-2.233l6.784,7.255
		l-2.907,9.489l-9.689,2.235L548.336,200.247z M634.606,142.122l2.905-9.489l9.692-2.235l6.785,7.257l-2.908,9.489l-9.691,2.233
		L634.606,142.122z M718.127,55.818l-2.907,9.488l-9.691,2.235l-6.784-7.257l2.907-9.487l9.691-2.234L718.127,55.818z
		 M700.216,50.334l-2.906,9.488l-9.689,2.234l-6.786-7.256l2.907-9.489l9.691-2.234L700.216,50.334z M682.305,44.85l-2.906,9.489
		l-9.691,2.233l-6.785-7.256l2.909-9.488l9.689-2.233L682.305,44.85z M664.395,39.366l-2.908,9.489l-9.689,2.233l-6.785-7.256
		l2.906-9.489l9.691-2.232L664.395,39.366z M646.484,33.88l-2.907,9.491l-9.691,2.233l-6.784-7.256l2.908-9.489l9.69-2.234
		L646.484,33.88z M628.477,28.346l-2.907,9.49l-9.691,2.232l-6.783-7.254l2.906-9.491l9.691-2.233L628.477,28.346z M610.568,22.863
		l-2.909,9.488l-9.69,2.234l-6.785-7.255l2.907-9.491l9.691-2.232L610.568,22.863z M592.654,17.378l-2.906,9.489l-9.691,2.233
		l-6.783-7.254l2.908-9.49l9.689-2.234L592.654,17.378z M574.744,11.896l-2.906,9.489l-9.689,2.233l-6.786-7.256l2.908-9.488
		l9.69-2.235L574.744,11.896z M556.833,6.411l-2.907,9.489l-9.69,2.234l-6.784-7.257l2.905-9.489l9.693-2.232L556.833,6.411z
		 M470.566,64.536l-2.908,9.49l-9.692,2.233l-6.782-7.254l2.905-9.491l9.693-2.234L470.566,64.536z M661.969,116.657l2.907-9.49
		l9.691-2.232l6.784,7.255l-2.907,9.49l-9.691,2.232L661.969,116.657z M736.039,61.302l-2.907,9.491l-9.69,2.231l-6.784-7.254
		l2.905-9.49l9.693-2.234L736.039,61.302z M443.2,90l-2.905,9.491l-9.693,2.233l-6.782-7.257l2.906-9.488l9.692-2.234L443.2,90z
		 M355.46,158.079l2.907-9.491l9.691-2.231l6.785,7.255l-2.908,9.489l-9.69,2.233L355.46,158.079z M373.372,163.563l2.907-9.489
		l9.691-2.233l6.783,7.255l-2.907,9.489l-9.691,2.233L373.372,163.563z M391.282,169.047l2.909-9.489l9.688-2.233l6.784,7.255
		l-2.907,9.489l-9.69,2.233L391.282,169.047z M409.195,174.531l2.904-9.489l9.693-2.233l6.783,7.255l-2.907,9.489l-9.689,2.235
		L409.195,174.531z M427.104,180.015l2.907-9.489l9.692-2.233l6.784,7.253l-2.906,9.491l-9.693,2.235L427.104,180.015z
		 M445.015,185.5l2.908-9.491l9.691-2.233l6.783,7.257l-2.907,9.487l-9.691,2.233L445.015,185.5z M463.022,191.033l2.906-9.487
		l9.69-2.235l6.785,7.255l-2.908,9.489l-9.689,2.233L463.022,191.033z M480.933,196.517l2.907-9.489l9.69-2.233l6.785,7.255
		l-2.909,9.489l-9.69,2.233L480.933,196.517z M498.844,202.003l2.904-9.491l9.693-2.233l6.784,7.255l-2.906,9.491l-9.691,2.233
		L498.844,202.003z M516.753,207.485l2.908-9.489l9.689-2.233l6.786,7.255l-2.908,9.491l-9.69,2.233L516.753,207.485z
		 M534.665,212.969l2.908-9.489l9.688-2.233l6.785,7.255l-2.908,9.491l-9.69,2.233L534.665,212.969z M552.576,218.453l2.907-9.489
		l9.692-2.233l6.782,7.255l-2.906,9.491l-9.692,2.233L552.576,218.453z M713.887,37.612l-2.905,9.488l-9.693,2.234l-6.782-7.255
		l2.907-9.489l9.69-2.235L713.887,37.612z M695.978,32.127l-2.907,9.489l-9.69,2.233l-6.786-7.255l2.908-9.49l9.691-2.232
		L695.978,32.127z M678.066,26.642l-2.908,9.489l-9.69,2.235l-6.784-7.256l2.906-9.49l9.692-2.232L678.066,26.642z M660.155,21.159
		l-2.906,9.489l-9.69,2.232l-6.784-7.254l2.905-9.49l9.692-2.234L660.155,21.159z M642.15,15.624l-2.908,9.491l-9.691,2.232
		l-6.783-7.254l2.906-9.491l9.691-2.233L642.15,15.624z M624.237,10.141l-2.906,9.488l-9.691,2.234l-6.783-7.255l2.905-9.49
		l9.692-2.232L624.237,10.141z M606.329,4.658l-2.909,9.488l-9.69,2.233l-6.786-7.255l2.91-9.488l9.689-2.235L606.329,4.658z
		 M588.415-0.828l-2.907,9.49l-9.69,2.234l-6.782-7.257l2.905-9.489l9.69-2.233L588.415-0.828z M570.506-6.312l-2.907,9.49
		l-9.69,2.233l-6.784-7.256l2.905-9.489l9.692-2.233L570.506-6.312z M552.594-11.795l-2.907,9.488l-9.689,2.234l-6.787-7.256
		l2.908-9.489l9.69-2.233L552.594-11.795z M570.485,223.937l2.909-9.487l9.69-2.233l6.784,7.253l-2.906,9.489l-9.692,2.235
		L570.485,223.937z M584.158,211.215l2.908-9.489l9.69-2.233l6.784,7.255l-2.908,9.491l-9.689,2.233L584.158,211.215z
		 M597.831,198.493l2.905-9.489l9.69-2.233l6.785,7.255l-2.907,9.491l-9.69,2.233L597.831,198.493z M611.501,185.771l2.906-9.489
		l9.692-2.233l6.784,7.255l-2.907,9.491l-9.69,2.233L611.501,185.771z M625.174,173.049l2.905-9.489l9.691-2.233l6.782,7.255
		l-2.904,9.491l-9.692,2.231L625.174,173.049z M638.845,160.328l2.905-9.489l9.693-2.233l6.782,7.255l-2.907,9.489l-9.69,2.233
		L638.845,160.328z M652.517,147.606l2.905-9.489l9.693-2.233l6.783,7.255l-2.906,9.489l-9.692,2.233L652.517,147.606z
		 M679.881,122.141l2.906-9.489l9.692-2.233l6.784,7.254l-2.907,9.491l-9.691,2.232L679.881,122.141z M693.552,109.418l2.907-9.489
		l9.691-2.231l6.783,7.254l-2.906,9.49l-9.69,2.231L693.552,109.418z M707.224,96.696l2.907-9.489l9.691-2.233l6.783,7.255
		l-2.906,9.491l-9.69,2.231L707.224,96.696z M720.896,83.974l2.907-9.489l9.691-2.232l6.783,7.254l-2.905,9.49l-9.692,2.234
		L720.896,83.974z M734.568,71.253l2.906-9.49l9.691-2.233l6.784,7.256l-2.908,9.489l-9.69,2.234L734.568,71.253z M748.241,58.531
		l2.905-9.49l9.69-2.233l6.784,7.256l-2.908,9.489l-9.69,2.234L748.241,58.531z M749.741,48.613l-2.908,9.489l-9.69,2.233
		l-6.847-7.324l2.907-9.489l9.689-2.233L749.741,48.613z M534.683-17.28l-2.905,9.491l-9.69,2.232l-6.785-7.256l2.905-9.489
		l9.693-2.233L534.683-17.28z M521.012-4.558l-2.907,9.49l-9.688,2.233L501.63-0.09l2.907-9.491l9.691-2.233L521.012-4.558z
		 M507.342,8.164l-2.908,9.491l-9.691,2.232l-6.783-7.255l2.905-9.49l9.692-2.233L507.342,8.164z M493.67,20.885l-2.908,9.49
		l-9.69,2.234l-6.784-7.257l2.905-9.489l9.693-2.232L493.67,20.885z M479.997,33.607l-2.907,9.491l-9.691,2.233l-6.784-7.256
		l2.909-9.489l9.689-2.233L479.997,33.607z M466.325,46.331l-2.906,9.489l-9.692,2.233l-6.783-7.255l2.907-9.489l9.69-2.234
		L466.325,46.331z M452.654,59.053l-2.906,9.488l-9.691,2.234l-6.784-7.255l2.908-9.489l9.69-2.235L452.654,59.053z M425.29,84.517
		l-2.908,9.488l-9.69,2.235l-6.784-7.256l2.906-9.489l9.691-2.233L425.29,84.517z M411.618,97.239l-2.907,9.488l-9.69,2.235
		l-6.784-7.257l2.906-9.489l9.691-2.233L411.618,97.239z M397.948,109.961l-2.908,9.49l-9.69,2.233l-6.785-7.255l2.907-9.49
		l9.691-2.233L397.948,109.961z M384.274,122.684l-2.906,9.489l-9.691,2.233l-6.784-7.256l2.907-9.491l9.691-2.232L384.274,122.684z
		 M370.605,135.406l-2.907,9.489l-9.692,2.233l-6.784-7.255l2.906-9.489l9.691-2.234L370.605,135.406z M356.931,148.128
		l-2.908,9.491l-9.689,2.231l-6.784-7.255l2.907-9.489l9.691-2.235L356.931,148.128z M341.789,170.801l2.905-9.489l9.692-2.233
		l6.784,7.255l-2.907,9.491l-9.691,2.231L341.789,170.801z M359.701,176.285l2.906-9.489l9.692-2.233l6.782,7.255l-2.906,9.489
		l-9.691,2.233L359.701,176.285z M377.611,181.769l2.908-9.489l9.69-2.233l6.783,7.255l-2.907,9.491l-9.69,2.233L377.611,181.769z
		 M395.521,187.253l2.907-9.489l9.691-2.233l6.785,7.257l-2.907,9.489l-9.69,2.231L395.521,187.253z M413.434,192.736l2.905-9.487
		l9.693-2.235l6.782,7.255l-2.905,9.489l-9.691,2.235L413.434,192.736z M431.342,198.22l2.909-9.489l9.689-2.233l6.785,7.257
		l-2.908,9.489l-9.689,2.231L431.342,198.22z M449.351,203.755l2.905-9.489l9.693-2.231l6.782,7.255l-2.906,9.489l-9.69,2.231
		L449.351,203.755z M467.261,209.241l2.907-9.491l9.691-2.231l6.782,7.254l-2.907,9.491l-9.689,2.231L467.261,209.241z
		 M485.172,214.725l2.908-9.489l9.689-2.235l6.785,7.255l-2.908,9.489l-9.69,2.235L485.172,214.725z M503.084,220.207l2.905-9.489
		l9.691-2.233l6.784,7.257l-2.907,9.489l-9.691,2.233L503.084,220.207z M520.993,225.691l2.907-9.489l9.69-2.231l6.785,7.253
		l-2.909,9.489l-9.689,2.235L520.993,225.691z M538.905,231.177l2.906-9.489l9.691-2.235l6.784,7.255l-2.907,9.489l-9.69,2.235
		L538.905,231.177z M556.815,236.659l2.907-9.487l9.691-2.233l6.783,7.255l-2.908,9.489l-9.689,2.233L556.815,236.659z
		 M781.292,41.342l-2.907,9.489l-9.691,2.233l-6.784-7.255l2.908-9.49l9.69-2.232L781.292,41.342z M763.381,35.858l-2.907,9.489
		l-9.691,2.233L744,40.324l2.905-9.489l9.694-2.233L763.381,35.858z M745.471,30.374l-2.907,9.488l-9.691,2.234l-6.784-7.256
		l2.908-9.488l9.689-2.233L745.471,30.374z M727.559,24.889l-2.907,9.49l-9.69,2.232l-6.785-7.255l2.907-9.49l9.69-2.232
		L727.559,24.889z M709.65,19.405l-2.908,9.489l-9.691,2.234l-6.783-7.256l2.907-9.489l9.691-2.234L709.65,19.405z M691.739,13.92
		l-2.907,9.491l-9.691,2.231l-6.784-7.255l2.907-9.487l9.689-2.235L691.739,13.92z M673.827,8.437l-2.907,9.488l-9.691,2.234
		l-6.784-7.255l2.905-9.49l9.693-2.235L673.827,8.437z M655.82,2.902l-2.907,9.49l-9.691,2.233L636.44,7.37l2.907-9.49l9.689-2.232
		L655.82,2.902z M637.909-2.581l-2.908,9.489l-9.689,2.233l-6.783-7.254l2.904-9.491l9.694-2.232L637.909-2.581z M619.999-8.065
		l-2.908,9.489l-9.69,2.232L600.617-3.6l2.906-9.489l9.692-2.233L619.999-8.065z M602.088-13.55l-2.907,9.49l-9.691,2.232
		l-6.783-7.255l2.908-9.489l9.689-2.233L602.088-13.55z M584.177-19.034l-2.908,9.489l-9.689,2.234l-6.784-7.255l2.906-9.49
		l9.692-2.233L584.177-19.034z M566.265-24.518l-2.907,9.49l-9.689,2.232l-6.784-7.254l2.907-9.49l9.691-2.233L566.265-24.518z
		 M548.355-30.003l-2.908,9.49l-9.69,2.233l-6.784-7.255l2.906-9.49l9.691-2.232L548.355-30.003z M574.725,242.145l2.907-9.491
		l9.691-2.231l6.784,7.255l-2.907,9.489l-9.69,2.233L574.725,242.145z M588.399,229.423l2.905-9.491l9.692-2.231l6.784,7.255
		l-2.907,9.489l-9.691,2.233L588.399,229.423z M602.07,216.701l2.906-9.489l9.69-2.235l6.784,7.257l-2.907,9.487l-9.689,2.235
		L602.07,216.701z M615.74,203.977l2.905-9.489l9.694-2.231l6.782,7.253l-2.906,9.489l-9.692,2.235L615.74,203.977z
		 M629.413,191.255l2.907-9.487l9.689-2.235l6.784,7.255l-2.907,9.489l-9.691,2.235L629.413,191.255z M643.085,178.533l2.904-9.489
		l9.692-2.233l6.784,7.255l-2.907,9.489l-9.691,2.233L643.085,178.533z M656.756,165.812l2.908-9.489l9.689-2.233l6.785,7.255
		l-2.908,9.489l-9.691,2.233L656.756,165.812z M670.426,153.09l2.909-9.489l9.689-2.233l6.784,7.255l-2.907,9.489l-9.689,2.233
		L670.426,153.09z M697.792,127.625l2.907-9.49l9.689-2.233l6.786,7.256l-2.909,9.49l-9.689,2.231L697.792,127.625z
		 M711.464,114.903l2.906-9.489l9.691-2.233l6.784,7.254l-2.909,9.49l-9.689,2.234L711.464,114.903z M725.134,102.18l2.908-9.489
		l9.69-2.232l6.785,7.255l-2.909,9.49l-9.689,2.232L725.134,102.18z M738.806,89.459l2.908-9.49l9.69-2.232l6.785,7.254
		l-2.908,9.491l-9.69,2.232L738.806,89.459z M752.479,76.737l2.906-9.489l9.691-2.232l6.784,7.254l-2.907,9.491l-9.691,2.233
		L752.479,76.737z M766.149,64.015l2.906-9.489l9.692-2.234l6.785,7.256l-2.909,9.489l-9.69,2.233L766.149,64.015z M779.822,51.293
		l2.906-9.489l9.691-2.234l6.784,7.256l-2.907,9.489l-9.69,2.233L779.822,51.293z M530.444-35.487l-2.907,9.49l-9.691,2.233
		l-6.783-7.254l2.904-9.491l9.694-2.232L530.444-35.487z M516.773-22.763l-2.908,9.488l-9.69,2.233l-6.784-7.256l2.907-9.488
		l9.689-2.233L516.773-22.763z M503.101-10.042l-2.908,9.49l-9.69,2.232l-6.784-7.254l2.907-9.49l9.691-2.233L503.101-10.042z
		 M489.431,2.68l-2.909,9.49l-9.69,2.233l-6.785-7.256l2.909-9.488l9.689-2.234L489.431,2.68z M475.757,15.401l-2.907,9.49
		l-9.691,2.233l-6.782-7.255l2.905-9.49l9.691-2.233L475.757,15.401z M462.086,28.124l-2.907,9.49l-9.69,2.232l-6.783-7.254
		l2.907-9.491l9.688-2.233L462.086,28.124z M448.415,40.846l-2.905,9.49l-9.693,2.232l-6.783-7.254l2.907-9.491l9.692-2.232
		L448.415,40.846z M434.743,53.569l-2.908,9.489l-9.689,2.233l-6.783-7.255l2.906-9.489l9.691-2.235L434.743,53.569z
		 M407.378,79.032l-2.908,9.489l-9.688,2.234l-6.785-7.255l2.908-9.49l9.69-2.233L407.378,79.032z M393.708,91.754l-2.908,9.491
		l-9.691,2.233l-6.784-7.256l2.908-9.49l9.69-2.232L393.708,91.754z M380.036,104.477l-2.908,9.488l-9.69,2.234l-6.786-7.255
		l2.908-9.489l9.691-2.234L380.036,104.477z M366.364,117.199l-2.908,9.489l-9.69,2.235l-6.782-7.257l2.905-9.49l9.69-2.233
		L366.364,117.199z M352.692,129.922l-2.908,9.489l-9.689,2.233l-6.784-7.257l2.905-9.487l9.691-2.234L352.692,129.922z
		 M339.02,142.644l-2.905,9.489l-9.691,2.233l-6.784-7.255l2.906-9.489l9.692-2.233L339.02,142.644z M325.35,155.366l-2.906,9.489
		l-9.691,2.233l-6.784-7.255l2.905-9.489l9.692-2.233L325.35,155.366z M310.208,178.038l2.905-9.487l9.692-2.235l6.784,7.257
		l-2.909,9.487l-9.69,2.233L310.208,178.038z M328.117,183.522l2.908-9.489l9.69-2.233l6.784,7.255l-2.908,9.489l-9.69,2.235
		L328.117,183.522z M346.029,189.006l2.906-9.489l9.692-2.233l6.783,7.255l-2.905,9.489l-9.691,2.233L346.029,189.006z
		 M363.939,194.49l2.906-9.487l9.691-2.235l6.785,7.255l-2.909,9.489l-9.689,2.235L363.939,194.49z M381.85,199.974l2.907-9.487
		l9.692-2.235l6.782,7.255l-2.906,9.489l-9.69,2.235L381.85,199.974z M399.762,205.46l2.905-9.491l9.693-2.233l6.781,7.255
		l-2.906,9.491l-9.69,2.233L399.762,205.46z M417.672,210.942l2.907-9.487l9.691-2.233l6.783,7.253l-2.907,9.489l-9.692,2.235
		L417.672,210.942z M435.679,216.479l2.906-9.491l9.692-2.231l6.783,7.255l-2.907,9.489l-9.689,2.231L435.679,216.479z
		 M453.588,221.963l2.909-9.491l9.689-2.233l6.784,7.255l-2.906,9.489l-9.691,2.235L453.588,221.963z M471.501,227.445l2.907-9.487
		l9.691-2.235l6.784,7.255l-2.908,9.489l-9.69,2.235L471.501,227.445z M489.411,232.931l2.907-9.489l9.691-2.235l6.783,7.257
		l-2.906,9.489l-9.692,2.233L489.411,232.931z M507.322,238.415l2.908-9.489l9.689-2.235l6.785,7.255l-2.908,9.491l-9.69,2.233
		L507.322,238.415z M525.233,243.897l2.905-9.487l9.692-2.233l6.783,7.255l-2.907,9.489l-9.69,2.235L525.233,243.897z
		 M543.144,249.385l2.907-9.491l9.69-2.235l6.784,7.257l-2.906,9.489l-9.691,2.233L543.144,249.385z M561.055,254.869l2.905-9.491
		l9.693-2.233l6.784,7.257l-2.908,9.487l-9.69,2.233L561.055,254.869z M812.875,34.104l-2.907,9.489l-9.689,2.234l-6.786-7.257
		l2.908-9.489l9.69-2.233L812.875,34.104z M794.964,28.62l-2.908,9.49l-9.69,2.232l-6.784-7.256l2.907-9.49l9.691-2.232
		L794.964,28.62z M777.053,23.136l-2.906,9.488l-9.692,2.234l-6.783-7.256l2.906-9.489l9.691-2.232L777.053,23.136z M759.142,17.651
		l-2.908,9.489l-9.69,2.233l-6.784-7.255l2.908-9.49l9.69-2.233L759.142,17.651z M741.23,12.166l-2.906,9.49l-9.691,2.234
		l-6.783-7.257l2.906-9.488l9.691-2.233L741.23,12.166z M723.32,6.683l-2.907,9.489l-9.689,2.234l-6.787-7.257l2.909-9.489
		l9.69-2.233L723.32,6.683z M705.409,1.199l-2.907,9.489l-9.691,2.233l-6.784-7.256l2.908-9.489l9.69-2.234L705.409,1.199z
		 M687.498-4.285l-2.907,9.489l-9.69,2.233l-6.784-7.256l2.906-9.488l9.69-2.234L687.498-4.285z M669.491-9.82l-2.906,9.49
		l-9.691,2.232l-6.785-7.255l2.908-9.489l9.69-2.233L669.491-9.82z M651.581-15.304l-2.908,9.489l-9.69,2.233l-6.783-7.255
		l2.905-9.489l9.691-2.233L651.581-15.304z M633.671-20.788l-2.909,9.49l-9.689,2.233l-6.784-7.256l2.906-9.489l9.69-2.234
		L633.671-20.788z M615.76-26.272l-2.908,9.489l-9.69,2.233l-6.785-7.254l2.907-9.49l9.691-2.233L615.76-26.272z M597.848-31.756
		l-2.905,9.489l-9.69,2.234l-6.785-7.255l2.906-9.49l9.693-2.233L597.848-31.756z M579.938-37.24l-2.908,9.489l-9.689,2.233
		l-6.785-7.255l2.907-9.489l9.69-2.234L579.938-37.24z M562.026-42.724l-2.906,9.489l-9.691,2.233l-6.783-7.256l2.907-9.488
		l9.689-2.233L562.026-42.724z M544.117-48.208l-2.91,9.489l-9.688,2.233l-6.784-7.255l2.906-9.491l9.69-2.232L544.117-48.208z
		 M688.338,158.574l2.907-9.489l9.691-2.235l6.784,7.257l-2.906,9.489l-9.691,2.233L688.338,158.574z M416.832,48.083l-2.906,9.49
		l-9.69,2.234l-6.784-7.254l2.907-9.49l9.691-2.235L416.832,48.083z M278.624,185.276l2.906-9.489l9.692-2.233l6.784,7.255
		L295.1,190.3l-9.692,2.231L278.624,185.276z M296.537,190.758l2.906-9.487l9.691-2.233l6.784,7.255l-2.907,9.489l-9.691,2.233
		L296.537,190.758z M314.447,196.244l2.906-9.489l9.692-2.233l6.784,7.255l-2.907,9.491l-9.691,2.233L314.447,196.244z
		 M332.358,201.728l2.905-9.489l9.693-2.233l6.784,7.255l-2.906,9.491l-9.692,2.233L332.358,201.728z M350.269,207.212l2.906-9.489
		l9.69-2.233l6.784,7.257l-2.907,9.487l-9.69,2.235L350.269,207.212z M368.179,212.698l2.906-9.489l9.691-2.233l6.784,7.253
		l-2.908,9.489l-9.69,2.235L368.179,212.698z M386.09,218.182l2.906-9.489l9.691-2.235l6.784,7.255l-2.907,9.489l-9.69,2.235
		L386.09,218.182z M404,223.666l2.907-9.489l9.689-2.235l6.785,7.257l-2.907,9.489l-9.69,2.231L404,223.666z M422.007,229.201
		l2.908-9.491l9.69-2.233l6.784,7.255l-2.906,9.491l-9.691,2.233L422.007,229.201z M439.919,234.683l2.905-9.489l9.692-2.235
		l6.782,7.257l-2.907,9.491l-9.69,2.233L439.919,234.683z M457.828,240.167l2.908-9.487l9.689-2.235l6.785,7.257l-2.908,9.489
		l-9.689,2.233L457.828,240.167z M475.74,245.651l2.906-9.489l9.692-2.233l6.783,7.255l-2.905,9.491l-9.69,2.233L475.74,245.651z
		 M493.649,251.137l2.908-9.491l9.691-2.233l6.784,7.257l-2.908,9.489l-9.69,2.233L493.649,251.137z M511.562,256.623l2.907-9.491
		l9.689-2.233l6.786,7.255l-2.908,9.489l-9.69,2.233L511.562,256.623z M529.472,262.107l2.906-9.491l9.691-2.233l6.784,7.255
		l-2.907,9.489l-9.69,2.233L529.472,262.107z M547.383,267.59l2.909-9.491l9.689-2.233l6.784,7.255l-2.908,9.489l-9.689,2.233
		L547.383,267.59z M565.294,273.072l2.906-9.489l9.692-2.233l6.783,7.255l-2.905,9.491l-9.691,2.231L565.294,273.072z
		 M844.457,26.866l-2.908,9.488l-9.69,2.234l-6.785-7.255l2.909-9.491l9.69-2.231L844.457,26.866z M826.545,21.381l-2.905,9.489
		l-9.691,2.233l-6.784-7.254l2.904-9.49l9.694-2.234L826.545,21.381z M808.636,15.897l-2.906,9.489l-9.691,2.234l-6.785-7.256
		l2.907-9.49l9.69-2.231L808.636,15.897z M790.725,10.414l-2.909,9.489l-9.689,2.232l-6.783-7.255l2.906-9.49l9.69-2.231
		L790.725,10.414z M772.815,4.929l-2.908,9.49l-9.691,2.233l-6.784-7.255l2.909-9.489l9.689-2.234L772.815,4.929z M754.903-0.554
		l-2.908,9.49l-9.689,2.231l-6.785-7.255l2.907-9.489l9.69-2.232L754.903-0.554z M736.991-6.039l-2.905,9.489l-9.692,2.234
		l-6.783-7.256l2.905-9.488l9.693-2.234L736.991-6.039z M719.081-11.522l-2.907,9.488l-9.691,2.233l-6.785-7.255l2.91-9.489
		l9.689-2.233L719.081-11.522z M701.17-17.007l-2.907,9.49l-9.69,2.232l-6.783-7.255l2.905-9.489l9.691-2.233L701.17-17.007z
		 M683.164-22.542l-2.908,9.489l-9.69,2.233l-6.783-7.254l2.908-9.49l9.69-2.233L683.164-22.542z M665.253-28.026l-2.908,9.489
		l-9.691,2.233l-6.782-7.255l2.906-9.489l9.689-2.234L665.253-28.026z M647.342-33.511l-2.907,9.49l-9.69,2.234l-6.784-7.255
		l2.905-9.491l9.693-2.232L647.342-33.511z M629.43-38.994l-2.907,9.489l-9.69,2.233l-6.784-7.254l2.908-9.49l9.689-2.233
		L629.43-38.994z M611.521-44.478l-2.908,9.489l-9.69,2.233l-6.784-7.255l2.907-9.49l9.691-2.232L611.521-44.478z M593.61-49.963
		l-2.908,9.49l-9.69,2.233l-6.785-7.255l2.906-9.491l9.693-2.231L593.61-49.963z M575.699-55.447l-2.908,9.489l-9.691,2.233
		l-6.783-7.254l2.908-9.489l9.689-2.234L575.699-55.447z M557.787-60.93l-2.907,9.489l-9.69,2.233l-6.783-7.256l2.905-9.49
		l9.692-2.232L557.787-60.93z M539.877-66.416l-2.908,9.49l-9.69,2.234l-6.783-7.255l2.906-9.49l9.689-2.234L539.877-66.416z
		 M247.042,192.514l2.907-9.489l9.69-2.233l6.782,7.255l-2.905,9.491l-9.691,2.231L247.042,192.514z M264.952,197.998l2.908-9.489
		l9.69-2.233l6.785,7.257l-2.906,9.487l-9.692,2.235L264.952,197.998z M282.864,203.482l2.906-9.489l9.692-2.231l6.782,7.253
		l-2.904,9.489l-9.691,2.233L282.864,203.482z M300.774,208.966l2.907-9.487l9.691-2.235l6.785,7.255l-2.908,9.491l-9.689,2.233
		L300.774,208.966z M318.686,214.45l2.906-9.489l9.691-2.233l6.786,7.255l-2.91,9.489l-9.689,2.235L318.686,214.45z
		 M336.598,219.934l2.906-9.489l9.691-2.233l6.783,7.255l-2.907,9.491l-9.69,2.235L336.598,219.934z M354.507,225.42l2.907-9.491
		l9.691-2.231l6.783,7.255l-2.905,9.489l-9.691,2.233L354.507,225.42z M372.418,230.904l2.907-9.491l9.691-2.233l6.782,7.257
		l-2.905,9.489l-9.69,2.233L372.418,230.904z M390.329,236.388l2.907-9.489l9.691-2.233l6.784,7.253l-2.905,9.491l-9.694,2.233
		L390.329,236.388z M408.336,241.921l2.907-9.487l9.69-2.235l6.784,7.255l-2.907,9.491l-9.691,2.233L408.336,241.921z
		 M426.246,247.405l2.907-9.487l9.691-2.233l6.783,7.255l-2.907,9.489l-9.69,2.233L426.246,247.405z M444.157,252.891l2.907-9.491
		l9.691-2.233l6.784,7.257l-2.907,9.489l-9.692,2.233L444.157,252.891z M462.068,258.375l2.905-9.489l9.692-2.233l6.783,7.255
		l-2.907,9.489l-9.689,2.233L462.068,258.375z M479.979,263.858l2.907-9.489l9.69-2.233l6.784,7.255l-2.907,9.489l-9.691,2.233
		L479.979,263.858z M497.889,269.342l2.906-9.489l9.694-2.233l6.782,7.255l-2.909,9.491l-9.689,2.231L497.889,269.342z
		 M515.8,274.826l2.908-9.491l9.69-2.231l6.785,7.255l-2.908,9.491l-9.691,2.231L515.8,274.826z M533.711,280.31l2.908-9.489
		l9.69-2.233l6.783,7.255l-2.906,9.489l-9.691,2.233L533.711,280.31z M551.623,285.794l2.905-9.489l9.692-2.233l6.784,7.255
		l-2.907,9.489l-9.69,2.233L551.623,285.794z M576.316,298.536l-6.783-7.257l2.907-9.489l9.691-2.233l6.784,7.255l-2.909,9.489
		L576.316,298.536z M589.989,285.814l-6.785-7.255l2.907-9.491l9.691-2.233l6.785,7.255l-2.909,9.489L589.989,285.814z
		 M603.66,273.09l-6.784-7.255l2.908-9.489l9.69-2.233l6.784,7.255l-2.907,9.489L603.66,273.09z M617.332,260.368l-6.784-7.255
		l2.907-9.489l9.691-2.233l6.784,7.255l-2.907,9.489L617.332,260.368z M631.003,247.646l-6.784-7.255l2.906-9.489l9.691-2.233
		l6.784,7.255l-2.907,9.491L631.003,247.646z M644.675,234.924l-6.784-7.255l2.907-9.491l9.691-2.231l6.784,7.255l-2.907,9.489
		L644.675,234.924z M658.348,222.203l-6.784-7.255l2.905-9.491l9.691-2.233l6.785,7.255l-2.907,9.491L658.348,222.203z
		 M672.02,209.481l-6.786-7.255l2.908-9.491l9.689-2.233l6.785,7.255l-2.907,9.489L672.02,209.481z M685.691,196.759l-6.783-7.255
		l2.905-9.491l9.692-2.231l6.783,7.253l-2.906,9.489L685.691,196.759z M699.361,184.035l-6.784-7.255l2.907-9.489l9.69-2.233
		l6.784,7.255l-2.908,9.489L699.361,184.035z M725.629,159.591l-2.906,9.489l-9.691,2.233l-6.781-7.255l2.904-9.489l9.69-2.233
		L725.629,159.591z M726.726,158.572l-6.783-7.255l2.905-9.489l9.692-2.233l6.784,7.255l-2.906,9.489L726.726,158.572z
		 M740.398,145.85l-6.784-7.255l2.907-9.491l9.692-2.233l6.784,7.257l-2.908,9.489L740.398,145.85z M754.068,133.128l-6.781-7.257
		l2.905-9.489l9.692-2.233l6.782,7.256l-2.905,9.489L754.068,133.128z M767.741,120.405l-6.784-7.256l2.906-9.488l9.69-2.233
		l6.786,7.255l-2.908,9.489L767.741,120.405z M781.413,107.684l-6.784-7.257l2.907-9.488l9.691-2.233l6.782,7.254l-2.907,9.49
		L781.413,107.684z M795.084,94.962l-6.785-7.256l2.909-9.49l9.69-2.232l6.784,7.255l-2.908,9.49L795.084,94.962z M808.756,82.238
		l-6.785-7.254l2.908-9.49l9.69-2.233l6.785,7.255l-2.908,9.49L808.756,82.238z M822.427,69.516l-6.785-7.255l2.909-9.489
		l9.691-2.233l6.782,7.255l-2.906,9.489L822.427,69.516z M836.098,56.795l-6.784-7.257l2.907-9.488l9.691-2.233l6.784,7.255
		l-2.907,9.489L836.098,56.795z M849.771,44.071l-6.784-7.255l2.906-9.488l9.691-2.234l6.785,7.256l-2.907,9.489L849.771,44.071z
		 M876.04,19.628l-2.908,9.489l-9.69,2.233l-6.785-7.255l2.908-9.49l9.69-2.233L876.04,19.628z M858.129,14.144l-2.907,9.489
		l-9.691,2.232l-6.784-7.256l2.906-9.488l9.693-2.234L858.129,14.144z M840.218,8.66l-2.907,9.489l-9.692,2.234l-6.783-7.257
		l2.907-9.489l9.69-2.233L840.218,8.66z M822.307,3.176l-2.907,9.489l-9.69,2.232l-6.785-7.255l2.907-9.488l9.692-2.234
		L822.307,3.176z M804.395-2.308l-2.907,9.488l-9.691,2.235l-6.782-7.255l2.906-9.491l9.69-2.233L804.395-2.308z M786.485-7.792
		l-2.907,9.49l-9.69,2.233l-6.786-7.257l2.907-9.489l9.693-2.233L786.485-7.792z M768.574-13.276l-2.906,9.489l-9.691,2.233
		l-6.784-7.256l2.907-9.489l9.691-2.234L768.574-13.276z M750.663-18.761l-2.907,9.49l-9.69,2.232l-6.784-7.255l2.906-9.488
		l9.691-2.233L750.663-18.761z M732.753-24.245l-2.907,9.49l-9.691,2.232l-6.784-7.255l2.908-9.489l9.69-2.234L732.753-24.245z
		 M714.841-29.729l-2.907,9.489l-9.69,2.233l-6.784-7.255l2.907-9.489l9.69-2.235L714.841-29.729z M696.835-35.264l-2.907,9.489
		l-9.69,2.233l-6.785-7.255l2.907-9.489l9.691-2.233L696.835-35.264z M678.924-40.748l-2.907,9.489l-9.69,2.233l-6.784-7.255
		l2.907-9.49l9.69-2.233L678.924-40.748z M661.012-46.232l-2.907,9.489l-9.688,2.234l-6.785-7.255l2.907-9.49l9.69-2.233
		L661.012-46.232z M643.103-51.716l-2.908,9.489l-9.69,2.233l-6.784-7.256l2.907-9.489l9.691-2.233L643.103-51.716z M625.19-57.2
		l-2.906,9.489l-9.692,2.232l-6.781-7.255l2.906-9.49l9.689-2.233L625.19-57.2z M607.28-62.686l-2.907,9.49l-9.689,2.234
		l-6.784-7.256l2.906-9.49l9.69-2.232L607.28-62.686z M589.369-68.169l-2.907,9.49l-9.689,2.233l-6.784-7.255l2.907-9.489
		l9.691-2.234L589.369-68.169z M571.458-73.653l-2.904,9.489l-9.692,2.234l-6.784-7.255l2.907-9.49l9.69-2.233L571.458-73.653z
		 M553.549-79.138l-2.909,9.49l-9.688,2.234l-6.786-7.255l2.909-9.491l9.689-2.232L553.549-79.138z M528.853-91.877l6.784,7.255
		l-2.908,9.49l-9.69,2.233l-6.782-7.256l2.906-9.488L528.853-91.877z M515.181-79.155l6.784,7.255l-2.908,9.491l-9.69,2.232
		l-6.783-7.254l2.906-9.49L515.181-79.155z M501.51-66.431l6.783,7.254l-2.904,9.49l-9.691,2.233l-6.784-7.255l2.906-9.491
		L501.51-66.431z M487.839-53.709l6.783,7.255l-2.907,9.489l-9.689,2.233l-6.785-7.254l2.907-9.491L487.839-53.709z M474.167-40.988
		l6.784,7.254l-2.908,9.49l-9.689,2.234l-6.785-7.255l2.906-9.491L474.167-40.988z M460.496-28.265l6.783,7.253l-2.908,9.491
		l-9.688,2.233l-6.785-7.256l2.906-9.489L460.496-28.265z M446.824-15.544l6.785,7.255L450.701,1.2l-9.69,2.234l-6.784-7.255
		l2.908-9.491L446.824-15.544z M433.153-2.822l6.783,7.255l-2.907,9.49l-9.689,2.233l-6.786-7.255l2.909-9.49L433.153-2.822z
		 M419.479,9.9l6.786,7.256l-2.907,9.489l-9.691,2.233l-6.785-7.256l2.908-9.489L419.479,9.9z M405.809,22.623l6.783,7.255
		l-2.907,9.489l-9.688,2.233l-6.787-7.254l2.909-9.49L405.809,22.623z M379.541,47.068l2.907-9.49l9.69-2.232l6.783,7.254
		l-2.907,9.49l-9.691,2.231L379.541,47.068z M378.444,48.087l6.785,7.254l-2.907,9.49l-9.69,2.233l-6.786-7.255l2.908-9.49
		L378.444,48.087z M364.773,60.809l6.785,7.255l-2.907,9.49l-9.691,2.232l-6.784-7.255l2.906-9.489L364.773,60.809z M351.101,73.532
		l6.784,7.255l-2.907,9.49l-9.692,2.233l-6.783-7.257l2.905-9.489L351.101,73.532z M337.429,86.253l6.786,7.256l-2.909,9.49
		l-9.688,2.232l-6.785-7.255l2.907-9.49L337.429,86.253z M323.758,98.974l6.784,7.255l-2.907,9.491l-9.69,2.233l-6.784-7.256
		l2.906-9.49L323.758,98.974z M310.086,111.696l6.785,7.255l-2.908,9.489l-9.69,2.236l-6.784-7.256l2.906-9.49L310.086,111.696z
		 M296.416,124.419l6.784,7.255l-2.907,9.491l-9.691,2.233l-6.783-7.257l2.906-9.489L296.416,124.419z M282.742,137.141l6.785,7.257
		l-2.908,9.487l-9.689,2.235l-6.784-7.255l2.907-9.491L282.742,137.141z M269.072,149.864l6.782,7.255l-2.904,9.489l-9.692,2.235
		l-6.784-7.257l2.906-9.489L269.072,149.864z M255.401,162.586l6.783,7.257l-2.907,9.487l-9.69,2.233l-6.785-7.255l2.905-9.489
		L255.401,162.586z M229.131,187.032l2.906-9.491l9.692-2.233l6.785,7.255l-2.909,9.491l-9.689,2.231L229.131,187.032z"/>
	<path clip-path="url(#SVGID_2_)" fill="#76E5E2" d="M-112.403,84.128l7.394,7.908l10.517-2.424l7.396,7.908l10.516-2.423
		l7.394,7.907l10.517-2.422l7.393,7.908l10.517-2.424l7.394,7.906l10.517-2.423l7.395,7.908l10.517-2.423l7.393,7.906l10.516-2.423
		l7.393,7.908l10.518-2.423l7.393,7.907l10.557-2.432l7.451,7.969l10.517-2.424l7.393,7.906l10.518-2.422l7.394,7.908l10.517-2.424
		l7.393,7.906l10.518-2.422l7.393,7.906l10.518-2.424l7.393,7.91l10.517-2.422l7.393,7.904l10.517-2.422l7.394,7.906l10.517-2.422
		l7.392,7.908l10.519-2.422l7.393,7.906l11.344-2.613l3.154-10.3l10.519-2.424l3.153-10.298l10.516-2.422l3.154-10.3l10.517-2.424
		l3.156-10.3l10.517-2.422L286.668,127l10.517-2.424l3.153-10.298l10.519-2.424l3.153-10.299l10.517-2.421l3.154-10.3L338.2,86.41
		l3.153-10.299l10.517-2.423l3.155-10.299l10.518-2.423l3.159-10.314l10.534-2.428l3.153-10.299l10.518-2.422l3.154-10.298
		l10.52-2.424l3.153-10.299l10.517-2.423l3.155-10.299l10.518-2.423l3.153-10.299l10.518-2.423l3.154-10.3l10.516-2.422
		l3.157-10.299l10.516-2.423l3.155-10.301l10.517-2.422l3.156-10.298l10.518-2.424l3.153-10.3l10.517-2.422l3.401-11.108
		l-7.938-8.492l-10.52,2.423l-7.393-7.908l-10.517,2.423l-7.393-7.907l-10.518,2.424l-7.393-7.909l-10.517,2.425l-7.396-7.908
		l-10.516,2.423l-7.392-7.908l-10.519,2.425l-7.394-7.908l-10.516,2.424l-7.393-7.909l-10.521,2.423l-7.391-7.906l-10.517,2.424
		l-7.396-7.91l-10.556,2.435l-7.45-7.969l-10.517,2.423l-7.395-7.906l-10.515,2.422l-7.394-7.906l-10.52,2.422l-7.391-7.907
		l-10.517,2.423l-7.394-7.907l-10.517,2.424l-7.393-7.908l-10.517,2.423l-7.394-7.907l-10.517,2.423l-7.394-7.908l-10.518,2.423
		l-7.393-7.906l-10.516,2.422l-7.394-7.907l-11.343,2.613l-3.154,10.299l-10.517,2.424l-3.154,10.298l-10.518,2.424l-3.153,10.298
		l-10.518,2.424l-3.153,10.298l-10.518,2.424l-3.155,10.3l-10.517,2.422l-3.154,10.3l-10.516,2.421l-3.157,10.3l-10.516,2.423
		l-3.155,10.298l-10.517,2.425l-3.156,10.299l-10.515,2.422l-3.156,10.299L22.951-73.01l-3.159,10.314L9.258-60.269l-3.153,10.3
		l-10.518,2.422L-7.568-37.25l-10.518,2.425l-3.153,10.299l-10.516,2.423l-3.157,10.299l-10.515,2.423l-3.155,10.298l-10.517,2.424
		l-3.155,10.299l-10.518,2.424l-3.154,10.298l-10.516,2.424l-3.155,10.298l-10.517,2.424l-3.155,10.298l-10.517,2.425l-3.154,10.299
		l-10.516,2.423l-3.403,11.107l7.941,8.492L-112.403,84.128z M-97.625,70.441l2.907-9.49l9.691-2.231l6.785,7.253l-2.907,9.491
		l-9.692,2.233L-97.625,70.441z M-83.954,57.718l2.907-9.489l9.692-2.232l6.783,7.255l-2.908,9.489l-9.689,2.234L-83.954,57.718z
		 M-70.282,44.996l2.909-9.491l9.689-2.231l6.785,7.255l-2.906,9.489l-9.692,2.234L-70.282,44.996z M-56.611,32.274l2.907-9.488
		l9.693-2.234l6.783,7.255l-2.907,9.489l-9.691,2.234L-56.611,32.274z M-42.937,19.55l2.905-9.486l9.692-2.235l6.785,7.257
		l-2.906,9.488l-9.692,2.233L-42.937,19.55z M-29.267,6.83l2.907-9.488l9.691-2.235l6.785,7.257l-2.908,9.487l-9.69,2.235
		L-29.267,6.83z M-15.595-5.892l2.906-9.489l9.69-2.233l6.783,7.254L0.88-0.869l-9.691,2.233L-15.595-5.892z M-1.924-18.614
		l2.907-9.489l9.691-2.234l6.784,7.255l-2.906,9.491l-9.69,2.233L-1.924-18.614z M11.749-31.335l2.905-9.491l9.691-2.233
		l6.783,7.256l-2.905,9.49l-9.691,2.233L11.749-31.335z M25.42-44.058l2.907-9.491l9.69-2.231l6.783,7.254l-2.906,9.491
		l-9.691,2.231L25.42-44.058z M52.783-69.523l2.905-9.489l9.693-2.233l6.784,7.254L69.259-64.5l-9.69,2.233L52.783-69.523z
		 M66.455-82.244l2.905-9.491l9.694-2.231l6.783,7.254l-2.907,9.489l-9.691,2.234L66.455-82.244z M80.128-94.966l2.906-9.49
		l9.692-2.233l6.783,7.254l-2.906,9.491l-9.69,2.233L80.128-94.966z M93.8-107.689l2.904-9.489l9.694-2.233l6.782,7.255
		l-2.907,9.489l-9.69,2.233L93.8-107.689z M107.47-120.411l2.908-9.49l9.689-2.233l6.784,7.255l-2.906,9.49l-9.693,2.232
		L107.47-120.411z M121.143-133.133l2.905-9.489l9.69-2.233l6.785,7.254l-2.907,9.49l-9.691,2.233L121.143-133.133z
		 M134.813-145.855l2.908-9.489l9.688-2.234l6.785,7.255l-2.907,9.49l-9.69,2.233L134.813-145.855z M148.483-158.577l2.909-9.489
		l9.691-2.234l6.784,7.256l-2.907,9.489l-9.69,2.233L148.483-158.577z M472.447-69.764l-2.907,9.489l-9.691,2.234l-6.782-7.256
		l2.905-9.49l9.691-2.233L472.447-69.764z M458.775-57.042l-2.906,9.491l-9.691,2.232l-6.783-7.256l2.906-9.49l9.69-2.232
		L458.775-57.042z M445.103-44.32l-2.906,9.49l-9.691,2.234l-6.782-7.255l2.905-9.492l9.691-2.232L445.103-44.32z M431.433-31.598
		l-2.908,9.491l-9.69,2.232l-6.784-7.256l2.906-9.489l9.692-2.232L431.433-31.598z M417.762-18.876l-2.907,9.491l-9.691,2.231
		l-6.784-7.253l2.906-9.49l9.692-2.233L417.762-18.876z M404.089-6.153l-2.907,9.49l-9.691,2.233l-6.784-7.256l2.906-9.489
		l9.693-2.234L404.089-6.153z M390.418,6.569l-2.907,9.489l-9.69,2.232l-6.784-7.256l2.906-9.488l9.691-2.232L390.418,6.569z
		 M376.746,19.291l-2.908,9.487l-9.69,2.235l-6.784-7.256l2.907-9.488l9.691-2.234L376.746,19.291z M363.075,32.014l-2.908,9.488
		l-9.69,2.234l-6.785-7.255l2.908-9.49l9.691-2.234L363.075,32.014z M335.71,57.476l-2.907,9.489l-9.69,2.233l-6.784-7.254
		l2.906-9.49l9.692-2.232L335.71,57.476z M322.039,70.199l-2.908,9.49l-9.69,2.233l-6.785-7.257l2.906-9.488l9.691-2.233
		L322.039,70.199z M308.367,82.921l-2.908,9.49l-9.69,2.234l-6.783-7.256l2.906-9.489l9.69-2.234L308.367,82.921z M294.696,95.643
		l-2.908,9.49l-9.69,2.233l-6.785-7.256l2.907-9.489l9.69-2.232L294.696,95.643z M281.022,108.366l-2.905,9.49l-9.691,2.232
		l-6.784-7.255l2.907-9.489l9.69-2.234L281.022,108.366z M267.352,121.088l-2.907,9.489l-9.69,2.233l-6.784-7.254l2.906-9.49
		l9.689-2.234L267.352,121.088z M253.679,133.812l-2.907,9.489l-9.69,2.231l-6.782-7.255l2.904-9.489l9.691-2.233L253.679,133.812z
		 M240.009,146.532l-2.907,9.489l-9.69,2.231l-6.785-7.255l2.907-9.487l9.692-2.231L240.009,146.532z M-66.042,63.203l2.906-9.49
		l9.691-2.233l6.784,7.255l-2.907,9.491l-9.69,2.231L-66.042,63.203z M43.33-38.574l2.907-9.49l9.689-2.233l6.786,7.256l-2.908,9.49
		l-9.689,2.232L43.33-38.574z M345.163,26.529l-2.905,9.489l-9.692,2.233l-6.783-7.255l2.905-9.489l9.693-2.235L345.163,26.529z
		 M-34.461,55.965l2.907-9.49l9.689-2.232l6.788,7.255l-2.909,9.488l-9.69,2.234L-34.461,55.965z M61.241-33.09l2.906-9.49
		l9.693-2.233l6.784,7.256l-2.908,9.491l-9.69,2.231L61.241-33.09z M327.253,21.045l-2.907,9.489l-9.691,2.233l-6.784-7.256
		l2.907-9.488l9.691-2.234L327.253,21.045z M373.46-66.255l-2.908,9.486l-9.689,2.235l-6.784-7.255l2.908-9.489l9.69-2.234
		L373.46-66.255z M79.152-27.606l2.907-9.489l9.69-2.233l6.784,7.255l-2.907,9.49l-9.69,2.233L79.152-27.606z M309.343,15.561
		l-2.908,9.489l-9.69,2.233l-6.783-7.257l2.905-9.487l9.691-2.235L309.343,15.561z M10.795,36.004l2.905-9.488l9.693-2.234
		l6.782,7.256l-2.905,9.488l-9.691,2.233L10.795,36.004z M24.465,23.282l2.907-9.489l9.691-2.233l6.784,7.257l-2.907,9.488
		l-9.689,2.232L24.465,23.282z M38.138,10.56l2.906-9.488l9.691-2.233l6.785,7.255l-2.908,9.489l-9.691,2.233L38.138,10.56z
		 M51.809-2.161l2.906-9.489l9.692-2.235l6.783,7.256L68.283,2.86l-9.689,2.234L51.809-2.161z M106.516-53.07l2.907-9.49
		l9.691-2.233l6.787,7.256l-2.909,9.489l-9.689,2.234L106.516-53.07z M120.189-65.792l2.905-9.49l9.694-2.232l6.782,7.253
		l-2.907,9.49l-9.691,2.234L120.189-65.792z M133.86-78.514l2.906-9.49l9.69-2.233l6.784,7.256l-2.906,9.489l-9.691,2.233
		L133.86-78.514z M147.532-91.237l2.905-9.49l9.69-2.232l6.785,7.255l-2.908,9.489l-9.69,2.233L147.532-91.237z M161.204-103.96
		l2.906-9.489l9.69-2.233l6.785,7.256l-2.907,9.489l-9.69,2.232L161.204-103.96z M364.028-35.328l-2.906,9.49l-9.691,2.233
		l-6.786-7.255l2.907-9.49l9.691-2.233L364.028-35.328z M350.356-22.605l-2.906,9.49l-9.692,2.233l-6.783-7.256l2.906-9.49
		l9.691-2.233L350.356-22.605z M336.685-9.883l-2.907,9.49l-9.69,2.231l-6.786-7.255l2.909-9.491l9.69-2.231L336.685-9.883z
		 M281.977,41.025l-2.907,9.49l-9.691,2.234l-6.782-7.257l2.906-9.489l9.691-2.233L281.977,41.025z M268.306,53.746l-2.908,9.49
		l-9.69,2.234l-6.784-7.257l2.906-9.489l9.69-2.233L268.306,53.746z M254.633,66.469l-2.906,9.49l-9.691,2.233l-6.784-7.255
		l2.907-9.491l9.693-2.231L254.633,66.469z M240.962,79.19l-2.908,9.491l-9.689,2.232l-6.784-7.256l2.905-9.489l9.69-2.232
		L240.962,79.19z M227.29,91.914l-2.907,9.489l-9.691,2.233l-6.782-7.255l2.906-9.489l9.69-2.234L227.29,91.914z M97.063-22.121
		l2.907-9.489l9.691-2.235l6.784,7.257l-2.907,9.488l-9.692,2.234L97.063-22.121z M346.118-40.812l-2.908,9.491l-9.691,2.232
		l-6.784-7.256l2.907-9.489l9.691-2.232L346.118-40.812z M291.429,10.076l-2.905,9.49l-9.691,2.231l-6.784-7.254l2.905-9.49
		l9.691-2.232L291.429,10.076z M114.974-16.638l2.906-9.489l9.692-2.234l6.783,7.255l-2.907,9.49l-9.691,2.234L114.974-16.638z
		 M314.535-33.574l-2.908,9.489l-9.69,2.235l-6.784-7.256l2.908-9.489l9.691-2.234L314.535-33.574z M273.521,4.592l-2.907,9.49
		l-9.69,2.233l-6.785-7.256l2.907-9.489l9.689-2.232L273.521,4.592z M119.215,1.569l2.904-9.49l9.691-2.232l6.784,7.255
		l-2.907,9.488l-9.691,2.234L119.215,1.569z M132.884-11.153l2.907-9.49l9.689-2.233l6.786,7.256l-2.907,9.488l-9.691,2.234
		L132.884-11.153z M282.952-26.336l-2.908,9.489l-9.691,2.235l-6.784-7.256l2.907-9.489l9.691-2.233L282.952-26.336z
		 M269.281-13.614l-2.908,9.49l-9.691,2.233L249.9-9.146l2.906-9.49l9.69-2.233L269.281-13.614z M255.609-0.892l-2.91,9.49
		l-9.687,2.232l-6.784-7.254l2.904-9.49l9.691-2.232L255.609-0.892z M160.249-36.618l2.906-9.49l9.691-2.232l6.783,7.256
		l-2.904,9.489l-9.692,2.232L160.249-36.618z M228.245,24.574l-2.908,9.488l-9.69,2.233l-6.783-7.255l2.906-9.489l9.691-2.233
		L228.245,24.574z M251.37-19.096l-2.907,9.488l-9.689,2.234l-6.785-7.257l2.907-9.488l9.692-2.235L251.37-19.096z M150.796-5.669
		l2.906-9.49l9.692-2.232l6.785,7.255l-2.908,9.49l-9.69,2.232L150.796-5.669z M237.699-6.377l-2.906,9.49l-9.692,2.232
		l-6.784-7.255l2.908-9.487l9.69-2.235L237.699-6.377z M168.706-0.185l2.906-9.491l9.693-2.232l6.782,7.255l-2.906,9.49
		l-9.691,2.233L168.706-0.185z M186.713,5.348l2.907-9.488l9.69-2.235l6.785,7.257l-2.906,9.489l-9.691,2.233L186.713,5.348z
		 M219.788-11.86l-2.907,9.488l-9.691,2.235l-6.784-7.256l2.908-9.49l9.69-2.232L219.788-11.86z M201.779-17.395l-2.904,9.49
		l-9.692,2.234l-6.783-7.257l2.905-9.488l9.693-2.234L201.779-17.395z M204.625,10.833l2.905-9.49l9.69-2.233l6.785,7.255
		l-2.908,9.49l-9.689,2.233L204.625,10.833z M183.87-22.879l-2.906,9.49l-9.692,2.232l-6.784-7.254l2.909-9.49l9.69-2.233
		L183.87-22.879z M155.035,12.537l2.907-9.491l9.69-2.23l6.783,7.254l-2.905,9.491l-9.692,2.231L155.035,12.537z M173.041,18.07
		l2.908-9.489l9.69-2.232l6.783,7.254l-2.907,9.49l-9.692,2.233L173.041,18.07z M190.952,23.554l2.906-9.489l9.691-2.233
		l6.784,7.256l-2.906,9.49l-9.689,2.232L190.952,23.554z M233.459-24.582l-2.907,9.489l-9.691,2.235l-6.784-7.257l2.906-9.489
		l9.691-2.233L233.459-24.582z M215.453-30.116l-2.907,9.489l-9.691,2.233l-6.784-7.255l2.906-9.49l9.691-2.233L215.453-30.116z
		 M197.541-35.6l-2.906,9.489l-9.691,2.232l-6.784-7.255l2.906-9.49l9.691-2.232L197.541-35.6z M156.507,2.587l-2.909,9.488
		l-9.689,2.233l-6.784-7.255l2.906-9.491l9.691-2.23L156.507,2.587z M222.533,16.316l2.909-9.488l9.69-2.235l6.783,7.257
		l-2.906,9.489l-9.69,2.234L222.533,16.316z M165.959-28.362l-2.907,9.49l-9.69,2.231l-6.783-7.253l2.905-9.491l9.693-2.232
		L165.959-28.362z M123.452,19.775l2.908-9.49l9.69-2.231l6.784,7.255l-2.906,9.49l-9.692,2.232L123.452,19.775z M141.363,25.259
		l2.905-9.49l9.693-2.232l6.783,7.255l-2.905,9.49l-9.693,2.232L141.363,25.259z M159.37,30.794l2.907-9.49l9.689-2.234l6.785,7.255
		l-2.908,9.491l-9.69,2.233L159.37,30.794z M177.281,36.277l2.905-9.487l9.692-2.235l6.783,7.255l-2.904,9.489l-9.691,2.234
		L177.281,36.277z M195.191,41.761l2.907-9.488l9.689-2.234l6.785,7.255l-2.907,9.49l-9.689,2.233L195.191,41.761z M265.04-31.82
		l-2.904,9.489l-9.691,2.234l-6.786-7.256l2.907-9.489l9.692-2.234L265.04-31.82z M247.131-37.303l-2.909,9.488l-9.689,2.234
		l-6.784-7.256l2.907-9.489l9.691-2.233L247.131-37.303z M229.123-42.84l-2.906,9.492l-9.692,2.232l-6.782-7.255l2.905-9.49
		l9.692-2.232L229.123-42.84z M211.214-48.324l-2.908,9.49l-9.689,2.231l-6.786-7.254l2.908-9.489l9.691-2.233L211.214-48.324z
		 M193.301-53.807l-2.907,9.49l-9.69,2.232l-6.784-7.254l2.907-9.491l9.69-2.232L193.301-53.807z M124.924,9.824l-2.909,9.489
		l-9.689,2.233l-6.784-7.255l2.906-9.489l9.69-2.235L124.924,9.824z M91.87,27.012l2.906-9.489l9.691-2.233l6.783,7.255
		l-2.905,9.491l-9.69,2.231L91.87,27.012z M109.781,32.496l2.907-9.488l9.691-2.234l6.784,7.256l-2.909,9.49l-9.689,2.232
		L109.781,32.496z M127.691,37.98l2.907-9.488l9.691-2.233l6.783,7.254l-2.906,9.49l-9.692,2.233L127.691,37.98z M145.697,43.515
		l2.908-9.488l9.691-2.234l6.783,7.255l-2.907,9.49l-9.691,2.232L145.697,43.515z M163.608,49l2.906-9.489l9.692-2.234l6.784,7.256
		l-2.907,9.489l-9.689,2.234L163.608,49z M181.521,54.484l2.906-9.49l9.69-2.233l6.783,7.255l-2.907,9.49l-9.691,2.233
		L181.521,54.484z M199.43,59.969l2.908-9.491l9.689-2.233l6.784,7.255l-2.907,9.491l-9.69,2.232L199.43,59.969z M213.102,47.247
		l2.909-9.491l9.69-2.233l6.785,7.256l-2.908,9.49l-9.69,2.233L213.102,47.247z M226.774,34.525l2.906-9.49l9.691-2.234l6.785,7.255
		l-2.907,9.49l-9.689,2.234L226.774,34.525z M240.446,21.801l2.906-9.489l9.692-2.233l6.782,7.256l-2.905,9.487l-9.69,2.234
		L240.446,21.801z M281.482-16.386l2.906-9.488l9.691-2.233l6.785,7.255l-2.907,9.489l-9.69,2.232L281.482-16.386z M296.624-39.058
		l-2.907,9.489l-9.691,2.234l-6.784-7.256l2.909-9.488l9.689-2.235L296.624-39.058z M278.714-44.542l-2.908,9.489l-9.69,2.233
		l-6.785-7.255l2.906-9.489l9.693-2.234L278.714-44.542z M260.803-50.026l-2.907,9.489l-9.691,2.233l-6.785-7.255l2.907-9.488
		l9.691-2.236L260.803-50.026z M242.796-55.561l-2.906,9.489l-9.692,2.234l-6.785-7.256l2.907-9.49l9.69-2.232L242.796-55.561z
		 M224.884-61.044l-2.907,9.49l-9.689,2.231l-6.785-7.253l2.905-9.491l9.692-2.234L224.884-61.044z M206.973-66.529l-2.907,9.49
		l-9.69,2.233l-6.782-7.255l2.905-9.49l9.691-2.234L206.973-66.529z M189.063-72.014l-2.907,9.49l-9.689,2.233l-6.786-7.255
		l2.906-9.489l9.692-2.235L189.063-72.014z M175.392-59.291l-2.908,9.489l-9.691,2.233l-6.783-7.254l2.905-9.491l9.692-2.233
		L175.392-59.291z M161.72-46.568l-2.908,9.489l-9.69,2.232l-6.785-7.255l2.906-9.489l9.692-2.233L161.72-46.568z M148.049-33.847
		l-2.908,9.489l-9.691,2.233l-6.783-7.253l2.906-9.49l9.689-2.233L148.049-33.847z M107.013,4.34l-2.909,9.489l-9.69,2.232
		l-6.784-7.254l2.905-9.489l9.694-2.234L107.013,4.34z M93.341,17.063l-2.909,9.49l-9.689,2.231l-6.784-7.255l2.905-9.489
		l9.692-2.232L93.341,17.063z M267.81-3.662l2.907-9.49l9.691-2.232l6.784,7.255l-2.907,9.489l-9.69,2.232L267.81-3.662z
		 M120.684-8.382l-2.907,9.488l-9.691,2.234l-6.784-7.255l2.907-9.489l9.691-2.233L120.684-8.382z M60.287,34.25l2.907-9.489
		l9.691-2.233l6.784,7.255l-2.906,9.491l-9.692,2.232L60.287,34.25z M78.199,39.734l2.906-9.488l9.692-2.234l6.782,7.255
		l-2.905,9.491l-9.689,2.231L78.199,39.734z M96.109,45.22l2.908-9.491l9.689-2.233l6.784,7.255l-2.907,9.489l-9.69,2.233
		L96.109,45.22z M114.02,50.703l2.905-9.489l9.693-2.234l6.783,7.255l-2.907,9.489l-9.691,2.234L114.02,50.703z M132.025,56.238
		l2.909-9.488l9.689-2.235l6.786,7.255l-2.909,9.49l-9.69,2.233L132.025,56.238z M149.938,61.721l2.907-9.488l9.69-2.234
		l6.786,7.257l-2.909,9.488l-9.691,2.233L149.938,61.721z M167.849,67.207l2.905-9.491l9.694-2.232l6.783,7.254l-2.906,9.49
		l-9.693,2.233L167.849,67.207z M185.759,72.689l2.907-9.487l9.691-2.234l6.784,7.254l-2.907,9.49l-9.692,2.232L185.759,72.689z
		 M203.67,78.174l2.905-9.489l9.693-2.232l6.782,7.255l-2.905,9.489l-9.691,2.233L203.67,78.174z M217.341,65.452l2.908-9.488
		l9.69-2.234l6.783,7.254l-2.906,9.489l-9.688,2.233L217.341,65.452z M231.014,52.73l2.904-9.49l9.694-2.232l6.781,7.256
		l-2.905,9.488l-9.692,2.233L231.014,52.73z M244.686,40.009l2.906-9.491l9.691-2.234l6.784,7.257l-2.907,9.488l-9.691,2.234
		L244.686,40.009z M258.357,27.286l2.906-9.489l9.689-2.235l6.785,7.255l-2.908,9.492l-9.69,2.231L258.357,27.286z M299.394-10.901
		l2.905-9.489l9.691-2.234l6.783,7.255l-2.905,9.49l-9.691,2.233L299.394-10.901z M313.064-23.623l2.908-9.489l9.689-2.234
		l6.785,7.255l-2.907,9.49l-9.692,2.234L313.064-23.623z M328.206-46.295l-2.906,9.488l-9.691,2.233l-6.784-7.255l2.906-9.489
		l9.692-2.233L328.206-46.295z M310.296-51.78l-2.909,9.489l-9.69,2.234l-6.783-7.256l2.906-9.489l9.692-2.234L310.296-51.78z
		 M292.384-57.264l-2.907,9.489l-9.691,2.233l-6.781-7.255l2.904-9.49l9.691-2.232L292.384-57.264z M274.475-62.749l-2.907,9.49
		l-9.691,2.232l-6.784-7.255l2.908-9.488l9.689-2.233L274.475-62.749z M256.468-68.284l-2.907,9.49l-9.691,2.233l-6.783-7.255
		l2.905-9.49l9.693-2.232L256.468-68.284z M238.557-73.767l-2.906,9.489l-9.691,2.233l-6.785-7.255l2.906-9.491l9.693-2.231
		L238.557-73.767z M220.645-79.251l-2.907,9.489l-9.69,2.233l-6.785-7.255l2.908-9.49l9.69-2.233L220.645-79.251z M202.734-84.736
		l-2.905,9.489l-9.691,2.234l-6.783-7.255l2.905-9.489l9.692-2.233L202.734-84.736z M184.825-90.221l-2.908,9.491l-9.691,2.233
		l-6.784-7.256l2.908-9.488l9.689-2.234L184.825-90.221z M171.153-77.497l-2.908,9.489l-9.691,2.232l-6.784-7.255l2.908-9.489
		l9.69-2.233L171.153-77.497z M157.48-64.775l-2.906,9.489l-9.691,2.234l-6.785-7.256l2.908-9.49l9.69-2.233L157.48-64.775z
		 M143.808-52.052l-2.907,9.489l-9.691,2.233l-6.782-7.256l2.905-9.489l9.691-2.234L143.808-52.052z M130.138-39.329l-2.908,9.489
		l-9.691,2.231l-6.783-7.253l2.905-9.492l9.692-2.232L130.138-39.329z M89.102-1.144l-2.908,9.488l-9.69,2.234l-6.785-7.255
		l2.907-9.491l9.691-2.233L89.102-1.144z M75.429,11.578l-2.907,9.488l-9.689,2.235l-6.784-7.256l2.907-9.489l9.691-2.233
		L75.429,11.578z M61.759,24.301l-2.908,9.49l-9.689,2.231l-6.784-7.255l2.906-9.489l9.69-2.234L61.759,24.301z M285.72,1.82
		l2.907-9.488l9.692-2.234l6.785,7.256l-2.908,9.491l-9.69,2.231L285.72,1.82z M102.773-13.867l-2.909,9.49l-9.689,2.233L83.391-9.4
		l2.906-9.488l9.692-2.234L102.773-13.867z M28.705,41.488L31.613,32l9.689-2.233l6.784,7.254l-2.906,9.492l-9.689,2.231
		L28.705,41.488z M46.615,46.972l2.907-9.489l9.692-2.234l6.784,7.257l-2.907,9.489l-9.689,2.232L46.615,46.972z M64.526,52.456
		l2.905-9.488l9.694-2.233l6.784,7.256l-2.906,9.489l-9.692,2.231L64.526,52.456z M82.439,57.94l2.905-9.489l9.692-2.232
		l6.782,7.255l-2.907,9.488l-9.69,2.234L82.439,57.94z M100.349,63.425l2.906-9.488l9.69-2.236l6.786,7.258l-2.908,9.488
		l-9.69,2.232L100.349,63.425z M118.356,68.96l2.906-9.489l9.69-2.234l6.784,7.256l-2.907,9.489l-9.691,2.233L118.356,68.96z
		 M136.266,74.444l2.907-9.488l9.69-2.234l6.786,7.255l-2.908,9.49l-9.69,2.232L136.266,74.444z M154.177,79.927l2.905-9.489
		l9.691-2.233l6.783,7.256l-2.906,9.489l-9.69,2.233L154.177,79.927z M172.087,85.412l2.906-9.489l9.691-2.233l6.783,7.256
		l-2.906,9.489l-9.691,2.233L172.087,85.412z M189.998,90.895l2.909-9.487l9.69-2.235l6.784,7.256l-2.907,9.489l-9.689,2.234
		L189.998,90.895z M276.267,32.77l2.906-9.491l9.691-2.233l6.785,7.257l-2.908,9.489l-9.69,2.234L276.267,32.77z M359.789-53.534
		l-2.907,9.488l-9.691,2.235l-6.785-7.256l2.909-9.489l9.69-2.233L359.789-53.534z M341.877-59.018l-2.907,9.488l-9.688,2.233
		l-6.785-7.255l2.906-9.488l9.692-2.234L341.877-59.018z M323.968-64.502l-2.907,9.489l-9.69,2.233l-6.785-7.256l2.908-9.488
		l9.69-2.233L323.968-64.502z M306.056-69.986l-2.908,9.489l-9.69,2.233l-6.785-7.256l2.907-9.489l9.691-2.232L306.056-69.986z
		 M288.146-75.47l-2.907,9.489l-9.692,2.233l-6.783-7.256l2.907-9.489l9.691-2.234L288.146-75.47z M270.138-81.006l-2.906,9.49
		l-9.691,2.232l-6.783-7.253l2.906-9.491l9.69-2.234L270.138-81.006z M252.229-86.488L249.321-77l-9.69,2.233l-6.784-7.255
		l2.905-9.491l9.693-2.232L252.229-86.488z M234.317-91.973l-2.907,9.489l-9.69,2.234l-6.783-7.255l2.907-9.489l9.69-2.234
		L234.317-91.973z M216.406-97.457l-2.907,9.488l-9.689,2.235l-6.786-7.255l2.907-9.489l9.691-2.235L216.406-97.457z
		 M198.496-102.942l-2.907,9.49l-9.691,2.233l-6.784-7.255l2.905-9.49l9.692-2.232L198.496-102.942z M112.227-44.816l-2.907,9.49
		l-9.691,2.233l-6.783-7.254l2.905-9.491l9.693-2.232L112.227-44.816z M303.631,7.304l2.907-9.489l9.691-2.231l6.784,7.254
		l-2.907,9.49l-9.691,2.233L303.631,7.304z M377.7-48.05l-2.907,9.489l-9.69,2.234l-6.784-7.255l2.905-9.49l9.693-2.233L377.7-48.05
		z M84.86-19.351l-2.904,9.49l-9.694,2.233l-6.782-7.257l2.907-9.488l9.691-2.234L84.86-19.351z M-2.878,48.727l2.908-9.49
		l9.691-2.231l6.785,7.254l-2.908,9.491l-9.69,2.231L-2.878,48.727z M15.034,54.211l2.906-9.489l9.691-2.233l6.783,7.255
		l-2.907,9.489l-9.691,2.232L15.034,54.211z M32.944,59.695l2.907-9.49l9.689-2.232l6.785,7.254l-2.907,9.489l-9.689,2.233
		L32.944,59.695z M50.855,65.179l2.906-9.488l9.693-2.234l6.782,7.255L67.329,70.2l-9.69,2.235L50.855,65.179z M68.766,70.663
		l2.906-9.488l9.693-2.235l6.783,7.255l-2.906,9.49L75.55,77.92L68.766,70.663z M86.677,76.148l2.906-9.489l9.693-2.235l6.783,7.257
		l-2.907,9.488l-9.691,2.232L86.677,76.148z M104.684,81.683l2.906-9.489l9.69-2.234l6.784,7.256l-2.907,9.489l-9.69,2.231
		L104.684,81.683z M122.594,87.167l2.907-9.49l9.69-2.233l6.784,7.256l-2.907,9.488l-9.691,2.234L122.594,87.167z M140.506,92.651
		l2.905-9.49l9.693-2.232l6.782,7.255l-2.905,9.489l-9.691,2.233L140.506,92.651z M158.415,98.134l2.907-9.489l9.69-2.233
		l6.785,7.255l-2.907,9.49l-9.69,2.233L158.415,98.134z M176.327,103.618l2.907-9.488l9.689-2.234l6.785,7.255l-2.907,9.489
		l-9.691,2.234L176.327,103.618z M194.238,109.102l2.907-9.49l9.69-2.232l6.783,7.255l-2.905,9.489l-9.692,2.234L194.238,109.102z
		 M355.549-71.74l-2.906,9.489l-9.692,2.233l-6.783-7.255l2.906-9.489l9.691-2.235L355.549-71.74z M337.639-77.224l-2.907,9.489
		l-9.689,2.233l-6.786-7.255l2.907-9.489l9.691-2.234L337.639-77.224z M319.727-82.709l-2.907,9.49l-9.691,2.233l-6.784-7.256
		l2.907-9.488l9.692-2.234L319.727-82.709z M301.817-88.192l-2.906,9.489l-9.691,2.233l-6.784-7.256l2.906-9.49l9.691-2.233
		L301.817-88.192z M283.811-93.728l-2.909,9.491l-9.691,2.233l-6.783-7.255l2.906-9.49l9.692-2.234L283.811-93.728z M265.899-99.21
		l-2.906,9.489l-9.691,2.233l-6.784-7.255l2.905-9.49l9.692-2.233L265.899-99.21z M247.99-104.694l-2.909,9.488l-9.69,2.233
		l-6.785-7.256l2.908-9.487l9.69-2.235L247.99-104.694z M230.077-110.178l-2.907,9.488l-9.69,2.234l-6.783-7.256l2.905-9.489
		l9.691-2.234L230.077-110.178z M212.168-115.664l-2.907,9.491l-9.691,2.233l-6.784-7.255l2.905-9.491l9.693-2.233L212.168-115.664z
		 M194.257-121.147l-2.907,9.489l-9.689,2.233l-6.787-7.255l2.908-9.489l9.69-2.234L194.257-121.147z M212.148,114.585l2.909-9.488
		l9.689-2.233l6.785,7.254l-2.907,9.49l-9.691,2.233L212.148,114.585z M225.82,101.864l2.906-9.489l9.691-2.233l6.785,7.256
		l-2.909,9.489l-9.69,2.234L225.82,101.864z M239.492,89.141l2.904-9.487l9.692-2.234l6.785,7.255l-2.907,9.489l-9.691,2.234
		L239.492,89.141z M253.162,76.42l2.906-9.49l9.692-2.232l6.784,7.254l-2.908,9.491l-9.688,2.233L253.162,76.42z M266.836,63.698
		l2.905-9.491l9.691-2.232l6.782,7.255l-2.904,9.491l-9.692,2.233L266.836,63.698z M280.506,50.976l2.906-9.49l9.693-2.232
		l6.783,7.254l-2.907,9.49l-9.691,2.232L280.506,50.976z M294.178,38.255l2.905-9.491l9.693-2.232l6.783,7.254l-2.905,9.491
		l-9.693,2.233L294.178,38.255z M321.543,12.789l2.906-9.489l9.691-2.233l6.783,7.255l-2.906,9.49l-9.691,2.233L321.543,12.789z
		 M335.214,0.067l2.907-9.489l9.691-2.232l6.784,7.254l-2.905,9.49l-9.691,2.233L335.214,0.067z M348.886-12.656l2.907-9.489
		l9.691-2.233l6.782,7.255l-2.906,9.491l-9.69,2.232L348.886-12.656z M362.557-25.377l2.906-9.488l9.692-2.233l6.783,7.255
		l-2.905,9.489l-9.691,2.234L362.557-25.377z M376.229-38.098l2.907-9.49l9.689-2.233l6.786,7.255l-2.909,9.489l-9.689,2.235
		L376.229-38.098z M389.901-50.82l2.906-9.491l9.69-2.233l6.785,7.256l-2.908,9.49l-9.691,2.233L389.901-50.82z M391.403-60.739
		l-2.909,9.49l-9.689,2.232l-6.847-7.323l2.907-9.489l9.689-2.233L391.403-60.739z M176.345-126.632l-2.905,9.491l-9.691,2.232
		l-6.785-7.256l2.905-9.489l9.693-2.233L176.345-126.632z M162.673-113.91l-2.907,9.49l-9.689,2.233l-6.784-7.255l2.905-9.49
		l9.692-2.233L162.673-113.91z M149.002-101.187l-2.906,9.49l-9.692,2.232l-6.784-7.255l2.904-9.49l9.693-2.233L149.002-101.187z
		 M135.332-88.467l-2.907,9.491l-9.691,2.233l-6.784-7.255l2.906-9.491l9.692-2.232L135.332-88.467z M121.659-75.745l-2.906,9.49
		l-9.691,2.234l-6.784-7.256l2.908-9.489l9.689-2.233L121.659-75.745z M107.987-63.021l-2.906,9.489l-9.691,2.233l-6.784-7.255
		l2.907-9.489l9.691-2.234L107.987-63.021z M94.315-50.299l-2.906,9.489l-9.691,2.234l-6.785-7.256l2.908-9.489l9.69-2.233
		L94.315-50.299z M66.953-24.835l-2.909,9.489l-9.69,2.234l-6.785-7.256l2.906-9.488l9.691-2.233L66.953-24.835z M53.28-12.113
		l-2.907,9.489l-9.69,2.234l-6.784-7.257l2.906-9.488l9.691-2.234L53.28-12.113z M39.609,0.61l-2.906,9.489l-9.692,2.233
		l-6.784-7.255l2.906-9.49l9.693-2.233L39.609,0.61z M25.936,13.332l-2.907,9.489l-9.69,2.234l-6.785-7.256l2.907-9.491l9.692-2.232
		L25.936,13.332z M12.266,26.054l-2.907,9.49l-9.691,2.232l-6.785-7.255l2.907-9.489l9.692-2.234L12.266,26.054z M-1.406,38.777
		l-2.908,9.49l-9.69,2.231l-6.784-7.255l2.907-9.489l9.692-2.233L-1.406,38.777z M-16.549,61.449l2.906-9.49l9.692-2.232
		l6.785,7.255l-2.907,9.491l-9.691,2.23L-16.549,61.449z M1.363,66.932l2.907-9.489l9.691-2.233l6.783,7.255l-2.906,9.49
		l-9.691,2.232L1.363,66.932z M19.273,72.416l2.907-9.488l9.691-2.234l6.783,7.257l-2.906,9.489l-9.691,2.233L19.273,72.416z
		 M37.183,77.901l2.906-9.49l9.691-2.233l6.786,7.257l-2.907,9.489l-9.691,2.232L37.183,77.901z M55.096,83.385l2.905-9.488
		l9.692-2.235l6.782,7.256l-2.905,9.489l-9.691,2.234L55.096,83.385z M73.002,88.87l2.91-9.49l9.69-2.233l6.784,7.256l-2.907,9.488
		l-9.689,2.234L73.002,88.87z M91.011,94.404l2.906-9.49l9.693-2.233l6.783,7.255l-2.905,9.49l-9.692,2.232L91.011,94.404z
		 M108.922,99.888l2.908-9.49l9.691-2.232l6.783,7.255l-2.907,9.489l-9.69,2.232L108.922,99.888z M126.834,105.373l2.907-9.491
		l9.689-2.234l6.786,7.257l-2.909,9.489l-9.69,2.233L126.834,105.373z M144.745,110.855l2.904-9.49l9.692-2.231l6.784,7.255
		l-2.907,9.489l-9.691,2.234L144.745,110.855z M162.654,116.338l2.907-9.488l9.691-2.232l6.785,7.254l-2.91,9.489l-9.689,2.234
		L162.654,116.338z M180.567,121.825l2.906-9.49l9.692-2.234l6.783,7.255l-2.906,9.49l-9.691,2.234L180.567,121.825z
		 M198.476,127.308l2.908-9.489l9.69-2.233l6.784,7.255l-2.907,9.489l-9.691,2.233L198.476,127.308z M422.954-68.01l-2.907,9.489
		l-9.692,2.233l-6.784-7.255l2.907-9.49l9.69-2.232L422.954-68.01z M405.043-73.494l-2.907,9.49l-9.691,2.233l-6.782-7.256
		l2.905-9.489l9.693-2.233L405.043-73.494z M387.133-78.978l-2.907,9.489l-9.691,2.233l-6.785-7.256L370.658-84l9.689-2.233
		L387.133-78.978z M369.222-84.462l-2.908,9.489l-9.69,2.232l-6.784-7.255l2.906-9.49l9.691-2.231L369.222-84.462z M351.311-89.947
		l-2.908,9.49l-9.691,2.233l-6.783-7.256l2.907-9.49l9.692-2.233L351.311-89.947z M333.4-95.431l-2.907,9.49l-9.691,2.232
		l-6.785-7.256l2.907-9.489l9.689-2.233L333.4-95.431z M315.488-100.915l-2.906,9.49l-9.692,2.232l-6.783-7.255l2.904-9.489
		l9.693-2.234L315.488-100.915z M297.482-106.449l-2.907,9.489l-9.691,2.233l-6.783-7.254l2.907-9.491l9.69-2.232L297.482-106.449z
		 M279.571-111.933l-2.907,9.489l-9.689,2.234l-6.784-7.256l2.904-9.49l9.693-2.231L279.571-111.933z M261.661-117.417l-2.907,9.489
		l-9.692,2.232l-6.782-7.254l2.905-9.49l9.694-2.233L261.661-117.417z M243.749-122.902l-2.907,9.49l-9.691,2.233l-6.783-7.256
		l2.907-9.489l9.689-2.233L243.749-122.902z M225.838-128.386l-2.907,9.49l-9.689,2.233l-6.784-7.255l2.905-9.491l9.692-2.233
		L225.838-128.386z M207.927-133.87l-2.906,9.49l-9.691,2.232l-6.784-7.254l2.907-9.49l9.69-2.233L207.927-133.87z M190.016-139.354
		l-2.907,9.489l-9.689,2.234l-6.784-7.256l2.906-9.49l9.692-2.232L190.016-139.354z M216.388,132.791l2.906-9.488l9.692-2.232
		l6.784,7.255l-2.907,9.489l-9.69,2.233L216.388,132.791z M230.06,120.071l2.905-9.491l9.693-2.232l6.783,7.255l-2.907,9.49
		l-9.691,2.232L230.06,120.071z M243.731,107.35l2.907-9.49l9.689-2.233l6.785,7.255l-2.906,9.49l-9.69,2.234L243.731,107.35z
		 M257.403,94.627l2.905-9.49l9.693-2.232l6.783,7.255l-2.906,9.489l-9.692,2.234L257.403,94.627z M271.076,81.903l2.905-9.487
		l9.689-2.233l6.785,7.255l-2.907,9.489l-9.691,2.233L271.076,81.903z M284.746,69.182l2.904-9.49l9.692-2.232l6.784,7.254
		l-2.907,9.49l-9.691,2.233L284.746,69.182z M298.416,56.46l2.908-9.489l9.689-2.234l6.785,7.255l-2.907,9.491l-9.691,2.232
		L298.416,56.46z M312.087,43.737l2.909-9.489l9.69-2.233l6.784,7.255l-2.908,9.49l-9.689,2.233L312.087,43.737z M339.454,18.273
		l2.906-9.488l9.69-2.234l6.786,7.256l-2.909,9.489l-9.69,2.233L339.454,18.273z M353.126,5.551l2.906-9.489l9.691-2.233
		l6.785,7.255l-2.91,9.489l-9.689,2.234L353.126,5.551z M366.796-7.171l2.908-9.49l9.689-2.232l6.786,7.255l-2.909,9.49
		l-9.691,2.233L366.796-7.171z M380.468-19.893l2.908-9.49l9.69-2.232l6.784,7.254l-2.908,9.491l-9.69,2.232L380.468-19.893z
		 M394.14-32.615l2.907-9.49l9.69-2.231l6.784,7.255l-2.906,9.489l-9.692,2.232L394.14-32.615z M407.811-45.337l2.907-9.489
		l9.691-2.232l6.784,7.254l-2.907,9.489l-9.691,2.234L407.811-45.337z M421.483-58.059l2.905-9.489l9.693-2.233l6.784,7.255
		l-2.907,9.49l-9.691,2.232L421.483-58.059z M172.106-144.839l-2.907,9.49l-9.691,2.233l-6.783-7.255l2.904-9.489l9.694-2.233
		L172.106-144.839z M158.436-132.116l-2.909,9.49l-9.69,2.233l-6.784-7.255l2.908-9.49l9.689-2.233L158.436-132.116z
		 M144.762-119.394l-2.907,9.49l-9.691,2.233l-6.783-7.254l2.908-9.491l9.69-2.234L144.762-119.394z M131.092-106.672l-2.908,9.49
		l-9.69,2.234l-6.786-7.257l2.909-9.489l9.688-2.233L131.092-106.672z M117.42-93.95l-2.907,9.491l-9.69,2.231l-6.783-7.254
		l2.906-9.49l9.691-2.233L117.42-93.95z M103.748-81.228l-2.907,9.49l-9.69,2.233l-6.783-7.255l2.906-9.49l9.689-2.232
		L103.748-81.228z M90.076-68.505l-2.904,9.489l-9.694,2.232l-6.783-7.255l2.906-9.489l9.693-2.232L90.076-68.505z M76.405-55.783
		l-2.907,9.488l-9.69,2.234l-6.784-7.255l2.906-9.488l9.692-2.236L76.405-55.783z M49.04-30.321l-2.908,9.49l-9.689,2.234
		l-6.784-7.255l2.907-9.489l9.691-2.233L49.04-30.321z M35.369-17.598l-2.906,9.49l-9.692,2.233l-6.784-7.255l2.907-9.49
		l9.691-2.233L35.369-17.598z M21.697-4.874L18.79,4.613L9.1,6.848L2.314-0.408l2.907-9.489l9.691-2.234L21.697-4.874z M8.025,7.848
		l-2.907,9.488l-9.69,2.234l-6.782-7.257l2.905-9.488L1.24,0.592L8.025,7.848z M-5.646,20.57l-2.907,9.489l-9.69,2.234l-6.783-7.257
		l2.906-9.488l9.69-2.234L-5.646,20.57z M-19.318,33.292l-2.905,9.489l-9.691,2.233l-6.784-7.254l2.906-9.49l9.691-2.233
		L-19.318,33.292z M-32.988,46.014l-2.906,9.489l-9.691,2.233l-6.784-7.255l2.905-9.489l9.693-2.234L-32.988,46.014z
		 M-48.131,68.686l2.906-9.488l9.691-2.233l6.783,7.255l-2.908,9.488l-9.69,2.233L-48.131,68.686z M-30.221,74.171l2.908-9.49
		l9.69-2.232l6.784,7.254l-2.908,9.491l-9.689,2.233L-30.221,74.171z M-12.309,79.654l2.906-9.488l9.692-2.233l6.782,7.255
		l-2.904,9.49l-9.691,2.232L-12.309,79.654z M5.601,85.139l2.906-9.488l9.691-2.234l6.784,7.254l-2.907,9.491l-9.69,2.233
		L5.601,85.139z M23.511,90.624l2.908-9.49l9.692-2.233l6.782,7.255l-2.906,9.489l-9.69,2.234L23.511,90.624z M41.423,96.108
		l2.907-9.49l9.691-2.233l6.783,7.256l-2.906,9.489l-9.69,2.233L41.423,96.108z M59.334,101.592l2.905-9.489l9.691-2.233
		l6.784,7.254l-2.907,9.489l-9.692,2.233L59.334,101.592z M77.341,107.126l2.905-9.49l9.693-2.232l6.782,7.255l-2.906,9.489
		l-9.689,2.233L77.341,107.126z M95.25,112.61l2.91-9.489l9.689-2.235l6.784,7.256l-2.907,9.49l-9.691,2.233L95.25,112.61z
		 M113.163,118.093l2.907-9.488l9.69-2.233l6.784,7.254l-2.907,9.49l-9.691,2.233L113.163,118.093z M131.073,123.577l2.906-9.488
		l9.69-2.233l6.785,7.255l-2.907,9.489l-9.692,2.234L131.073,123.577z M148.983,129.063l2.908-9.489l9.689-2.233l6.785,7.255
		l-2.908,9.489l-9.691,2.233L148.983,129.063z M166.894,134.545l2.906-9.487l9.693-2.233l6.783,7.256l-2.907,9.489l-9.69,2.233
		L166.894,134.545z M184.806,140.031l2.906-9.489l9.689-2.234l6.785,7.258l-2.907,9.487l-9.69,2.233L184.806,140.031z
		 M202.717,145.517l2.904-9.491l9.694-2.233l6.783,7.255l-2.907,9.489l-9.691,2.233L202.717,145.517z M454.536-75.248l-2.906,9.489
		l-9.69,2.234l-6.786-7.256l2.907-9.49l9.692-2.233L454.536-75.248z M436.624-80.732l-2.906,9.49l-9.692,2.232l-6.782-7.256
		l2.906-9.488l9.691-2.234L436.624-80.732z M418.715-86.216l-2.907,9.488l-9.691,2.234l-6.784-7.256l2.906-9.489l9.691-2.233
		L418.715-86.216z M400.803-91.7l-2.907,9.488l-9.69,2.232l-6.785-7.255l2.908-9.487l9.69-2.235L400.803-91.7z M382.892-97.185
		l-2.907,9.488l-9.691,2.235l-6.784-7.257l2.907-9.488l9.691-2.234L382.892-97.185z M364.982-102.669l-2.906,9.489l-9.689,2.234
		l-6.787-7.257l2.908-9.487l9.691-2.235L364.982-102.669z M347.071-108.152l-2.907,9.489l-9.691,2.233l-6.784-7.256l2.907-9.488
		l9.691-2.234L347.071-108.152z M329.161-113.636l-2.908,9.489l-9.691,2.233l-6.783-7.255l2.905-9.489l9.691-2.233L329.161-113.636z
		 M311.154-119.172l-2.907,9.49l-9.69,2.232l-6.786-7.255l2.907-9.49l9.691-2.233L311.154-119.172z M293.242-124.654l-2.907,9.488
		l-9.691,2.234l-6.781-7.256l2.904-9.489l9.691-2.234L293.242-124.654z M275.333-130.14l-2.908,9.49l-9.69,2.233l-6.784-7.254
		l2.906-9.491l9.691-2.233L275.333-130.14z M257.421-135.624l-2.908,9.489l-9.691,2.235l-6.783-7.256l2.906-9.491l9.691-2.232
		L257.421-135.624z M239.51-141.108l-2.906,9.489l-9.69,2.234l-6.785-7.255l2.905-9.49l9.693-2.233L239.51-141.108z
		 M221.599-146.592l-2.907,9.49l-9.689,2.233l-6.786-7.255l2.908-9.49l9.689-2.234L221.599-146.592z M203.687-152.076l-2.906,9.489
		l-9.69,2.233l-6.784-7.255l2.906-9.489l9.691-2.233L203.687-152.076z M185.779-157.559l-2.909,9.487l-9.69,2.234l-6.784-7.255
		l2.906-9.49l9.689-2.233L185.779-157.559z M329.999,49.223l2.907-9.491l9.691-2.233l6.785,7.255l-2.908,9.489l-9.69,2.234
		L329.999,49.223z M58.494-61.268l-2.907,9.49l-9.691,2.233l-6.784-7.254l2.907-9.49l9.69-2.234L58.494-61.268z M-79.715,75.925
		l2.907-9.49l9.692-2.232l6.784,7.254l-2.907,9.491l-9.691,2.231L-79.715,75.925z M-61.802,81.408l2.906-9.489l9.692-2.233
		l6.783,7.255l-2.907,9.49l-9.691,2.232L-61.802,81.408z M-43.892,86.894l2.907-9.49l9.691-2.233l6.784,7.254l-2.907,9.491
		l-9.692,2.233L-43.892,86.894z M-25.981,92.377l2.905-9.488l9.692-2.233L-6.6,87.91l-2.906,9.49l-9.692,2.234L-25.981,92.377z
		 M-8.069,97.861l2.905-9.488l9.691-2.235l6.784,7.257l-2.907,9.488l-9.69,2.234L-8.069,97.861z M9.841,103.346l2.906-9.489
		l9.692-2.233l6.784,7.254l-2.91,9.49l-9.689,2.234L9.841,103.346z M27.751,108.83l2.907-9.489l9.69-2.233l6.785,7.255l-2.906,9.489
		l-9.691,2.234L27.751,108.83z M45.662,114.315l2.907-9.49l9.689-2.233l6.784,7.255l-2.907,9.489l-9.689,2.233L45.662,114.315z
		 M63.668,119.849l2.907-9.492l9.691-2.233l6.785,7.255l-2.907,9.491l-9.692,2.233L63.668,119.849z M81.581,125.333l2.904-9.492
		l9.692-2.233l6.783,7.256l-2.907,9.49l-9.691,2.233L81.581,125.333z M99.49,130.815l2.907-9.486l9.691-2.234l6.785,7.255
		l-2.907,9.489l-9.689,2.233L99.49,130.815z M117.402,136.301l2.905-9.489l9.692-2.235l6.783,7.256l-2.906,9.491l-9.69,2.233
		L117.402,136.301z M135.311,141.785l2.906-9.489l9.692-2.235l6.784,7.259l-2.908,9.487l-9.69,2.233L135.311,141.785z
		 M153.224,147.27l2.905-9.491l9.691-2.233l6.786,7.257l-2.908,9.487l-9.69,2.233L153.224,147.27z M171.134,152.754l2.906-9.491
		l9.69-2.233l6.785,7.255l-2.909,9.491l-9.689,2.231L171.134,152.754z M189.044,158.238l2.909-9.489l9.689-2.235l6.785,7.255
		l-2.907,9.491l-9.689,2.233L189.044,158.238z M206.955,163.722l2.906-9.491l9.692-2.233l6.783,7.255l-2.905,9.491l-9.691,2.233
		L206.955,163.722z M486.12-82.486l-2.908,9.489l-9.69,2.234l-6.785-7.256l2.908-9.49l9.689-2.232L486.12-82.486z M468.206-87.97
		l-2.905,9.489l-9.691,2.233l-6.782-7.254l2.904-9.491l9.693-2.233L468.206-87.97z M450.298-93.455l-2.907,9.489l-9.691,2.235
		l-6.785-7.257l2.908-9.49l9.69-2.231L450.298-93.455z M432.386-98.939l-2.908,9.49l-9.69,2.232l-6.782-7.255l2.905-9.488
		l9.69-2.233L432.386-98.939z M414.476-104.423l-2.907,9.49l-9.692,2.234l-6.783-7.256l2.909-9.489l9.689-2.234L414.476-104.423z
		 M396.565-109.907l-2.908,9.491l-9.691,2.232l-6.785-7.255l2.908-9.489l9.69-2.233L396.565-109.907z M378.652-115.391l-2.905,9.489
		l-9.691,2.234l-6.784-7.255l2.905-9.489l9.693-2.234L378.652-115.391z M360.743-120.875l-2.907,9.491l-9.691,2.231l-6.785-7.255
		l2.909-9.488l9.689-2.234L360.743-120.875z M342.832-126.359l-2.907,9.49l-9.691,2.232l-6.782-7.254l2.904-9.49l9.691-2.232
		L342.832-126.359z M324.825-131.894l-2.907,9.49l-9.691,2.232l-6.783-7.255l2.908-9.49l9.691-2.233L324.825-131.894z
		 M306.915-137.377l-2.908,9.488l-9.69,2.233l-6.783-7.254l2.906-9.49l9.689-2.233L306.915-137.377z M289.004-142.863l-2.908,9.491
		l-9.691,2.233l-6.783-7.254l2.904-9.492l9.694-2.232L289.004-142.863z M271.093-148.345l-2.907,9.488l-9.691,2.233l-6.784-7.254
		l2.907-9.49l9.689-2.232L271.093-148.345z M253.182-153.83l-2.907,9.489l-9.691,2.233l-6.783-7.255l2.906-9.49l9.692-2.232
		L253.182-153.83z M235.271-159.314l-2.907,9.489l-9.691,2.233l-6.783-7.254l2.905-9.492l9.693-2.231L235.271-159.314z
		 M217.361-164.799l-2.908,9.49l-9.691,2.233l-6.783-7.255l2.907-9.489l9.69-2.233L217.361-164.799z M199.448-170.282l-2.906,9.489
		l-9.69,2.233l-6.784-7.255l2.905-9.491l9.693-2.231L199.448-170.282z M181.539-175.768l-2.908,9.491l-9.69,2.233l-6.783-7.255
		l2.907-9.49l9.689-2.234L181.539-175.768z M-111.297,83.163l2.907-9.488l9.692-2.234l6.782,7.254l-2.906,9.492l-9.69,2.23
		L-111.297,83.163z M-93.387,88.647l2.909-9.49l9.69-2.232l6.784,7.256l-2.906,9.488l-9.692,2.234L-93.387,88.647z M-75.474,94.132
		l2.905-9.49l9.693-2.233l6.782,7.255l-2.904,9.49l-9.691,2.233L-75.474,94.132z M-57.565,99.616l2.908-9.489l9.69-2.234
		l6.785,7.255l-2.909,9.49l-9.689,2.233L-57.565,99.616z M-39.652,105.098l2.905-9.487l9.692-2.235l6.785,7.257l-2.909,9.488
		l-9.69,2.236L-39.652,105.098z M-21.741,110.583l2.906-9.489l9.691-2.234l6.783,7.256l-2.906,9.489l-9.69,2.236L-21.741,110.583z
		 M-3.832,116.069l2.908-9.49l9.691-2.232l6.784,7.253l-2.907,9.49l-9.691,2.233L-3.832,116.069z M14.08,121.552l2.908-9.489
		l9.691-2.234l6.782,7.256l-2.906,9.49l-9.69,2.232L14.08,121.552z M31.991,127.036l2.907-9.488l9.691-2.234l6.783,7.255
		l-2.904,9.489l-9.695,2.233L31.991,127.036z M49.998,132.569l2.907-9.487l9.691-2.234l6.783,7.256l-2.907,9.489l-9.691,2.233
		L49.998,132.569z M67.907,138.053l2.908-9.487l9.69-2.233l6.784,7.256l-2.907,9.489l-9.691,2.235L67.907,138.053z M85.818,143.539
		l2.908-9.491l9.691-2.233l6.784,7.257l-2.907,9.489l-9.691,2.233L85.818,143.539z M103.73,149.023l2.906-9.489l9.692-2.233
		l6.783,7.255l-2.907,9.489l-9.69,2.233L103.73,149.023z M121.641,154.508l2.907-9.489l9.689-2.235l6.784,7.255l-2.907,9.489
		l-9.692,2.235L121.641,154.508z M139.55,159.992l2.906-9.491l9.693-2.233l6.783,7.255l-2.908,9.491l-9.69,2.231L139.55,159.992z
		 M157.462,165.476l2.906-9.491l9.691-2.233l6.785,7.255l-2.907,9.491l-9.691,2.231L157.462,165.476z M175.373,170.958l2.907-9.489
		l9.691-2.233l6.784,7.255l-2.908,9.489l-9.691,2.233L175.373,170.958z M193.283,176.442l2.907-9.489l9.693-2.233l6.783,7.257
		l-2.906,9.487l-9.691,2.233L193.283,176.442z M217.979,189.184l-6.783-7.257l2.907-9.489l9.69-2.233l6.785,7.255l-2.909,9.491
		L217.979,189.184z M231.65,176.462l-6.785-7.255l2.906-9.491l9.691-2.231l6.785,7.253l-2.909,9.491L231.65,176.462z
		 M245.322,163.738l-6.784-7.255l2.907-9.489l9.69-2.233l6.785,7.255l-2.908,9.491L245.322,163.738z M258.993,151.016l-6.784-7.255
		l2.907-9.489l9.69-2.233l6.785,7.255l-2.908,9.489L258.993,151.016z M272.665,138.294l-6.784-7.255l2.905-9.489l9.691-2.233
		l6.785,7.256l-2.907,9.49L272.665,138.294z M286.337,125.572l-6.784-7.255l2.907-9.489l9.691-2.233l6.784,7.257l-2.907,9.487
		L286.337,125.572z M300.009,112.852l-6.784-7.257l2.904-9.49l9.692-2.233l6.785,7.255l-2.907,9.491L300.009,112.852z
		 M313.681,100.128l-6.786-7.255l2.909-9.489l9.689-2.234l6.785,7.255l-2.906,9.49L313.681,100.128z M327.352,87.407l-6.783-7.256
		l2.905-9.491l9.693-2.232l6.782,7.255l-2.906,9.489L327.352,87.407z M341.022,74.684l-6.784-7.256l2.907-9.488l9.69-2.234
		l6.784,7.254l-2.907,9.491L341.022,74.684z M367.292,50.239l-2.907,9.489l-9.691,2.233l-6.782-7.256l2.904-9.488l9.691-2.234
		L367.292,50.239z M368.387,49.22l-6.783-7.256l2.906-9.489l9.691-2.233l6.784,7.255l-2.906,9.489L368.387,49.22z M382.06,36.498
		l-6.784-7.257l2.907-9.488l9.691-2.234l6.784,7.256l-2.907,9.489L382.06,36.498z M395.729,23.776l-6.781-7.256l2.906-9.489
		l9.691-2.233l6.782,7.256l-2.905,9.489L395.729,23.776z M409.403,11.054l-6.784-7.257l2.907-9.487l9.69-2.234l6.785,7.256
		l-2.908,9.489L409.403,11.054z M423.074-1.668l-6.784-7.257l2.906-9.489l9.691-2.232l6.783,7.254l-2.908,9.491L423.074-1.668z
		 M436.746-14.391l-6.785-7.255l2.909-9.49l9.689-2.233l6.785,7.256l-2.908,9.489L436.746-14.391z M450.418-27.114l-6.785-7.254
		l2.908-9.49l9.689-2.233l6.785,7.256l-2.908,9.489L450.418-27.114z M464.089-39.835l-6.785-7.255l2.909-9.49l9.689-2.233
		l6.784,7.255l-2.907,9.491L464.089-39.835z M477.76-52.557l-6.784-7.256l2.906-9.489l9.692-2.234l6.783,7.256l-2.906,9.489
		L477.76-52.557z M491.431-65.28l-6.783-7.255l2.906-9.489l9.692-2.234l6.784,7.256l-2.907,9.489L491.431-65.28z M517.702-89.724
		l-2.909,9.49l-9.69,2.232l-6.784-7.256l2.907-9.489l9.691-2.233L517.702-89.724z M499.79-95.208l-2.907,9.489l-9.691,2.233
		l-6.783-7.257l2.906-9.489l9.691-2.231L499.79-95.208z M481.88-100.692l-2.906,9.489l-9.692,2.234l-6.784-7.256l2.908-9.491
		l9.69-2.23L481.88-100.692z M463.969-106.176l-2.907,9.49l-9.691,2.233l-6.784-7.257l2.907-9.489l9.691-2.232L463.969-106.176z
		 M446.058-111.66l-2.908,9.489l-9.69,2.234l-6.784-7.256l2.907-9.491l9.69-2.232L446.058-111.66z M428.146-117.144l-2.907,9.49
		l-9.689,2.232l-6.786-7.256l2.907-9.488l9.692-2.234L428.146-117.144z M410.236-122.629l-2.907,9.49l-9.69,2.233l-6.785-7.256
		l2.907-9.488l9.692-2.235L410.236-122.629z M392.325-128.112l-2.908,9.49l-9.69,2.232l-6.784-7.256l2.907-9.489l9.69-2.233
		L392.325-128.112z M374.414-133.597l-2.907,9.49l-9.69,2.232l-6.785-7.255l2.908-9.489l9.69-2.234L374.414-133.597z
		 M356.504-139.081l-2.907,9.49l-9.692,2.232l-6.783-7.255l2.907-9.489l9.69-2.233L356.504-139.081z M338.496-144.616l-2.907,9.489
		l-9.69,2.234l-6.784-7.255l2.907-9.49l9.69-2.233L338.496-144.616z M320.585-150.1l-2.907,9.49l-9.689,2.232l-6.785-7.254
		l2.907-9.491l9.691-2.232L320.585-150.1z M302.674-155.584l-2.907,9.489l-9.689,2.234l-6.784-7.255l2.906-9.49l9.691-2.233
		L302.674-155.584z M284.765-161.068l-2.908,9.489l-9.69,2.233l-6.784-7.255l2.907-9.49l9.69-2.233L284.765-161.068z
		 M266.853-166.552l-2.907,9.489l-9.691,2.233l-6.782-7.255l2.905-9.49l9.69-2.234L266.853-166.552z M248.942-172.038l-2.907,9.491
		l-9.689,2.233l-6.785-7.256l2.906-9.489l9.69-2.233L248.942-172.038z M231.031-177.52l-2.907,9.489l-9.689,2.233l-6.785-7.255
		l2.907-9.489l9.691-2.234L231.031-177.52z M213.119-183.005l-2.904,9.49l-9.691,2.233l-6.785-7.255l2.907-9.49l9.691-2.233
		L213.119-183.005z M195.21-188.489l-2.908,9.49l-9.689,2.233l-6.786-7.256l2.907-9.49l9.691-2.232L195.21-188.489z
		 M170.515-201.228l6.783,7.255l-2.907,9.489l-9.691,2.233l-6.782-7.256l2.906-9.488L170.515-201.228z M156.844-188.507l6.783,7.255
		l-2.907,9.491l-9.69,2.233l-6.784-7.255l2.906-9.49L156.844-188.507z M143.172-175.783l6.783,7.254l-2.904,9.49l-9.692,2.233
		l-6.785-7.255l2.906-9.491L143.172-175.783z M129.501-163.061l6.782,7.255l-2.907,9.489l-9.689,2.234l-6.785-7.256l2.905-9.49
		L129.501-163.061z M115.829-150.34l6.784,7.255l-2.908,9.49l-9.69,2.233l-6.785-7.255l2.907-9.491L115.829-150.34z
		 M102.158-137.618l6.783,7.255l-2.908,9.49l-9.689,2.232l-6.785-7.256l2.905-9.488L102.158-137.618z M88.486-124.896l6.785,7.256
		l-2.908,9.488l-9.691,2.234l-6.784-7.255l2.908-9.49L88.486-124.896z M74.814-112.174l6.783,7.256l-2.907,9.489l-9.689,2.234
		l-6.785-7.256l2.909-9.49L74.814-112.174z M61.141-99.452l6.786,7.255l-2.908,9.49l-9.69,2.234l-6.785-7.257l2.907-9.489
		L61.141-99.452z M47.47-86.729l6.784,7.254l-2.908,9.491l-9.688,2.233l-6.786-7.255l2.908-9.49L47.47-86.729z M21.203-62.284
		l2.907-9.49l9.691-2.232l6.783,7.254l-2.908,9.49l-9.691,2.233L21.203-62.284z M20.106-61.264l6.784,7.254l-2.906,9.49l-9.69,2.233
		l-6.786-7.256l2.908-9.489L20.106-61.264z M6.434-48.542l6.786,7.254l-2.907,9.49l-9.691,2.232l-6.785-7.255l2.907-9.488
		L6.434-48.542z M-7.237-35.821l6.783,7.257l-2.906,9.489l-9.691,2.233l-6.784-7.257l2.906-9.489L-7.237-35.821z M-20.909-23.099
		l6.786,7.256l-2.909,9.49l-9.689,2.232l-6.785-7.255l2.908-9.49L-20.909-23.099z M-34.58-10.376l6.785,7.253l-2.907,9.491
		l-9.692,2.233l-6.783-7.257l2.907-9.489L-34.58-10.376z M-48.253,2.344l6.786,7.257l-2.909,9.489l-9.69,2.232l-6.784-7.255
		l2.906-9.488L-48.253,2.344z M-61.923,15.067l6.783,7.256l-2.906,9.489l-9.691,2.235l-6.783-7.259l2.906-9.487L-61.923,15.067z
		 M-75.597,27.789l6.785,7.257l-2.907,9.488l-9.69,2.234l-6.783-7.256l2.907-9.49L-75.597,27.789z M-89.266,40.512l6.783,7.256
		l-2.905,9.488l-9.692,2.235l-6.783-7.257l2.906-9.489L-89.266,40.512z M-102.937,53.234l6.784,7.257l-2.907,9.488l-9.692,2.234
		l-6.784-7.256l2.905-9.49L-102.937,53.234z M-129.208,77.68l2.907-9.491l9.691-2.233l6.785,7.256l-2.908,9.489l-9.691,2.233
		L-129.208,77.68z"/>
</g>
</svg>
