<?xml version="1.0" encoding="utf-8"?>
<!-- Generator: Adobe Illustrator 17.0.0, SVG Export Plug-In . SVG Version: 6.00 Build 0)  -->
<!DOCTYPE svg PUBLIC "-//W3C//DTD SVG 1.1//EN" "http://www.w3.org/Graphics/SVG/1.1/DTD/svg11.dtd">
<svg version="1.1" id="Layer_1" xmlns="http://www.w3.org/2000/svg" xmlns:xlink="http://www.w3.org/1999/xlink" x="0px" y="0px"
	 width="750px" height="83px" viewBox="0 0 750 83" enable-background="new 0 0 750 83" xml:space="preserve">
<g id="pattern_4_">
	<defs>
		
			<rect id="SVGID_1_" x="0.027" y="0.247" transform="matrix(-1 6.600936e-04 -6.600936e-04 -1 750.0273 82.7544)" width="749.945" height="82.507"/>
	</defs>
	<clipPath id="SVGID_2_">
		<use xlink:href="#SVGID_1_"  overflow="visible"/>
	</clipPath>
	<g clip-path="url(#SVGID_2_)">
		<path fill="none" stroke="#049EAA" stroke-width="3" stroke-miterlimit="10" d="M761.962-67.504c-5.956,0-5.956-4-11.911-4
			c-5.955,0-5.955,4-11.911,4c-5.956,0-5.956-4-11.911-4c-5.955,0-5.955,4-11.91,4c-5.954,0-5.954-4-11.907-4
			c-5.953,0-5.953,4-11.906,4c-5.953,0-5.953-4-11.906-4c-5.954,0-5.954,4-11.908,4c-5.956,0-5.956-4-11.912-4
			c-5.955,0-5.955,4-11.911,4c-5.954,0-5.954-4-11.908-4c-5.954,0-5.954,4-11.907,4c-5.954,0-5.954-4-11.908-4
			c-5.956,0-5.956,4-11.911,4c-5.956,0-5.956-4-11.912-4c-5.955,0-5.955,4-11.909,4c-5.954,0-5.954-4-11.908-4
			c-5.955,0-5.955,4-11.91,4c-5.957,0-5.957-4-11.913-4c-5.955,0-5.955,4-11.911,4c-5.954,0-5.954-4-11.909-4
			c-5.955,0-5.955,4-11.91,4c-5.957,0-5.957-4-11.914-4c-5.955,0-5.955,4-11.911,4c-5.955,0-5.955-4-11.91-4
			c-5.956,0-5.956,4-11.912,4c-5.956,0-5.956-4-11.913-4c-5.955,0-5.955,4-11.91,4c-5.956,0-5.956-4-11.912-4
			c-5.957,0-5.957,4-11.913,4c-5.955,0-5.955-4-11.911-4c-5.957,0-5.957,4-11.913,4c-5.956,0-5.956-4-11.912-4
			c-5.956,0-5.956,4-11.912,4c-5.957,0-5.957-4-11.914-4c-5.956,0-5.956,4-11.912,4c-5.958,0-5.958-4-11.915-4
			c-5.956,0-5.956,4-11.912,4c-5.957,0-5.957-4-11.915-4c-5.956,0-5.956,4-11.913,4c-5.957,0-5.957-4-11.914-4
			c-5.957,0-5.957,4-11.914,4c-5.957,0-5.957-4-11.913-4c-5.957,0-5.957,4-11.914,4c-5.958,0-5.958-4-11.916-4
			c-5.957,0-5.957,4-11.914,4c-5.957,0-5.957-4-11.914-4c-5.957,0-5.957,4-11.914,4c-5.955,0-5.955-4-11.91-4
			c-5.957,0-5.957,4-11.914,4c-5.955,0-5.955-4-11.911-4c-5.957,0-5.957,4-11.914,4c-5.958,0-5.958-4-11.916-4
			c-5.957,0-5.957,4-11.914,4c-5.957,0-5.957-4-11.914-4c-5.958,0-5.958,4-11.916,4c-5.959,0-5.959-4-11.918-4
			c-5.958,0-5.958,4-11.916,4c-5.958,0-5.958-4-11.917-4c-5.959,0-5.959,4-11.917,4c-5.957,0-5.957-4-11.913-4
			c-5.958,0-5.958,4-11.916,4c-5.96,0-5.96-4-11.92-4c-5.958,0-5.958,4-11.917,4c-5.962,0-5.962-4-11.925-4s-5.962,4-11.925,4"/>
	</g>
	<g clip-path="url(#SVGID_2_)">
		<path fill="none" stroke="#049EAA" stroke-width="3" stroke-miterlimit="10" d="M761.962-56.334c-5.956,0-5.956-4-11.911-4
			c-5.955,0-5.955,4-11.911,4c-5.956,0-5.956-4-11.911-4c-5.955,0-5.955,4-11.91,4c-5.954,0-5.954-4-11.907-4
			c-5.953,0-5.953,4-11.906,4c-5.953,0-5.953-4-11.906-4c-5.954,0-5.954,4-11.908,4c-5.956,0-5.956-4-11.912-4
			c-5.955,0-5.955,4-11.911,4c-5.954,0-5.954-4-11.908-4c-5.954,0-5.954,4-11.907,4c-5.954,0-5.954-4-11.908-4
			c-5.956,0-5.956,4-11.911,4c-5.956,0-5.956-4-11.912-4c-5.955,0-5.955,4-11.909,4c-5.954,0-5.954-4-11.908-4
			c-5.955,0-5.955,4-11.91,4c-5.957,0-5.957-4-11.913-4c-5.955,0-5.955,4-11.911,4c-5.954,0-5.954-4-11.909-4
			c-5.955,0-5.955,4-11.91,4c-5.957,0-5.957-4-11.914-4c-5.955,0-5.955,4-11.911,4c-5.955,0-5.955-4-11.91-4
			c-5.956,0-5.956,4-11.912,4c-5.956,0-5.956-4-11.913-4c-5.955,0-5.955,4-11.91,4c-5.956,0-5.956-4-11.912-4
			c-5.957,0-5.957,4-11.913,4c-5.955,0-5.955-4-11.911-4c-5.957,0-5.957,4-11.913,4c-5.956,0-5.956-4-11.912-4
			c-5.956,0-5.956,4-11.912,4c-5.957,0-5.957-4-11.914-4c-5.956,0-5.956,4-11.912,4c-5.958,0-5.958-4-11.915-4
			c-5.956,0-5.956,4-11.912,4c-5.957,0-5.957-4-11.915-4c-5.956,0-5.956,4-11.913,4c-5.957,0-5.957-4-11.914-4
			c-5.957,0-5.957,4-11.914,4c-5.957,0-5.957-4-11.913-4c-5.957,0-5.957,4-11.914,4c-5.958,0-5.958-4-11.916-4
			c-5.957,0-5.957,4-11.914,4c-5.957,0-5.957-4-11.914-4c-5.957,0-5.957,4-11.914,4c-5.955,0-5.955-4-11.91-4
			c-5.957,0-5.957,4-11.914,4c-5.955,0-5.955-4-11.911-4c-5.957,0-5.957,4-11.914,4c-5.958,0-5.958-4-11.916-4
			c-5.957,0-5.957,4-11.914,4c-5.957,0-5.957-4-11.914-4c-5.958,0-5.958,4-11.916,4c-5.959,0-5.959-4-11.918-4
			c-5.958,0-5.958,4-11.916,4c-5.958,0-5.958-4-11.917-4c-5.959,0-5.959,4-11.917,4c-5.957,0-5.957-4-11.913-4
			c-5.958,0-5.958,4-11.916,4c-5.96,0-5.96-4-11.92-4c-5.958,0-5.958,4-11.917,4c-5.962,0-5.962-4-11.925-4s-5.962,4-11.925,4"/>
	</g>
	<g clip-path="url(#SVGID_2_)">
		<path fill="none" stroke="#049EAA" stroke-width="3" stroke-miterlimit="10" d="M761.962-45.164c-5.956,0-5.956-4-11.911-4
			c-5.955,0-5.955,4-11.911,4c-5.956,0-5.956-4-11.911-4c-5.955,0-5.955,4-11.91,4c-5.954,0-5.954-4-11.907-4
			c-5.953,0-5.953,4-11.906,4c-5.953,0-5.953-4-11.906-4c-5.954,0-5.954,4-11.908,4c-5.956,0-5.956-4-11.912-4
			c-5.955,0-5.955,4-11.911,4c-5.954,0-5.954-4-11.908-4c-5.954,0-5.954,4-11.907,4c-5.954,0-5.954-4-11.908-4
			c-5.956,0-5.956,4-11.911,4c-5.956,0-5.956-4-11.912-4c-5.955,0-5.955,4-11.909,4c-5.954,0-5.954-4-11.908-4
			c-5.955,0-5.955,4-11.91,4c-5.957,0-5.957-4-11.913-4c-5.955,0-5.955,4-11.911,4c-5.954,0-5.954-4-11.909-4
			c-5.955,0-5.955,4-11.91,4c-5.957,0-5.957-4-11.914-4c-5.955,0-5.955,4-11.911,4c-5.955,0-5.955-4-11.91-4
			c-5.956,0-5.956,4-11.912,4c-5.956,0-5.956-4-11.913-4c-5.955,0-5.955,4-11.91,4c-5.956,0-5.956-4-11.912-4
			c-5.957,0-5.957,4-11.913,4c-5.955,0-5.955-4-11.911-4c-5.957,0-5.957,4-11.913,4c-5.956,0-5.956-4-11.912-4
			c-5.956,0-5.956,4-11.912,4c-5.957,0-5.957-4-11.914-4c-5.956,0-5.956,4-11.912,4c-5.958,0-5.958-4-11.915-4
			c-5.956,0-5.956,4-11.912,4c-5.957,0-5.957-4-11.915-4c-5.956,0-5.956,4-11.913,4c-5.957,0-5.957-4-11.914-4
			c-5.957,0-5.957,4-11.914,4c-5.957,0-5.957-4-11.913-4c-5.957,0-5.957,4-11.914,4c-5.958,0-5.958-4-11.916-4
			c-5.957,0-5.957,4-11.914,4c-5.957,0-5.957-4-11.914-4c-5.957,0-5.957,4-11.914,4c-5.955,0-5.955-4-11.91-4
			c-5.957,0-5.957,4-11.914,4c-5.955,0-5.955-4-11.911-4c-5.957,0-5.957,4-11.914,4c-5.958,0-5.958-4-11.916-4
			c-5.957,0-5.957,4-11.914,4c-5.957,0-5.957-4-11.914-4c-5.958,0-5.958,4-11.916,4c-5.959,0-5.959-4-11.918-4
			c-5.958,0-5.958,4-11.916,4c-5.958,0-5.958-4-11.917-4c-5.959,0-5.959,4-11.917,4c-5.957,0-5.957-4-11.913-4
			c-5.958,0-5.958,4-11.916,4c-5.96,0-5.96-4-11.92-4c-5.958,0-5.958,4-11.917,4c-5.962,0-5.962-4-11.925-4
			c-5.962,0-5.962,4-11.925,4"/>
	</g>
	<g clip-path="url(#SVGID_2_)">
		<path fill="none" stroke="#049EAA" stroke-width="3" stroke-miterlimit="10" d="M761.962-33.995c-5.956,0-5.956-4-11.911-4
			c-5.955,0-5.955,4-11.911,4c-5.956,0-5.956-4-11.911-4c-5.955,0-5.955,4-11.91,4c-5.954,0-5.954-4-11.907-4
			c-5.953,0-5.953,4-11.906,4c-5.953,0-5.953-4-11.906-4c-5.954,0-5.954,4-11.908,4c-5.956,0-5.956-4-11.912-4
			c-5.955,0-5.955,4-11.911,4c-5.954,0-5.954-4-11.908-4c-5.954,0-5.954,4-11.907,4c-5.954,0-5.954-4-11.908-4
			c-5.956,0-5.956,4-11.911,4c-5.956,0-5.956-4-11.912-4c-5.955,0-5.955,4-11.909,4c-5.954,0-5.954-4-11.908-4
			c-5.955,0-5.955,4-11.91,4c-5.957,0-5.957-4-11.913-4c-5.955,0-5.955,4-11.911,4c-5.954,0-5.954-4-11.909-4
			c-5.955,0-5.955,4-11.91,4c-5.957,0-5.957-4-11.914-4c-5.955,0-5.955,4-11.911,4c-5.955,0-5.955-4-11.91-4
			c-5.956,0-5.956,4-11.912,4c-5.956,0-5.956-4-11.913-4c-5.955,0-5.955,4-11.91,4c-5.956,0-5.956-4-11.912-4
			c-5.957,0-5.957,4-11.913,4c-5.955,0-5.955-4-11.911-4c-5.957,0-5.957,4-11.913,4c-5.956,0-5.956-4-11.912-4
			c-5.956,0-5.956,4-11.912,4c-5.957,0-5.957-4-11.914-4c-5.956,0-5.956,4-11.912,4c-5.958,0-5.958-4-11.915-4
			c-5.956,0-5.956,4-11.912,4c-5.957,0-5.957-4-11.915-4c-5.956,0-5.956,4-11.913,4c-5.957,0-5.957-4-11.914-4
			c-5.957,0-5.957,4-11.914,4c-5.957,0-5.957-4-11.913-4c-5.957,0-5.957,4-11.914,4c-5.958,0-5.958-4-11.916-4
			c-5.957,0-5.957,4-11.914,4c-5.957,0-5.957-4-11.914-4c-5.957,0-5.957,4-11.914,4c-5.955,0-5.955-4-11.91-4
			c-5.957,0-5.957,4-11.914,4c-5.955,0-5.955-4-11.911-4c-5.957,0-5.957,4-11.914,4c-5.958,0-5.958-4-11.916-4
			c-5.957,0-5.957,4-11.914,4c-5.957,0-5.957-4-11.914-4c-5.958,0-5.958,4-11.916,4c-5.959,0-5.959-4-11.918-4
			c-5.958,0-5.958,4-11.916,4c-5.958,0-5.958-4-11.917-4c-5.959,0-5.959,4-11.917,4c-5.957,0-5.957-4-11.913-4
			c-5.958,0-5.958,4-11.916,4c-5.96,0-5.96-4-11.92-4c-5.958,0-5.958,4-11.917,4c-5.962,0-5.962-4-11.925-4s-5.962,4-11.925,4"/>
	</g>
	<g clip-path="url(#SVGID_2_)">
		<path fill="none" stroke="#049EAA" stroke-width="3" stroke-miterlimit="10" d="M761.962-22.824c-5.956,0-5.956-4-11.911-4
			c-5.955,0-5.955,4-11.911,4c-5.956,0-5.956-4-11.911-4c-5.955,0-5.955,4-11.91,4c-5.954,0-5.954-4-11.907-4
			c-5.953,0-5.953,4-11.906,4c-5.953,0-5.953-4-11.906-4c-5.954,0-5.954,4-11.908,4c-5.956,0-5.956-4-11.912-4
			c-5.955,0-5.955,4-11.911,4c-5.954,0-5.954-4-11.908-4c-5.954,0-5.954,4-11.907,4c-5.954,0-5.954-4-11.908-4
			c-5.956,0-5.956,4-11.911,4c-5.956,0-5.956-4-11.912-4c-5.955,0-5.955,4-11.909,4c-5.954,0-5.954-4-11.908-4
			c-5.955,0-5.955,4-11.91,4c-5.957,0-5.957-4-11.913-4c-5.955,0-5.955,4-11.911,4c-5.954,0-5.954-4-11.909-4
			c-5.955,0-5.955,4-11.91,4c-5.957,0-5.957-4-11.914-4c-5.955,0-5.955,4-11.911,4c-5.955,0-5.955-4-11.91-4
			c-5.956,0-5.956,4-11.912,4c-5.956,0-5.956-4-11.913-4c-5.955,0-5.955,4-11.91,4c-5.956,0-5.956-4-11.912-4
			c-5.957,0-5.957,4-11.913,4c-5.955,0-5.955-4-11.911-4c-5.957,0-5.957,4-11.913,4c-5.956,0-5.956-4-11.912-4
			c-5.956,0-5.956,4-11.912,4c-5.957,0-5.957-4-11.914-4c-5.956,0-5.956,4-11.912,4c-5.958,0-5.958-4-11.915-4
			c-5.956,0-5.956,4-11.912,4c-5.957,0-5.957-4-11.915-4c-5.956,0-5.956,4-11.913,4c-5.957,0-5.957-4-11.914-4
			c-5.957,0-5.957,4-11.914,4c-5.957,0-5.957-4-11.913-4c-5.957,0-5.957,4-11.914,4c-5.958,0-5.958-4-11.916-4
			c-5.957,0-5.957,4-11.914,4c-5.957,0-5.957-4-11.914-4c-5.957,0-5.957,4-11.914,4c-5.955,0-5.955-4-11.91-4
			c-5.957,0-5.957,4-11.914,4c-5.955,0-5.955-4-11.911-4c-5.957,0-5.957,4-11.914,4c-5.958,0-5.958-4-11.916-4
			c-5.957,0-5.957,4-11.914,4c-5.957,0-5.957-4-11.914-4c-5.958,0-5.958,4-11.916,4c-5.959,0-5.959-4-11.918-4
			c-5.958,0-5.958,4-11.916,4c-5.958,0-5.958-4-11.917-4c-5.959,0-5.959,4-11.917,4c-5.957,0-5.957-4-11.913-4
			c-5.958,0-5.958,4-11.916,4c-5.96,0-5.96-4-11.92-4c-5.958,0-5.958,4-11.917,4c-5.962,0-5.962-4-11.925-4s-5.962,4-11.925,4"/>
	</g>
	<g clip-path="url(#SVGID_2_)">
		<path fill="none" stroke="#049EAA" stroke-width="3" stroke-miterlimit="10" d="M761.962-11.654c-5.956,0-5.956-4-11.911-4
			c-5.955,0-5.955,4-11.911,4c-5.956,0-5.956-4-11.911-4c-5.955,0-5.955,4-11.91,4c-5.954,0-5.954-4-11.907-4
			c-5.953,0-5.953,4-11.906,4c-5.953,0-5.953-4-11.906-4c-5.954,0-5.954,4-11.908,4c-5.956,0-5.956-4-11.912-4
			c-5.955,0-5.955,4-11.911,4c-5.954,0-5.954-4-11.908-4c-5.954,0-5.954,4-11.907,4c-5.954,0-5.954-4-11.908-4
			c-5.956,0-5.956,4-11.911,4c-5.956,0-5.956-4-11.912-4c-5.955,0-5.955,4-11.909,4c-5.954,0-5.954-4-11.908-4
			c-5.955,0-5.955,4-11.91,4c-5.957,0-5.957-4-11.913-4c-5.955,0-5.955,4-11.911,4c-5.954,0-5.954-4-11.909-4
			c-5.955,0-5.955,4-11.91,4c-5.957,0-5.957-4-11.914-4c-5.955,0-5.955,4-11.911,4c-5.955,0-5.955-4-11.91-4
			c-5.956,0-5.956,4-11.912,4c-5.956,0-5.956-4-11.913-4c-5.955,0-5.955,4-11.91,4c-5.956,0-5.956-4-11.912-4
			c-5.957,0-5.957,4-11.913,4c-5.955,0-5.955-4-11.911-4c-5.957,0-5.957,4-11.913,4c-5.956,0-5.956-4-11.912-4
			c-5.956,0-5.956,4-11.912,4c-5.957,0-5.957-4-11.914-4c-5.956,0-5.956,4-11.912,4c-5.958,0-5.958-4-11.915-4
			c-5.956,0-5.956,4-11.912,4c-5.957,0-5.957-4-11.915-4c-5.956,0-5.956,4-11.913,4c-5.957,0-5.957-4-11.914-4
			c-5.957,0-5.957,4-11.914,4c-5.957,0-5.957-4-11.913-4c-5.957,0-5.957,4-11.914,4c-5.958,0-5.958-4-11.916-4
			c-5.957,0-5.957,4-11.914,4c-5.957,0-5.957-4-11.914-4c-5.957,0-5.957,4-11.914,4c-5.955,0-5.955-4-11.91-4
			c-5.957,0-5.957,4-11.914,4c-5.955,0-5.955-4-11.911-4c-5.957,0-5.957,4-11.914,4c-5.958,0-5.958-4-11.916-4
			c-5.957,0-5.957,4-11.914,4c-5.957,0-5.957-4-11.914-4c-5.958,0-5.958,4-11.916,4c-5.959,0-5.959-4-11.918-4
			c-5.958,0-5.958,4-11.916,4c-5.958,0-5.958-4-11.917-4c-5.959,0-5.959,4-11.917,4c-5.957,0-5.957-4-11.913-4
			c-5.958,0-5.958,4-11.916,4c-5.96,0-5.96-4-11.92-4c-5.958,0-5.958,4-11.917,4c-5.962,0-5.962-4-11.925-4
			c-5.962,0-5.962,4-11.925,4"/>
	</g>
	<g clip-path="url(#SVGID_2_)">
		<path fill="none" stroke="#049EAA" stroke-width="3" stroke-miterlimit="10" d="M761.962-0.485c-5.956,0-5.956-4-11.911-4
			c-5.955,0-5.955,4-11.911,4c-5.956,0-5.956-4-11.911-4c-5.955,0-5.955,4-11.91,4c-5.954,0-5.954-4-11.907-4
			c-5.953,0-5.953,4-11.906,4c-5.953,0-5.953-4-11.906-4c-5.954,0-5.954,4-11.908,4c-5.956,0-5.956-4-11.912-4
			c-5.955,0-5.955,4-11.911,4c-5.954,0-5.954-4-11.908-4c-5.954,0-5.954,4-11.907,4c-5.954,0-5.954-4-11.908-4
			c-5.956,0-5.956,4-11.911,4c-5.956,0-5.956-4-11.912-4c-5.955,0-5.955,4-11.909,4c-5.954,0-5.954-4-11.908-4
			c-5.955,0-5.955,4-11.91,4c-5.957,0-5.957-4-11.913-4c-5.955,0-5.955,4-11.911,4c-5.954,0-5.954-4-11.909-4
			c-5.955,0-5.955,4-11.91,4c-5.957,0-5.957-4-11.914-4c-5.955,0-5.955,4-11.911,4c-5.955,0-5.955-4-11.91-4
			c-5.956,0-5.956,4-11.912,4c-5.956,0-5.956-4-11.913-4c-5.955,0-5.955,4-11.91,4c-5.956,0-5.956-4-11.912-4
			c-5.957,0-5.957,4-11.913,4c-5.955,0-5.955-4-11.911-4c-5.957,0-5.957,4-11.913,4c-5.956,0-5.956-4-11.912-4
			c-5.956,0-5.956,4-11.912,4c-5.957,0-5.957-4-11.914-4c-5.956,0-5.956,4-11.912,4c-5.958,0-5.958-4-11.915-4
			c-5.956,0-5.956,4-11.912,4c-5.957,0-5.957-4-11.915-4c-5.956,0-5.956,4-11.913,4c-5.957,0-5.957-4-11.914-4
			c-5.957,0-5.957,4-11.914,4c-5.957,0-5.957-4-11.913-4c-5.957,0-5.957,4-11.914,4c-5.958,0-5.958-4-11.916-4
			c-5.957,0-5.957,4-11.914,4c-5.957,0-5.957-4-11.914-4c-5.957,0-5.957,4-11.914,4c-5.955,0-5.955-4-11.91-4
			c-5.957,0-5.957,4-11.914,4c-5.955,0-5.955-4-11.911-4c-5.957,0-5.957,4-11.914,4c-5.958,0-5.958-4-11.916-4
			c-5.957,0-5.957,4-11.914,4c-5.957,0-5.957-4-11.914-4c-5.958,0-5.958,4-11.916,4c-5.959,0-5.959-4-11.918-4
			c-5.958,0-5.958,4-11.916,4c-5.958,0-5.958-4-11.917-4c-5.959,0-5.959,4-11.917,4c-5.957,0-5.957-4-11.913-4
			c-5.958,0-5.958,4-11.916,4c-5.96,0-5.96-4-11.92-4c-5.958,0-5.958,4-11.917,4c-5.962,0-5.962-4-11.925-4s-5.962,4-11.925,4"/>
	</g>
	<g clip-path="url(#SVGID_2_)">
		<path fill="none" stroke="#049EAA" stroke-width="3" stroke-miterlimit="10" d="M761.962,10.686c-5.956,0-5.956-4-11.911-4
			c-5.955,0-5.955,4-11.911,4c-5.956,0-5.956-4-11.911-4c-5.955,0-5.955,4-11.91,4c-5.954,0-5.954-4-11.907-4
			c-5.953,0-5.953,4-11.906,4c-5.953,0-5.953-4-11.906-4c-5.954,0-5.954,4-11.908,4c-5.956,0-5.956-4-11.912-4
			c-5.955,0-5.955,4-11.911,4c-5.954,0-5.954-4-11.908-4c-5.954,0-5.954,4-11.907,4c-5.954,0-5.954-4-11.908-4
			c-5.956,0-5.956,4-11.911,4c-5.956,0-5.956-4-11.912-4c-5.955,0-5.955,4-11.909,4c-5.954,0-5.954-4-11.908-4
			c-5.955,0-5.955,4-11.91,4c-5.957,0-5.957-4-11.913-4c-5.955,0-5.955,4-11.911,4c-5.954,0-5.954-4-11.909-4
			c-5.955,0-5.955,4-11.91,4c-5.957,0-5.957-4-11.914-4c-5.955,0-5.955,4-11.911,4c-5.955,0-5.955-4-11.91-4
			c-5.956,0-5.956,4-11.912,4c-5.956,0-5.956-4-11.913-4c-5.955,0-5.955,4-11.91,4c-5.956,0-5.956-4-11.912-4
			c-5.957,0-5.957,4-11.913,4c-5.955,0-5.955-4-11.911-4c-5.957,0-5.957,4-11.913,4c-5.956,0-5.956-4-11.912-4
			c-5.956,0-5.956,4-11.912,4c-5.957,0-5.957-4-11.914-4c-5.956,0-5.956,4-11.912,4c-5.958,0-5.958-4-11.915-4
			c-5.956,0-5.956,4-11.912,4c-5.957,0-5.957-4-11.915-4c-5.956,0-5.956,4-11.913,4c-5.957,0-5.957-4-11.914-4
			c-5.957,0-5.957,4-11.914,4c-5.957,0-5.957-4-11.913-4c-5.957,0-5.957,4-11.914,4c-5.958,0-5.958-4-11.916-4
			c-5.957,0-5.957,4-11.914,4c-5.957,0-5.957-4-11.914-4c-5.957,0-5.957,4-11.914,4c-5.955,0-5.955-4-11.91-4
			c-5.957,0-5.957,4-11.914,4c-5.955,0-5.955-4-11.911-4c-5.957,0-5.957,4-11.914,4c-5.958,0-5.958-4-11.916-4
			c-5.957,0-5.957,4-11.914,4c-5.957,0-5.957-4-11.914-4c-5.958,0-5.958,4-11.916,4c-5.959,0-5.959-4-11.918-4
			c-5.958,0-5.958,4-11.916,4c-5.958,0-5.958-4-11.917-4c-5.959,0-5.959,4-11.917,4c-5.957,0-5.957-4-11.913-4
			c-5.958,0-5.958,4-11.916,4c-5.96,0-5.96-4-11.92-4c-5.958,0-5.958,4-11.917,4c-5.962,0-5.962-4-11.925-4s-5.962,4-11.925,4"/>
	</g>
	<g clip-path="url(#SVGID_2_)">
		<path fill="none" stroke="#049EAA" stroke-width="3" stroke-miterlimit="10" d="M761.962,21.855c-5.956,0-5.956-4-11.911-4
			c-5.955,0-5.955,4-11.911,4c-5.956,0-5.956-4-11.911-4c-5.955,0-5.955,4-11.91,4c-5.954,0-5.954-4-11.907-4
			c-5.953,0-5.953,4-11.906,4c-5.953,0-5.953-4-11.906-4c-5.954,0-5.954,4-11.908,4c-5.956,0-5.956-4-11.912-4
			c-5.955,0-5.955,4-11.911,4c-5.954,0-5.954-4-11.908-4c-5.954,0-5.954,4-11.907,4c-5.954,0-5.954-4-11.908-4
			c-5.956,0-5.956,4-11.911,4c-5.956,0-5.956-4-11.912-4c-5.955,0-5.955,4-11.909,4c-5.954,0-5.954-4-11.908-4
			c-5.955,0-5.955,4-11.91,4c-5.957,0-5.957-4-11.913-4c-5.955,0-5.955,4-11.911,4c-5.954,0-5.954-4-11.909-4
			c-5.955,0-5.955,4-11.91,4c-5.957,0-5.957-4-11.914-4c-5.955,0-5.955,4-11.911,4c-5.955,0-5.955-4-11.91-4
			c-5.956,0-5.956,4-11.912,4c-5.956,0-5.956-4-11.913-4c-5.955,0-5.955,4-11.91,4c-5.956,0-5.956-4-11.912-4
			c-5.957,0-5.957,4-11.913,4c-5.955,0-5.955-4-11.911-4c-5.957,0-5.957,4-11.913,4c-5.956,0-5.956-4-11.912-4
			c-5.956,0-5.956,4-11.912,4c-5.957,0-5.957-4-11.914-4c-5.956,0-5.956,4-11.912,4c-5.958,0-5.958-4-11.915-4
			c-5.956,0-5.956,4-11.912,4c-5.957,0-5.957-4-11.915-4c-5.956,0-5.956,4-11.913,4c-5.957,0-5.957-4-11.914-4
			c-5.957,0-5.957,4-11.914,4c-5.957,0-5.957-4-11.913-4c-5.957,0-5.957,4-11.914,4c-5.958,0-5.958-4-11.916-4
			c-5.957,0-5.957,4-11.914,4c-5.957,0-5.957-4-11.914-4c-5.957,0-5.957,4-11.914,4c-5.955,0-5.955-4-11.91-4
			c-5.957,0-5.957,4-11.914,4c-5.955,0-5.955-4-11.911-4c-5.957,0-5.957,4-11.914,4c-5.958,0-5.958-4-11.916-4
			c-5.957,0-5.957,4-11.914,4c-5.957,0-5.957-4-11.914-4c-5.958,0-5.958,4-11.916,4c-5.959,0-5.959-4-11.918-4
			c-5.958,0-5.958,4-11.916,4c-5.958,0-5.958-4-11.917-4c-5.959,0-5.959,4-11.917,4c-5.957,0-5.957-4-11.913-4
			c-5.958,0-5.958,4-11.916,4c-5.96,0-5.96-4-11.92-4c-5.958,0-5.958,4-11.917,4c-5.962,0-5.962-4-11.925-4
			c-5.962,0-5.962,4-11.925,4"/>
	</g>
	<g clip-path="url(#SVGID_2_)">
		<path fill="none" stroke="#049EAA" stroke-width="3" stroke-miterlimit="10" d="M761.962,33.025c-5.956,0-5.956-4-11.911-4
			c-5.955,0-5.955,4-11.911,4c-5.956,0-5.956-4-11.911-4c-5.955,0-5.955,4-11.91,4c-5.954,0-5.954-4-11.907-4
			c-5.953,0-5.953,4-11.906,4c-5.953,0-5.953-4-11.906-4c-5.954,0-5.954,4-11.908,4c-5.956,0-5.956-4-11.912-4
			c-5.955,0-5.955,4-11.911,4c-5.954,0-5.954-4-11.908-4c-5.954,0-5.954,4-11.907,4c-5.954,0-5.954-4-11.908-4
			c-5.956,0-5.956,4-11.911,4c-5.956,0-5.956-4-11.912-4c-5.955,0-5.955,4-11.909,4c-5.954,0-5.954-4-11.908-4
			c-5.955,0-5.955,4-11.91,4c-5.957,0-5.957-4-11.913-4c-5.955,0-5.955,4-11.911,4c-5.954,0-5.954-4-11.909-4
			c-5.955,0-5.955,4-11.91,4c-5.957,0-5.957-4-11.914-4c-5.955,0-5.955,4-11.911,4c-5.955,0-5.955-4-11.91-4
			c-5.956,0-5.956,4-11.912,4c-5.956,0-5.956-4-11.913-4c-5.955,0-5.955,4-11.91,4c-5.956,0-5.956-4-11.912-4
			c-5.957,0-5.957,4-11.913,4c-5.955,0-5.955-4-11.911-4c-5.957,0-5.957,4-11.913,4c-5.956,0-5.956-4-11.912-4
			c-5.956,0-5.956,4-11.912,4c-5.957,0-5.957-4-11.914-4c-5.956,0-5.956,4-11.912,4c-5.958,0-5.958-4-11.915-4
			c-5.956,0-5.956,4-11.912,4c-5.957,0-5.957-4-11.915-4c-5.956,0-5.956,4-11.913,4c-5.957,0-5.957-4-11.914-4
			c-5.957,0-5.957,4-11.914,4c-5.957,0-5.957-4-11.913-4c-5.957,0-5.957,4-11.914,4c-5.958,0-5.958-4-11.916-4
			c-5.957,0-5.957,4-11.914,4c-5.957,0-5.957-4-11.914-4c-5.957,0-5.957,4-11.914,4c-5.955,0-5.955-4-11.91-4
			c-5.957,0-5.957,4-11.914,4c-5.955,0-5.955-4-11.911-4c-5.957,0-5.957,4-11.914,4c-5.958,0-5.958-4-11.916-4
			c-5.957,0-5.957,4-11.914,4c-5.957,0-5.957-4-11.914-4c-5.958,0-5.958,4-11.916,4c-5.959,0-5.959-4-11.918-4
			c-5.958,0-5.958,4-11.916,4c-5.958,0-5.958-4-11.917-4c-5.959,0-5.959,4-11.917,4c-5.957,0-5.957-4-11.913-4
			c-5.958,0-5.958,4-11.916,4c-5.96,0-5.96-4-11.92-4c-5.958,0-5.958,4-11.917,4c-5.962,0-5.962-4-11.925-4s-5.962,4-11.925,4"/>
	</g>
	<g clip-path="url(#SVGID_2_)">
		<path fill="none" stroke="#049EAA" stroke-width="3" stroke-miterlimit="10" d="M761.962,44.195c-5.956,0-5.956-4-11.911-4
			c-5.955,0-5.955,4-11.911,4c-5.956,0-5.956-4-11.911-4c-5.955,0-5.955,4-11.91,4c-5.954,0-5.954-4-11.907-4
			c-5.953,0-5.953,4-11.906,4c-5.953,0-5.953-4-11.906-4c-5.954,0-5.954,4-11.908,4c-5.956,0-5.956-4-11.912-4
			c-5.955,0-5.955,4-11.911,4c-5.954,0-5.954-4-11.908-4c-5.954,0-5.954,4-11.907,4c-5.954,0-5.954-4-11.908-4
			c-5.956,0-5.956,4-11.911,4c-5.956,0-5.956-4-11.912-4c-5.955,0-5.955,4-11.909,4c-5.954,0-5.954-4-11.908-4
			c-5.955,0-5.955,4-11.91,4c-5.957,0-5.957-4-11.913-4c-5.955,0-5.955,4-11.911,4c-5.954,0-5.954-4-11.909-4
			c-5.955,0-5.955,4-11.91,4c-5.957,0-5.957-4-11.914-4c-5.955,0-5.955,4-11.911,4c-5.955,0-5.955-4-11.91-4
			c-5.956,0-5.956,4-11.912,4c-5.956,0-5.956-4-11.913-4c-5.955,0-5.955,4-11.91,4c-5.956,0-5.956-4-11.912-4
			c-5.957,0-5.957,4-11.913,4c-5.955,0-5.955-4-11.911-4c-5.957,0-5.957,4-11.913,4c-5.956,0-5.956-4-11.912-4
			c-5.956,0-5.956,4-11.912,4c-5.957,0-5.957-4-11.914-4c-5.956,0-5.956,4-11.912,4c-5.958,0-5.958-4-11.915-4
			c-5.956,0-5.956,4-11.912,4c-5.957,0-5.957-4-11.915-4c-5.956,0-5.956,4-11.913,4c-5.957,0-5.957-4-11.914-4
			c-5.957,0-5.957,4-11.914,4c-5.957,0-5.957-4-11.913-4c-5.957,0-5.957,4-11.914,4c-5.958,0-5.958-4-11.916-4
			c-5.957,0-5.957,4-11.914,4c-5.957,0-5.957-4-11.914-4c-5.957,0-5.957,4-11.914,4c-5.955,0-5.955-4-11.91-4
			c-5.957,0-5.957,4-11.914,4c-5.955,0-5.955-4-11.911-4c-5.957,0-5.957,4-11.914,4c-5.958,0-5.958-4-11.916-4
			c-5.957,0-5.957,4-11.914,4c-5.957,0-5.957-4-11.914-4c-5.958,0-5.958,4-11.916,4c-5.959,0-5.959-4-11.918-4
			c-5.958,0-5.958,4-11.916,4c-5.958,0-5.958-4-11.917-4c-5.959,0-5.959,4-11.917,4c-5.957,0-5.957-4-11.913-4
			c-5.958,0-5.958,4-11.916,4c-5.96,0-5.96-4-11.92-4c-5.958,0-5.958,4-11.917,4c-5.962,0-5.962-4-11.925-4s-5.962,4-11.925,4"/>
	</g>
	<g clip-path="url(#SVGID_2_)">
		<path fill="none" stroke="#049EAA" stroke-width="3" stroke-miterlimit="10" d="M761.962,55.365c-5.956,0-5.956-4-11.911-4
			c-5.955,0-5.955,4-11.911,4c-5.956,0-5.956-4-11.911-4c-5.955,0-5.955,4-11.91,4c-5.954,0-5.954-4-11.907-4
			c-5.953,0-5.953,4-11.906,4c-5.953,0-5.953-4-11.906-4c-5.954,0-5.954,4-11.908,4c-5.956,0-5.956-4-11.912-4
			c-5.955,0-5.955,4-11.911,4c-5.954,0-5.954-4-11.908-4c-5.954,0-5.954,4-11.907,4c-5.954,0-5.954-4-11.908-4
			c-5.956,0-5.956,4-11.911,4c-5.956,0-5.956-4-11.912-4c-5.955,0-5.955,4-11.909,4c-5.954,0-5.954-4-11.908-4
			c-5.955,0-5.955,4-11.91,4c-5.957,0-5.957-4-11.913-4c-5.955,0-5.955,4-11.911,4c-5.954,0-5.954-4-11.909-4
			c-5.955,0-5.955,4-11.91,4c-5.957,0-5.957-4-11.914-4c-5.955,0-5.955,4-11.911,4c-5.955,0-5.955-4-11.91-4
			c-5.956,0-5.956,4-11.912,4c-5.956,0-5.956-4-11.913-4c-5.955,0-5.955,4-11.91,4c-5.956,0-5.956-4-11.912-4
			c-5.957,0-5.957,4-11.913,4c-5.955,0-5.955-4-11.911-4c-5.957,0-5.957,4-11.913,4c-5.956,0-5.956-4-11.912-4
			c-5.956,0-5.956,4-11.912,4c-5.957,0-5.957-4-11.914-4c-5.956,0-5.956,4-11.912,4c-5.958,0-5.958-4-11.915-4
			c-5.956,0-5.956,4-11.912,4c-5.957,0-5.957-4-11.915-4c-5.956,0-5.956,4-11.913,4c-5.957,0-5.957-4-11.914-4
			c-5.957,0-5.957,4-11.914,4c-5.957,0-5.957-4-11.913-4c-5.957,0-5.957,4-11.914,4c-5.958,0-5.958-4-11.916-4
			c-5.957,0-5.957,4-11.914,4c-5.957,0-5.957-4-11.914-4c-5.957,0-5.957,4-11.914,4c-5.955,0-5.955-4-11.91-4
			c-5.957,0-5.957,4-11.914,4c-5.955,0-5.955-4-11.911-4c-5.957,0-5.957,4-11.914,4c-5.958,0-5.958-4-11.916-4
			c-5.957,0-5.957,4-11.914,4c-5.957,0-5.957-4-11.914-4c-5.958,0-5.958,4-11.916,4c-5.959,0-5.959-4-11.918-4
			c-5.958,0-5.958,4-11.916,4c-5.958,0-5.958-4-11.917-4c-5.959,0-5.959,4-11.917,4c-5.957,0-5.957-4-11.913-4
			c-5.958,0-5.958,4-11.916,4c-5.96,0-5.96-4-11.92-4c-5.958,0-5.958,4-11.917,4c-5.962,0-5.962-4-11.925-4
			c-5.962,0-5.962,4-11.925,4"/>
	</g>
	<g clip-path="url(#SVGID_2_)">
		<path fill="none" stroke="#049EAA" stroke-width="3" stroke-miterlimit="10" d="M761.962,66.535c-5.956,0-5.956-4-11.911-4
			c-5.955,0-5.955,4-11.911,4c-5.956,0-5.956-4-11.911-4c-5.955,0-5.955,4-11.91,4c-5.954,0-5.954-4-11.907-4
			c-5.953,0-5.953,4-11.906,4c-5.953,0-5.953-4-11.906-4c-5.954,0-5.954,4-11.908,4c-5.956,0-5.956-4-11.912-4
			c-5.955,0-5.955,4-11.911,4c-5.954,0-5.954-4-11.908-4c-5.954,0-5.954,4-11.907,4c-5.954,0-5.954-4-11.908-4
			c-5.956,0-5.956,4-11.911,4c-5.956,0-5.956-4-11.912-4c-5.955,0-5.955,4-11.909,4c-5.954,0-5.954-4-11.908-4
			c-5.955,0-5.955,4-11.91,4c-5.957,0-5.957-4-11.913-4c-5.955,0-5.955,4-11.911,4c-5.954,0-5.954-4-11.909-4
			c-5.955,0-5.955,4-11.91,4c-5.957,0-5.957-4-11.914-4c-5.955,0-5.955,4-11.911,4c-5.955,0-5.955-4-11.91-4
			c-5.956,0-5.956,4-11.912,4c-5.956,0-5.956-4-11.913-4c-5.955,0-5.955,4-11.91,4c-5.956,0-5.956-4-11.912-4
			c-5.957,0-5.957,4-11.913,4c-5.955,0-5.955-4-11.911-4c-5.957,0-5.957,4-11.913,4c-5.956,0-5.956-4-11.912-4
			c-5.956,0-5.956,4-11.912,4c-5.957,0-5.957-4-11.914-4c-5.956,0-5.956,4-11.912,4c-5.958,0-5.958-4-11.915-4
			c-5.956,0-5.956,4-11.912,4c-5.957,0-5.957-4-11.915-4c-5.956,0-5.956,4-11.913,4c-5.957,0-5.957-4-11.914-4
			c-5.957,0-5.957,4-11.914,4c-5.957,0-5.957-4-11.913-4c-5.957,0-5.957,4-11.914,4c-5.958,0-5.958-4-11.916-4
			c-5.957,0-5.957,4-11.914,4c-5.957,0-5.957-4-11.914-4c-5.957,0-5.957,4-11.914,4c-5.955,0-5.955-4-11.91-4
			c-5.957,0-5.957,4-11.914,4c-5.955,0-5.955-4-11.911-4c-5.957,0-5.957,4-11.914,4c-5.958,0-5.958-4-11.916-4
			c-5.957,0-5.957,4-11.914,4c-5.957,0-5.957-4-11.914-4c-5.958,0-5.958,4-11.916,4c-5.959,0-5.959-4-11.918-4
			c-5.958,0-5.958,4-11.916,4c-5.958,0-5.958-4-11.917-4c-5.959,0-5.959,4-11.917,4c-5.957,0-5.957-4-11.913-4
			c-5.958,0-5.958,4-11.916,4c-5.96,0-5.96-4-11.92-4c-5.958,0-5.958,4-11.917,4c-5.962,0-5.962-4-11.925-4s-5.962,4-11.925,4"/>
	</g>
	<g clip-path="url(#SVGID_2_)">
		<path fill="none" stroke="#049EAA" stroke-width="3" stroke-miterlimit="10" d="M761.962,77.705c-5.956,0-5.956-4-11.911-4
			c-5.955,0-5.955,4-11.911,4c-5.956,0-5.956-4-11.911-4c-5.955,0-5.955,4-11.91,4c-5.954,0-5.954-4-11.907-4
			c-5.953,0-5.953,4-11.906,4c-5.953,0-5.953-4-11.906-4c-5.954,0-5.954,4-11.908,4c-5.956,0-5.956-4-11.912-4
			c-5.955,0-5.955,4-11.911,4c-5.954,0-5.954-4-11.908-4c-5.954,0-5.954,4-11.907,4c-5.954,0-5.954-4-11.908-4
			c-5.956,0-5.956,4-11.911,4c-5.956,0-5.956-4-11.912-4c-5.955,0-5.955,4-11.909,4c-5.954,0-5.954-4-11.908-4
			c-5.955,0-5.955,4-11.91,4c-5.957,0-5.957-4-11.913-4c-5.955,0-5.955,4-11.911,4c-5.954,0-5.954-4-11.909-4
			c-5.955,0-5.955,4-11.91,4c-5.957,0-5.957-4-11.914-4c-5.955,0-5.955,4-11.911,4c-5.955,0-5.955-4-11.91-4
			c-5.956,0-5.956,4-11.912,4c-5.956,0-5.956-4-11.913-4c-5.955,0-5.955,4-11.91,4c-5.956,0-5.956-4-11.912-4
			c-5.957,0-5.957,4-11.913,4c-5.955,0-5.955-4-11.911-4c-5.957,0-5.957,4-11.913,4c-5.956,0-5.956-4-11.912-4
			c-5.956,0-5.956,4-11.912,4c-5.957,0-5.957-4-11.914-4c-5.956,0-5.956,4-11.912,4c-5.958,0-5.958-4-11.915-4
			c-5.956,0-5.956,4-11.912,4c-5.957,0-5.957-4-11.915-4c-5.956,0-5.956,4-11.913,4c-5.957,0-5.957-4-11.914-4
			c-5.957,0-5.957,4-11.914,4c-5.957,0-5.957-4-11.913-4c-5.957,0-5.957,4-11.914,4c-5.958,0-5.958-4-11.916-4
			c-5.957,0-5.957,4-11.914,4c-5.957,0-5.957-4-11.914-4c-5.957,0-5.957,4-11.914,4c-5.955,0-5.955-4-11.91-4
			c-5.957,0-5.957,4-11.914,4c-5.955,0-5.955-4-11.911-4c-5.957,0-5.957,4-11.914,4c-5.958,0-5.958-4-11.916-4
			c-5.957,0-5.957,4-11.914,4c-5.957,0-5.957-4-11.914-4c-5.958,0-5.958,4-11.916,4c-5.959,0-5.959-4-11.918-4
			c-5.958,0-5.958,4-11.916,4c-5.958,0-5.958-4-11.917-4c-5.959,0-5.959,4-11.917,4c-5.957,0-5.957-4-11.913-4
			c-5.958,0-5.958,4-11.916,4c-5.96,0-5.96-4-11.92-4c-5.958,0-5.958,4-11.917,4c-5.962,0-5.962-4-11.925-4s-5.962,4-11.925,4"/>
	</g>
	<g clip-path="url(#SVGID_2_)">
		<path fill="none" stroke="#049EAA" stroke-width="3" stroke-miterlimit="10" d="M761.962,88.874c-5.956,0-5.956-4-11.911-4
			c-5.955,0-5.955,4-11.911,4c-5.956,0-5.956-4-11.911-4c-5.955,0-5.955,4-11.91,4c-5.954,0-5.954-4-11.907-4
			c-5.953,0-5.953,4-11.906,4c-5.953,0-5.953-4-11.906-4c-5.954,0-5.954,4-11.908,4c-5.956,0-5.956-4-11.912-4
			c-5.955,0-5.955,4-11.911,4c-5.954,0-5.954-4-11.908-4c-5.954,0-5.954,4-11.907,4c-5.954,0-5.954-4-11.908-4
			c-5.956,0-5.956,4-11.911,4c-5.956,0-5.956-4-11.912-4c-5.955,0-5.955,4-11.909,4c-5.954,0-5.954-4-11.908-4
			c-5.955,0-5.955,4-11.91,4c-5.957,0-5.957-4-11.913-4c-5.955,0-5.955,4-11.911,4c-5.954,0-5.954-4-11.909-4
			c-5.955,0-5.955,4-11.91,4c-5.957,0-5.957-4-11.914-4c-5.955,0-5.955,4-11.911,4c-5.955,0-5.955-4-11.91-4
			c-5.956,0-5.956,4-11.912,4c-5.956,0-5.956-4-11.913-4c-5.955,0-5.955,4-11.91,4c-5.956,0-5.956-4-11.912-4
			c-5.957,0-5.957,4-11.913,4c-5.955,0-5.955-4-11.911-4c-5.957,0-5.957,4-11.913,4c-5.956,0-5.956-4-11.912-4
			c-5.956,0-5.956,4-11.912,4c-5.957,0-5.957-4-11.914-4c-5.956,0-5.956,4-11.912,4c-5.958,0-5.958-4-11.915-4
			c-5.956,0-5.956,4-11.912,4c-5.957,0-5.957-4-11.915-4c-5.956,0-5.956,4-11.913,4c-5.957,0-5.957-4-11.914-4
			c-5.957,0-5.957,4-11.914,4c-5.957,0-5.957-4-11.913-4c-5.957,0-5.957,4-11.914,4c-5.958,0-5.958-4-11.916-4
			c-5.957,0-5.957,4-11.914,4c-5.957,0-5.957-4-11.914-4c-5.957,0-5.957,4-11.914,4c-5.955,0-5.955-4-11.91-4
			c-5.957,0-5.957,4-11.914,4c-5.955,0-5.955-4-11.911-4c-5.957,0-5.957,4-11.914,4c-5.958,0-5.958-4-11.916-4
			c-5.957,0-5.957,4-11.914,4c-5.957,0-5.957-4-11.914-4c-5.958,0-5.958,4-11.916,4c-5.959,0-5.959-4-11.918-4
			c-5.958,0-5.958,4-11.916,4c-5.958,0-5.958-4-11.917-4c-5.959,0-5.959,4-11.917,4c-5.957,0-5.957-4-11.913-4
			c-5.958,0-5.958,4-11.916,4c-5.96,0-5.96-4-11.92-4c-5.958,0-5.958,4-11.917,4c-5.962,0-5.962-4-11.925-4s-5.962,4-11.925,4"/>
	</g>
	<g clip-path="url(#SVGID_2_)">
		<path fill="none" stroke="#049EAA" stroke-width="3" stroke-miterlimit="10" d="M761.962,100.045c-5.956,0-5.956-4-11.911-4
			c-5.955,0-5.955,4-11.911,4c-5.956,0-5.956-4-11.911-4c-5.955,0-5.955,4-11.91,4c-5.954,0-5.954-4-11.907-4
			c-5.953,0-5.953,4-11.906,4c-5.953,0-5.953-4-11.906-4c-5.954,0-5.954,4-11.908,4c-5.956,0-5.956-4-11.912-4
			c-5.955,0-5.955,4-11.911,4c-5.954,0-5.954-4-11.908-4c-5.954,0-5.954,4-11.907,4c-5.954,0-5.954-4-11.908-4
			c-5.956,0-5.956,4-11.911,4c-5.956,0-5.956-4-11.912-4c-5.955,0-5.955,4-11.909,4c-5.954,0-5.954-4-11.908-4
			c-5.955,0-5.955,4-11.91,4c-5.957,0-5.957-4-11.913-4c-5.955,0-5.955,4-11.911,4c-5.954,0-5.954-4-11.909-4
			c-5.955,0-5.955,4-11.91,4c-5.957,0-5.957-4-11.914-4c-5.955,0-5.955,4-11.911,4c-5.955,0-5.955-4-11.91-4
			c-5.956,0-5.956,4-11.912,4c-5.956,0-5.956-4-11.913-4c-5.955,0-5.955,4-11.91,4c-5.956,0-5.956-4-11.912-4
			c-5.957,0-5.957,4-11.913,4c-5.955,0-5.955-4-11.911-4c-5.957,0-5.957,4-11.913,4c-5.956,0-5.956-4-11.912-4
			c-5.956,0-5.956,4-11.912,4c-5.957,0-5.957-4-11.914-4c-5.956,0-5.956,4-11.912,4c-5.958,0-5.958-4-11.915-4
			c-5.956,0-5.956,4-11.912,4c-5.957,0-5.957-4-11.915-4c-5.956,0-5.956,4-11.913,4c-5.957,0-5.957-4-11.914-4
			c-5.957,0-5.957,4-11.914,4c-5.957,0-5.957-4-11.913-4c-5.957,0-5.957,4-11.914,4c-5.958,0-5.958-4-11.916-4
			c-5.957,0-5.957,4-11.914,4c-5.957,0-5.957-4-11.914-4c-5.957,0-5.957,4-11.914,4c-5.955,0-5.955-4-11.91-4
			c-5.957,0-5.957,4-11.914,4c-5.955,0-5.955-4-11.911-4c-5.957,0-5.957,4-11.914,4c-5.958,0-5.958-4-11.916-4
			c-5.957,0-5.957,4-11.914,4c-5.957,0-5.957-4-11.914-4c-5.958,0-5.958,4-11.916,4c-5.959,0-5.959-4-11.918-4
			c-5.958,0-5.958,4-11.916,4c-5.958,0-5.958-4-11.917-4c-5.959,0-5.959,4-11.917,4c-5.957,0-5.957-4-11.913-4
			c-5.958,0-5.958,4-11.916,4c-5.96,0-5.96-4-11.92-4c-5.958,0-5.958,4-11.917,4c-5.962,0-5.962-4-11.925-4s-5.962,4-11.925,4"/>
	</g>
	<g clip-path="url(#SVGID_2_)">
		<path fill="none" stroke="#049EAA" stroke-width="3" stroke-miterlimit="10" d="M761.962,111.215c-5.956,0-5.956-4-11.911-4
			c-5.955,0-5.955,4-11.911,4c-5.956,0-5.956-4-11.911-4c-5.955,0-5.955,4-11.91,4c-5.954,0-5.954-4-11.907-4
			c-5.953,0-5.953,4-11.906,4c-5.953,0-5.953-4-11.906-4c-5.954,0-5.954,4-11.908,4c-5.956,0-5.956-4-11.912-4
			c-5.955,0-5.955,4-11.911,4c-5.954,0-5.954-4-11.908-4c-5.954,0-5.954,4-11.907,4c-5.954,0-5.954-4-11.908-4
			c-5.956,0-5.956,4-11.911,4c-5.956,0-5.956-4-11.912-4c-5.955,0-5.955,4-11.909,4c-5.954,0-5.954-4-11.908-4
			c-5.955,0-5.955,4-11.91,4c-5.957,0-5.957-4-11.913-4c-5.955,0-5.955,4-11.911,4c-5.954,0-5.954-4-11.909-4
			c-5.955,0-5.955,4-11.91,4c-5.957,0-5.957-4-11.914-4c-5.955,0-5.955,4-11.911,4c-5.955,0-5.955-4-11.91-4
			c-5.956,0-5.956,4-11.912,4c-5.956,0-5.956-4-11.913-4c-5.955,0-5.955,4-11.91,4c-5.956,0-5.956-4-11.912-4
			c-5.957,0-5.957,4-11.913,4c-5.955,0-5.955-4-11.911-4c-5.957,0-5.957,4-11.913,4c-5.956,0-5.956-4-11.912-4
			c-5.956,0-5.956,4-11.912,4c-5.957,0-5.957-4-11.914-4c-5.956,0-5.956,4-11.912,4c-5.958,0-5.958-4-11.915-4
			c-5.956,0-5.956,4-11.912,4c-5.957,0-5.957-4-11.915-4c-5.956,0-5.956,4-11.913,4c-5.957,0-5.957-4-11.914-4
			c-5.957,0-5.957,4-11.914,4c-5.957,0-5.957-4-11.913-4c-5.957,0-5.957,4-11.914,4c-5.958,0-5.958-4-11.916-4
			c-5.957,0-5.957,4-11.914,4c-5.957,0-5.957-4-11.914-4c-5.957,0-5.957,4-11.914,4c-5.955,0-5.955-4-11.91-4
			c-5.957,0-5.957,4-11.914,4c-5.955,0-5.955-4-11.911-4c-5.957,0-5.957,4-11.914,4c-5.958,0-5.958-4-11.916-4
			c-5.957,0-5.957,4-11.914,4c-5.957,0-5.957-4-11.914-4c-5.958,0-5.958,4-11.916,4c-5.959,0-5.959-4-11.918-4
			c-5.958,0-5.958,4-11.916,4c-5.958,0-5.958-4-11.917-4c-5.959,0-5.959,4-11.917,4c-5.957,0-5.957-4-11.913-4
			c-5.958,0-5.958,4-11.916,4c-5.96,0-5.96-4-11.92-4c-5.958,0-5.958,4-11.917,4c-5.962,0-5.962-4-11.925-4s-5.962,4-11.925,4"/>
	</g>
</g>
</svg>
