<?xml version="1.0" encoding="utf-8"?>
<!-- Generator: Adobe Illustrator 17.0.0, SVG Export Plug-In . SVG Version: 6.00 Build 0)  -->
<!DOCTYPE svg PUBLIC "-//W3C//DTD SVG 1.1//EN" "http://www.w3.org/Graphics/SVG/1.1/DTD/svg11.dtd">
<svg version="1.1" id="Layer_1" xmlns="http://www.w3.org/2000/svg" xmlns:xlink="http://www.w3.org/1999/xlink" x="0px" y="0px"
	 width="750px" height="83px" viewBox="0 0 750 83" enable-background="new 0 0 750 83" xml:space="preserve">
<rect x="0.028" y="0.248" fill="none" width="749.945" height="82.507"/>
<path fill="#56BFED" d="M781.33,16.99c-1.34-3.235-4.995-4.805-8.187-3.524c0,0.002-0.004,0.002-0.004,0.002
	s-15.317,6.282-15.352,6.298c-3.2,1.314-4.704,5.011-3.352,8.256c1.344,3.251,5.03,4.819,8.23,3.506
	c0.037-0.015,0.072-0.031,0.111-0.049c0.004-0.002,0.008,0,0.014-0.002l15.229-6.246c0,0,0.002-0.003,0.004-0.003
	C781.193,23.9,782.672,20.223,781.33,16.99z"/>
<path fill="#56BFED" d="M721.094,36.942c-3.36,1.034-5.265,4.51-4.276,7.787c0.004,0,0.004,0.003,0.004,0.003
	s4.891,15.743,4.903,15.779c1.022,3.29,4.585,5.114,7.96,4.076c3.378-1.038,5.286-4.544,4.263-7.831
	c-0.012-0.037-0.025-0.075-0.041-0.116c0-0.004,0.006-0.008,0-0.015l-4.86-15.65c0,0-0.004-0.002-0.004-0.004
	C728.006,37.708,724.456,35.909,721.094,36.942z"/>
<path fill="#56BFED" d="M680.874,53.229c-1.342-3.235-4.997-4.803-8.189-3.523c0,0.001-0.002,0.001-0.002,0.001
	s-15.319,6.284-15.352,6.299c-3.202,1.311-4.702,5.01-3.354,8.255c1.346,3.251,5.03,4.818,8.23,3.506
	c0.037-0.015,0.074-0.032,0.111-0.051c0.004,0,0.01,0.005,0.014,0l15.231-6.247c0,0,0-0.002,0.004-0.002
	C680.736,60.139,682.214,56.462,680.874,53.229z"/>
<path fill="#56BFED" d="M630.803,11.696c-1.338-3.235-4.995-4.804-8.187-3.523c0,0.001-0.002,0.001-0.002,0.001
	s-15.319,6.284-15.354,6.298c-3.198,1.312-4.7,5.01-3.352,8.256c1.346,3.25,5.032,4.818,8.228,3.506
	c0.037-0.014,0.076-0.034,0.115-0.05c0.002-0.002,0.01,0.002,0.014-0.002l15.229-6.247c0,0,0.002-0.003,0.004-0.003
	C630.666,18.606,632.147,14.929,630.803,11.696z"/>
<g>
	<path fill="#56BFED" d="M714.662,11.88c-2.614-1.933-6.322-1.72-8.693,0.638c-2.371,2.357-2.586,6.046-0.643,8.644L714.662,11.88z"
		/>
	<path fill="#56BFED" d="M716.052,13.264l-9.336,9.283c2.612,1.929,6.321,1.716,8.691-0.641S717.992,15.862,716.052,13.264z"/>
</g>
<path fill="#56BFED" d="M570.821,10.999c-2.147-2.773-6.085-3.334-8.828-1.274c0,0.001-0.004,0.004-0.004,0.004
	s-13.135,10.05-13.164,10.071c-2.743,2.101-3.221,6.058-1.065,8.843c2.153,2.785,6.124,3.341,8.865,1.242
	c0.031-0.024,0.062-0.05,0.096-0.075c0.004-0.005,0.01-0.002,0.012-0.008l13.059-9.99c0,0,0-0.003,0.004-0.003
	C572.505,17.705,572.964,13.772,570.821,10.999z"/>
<g>
	<path fill="#56BFED" d="M541.375-1.134c2.616,1.932,6.321,1.718,8.691-0.639c2.372-2.356,2.588-6.045,0.645-8.644L541.375-1.134z"
		/>
	<path fill="#56BFED" d="M539.982-2.518l9.338-9.282c-2.614-1.931-6.322-1.716-8.689,0.64
		C538.259-8.803,538.042-5.117,539.982-2.518z"/>
</g>
<g>
	<path fill="#56BFED" d="M737.769,32.998c2.614,1.933,6.321,1.718,8.691-0.64c2.368-2.356,2.586-6.045,0.643-8.644L737.769,32.998z"
		/>
	<path fill="#56BFED" d="M736.374,31.615l9.336-9.285c-2.61-1.929-6.319-1.714-8.689,0.643
		C734.652,25.329,734.437,29.014,736.374,31.615z"/>
</g>
<g>
	<path fill="#56BFED" d="M747.109,68.026c2.616,1.932,6.321,1.718,8.693-0.639c2.37-2.356,2.586-6.046,0.643-8.645L747.109,68.026z"
		/>
	<path fill="#56BFED" d="M745.718,66.642l9.336-9.281c-2.61-1.933-6.319-1.717-8.691,0.639
		C743.993,60.357,743.778,64.044,745.718,66.642z"/>
</g>
<g>
	<path fill="#56BFED" d="M697.121,73.564c2.616,1.933,6.322,1.717,8.693-0.64c2.37-2.356,2.586-6.043,0.643-8.644L697.121,73.564z"
		/>
	<path fill="#56BFED" d="M695.73,72.18l9.336-9.284c-2.61-1.929-6.32-1.716-8.691,0.641C694.006,65.894,693.791,69.581,695.73,72.18
		z"/>
</g>
<g>
	<path fill="#56BFED" d="M649.175,3.591c2.616,1.932,6.322,1.719,8.691-0.638c2.37-2.357,2.588-6.046,0.645-8.644L649.175,3.591z"/>
	<path fill="#56BFED" d="M647.784,2.206l9.336-9.282c-2.612-1.931-6.321-1.715-8.691,0.641
		C646.058-4.078,645.843-0.392,647.784,2.206z"/>
</g>
<g>
	<path fill="#56BFED" d="M610.762,62.734c2.616,1.931,6.321,1.717,8.691-0.639c2.372-2.357,2.588-6.046,0.645-8.646L610.762,62.734z
		"/>
	<path fill="#56BFED" d="M609.371,61.351l9.336-9.285c-2.614-1.928-6.322-1.714-8.691,0.641
		C607.644,55.064,607.43,58.75,609.371,61.351z"/>
</g>
<g>
	<path fill="#56BFED" d="M647.823,41.984c2.616,1.932,6.321,1.716,8.691-0.641c2.372-2.355,2.588-6.044,0.645-8.643L647.823,41.984z
		"/>
	<path fill="#56BFED" d="M646.433,40.601l9.336-9.284c-2.614-1.93-6.319-1.716-8.691,0.642
		C644.706,34.314,644.491,38.003,646.433,40.601z"/>
</g>
<g>
	<path fill="#56BFED" d="M578.358,34.341c2.616,1.933,6.323,1.72,8.693-0.638c2.37-2.357,2.586-6.047,0.643-8.644L578.358,34.341z"
		/>
	<path fill="#56BFED" d="M576.967,32.958l9.336-9.284c-2.612-1.929-6.321-1.715-8.691,0.642S575.027,30.359,576.967,32.958z"/>
</g>
<path fill="#56BFED" d="M745.146-8.287c-0.441-3.471-3.557-5.938-6.974-5.532h-0.004c0,0-16.438,2.073-16.476,2.078
	c-3.432,0.431-5.856,3.609-5.409,7.095c0.443,3.486,3.583,5.959,7.017,5.525c0.041-0.005,0.08-0.012,0.123-0.015
	c0.002-0.003,0.008,0,0.012-0.002l16.345-2.06c0,0,0.002-0.001,0.004,0C743.192-1.653,745.589-4.816,745.146-8.287z"/>
<path fill="#56BFED" d="M676.647,32.351c3.049,1.749,6.906,0.774,8.648-2.178l0.002-0.002c0,0,8.281-14.275,8.3-14.306
	c1.729-2.982,0.651-6.823-2.411-8.576c-3.061-1.758-6.943-0.765-8.671,2.218c-0.02,0.032-0.037,0.07-0.059,0.104
	c0,0.004-0.008,0.007-0.008,0.012l-8.234,14.19c0,0,0,0.003-0.004,0.005C672.515,26.791,673.602,30.602,676.647,32.351z"/>
<path fill="#56BFED" d="M568.837,69.733c3.047,1.749,6.904,0.773,8.646-2.177c0-0.001,0.004-0.003,0.004-0.003
	s8.279-14.273,8.298-14.308c1.731-2.981,0.649-6.82-2.411-8.573c-3.059-1.759-6.943-0.766-8.671,2.216
	c-0.02,0.033-0.037,0.07-0.059,0.105c0,0.005-0.006,0.006-0.008,0.01l-8.232,14.192c0,0,0,0.002-0.004,0.004
	C564.703,64.173,565.789,67.984,568.837,69.733z"/>
<g>
	<path fill="#56BFED" d="M600.639-7.074c-2.614-1.935-6.321-1.719-8.691,0.638s-2.588,6.046-0.643,8.644L600.639-7.074z"/>
	<path fill="#56BFED" d="M602.032-5.691l-9.336,9.283c2.61,1.93,6.32,1.716,8.689-0.641C603.755,0.594,603.972-3.092,602.032-5.691z
		"/>
</g>
<g>
	<path fill="#56BFED" d="M547.968,47.917c-2.614-1.932-6.321-1.716-8.689,0.641c-2.372,2.355-2.59,6.044-0.645,8.645L547.968,47.917
		z"/>
	<path fill="#56BFED" d="M549.36,49.3l-9.336,9.284c2.612,1.93,6.319,1.716,8.691-0.642C551.085,55.587,551.3,51.9,549.36,49.3z"/>
</g>
<rect x="0.028" y="0.248" fill="none" width="749.945" height="82.507"/>
<path fill="#56BFED" d="M178.139,16.99c-1.341-3.235-4.995-4.805-8.187-3.524c0,0.002-0.003,0.002-0.003,0.002
	s-15.317,6.282-15.352,6.298c-3.2,1.314-4.703,5.011-3.354,8.256c1.345,3.251,5.032,4.819,8.23,3.506
	c0.037-0.015,0.072-0.031,0.112-0.049c0.004-0.002,0.009,0,0.014-0.002l15.23-6.246c0,0,0.001-0.003,0.003-0.003
	C178.002,23.9,179.481,20.223,178.139,16.99z"/>
<path fill="#56BFED" d="M117.903,36.942c-3.359,1.034-5.264,4.51-4.275,7.787c0.003,0,0.003,0.003,0.003,0.003
	s4.892,15.743,4.904,15.779c1.022,3.29,4.586,5.114,7.96,4.076c3.378-1.038,5.286-4.544,4.262-7.831
	c-0.012-0.037-0.024-0.075-0.04-0.116c0-0.004,0.005-0.008,0-0.015l-4.862-15.65c0,0-0.003-0.002-0.003-0.004
	C124.814,37.708,121.264,35.909,117.903,36.942z"/>
<path fill="#56BFED" d="M77.682,53.229c-1.341-3.235-4.996-4.803-8.187-3.523c0,0.001-0.002,0.001-0.002,0.001
	S54.174,55.99,54.14,56.005c-3.201,1.311-4.702,5.01-3.353,8.255c1.346,3.251,5.03,4.818,8.23,3.506
	c0.037-0.015,0.073-0.032,0.112-0.051c0.003,0,0.009,0.005,0.013,0l15.232-6.247c0,0,0-0.002,0.003-0.002
	C77.545,60.139,79.024,56.462,77.682,53.229z"/>
<path fill="#56BFED" d="M27.613,11.696c-1.34-3.235-4.996-4.804-8.187-3.523c0,0.001-0.003,0.001-0.003,0.001
	S4.104,14.457,4.069,14.471c-3.199,1.312-4.702,5.01-3.352,8.256c1.346,3.25,5.032,4.818,8.228,3.506
	c0.037-0.014,0.074-0.034,0.113-0.05c0.004-0.002,0.011,0.002,0.014-0.002l15.23-6.247c0,0,0.002-0.003,0.004-0.003
	C27.476,18.606,28.955,14.929,27.613,11.696z"/>
<g>
	<path fill="#56BFED" d="M111.47,11.88c-2.613-1.933-6.321-1.72-8.691,0.638c-2.372,2.357-2.587,6.046-0.645,8.644L111.47,11.88z"/>
	<path fill="#56BFED" d="M112.862,13.264l-9.335,9.283c2.611,1.929,6.32,1.716,8.691-0.641
		C114.587,19.549,114.802,15.862,112.862,13.264z"/>
</g>
<path fill="#56BFED" d="M229.597,18.504c-2.884-2.008-6.812-1.372-8.806,1.414c-0.001,0.001-0.005,0.003-0.005,0.003
	s-9.507,13.496-9.53,13.527c-1.983,2.82-1.25,6.741,1.645,8.752c2.894,2.019,6.846,1.369,8.834-1.45
	c0.021-0.033,0.043-0.067,0.068-0.1c0-0.004,0.006-0.006,0.008-0.011l9.455-13.419l0.002-0.004
	C233.221,24.402,232.478,20.511,229.597,18.504z"/>
<g>
	<path fill="#56BFED" d="M206.171,11.753c2.613,1.932,6.319,1.718,8.69-0.639s2.587-6.047,0.645-8.644L206.171,11.753z"/>
	<path fill="#56BFED" d="M204.779,10.369l9.336-9.283c-2.611-1.929-6.32-1.715-8.691,0.642
		C203.053,4.085,202.838,7.771,204.779,10.369z"/>
</g>
<g>
	<path fill="#56BFED" d="M134.578,32.998c2.613,1.933,6.321,1.718,8.691-0.64c2.369-2.356,2.587-6.045,0.643-8.644L134.578,32.998z"
		/>
	<path fill="#56BFED" d="M133.185,31.615l9.336-9.285c-2.611-1.929-6.32-1.714-8.691,0.643
		C131.46,25.329,131.246,29.014,133.185,31.615z"/>
</g>
<g>
	<path fill="#56BFED" d="M143.918,68.026c2.616,1.932,6.321,1.718,8.692-0.639c2.371-2.356,2.587-6.046,0.644-8.645L143.918,68.026z
		"/>
	<path fill="#56BFED" d="M142.527,66.642l9.336-9.281c-2.611-1.933-6.32-1.717-8.69,0.639
		C140.802,60.357,140.588,64.044,142.527,66.642z"/>
</g>
<g>
	<path fill="#56BFED" d="M93.931,73.564c2.615,1.933,6.321,1.717,8.691-0.64c2.371-2.356,2.587-6.043,0.644-8.644L93.931,73.564z"/>
	<path fill="#56BFED" d="M92.54,72.18l9.335-9.284c-2.611-1.929-6.319-1.716-8.69,0.641C90.815,65.894,90.599,69.581,92.54,72.18z"
		/>
</g>
<g>
	<path fill="#56BFED" d="M45.985,3.591c2.614,1.932,6.32,1.719,8.691-0.638c2.369-2.357,2.587-6.046,0.644-8.644L45.985,3.591z"/>
	<path fill="#56BFED" d="M44.593,2.206l9.336-9.282c-2.611-1.931-6.32-1.715-8.691,0.641C42.867-4.078,42.652-0.392,44.593,2.206z"
		/>
</g>
<g>
	<path fill="#56BFED" d="M7.571,62.734c2.615,1.931,6.321,1.717,8.692-0.639c2.371-2.357,2.587-6.046,0.644-8.646L7.571,62.734z"/>
	<path fill="#56BFED" d="M6.18,61.351l9.336-9.285c-2.613-1.928-6.32-1.714-8.69,0.641C4.454,55.064,4.239,58.75,6.18,61.351z"/>
</g>
<g>
	<path fill="#56BFED" d="M209.252,70.209c2.613,1.932,6.322,1.721,8.692-0.637c2.369-2.356,2.587-6.046,0.644-8.645L209.252,70.209z
		"/>
	<path fill="#56BFED" d="M207.86,68.825l9.335-9.28c-2.612-1.932-6.32-1.717-8.69,0.639
		C206.136,62.541,205.919,66.229,207.86,68.825z"/>
</g>
<g>
	<path fill="#56BFED" d="M44.633,41.984c2.616,1.932,6.321,1.716,8.692-0.641c2.371-2.355,2.587-6.044,0.644-8.643L44.633,41.984z"
		/>
	<path fill="#56BFED" d="M43.241,40.601l9.336-9.284c-2.612-1.93-6.32-1.716-8.69,0.642C41.516,34.314,41.3,38.003,43.241,40.601z"
		/>
</g>
<g>
	<path fill="#56BFED" d="M165.818,7.543c2.615,1.932,6.321,1.717,8.692-0.639c2.37-2.357,2.587-6.047,0.644-8.645L165.818,7.543z"/>
	<path fill="#56BFED" d="M164.427,6.158l9.336-9.283c-2.611-1.93-6.322-1.715-8.691,0.642
		C162.701-0.126,162.486,3.559,164.427,6.158z"/>
</g>
<path fill="#56BFED" d="M141.955-8.287c-0.441-3.471-3.558-5.938-6.974-5.532h-0.003c0,0-16.44,2.073-16.476,2.078
	c-3.434,0.431-5.857,3.609-5.409,7.095c0.442,3.486,3.583,5.959,7.016,5.525c0.042-0.005,0.082-0.012,0.124-0.015
	c0.003-0.003,0.007,0,0.011-0.002l16.346-2.06c0,0,0.001-0.001,0.003,0C140.002-1.653,142.399-4.816,141.955-8.287z"/>
<path fill="#56BFED" d="M173.027,64.438c3.047,1.749,6.905,0.775,8.647-2.175l0.003-0.003c0,0,8.278-14.275,8.298-14.307
	c1.729-2.981,0.651-6.823-2.409-8.577c-3.061-1.757-6.941-0.763-8.671,2.218c-0.02,0.033-0.038,0.071-0.06,0.106
	c-0.001,0.005-0.006,0.007-0.008,0.01l-8.234,14.191c0,0,0,0.003-0.003,0.004C168.895,58.88,169.98,62.69,173.027,64.438z"/>
<path fill="#56BFED" d="M73.456,32.351c3.049,1.749,6.906,0.774,8.648-2.178l0.003-0.002c0,0,8.279-14.275,8.299-14.306
	c1.728-2.982,0.651-6.823-2.41-8.576c-3.061-1.758-6.943-0.765-8.671,2.218c-0.02,0.032-0.038,0.07-0.059,0.104
	c0,0.004-0.009,0.007-0.009,0.012l-8.233,14.19c0,0,0,0.003-0.003,0.005C69.325,26.791,70.41,30.602,73.456,32.351z"/>
<rect x="0.028" y="0.248" fill="none" width="749.945" height="82.507"/>
<path fill="#56BFED" d="M479.735,16.99c-1.34-3.235-4.997-4.805-8.187-3.524c0,0.002-0.004,0.002-0.004,0.002
	s-15.317,6.282-15.352,6.298c-3.2,1.314-4.704,5.011-3.352,8.256c1.344,3.251,5.03,4.819,8.23,3.506
	c0.037-0.015,0.072-0.031,0.111-0.049c0.004-0.002,0.01,0,0.014-0.002l15.229-6.246c0,0,0.002-0.003,0.004-0.003
	C479.598,23.9,481.077,20.223,479.735,16.99z"/>
<path fill="#56BFED" d="M419.499,36.942c-3.358,1.034-5.263,4.51-4.276,7.787c0.004,0,0.004,0.003,0.004,0.003
	s4.891,15.743,4.903,15.779c1.022,3.29,4.587,5.114,7.96,4.076c3.378-1.038,5.286-4.544,4.262-7.831
	c-0.012-0.037-0.025-0.075-0.041-0.116c0-0.004,0.006-0.008,0-0.015l-4.86-15.65c0,0-0.004-0.002-0.004-0.004
	C426.409,37.708,422.859,35.909,419.499,36.942z"/>
<path fill="#56BFED" d="M379.277,53.229c-1.34-3.235-4.995-4.803-8.187-3.523c0,0.001-0.002,0.001-0.002,0.001
	s-15.318,6.284-15.353,6.299c-3.201,1.311-4.703,5.01-3.353,8.255c1.346,3.251,5.031,4.818,8.23,3.506
	c0.037-0.015,0.073-0.032,0.112-0.051c0.003,0,0.009,0.005,0.014,0l15.23-6.247c0,0,0-0.002,0.004-0.002
	C379.14,60.139,380.619,56.462,379.277,53.229z"/>
<path fill="#56BFED" d="M329.208,11.696c-1.339-3.235-4.995-4.804-8.186-3.523c0,0.001-0.003,0.001-0.003,0.001
	s-15.319,6.284-15.354,6.298c-3.199,1.312-4.701,5.01-3.352,8.256c1.345,3.25,5.032,4.818,8.228,3.506
	c0.037-0.014,0.074-0.034,0.113-0.05c0.004-0.002,0.011,0.002,0.014-0.002l15.231-6.247c0,0,0.001-0.003,0.004-0.003
	C329.072,18.606,330.551,14.929,329.208,11.696z"/>
<g>
	<path fill="#56BFED" d="M413.066,11.88c-2.614-1.933-6.321-1.72-8.693,0.638c-2.37,2.357-2.586,6.046-0.643,8.644L413.066,11.88z"
		/>
	<path fill="#56BFED" d="M414.457,13.264l-9.334,9.283c2.61,1.929,6.32,1.716,8.689-0.641
		C416.182,19.549,416.399,15.862,414.457,13.264z"/>
</g>
<path fill="#56BFED" d="M269.227,10.999c-2.147-2.773-6.086-3.334-8.829-1.274c0,0.001-0.004,0.004-0.004,0.004
	s-13.133,10.05-13.163,10.071c-2.743,2.101-3.221,6.058-1.065,8.843c2.154,2.785,6.123,3.341,8.866,1.242
	c0.029-0.024,0.061-0.05,0.095-0.075c0.004-0.005,0.009-0.002,0.012-0.008l13.057-9.99c0,0,0.002-0.003,0.006-0.003
	C270.911,17.705,271.37,13.772,269.227,10.999z"/>
<g>
	<path fill="#56BFED" d="M239.779-1.134c2.615,1.932,6.323,1.718,8.692-0.639c2.371-2.356,2.588-6.045,0.644-8.644L239.779-1.134z"
		/>
	<path fill="#56BFED" d="M238.387-2.518l9.338-9.282c-2.615-1.931-6.321-1.716-8.691,0.64
		C236.663-8.803,236.446-5.117,238.387-2.518z"/>
</g>
<path fill="#56BFED" d="M531.193,18.504c-2.883-2.008-6.812-1.372-8.806,1.414c-0.002,0.001-0.004,0.003-0.004,0.003
	s-9.508,13.496-9.529,13.527c-1.983,2.82-1.25,6.741,1.643,8.752c2.895,2.019,6.847,1.369,8.834-1.45
	c0.023-0.033,0.045-0.067,0.068-0.1c0-0.004,0.008-0.006,0.01-0.011l9.453-13.419l0.002-0.004
	C534.817,24.402,534.075,20.511,531.193,18.504z"/>
<g>
	<path fill="#56BFED" d="M507.767,11.753c2.614,1.932,6.32,1.718,8.689-0.639c2.372-2.357,2.588-6.047,0.645-8.644L507.767,11.753z"
		/>
	<path fill="#56BFED" d="M506.374,10.369l9.336-9.283c-2.612-1.929-6.321-1.715-8.691,0.642
		C504.649,4.085,504.434,7.771,506.374,10.369z"/>
</g>
<g>
	<path fill="#56BFED" d="M436.174,32.998c2.614,1.933,6.321,1.718,8.691-0.64c2.37-2.356,2.586-6.045,0.643-8.644L436.174,32.998z"
		/>
	<path fill="#56BFED" d="M434.779,31.615l9.336-9.285c-2.61-1.929-6.32-1.714-8.689,0.643
		C433.056,25.329,432.841,29.014,434.779,31.615z"/>
</g>
<g>
	<path fill="#56BFED" d="M445.514,68.026c2.616,1.932,6.322,1.718,8.693-0.639c2.37-2.356,2.586-6.046,0.643-8.645L445.514,68.026z"
		/>
	<path fill="#56BFED" d="M444.123,66.642l9.336-9.281c-2.612-1.933-6.32-1.717-8.691,0.639
		C442.398,60.357,442.183,64.044,444.123,66.642z"/>
</g>
<g>
	<path fill="#56BFED" d="M395.526,73.564c2.616,1.933,6.321,1.717,8.693-0.64c2.37-2.356,2.586-6.043,0.643-8.644L395.526,73.564z"
		/>
	<path fill="#56BFED" d="M394.135,72.18l9.336-9.284c-2.612-1.929-6.32-1.716-8.691,0.641
		C392.41,65.894,392.195,69.581,394.135,72.18z"/>
</g>
<g>
	<path fill="#56BFED" d="M347.582,3.591c2.614,1.932,6.319,1.719,8.69-0.638c2.37-2.357,2.587-6.046,0.644-8.644L347.582,3.591z"/>
	<path fill="#56BFED" d="M346.189,2.206l9.336-9.282c-2.612-1.931-6.32-1.715-8.691,0.641
		C344.463-4.078,344.248-0.392,346.189,2.206z"/>
</g>
<g>
	<path fill="#56BFED" d="M309.166,62.734c2.616,1.931,6.321,1.717,8.692-0.639c2.371-2.357,2.587-6.046,0.644-8.646L309.166,62.734z
		"/>
	<path fill="#56BFED" d="M307.776,61.351l9.336-9.285c-2.613-1.928-6.32-1.714-8.691,0.641
		C306.05,55.064,305.835,58.75,307.776,61.351z"/>
</g>
<g>
	<path fill="#56BFED" d="M510.848,70.209c2.614,1.932,6.323,1.721,8.691-0.637c2.372-2.356,2.588-6.046,0.645-8.645L510.848,70.209z
		"/>
	<path fill="#56BFED" d="M509.455,68.825l9.336-9.28c-2.612-1.932-6.319-1.717-8.689,0.639
		C507.732,62.541,507.515,66.229,509.455,68.825z"/>
</g>
<g>
	<path fill="#56BFED" d="M346.228,41.984c2.617,1.932,6.321,1.716,8.692-0.641c2.371-2.355,2.587-6.044,0.644-8.643L346.228,41.984z
		"/>
	<path fill="#56BFED" d="M344.837,40.601l9.336-9.284c-2.613-1.93-6.319-1.716-8.69,0.642
		C343.111,34.314,342.896,38.003,344.837,40.601z"/>
</g>
<g>
	<path fill="#56BFED" d="M276.763,34.341c2.615,1.933,6.323,1.72,8.692-0.638c2.371-2.357,2.587-6.047,0.643-8.644L276.763,34.341z"
		/>
	<path fill="#56BFED" d="M275.372,32.958l9.336-9.284c-2.613-1.929-6.321-1.715-8.692,0.642
		C273.647,26.673,273.432,30.359,275.372,32.958z"/>
</g>
<g>
	<path fill="#56BFED" d="M467.414,7.543c2.616,1.932,6.321,1.717,8.691-0.639c2.37-2.357,2.588-6.047,0.645-8.645L467.414,7.543z"/>
	<path fill="#56BFED" d="M466.023,6.158l9.336-9.283c-2.612-1.93-6.321-1.715-8.691,0.642
		C464.296-0.126,464.081,3.559,466.023,6.158z"/>
</g>
<path fill="#56BFED" d="M443.55-8.287c-0.442-3.471-3.557-5.938-6.974-5.532h-0.002c0,0-16.44,2.073-16.478,2.078
	c-3.432,0.431-5.856,3.609-5.409,7.095c0.441,3.486,3.583,5.959,7.017,5.525c0.041-0.005,0.08-0.012,0.123-0.015
	c0.002-0.003,0.008,0,0.012-0.002l16.345-2.06c0,0,0.002-0.001,0.004,0C441.599-1.653,443.994-4.816,443.55-8.287z"/>
<path fill="#56BFED" d="M474.622,64.438c3.047,1.749,6.906,0.775,8.648-2.175l0.004-0.003c0,0,8.277-14.275,8.297-14.307
	c1.731-2.981,0.651-6.823-2.409-8.577c-3.061-1.757-6.941-0.763-8.67,2.218c-0.021,0.033-0.037,0.071-0.06,0.106
	c-0.002,0.005-0.008,0.007-0.01,0.01l-8.232,14.191c0,0,0,0.003-0.004,0.004C470.491,58.88,471.577,62.69,474.622,64.438z"/>
<path fill="#56BFED" d="M375.052,32.351c3.049,1.749,6.906,0.774,8.648-2.178l0.002-0.002c0,0,8.281-14.275,8.3-14.306
	c1.727-2.982,0.651-6.823-2.411-8.576c-3.061-1.758-6.943-0.765-8.671,2.218c-0.02,0.032-0.037,0.07-0.059,0.104
	c0,0.004-0.008,0.007-0.008,0.012l-8.234,14.19c0,0,0,0.003-0.004,0.005C370.92,26.791,372.006,30.602,375.052,32.351z"/>
<path fill="#56BFED" d="M267.241,69.733c3.048,1.749,6.905,0.773,8.647-2.177c0-0.001,0.003-0.003,0.003-0.003
	s8.279-14.273,8.299-14.308c1.729-2.981,0.649-6.82-2.41-8.573c-3.061-1.759-6.944-0.766-8.672,2.216
	c-0.018,0.033-0.037,0.07-0.059,0.105c-0.001,0.005-0.007,0.006-0.008,0.01l-8.233,14.192c0,0,0,0.002-0.003,0.004
	C263.108,64.173,264.193,67.984,267.241,69.733z"/>
<g>
	<path fill="#56BFED" d="M299.045-7.074c-2.615-1.935-6.321-1.719-8.691,0.638c-2.371,2.357-2.588,6.046-0.644,8.644L299.045-7.074z
		"/>
	<path fill="#56BFED" d="M300.436-5.691L291.1,3.592c2.611,1.93,6.319,1.716,8.691-0.641C302.161,0.594,302.376-3.092,300.436-5.691
		z"/>
</g>
<g>
	<path fill="#56BFED" d="M246.373,47.917c-2.614-1.932-6.321-1.716-8.69,0.641c-2.371,2.355-2.588,6.044-0.644,8.645L246.373,47.917
		z"/>
	<path fill="#56BFED" d="M247.766,49.3l-9.336,9.284c2.612,1.93,6.319,1.716,8.69-0.642C249.49,55.587,249.705,51.9,247.766,49.3z"
		/>
</g>
</svg>
