<?xml version="1.0" encoding="utf-8"?>
<!-- Generator: Adobe Illustrator 17.0.0, SVG Export Plug-In . SVG Version: 6.00 Build 0)  -->
<!DOCTYPE svg PUBLIC "-//W3C//DTD SVG 1.1//EN" "http://www.w3.org/Graphics/SVG/1.1/DTD/svg11.dtd">
<svg version="1.1" id="Layer_1" xmlns="http://www.w3.org/2000/svg" xmlns:xlink="http://www.w3.org/1999/xlink" x="0px" y="0px"
	 width="750px" height="83px" viewBox="0 0 750 83" enable-background="new 0 0 750 83" xml:space="preserve">
<g id="Pattern_1_">
	<defs>
		
			<rect id="SVGID_1_" x="0.028" y="0.246" transform="matrix(-1 6.562789e-04 -6.562789e-04 -1 750.0272 82.7563)" width="749.945" height="82.51"/>
	</defs>
	<clipPath id="SVGID_2_">
		<use xlink:href="#SVGID_1_"  overflow="visible"/>
	</clipPath>
	<path clip-path="url(#SVGID_2_)" fill="#04B5DE" d="M817.394,51.673"/>
	<path clip-path="url(#SVGID_2_)" fill="#04B5DE" d="M375.001,40.54"/>
	<g clip-path="url(#SVGID_2_)">
		<g>
			<line fill="#8A8B8E" x1="374.955" y1="-267.286" x2="374.955" y2="347.473"/>
			<line fill="#8A8B8E" x1="387.09" y1="-267.286" x2="387.09" y2="347.473"/>
			<line fill="#8A8B8E" x1="399.225" y1="-267.286" x2="399.225" y2="347.473"/>
			<line fill="#8A8B8E" x1="411.359" y1="-267.286" x2="411.359" y2="347.473"/>
			<line fill="#8A8B8E" x1="423.495" y1="-267.286" x2="423.495" y2="347.473"/>
			<line fill="#8A8B8E" x1="435.629" y1="-267.286" x2="435.629" y2="347.473"/>
			<line fill="#8A8B8E" x1="447.762" y1="-267.286" x2="447.762" y2="347.473"/>
			<line fill="#8A8B8E" x1="459.897" y1="-267.286" x2="459.897" y2="347.473"/>
			<line fill="#8A8B8E" x1="472.033" y1="-267.286" x2="472.033" y2="347.473"/>
			<line fill="#8A8B8E" x1="484.167" y1="-267.286" x2="484.167" y2="347.473"/>
			<line fill="#8A8B8E" x1="496.3" y1="-267.286" x2="496.3" y2="347.473"/>
			<line fill="#8A8B8E" x1="508.434" y1="-267.286" x2="508.434" y2="347.473"/>
			<line fill="#8A8B8E" x1="520.57" y1="-267.286" x2="520.57" y2="347.473"/>
			<line fill="#8A8B8E" x1="532.704" y1="-267.286" x2="532.704" y2="347.473"/>
			<line fill="#8A8B8E" x1="544.838" y1="-267.286" x2="544.838" y2="347.473"/>
			<line fill="#8A8B8E" x1="556.974" y1="-267.286" x2="556.974" y2="347.473"/>
			<line fill="#8A8B8E" x1="569.109" y1="-267.286" x2="569.109" y2="347.473"/>
			<line fill="#8A8B8E" x1="581.243" y1="-267.286" x2="581.243" y2="347.473"/>
			<line fill="#8A8B8E" x1="641.916" y1="-267.286" x2="641.916" y2="347.473"/>
			<line fill="#8A8B8E" x1="593.379" y1="-267.286" x2="593.379" y2="347.473"/>
			<line fill="#8A8B8E" x1="605.514" y1="-267.286" x2="605.514" y2="347.473"/>
			<line fill="#8A8B8E" x1="617.646" y1="-267.286" x2="617.646" y2="347.473"/>
			<line fill="#8A8B8E" x1="629.781" y1="-267.286" x2="629.781" y2="347.473"/>
			<line fill="#8A8B8E" x1="654.049" y1="-267.286" x2="654.049" y2="347.473"/>
			<line fill="#8A8B8E" x1="666.184" y1="-267.286" x2="666.184" y2="347.473"/>
			<line fill="#8A8B8E" x1="678.319" y1="-267.286" x2="678.319" y2="347.473"/>
			<line fill="#8A8B8E" x1="690.454" y1="-267.286" x2="690.454" y2="347.473"/>
			<line fill="#8A8B8E" x1="714.724" y1="-267.286" x2="714.724" y2="347.473"/>
			<line fill="#8A8B8E" x1="751.126" y1="-267.286" x2="751.126" y2="347.473"/>
			<line fill="#8A8B8E" x1="775.395" y1="-267.286" x2="775.395" y2="347.473"/>
			<line fill="#8A8B8E" x1="799.665" y1="-267.286" x2="799.665" y2="347.473"/>
			<line fill="#8A8B8E" x1="738.992" y1="-267.286" x2="738.992" y2="347.473"/>
			<line fill="#8A8B8E" x1="702.589" y1="-267.286" x2="702.589" y2="347.473"/>
			<line fill="#8A8B8E" x1="726.859" y1="-267.286" x2="726.859" y2="347.473"/>
			<line fill="#8A8B8E" x1="763.26" y1="-267.286" x2="763.26" y2="347.473"/>
			<line fill="#8A8B8E" x1="787.531" y1="-267.286" x2="787.531" y2="347.473"/>
			<line fill="#8A8B8E" x1="811.802" y1="-267.286" x2="811.802" y2="347.473"/>
			<line fill="#8A8B8E" x1="823.937" y1="-267.286" x2="823.937" y2="347.473"/>
			<line fill="#8A8B8E" x1="836.071" y1="-267.286" x2="836.071" y2="347.473"/>
			<line fill="#8A8B8E" x1="848.207" y1="-267.286" x2="848.207" y2="347.473"/>
			<line fill="#8A8B8E" x1="860.339" y1="-267.286" x2="860.339" y2="347.473"/>
			<line fill="#8A8B8E" x1="872.473" y1="-267.286" x2="872.473" y2="347.473"/>
		</g>
		<g>
			<line fill="#8A8B8E" x1="872.473" y1="-208.321" x2="374.955" y2="-208.321"/>
			<line fill="#8A8B8E" x1="872.473" y1="-196.204" x2="374.955" y2="-196.204"/>
			<line fill="#8A8B8E" x1="872.473" y1="-184.085" x2="374.955" y2="-184.085"/>
			<line fill="#8A8B8E" x1="872.473" y1="-171.967" x2="374.955" y2="-171.967"/>
			<line fill="#8A8B8E" x1="872.473" y1="-159.849" x2="374.955" y2="-159.849"/>
			<line fill="#8A8B8E" x1="872.473" y1="-147.731" x2="374.955" y2="-147.731"/>
			<line fill="#8A8B8E" x1="872.473" y1="-135.612" x2="374.955" y2="-135.612"/>
			<line fill="#8A8B8E" x1="872.473" y1="-123.495" x2="374.955" y2="-123.495"/>
			<line fill="#8A8B8E" x1="872.473" y1="-111.381" x2="374.955" y2="-111.381"/>
			<line fill="#8A8B8E" x1="872.473" y1="-99.263" x2="374.955" y2="-99.263"/>
			<line fill="#8A8B8E" x1="872.473" y1="-87.145" x2="374.955" y2="-87.145"/>
			<line fill="#8A8B8E" x1="872.473" y1="-75.026" x2="374.955" y2="-75.026"/>
			<line fill="#8A8B8E" x1="872.473" y1="-62.907" x2="374.955" y2="-62.907"/>
			<line fill="#8A8B8E" x1="872.473" y1="-50.789" x2="374.955" y2="-50.789"/>
			<line fill="#8A8B8E" x1="872.473" y1="-38.672" x2="374.955" y2="-38.672"/>
			<line fill="#8A8B8E" x1="872.473" y1="-26.553" x2="374.955" y2="-26.553"/>
			<line fill="#8A8B8E" x1="872.473" y1="-14.436" x2="374.955" y2="-14.436"/>
			<line fill="#8A8B8E" x1="872.473" y1="-2.317" x2="374.955" y2="-2.317"/>
			<line fill="#8A8B8E" x1="872.473" y1="58.271" x2="374.955" y2="58.271"/>
			<line fill="#8A8B8E" x1="872.473" y1="9.797" x2="374.955" y2="9.797"/>
			<line fill="#8A8B8E" x1="872.473" y1="21.916" x2="374.955" y2="21.916"/>
			<line fill="#8A8B8E" x1="872.473" y1="34.036" x2="374.955" y2="34.036"/>
			<line fill="#8A8B8E" x1="872.473" y1="46.152" x2="374.955" y2="46.152"/>
			<line fill="#8A8B8E" x1="872.473" y1="70.39" x2="374.955" y2="70.39"/>
			<line fill="#8A8B8E" x1="872.473" y1="82.506" x2="374.955" y2="82.506"/>
			<line fill="#8A8B8E" x1="872.473" y1="94.626" x2="374.955" y2="94.626"/>
			<line fill="#8A8B8E" x1="872.473" y1="106.742" x2="374.955" y2="106.742"/>
			<line fill="#8A8B8E" x1="872.473" y1="130.975" x2="374.955" y2="130.975"/>
			<line fill="#8A8B8E" x1="872.473" y1="167.33" x2="374.955" y2="167.33"/>
			<line fill="#8A8B8E" x1="872.473" y1="191.565" x2="374.955" y2="191.565"/>
			<line fill="#8A8B8E" x1="872.473" y1="215.803" x2="374.955" y2="215.803"/>
			<line fill="#8A8B8E" x1="872.473" y1="155.213" x2="374.955" y2="155.213"/>
			<line fill="#8A8B8E" x1="872.473" y1="118.861" x2="374.955" y2="118.861"/>
			<line fill="#8A8B8E" x1="872.473" y1="143.095" x2="374.955" y2="143.095"/>
			<line fill="#8A8B8E" x1="872.473" y1="179.448" x2="374.955" y2="179.448"/>
			<line fill="#8A8B8E" x1="872.473" y1="203.685" x2="374.955" y2="203.685"/>
			<line fill="#8A8B8E" x1="872.473" y1="227.92" x2="374.955" y2="227.92"/>
			<line fill="#8A8B8E" x1="872.473" y1="240.039" x2="374.955" y2="240.039"/>
			<line fill="#8A8B8E" x1="872.473" y1="252.154" x2="374.955" y2="252.154"/>
			<line fill="#8A8B8E" x1="872.473" y1="264.274" x2="374.955" y2="264.274"/>
			<line fill="#8A8B8E" x1="872.473" y1="276.392" x2="374.955" y2="276.392"/>
			<line fill="#8A8B8E" x1="872.473" y1="288.511" x2="374.955" y2="288.511"/>
		</g>
		<line fill="#8A8B8E" x1="-122.47" y1="-267.286" x2="-122.47" y2="347.473"/>
		<line fill="#8A8B8E" x1="-110.335" y1="-267.286" x2="-110.335" y2="347.473"/>
		<line fill="#8A8B8E" x1="-98.201" y1="-267.286" x2="-98.201" y2="347.473"/>
		<line fill="#8A8B8E" x1="-86.066" y1="-267.286" x2="-86.066" y2="347.473"/>
		<line fill="#8A8B8E" x1="-73.93" y1="-267.286" x2="-73.93" y2="347.473"/>
		<line fill="#8A8B8E" x1="-61.797" y1="-267.286" x2="-61.797" y2="347.473"/>
		<line fill="#8A8B8E" x1="-49.661" y1="-267.286" x2="-49.661" y2="347.473"/>
		<line fill="#8A8B8E" x1="-37.527" y1="-267.286" x2="-37.527" y2="347.473"/>
		<line fill="#8A8B8E" x1="-25.392" y1="-267.286" x2="-25.392" y2="347.473"/>
		<line fill="#8A8B8E" x1="-13.258" y1="-267.286" x2="-13.258" y2="347.473"/>
		<line fill="#8A8B8E" x1="-1.125" y1="-267.286" x2="-1.125" y2="347.473"/>
		<line fill="#8A8B8E" x1="11.009" y1="-267.286" x2="11.009" y2="347.473"/>
		<line fill="#8A8B8E" x1="23.145" y1="-267.286" x2="23.145" y2="347.473"/>
		<line fill="#8A8B8E" x1="35.279" y1="-267.286" x2="35.279" y2="347.473"/>
		<line fill="#8A8B8E" x1="47.414" y1="-267.286" x2="47.414" y2="347.473"/>
		<line fill="#8A8B8E" x1="59.549" y1="-267.286" x2="59.549" y2="347.473"/>
		<line fill="#8A8B8E" x1="71.684" y1="-267.286" x2="71.684" y2="347.473"/>
		<line fill="#8A8B8E" x1="83.819" y1="-267.286" x2="83.819" y2="347.473"/>
		<line fill="#8A8B8E" x1="144.491" y1="-267.286" x2="144.491" y2="347.473"/>
		<line fill="#8A8B8E" x1="95.954" y1="-267.286" x2="95.954" y2="347.473"/>
		<line fill="#8A8B8E" x1="108.089" y1="-267.286" x2="108.089" y2="347.473"/>
		<line fill="#8A8B8E" x1="120.222" y1="-267.286" x2="120.222" y2="347.473"/>
		<line fill="#8A8B8E" x1="132.356" y1="-267.286" x2="132.356" y2="347.473"/>
		<line fill="#8A8B8E" x1="156.624" y1="-267.286" x2="156.624" y2="347.473"/>
		<line fill="#8A8B8E" x1="168.759" y1="-267.286" x2="168.759" y2="347.473"/>
		<line fill="#8A8B8E" x1="180.895" y1="-267.286" x2="180.895" y2="347.473"/>
		<line fill="#8A8B8E" x1="193.029" y1="-267.286" x2="193.029" y2="347.473"/>
		<line fill="#8A8B8E" x1="217.3" y1="-267.286" x2="217.3" y2="347.473"/>
		<line fill="#8A8B8E" x1="253.701" y1="-267.286" x2="253.701" y2="347.473"/>
		<line fill="#8A8B8E" x1="277.971" y1="-267.286" x2="277.971" y2="347.473"/>
		<line fill="#8A8B8E" x1="302.24" y1="-267.286" x2="302.24" y2="347.473"/>
		<line fill="#8A8B8E" x1="241.567" y1="-267.286" x2="241.567" y2="347.473"/>
		<line fill="#8A8B8E" x1="205.164" y1="-267.286" x2="205.164" y2="347.473"/>
		<line fill="#8A8B8E" x1="229.435" y1="-267.286" x2="229.435" y2="347.473"/>
		<line fill="#8A8B8E" x1="265.837" y1="-267.286" x2="265.837" y2="347.473"/>
		<line fill="#8A8B8E" x1="290.105" y1="-267.286" x2="290.105" y2="347.473"/>
		<line fill="#8A8B8E" x1="314.377" y1="-267.286" x2="314.377" y2="347.473"/>
		<line fill="#8A8B8E" x1="326.512" y1="-267.286" x2="326.512" y2="347.473"/>
		<line fill="#8A8B8E" x1="338.646" y1="-267.286" x2="338.646" y2="347.473"/>
		<line fill="#8A8B8E" x1="350.781" y1="-267.286" x2="350.781" y2="347.473"/>
		<line fill="#8A8B8E" x1="362.914" y1="-267.286" x2="362.914" y2="347.473"/>
		<g>
			<line fill="#8A8B8E" x1="375.049" y1="-208.321" x2="-122.47" y2="-208.321"/>
			<line fill="#8A8B8E" x1="375.049" y1="-196.204" x2="-122.47" y2="-196.204"/>
			<line fill="#8A8B8E" x1="375.049" y1="-184.085" x2="-122.47" y2="-184.085"/>
			<line fill="#8A8B8E" x1="375.049" y1="-171.967" x2="-122.47" y2="-171.967"/>
			<line fill="#8A8B8E" x1="375.049" y1="-159.849" x2="-122.47" y2="-159.849"/>
			<line fill="#8A8B8E" x1="375.049" y1="-147.731" x2="-122.47" y2="-147.731"/>
			<line fill="#8A8B8E" x1="375.049" y1="-135.612" x2="-122.47" y2="-135.612"/>
			<line fill="#8A8B8E" x1="375.049" y1="-123.495" x2="-122.47" y2="-123.495"/>
			<line fill="#8A8B8E" x1="375.049" y1="-111.381" x2="-122.47" y2="-111.381"/>
			<line fill="#8A8B8E" x1="375.049" y1="-99.263" x2="-122.47" y2="-99.263"/>
			<line fill="#8A8B8E" x1="375.049" y1="-87.145" x2="-122.47" y2="-87.145"/>
			<line fill="#8A8B8E" x1="375.049" y1="-75.026" x2="-122.47" y2="-75.026"/>
			<line fill="#8A8B8E" x1="375.049" y1="-62.907" x2="-122.47" y2="-62.907"/>
			<line fill="#8A8B8E" x1="375.049" y1="-50.789" x2="-122.47" y2="-50.789"/>
			<line fill="#8A8B8E" x1="375.049" y1="-38.672" x2="-122.47" y2="-38.672"/>
			<line fill="#8A8B8E" x1="375.049" y1="-26.553" x2="-122.47" y2="-26.553"/>
			<line fill="#8A8B8E" x1="375.049" y1="-14.436" x2="-122.47" y2="-14.436"/>
			<line fill="#8A8B8E" x1="375.049" y1="-2.317" x2="-122.47" y2="-2.317"/>
			<line fill="#8A8B8E" x1="375.049" y1="58.271" x2="-122.47" y2="58.271"/>
			<line fill="#8A8B8E" x1="375.049" y1="9.797" x2="-122.47" y2="9.797"/>
			<line fill="#8A8B8E" x1="375.049" y1="21.916" x2="-122.47" y2="21.916"/>
			<line fill="#8A8B8E" x1="375.049" y1="34.036" x2="-122.47" y2="34.036"/>
			<line fill="#8A8B8E" x1="375.049" y1="46.152" x2="-122.47" y2="46.152"/>
			<line fill="#8A8B8E" x1="375.049" y1="70.39" x2="-122.47" y2="70.39"/>
			<line fill="#8A8B8E" x1="375.049" y1="82.506" x2="-122.47" y2="82.506"/>
			<line fill="#8A8B8E" x1="375.049" y1="94.626" x2="-122.47" y2="94.626"/>
			<line fill="#8A8B8E" x1="375.049" y1="106.742" x2="-122.47" y2="106.742"/>
			<line fill="#8A8B8E" x1="375.049" y1="130.975" x2="-122.47" y2="130.975"/>
			<line fill="#8A8B8E" x1="375.049" y1="167.33" x2="-122.47" y2="167.33"/>
			<line fill="#8A8B8E" x1="375.049" y1="191.565" x2="-122.47" y2="191.565"/>
			<line fill="#8A8B8E" x1="375.049" y1="215.803" x2="-122.47" y2="215.803"/>
			<line fill="#8A8B8E" x1="375.049" y1="155.213" x2="-122.47" y2="155.213"/>
			<line fill="#8A8B8E" x1="375.049" y1="118.861" x2="-122.47" y2="118.861"/>
			<line fill="#8A8B8E" x1="375.049" y1="143.095" x2="-122.47" y2="143.095"/>
			<line fill="#8A8B8E" x1="375.049" y1="179.448" x2="-122.47" y2="179.448"/>
			<line fill="#8A8B8E" x1="375.049" y1="203.685" x2="-122.47" y2="203.685"/>
			<line fill="#8A8B8E" x1="375.049" y1="227.92" x2="-122.47" y2="227.92"/>
			<line fill="#8A8B8E" x1="375.049" y1="240.039" x2="-122.47" y2="240.039"/>
			<line fill="#8A8B8E" x1="375.049" y1="252.154" x2="-122.47" y2="252.154"/>
			<line fill="#8A8B8E" x1="375.049" y1="264.274" x2="-122.47" y2="264.274"/>
			<line fill="#8A8B8E" x1="375.049" y1="276.392" x2="-122.47" y2="276.392"/>
			<line fill="#8A8B8E" x1="375.049" y1="288.511" x2="-122.47" y2="288.511"/>
		</g>
	</g>
</g>
</svg>
