<?xml version="1.0" encoding="utf-8"?>
<!-- Generator: Adobe Illustrator 17.0.0, SVG Export Plug-In . SVG Version: 6.00 Build 0)  -->
<!DOCTYPE svg PUBLIC "-//W3C//DTD SVG 1.1//EN" "http://www.w3.org/Graphics/SVG/1.1/DTD/svg11.dtd">
<svg version="1.1" id="Layer_1" xmlns="http://www.w3.org/2000/svg" xmlns:xlink="http://www.w3.org/1999/xlink" x="0px" y="0px"
	 width="750px" height="83px" viewBox="0 0 750 83" enable-background="new 0 0 750 83" xml:space="preserve">
<g id="pattern">
	<defs>
		
			<rect id="SVGID_1_" x="0.027" y="0.247" transform="matrix(-1 6.600936e-04 -6.600936e-04 -1 750.0273 82.7543)" width="749.945" height="82.507"/>
	</defs>
	<clipPath id="SVGID_2_">
		<use xlink:href="#SVGID_1_"  overflow="visible"/>
	</clipPath>
	<g clip-path="url(#SVGID_2_)">
		<ellipse fill="#56ACB2" cx="572.197" cy="-45.386" rx="6.016" ry="6.001"/>
		<ellipse fill="#56ACB2" cx="581.129" cy="-30.292" rx="2.905" ry="2.898"/>
		<ellipse fill="#56ACB2" cx="577.848" cy="-19.374" rx="2.179" ry="2.173"/>
		<ellipse fill="#56ACB2" cx="604.624" cy="-50.219" rx="2.178" ry="2.173"/>
		<ellipse fill="#56ACB2" cx="706.657" cy="-23.989" rx="2.179" ry="2.173"/>
		<circle fill="#56ACB2" cx="645.83" cy="119.299" r="2.178"/>
		<ellipse fill="#56ACB2" cx="617.183" cy="122.822" rx="2.179" ry="2.173"/>
		<ellipse fill="#56ACB2" cx="655.64" cy="101.681" rx="3.812" ry="3.804"/>
		<ellipse fill="#56ACB2" cx="664.992" cy="2.076" rx="2.179" ry="2.173"/>
		<ellipse fill="#56ACB2" cx="712.743" cy="20.991" rx="2.179" ry="2.173"/>
		<ellipse fill="#56ACB2" cx="736.076" cy="53.725" rx="2.178" ry="2.173"/>
		<ellipse fill="#56ACB2" cx="714.566" cy="115.917" rx="2.179" ry="2.173"/>
		<ellipse fill="#56ACB2" cx="731.883" cy="117.193" rx="4.493" ry="4.481"/>
		<ellipse fill="#56ACB2" cx="725.14" cy="-41.93" rx="3.268" ry="3.259"/>
		<path fill="#56ACB2" d="M728.406-22.653c0,4.006-3.26,7.259-7.277,7.259c-4.019,0-7.281-3.253-7.281-7.259
			c0-4.01,3.261-7.263,7.281-7.263C725.146-29.916,728.406-26.664,728.406-22.653z"/>
		<path fill="#56ACB2" d="M666.428,74.809c0,4.007-3.26,7.259-7.277,7.259c-4.02,0-7.281-3.253-7.281-7.259
			c0-4.01,3.26-7.263,7.281-7.263C663.168,67.546,666.428,70.799,666.428,74.809z"/>
		<ellipse fill="#56ACB2" cx="723.315" cy="5.35" rx="3.633" ry="3.624"/>
		<path fill="#56ACB2" d="M734.605,30.811c0,3.606-2.933,6.532-6.548,6.532c-3.618,0-6.552-2.926-6.552-6.532
			c0-3.609,2.934-6.536,6.552-6.536C731.672,24.275,734.605,27.203,734.605,30.811z"/>
		<ellipse fill="#56ACB2" cx="569.281" cy="-8.277" rx="2.361" ry="2.355"/>
		<ellipse fill="#56ACB2" cx="603.734" cy="-6.098" rx="2.361" ry="2.355"/>
		<ellipse fill="#56ACB2" cx="726.962" cy="101.197" rx="2.361" ry="2.355"/>
		<ellipse fill="#56ACB2" cx="623.422" cy="24.627" rx="2.361" ry="2.355"/>
		<ellipse fill="#56ACB2" cx="659.15" cy="74.455" rx="2.361" ry="2.355"/>
		<ellipse fill="#56ACB2" cx="630.895" cy="106.28" rx="3.098" ry="3.091"/>
		<path fill="#56ACB2" d="M585.406,8.843c-3.833,1.231-7.941-0.872-9.174-4.695c-1.233-3.825,0.874-7.922,4.706-9.153
			c3.834-1.23,7.941,0.87,9.174,4.695C591.346,3.514,589.24,7.612,585.406,8.843z"/>
		<path fill="#56ACB2" d="M675.821-10.071c-3.833,1.231-7.939-0.872-9.174-4.693c-1.235-3.825,0.873-7.921,4.704-9.153
			c3.835-1.231,7.941,0.87,9.177,4.695C681.761-15.399,679.654-11.302,675.821-10.071z"/>
		<path fill="#56ACB2" d="M623.505-14.209c-4.507,1.448-9.338-1.025-10.787-5.52c-1.451-4.497,1.026-9.315,5.532-10.763
			c4.508-1.447,9.337,1.023,10.788,5.52C630.488-20.475,628.013-15.657,623.505-14.209z"/>
		<path fill="#56ACB2" d="M573.921,86.901c-4.507,1.448-9.338-1.025-10.787-5.519c-1.451-4.498,1.026-9.315,5.532-10.763
			c4.509-1.447,9.337,1.023,10.789,5.52C580.905,80.636,578.43,85.453,573.921,86.901z"/>
		<path fill="#56ACB2" d="M590.346,121.115c-2.676,0.859-5.544-0.61-6.405-3.278c-0.861-2.67,0.609-5.53,3.285-6.391
			c2.678-0.858,5.545,0.608,6.406,3.279C594.493,117.395,593.023,120.254,590.346,121.115z"/>
		<path fill="#56ACB2" d="M573.949,110.145c-2.676,0.859-5.544-0.609-6.405-3.277c-0.861-2.671,0.609-5.531,3.284-6.391
			c2.678-0.859,5.546,0.607,6.407,3.277C578.096,106.424,576.625,109.285,573.949,110.145z"/>
		<path fill="#56ACB2" d="M664.7-35.92c-4.508,1.448-9.336-1.025-10.788-5.52c-1.449-4.497,1.028-9.315,5.533-10.763
			c4.508-1.447,9.339,1.023,10.79,5.52C671.686-42.185,669.208-37.369,664.7-35.92z"/>
		<path fill="#56ACB2" d="M709.178,53.806c-4.507,1.447-9.336-1.026-10.787-5.52c-1.449-4.498,1.027-9.315,5.532-10.763
			c4.509-1.446,9.34,1.025,10.791,5.52C716.164,47.539,713.687,52.357,709.178,53.806z"/>
		<path fill="#56ACB2" d="M728.417,80.538c-5.613,1.803-11.63-1.277-13.438-6.876c-1.806-5.603,1.281-11.602,6.893-13.407
			c5.616-1.803,11.631,1.275,13.44,6.877C737.118,72.732,734.034,78.735,728.417,80.538z"/>
		<path fill="#56ACB2" d="M707.633,108.488c-5.613,1.803-11.63-1.276-13.438-6.875c-1.805-5.603,1.28-11.604,6.893-13.409
			c5.617-1.801,11.632,1.275,13.441,6.877C716.334,100.683,713.25,106.684,707.633,108.488z"/>
		<path fill="#56ACB2" d="M671.099,122.764c-4.304,1.383-8.914-0.979-10.301-5.27c-1.383-4.294,0.982-8.892,5.283-10.275
			c4.305-1.382,8.916,0.977,10.302,5.27C677.767,116.782,675.404,121.382,671.099,122.764z"/>
		<path fill="#56ACB2" d="M616.051,92.59c-4.232,1.359-8.768-0.962-10.132-5.183c-1.362-4.224,0.966-8.748,5.197-10.109
			c4.234-1.358,8.768,0.962,10.132,5.186C622.61,86.707,620.285,91.23,616.051,92.59z"/>
		<ellipse fill="#56ACB2" cx="675.631" cy="52.592" rx="2.179" ry="2.173"/>
		<ellipse fill="#56ACB2" cx="646.983" cy="56.116" rx="2.179" ry="2.173"/>
		<ellipse fill="#56ACB2" cx="685.441" cy="34.975" rx="3.813" ry="3.804"/>
		<ellipse fill="#56ACB2" cx="688.95" cy="7.749" rx="2.361" ry="2.355"/>
		<ellipse fill="#56ACB2" cx="660.695" cy="39.574" rx="3.098" ry="3.091"/>
		<path fill="#56ACB2" d="M628.291,68.476c-4.304,1.383-8.915-0.979-10.301-5.27c-1.384-4.294,0.981-8.893,5.282-10.276
			c4.305-1.382,8.916,0.977,10.302,5.27C634.958,62.494,632.594,67.094,628.291,68.476z"/>
		<path fill="#56ACB2" d="M645.851,25.883c-4.232,1.36-8.768-0.962-10.132-5.182c-1.361-4.224,0.966-8.748,5.197-10.109
			c4.234-1.358,8.768,0.962,10.132,5.186C652.41,20,650.086,24.524,645.851,25.883z"/>
		<path fill="#56ACB2" d="M599.259,44.122c-3.832,1.231-7.939-0.872-9.173-4.693c-1.235-3.825,0.873-7.921,4.704-9.153
			c3.835-1.231,7.941,0.87,9.176,4.695C605.2,38.795,603.093,42.891,599.259,44.122z"/>
		<path fill="#56ACB2" d="M570.112,21.15c-1.85,0.595-3.835-0.422-4.43-2.268c-0.596-1.846,0.422-3.826,2.272-4.419
			c1.852-0.595,3.837,0.42,4.432,2.266C572.982,18.576,571.964,20.555,570.112,21.15z"/>
		<path fill="#56ACB2" d="M602.451,65.13c-1.85,0.595-3.834-0.422-4.43-2.267c-0.597-1.846,0.421-3.827,2.272-4.42
			c1.851-0.595,3.837,0.42,4.432,2.266C605.321,62.556,604.303,64.535,602.451,65.13z"/>
		<path fill="#56ACB2" d="M572.664,55.454c1.602-2.652,5.056-3.505,7.713-1.909c2.659,1.6,3.515,5.043,1.913,7.695
			c-1.602,2.652-5.055,3.507-7.713,1.909C571.919,61.553,571.061,58.108,572.664,55.454z"/>
		<path fill="#56ACB2" d="M582.515,93.384c1.602-2.652,5.056-3.505,7.714-1.909c2.658,1.6,3.514,5.044,1.912,7.695
			c-1.602,2.652-5.054,3.507-7.714,1.909C581.77,99.483,580.913,96.037,582.515,93.384z"/>
		<path fill="#56ACB2" d="M575.301,40.577c0.775-1.281,2.442-1.693,3.725-0.922c1.284,0.771,1.699,2.436,0.926,3.716
			c-0.773,1.282-2.444,1.694-3.728,0.924C574.941,43.523,574.528,41.858,575.301,40.577z"/>
		<path fill="#56ACB2" d="M692.695,68.947c0.774-1.281,2.442-1.693,3.725-0.922c1.284,0.771,1.698,2.437,0.926,3.716
			c-0.774,1.281-2.444,1.694-3.728,0.924C692.335,71.893,691.922,70.227,692.695,68.947z"/>
		<path fill="#56ACB2" d="M633.493-5.141c0.773-1.281,2.44-1.693,3.723-0.92c1.285,0.771,1.699,2.435,0.926,3.714
			c-0.773,1.281-2.442,1.695-3.726,0.924C633.132-2.195,632.719-3.859,633.493-5.141z"/>
		<ellipse fill="#56ACB2" cx="474.122" cy="117.766" rx="6.016" ry="6.001"/>
		<ellipse fill="#56ACB2" cx="337.484" cy="53.103" rx="6.016" ry="6.001"/>
		<ellipse fill="#56ACB2" cx="465.19" cy="102.672" rx="2.905" ry="2.898"/>
		<ellipse fill="#56ACB2" cx="468.471" cy="91.753" rx="2.178" ry="2.173"/>
		<circle fill="#56ACB2" cx="441.694" cy="122.598" r="2.178"/>
		<ellipse fill="#56ACB2" cx="339.662" cy="96.368" rx="2.178" ry="2.173"/>
		<ellipse fill="#56ACB2" cx="400.489" cy="-46.92" rx="2.179" ry="2.173"/>
		<ellipse fill="#56ACB2" cx="429.137" cy="-50.443" rx="2.179" ry="2.173"/>
		<ellipse fill="#56ACB2" cx="390.678" cy="-29.302" rx="3.812" ry="3.803"/>
		<ellipse fill="#56ACB2" cx="381.328" cy="70.303" rx="2.179" ry="2.173"/>
		<ellipse fill="#56ACB2" cx="531.499" cy="20.991" rx="2.179" ry="2.173"/>
		<ellipse fill="#56ACB2" cx="554.831" cy="53.725" rx="2.178" ry="2.173"/>
		<ellipse fill="#56ACB2" cx="533.321" cy="115.917" rx="2.179" ry="2.173"/>
		<ellipse fill="#56ACB2" cx="550.638" cy="117.193" rx="4.493" ry="4.481"/>
		<ellipse fill="#56ACB2" cx="543.894" cy="-41.93" rx="3.268" ry="3.259"/>
		<path fill="#56ACB2" d="M547.162-22.653c0,4.006-3.26,7.259-7.277,7.259c-4.019,0-7.28-3.253-7.28-7.259
			c0-4.01,3.26-7.263,7.28-7.263C543.901-29.916,547.162-26.664,547.162-22.653z"/>
		<path fill="#56ACB2" d="M379.89-2.429c0-4.007,3.261-7.26,7.278-7.26c4.019,0,7.28,3.253,7.28,7.26c0,4.01-3.26,7.262-7.28,7.262
			C383.152,4.833,379.89,1.581,379.89-2.429z"/>
		<ellipse fill="#56ACB2" cx="542.071" cy="5.35" rx="3.633" ry="3.624"/>
		<path fill="#56ACB2" d="M553.359,30.811c0,3.606-2.932,6.532-6.547,6.532c-3.617,0-6.551-2.926-6.551-6.532
			c0-3.609,2.934-6.536,6.551-6.536C550.427,24.275,553.359,27.203,553.359,30.811z"/>
		<ellipse fill="#56ACB2" cx="477.038" cy="80.656" rx="2.361" ry="2.355"/>
		<ellipse fill="#56ACB2" cx="442.585" cy="78.477" rx="2.361" ry="2.355"/>
		<ellipse fill="#56ACB2" cx="545.718" cy="101.197" rx="2.361" ry="2.355"/>
		<ellipse fill="#56ACB2" cx="422.897" cy="47.752" rx="2.361" ry="2.355"/>
		<ellipse fill="#56ACB2" cx="387.17" cy="-2.077" rx="2.361" ry="2.355"/>
		<ellipse fill="#56ACB2" cx="415.424" cy="-33.901" rx="3.098" ry="3.091"/>
		<path fill="#56ACB2" d="M460.913,63.536c3.833-1.231,7.941,0.872,9.176,4.695c1.233,3.825-0.874,7.921-4.706,9.153
			c-3.835,1.23-7.941-0.87-9.176-4.695C454.973,68.865,457.079,64.767,460.913,63.536z"/>
		<path fill="#56ACB2" d="M370.498,82.45c3.833-1.231,7.94,0.872,9.174,4.693c1.235,3.825-0.873,7.922-4.704,9.153
			c-3.835,1.231-7.941-0.87-9.176-4.695C364.558,87.778,366.665,83.681,370.498,82.45z"/>
		<path fill="#56ACB2" d="M422.815,86.588c4.507-1.448,9.337,1.025,10.787,5.519c1.45,4.498-1.027,9.315-5.532,10.763
			c-4.509,1.446-9.337-1.023-10.789-5.521C415.83,92.854,418.306,88.036,422.815,86.588z"/>
		<path fill="#56ACB2" d="M331.008,103.06c4.507-1.448,9.337,1.025,10.787,5.519c1.45,4.498-1.027,9.315-5.532,10.763
			c-4.509,1.447-9.337-1.023-10.789-5.521C324.024,109.326,326.499,104.509,331.008,103.06z"/>
		<path fill="#56ACB2" d="M472.397-14.522c4.508-1.448,9.338,1.025,10.788,5.519c1.45,4.497-1.027,9.315-5.532,10.763
			c-4.509,1.447-9.338-1.023-10.789-5.521C465.414-8.256,467.89-13.074,472.397-14.522z"/>
		<path fill="#56ACB2" d="M455.972-48.736c2.676-0.859,5.544,0.61,6.406,3.279c0.86,2.67-0.61,5.53-3.285,6.391
			c-2.678,0.858-5.546-0.609-6.407-3.278C451.825-45.016,453.296-47.876,455.972-48.736z"/>
		<path fill="#56ACB2" d="M472.37-37.765c2.676-0.86,5.545,0.608,6.406,3.277c0.86,2.672-0.611,5.532-3.285,6.391
			c-2.678,0.859-5.545-0.608-6.406-3.277C468.224-34.045,469.694-36.906,472.37-37.765z"/>
		<path fill="#56ACB2" d="M381.619,108.3c4.507-1.448,9.336,1.025,10.787,5.519c1.449,4.498-1.028,9.315-5.532,10.763
			c-4.509,1.447-9.34-1.023-10.791-5.521C374.634,114.565,377.11,109.747,381.619,108.3z"/>
		<path fill="#56ACB2" d="M337.14,18.573c4.507-1.447,9.336,1.027,10.787,5.521c1.45,4.497-1.027,9.315-5.532,10.763
			c-4.508,1.447-9.339-1.025-10.79-5.52C330.155,24.841,332.632,20.022,337.14,18.573z"/>
		<path fill="#56ACB2" d="M547.172,80.538c-5.614,1.803-11.631-1.277-13.438-6.876c-1.805-5.603,1.28-11.602,6.892-13.407
			c5.617-1.803,11.633,1.275,13.442,6.877C555.873,72.732,552.789,78.735,547.172,80.538z"/>
		<path fill="#56ACB2" d="M338.686-36.109c5.614-1.803,11.631,1.277,13.438,6.875c1.806,5.603-1.28,11.604-6.892,13.409
			c-5.617,1.802-11.632-1.275-13.441-6.877C329.985-28.304,333.069-34.305,338.686-36.109z"/>
		<path fill="#56ACB2" d="M375.22-50.385c4.303-1.382,8.915,0.979,10.301,5.27c1.384,4.294-0.981,8.893-5.282,10.275
			c-4.305,1.383-8.916-0.977-10.302-5.27C368.552-44.402,370.916-49.002,375.22-50.385z"/>
		<path fill="#56ACB2" d="M430.269-20.211c4.232-1.36,8.768,0.962,10.131,5.183c1.362,4.224-0.965,8.747-5.196,10.108
			c-4.234,1.358-8.769-0.962-10.132-5.186C423.709-14.328,426.033-18.851,430.269-20.211z"/>
		<ellipse fill="#56ACB2" cx="370.689" cy="19.787" rx="2.179" ry="2.173"/>
		<ellipse fill="#56ACB2" cx="399.337" cy="16.263" rx="2.179" ry="2.173"/>
		<ellipse fill="#56ACB2" cx="360.878" cy="37.404" rx="3.812" ry="3.803"/>
		<ellipse fill="#56ACB2" cx="357.369" cy="64.63" rx="2.361" ry="2.355"/>
		<ellipse fill="#56ACB2" cx="385.624" cy="32.806" rx="3.098" ry="3.091"/>
		<path fill="#56ACB2" d="M418.029,3.902c4.303-1.382,8.915,0.979,10.3,5.27c1.385,4.294-0.981,8.893-5.282,10.275
			c-4.305,1.383-8.916-0.977-10.302-5.27C411.361,9.885,413.724,5.285,418.029,3.902z"/>
		<path fill="#56ACB2" d="M400.468,46.496c4.231-1.359,8.767,0.962,10.131,5.183c1.362,4.224-0.966,8.747-5.196,10.108
			c-4.235,1.358-8.769-0.962-10.132-5.186C393.908,52.379,396.233,47.856,400.468,46.496z"/>
		<path fill="#56ACB2" d="M447.061,28.257c3.832-1.231,7.939,0.872,9.173,4.693c1.234,3.825-0.874,7.922-4.705,9.153
			c-3.834,1.231-7.941-0.87-9.175-4.695C441.12,33.585,443.226,29.488,447.061,28.257z"/>
		<path fill="#56ACB2" d="M476.207,51.229c1.85-0.595,3.834,0.422,4.429,2.268c0.597,1.846-0.421,3.827-2.272,4.42
			c-1.852,0.595-3.837-0.42-4.432-2.266C473.338,53.803,474.356,51.825,476.207,51.229z"/>
		<path fill="#56ACB2" d="M443.869,7.249c1.85-0.595,3.833,0.422,4.43,2.268c0.597,1.846-0.421,3.826-2.272,4.419
			c-1.852,0.595-3.838-0.42-4.433-2.266C440.999,9.823,442.017,7.844,443.869,7.249z"/>
		<path fill="#56ACB2" d="M473.655,16.925c-1.602,2.652-5.056,3.505-7.714,1.908c-2.659-1.599-3.514-5.044-1.912-7.695
			c1.602-2.652,5.054-3.506,7.713-1.908C474.4,10.826,475.257,14.272,473.655,16.925z"/>
		<path fill="#56ACB2" d="M463.804-21.004c-1.602,2.652-5.056,3.505-7.713,1.908c-2.658-1.599-3.515-5.044-1.913-7.695
			c1.602-2.652,5.054-3.506,7.714-1.908C464.549-27.103,465.406-23.658,463.804-21.004z"/>
		<path fill="#56ACB2" d="M471.018,31.802c-0.774,1.281-2.442,1.693-3.725,0.922c-1.284-0.771-1.697-2.437-0.926-3.716
			c0.775-1.281,2.444-1.695,3.729-0.924C471.378,28.856,471.791,30.522,471.018,31.802z"/>
		<path fill="#56ACB2" d="M353.624,3.432c-0.775,1.282-2.442,1.693-3.725,0.922c-1.284-0.771-1.699-2.436-0.926-3.716
			c0.774-1.281,2.443-1.694,3.728-0.923C353.984,0.487,354.397,2.152,353.624,3.432z"/>
		<path fill="#56ACB2" d="M412.826,77.519c-0.772,1.282-2.44,1.693-3.723,0.921c-1.284-0.771-1.698-2.435-0.926-3.715
			c0.775-1.281,2.442-1.694,3.727-0.923C413.186,74.574,413.6,76.238,412.826,77.519z"/>
		<ellipse fill="#56ACB2" cx="209.708" cy="-45.386" rx="6.016" ry="6.001"/>
		<ellipse fill="#56ACB2" cx="218.64" cy="-30.292" rx="2.905" ry="2.898"/>
		<circle fill="#56ACB2" cx="215.359" cy="-19.374" r="2.178"/>
		<ellipse fill="#56ACB2" cx="242.135" cy="-50.219" rx="2.178" ry="2.173"/>
		<ellipse fill="#56ACB2" cx="520.906" cy="96.368" rx="2.179" ry="2.173"/>
		<circle fill="#56ACB2" cx="283.341" cy="119.299" r="2.178"/>
		<circle fill="#56ACB2" cx="254.693" cy="122.822" r="2.178"/>
		<ellipse fill="#56ACB2" cx="293.151" cy="101.681" rx="3.812" ry="3.804"/>
		<ellipse fill="#56ACB2" cx="302.503" cy="2.076" rx="2.178" ry="2.173"/>
		<ellipse fill="#56ACB2" cx="514.82" cy="51.389" rx="2.179" ry="2.173"/>
		<ellipse fill="#56ACB2" cx="491.488" cy="18.655" rx="2.179" ry="2.173"/>
		<ellipse fill="#56ACB2" cx="512.997" cy="-43.538" rx="2.179" ry="2.173"/>
		<path fill="#56ACB2" d="M491.188-44.814c0-2.474,2.011-4.481,4.491-4.481c2.484,0,4.495,2.007,4.495,4.481
			c0,2.477-2.011,4.484-4.495,4.484C493.199-40.33,491.188-42.337,491.188-44.814z"/>
		<ellipse fill="#56ACB2" cx="502.424" cy="114.31" rx="3.268" ry="3.259"/>
		<path fill="#56ACB2" d="M499.158,95.033c0-4.007,3.26-7.259,7.277-7.259c4.018,0,7.28,3.253,7.28,7.259
			c0,4.01-3.261,7.263-7.28,7.263C502.418,102.296,499.158,99.043,499.158,95.033z"/>
		<path fill="#56ACB2" d="M303.939,74.809c0,4.007-3.26,7.259-7.277,7.259c-4.019,0-7.28-3.253-7.28-7.259
			c0-4.01,3.261-7.263,7.28-7.263C300.678,67.546,303.939,70.799,303.939,74.809z"/>
		<ellipse fill="#56ACB2" cx="504.248" cy="67.028" rx="3.633" ry="3.624"/>
		<path fill="#56ACB2" d="M492.959,41.568c0-3.606,2.932-6.531,6.547-6.531c3.618,0,6.552,2.925,6.552,6.531
			c0,3.609-2.934,6.536-6.552,6.536C495.892,48.104,492.959,45.177,492.959,41.568z"/>
		<ellipse fill="#56ACB2" cx="206.792" cy="-8.277" rx="2.361" ry="2.355"/>
		<ellipse fill="#56ACB2" cx="241.245" cy="-6.098" rx="2.361" ry="2.355"/>
		<ellipse fill="#56ACB2" cx="500.601" cy="-28.818" rx="2.36" ry="2.355"/>
		<ellipse fill="#56ACB2" cx="260.932" cy="24.627" rx="2.361" ry="2.355"/>
		<ellipse fill="#56ACB2" cx="296.66" cy="74.455" rx="2.361" ry="2.355"/>
		<ellipse fill="#56ACB2" cx="268.405" cy="106.28" rx="3.098" ry="3.091"/>
		<path fill="#56ACB2" d="M222.917,8.843c-3.832,1.231-7.94-0.872-9.174-4.695c-1.233-3.825,0.874-7.922,4.706-9.153
			c3.834-1.23,7.941,0.87,9.175,4.695C228.857,3.514,226.75,7.612,222.917,8.843z"/>
		<path fill="#56ACB2" d="M313.331-10.071c-3.832,1.231-7.939-0.872-9.173-4.693c-1.234-3.825,0.874-7.921,4.704-9.153
			c3.834-1.231,7.941,0.87,9.176,4.695C319.271-15.399,317.165-11.302,313.331-10.071z"/>
		<path fill="#56ACB2" d="M261.015-14.209c-4.507,1.448-9.337-1.025-10.787-5.52c-1.45-4.497,1.027-9.315,5.532-10.763
			c4.508-1.447,9.337,1.023,10.789,5.52C267.999-20.475,265.523-15.657,261.015-14.209z"/>
		<path fill="#56ACB2" d="M190.776,86.618c-4.507,1.448-9.337-1.025-10.788-5.519c-1.45-4.497,1.027-9.315,5.533-10.763
			c4.508-1.447,9.337,1.023,10.789,5.52C197.76,80.352,195.284,85.17,190.776,86.618z"/>
		<path fill="#56ACB2" d="M227.857,121.115c-2.677,0.859-5.545-0.61-6.406-3.278c-0.86-2.67,0.61-5.53,3.285-6.391
			c2.678-0.858,5.545,0.608,6.406,3.279C232.004,117.395,230.534,120.254,227.857,121.115z"/>
		<path fill="#56ACB2" d="M211.46,110.145c-2.677,0.859-5.544-0.609-6.406-3.277c-0.86-2.671,0.61-5.531,3.285-6.391
			c2.678-0.859,5.545,0.607,6.406,3.277C215.606,106.424,214.136,109.285,211.46,110.145z"/>
		<path fill="#56ACB2" d="M302.211-35.92c-4.507,1.448-9.336-1.025-10.788-5.52c-1.45-4.497,1.027-9.315,5.533-10.763
			c4.508-1.447,9.339,1.023,10.79,5.52C309.197-42.185,306.719-37.369,302.211-35.92z"/>
		<path fill="#56ACB2" d="M518.385,18.573c4.507-1.447,9.336,1.027,10.787,5.521c1.45,4.497-1.027,9.315-5.532,10.763
			c-4.508,1.447-9.339-1.025-10.79-5.52C511.399,24.841,513.876,20.022,518.385,18.573z"/>
		<path fill="#56ACB2" d="M507.547-9.955c5.613-1.803,11.63,1.277,13.437,6.875c1.807,5.603-1.28,11.603-6.892,13.407
			c-5.616,1.803-11.631-1.275-13.44-6.877C498.846-2.151,501.93-8.153,507.547-9.955z"/>
		<path fill="#56ACB2" d="M319.681,71.98c5.613-1.803,11.63,1.277,13.437,6.876c1.806,5.603-1.28,11.604-6.892,13.409
			c-5.617,1.801-11.632-1.275-13.441-6.877C310.979,79.786,314.064,73.785,319.681,71.98z"/>
		<path fill="#56ACB2" d="M308.61,122.764c-4.303,1.383-8.914-0.979-10.3-5.27c-1.384-4.294,0.981-8.892,5.283-10.275
			c4.304-1.382,8.916,0.977,10.301,5.27C315.278,116.782,312.914,121.382,308.61,122.764z"/>
		<path fill="#56ACB2" d="M253.562,92.59c-4.233,1.359-8.769-0.962-10.131-5.183c-1.362-4.224,0.965-8.748,5.197-10.109
			c4.234-1.358,8.768,0.962,10.131,5.186C260.121,86.707,257.796,91.23,253.562,92.59z"/>
		<circle fill="#56ACB2" cx="313.141" cy="52.592" r="2.178"/>
		<circle fill="#56ACB2" cx="284.493" cy="56.116" r="2.178"/>
		<ellipse fill="#56ACB2" cx="322.952" cy="34.975" rx="3.812" ry="3.804"/>
		<ellipse fill="#56ACB2" cx="326.461" cy="7.749" rx="2.361" ry="2.355"/>
		<ellipse fill="#56ACB2" cx="298.206" cy="39.574" rx="3.098" ry="3.091"/>
		<path fill="#56ACB2" d="M265.801,68.476c-4.303,1.383-8.914-0.979-10.3-5.27c-1.384-4.294,0.981-8.893,5.283-10.276
			c4.304-1.382,8.916,0.977,10.302,5.27C272.469,62.494,270.105,67.094,265.801,68.476z"/>
		<path fill="#56ACB2" d="M283.362,25.883c-4.233,1.36-8.769-0.962-10.131-5.182c-1.361-4.224,0.965-8.748,5.197-10.109
			c4.234-1.358,8.768,0.962,10.131,5.186C289.921,20,287.596,24.524,283.362,25.883z"/>
		<path fill="#56ACB2" d="M236.77,44.122c-3.832,1.231-7.939-0.872-9.173-4.693c-1.234-3.825,0.874-7.921,4.704-9.153
			c3.834-1.231,7.941,0.87,9.176,4.695C242.71,38.795,240.604,42.891,236.77,44.122z"/>
		<path fill="#56ACB2" d="M207.622,21.15c-1.85,0.595-3.834-0.422-4.43-2.268c-0.596-1.846,0.421-3.826,2.272-4.419
			c1.852-0.595,3.837,0.42,4.433,2.266C210.492,18.576,209.474,20.555,207.622,21.15z"/>
		<path fill="#56ACB2" d="M239.962,65.13c-1.85,0.595-3.834-0.422-4.43-2.267c-0.596-1.846,0.421-3.827,2.272-4.42
			c1.851-0.595,3.837,0.42,4.433,2.266C242.831,62.556,241.814,64.535,239.962,65.13z"/>
		<path fill="#56ACB2" d="M210.175,55.454c1.602-2.652,5.056-3.505,7.714-1.909c2.658,1.6,3.515,5.043,1.913,7.695
			c-1.602,2.652-5.054,3.507-7.714,1.909C209.43,61.553,208.573,58.108,210.175,55.454z"/>
		<path fill="#56ACB2" d="M216.731,82.051c1.602-2.652,5.056-3.505,7.714-1.909c2.658,1.6,3.515,5.044,1.913,7.695
			c-1.602,2.652-5.054,3.507-7.714,1.909C215.986,88.15,215.13,84.704,216.731,82.051z"/>
		<path fill="#56ACB2" d="M212.811,40.577c0.775-1.281,2.442-1.693,3.725-0.922c1.284,0.771,1.699,2.436,0.926,3.716
			c-0.774,1.282-2.443,1.694-3.728,0.924C212.451,43.523,212.039,41.858,212.811,40.577z"/>
		<path fill="#56ACB2" d="M352.683,113.594c0.774-1.282,2.442-1.693,3.725-0.922c1.284,0.771,1.699,2.436,0.926,3.716
			c-0.775,1.282-2.444,1.695-3.728,0.924C352.323,116.539,351.91,114.874,352.683,113.594z"/>
		<path fill="#56ACB2" d="M271.003-5.141c0.773-1.281,2.44-1.693,3.724-0.92c1.284,0.771,1.698,2.435,0.925,3.714
			c-0.774,1.281-2.442,1.695-3.726,0.924C270.644-2.195,270.229-3.859,271.003-5.141z"/>
		<ellipse fill="#56ACB2" cx="28.463" cy="-45.386" rx="6.016" ry="6.001"/>
		<ellipse fill="#56ACB2" cx="37.395" cy="-30.292" rx="2.905" ry="2.898"/>
		<ellipse fill="#56ACB2" cx="34.115" cy="-19.374" rx="2.178" ry="2.173"/>
		<ellipse fill="#56ACB2" cx="60.891" cy="-50.219" rx="2.178" ry="2.173"/>
		<circle fill="#56ACB2" cx="162.923" cy="-23.989" r="2.178"/>
		<circle fill="#56ACB2" cx="102.096" cy="119.299" r="2.178"/>
		<circle fill="#56ACB2" cx="73.449" cy="122.822" r="2.178"/>
		<ellipse fill="#56ACB2" cx="111.907" cy="101.681" rx="3.812" ry="3.804"/>
		<ellipse fill="#56ACB2" cx="121.258" cy="2.076" rx="2.178" ry="2.173"/>
		<ellipse fill="#56ACB2" cx="169.009" cy="20.991" rx="2.179" ry="2.173"/>
		<ellipse fill="#56ACB2" cx="192.342" cy="53.725" rx="2.178" ry="2.173"/>
		<ellipse fill="#56ACB2" cx="170.833" cy="115.917" rx="2.179" ry="2.173"/>
		<ellipse fill="#56ACB2" cx="188.149" cy="117.193" rx="4.493" ry="4.481"/>
		<ellipse fill="#56ACB2" cx="181.406" cy="-41.93" rx="3.268" ry="3.259"/>
		<path fill="#56ACB2" d="M184.673-22.653c0,4.006-3.26,7.259-7.277,7.259c-4.019,0-7.28-3.253-7.28-7.259
			c0-4.01,3.261-7.263,7.28-7.263C181.412-29.916,184.673-26.664,184.673-22.653z"/>
		<path fill="#56ACB2" d="M122.694,74.809c0,4.007-3.26,7.259-7.277,7.259c-4.019,0-7.28-3.253-7.28-7.259
			c0-4.01,3.261-7.263,7.28-7.263C119.434,67.546,122.694,70.799,122.694,74.809z"/>
		<ellipse fill="#56ACB2" cx="179.582" cy="5.35" rx="3.633" ry="3.624"/>
		<path fill="#56ACB2" d="M190.87,30.811c0,3.606-2.933,6.532-6.548,6.532c-3.617,0-6.551-2.926-6.551-6.532
			c0-3.609,2.934-6.536,6.551-6.536C187.938,24.275,190.87,27.203,190.87,30.811z"/>
		<ellipse fill="#56ACB2" cx="25.547" cy="-8.277" rx="2.361" ry="2.355"/>
		<ellipse fill="#56ACB2" cx="60" cy="-6.098" rx="2.361" ry="2.355"/>
		<ellipse fill="#56ACB2" cx="183.228" cy="101.197" rx="2.361" ry="2.355"/>
		<ellipse fill="#56ACB2" cx="79.688" cy="24.627" rx="2.361" ry="2.355"/>
		<ellipse fill="#56ACB2" cx="115.416" cy="74.455" rx="2.361" ry="2.355"/>
		<ellipse fill="#56ACB2" cx="87.161" cy="106.28" rx="3.098" ry="3.091"/>
		<path fill="#56ACB2" d="M41.672,8.843c-3.832,1.231-7.94-0.872-9.175-4.695c-1.233-3.825,0.874-7.922,4.706-9.153
			c3.834-1.23,7.941,0.87,9.175,4.695C47.612,3.514,45.506,7.612,41.672,8.843z"/>
		<path fill="#56ACB2" d="M132.086-10.071c-3.832,1.231-7.939-0.872-9.173-4.693c-1.234-3.825,0.874-7.921,4.705-9.153
			c3.834-1.231,7.94,0.87,9.176,4.695C138.027-15.399,135.921-11.302,132.086-10.071z"/>
		<path fill="#56ACB2" d="M79.77-14.209c-4.507,1.448-9.337-1.025-10.787-5.52c-1.45-4.497,1.027-9.315,5.532-10.763
			c4.508-1.447,9.337,1.023,10.789,5.52C86.754-20.475,84.279-15.657,79.77-14.209z"/>
		<path fill="#56ACB2" d="M30.187,86.901c-4.507,1.448-9.337-1.025-10.787-5.519c-1.45-4.498,1.027-9.315,5.532-10.763
			c4.509-1.447,9.337,1.023,10.789,5.52C37.171,80.636,34.696,85.453,30.187,86.901z"/>
		<path fill="#56ACB2" d="M46.613,121.115c-2.677,0.859-5.545-0.61-6.406-3.278c-0.86-2.67,0.61-5.53,3.285-6.391
			c2.678-0.858,5.544,0.608,6.406,3.279C50.759,117.395,49.289,120.254,46.613,121.115z"/>
		<path fill="#56ACB2" d="M30.215,110.145c-2.677,0.859-5.544-0.609-6.406-3.277c-0.86-2.671,0.61-5.531,3.285-6.391
			c2.678-0.859,5.545,0.607,6.406,3.277C34.362,106.424,32.892,109.285,30.215,110.145z"/>
		<path fill="#56ACB2" d="M120.967-35.92c-4.507,1.448-9.336-1.025-10.788-5.52c-1.45-4.497,1.027-9.315,5.533-10.763
			c4.508-1.447,9.339,1.023,10.79,5.52C127.952-42.185,125.475-37.369,120.967-35.92z"/>
		<path fill="#56ACB2" d="M165.445,53.806c-4.507,1.447-9.336-1.026-10.787-5.52c-1.45-4.498,1.027-9.315,5.532-10.763
			c4.508-1.446,9.339,1.025,10.79,5.52C172.43,47.539,169.953,52.357,165.445,53.806z"/>
		<path fill="#56ACB2" d="M5.882,48.92c-5.614,1.803-11.63-1.277-13.438-6.875c-1.805-5.603,1.28-11.603,6.892-13.407
			c5.617-1.803,11.632,1.275,13.44,6.877C14.583,41.114,11.499,47.116,5.882,48.92z"/>
		<path fill="#56ACB2" d="M163.9,108.488c-5.614,1.803-11.631-1.276-13.438-6.875c-1.806-5.603,1.28-11.604,6.892-13.409
			c5.617-1.801,11.632,1.275,13.441,6.877C172.601,100.683,169.516,106.684,163.9,108.488z"/>
		<path fill="#56ACB2" d="M127.365,122.764c-4.303,1.383-8.914-0.979-10.3-5.27c-1.384-4.294,0.981-8.892,5.283-10.275
			c4.304-1.382,8.916,0.977,10.301,5.27C134.033,116.782,131.67,121.382,127.365,122.764z"/>
		<path fill="#56ACB2" d="M72.317,92.59c-4.233,1.359-8.769-0.962-10.131-5.183c-1.362-4.224,0.966-8.748,5.197-10.109
			c4.234-1.358,8.768,0.962,10.131,5.186C78.877,86.707,76.551,91.23,72.317,92.59z"/>
		<circle fill="#56ACB2" cx="131.897" cy="52.592" r="2.178"/>
		<circle fill="#56ACB2" cx="103.249" cy="56.116" r="2.178"/>
		<ellipse fill="#56ACB2" cx="141.708" cy="34.975" rx="3.812" ry="3.804"/>
		<ellipse fill="#56ACB2" cx="145.216" cy="7.749" rx="2.361" ry="2.355"/>
		<ellipse fill="#56ACB2" cx="116.961" cy="39.574" rx="3.098" ry="3.091"/>
		<path fill="#56ACB2" d="M84.556,68.476c-4.303,1.383-8.914-0.979-10.3-5.27c-1.385-4.294,0.981-8.893,5.282-10.276
			c4.305-1.382,8.916,0.977,10.302,5.27C91.224,62.494,88.861,67.094,84.556,68.476z"/>
		<path fill="#56ACB2" d="M102.118,25.883c-4.233,1.36-8.769-0.962-10.131-5.182c-1.361-4.224,0.965-8.748,5.197-10.109
			c4.234-1.358,8.768,0.962,10.131,5.186C108.677,20,106.352,24.524,102.118,25.883z"/>
		<path fill="#56ACB2" d="M55.525,44.122c-3.832,1.231-7.939-0.872-9.173-4.693c-1.234-3.825,0.874-7.921,4.704-9.153
			c3.834-1.231,7.941,0.87,9.176,4.695C61.466,38.795,59.359,42.891,55.525,44.122z"/>
		<path fill="#56ACB2" d="M26.378,21.15c-1.85,0.595-3.834-0.422-4.43-2.268c-0.596-1.846,0.421-3.826,2.272-4.419
			c1.852-0.595,3.837,0.42,4.433,2.266C29.247,18.576,28.23,20.555,26.378,21.15z"/>
		<path fill="#56ACB2" d="M58.717,65.13c-1.85,0.595-3.834-0.422-4.43-2.267c-0.596-1.846,0.421-3.827,2.272-4.42
			c1.852-0.595,3.837,0.42,4.433,2.266C61.587,62.556,60.569,64.535,58.717,65.13z"/>
		<path fill="#56ACB2" d="M28.931,55.454c1.602-2.652,5.056-3.505,7.714-1.909c2.658,1.6,3.515,5.043,1.913,7.695
			c-1.602,2.652-5.054,3.507-7.714,1.909C28.185,61.553,27.328,58.108,28.931,55.454z"/>
		<path fill="#56ACB2" d="M38.781,93.384c1.602-2.652,5.056-3.505,7.714-1.909c2.658,1.6,3.515,5.044,1.913,7.695
			c-1.602,2.652-5.054,3.507-7.714,1.909C38.036,99.483,37.179,96.037,38.781,93.384z"/>
		<path fill="#56ACB2" d="M31.567,40.577c0.774-1.281,2.442-1.693,3.725-0.922c1.284,0.771,1.699,2.436,0.926,3.716
			c-0.774,1.282-2.443,1.694-3.728,0.924C31.207,43.523,30.794,41.858,31.567,40.577z"/>
		<path fill="#56ACB2" d="M148.961,68.947c0.775-1.281,2.442-1.693,3.725-0.922c1.284,0.771,1.699,2.437,0.926,3.716
			c-0.774,1.281-2.444,1.694-3.728,0.924C148.601,71.893,148.188,70.227,148.961,68.947z"/>
		<path fill="#56ACB2" d="M89.759-5.141c0.773-1.281,2.44-1.693,3.724-0.92c1.284,0.771,1.698,2.435,0.925,3.714
			c-0.774,1.281-2.442,1.695-3.726,0.924C89.399-2.195,88.985-3.859,89.759-5.141z"/>
	</g>
</g>
</svg>
