<?xml version="1.0" encoding="utf-8"?>
<!-- Generator: Adobe Illustrator 17.0.0, SVG Export Plug-In . SVG Version: 6.00 Build 0)  -->
<!DOCTYPE svg PUBLIC "-//W3C//DTD SVG 1.1//EN" "http://www.w3.org/Graphics/SVG/1.1/DTD/svg11.dtd">
<svg version="1.1" id="Layer_1" xmlns="http://www.w3.org/2000/svg" xmlns:xlink="http://www.w3.org/1999/xlink" x="0px" y="0px"
	 width="232px" height="232px" viewBox="0.205 0.204 232 232" enable-background="new 0.205 0.204 232 232" xml:space="preserve">
<g id="_x38_._Antibiotics_1_">
	<rect x="0.205" y="0.204" fill="#3FA6DF" width="232" height="232"/>
	<g>
		<path fill="#56BFED" d="M33.994,32.225c1.822-1.818,1.861-4.725,0.093-6.517c-0.001,0-0.002-0.002-0.002-0.002
			s-8.587-8.558-8.607-8.579c-1.794-1.787-4.732-1.758-6.56,0.068c-1.833,1.825-1.862,4.753-0.07,6.54
			c0.021,0.02,0.044,0.039,0.066,0.062c0.002,0.002,0.002,0.006,0.005,0.008l8.537,8.511c0,0,0.002,0,0.002,0.002
			C29.252,34.083,32.171,34.042,33.994,32.225z"/>
		<path fill="#56BFED" d="M71.059,46.023c-0.981-2.375-3.661-3.527-5.999-2.587c0,0.001-0.003,0.001-0.003,0.001
			s-11.225,4.616-11.251,4.627c-2.346,0.964-3.446,3.681-2.458,6.064c0.986,2.388,3.686,3.54,6.031,2.575
			c0.026-0.012,0.054-0.024,0.082-0.036c0.003-0.001,0.007,0.001,0.01-0.001l11.162-4.59c0,0,0.001-0.002,0.003-0.002
			C70.959,51.101,72.043,48.399,71.059,46.023z"/>
		<path fill="#56BFED" d="M184.28,185.375c-0.982-2.376-3.662-3.528-6-2.588c0,0.001-0.002,0.001-0.002,0.001
			s-11.225,4.616-11.25,4.627c-2.346,0.965-3.447,3.682-2.458,6.065c0.985,2.388,3.686,3.54,6.031,2.574
			c0.027-0.011,0.053-0.023,0.082-0.036c0.003-0.001,0.007,0.001,0.01-0.001l11.161-4.589c0,0,0.001-0.002,0.003-0.002
			C184.18,190.452,185.264,187.751,184.28,185.375z"/>
		<path fill="#56BFED" d="M140.138,200.033c-2.462,0.759-3.857,3.311-3.133,5.72c0.002,0,0.002,0.002,0.002,0.002
			s3.586,11.565,3.594,11.592c0.75,2.416,3.361,3.756,5.835,2.994c2.476-0.763,3.873-3.337,3.123-5.753
			c-0.009-0.027-0.018-0.056-0.029-0.085c0-0.003,0.003-0.006,0-0.01l-3.563-11.499c0,0-0.002-0.001-0.002-0.003
			C145.202,200.595,142.6,199.274,140.138,200.033z"/>
		<path fill="#56BFED" d="M110.662,211.996c-0.982-2.376-3.662-3.527-6-2.588c0,0.001-0.002,0.001-0.002,0.001
			s-11.225,4.616-11.251,4.628c-2.346,0.964-3.446,3.68-2.458,6.064c0.986,2.388,3.686,3.54,6.031,2.574
			c0.027-0.011,0.054-0.023,0.082-0.036c0.003-0.001,0.007,0.002,0.01-0.001l11.162-4.589c0,0,0-0.002,0.002-0.002
			C110.562,217.073,111.646,214.372,110.662,211.996z"/>
		<path fill="#56BFED" d="M73.97,181.487c-0.981-2.376-3.661-3.528-5.999-2.588c0,0.001-0.002,0.001-0.002,0.001
			s-11.226,4.616-11.252,4.627c-2.344,0.964-3.445,3.681-2.457,6.064c0.986,2.388,3.687,3.54,6.03,2.575
			c0.027-0.011,0.055-0.024,0.083-0.036c0.003-0.001,0.008,0.001,0.011-0.001l11.161-4.59c0,0,0.001-0.002,0.003-0.002
			C73.87,186.564,74.954,183.861,73.97,181.487z"/>
		<path fill="#56BFED" d="M17.321,72.657c2.234,1.285,5.061,0.568,6.338-1.599c0-0.001,0.002-0.002,0.002-0.002
			s6.067-10.486,6.082-10.509c1.267-2.189,0.476-5.012-1.767-6.3c-2.242-1.291-5.088-0.561-6.354,1.629
			c-0.015,0.024-0.027,0.052-0.044,0.077c0,0.004-0.004,0.005-0.005,0.008l-6.035,10.426c0,0,0,0.002-0.002,0.003
			C14.293,68.573,15.089,71.373,17.321,72.657z"/>
		<path fill="#56BFED" d="M46.453,86.501c2.274-1.214,3.153-3.986,1.98-6.211c0-0.001,0-0.003,0-0.003s-5.736-10.669-5.75-10.693
			c-1.198-2.227-4.019-3.048-6.301-1.828c-2.284,1.219-3.161,4.013-1.965,6.241c0.014,0.024,0.03,0.05,0.044,0.078
			c0.003,0.002,0.001,0.006,0.004,0.008l5.701,10.609c0,0,0.003,0.001,0.003,0.003C41.375,86.911,44.181,87.714,46.453,86.501z"/>
		<path fill="#56BFED" d="M94.293,60.823c2.286-1.19,3.195-3.953,2.043-6.19c0-0.001,0-0.003,0-0.003s-5.628-10.726-5.639-10.752
			c-1.176-2.239-3.989-3.088-6.281-1.891c-2.296,1.195-3.203,3.979-2.028,6.219c0.014,0.025,0.03,0.052,0.043,0.078
			c0.002,0.002,0.001,0.007,0.003,0.01l5.593,10.667c0,0,0.002,0.001,0.002,0.003C89.212,61.18,92.009,62.013,94.293,60.823z"/>
		<g>
			<path fill="#56BFED" d="M46.25,7.965c-1.916-1.42-4.633-1.263-6.37,0.469c-1.737,1.731-1.895,4.441-0.472,6.35L46.25,7.965z"/>
			<path fill="#56BFED" d="M47.269,8.981l-6.842,6.82c1.915,1.417,4.632,1.26,6.369-0.472C48.534,13.598,48.691,10.891,47.269,8.981
				z"/>
		</g>
		<g>
			<path fill="#56BFED" d="M43.339,39.192c-1.916-1.42-4.633-1.263-6.37,0.469c-1.737,1.731-1.896,4.441-0.472,6.35L43.339,39.192z"
				/>
			<path fill="#56BFED" d="M44.358,40.207l-6.841,6.82c1.914,1.417,4.631,1.26,6.368-0.472
				C45.623,44.824,45.78,42.117,44.358,40.207z"/>
		</g>
		<g>
			<path fill="#56BFED" d="M69.006,23.574c-1.916-1.42-4.633-1.263-6.37,0.469c-1.737,1.731-1.895,4.441-0.472,6.35L69.006,23.574z"
				/>
			<path fill="#56BFED" d="M70.026,24.59l-6.842,6.82c1.915,1.417,4.632,1.26,6.369-0.472C71.29,29.207,71.448,26.5,70.026,24.59z"
				/>
		</g>
		<g>
			<path fill="#56BFED" d="M64.113,67.029c-1.916-1.419-4.633-1.262-6.37,0.47c-1.735,1.731-1.895,4.441-0.471,6.35L64.113,67.029z"
				/>
			<path fill="#56BFED" d="M65.134,68.046l-6.842,6.82c1.914,1.418,4.632,1.26,6.369-0.472
				C66.399,72.663,66.557,69.955,65.134,68.046z"/>
		</g>
		<g>
			<path fill="#56BFED" d="M135.423,181.622c-1.916-1.421-4.633-1.263-6.37,0.469c-1.737,1.731-1.896,4.441-0.472,6.35
				L135.423,181.622z"/>
			<path fill="#56BFED" d="M136.443,182.639l-6.841,6.819c1.914,1.417,4.632,1.261,6.369-0.471
				C137.707,187.256,137.865,184.547,136.443,182.639z"/>
		</g>
		<g>
			<path fill="#56BFED" d="M29.365,82.121c-1.916-1.42-4.633-1.263-6.37,0.469c-1.736,1.731-1.895,4.441-0.472,6.35L29.365,82.121z"
				/>
			<path fill="#56BFED" d="M30.385,83.136l-6.84,6.82c1.914,1.418,4.631,1.26,6.368-0.472
				C31.649,87.753,31.808,85.046,30.385,83.136z"/>
		</g>
		<path fill="#56BFED" d="M48.772,120.457c-1.823,1.817-1.861,4.725-0.093,6.516c0.001,0,0.002,0.002,0.002,0.002
			s8.588,8.559,8.607,8.58c1.794,1.787,4.733,1.757,6.561-0.068c1.832-1.825,1.862-4.753,0.068-6.54
			c-0.021-0.02-0.043-0.04-0.064-0.062c-0.002-0.002-0.002-0.006-0.005-0.008l-8.538-8.511c0,0-0.002,0-0.002-0.002
			C53.515,118.6,50.595,118.641,48.772,120.457z"/>
		<path fill="#56BFED" d="M30.012,180.975c-1.573-2.036-4.46-2.45-6.471-0.935c0,0.001-0.003,0.003-0.003,0.003
			s-9.625,7.382-9.647,7.398c-2.009,1.542-2.36,4.45-0.78,6.495c1.578,2.046,4.487,2.455,6.498,0.913
			c0.022-0.019,0.045-0.037,0.069-0.056c0.003-0.003,0.007-0.001,0.009-0.005l9.569-7.339c0,0,0.001-0.002,0.004-0.002
			C31.247,185.901,31.584,183.012,30.012,180.975z"/>
		<path fill="#56BFED" d="M75.436,110.143c0.324,2.55,2.608,4.361,5.111,4.063h0.002c0,0,12.048-1.521,12.076-1.526
			c2.516-0.316,4.291-2.651,3.964-5.212c-0.323-2.56-2.625-4.377-5.141-4.059c-0.03,0.004-0.06,0.01-0.091,0.012
			c-0.002,0.002-0.005,0-0.008,0.001l-11.98,1.513c0,0-0.001,0.001-0.003,0C76.868,105.269,75.113,107.592,75.436,110.143z"/>
		<path fill="#56BFED" d="M17.589,109.306c0.982,2.375,3.661,3.527,6,2.587c0-0.001,0.002-0.001,0.002-0.001
			s11.225-4.616,11.251-4.627c2.345-0.964,3.446-3.681,2.457-6.064c-0.986-2.388-3.686-3.54-6.03-2.575
			c-0.027,0.012-0.055,0.024-0.083,0.036c-0.003,0.001-0.007-0.001-0.01,0.001l-11.161,4.59c0,0-0.001,0.002-0.004,0.002
			C17.69,104.228,16.606,106.93,17.589,109.306z"/>
		<path fill="#56BFED" d="M110.034,14.073c-2.234-1.285-5.06-0.568-6.338,1.598c0,0.001-0.002,0.002-0.002,0.002
			s-6.066,10.486-6.081,10.509c-1.267,2.189-0.476,5.012,1.766,6.3c2.243,1.291,5.088,0.561,6.355-1.629
			c0.014-0.024,0.027-0.052,0.043-0.078c0.001-0.003,0.005-0.004,0.006-0.007l6.033-10.425c0,0,0-0.002,0.004-0.003
			C113.063,18.156,112.268,15.357,110.034,14.073z"/>
		<path fill="#56BFED" d="M76.839,7.39c-2.273,1.214-3.153,3.985-1.98,6.21c0,0.002,0,0.004,0,0.004s5.738,10.669,5.751,10.693
			c1.197,2.227,4.019,3.048,6.301,1.827c2.283-1.218,3.162-4.012,1.965-6.24c-0.015-0.025-0.03-0.05-0.045-0.078
			c-0.002-0.002,0-0.006-0.002-0.008l-5.704-10.61c0,0-0.002-0.001-0.002-0.003C81.915,6.981,79.111,6.176,76.839,7.39z"/>
		<path fill="#56BFED" d="M80.725,75.443c-2.233-1.286-5.06-0.568-6.339,1.598c0,0.001-0.002,0.002-0.002,0.002
			s-6.066,10.487-6.08,10.51c-1.268,2.189-0.477,5.011,1.766,6.299c2.242,1.292,5.087,0.561,6.354-1.628
			c0.015-0.025,0.027-0.052,0.043-0.078c0.001-0.003,0.005-0.004,0.006-0.007l6.034-10.425c0,0,0-0.002,0.002-0.003
			C83.752,79.527,82.957,76.727,80.725,75.443z"/>
		<g>
			<path fill="#56BFED" d="M99.816,49.556c1.917,1.42,4.633,1.263,6.37-0.469c1.737-1.731,1.897-4.441,0.472-6.35L99.816,49.556z"/>
			<path fill="#56BFED" d="M98.797,48.541l6.841-6.82c-1.914-1.417-4.632-1.261-6.369,0.471
				C97.532,43.924,97.375,46.632,98.797,48.541z"/>
		</g>
		<g>
			<path fill="#56BFED" d="M9.424,57.042c1.916,1.419,4.633,1.263,6.37-0.469c1.737-1.731,1.896-4.441,0.471-6.351L9.424,57.042z"/>
			<path fill="#56BFED" d="M8.405,56.025l6.84-6.819c-1.914-1.418-4.632-1.261-6.369,0.471C7.14,51.408,6.982,54.116,8.405,56.025z"
				/>
		</g>
		<g>
			<path fill="#56BFED" d="M30.972,126.087c1.918,1.419,4.634,1.262,6.37-0.47c1.737-1.731,1.897-4.44,0.473-6.35L30.972,126.087z"
				/>
			<path fill="#56BFED" d="M29.953,125.07l6.841-6.819c-1.915-1.418-4.633-1.261-6.369,0.471
				C28.689,120.453,28.53,123.162,29.953,125.07z"/>
		</g>
		<g>
			<path fill="#56BFED" d="M8.432,172.062c1.917,1.419,4.634,1.262,6.37-0.47c1.737-1.731,1.897-4.44,0.472-6.35L8.432,172.062z"/>
			<path fill="#56BFED" d="M7.413,171.046l6.843-6.819c-1.916-1.419-4.633-1.261-6.369,0.471
				C6.149,166.429,5.991,169.137,7.413,171.046z"/>
		</g>
		<g>
			<path fill="#56BFED" d="M96.906,75.468c1.916,1.42,4.632,1.263,6.369-0.469c1.737-1.731,1.896-4.441,0.472-6.35L96.906,75.468z"
				/>
			<path fill="#56BFED" d="M95.886,74.453l6.842-6.82c-1.914-1.417-4.632-1.261-6.369,0.471
				C94.621,69.835,94.464,72.543,95.886,74.453z"/>
		</g>
		<g>
			<path fill="#56BFED" d="M51.986,105.644c1.918,1.419,4.634,1.262,6.37-0.47c1.737-1.731,1.897-4.441,0.473-6.35L51.986,105.644z"
				/>
			<path fill="#56BFED" d="M50.968,104.626l6.841-6.82c-1.914-1.417-4.633-1.26-6.369,0.472
				C49.704,100.01,49.545,102.718,50.968,104.626z"/>
		</g>
		<g>
			<path fill="#56BFED" d="M74.339,132.877c1.916,1.419,4.633,1.262,6.37-0.47c1.736-1.731,1.895-4.441,0.472-6.35L74.339,132.877z"
				/>
			<path fill="#56BFED" d="M73.319,131.86l6.841-6.82c-1.914-1.417-4.631-1.26-6.368,0.472
				C72.055,127.244,71.895,129.952,73.319,131.86z"/>
		</g>
		<path fill="#56BFED" d="M167.7,77.79c0.477-2.526-1.136-4.949-3.61-5.433c0,0.001-0.003,0-0.003,0s-11.934-2.242-11.961-2.247
			c-2.493-0.468-4.902,1.208-5.38,3.743c-0.48,2.538,1.151,4.972,3.644,5.439c0.027,0.005,0.058,0.009,0.088,0.015
			c0.003,0,0.005,0.004,0.009,0.004l11.865,2.23c0,0,0.002-0.001,0.003,0.001C164.834,81.988,167.222,80.314,167.7,77.79z"/>
		<path fill="#56BFED" d="M94.794,95.957c0.981,2.375,3.661,3.527,5.999,2.587c0-0.001,0.002-0.001,0.002-0.001
			s11.226-4.616,11.251-4.627c2.345-0.964,3.446-3.681,2.457-6.064c-0.985-2.388-3.686-3.54-6.03-2.575
			c-0.026,0.012-0.054,0.024-0.082,0.036c-0.003,0.001-0.008-0.001-0.011,0.001l-11.161,4.59c0,0-0.001,0.002-0.003,0.002
			C94.893,90.879,93.81,93.581,94.794,95.957z"/>
		<path fill="#56BFED" d="M135.351,153.077c0.982,2.376,3.662,3.528,6,2.588c0-0.001,0.002-0.001,0.002-0.001
			s11.226-4.616,11.253-4.628c2.344-0.964,3.445-3.681,2.456-6.064c-0.985-2.388-3.686-3.54-6.03-2.574
			c-0.026,0.011-0.054,0.023-0.083,0.036c-0.002,0.001-0.007-0.001-0.01,0.001l-11.161,4.589c0,0-0.001,0.002-0.003,0.002
			C135.451,148,134.367,150.701,135.351,153.077z"/>
		<path fill="#56BFED" d="M220.651,64.68c0.004-2.57-2.029-4.656-4.551-4.679c-0.001,0-0.002-0.001-0.002-0.001
			s-12.145-0.013-12.172-0.013c-2.535-0.003-4.595,2.087-4.597,4.668c-0.004,2.581,2.049,4.676,4.586,4.678
			c0.028,0,0.059-0.002,0.09-0.001c0.003-0.001,0.006,0.002,0.01,0.002l12.074,0.015c0,0,0.002-0.001,0.004,0
			C218.611,69.333,220.649,67.249,220.651,64.68z"/>
		<path fill="#56BFED" d="M55.98,149.037c0.004-2.571-2.03-4.656-4.552-4.68l-0.002-0.001c0,0-12.144-0.012-12.17-0.012
			c-2.537-0.003-4.596,2.087-4.597,4.667c-0.005,2.582,2.05,4.677,4.586,4.679c0.027,0,0.058-0.002,0.089-0.001
			c0.003-0.001,0.007,0.002,0.01,0.002l12.074,0.014c0,0,0.002-0.001,0.004,0C53.939,153.69,55.978,151.606,55.98,149.037z"/>
		<path fill="#56BFED" d="M164.329,105.536c-2.112-1.475-4.991-1.008-6.454,1.038c-0.001,0.001-0.003,0.002-0.003,0.002
			s-6.967,9.915-6.983,9.936c-1.454,2.071-0.916,4.951,1.204,6.431c2.121,1.482,5.017,1.004,6.474-1.066
			c0.017-0.024,0.031-0.05,0.05-0.074c0.001-0.003,0.005-0.004,0.006-0.007l6.929-9.858c0,0,0-0.002,0.001-0.003
			C166.984,109.868,166.439,107.01,164.329,105.536z"/>
		<path fill="#56BFED" d="M189.997,145.342c-2.112-1.475-4.991-1.008-6.454,1.038c-0.001,0.001-0.003,0.002-0.003,0.002
			s-6.967,9.915-6.983,9.937c-1.454,2.07-0.916,4.95,1.204,6.43c2.12,1.482,5.018,1.004,6.474-1.066
			c0.017-0.024,0.031-0.049,0.05-0.074c0.001-0.003,0.005-0.004,0.006-0.007l6.929-9.857c0,0,0-0.002,0.001-0.003
			C192.652,149.674,192.107,146.816,189.997,145.342z"/>
		<path fill="#56BFED" d="M193.931,124.431c-0.86-2.424-3.474-3.711-5.857-2.893c-0.002,0-0.004,0-0.004,0
			s-11.45,4.034-11.476,4.044c-2.391,0.844-3.632,3.499-2.768,5.931c0.86,2.435,3.5,3.723,5.89,2.882
			c0.027-0.011,0.054-0.023,0.084-0.031c0.002-0.002,0.006,0,0.009-0.002l11.384-4.01c0,0,0.002-0.002,0.004-0.002
			C193.566,129.497,194.788,126.853,193.931,124.431z"/>
		<path fill="#56BFED" d="M221.991,186.488c-2.113-1.474-4.992-1.008-6.454,1.038c-0.001,0.001-0.004,0.002-0.004,0.002
			s-6.967,9.915-6.983,9.936c-1.453,2.071-0.916,4.951,1.205,6.43c2.12,1.482,5.017,1.005,6.474-1.065
			c0.016-0.024,0.031-0.05,0.05-0.074c0-0.003,0.005-0.004,0.006-0.007l6.929-9.858l0.001-0.003
			C224.646,190.821,224.101,187.963,221.991,186.488z"/>
		<path fill="#56BFED" d="M10.084,130.823c-2.257,1.244-3.099,4.028-1.897,6.236c0.001,0.001,0.001,0.003,0.001,0.003
			s5.882,10.59,5.893,10.615c1.23,2.212,4.061,2.994,6.327,1.743c2.267-1.249,3.107-4.055,1.879-6.266
			c-0.015-0.026-0.029-0.05-0.044-0.078c-0.003-0.002-0.002-0.006-0.004-0.008l-5.845-10.532c0,0-0.002-0.001-0.003-0.003
			C15.156,130.345,12.339,129.578,10.084,130.823z"/>
		<path fill="#56BFED" d="M114.565,110.887c-2.274,1.214-3.154,3.986-1.98,6.211c0,0.001,0,0.003,0,0.003s5.736,10.669,5.75,10.693
			c1.198,2.227,4.019,3.048,6.301,1.828c2.284-1.219,3.162-4.012,1.965-6.241c-0.014-0.025-0.03-0.05-0.044-0.078
			c-0.002-0.002-0.001-0.006-0.003-0.008l-5.702-10.609c0,0-0.002-0.001-0.002-0.004
			C119.642,110.478,116.837,109.673,114.565,110.887z"/>
		<path fill="#56BFED" d="M210.839,142.705c-2.274,1.215-3.154,3.986-1.98,6.211c0,0.001,0,0.003,0,0.003s5.737,10.669,5.75,10.694
			c1.197,2.227,4.019,3.048,6.301,1.827c2.284-1.219,3.162-4.012,1.965-6.24c-0.014-0.025-0.03-0.051-0.044-0.078
			c-0.002-0.002-0.001-0.007-0.003-0.009l-5.702-10.609c0,0-0.002-0.001-0.002-0.003
			C215.916,142.296,213.11,141.492,210.839,142.705z"/>
		<path fill="#56BFED" d="M133.914,81.598c-2.285,1.19-3.193,3.953-2.042,6.189c0.001,0.001,0,0.003,0,0.003
			s5.628,10.727,5.64,10.752c1.175,2.24,3.989,3.088,6.281,1.892c2.296-1.195,3.202-3.979,2.027-6.22
			c-0.014-0.024-0.029-0.051-0.042-0.078c-0.002-0.002-0.001-0.006-0.003-0.009l-5.594-10.667c0,0-0.002-0.001-0.002-0.003
			C138.996,81.24,136.199,80.408,133.914,81.598z"/>
		<g>
			<path fill="#56BFED" d="M172.83,101.686c1.916,1.419,4.632,1.262,6.369-0.47c1.737-1.731,1.897-4.441,0.472-6.35L172.83,101.686z
				"/>
			<path fill="#56BFED" d="M171.809,100.669l6.842-6.82c-1.914-1.418-4.632-1.26-6.369,0.472
				C170.546,96.052,170.387,98.76,171.809,100.669z"/>
		</g>
		<g>
			<path fill="#56BFED" d="M204.822,181.53c1.916,1.419,4.632,1.262,6.369-0.47c1.737-1.731,1.896-4.441,0.472-6.35L204.822,181.53z
				"/>
			<path fill="#56BFED" d="M203.802,180.513l6.842-6.82c-1.914-1.417-4.632-1.26-6.369,0.472
				C202.537,175.896,202.381,178.604,203.802,180.513z"/>
		</g>
		<g>
			<path fill="#56BFED" d="M212.963,129.58c1.917,1.419,4.633,1.262,6.37-0.47c1.736-1.731,1.896-4.441,0.472-6.35L212.963,129.58z"
				/>
			<path fill="#56BFED" d="M211.943,128.563l6.842-6.82c-1.915-1.417-4.632-1.26-6.369,0.472
				C210.679,123.946,210.52,126.655,211.943,128.563z"/>
		</g>
		<g>
			<path fill="#56BFED" d="M196.418,113.28c1.917,1.419,4.633,1.263,6.37-0.469c1.737-1.731,1.897-4.441,0.472-6.351L196.418,113.28
				z"/>
			<path fill="#56BFED" d="M195.398,112.264l6.842-6.819c-1.914-1.418-4.632-1.261-6.369,0.471
				C194.134,107.647,193.976,110.355,195.398,112.264z"/>
		</g>
		<g>
			<path fill="#56BFED" d="M164.872,152.942c1.917,1.419,4.633,1.262,6.37-0.47c1.736-1.731,1.896-4.44,0.472-6.35L164.872,152.942z
				"/>
			<path fill="#56BFED" d="M163.853,151.925l6.842-6.819c-1.914-1.419-4.632-1.261-6.369,0.471
				C162.588,147.308,162.43,150.016,163.853,151.925z"/>
		</g>
		<g>
			<path fill="#56BFED" d="M152.357,197.134c1.916,1.421,4.633,1.263,6.369-0.469c1.737-1.731,1.896-4.441,0.472-6.35
				L152.357,197.134z"/>
			<path fill="#56BFED" d="M151.336,196.119l6.842-6.82c-1.914-1.417-4.632-1.26-6.369,0.472
				C150.072,191.502,149.915,194.209,151.336,196.119z"/>
		</g>
		<g>
			<path fill="#56BFED" d="M159.202,222.867c1.917,1.419,4.633,1.263,6.37-0.469c1.737-1.731,1.896-4.441,0.472-6.351
				L159.202,222.867z"/>
			<path fill="#56BFED" d="M158.183,221.85l6.842-6.819c-1.914-1.419-4.632-1.261-6.369,0.471
				C156.918,217.233,156.761,219.941,158.183,221.85z"/>
		</g>
		<g>
			<path fill="#56BFED" d="M122.57,226.935c1.917,1.419,4.633,1.262,6.37-0.47c1.737-1.731,1.896-4.44,0.472-6.35L122.57,226.935z"
				/>
			<path fill="#56BFED" d="M121.551,225.918l6.842-6.819c-1.914-1.419-4.632-1.261-6.369,0.471
				C120.286,221.301,120.129,224.009,121.551,225.918z"/>
		</g>
		<g>
			<path fill="#56BFED" d="M87.434,175.533c1.916,1.421,4.632,1.263,6.369-0.469c1.736-1.731,1.896-4.441,0.472-6.35L87.434,175.533
				z"/>
			<path fill="#56BFED" d="M86.413,174.516l6.842-6.819c-1.914-1.419-4.632-1.261-6.369,0.471
				C85.149,169.899,84.991,172.608,86.413,174.516z"/>
		</g>
		<g>
			<path fill="#56BFED" d="M59.283,218.979c1.917,1.419,4.633,1.262,6.37-0.47c1.737-1.731,1.896-4.441,0.472-6.35L59.283,218.979z"
				/>
			<path fill="#56BFED" d="M58.262,217.963l6.841-6.82c-1.915-1.417-4.632-1.26-6.369,0.472
				C56.999,213.346,56.84,216.053,58.262,217.963z"/>
		</g>
		<g>
			<path fill="#56BFED" d="M118.67,155.991c1.917,1.419,4.633,1.262,6.37-0.47c1.737-1.731,1.896-4.44,0.472-6.35L118.67,155.991z"
				/>
			<path fill="#56BFED" d="M117.649,154.974l6.842-6.82c-1.915-1.417-4.632-1.26-6.369,0.472
				C116.386,150.357,116.228,153.065,117.649,154.974z"/>
		</g>
		<g>
			<path fill="#56BFED" d="M207.08,224.471c1.916,1.419,4.634,1.263,6.37-0.469c1.737-1.731,1.896-4.441,0.472-6.351L207.08,224.471
				z"/>
			<path fill="#56BFED" d="M206.061,223.455l6.841-6.819c-1.915-1.419-4.632-1.261-6.369,0.471
				C204.797,218.838,204.639,221.545,206.061,223.455z"/>
		</g>
		<g>
			<path fill="#56BFED" d="M86.443,203.737c1.917,1.419,4.633,1.262,6.37-0.47c1.737-1.731,1.896-4.441,0.472-6.35L86.443,203.737z"
				/>
			<path fill="#56BFED" d="M85.422,202.719l6.842-6.82c-1.915-1.417-4.632-1.26-6.369,0.472
				C84.159,198.103,84,200.811,85.422,202.719z"/>
		</g>
		<g>
			<path fill="#56BFED" d="M35.537,198.123c1.916,1.421,4.634,1.263,6.37-0.469c1.737-1.731,1.897-4.441,0.471-6.35L35.537,198.123z
				"/>
			<path fill="#56BFED" d="M34.516,197.106l6.841-6.82c-1.915-1.417-4.633-1.26-6.37,0.472
				C33.252,192.489,33.094,195.197,34.516,197.106z"/>
		</g>
		<g>
			<path fill="#56BFED" d="M198.844,88.535c1.917,1.42,4.633,1.263,6.37-0.469c1.737-1.731,1.896-4.441,0.472-6.35L198.844,88.535z"
				/>
			<path fill="#56BFED" d="M197.825,87.52l6.841-6.82c-1.915-1.417-4.632-1.26-6.369,0.472
				C196.56,82.903,196.402,85.61,197.825,87.52z"/>
		</g>
		<g>
			<path fill="#56BFED" d="M134.491,118.156c1.918,1.42,4.634,1.263,6.37-0.469c1.737-1.731,1.897-4.441,0.472-6.35L134.491,118.156
				z"/>
			<path fill="#56BFED" d="M133.471,117.14l6.842-6.82c-1.915-1.418-4.633-1.26-6.369,0.472
				C132.208,112.523,132.049,115.231,133.471,117.14z"/>
		</g>
		<g>
			<path fill="#56BFED" d="M175.251,178.436c1.917,1.419,4.633,1.262,6.37-0.47c1.736-1.731,1.896-4.441,0.472-6.35L175.251,178.436
				z"/>
			<path fill="#56BFED" d="M174.231,177.419l6.842-6.82c-1.914-1.418-4.633-1.26-6.369,0.472
				C172.967,172.802,172.809,175.509,174.231,177.419z"/>
		</g>
		<g>
			<path fill="#56BFED" d="M154.311,94.973c1.916,1.419,4.634,1.262,6.37-0.47c1.737-1.731,1.896-4.441,0.472-6.35L154.311,94.973z"
				/>
			<path fill="#56BFED" d="M153.29,93.956l6.842-6.82c-1.915-1.418-4.633-1.26-6.369,0.472
				C152.027,89.339,151.869,92.048,153.29,93.956z"/>
		</g>
		<g>
			<path fill="#56BFED" d="M181.958,49.556c1.917,1.42,4.633,1.263,6.37-0.469c1.737-1.731,1.896-4.441,0.472-6.35L181.958,49.556z"
				/>
			<path fill="#56BFED" d="M180.939,48.541l6.841-6.82c-1.914-1.417-4.632-1.261-6.369,0.471
				C179.674,43.924,179.517,46.632,180.939,48.541z"/>
		</g>
		<path fill="#56BFED" d="M153.874,28.301c1.822-1.817,1.86-4.724,0.093-6.516c-0.001,0-0.002-0.002-0.002-0.002
			s-8.588-8.559-8.608-8.579c-1.793-1.788-4.732-1.758-6.56,0.068c-1.832,1.825-1.862,4.753-0.069,6.539
			c0.021,0.02,0.043,0.04,0.065,0.062c0.002,0.002,0.002,0.006,0.005,0.008l8.537,8.511c0,0,0.002,0,0.002,0.002
			C149.132,30.158,152.051,30.118,153.874,28.301z"/>
		<path fill="#56BFED" d="M138.816,35.83c-0.323-2.55-2.608-4.361-5.111-4.064h-0.002c0,0-12.048,1.522-12.075,1.527
			c-2.517,0.316-4.292,2.651-3.965,5.212c0.323,2.56,2.625,4.377,5.141,4.059c0.03-0.005,0.06-0.01,0.092-0.012
			c0.002-0.002,0.005,0,0.008-0.001l11.978-1.514c0,0,0.002-0.001,0.004,0C137.386,40.703,139.14,38.38,138.816,35.83z"/>
		<path fill="#56BFED" d="M157.764,166.807c-0.323-2.55-2.607-4.361-5.111-4.063h-0.002c0,0-12.048,1.522-12.075,1.526
			c-2.517,0.316-4.292,2.651-3.965,5.212c0.324,2.56,2.626,4.377,5.142,4.059c0.03-0.004,0.06-0.01,0.091-0.012
			c0.002-0.002,0.005,0,0.008-0.001l11.979-1.513c0,0,0.001-0.001,0.003,0C156.332,171.681,158.088,169.357,157.764,166.807z"/>
		<path fill="#56BFED" d="M206.718,23.635c-0.981-2.376-3.661-3.528-6-2.588c0,0.001-0.002,0.001-0.002,0.001
			s-11.225,4.616-11.251,4.628c-2.345,0.964-3.446,3.68-2.457,6.064c0.986,2.388,3.686,3.54,6.031,2.574
			c0.026-0.011,0.054-0.023,0.082-0.036c0.003-0.001,0.007,0.001,0.01-0.001l11.162-4.589c0,0,0-0.002,0.003-0.002
			C206.618,28.712,207.702,26.011,206.718,23.635z"/>
		<path fill="#56BFED" d="M115.264,72.079c2.232,1.285,5.06,0.568,6.338-1.599c0-0.001,0.002-0.002,0.002-0.002
			s6.066-10.486,6.08-10.509c1.268-2.189,0.478-5.011-1.765-6.299c-2.243-1.291-5.089-0.562-6.356,1.629
			c-0.013,0.024-0.026,0.052-0.042,0.077c-0.001,0.004-0.006,0.005-0.007,0.008l-6.033,10.425c0,0,0,0.002-0.003,0.003
			C112.236,67.995,113.03,70.795,115.264,72.079z"/>
		<path fill="#56BFED" d="M213.457,103.573c2.234,1.286,5.06,0.568,6.338-1.598c0-0.001,0.002-0.002,0.002-0.002
			s6.067-10.487,6.081-10.51c1.268-2.189,0.477-5.011-1.765-6.299c-2.243-1.292-5.087-0.561-6.354,1.628
			c-0.015,0.025-0.027,0.052-0.044,0.078c-0.001,0.003-0.005,0.004-0.006,0.007l-6.034,10.425c0,0,0,0.002-0.002,0.003
			C210.429,99.489,211.225,102.289,213.457,103.573z"/>
		<path fill="#56BFED" d="M180.533,220.231c2.233,1.285,5.06,0.568,6.338-1.599l0.002-0.002c0,0,6.066-10.486,6.081-10.509
			c1.268-2.189,0.477-5.012-1.766-6.3c-2.243-1.291-5.087-0.56-6.354,1.629c-0.015,0.024-0.027,0.052-0.044,0.078
			c-0.001,0.003-0.005,0.004-0.006,0.007l-6.034,10.425c0,0,0,0.002-0.002,0.003C177.506,216.147,178.301,218.947,180.533,220.231z"
			/>
		<path fill="#56BFED" d="M107.565,196.66c2.234,1.285,5.06,0.568,6.338-1.599l0.002-0.002c0,0,6.067-10.487,6.082-10.509
			c1.267-2.189,0.477-5.011-1.767-6.3c-2.243-1.291-5.088-0.561-6.355,1.629c-0.014,0.024-0.027,0.052-0.043,0.077
			c0,0.003-0.006,0.005-0.006,0.008l-6.034,10.425c0,0,0,0.002-0.002,0.003C104.538,192.576,105.332,195.376,107.565,196.66z"/>
		<path fill="#56BFED" d="M28.557,224.12c2.234,1.286,5.06,0.568,6.338-1.598c0-0.001,0.002-0.002,0.002-0.002
			s6.067-10.487,6.082-10.51c1.268-2.189,0.476-5.011-1.767-6.298c-2.243-1.292-5.088-0.561-6.355,1.628
			c-0.014,0.025-0.027,0.052-0.043,0.078c-0.001,0.003-0.005,0.004-0.006,0.007l-6.033,10.425c0,0,0,0.002-0.002,0.003
			C25.529,220.036,26.324,222.835,28.557,224.12z"/>
		<path fill="#56BFED" d="M186.994,78.015c2.273-1.214,3.154-3.986,1.98-6.211c0-0.001,0-0.003,0-0.003s-5.737-10.669-5.749-10.693
			c-1.199-2.227-4.021-3.048-6.302-1.828c-2.283,1.219-3.162,4.013-1.965,6.241c0.014,0.024,0.03,0.05,0.045,0.078
			c0.002,0.002,0.001,0.006,0.003,0.008l5.701,10.609c0,0,0.002,0.001,0.002,0.003C181.916,78.425,184.723,79.228,186.994,78.015z"
			/>
		<path fill="#56BFED" d="M96.136,159.64c2.577,0.119,4.759-1.811,4.893-4.321c0-0.001,0.002-0.003,0.002-0.003
			s0.557-12.091,0.558-12.12c0.116-2.525-1.886-4.67-4.471-4.787c-2.587-0.121-4.777,1.83-4.893,4.355
			c-0.001,0.028,0,0.058-0.002,0.09c0.001,0.002-0.002,0.005-0.002,0.008l-0.558,12.024c0,0,0.002,0.002,0,0.003
			C91.566,157.399,93.561,159.523,96.136,159.64z"/>
		<path fill="#56BFED" d="M81.294,168.325c2.273-1.214,3.153-3.986,1.979-6.211c0-0.001,0-0.003,0-0.003s-5.737-10.669-5.75-10.693
			c-1.197-2.228-4.019-3.048-6.301-1.828c-2.283,1.219-3.162,4.013-1.965,6.241c0.015,0.024,0.03,0.05,0.044,0.078
			c0.002,0.002,0.001,0.006,0.003,0.008l5.702,10.609c0,0,0.002,0.001,0.002,0.004C76.217,168.734,79.022,169.539,81.294,168.325z"
			/>
		<path fill="#56BFED" d="M160.182,56.791c2.234,1.285,5.06,0.568,6.338-1.598c0-0.001,0.002-0.002,0.002-0.002
			s6.067-10.487,6.081-10.509c1.268-2.189,0.477-5.012-1.766-6.3c-2.243-1.291-5.088-0.561-6.354,1.629
			c-0.015,0.024-0.027,0.052-0.044,0.077c-0.001,0.003-0.005,0.005-0.006,0.008l-6.034,10.425c0,0,0,0.002-0.002,0.003
			C157.155,52.708,157.949,55.507,160.182,56.791z"/>
		<g>
			<path fill="#56BFED" d="M128.391,92.862c-1.916-1.419-4.633-1.262-6.37,0.47c-1.737,1.731-1.896,4.441-0.472,6.35L128.391,92.862
				z"/>
			<path fill="#56BFED" d="M129.412,93.879l-6.842,6.82c1.915,1.417,4.632,1.26,6.369-0.472
				C130.675,98.496,130.833,95.788,129.412,93.879z"/>
		</g>
		<g>
			<path fill="#56BFED" d="M51.864,167.698c-1.916-1.421-4.633-1.263-6.369,0.469c-1.737,1.731-1.897,4.441-0.472,6.35
				L51.864,167.698z"/>
			<path fill="#56BFED" d="M52.884,168.715l-6.842,6.819c1.914,1.419,4.632,1.261,6.369-0.471
				C54.148,173.332,54.305,170.624,52.884,168.715z"/>
		</g>
		<g>
			<path fill="#56BFED" d="M13.265,208.095c-1.916-1.419-4.633-1.262-6.369,0.47c-1.737,1.731-1.897,4.441-0.472,6.35
				L13.265,208.095z"/>
			<path fill="#56BFED" d="M14.285,209.111l-6.841,6.82c1.914,1.417,4.632,1.26,6.369-0.472
				C15.549,213.728,15.707,211.021,14.285,209.111z"/>
		</g>
		<g>
			<path fill="#56BFED" d="M213.892,37.255c-1.916-1.42-4.633-1.263-6.37,0.469c-1.736,1.731-1.895,4.441-0.472,6.35L213.892,37.255
				z"/>
			<path fill="#56BFED" d="M214.913,38.271l-6.842,6.82c1.915,1.417,4.632,1.26,6.369-0.472
				C216.177,42.888,216.336,40.181,214.913,38.271z"/>
		</g>
		<g>
			<path fill="#56BFED" d="M171.33,11.456c-1.916-1.419-4.632-1.262-6.369,0.47c-1.737,1.731-1.897,4.441-0.472,6.35L171.33,11.456z
				"/>
			<path fill="#56BFED" d="M172.35,12.473l-6.842,6.82c1.914,1.418,4.632,1.26,6.369-0.472
				C173.614,17.09,173.771,14.381,172.35,12.473z"/>
		</g>
		<g>
			<path fill="#56BFED" d="M105.639,120.166c-1.916-1.419-4.633-1.262-6.37,0.47c-1.737,1.731-1.895,4.44-0.472,6.35
				L105.639,120.166z"/>
			<path fill="#56BFED" d="M106.659,121.182l-6.841,6.819c1.915,1.419,4.632,1.261,6.369-0.471
				C107.923,125.799,108.08,123.092,106.659,121.182z"/>
		</g>
		<g>
			<path fill="#56BFED" d="M145.207,55.874c-1.917-1.42-4.633-1.263-6.37,0.469c-1.736,1.731-1.896,4.441-0.472,6.35L145.207,55.874
				z"/>
			<path fill="#56BFED" d="M146.226,56.89l-6.841,6.82c1.914,1.417,4.632,1.26,6.369-0.472
				C147.491,61.506,147.648,58.799,146.226,56.89z"/>
		</g>
		<g>
			<path fill="#56BFED" d="M207.132,5.063c-1.917-1.419-4.633-1.262-6.37,0.47c-1.737,1.731-1.897,4.44-0.472,6.35L207.132,5.063z"
				/>
			<path fill="#56BFED" d="M208.152,6.08l-6.842,6.819c1.914,1.418,4.632,1.261,6.369-0.471
				C209.416,10.697,209.573,7.989,208.152,6.08z"/>
		</g>
		<g>
			<path fill="#56BFED" d="M127.402,16.869c-1.917-1.42-4.633-1.263-6.37,0.469c-1.736,1.731-1.897,4.441-0.472,6.35L127.402,16.869
				z"/>
			<path fill="#56BFED" d="M128.421,17.885l-6.841,6.82c1.914,1.418,4.632,1.261,6.369-0.471
				C129.686,22.503,129.845,19.795,128.421,17.885z"/>
		</g>
	</g>
	<g>
		<path fill="#B22D1B" d="M189.164,84.509l-0.069-0.053c-38.015-14.162-27.134-42.847-27.134-42.847l-7.248-0.029v-0.063
			l-7.881,0.031l-7.882-0.031v0.063l-7.248,0.029c0,0,10.381,27.385-24.606,41.851c-6.412,1.899-10.988,6.799-10.988,12.562v97.272
			c0,7.409,7.552,13.416,16.864,13.416h67.458c9.313,0,16.864-6.008,16.864-13.416V96.022
			C197.294,91.116,194.104,86.849,189.164,84.509z"/>
	</g>
	<g>
		<path fill="#932519" d="M194.289,93.627v94.433c0,8.693-7.093,15.741-15.839,15.741h-63.359c-8.746,0-15.838-7.048-15.838-15.741
			V93.627"/>
	</g>
	<path opacity="0.4" fill="#F44E38" enable-background="new    " d="M192.344,99.264v-0.115h-0.002
		c-0.067-4.435-1.238-9.399-6.851-12.142c-0.701-0.179-8.696-3.693-14.605-7.164c-21.774-14.142-14.42-35.391-14.101-36.289
		l-0.301-0.082h-8.331c-0.105,0.286-10.04,25.936,18.078,44.013l0.385,0.222c7.959,4.063,9.924,4.357,13.028,6.03
		c1.994,0.847,2.845,2.993,3.196,5.412h-0.002c0,0,0.033,108.043,0,107.461c5.659-0.767,9.505-3.831,9.505-3.831V99.886
		C192.345,99.68,192.345,99.472,192.344,99.264z"/>
	<g>
		<polygon fill="#7C1F18" points="132.309,43.56 131.526,40.791 162.543,40.791 161.446,43.56 		"/>
	</g>
	<g>
		<path fill="#932519" d="M168.037,40.305c0,0.824-0.667,1.49-1.489,1.49h-39.32c-0.824,0-1.49-0.667-1.49-1.49l0,0
			c0-0.824,0.667-1.49,1.49-1.49h39.32C167.371,38.814,168.037,39.481,168.037,40.305L168.037,40.305z"/>
	</g>
	<g>
		<rect x="122.383" y="18.204" fill="#F2EEEC" width="47.334" height="20.592"/>
	</g>
	<g>
		<rect x="129.767" y="18.2" fill="#D9D4DB" width="1.258" height="19.497"/>
	</g>
	<g>
		<rect x="132.283" y="18.2" fill="#D9D4DB" width="1.259" height="19.497"/>
	</g>
	<g>
		<rect x="134.798" y="18.2" fill="#D9D4DB" width="1.258" height="19.497"/>
	</g>
	<g>
		<rect x="137.314" y="18.2" fill="#D9D4DB" width="1.259" height="19.497"/>
	</g>
	<g>
		<rect x="139.829" y="18.2" fill="#D9D4DB" width="1.258" height="19.497"/>
	</g>
	<g>
		<rect x="142.346" y="18.2" fill="#D9D4DB" width="1.258" height="19.497"/>
	</g>
	<g>
		<rect x="144.86" y="18.2" fill="#D9D4DB" width="1.259" height="19.497"/>
	</g>
	<g>
		<rect x="147.377" y="18.2" fill="#D9D4DB" width="1.258" height="19.497"/>
	</g>
	<g>
		<rect x="149.891" y="18.2" fill="#D9D4DB" width="1.259" height="19.497"/>
	</g>
	<g>
		<rect x="152.408" y="18.2" fill="#D9D4DB" width="1.258" height="19.497"/>
	</g>
	<g>
		<rect x="154.924" y="18.2" fill="#D9D4DB" width="1.258" height="19.497"/>
	</g>
	<g>
		<rect x="157.439" y="18.2" fill="#D9D4DB" width="1.258" height="19.497"/>
	</g>
	<g>
		<rect x="159.955" y="18.2" fill="#D9D4DB" width="1.258" height="19.497"/>
	</g>
	<g>
		<rect x="114.551" y="101.612" fill="#FFF3D4" width="82.737" height="47.799"/>
	</g>
	<g>
		<rect x="124.613" y="109.439" fill="#B22D1B" width="72.675" height="1.118"/>
	</g>
	<g>
		<rect x="184.988" y="115.029" fill="#768184" width="7.267" height="1.118"/>
	</g>
	<g>
		<rect x="184.988" y="117.824" fill="#768184" width="7.267" height="1.118"/>
	</g>
	<g>
		<rect x="184.988" y="120.62" fill="#768184" width="7.267" height="1.117"/>
	</g>
	<g>
		<rect x="181.081" y="123.415" fill="#768184" width="11.174" height="1.118"/>
	</g>
	<g>
		<rect x="184.988" y="126.209" fill="#768184" width="7.267" height="1.118"/>
	</g>
	<g>
		<rect x="184.988" y="129.004" fill="#768184" width="7.267" height="1.118"/>
	</g>
	<g>
		<rect x="182.199" y="131.8" fill="#768184" width="10.056" height="1.118"/>
	</g>
	<g>
		<rect x="184.988" y="136.902" fill="#768184" width="7.267" height="1.118"/>
	</g>
	<g>
		<rect x="184.988" y="139.697" fill="#768184" width="7.267" height="1.118"/>
	</g>
	<g>
		<rect x="184.988" y="142.492" fill="#768184" width="7.267" height="1.118"/>
	</g>
	<g>
		<rect x="184.988" y="145.288" fill="#768184" width="7.267" height="1.118"/>
	</g>
	<g>
		<rect x="125.365" y="117.266" fill="#F8A01C" width="49.194" height="7.826"/>
	</g>
	<g>
		<rect x="125.738" y="127.048" fill="#5A6568" width="43.233" height="0.559"/>
	</g>
	<g>
		<rect x="125.738" y="129.263" fill="#5A6568" width="41.214" height="0.559"/>
	</g>
	<g>
		<rect x="125.738" y="131.477" fill="#5A6568" width="43.233" height="0.56"/>
	</g>
	<g>
		<rect x="125.738" y="133.692" fill="#5A6568" width="42.46" height="0.558"/>
	</g>
	<g>
		<rect x="125.738" y="135.905" fill="#5A6568" width="43.233" height="0.56"/>
	</g>
	<g>
		<rect x="125.738" y="138.12" fill="#5A6568" width="40.245" height="0.558"/>
	</g>
	<g>
		<rect x="125.738" y="140.334" fill="#5A6568" width="43.233" height="0.559"/>
	</g>
	<g>
		<rect x="125.738" y="142.549" fill="#5A6568" width="43.233" height="0.559"/>
	</g>
	<g>
		<path fill="#F8A01C" d="M103.148,97.465v100.78c0,5.387-4.356,9.754-9.732,9.754H52.87c-5.375,0-9.732-4.367-9.732-9.754V97.465"
			/>
		<rect x="53.329" y="102.452" fill="#FFBA5F" width="7.175" height="105.561"/>
		<rect x="43.119" y="97.674" fill="#DD6022" width="60.021" height="5.046"/>
		<g>
			<g>
				<path fill="#F2EEEC" d="M87.08,201.701c-1.695,2.464-5.068,3.091-7.533,1.395l0,0c-2.466-1.696-3.09-5.069-1.396-7.533
					l10.181-14.806c1.695-2.465,5.065-3.089,7.531-1.395l0,0c2.467,1.696,3.09,5.067,1.394,7.531L87.08,201.701z"/>
			</g>
			<g>
				
					<rect x="82.532" y="190.43" transform="matrix(-0.824 -0.5666 0.5666 -0.824 52.1139 398.104)" fill="#D9D4DB" width="10.715" height="1.055"/>
			</g>
		</g>
		<g>
			<g>
				<path fill="#F2EEEC" d="M81.023,187.273c-0.33,2.975-3.01,5.118-5.979,4.787l0,0c-2.975-0.331-5.116-3.01-4.788-5.982
					l1.984-17.857c0.33-2.975,3.008-5.116,5.98-4.786l0,0c2.975,0.33,5.116,3.007,4.785,5.98L81.023,187.273z"/>
			</g>
			<g>
				
					<rect x="71.297" y="176.902" transform="matrix(-0.9939 -0.1105 0.1105 -0.9939 133.2346 362.2411)" fill="#D9D4DB" width="10.715" height="1.054"/>
			</g>
		</g>
		<g>
			<g>
				<path fill="#F2EEEC" d="M53.944,182.739c-2.41,1.773-5.801,1.256-7.571-1.155l0,0c-1.772-2.412-1.256-5.8,1.153-7.576
					l14.477-10.638c2.412-1.774,5.801-1.256,7.573,1.154l0,0c1.773,2.412,1.256,5.8-1.154,7.573L53.944,182.739z"/>
			</g>
			<g>
				
					<rect x="52.878" y="172.326" transform="matrix(-0.5923 -0.8057 0.8057 -0.5923 -46.5432 322.1552)" fill="#D9D4DB" width="10.713" height="1.054"/>
			</g>
		</g>
		<g>
			<g>
				<path fill="#F2EEEC" d="M93.175,174.873c-1.473,2.602-4.776,3.523-7.382,2.051l0,0c-2.603-1.474-3.522-4.777-2.049-7.382
					l8.84-15.64c1.474-2.604,4.774-3.523,7.381-2.05l0,0c2.604,1.471,3.522,4.775,2.049,7.381L93.175,174.873z"/>
			</g>
			<g>
				
					<rect x="87.678" y="163.565" transform="matrix(-0.8705 -0.4921 0.4921 -0.8705 93.2718 352.7246)" fill="#D9D4DB" width="10.715" height="1.055"/>
			</g>
		</g>
		<g>
			<g>
				<path fill="#F2EEEC" d="M65.019,161.255c-2.977-0.275-5.172-2.915-4.895-5.891l0,0c0.276-2.979,2.913-5.173,5.892-4.899
					l17.89,1.653c2.98,0.278,5.173,2.913,4.895,5.893l0,0c-0.274,2.979-2.912,5.169-5.891,4.894L65.019,161.255z"/>
			</g>
			<g>
				
					<rect x="69.427" y="156.184" transform="matrix(0.0918 -0.9958 0.9958 0.0918 -88.1301 216.795)" fill="#D9D4DB" width="10.715" height="1.055"/>
			</g>
		</g>
		<g>
			<g>
				<path fill="#F2EEEC" d="M48.58,120.599c-2.155-2.073-2.218-5.506-0.146-7.66l0,0c2.076-2.155,5.506-2.219,7.661-0.146
					l12.941,12.464c2.152,2.078,2.219,5.504,0.142,7.66l0,0c-2.075,2.155-5.503,2.217-7.657,0.145L48.58,120.599z"/>
			</g>
			<g>
				
					<rect x="53.686" y="122.626" transform="matrix(0.6937 -0.7203 0.7203 0.6937 -70.619 80.2521)" fill="#D9D4DB" width="10.714" height="1.055"/>
			</g>
		</g>
		<g>
			<g>
				<path fill="#F2EEEC" d="M78.98,120.009c0.889-2.226,3.42-3.308,5.646-2.418l0,0c2.226,0.892,3.307,3.42,2.418,5.647
					l-5.356,13.37c-0.893,2.228-3.419,3.309-5.647,2.416l0,0c-2.227-0.89-3.306-3.418-2.416-5.643L78.98,120.009z"/>
			</g>
			<g>
				
					<rect x="75.946" y="128.127" transform="matrix(0.9283 0.3719 -0.3719 0.9283 53.5617 -20.6208)" fill="#D9D4DB" width="8.59" height="0.845"/>
			</g>
		</g>
		<g>
			<g>
				<path fill="#F2EEEC" d="M82.602,111.083c-1.649-2.495-0.964-5.857,1.53-7.507l0,0c2.496-1.649,5.856-0.963,7.508,1.53
					l9.906,14.99c1.647,2.498,0.965,5.855-1.533,7.506l0,0c-2.495,1.649-5.853,0.961-7.504-1.53L82.602,111.083z"/>
			</g>
			<g>
				
					<rect x="86.9" y="115.327" transform="matrix(0.8342 -0.5515 0.5515 0.8342 -48.5946 70.0898)" fill="#D9D4DB" width="10.715" height="1.055"/>
			</g>
		</g>
		<g>
			<g>
				<path fill="#F2EEEC" d="M51.831,151.798c-2.857,0.883-5.893-0.715-6.778-3.57l0,0c-0.884-2.858,0.715-5.893,3.571-6.78
					l17.162-5.317c2.86-0.883,5.893,0.714,6.778,3.574l0,0c0.886,2.856-0.713,5.888-3.572,6.773L51.831,151.798z"/>
			</g>
			<g>
				
					<rect x="53.762" y="143.332" transform="matrix(-0.2959 -0.9552 0.9552 -0.2959 -60.8055 242.8994)" fill="#D9D4DB" width="10.713" height="1.055"/>
			</g>
		</g>
		<g>
			<g>
				<path fill="#F2EEEC" d="M83.818,150.089c-2.468,1.689-5.842,1.06-7.532-1.404l0,0c-1.691-2.469-1.063-5.841,1.404-7.534
					l14.817-10.159c2.47-1.692,5.84-1.065,7.532,1.406l0,0c1.692,2.465,1.063,5.835-1.404,7.527L83.818,150.089z"/>
			</g>
			<g>
				
					<rect x="83.065" y="139.83" transform="matrix(-0.5655 -0.8248 0.8248 -0.5655 22.6624 292.6556)" fill="#D9D4DB" width="10.717" height="1.055"/>
			</g>
		</g>
		<g>
			<g>
				<path fill="#F2EEEC" d="M67.728,197.098c2.286,1.932,2.573,5.348,0.645,7.632l0,0c-1.932,2.287-5.346,2.575-7.634,0.645
					L47.01,193.786c-2.287-1.933-2.573-5.349-0.645-7.636l0,0c1.932-2.287,5.346-2.573,7.633-0.645L67.728,197.098z"/>
			</g>
			<g>
				
					<rect x="51.761" y="194.702" transform="matrix(-0.6452 0.764 -0.764 -0.6452 243.1262 277.5536)" fill="#D9D4DB" width="10.713" height="1.053"/>
			</g>
		</g>
		<path fill="#FFBA5F" d="M51.699,102.679h-1.957v104.793c0,0,1.565,0.466,1.957,0.466
			C51.699,208.171,51.699,102.679,51.699,102.679z"/>
		<rect x="53.349" y="100.156" fill="#EF6C33" width="7.155" height="2.527"/>
		<rect x="49.742" y="100.156" fill="#EF6C33" width="1.971" height="2.527"/>
		<rect x="35.032" y="95.497" fill="#F76C1E" width="75.502" height="4.837"/>
		<g>
			<rect x="48.649" y="67.986" fill="#F2EEEC" width="48.589" height="8.167"/>
			<rect x="48.649" y="75.813" fill="#D9D4DB" width="48.589" height="2.052"/>
			<rect x="48.649" y="69.641" fill="#D9D4DB" width="29.999" height="1.025"/>
			<rect x="47.743" y="69.641" fill="#F2EEEC" width="0.943" height="1.025"/>
			<rect x="47.743" y="71.918" fill="#F2EEEC" width="0.943" height="1.025"/>
			<rect x="48.649" y="71.924" fill="#D9D4DB" width="44.201" height="1.025"/>
		</g>
		<rect x="50.537" y="89.468" fill="#FF8345" width="7.155" height="10.83"/>
		<rect x="46.929" y="89.51" fill="#FF8345" width="1.971" height="10.788"/>
		<g>
			<rect x="42.532" y="87.322" fill="#D9D4DB" width="60.825" height="2.517"/>
			<rect x="42.532" y="77.783" fill="#F2EEEC" width="60.825" height="9.61"/>
			<rect x="48.129" y="77.771" fill="#D9D4DB" width="1.1" height="9.662"/>
			<rect x="50.575" y="77.771" fill="#D9D4DB" width="1.101" height="9.662"/>
			<rect x="53.02" y="77.771" fill="#D9D4DB" width="1.102" height="9.662"/>
			<rect x="55.466" y="77.771" fill="#D9D4DB" width="1.1" height="9.662"/>
			<rect x="57.912" y="77.771" fill="#D9D4DB" width="1.102" height="9.662"/>
			<rect x="60.36" y="77.771" fill="#D9D4DB" width="1.1" height="9.662"/>
			<rect x="62.805" y="77.771" fill="#D9D4DB" width="1.1" height="9.662"/>
			<rect x="65.251" y="77.771" fill="#D9D4DB" width="1.1" height="9.662"/>
			<rect x="67.697" y="77.771" fill="#D9D4DB" width="1.1" height="9.662"/>
			<rect x="70.143" y="77.771" fill="#D9D4DB" width="1.1" height="9.662"/>
			<rect x="72.59" y="77.771" fill="#D9D4DB" width="1.101" height="9.662"/>
			<rect x="75.036" y="77.771" fill="#D9D4DB" width="1.101" height="9.662"/>
			<rect x="77.481" y="77.771" fill="#D9D4DB" width="1.101" height="9.662"/>
			<rect x="79.927" y="77.771" fill="#D9D4DB" width="1.101" height="9.662"/>
			<rect x="82.373" y="77.771" fill="#D9D4DB" width="1.102" height="9.662"/>
			<rect x="84.82" y="77.771" fill="#D9D4DB" width="1.1" height="9.662"/>
			<rect x="87.266" y="77.771" fill="#D9D4DB" width="1.1" height="9.662"/>
			<rect x="89.712" y="77.771" fill="#D9D4DB" width="1.1" height="9.662"/>
			<rect x="92.159" y="77.771" fill="#D9D4DB" width="1.101" height="9.662"/>
			<rect x="94.604" y="77.771" fill="#D9D4DB" width="1.102" height="9.662"/>
			<rect x="97.051" y="77.771" fill="#D9D4DB" width="1.101" height="9.662"/>
		</g>
		<rect x="35.032" y="89.524" fill="#F2EEEC" width="75.502" height="6.348"/>
	</g>
	<rect x="146.852" y="38.923" fill="#B22D1B" width="9.067" height="2.912"/>
</g>
</svg>
