<?xml version="1.0" encoding="utf-8"?>
<!-- Generator: Adobe Illustrator 17.0.0, SVG Export Plug-In . SVG Version: 6.00 Build 0)  -->
<!DOCTYPE svg PUBLIC "-//W3C//DTD SVG 1.1//EN" "http://www.w3.org/Graphics/SVG/1.1/DTD/svg11.dtd">
<svg version="1.1" id="Layer_1" xmlns="http://www.w3.org/2000/svg" xmlns:xlink="http://www.w3.org/1999/xlink" x="0px" y="0px"
	 width="232px" height="232px" viewBox="0.015 0.226 232 232" enable-background="new 0.015 0.226 232 232" xml:space="preserve">
<g id="_x31_1._Malaria_1_">
	<rect x="0.016" y="0.226" fill="#5FBFCD" width="232" height="232"/>
	<g>
		<g>
			<ellipse fill="#56ACB2" cx="17.909" cy="14.279" rx="7.665" ry="7.651"/>
			<ellipse fill="#56ACB2" cx="29.29" cy="33.522" rx="3.701" ry="3.694"/>
			<ellipse fill="#56ACB2" cx="25.11" cy="47.443" rx="2.775" ry="2.77"/>
			<ellipse fill="#56ACB2" cx="59.226" cy="8.118" rx="2.775" ry="2.77"/>
			<ellipse fill="#56ACB2" cx="189.233" cy="41.559" rx="2.775" ry="2.77"/>
			<ellipse fill="#56ACB2" cx="111.729" cy="224.236" rx="2.775" ry="2.77"/>
			<ellipse fill="#56ACB2" cx="75.227" cy="228.728" rx="2.775" ry="2.77"/>
			<ellipse fill="#56ACB2" cx="124.229" cy="201.776" rx="4.857" ry="4.848"/>
			<ellipse fill="#56ACB2" cx="136.145" cy="74.789" rx="2.775" ry="2.77"/>
			<ellipse fill="#56ACB2" cx="196.988" cy="98.903" rx="2.776" ry="2.771"/>
			<ellipse fill="#56ACB2" cx="226.717" cy="140.636" rx="2.775" ry="2.77"/>
			<ellipse fill="#56ACB2" cx="199.311" cy="219.925" rx="2.776" ry="2.771"/>
			<path fill="#56ACB2" d="M227.1,221.551c0,3.154-2.562,5.713-5.723,5.713c-3.164,0-5.727-2.557-5.727-5.713
				c0-3.158,2.562-5.717,5.727-5.717C224.537,215.835,227.1,218.392,227.1,221.551z"/>
			<ellipse fill="#56ACB2" cx="212.783" cy="18.685" rx="4.164" ry="4.157"/>
			<path fill="#56ACB2" d="M216.945,43.261c0,5.108-4.154,9.255-9.271,9.255c-5.121,0-9.275-4.147-9.275-9.255
				c0-5.112,4.154-9.259,9.275-9.259C212.791,34.001,216.945,38.149,216.945,43.261z"/>
			<ellipse fill="#56ACB2" cx="210.458" cy="78.964" rx="4.629" ry="4.621"/>
			<path fill="#56ACB2" d="M224.842,111.423c0,4.597-3.736,8.327-8.342,8.327c-4.609,0-8.348-3.729-8.348-8.327
				c0-4.601,3.738-8.333,8.348-8.333C221.106,103.09,224.842,106.823,224.842,111.423z"/>
			<ellipse fill="#56ACB2" cx="14.193" cy="61.59" rx="3.008" ry="3.003"/>
			<ellipse fill="#56ACB2" cx="58.092" cy="64.368" rx="3.008" ry="3.003"/>
			<ellipse fill="#56ACB2" cx="215.106" cy="201.158" rx="3.008" ry="3.003"/>
			<ellipse fill="#56ACB2" cx="83.177" cy="103.539" rx="3.008" ry="3.003"/>
			<ellipse fill="#56ACB2" cx="128.701" cy="167.065" rx="3.008" ry="3.003"/>
			<ellipse fill="#56ACB2" cx="92.699" cy="207.638" rx="3.947" ry="3.94"/>
			<ellipse fill="#56ACB2" cx="31.892" cy="74.59" rx="9.29" ry="9.274"/>
			<ellipse fill="#56ACB2" cx="147.095" cy="50.476" rx="9.289" ry="9.273"/>
			<ellipse fill="#56ACB2" cx="79.935" cy="43.648" rx="10.924" ry="10.904"/>
			<ellipse fill="#56ACB2" cx="16.758" cy="172.552" rx="10.924" ry="10.904"/>
			<ellipse fill="#56ACB2" cx="39.046" cy="220.388" rx="6.487" ry="6.476"/>
			<ellipse fill="#56ACB2" cx="18.152" cy="206.402" rx="6.486" ry="6.475"/>
			<ellipse fill="#56ACB2" cx="132.426" cy="15.968" rx="10.924" ry="10.904"/>
			<ellipse fill="#56ACB2" cx="189.098" cy="130.359" rx="10.925" ry="10.905"/>
			<path fill="#56ACB2" d="M216.959,174.819c-7.152,2.299-14.819-1.628-17.122-8.766c-2.301-7.143,1.631-14.792,8.781-17.093
				c7.156-2.299,14.821,1.626,17.126,8.768C228.045,164.868,224.115,172.521,216.959,174.819z"/>
			<path fill="#56ACB2" d="M190.478,210.453c-7.152,2.299-14.819-1.628-17.122-8.766c-2.301-7.143,1.631-14.794,8.781-17.095
				c7.156-2.297,14.821,1.626,17.126,8.768C201.563,200.502,197.634,208.153,190.478,210.453z"/>
			<ellipse fill="#56ACB2" cx="140.73" cy="218.745" rx="10.429" ry="10.411"/>
			<path fill="#56ACB2" d="M73.786,190.184c-5.393,1.733-11.173-1.227-12.909-6.607c-1.734-5.385,1.23-11.152,6.621-12.887
				c5.395-1.731,11.173,1.227,12.909,6.611C82.144,182.685,79.181,188.451,73.786,190.184z"/>
			<ellipse fill="#56ACB2" cx="49.544" cy="119.567" rx="9.289" ry="9.273"/>
			<ellipse fill="#56ACB2" cx="13.877" cy="94.843" rx="4.486" ry="4.478"/>
			<ellipse fill="#56ACB2" cx="24.638" cy="146.529" rx="7.16" ry="7.147"/>
			<ellipse fill="#56ACB2" cx="37.188" cy="194.885" rx="7.16" ry="7.147"/>
			<ellipse fill="#56ACB2" cx="24.827" cy="125.655" rx="3.459" ry="3.453"/>
			<ellipse fill="#56ACB2" cx="174.406" cy="161.823" rx="3.459" ry="3.453"/>
			<ellipse fill="#56ACB2" cx="98.972" cy="67.369" rx="3.458" ry="3.452"/>
		</g>
	</g>
	<g>
		<path fill="#75672A" d="M118.273,98.977c0,0-0.094-0.316-0.325-0.852c-0.111-0.27-0.268-0.588-0.445-0.954
			c-0.194-0.357-0.398-0.77-0.672-1.189c-0.25-0.437-0.569-0.876-0.904-1.344c-0.157-0.241-0.361-0.455-0.549-0.692
			c-0.199-0.228-0.375-0.483-0.604-0.7c-0.439-0.447-0.876-0.929-1.394-1.34c-0.254-0.209-0.493-0.441-0.765-0.638l-0.823-0.575
			l-0.412-0.287l-0.438-0.243c-0.292-0.164-0.584-0.322-0.872-0.483c-0.584-0.308-1.203-0.52-1.779-0.774
			c-0.589-0.221-1.186-0.356-1.736-0.528c-0.14-0.04-0.277-0.08-0.41-0.119c-0.14-0.022-0.275-0.046-0.409-0.069
			c-0.269-0.046-0.528-0.09-0.776-0.133c-0.499-0.077-0.952-0.188-1.363-0.189c-0.409-0.023-0.768-0.045-1.061-0.062
			c-0.589-0.037-0.925-0.057-0.925-0.057s0.336,0.016,0.925,0.043c0.294,0.014,0.652,0.03,1.063,0.049
			c0.413-0.004,0.867,0.1,1.367,0.171c0.25,0.039,0.51,0.081,0.78,0.123c0.135,0.021,0.272,0.043,0.411,0.065
			c0.136,0.036,0.273,0.074,0.414,0.113c0.556,0.163,1.155,0.292,1.751,0.507c0.582,0.248,1.209,0.452,1.8,0.755
			c0.294,0.157,0.589,0.315,0.886,0.475l0.445,0.239l0.42,0.285l0.839,0.569c0.276,0.193,0.521,0.424,0.781,0.633
			c0.529,0.408,0.976,0.889,1.428,1.336c0.231,0.218,0.414,0.472,0.617,0.701c0.195,0.236,0.404,0.45,0.568,0.693
			c0.344,0.468,0.674,0.908,0.934,1.347c0.281,0.424,0.493,0.84,0.696,1.199c0.186,0.368,0.35,0.69,0.466,0.964
			c0.12,0.271,0.209,0.488,0.264,0.642c0.06,0.151,0.083,0.23,0.083,0.23L118.273,98.977z"/>
		<path fill="#75672A" d="M101.837,88.728c0,0,0.102-0.132,0.296-0.284c0.191-0.155,0.48-0.321,0.796-0.428l0.236-0.068
			c0.078-0.027,0.158-0.027,0.236-0.039c0.153-0.017,0.297-0.041,0.421-0.023c0.246,0.023,0.406,0.047,0.406,0.047
			s-0.165,0.019-0.403,0.035c-0.121-0.007-0.256,0.044-0.403,0.065c-0.071,0.015-0.151,0.017-0.223,0.047l-0.225,0.074
			c-0.303,0.091-0.588,0.239-0.796,0.357C101.968,88.627,101.837,88.728,101.837,88.728z"/>
		<path fill="#75672A" d="M102.627,86.362c0,0,0.046,0.111,0.127,0.269c0.083,0.154,0.188,0.361,0.324,0.549
			c0.06,0.099,0.123,0.196,0.194,0.278c0.069,0.084,0.121,0.173,0.185,0.233c0.115,0.135,0.188,0.23,0.188,0.23
			s-0.1-0.062-0.244-0.172c-0.142-0.11-0.311-0.287-0.444-0.489c-0.07-0.1-0.12-0.21-0.173-0.31
			c-0.05-0.102-0.077-0.206-0.106-0.289C102.632,86.483,102.627,86.362,102.627,86.362z"/>
		<path fill="#75672A" d="M105.073,86.791c0,0,0.055,0.107,0.145,0.259c0.095,0.147,0.213,0.345,0.362,0.52
			c0.067,0.094,0.137,0.186,0.214,0.262c0.075,0.078,0.133,0.165,0.201,0.22c0.124,0.124,0.204,0.215,0.204,0.215
			s-0.104-0.056-0.257-0.153c-0.148-0.1-0.329-0.264-0.478-0.452c-0.076-0.095-0.133-0.201-0.194-0.297
			c-0.057-0.098-0.092-0.198-0.126-0.28C105.087,86.911,105.073,86.791,105.073,86.791z"/>
		<path fill="#75672A" d="M107.405,87.428c0,0,0.053,0.107,0.145,0.257c0.095,0.147,0.214,0.346,0.361,0.522
			c0.067,0.093,0.139,0.185,0.217,0.262c0.074,0.077,0.133,0.164,0.2,0.219c0.124,0.124,0.204,0.215,0.204,0.215
			s-0.104-0.055-0.257-0.152c-0.148-0.101-0.33-0.265-0.479-0.453c-0.076-0.094-0.133-0.201-0.192-0.295
			c-0.059-0.099-0.094-0.199-0.128-0.282C107.418,87.547,107.405,87.428,107.405,87.428z"/>
		<path fill="#75672A" d="M109.761,88.303c0,0,0.04,0.113,0.113,0.271c0.075,0.158,0.17,0.37,0.296,0.562
			c0.057,0.101,0.114,0.2,0.183,0.285c0.065,0.085,0.113,0.179,0.174,0.24c0.108,0.14,0.178,0.239,0.178,0.239
			s-0.099-0.069-0.237-0.184c-0.137-0.116-0.297-0.3-0.421-0.507c-0.064-0.102-0.108-0.215-0.157-0.315
			c-0.045-0.104-0.068-0.209-0.093-0.294C109.758,88.424,109.761,88.303,109.761,88.303z"/>
		<path fill="#75672A" d="M111.94,89.333c0,0,0.023,0.118,0.074,0.285c0.052,0.168,0.114,0.391,0.214,0.599
			c0.041,0.107,0.085,0.215,0.139,0.308c0.053,0.095,0.088,0.192,0.139,0.265c0.088,0.151,0.143,0.26,0.143,0.26
			s-0.086-0.081-0.21-0.214c-0.118-0.135-0.25-0.34-0.344-0.562c-0.05-0.109-0.077-0.228-0.11-0.335
			c-0.029-0.109-0.038-0.216-0.05-0.304C111.922,89.451,111.94,89.333,111.94,89.333z"/>
		<path fill="#75672A" d="M113.638,90.573c0,0,0.004,0.12,0.022,0.294c0.023,0.173,0.046,0.402,0.107,0.626
			c0.021,0.113,0.046,0.228,0.084,0.327c0.035,0.103,0.052,0.205,0.09,0.283c0.059,0.165,0.093,0.281,0.093,0.281
			s-0.07-0.095-0.167-0.248c-0.093-0.152-0.188-0.378-0.241-0.613c-0.03-0.117-0.038-0.238-0.051-0.349
			c-0.01-0.114,0.001-0.219,0.003-0.308C113.6,90.688,113.638,90.573,113.638,90.573z"/>
		<path fill="#75672A" d="M115.503,91.906c0,0-0.025,0.116-0.049,0.288c-0.02,0.175-0.053,0.403-0.049,0.635
			c-0.006,0.115-0.009,0.23,0.004,0.337c0.008,0.108,0,0.212,0.018,0.296c0.018,0.175,0.022,0.296,0.022,0.296
			s-0.045-0.11-0.103-0.28c-0.052-0.172-0.09-0.412-0.085-0.654c-0.001-0.121,0.021-0.241,0.036-0.352
			c0.018-0.11,0.053-0.211,0.078-0.297C115.438,92.006,115.503,91.906,115.503,91.906z"/>
		<path fill="#75672A" d="M116.566,93.159c0,0-0.027,0.116-0.05,0.288c-0.019,0.175-0.052,0.404-0.048,0.635
			c-0.006,0.114-0.01,0.23,0.003,0.337c0.009,0.109,0,0.212,0.018,0.296c0.019,0.175,0.023,0.296,0.023,0.296
			s-0.046-0.11-0.103-0.281c-0.054-0.171-0.091-0.411-0.086-0.653c0-0.121,0.021-0.241,0.036-0.352
			c0.018-0.11,0.053-0.212,0.079-0.297C116.5,93.26,116.566,93.159,116.566,93.159z"/>
		<path fill="#75672A" d="M117.662,94.85c0,0-0.031,0.115-0.061,0.287c-0.025,0.173-0.068,0.401-0.07,0.632
			c-0.012,0.114-0.019,0.229-0.011,0.338c0.005,0.108-0.007,0.212,0.009,0.297c0.011,0.174,0.011,0.295,0.011,0.295
			s-0.042-0.11-0.093-0.285c-0.047-0.172-0.074-0.414-0.063-0.655c0.006-0.121,0.032-0.239,0.05-0.351
			c0.021-0.111,0.062-0.21,0.09-0.293C117.592,94.947,117.662,94.85,117.662,94.85z"/>
		<path fill="#75672A" d="M104.083,89.16c0,0,0.1-0.129,0.295-0.281c0.192-0.156,0.481-0.322,0.795-0.429l0.238-0.067
			c0.075-0.027,0.159-0.027,0.234-0.041c0.154-0.017,0.298-0.04,0.422-0.021c0.247,0.021,0.406,0.046,0.406,0.046
			s-0.165,0.019-0.404,0.035c-0.12-0.007-0.256,0.043-0.402,0.064c-0.072,0.015-0.149,0.019-0.223,0.047l-0.225,0.075
			c-0.304,0.091-0.587,0.24-0.796,0.357C104.214,89.062,104.083,89.16,104.083,89.16z"/>
		<path fill="#75672A" d="M106.329,89.811c0,0,0.102-0.129,0.294-0.283c0.192-0.154,0.481-0.322,0.795-0.427l0.237-0.068
			c0.078-0.026,0.16-0.026,0.237-0.041c0.153-0.017,0.296-0.04,0.42-0.022c0.248,0.022,0.406,0.048,0.406,0.048
			s-0.165,0.019-0.402,0.033c-0.121-0.005-0.256,0.045-0.403,0.065c-0.071,0.017-0.149,0.019-0.224,0.049l-0.224,0.072
			c-0.303,0.093-0.588,0.241-0.796,0.357C106.459,89.712,106.329,89.811,106.329,89.811z"/>
		<path fill="#75672A" d="M108.356,90.824c0,0,0.102-0.131,0.295-0.283c0.191-0.155,0.481-0.323,0.796-0.428l0.237-0.067
			c0.077-0.028,0.158-0.028,0.236-0.041c0.152-0.017,0.295-0.041,0.419-0.023c0.248,0.023,0.407,0.048,0.407,0.048
			s-0.164,0.019-0.403,0.034c-0.121-0.006-0.256,0.045-0.402,0.064c-0.072,0.017-0.15,0.019-0.224,0.049l-0.225,0.073
			c-0.302,0.092-0.585,0.24-0.795,0.357C108.486,90.725,108.356,90.824,108.356,90.824z"/>
		<path fill="#75672A" d="M110.168,91.98c0,0,0.101-0.131,0.294-0.282c0.192-0.156,0.481-0.322,0.796-0.429l0.237-0.068
			c0.076-0.026,0.159-0.026,0.235-0.039c0.153-0.018,0.296-0.041,0.421-0.022c0.247,0.022,0.406,0.045,0.406,0.045
			s-0.165,0.02-0.404,0.036c-0.12-0.006-0.255,0.044-0.401,0.064c-0.073,0.016-0.15,0.019-0.224,0.048l-0.226,0.074
			c-0.302,0.091-0.586,0.24-0.795,0.357C110.298,91.88,110.168,91.98,110.168,91.98z"/>
		<path fill="#75672A" d="M111.616,93.21c0,0,0.101-0.131,0.294-0.283c0.191-0.155,0.481-0.322,0.796-0.427l0.237-0.068
			c0.077-0.028,0.159-0.028,0.234-0.04c0.155-0.018,0.298-0.042,0.422-0.022c0.247,0.022,0.406,0.046,0.406,0.046
			s-0.164,0.019-0.403,0.034c-0.12-0.006-0.256,0.045-0.403,0.064c-0.072,0.017-0.15,0.02-0.223,0.049l-0.225,0.073
			c-0.304,0.092-0.588,0.241-0.795,0.358C111.746,93.109,111.616,93.21,111.616,93.21z"/>
		<path fill="#75672A" d="M112.992,94.582c0,0,0.1-0.13,0.294-0.282c0.192-0.155,0.481-0.322,0.796-0.429l0.237-0.067
			c0.077-0.026,0.159-0.026,0.234-0.04c0.154-0.017,0.299-0.041,0.421-0.022c0.248,0.022,0.407,0.046,0.407,0.046
			s-0.165,0.021-0.403,0.036c-0.121-0.007-0.256,0.044-0.403,0.064c-0.072,0.016-0.15,0.018-0.223,0.048l-0.226,0.072
			c-0.303,0.094-0.586,0.241-0.794,0.358C113.122,94.483,112.992,94.582,112.992,94.582z"/>
		<path fill="#75672A" d="M114.15,95.956c0,0,0.102-0.13,0.296-0.282c0.191-0.155,0.48-0.321,0.794-0.428l0.237-0.068
			c0.076-0.026,0.159-0.026,0.235-0.04c0.154-0.016,0.297-0.041,0.422-0.021c0.245,0.021,0.405,0.045,0.405,0.045
			s-0.164,0.02-0.403,0.035c-0.12-0.007-0.255,0.044-0.401,0.065c-0.073,0.015-0.151,0.018-0.225,0.047l-0.224,0.074
			c-0.304,0.092-0.587,0.241-0.796,0.357C114.28,95.857,114.15,95.956,114.15,95.956z"/>
		<path fill="#75672A" d="M115.237,97.619c0,0,0.101-0.13,0.294-0.282c0.191-0.155,0.48-0.322,0.797-0.428l0.237-0.067
			c0.076-0.028,0.158-0.028,0.233-0.041c0.155-0.018,0.297-0.041,0.422-0.022c0.247,0.022,0.406,0.047,0.406,0.047
			s-0.164,0.019-0.404,0.034c-0.12-0.006-0.255,0.045-0.402,0.064c-0.071,0.017-0.15,0.019-0.222,0.048l-0.226,0.074
			c-0.304,0.092-0.587,0.241-0.796,0.358C115.367,97.519,115.237,97.619,115.237,97.619z"/>
	</g>
	<g>
		<polygon fill="#75672A" points="119.31,99.034 118.643,99.034 118.643,62.798 119.31,64.803 		"/>
	</g>
	<g>
		<path fill="#AA953C" d="M118.986,98.098v-0.004c0.021-0.033,0.017-0.025-0.003,0.002c-0.018-0.027-0.024-0.035-0.002-0.002v0.004
			c-0.205,0.285-6.538,3.972-5.283,6.751c0,0,1.658,4.202,4.206,4.202h1.021h0.114h1.022c2.55,0,4.209-4.202,4.209-4.202
			C125.036,101.59,119.191,98.385,118.986,98.098z"/>
		<path fill="#75672A" d="M119.022,98.093v-0.005c0.021-0.034,0.017-0.024-0.003,0.001c-0.02-0.025-0.024-0.035-0.002-0.001v0.005
			c-0.003,0.004-0.012,0.012-0.018,0.018v10.933h0.077h1.021c2.551,0,4.208-4.201,4.208-4.201
			C125.071,101.584,119.227,98.376,119.022,98.093z"/>
	</g>
	<path fill="none" stroke="#D9D4DB" stroke-width="0.5" stroke-miterlimit="10" d="M118.485,102.974
		c0.179-0.268-1.562,2.392-3.706,2.392c0,0,1.162,2.944,2.949,2.944h0.715L118.485,102.974z"/>
	
		<ellipse transform="matrix(-0.6656 -0.7463 0.7463 -0.6656 116.6331 257.7882)" fill="#5A6568" cx="116.066" cy="102.766" rx="1.474" ry="2.454"/>
	<g>
		<path fill="#75672A" d="M174.967,186.082c-0.055-0.235-0.13-0.589-0.29-1.013c-0.139-0.437-0.36-0.939-0.628-1.517
			c-0.288-0.561-0.625-1.195-1.049-1.847c-0.416-0.658-0.904-1.343-1.453-2.037c-0.541-0.703-1.16-1.401-1.822-2.098
			c-0.675-0.687-1.401-1.362-2.164-2.021c-0.762-0.656-1.531-1.327-2.32-1.971c-3.134-2.604-6.405-5.01-8.935-6.703
			c-2.439-1.661-4.146-2.686-4.245-2.744c0.066-0.326,0.322-1.654,0.516-3.528c0.115-1.083,0.22-2.348,0.269-3.705
			c0.03-1.358,0-2.809,0.01-4.259c0.009-2.899,0.039-5.799,0.017-7.975c-0.011-1.98-0.017-3.357-0.018-3.587l0.072-0.054
			c0,0-0.074-0.098-0.212-0.283c-0.133-0.189-0.339-0.458-0.635-0.772c-0.28-0.329-0.668-0.683-1.117-1.079
			c-0.453-0.392-0.986-0.808-1.587-1.239c-1.197-0.857-2.668-1.756-4.294-2.607c-1.626-0.857-3.395-1.696-5.188-2.482
			c-0.895-0.398-1.797-0.775-2.684-1.154c-0.887-0.376-1.768-0.729-2.632-1.033c-0.864-0.298-1.711-0.564-2.524-0.778
			c-0.809-0.227-1.579-0.416-2.295-0.577c-2.863-0.656-4.847-0.779-4.847-0.779l-0.045,0.167c0,0,1.773,0.873,4.479,1.939
			c0.675,0.272,1.409,0.554,2.186,0.848c0.775,0.3,1.601,0.591,2.455,0.89c0.858,0.285,1.75,0.567,2.658,0.85
			c0.908,0.285,1.82,0.599,2.73,0.92c3.636,1.298,7.175,2.854,9.661,4.316c0.618,0.368,1.173,0.729,1.646,1.072
			c0.244,0.163,0.448,0.342,0.648,0.497c0.203,0.154,0.379,0.302,0.53,0.449c0.318,0.274,0.543,0.514,0.689,0.684
			c0.084,0.093,0.145,0.158,0.185,0.199c-0.018,0.23-0.122,1.602-0.271,3.58c-0.174,2.169-0.346,5.062-0.538,7.957
			c-0.093,1.447-0.225,2.891-0.288,4.249c-0.045,1.358-0.03,2.627,0.012,3.716c0.07,2.177,0.276,3.635,0.277,3.635l0.065,0.003
			l-0.039,0.059c0,0,1.622,1.21,3.984,3.105c1.178,0.95,2.535,2.079,3.978,3.298c1.436,1.227,2.94,2.563,4.398,3.945
			c0.725,0.694,1.439,1.396,2.12,2.107c0.675,0.714,1.339,1.417,1.982,2.098c0.643,0.672,1.264,1.323,1.854,1.939
			c0.581,0.623,1.123,1.217,1.613,1.774c0.242,0.282,0.474,0.552,0.693,0.81c0.214,0.263,0.418,0.511,0.607,0.747
			c0.364,0.479,0.692,0.896,0.934,1.26c0.264,0.353,0.434,0.65,0.566,0.849c0.132,0.201,0.201,0.307,0.201,0.307l0.162-0.061
			C175.049,186.443,175.021,186.317,174.967,186.082z"/>
		<path fill="#75672A" d="M144.921,187.964c-0.698-0.735-1.395-1.471-2.082-2.194c-0.681-0.73-1.358-1.439-2.033-2.108
			c-0.682-0.662-1.349-1.292-2.006-1.866c-0.648-0.582-1.273-1.121-1.857-1.608c-2.104-1.776-3.71-2.871-4.001-3.067
			c0.027-0.147,0.083-0.464,0.149-0.913c0.074-0.316,0.163-0.7,0.266-1.14c0.09-0.437,0.254-0.929,0.382-1.466
			c0.132-0.536,0.318-1.114,0.477-1.729c0.172-0.613,0.361-1.261,0.531-1.935c0.165-0.677,0.356-1.373,0.52-2.088
			c0.186-0.71,0.373-1.431,0.561-2.153c0.791-2.878,1.687-5.731,2.336-7.879c0.547-1.777,0.963-3.054,1.09-3.441l0.073,0.003
			c0,0,0.019-0.103,0.06-0.291c0.032-0.191,0.102-0.476,0.128-0.841c0.021-0.365,0.058-0.817,0.009-1.331
			c-0.011-0.26-0.037-0.533-0.088-0.817c-0.052-0.283-0.081-0.594-0.171-0.896c-0.086-0.304-0.156-0.632-0.266-0.954
			c-0.121-0.318-0.228-0.659-0.372-0.992c-0.274-0.672-0.627-1.353-1.042-2.016c-0.421-0.665-0.908-1.31-1.444-1.929
			c-0.526-0.622-1.082-1.233-1.651-1.826c-1.138-1.187-2.352-2.285-3.523-3.263c-1.168-0.983-2.319-1.823-3.319-2.516
			c-1.998-1.392-3.425-2.165-3.425-2.165l-0.093,0.147c0,0,1.308,0.943,3.138,2.507c1.818,1.574,4.183,3.752,6.18,6.208
			c0.489,0.622,0.975,1.243,1.396,1.89c0.431,0.641,0.829,1.281,1.204,1.9c0.389,0.612,0.731,1.217,1.063,1.789
			c0.315,0.579,0.594,1.136,0.834,1.661c0.225,0.529,0.441,1.018,0.581,1.469c0.174,0.446,0.262,0.849,0.368,1.184
			c0.096,0.336,0.136,0.607,0.187,0.793c0.028,0.11,0.047,0.188,0.058,0.233c-0.145,0.351-0.661,1.6-1.358,3.363
			c-0.415,1.044-0.891,2.266-1.37,3.588c-0.483,1.32-0.982,2.733-1.469,4.154c-0.479,1.422-0.977,2.842-1.36,4.203
			c-0.171,0.686-0.343,1.346-0.456,1.985c-0.115,0.642-0.237,1.24-0.297,1.809c-0.061,0.569-0.133,1.081-0.141,1.551
			c-0.008,0.468-0.025,0.869-0.003,1.205c0.053,0.543,0.1,0.885,0.117,0.999l-0.032,0.033c0,0,1.179,1.692,3.201,3.97
			c0.503,0.574,1.058,1.184,1.656,1.815c0.589,0.644,1.236,1.295,1.915,1.958c0.685,0.659,1.413,1.319,2.161,1.979
			c0.74,0.67,1.494,1.35,2.247,2.026c2.995,2.731,5.974,5.481,8.248,7.503c2.27,2.025,3.783,3.377,3.783,3.377l0.121-0.124
			c0,0-1.39-1.476-3.472-3.694C150.553,193.798,147.728,190.891,144.921,187.964z"/>
	</g>
	
		<ellipse transform="matrix(-0.6659 -0.7461 0.7461 -0.6659 116.6447 257.2907)" fill="#932519" cx="115.938" cy="102.525" rx="1.474" ry="2.456"/>
	
		<ellipse transform="matrix(-0.6656 -0.7463 0.7463 -0.6656 116.7247 256.1643)" fill="#B22D1B" cx="115.748" cy="101.934" rx="0.842" ry="1.399"/>
	<g>
		<path fill="#75672A" d="M119.525,98.887c0,0,0.022-0.079,0.082-0.23c0.056-0.153,0.144-0.37,0.263-0.642
			c0.118-0.274,0.28-0.596,0.466-0.964c0.203-0.359,0.415-0.775,0.698-1.199c0.26-0.437,0.588-0.878,0.933-1.347
			c0.164-0.243,0.374-0.457,0.566-0.693c0.204-0.229,0.387-0.483,0.62-0.701c0.451-0.446,0.898-0.927,1.428-1.336
			c0.259-0.209,0.505-0.439,0.78-0.633l0.839-0.569l0.419-0.285l0.445-0.239c0.297-0.159,0.593-0.317,0.887-0.475
			c0.592-0.302,1.219-0.507,1.8-0.755c0.596-0.215,1.197-0.344,1.752-0.507c0.141-0.039,0.276-0.077,0.412-0.113
			c0.141-0.022,0.277-0.045,0.412-0.065c0.27-0.042,0.53-0.084,0.779-0.123c0.502-0.071,0.956-0.175,1.368-0.171
			c0.411-0.019,0.768-0.035,1.064-0.049c0.589-0.027,0.925-0.043,0.925-0.043s-0.335,0.02-0.924,0.057
			c-0.296,0.017-0.652,0.038-1.062,0.062c-0.412,0.001-0.865,0.112-1.363,0.189c-0.25,0.043-0.508,0.087-0.776,0.133
			c-0.135,0.023-0.27,0.047-0.408,0.069c-0.134,0.039-0.27,0.079-0.41,0.119c-0.554,0.172-1.148,0.308-1.738,0.528
			c-0.576,0.255-1.194,0.466-1.778,0.774c-0.289,0.161-0.579,0.319-0.873,0.483l-0.437,0.243l-0.414,0.287l-0.822,0.575
			c-0.27,0.196-0.51,0.429-0.765,0.638c-0.519,0.41-0.955,0.892-1.394,1.34c-0.228,0.217-0.404,0.473-0.604,0.7
			c-0.187,0.237-0.392,0.451-0.55,0.692c-0.335,0.467-0.652,0.906-0.903,1.344c-0.274,0.42-0.477,0.832-0.673,1.189
			c-0.176,0.366-0.333,0.686-0.443,0.954c-0.233,0.535-0.326,0.852-0.326,0.852L119.525,98.887z"/>
		<path fill="#75672A" d="M136.235,88.728c0,0-0.13-0.101-0.341-0.217c-0.21-0.119-0.492-0.268-0.795-0.357l-0.225-0.074
			c-0.073-0.03-0.151-0.032-0.225-0.047c-0.146-0.021-0.281-0.072-0.401-0.065c-0.239-0.017-0.403-0.035-0.403-0.035
			s0.158-0.023,0.406-0.047c0.123-0.018,0.267,0.007,0.421,0.023c0.075,0.012,0.158,0.012,0.235,0.039l0.237,0.068
			c0.312,0.106,0.602,0.273,0.795,0.428C136.134,88.596,136.235,88.728,136.235,88.728z"/>
		<path fill="#75672A" d="M135.446,86.362c0,0-0.005,0.121-0.051,0.297c-0.027,0.084-0.057,0.188-0.107,0.289
			c-0.052,0.101-0.102,0.211-0.17,0.31c-0.136,0.202-0.305,0.379-0.445,0.489c-0.146,0.109-0.246,0.172-0.246,0.172
			s0.073-0.096,0.188-0.23c0.064-0.061,0.116-0.149,0.186-0.233c0.071-0.082,0.135-0.18,0.195-0.278
			c0.137-0.188,0.24-0.395,0.324-0.549C135.401,86.473,135.446,86.362,135.446,86.362z"/>
		<path fill="#75672A" d="M133,86.791c0,0-0.014,0.12-0.072,0.291c-0.034,0.082-0.069,0.183-0.127,0.28
			c-0.059,0.097-0.117,0.203-0.193,0.297c-0.149,0.189-0.329,0.353-0.479,0.452c-0.151,0.098-0.257,0.153-0.257,0.153
			s0.08-0.091,0.205-0.215c0.067-0.055,0.127-0.142,0.2-0.22c0.078-0.076,0.146-0.168,0.215-0.262
			c0.15-0.176,0.268-0.373,0.361-0.52C132.946,86.899,133,86.791,133,86.791z"/>
		<path fill="#75672A" d="M130.669,87.428c0,0-0.013,0.119-0.071,0.29c-0.035,0.083-0.071,0.184-0.127,0.282
			c-0.06,0.095-0.117,0.202-0.193,0.295c-0.148,0.189-0.329,0.353-0.479,0.453c-0.153,0.098-0.257,0.152-0.257,0.152
			s0.08-0.091,0.205-0.215c0.067-0.055,0.125-0.142,0.2-0.219c0.077-0.077,0.147-0.169,0.216-0.262
			c0.148-0.177,0.267-0.375,0.361-0.522C130.615,87.535,130.669,87.428,130.669,87.428z"/>
		<path fill="#75672A" d="M128.313,88.303c0,0,0.002,0.121-0.036,0.297c-0.023,0.086-0.048,0.19-0.091,0.294
			c-0.049,0.102-0.094,0.215-0.158,0.315c-0.125,0.207-0.284,0.391-0.421,0.507c-0.141,0.114-0.236,0.184-0.236,0.184
			s0.068-0.1,0.176-0.239c0.062-0.062,0.109-0.155,0.175-0.24c0.067-0.086,0.126-0.186,0.183-0.285
			c0.127-0.192,0.221-0.404,0.297-0.562C128.273,88.416,128.313,88.303,128.313,88.303z"/>
		<path fill="#75672A" d="M126.133,89.333c0,0,0.019,0.119,0.006,0.299c-0.012,0.089-0.02,0.195-0.05,0.304
			c-0.033,0.108-0.061,0.226-0.11,0.335c-0.095,0.223-0.227,0.428-0.346,0.562c-0.121,0.133-0.207,0.214-0.207,0.214
			s0.053-0.108,0.141-0.261c0.052-0.071,0.086-0.168,0.139-0.264c0.055-0.094,0.099-0.201,0.141-0.308
			c0.098-0.208,0.16-0.431,0.214-0.599C126.108,89.45,126.133,89.333,126.133,89.333z"/>
		<path fill="#75672A" d="M124.435,90.573c0,0,0.039,0.114,0.059,0.294c0.003,0.09,0.015,0.194,0.003,0.308
			c-0.013,0.111-0.02,0.232-0.05,0.349c-0.055,0.235-0.148,0.461-0.24,0.613c-0.099,0.153-0.17,0.248-0.17,0.248
			s0.035-0.116,0.096-0.281c0.038-0.079,0.055-0.182,0.089-0.283c0.038-0.101,0.063-0.215,0.085-0.327
			c0.061-0.224,0.084-0.453,0.105-0.626C124.433,90.693,124.435,90.573,124.435,90.573z"/>
		<path fill="#75672A" d="M122.569,91.906c0,0,0.065,0.1,0.128,0.271c0.026,0.087,0.061,0.188,0.079,0.297
			c0.015,0.111,0.036,0.231,0.036,0.352c0.005,0.242-0.032,0.482-0.086,0.654c-0.059,0.17-0.104,0.28-0.104,0.28
			s0.005-0.122,0.024-0.296c0.018-0.085,0.009-0.188,0.018-0.296c0.012-0.107,0.008-0.223,0.001-0.337
			c0.006-0.231-0.027-0.46-0.048-0.635C122.597,92.022,122.569,91.906,122.569,91.906z"/>
		<path fill="#75672A" d="M121.508,93.159c0,0,0.064,0.101,0.127,0.271c0.025,0.086,0.061,0.188,0.078,0.297
			c0.015,0.111,0.037,0.231,0.037,0.352c0.004,0.242-0.033,0.482-0.085,0.653c-0.059,0.171-0.104,0.281-0.104,0.281
			s0.004-0.122,0.023-0.296c0.018-0.085,0.011-0.188,0.018-0.296c0.014-0.107,0.01-0.224,0.003-0.337
			c0.005-0.23-0.028-0.46-0.048-0.635C121.532,93.275,121.508,93.159,121.508,93.159z"/>
		<path fill="#75672A" d="M120.412,94.85c0,0,0.068,0.098,0.137,0.267c0.029,0.084,0.067,0.183,0.09,0.293
			c0.018,0.112,0.045,0.23,0.049,0.351c0.013,0.241-0.016,0.483-0.061,0.655c-0.052,0.175-0.095,0.285-0.095,0.285
			s0.001-0.122,0.014-0.295c0.014-0.086,0.002-0.189,0.007-0.297c0.008-0.109,0-0.225-0.01-0.338
			c-0.004-0.23-0.046-0.459-0.071-0.632C120.441,94.965,120.412,94.85,120.412,94.85z"/>
		<path fill="#75672A" d="M133.989,89.16c0,0-0.129-0.099-0.339-0.216c-0.21-0.118-0.493-0.268-0.797-0.357l-0.225-0.075
			c-0.072-0.028-0.15-0.032-0.224-0.047c-0.146-0.021-0.281-0.071-0.402-0.064c-0.239-0.017-0.403-0.035-0.403-0.035
			s0.16-0.024,0.406-0.046c0.125-0.019,0.268,0.005,0.421,0.021c0.076,0.014,0.159,0.014,0.235,0.041l0.237,0.067
			c0.314,0.106,0.605,0.273,0.796,0.429C133.889,89.031,133.989,89.16,133.989,89.16z"/>
		<path fill="#75672A" d="M131.746,89.811c0,0-0.131-0.099-0.342-0.217c-0.208-0.117-0.492-0.266-0.795-0.357l-0.225-0.072
			c-0.073-0.03-0.151-0.032-0.224-0.049c-0.146-0.021-0.281-0.07-0.402-0.065c-0.239-0.015-0.403-0.033-0.403-0.033
			s0.159-0.025,0.406-0.048c0.123-0.018,0.268,0.006,0.421,0.022c0.076,0.015,0.158,0.015,0.235,0.041l0.237,0.068
			c0.314,0.104,0.604,0.273,0.795,0.427C131.644,89.682,131.746,89.811,131.746,89.811z"/>
		<path fill="#75672A" d="M129.718,90.824c0,0-0.131-0.1-0.342-0.218c-0.208-0.118-0.492-0.267-0.795-0.357l-0.224-0.073
			c-0.074-0.03-0.151-0.032-0.225-0.049c-0.146-0.02-0.282-0.07-0.401-0.064c-0.238-0.016-0.403-0.034-0.403-0.034
			s0.158-0.024,0.405-0.048c0.124-0.018,0.268,0.007,0.421,0.023c0.077,0.013,0.158,0.013,0.236,0.041l0.237,0.067
			c0.314,0.104,0.604,0.273,0.795,0.428C129.616,90.693,129.718,90.824,129.718,90.824z"/>
		<path fill="#75672A" d="M127.906,91.98c0,0-0.13-0.101-0.341-0.217c-0.208-0.118-0.491-0.268-0.795-0.357l-0.225-0.074
			c-0.072-0.029-0.15-0.032-0.223-0.048c-0.147-0.021-0.283-0.07-0.403-0.064c-0.238-0.017-0.403-0.036-0.403-0.036
			s0.159-0.022,0.406-0.045c0.123-0.019,0.267,0.005,0.421,0.022c0.076,0.013,0.159,0.013,0.235,0.039l0.237,0.068
			c0.314,0.106,0.604,0.273,0.796,0.429C127.806,91.85,127.906,91.98,127.906,91.98z"/>
		<path fill="#75672A" d="M126.458,93.21c0,0-0.131-0.101-0.341-0.217c-0.21-0.118-0.492-0.268-0.795-0.358l-0.226-0.073
			c-0.073-0.029-0.151-0.032-0.224-0.049c-0.146-0.02-0.281-0.07-0.402-0.064c-0.238-0.016-0.402-0.034-0.402-0.034
			s0.157-0.023,0.406-0.046c0.123-0.02,0.266,0.005,0.42,0.022c0.076,0.012,0.159,0.012,0.235,0.04l0.237,0.068
			c0.313,0.104,0.603,0.272,0.797,0.427C126.356,93.079,126.458,93.21,126.458,93.21z"/>
		<path fill="#75672A" d="M125.081,94.582c0,0-0.13-0.099-0.341-0.217c-0.209-0.118-0.491-0.266-0.795-0.358l-0.225-0.072
			c-0.073-0.03-0.151-0.032-0.224-0.048c-0.146-0.021-0.282-0.071-0.402-0.064c-0.238-0.016-0.403-0.036-0.403-0.036
			s0.159-0.023,0.407-0.046c0.123-0.019,0.267,0.006,0.42,0.022c0.077,0.014,0.159,0.014,0.235,0.04l0.237,0.067
			c0.314,0.106,0.604,0.274,0.796,0.429C124.981,94.452,125.081,94.582,125.081,94.582z"/>
		<path fill="#75672A" d="M123.923,95.956c0,0-0.131-0.099-0.341-0.217c-0.209-0.117-0.492-0.267-0.796-0.357l-0.225-0.074
			c-0.072-0.029-0.15-0.032-0.223-0.047c-0.147-0.021-0.282-0.072-0.402-0.065c-0.238-0.016-0.404-0.035-0.404-0.035
			s0.159-0.023,0.405-0.045c0.125-0.02,0.268,0.006,0.423,0.021c0.076,0.014,0.157,0.014,0.234,0.04l0.239,0.068
			c0.312,0.106,0.601,0.273,0.794,0.428C123.821,95.826,123.923,95.956,123.923,95.956z"/>
		<path fill="#75672A" d="M122.836,97.619c0,0-0.13-0.1-0.34-0.216c-0.209-0.118-0.492-0.268-0.796-0.358l-0.225-0.074
			c-0.073-0.029-0.15-0.031-0.224-0.048c-0.146-0.02-0.281-0.07-0.402-0.064c-0.238-0.016-0.403-0.034-0.403-0.034
			s0.158-0.024,0.406-0.047c0.124-0.019,0.267,0.005,0.421,0.022c0.076,0.013,0.158,0.013,0.235,0.041l0.237,0.067
			c0.314,0.105,0.604,0.273,0.797,0.428C122.734,97.489,122.836,97.619,122.836,97.619z"/>
	</g>
	<g>
		<path fill="#75672A" d="M123.837,136.81c0.415-0.768,0.651-1.643,0.651-2.577v-2.363c0-3.005-2.438-5.438-5.448-5.438
			c-3.008,0-5.446,2.435-5.446,5.438v2.363c0,0.934,0.236,1.81,0.65,2.576c-1.584,5.793-1.57,25.036,4.795,37.226v0.011
			c0,0,0-0.004,0.001-0.005c0.002,0.001,0.003,0.004,0.004,0.005v-0.011C125.407,161.844,125.422,142.601,123.837,136.81z"/>
		<path fill="#AA953C" d="M124.477,134.236v-2.364c0-3.004-2.439-5.437-5.448-5.437c-0.024,0-0.049,0.004-0.074,0.004v47.46
			c0.023,0.047,0.048,0.094,0.071,0.142v0.011c0.001-0.004,0.003-0.005,0.003-0.005c0.002,0,0.002,0.001,0.004,0.005v-0.011
			c6.362-12.191,6.377-31.433,4.793-37.226C124.24,136.047,124.477,135.17,124.477,134.236z"/>
	</g>
	<path fill="none" stroke="#D9D4DB" stroke-width="0.5" stroke-miterlimit="10" d="M119.369,102.974
		c-0.178-0.268,1.562,2.392,3.707,2.392c0,0-1.162,2.944-2.95,2.944h-0.714L119.369,102.974z"/>
	
		<ellipse transform="matrix(-0.6655 0.7464 -0.7464 -0.6655 279.5701 80.2398)" fill="#5A6568" cx="121.805" cy="102.767" rx="1.474" ry="2.455"/>
	
		<ellipse transform="matrix(-0.6659 0.7461 -0.7461 -0.6659 279.5752 79.8169)" fill="#932519" cx="121.914" cy="102.515" rx="1.474" ry="2.456"/>
	
		<ellipse transform="matrix(-0.6658 0.7461 -0.7461 -0.6658 279.4792 78.704)" fill="#B22D1B" cx="122.113" cy="101.943" rx="0.841" ry="1.399"/>
	<g>
		<g>
			<path fill="#5E5325" d="M124.88,128.324c0,3.234-2.626,5.856-5.866,5.856l0,0c-3.24,0-5.867-2.621-5.867-5.856v-16.482
				c0-3.235,2.627-5.857,5.867-5.857l0,0c3.24,0,5.866,2.621,5.866,5.857V128.324z"/>
			<g>
				<path fill="#75672A" d="M123.592,124.09c0,2.538-2.062,4.594-4.604,4.594l0,0c-2.541,0-4.602-2.056-4.602-4.594v-12.931
					c0-2.539,2.061-4.596,4.602-4.596l0,0c2.542,0,4.604,2.057,4.604,4.596C123.592,111.159,123.592,124.09,123.592,124.09z"/>
				<path fill="#AA953C" d="M119.006,106.57v22.117c2.523-0.024,4.561-2.069,4.561-4.594V111.16
					C123.566,108.637,121.529,106.591,119.006,106.57z"/>
			</g>
		</g>
		<path fill="#AA953C" d="M118.821,106.708c-0.403,0.202-0.78,0.449-1.137,0.72c-0.182,0.128-0.345,0.281-0.514,0.426
			c-0.17,0.144-0.313,0.313-0.47,0.47c-0.147,0.165-0.277,0.346-0.414,0.516c-0.125,0.182-0.23,0.374-0.349,0.556
			c-0.108,0.19-0.182,0.396-0.274,0.592c-0.093,0.198-0.119,0.417-0.183,0.623c-0.073,0.205-0.067,0.425-0.091,0.64l-0.029,0.32
			c0.002,0.107,0.018,0.217,0.024,0.323c0.026,0.214,0.023,0.43,0.07,0.642l0.162,0.63c0.038,0.212,0.133,0.411,0.214,0.613
			l0.245,0.606c0.21,0.385,0.434,0.764,0.647,1.146l0.043,0.073v0.068c0.004,1.482,0.034,2.966,0.019,4.445l-0.034,4.446
			c-0.01,1.482-0.059,2.965-0.087,4.447c-0.012,0.74-0.044,1.481-0.069,2.222c-0.026,0.742-0.054,1.482-0.094,2.225
			c-0.039-0.742-0.066-1.482-0.092-2.225c-0.027-0.74-0.059-1.481-0.07-2.222c-0.028-1.482-0.078-2.965-0.087-4.447l-0.033-4.446
			c-0.016-1.479,0.015-2.963,0.02-4.445l0.04,0.142c-0.221-0.404-0.447-0.806-0.66-1.212l-0.253-0.649
			c-0.083-0.216-0.181-0.428-0.217-0.661l-0.143-0.685c-0.041-0.229-0.03-0.467-0.046-0.699c-0.003-0.116-0.014-0.233-0.009-0.35
			l0.044-0.349c0.037-0.232,0.044-0.467,0.13-0.687c0.077-0.22,0.118-0.454,0.227-0.662c0.107-0.206,0.196-0.421,0.319-0.619
			c0.132-0.189,0.254-0.386,0.401-0.563c0.157-0.169,0.305-0.347,0.469-0.506c0.175-0.148,0.334-0.313,0.519-0.447
			c0.183-0.136,0.359-0.279,0.556-0.395C117.993,107.077,118.401,106.874,118.821,106.708z"/>
		<path fill="#75672A" d="M119.492,106.708c0.419,0.166,0.827,0.368,1.204,0.621c0.196,0.116,0.372,0.26,0.556,0.395
			c0.184,0.135,0.345,0.299,0.519,0.447c0.165,0.159,0.311,0.337,0.469,0.506c0.145,0.178,0.269,0.374,0.401,0.563
			c0.122,0.198,0.212,0.413,0.319,0.619c0.107,0.208,0.149,0.442,0.227,0.662c0.086,0.221,0.094,0.456,0.13,0.687l0.044,0.349
			c0.005,0.117-0.006,0.234-0.01,0.35c-0.015,0.232-0.005,0.47-0.045,0.699l-0.144,0.685c-0.036,0.233-0.134,0.445-0.216,0.661
			l-0.253,0.649c-0.214,0.406-0.439,0.808-0.662,1.212l0.042-0.142c0.005,1.482,0.034,2.966,0.019,4.445l-0.032,4.446
			c-0.01,1.482-0.059,2.965-0.088,4.447c-0.011,0.74-0.043,1.481-0.069,2.222c-0.026,0.742-0.053,1.482-0.093,2.225
			c-0.041-0.742-0.066-1.482-0.093-2.225c-0.026-0.74-0.058-1.481-0.069-2.222c-0.028-1.482-0.078-2.965-0.088-4.447l-0.033-4.446
			c-0.016-1.479,0.015-2.963,0.021-4.445v-0.068l0.04-0.073c0.215-0.383,0.438-0.762,0.648-1.146l0.244-0.606
			c0.082-0.202,0.176-0.401,0.215-0.613l0.162-0.63c0.047-0.212,0.044-0.428,0.07-0.642c0.007-0.107,0.023-0.217,0.024-0.323
			l-0.029-0.32c-0.022-0.215-0.018-0.434-0.09-0.64c-0.063-0.206-0.091-0.425-0.183-0.623c-0.092-0.195-0.166-0.401-0.272-0.592
			c-0.118-0.182-0.225-0.374-0.35-0.556c-0.139-0.17-0.266-0.351-0.413-0.516c-0.157-0.156-0.302-0.326-0.473-0.47
			c-0.168-0.146-0.33-0.298-0.513-0.426C120.271,107.158,119.895,106.91,119.492,106.708z"/>
	</g>
	<g>
		<path fill="#D9D4DB" d="M113.642,140.399c-0.039,0.369-0.072,0.757-0.104,1.157h11.007c-0.031-0.4-0.064-0.788-0.103-1.157
			H113.642z"/>
		<path fill="#D9D4DB" d="M113.388,147.918c0.008,0.38,0.02,0.768,0.034,1.157h11.24c0.013-0.39,0.024-0.777,0.034-1.157H113.388z"
			/>
		<path fill="#D9D4DB" d="M113.904,155.437c0.045,0.383,0.093,0.769,0.143,1.156h9.987c0.051-0.387,0.099-0.773,0.142-1.156H113.904
			z"/>
		<path fill="#D9D4DB" d="M122.914,162.953h-7.746c0.086,0.388,0.177,0.774,0.271,1.158h7.206
			C122.737,163.727,122.828,163.342,122.914,162.953z"/>
	</g>
	<g>
		<path fill="#A2BCC5" d="M118.967,141.557h5.577c-0.001-0.003-0.001-0.006-0.001-0.007c-0.03-0.394-0.063-0.777-0.101-1.143
			c0-0.003-0.001-0.005-0.001-0.008h-5.475L118.967,141.557L118.967,141.557z"/>
		<path fill="#A2BCC5" d="M124.695,147.918h-5.729v1.157h5.694c0.003-0.102,0.005-0.2,0.009-0.299
			C124.679,148.487,124.689,148.201,124.695,147.918z"/>
		<path fill="#A2BCC5" d="M118.967,155.437v1.156h5.067c0.05-0.38,0.096-0.761,0.141-1.137c0.001-0.009,0.001-0.014,0.002-0.02
			h-5.21V155.437z"/>
		<path fill="#A2BCC5" d="M118.967,164.111h3.678c0-0.004,0-0.006,0.002-0.009c0.093-0.381,0.182-0.765,0.267-1.149h-3.947V164.111z
			"/>
	</g>
	<g>
		<path opacity="0.5" fill="#FFFFFF" enable-background="new    " d="M113.23,117.674l-9.904-0.883l-5.89-0.526l-1.606-0.143
			l-21.419-1.91c-2.957-0.265-5.568,1.916-5.832,4.867c-0.264,2.953,1.919,5.558,4.875,5.821l28.915,2.578
			c2.957,0.265,5.568-1.914,5.832-4.865c0.064-0.733-0.021-1.442-0.229-2.1L113.23,117.674z"/>
		<path fill="#FFF3D4" d="M73.858,115.874c0,0,8.045,0.539,16.087,1.15c2.012,0.147,4.021,0.294,5.907,0.429
			c0.939,0.098,1.85,0.17,2.71,0.276c0.861,0.103,1.675,0.195,2.427,0.283c0.751,0.085,1.436,0.192,2.046,0.274
			c0.61,0.081,1.141,0.156,1.576,0.229c0.874,0.135,1.372,0.226,1.372,0.226l-0.006,0.08c0,0-0.508,0.001-1.391-0.022
			c-0.441-0.007-0.979-0.026-1.592-0.052c-0.616-0.031-1.31-0.046-2.063-0.096c-0.755-0.048-1.573-0.098-2.438-0.15
			c-0.865-0.048-1.773-0.14-2.717-0.21c-1.879-0.2-3.884-0.41-5.889-0.622c-8.021-0.821-16.037-1.714-16.037-1.714L73.858,115.874z"
			/>
		<path fill="#FFF3D4" d="M73.622,119.562c0,0,8.059-0.353,16.119-0.634c2.013-0.08,4.028-0.156,5.918-0.229
			c0.943-0.007,1.858-0.036,2.725-0.026c0.866,0.004,1.684,0.01,2.441,0.014c0.757,0.001,1.45,0.032,2.066,0.045
			c0.613,0.013,1.148,0.029,1.591,0.052c0.883,0.037,1.388,0.073,1.388,0.073l0.001,0.08c0,0-0.502,0.058-1.384,0.131
			c-0.439,0.044-0.974,0.084-1.589,0.124c-0.612,0.039-1.305,0.101-2.06,0.135c-0.755,0.037-1.572,0.079-2.438,0.121
			c-0.866,0.049-1.777,0.06-2.723,0.094c-1.892,0.01-3.907,0.021-5.923,0.032c-8.064,0.071-16.129,0.071-16.129,0.071
			L73.622,119.562z"/>
		<path fill="#FFF3D4" d="M77.328,123.271c0,0,7.113-1.29,14.237-2.508c1.78-0.311,3.562-0.624,5.231-0.914
			c0.838-0.118,1.646-0.255,2.418-0.343c0.77-0.098,1.498-0.189,2.171-0.272c0.675-0.087,1.293-0.138,1.841-0.198
			c0.549-0.059,1.027-0.104,1.424-0.13c0.789-0.07,1.242-0.093,1.242-0.093l0.012,0.079c0,0-0.438,0.117-1.211,0.291
			c-0.385,0.093-0.856,0.196-1.395,0.306c-0.541,0.111-1.147,0.254-1.812,0.374c-0.668,0.125-1.39,0.262-2.151,0.403
			c-0.763,0.15-1.574,0.267-2.408,0.409c-1.679,0.231-3.469,0.477-5.26,0.723c-7.157,1.012-14.326,1.951-14.326,1.951
			L77.328,123.271z"/>
		<path fill="#FFF3D4" d="M90.572,124.54c0,0,3.786-1.616,7.597-3.163c0.948-0.396,1.894-0.805,2.792-1.157
			c0.905-0.329,1.757-0.621,2.5-0.836c0.744-0.215,1.364-0.392,1.807-0.49c0.441-0.106,0.698-0.152,0.698-0.152l0.027,0.073
			c0,0-0.224,0.135-0.625,0.345c-0.396,0.221-0.981,0.493-1.679,0.826c-0.703,0.327-1.533,0.671-2.432,1.02
			c-0.907,0.326-1.887,0.644-2.862,0.973c-3.885,1.351-7.796,2.636-7.796,2.636L90.572,124.54z"/>
		<path fill="#FFF3D4" d="M98.608,125.061c0,0,1.72-1.713,3.488-3.37c0.439-0.416,0.863-0.853,1.286-1.232
			c0.43-0.37,0.86-0.684,1.239-0.936c0.757-0.516,1.331-0.775,1.331-0.775l0.053,0.061c0,0-0.342,0.53-0.963,1.2
			c-0.31,0.338-0.685,0.716-1.112,1.086c-0.438,0.359-0.934,0.713-1.412,1.085c-1.904,1.5-3.857,2.944-3.857,2.944L98.608,125.061z"
			/>
	</g>
	<g>
		<path opacity="0.5" fill="#FFFFFF" enable-background="new    " d="M124.948,117.674l9.904-0.883l5.89-0.526l1.607-0.143
			l21.417-1.91c2.957-0.265,5.569,1.916,5.833,4.867c0.263,2.953-1.92,5.558-4.877,5.821l-28.913,2.578
			c-2.957,0.265-5.567-1.914-5.832-4.865c-0.064-0.733,0.021-1.442,0.23-2.1L124.948,117.674z"/>
		<path fill="#FFF3D4" d="M164.32,115.874c0,0-8.045,0.539-16.088,1.15c-2.011,0.147-4.021,0.294-5.906,0.429
			c-0.941,0.098-1.851,0.17-2.71,0.276c-0.861,0.103-1.675,0.195-2.426,0.283c-0.752,0.085-1.438,0.192-2.047,0.274
			c-0.61,0.081-1.14,0.156-1.576,0.229c-0.873,0.135-1.372,0.226-1.372,0.226l0.009,0.08c0,0,0.505,0.001,1.389-0.022
			c0.44-0.007,0.979-0.026,1.592-0.052c0.614-0.031,1.308-0.046,2.062-0.096c0.755-0.048,1.573-0.098,2.438-0.15
			c0.864-0.048,1.772-0.14,2.717-0.21c1.879-0.2,3.884-0.41,5.889-0.622c8.021-0.821,16.037-1.714,16.037-1.714L164.32,115.874z"/>
		<path fill="#FFF3D4" d="M164.557,119.562c0,0-8.058-0.353-16.118-0.634c-2.015-0.08-4.03-0.156-5.918-0.229
			c-0.944-0.007-1.858-0.036-2.725-0.026c-0.867,0.004-1.685,0.01-2.44,0.014c-0.758,0.001-1.451,0.032-2.067,0.045
			c-0.612,0.013-1.148,0.029-1.592,0.052c-0.883,0.037-1.386,0.073-1.386,0.073l-0.002,0.08c0,0,0.503,0.058,1.383,0.131
			c0.439,0.044,0.976,0.084,1.589,0.124c0.613,0.039,1.305,0.101,2.059,0.135c0.757,0.037,1.574,0.079,2.439,0.121
			c0.865,0.049,1.777,0.06,2.724,0.094c1.89,0.01,3.906,0.021,5.922,0.032c8.063,0.071,16.129,0.071,16.129,0.071L164.557,119.562z"
			/>
		<path fill="#FFF3D4" d="M160.852,123.271c0,0-7.115-1.29-14.24-2.508c-1.779-0.311-3.561-0.624-5.229-0.914
			c-0.84-0.118-1.647-0.255-2.419-0.343c-0.77-0.098-1.499-0.189-2.172-0.272c-0.674-0.087-1.293-0.138-1.842-0.198
			c-0.548-0.059-1.024-0.104-1.422-0.13c-0.788-0.07-1.242-0.093-1.242-0.093l-0.012,0.079c0,0,0.438,0.117,1.212,0.291
			c0.384,0.093,0.855,0.196,1.394,0.306c0.541,0.111,1.148,0.254,1.814,0.374c0.667,0.125,1.388,0.262,2.149,0.403
			c0.763,0.15,1.574,0.267,2.408,0.409c1.68,0.231,3.471,0.477,5.26,0.723c7.157,1.012,14.326,1.951,14.326,1.951L160.852,123.271z"
			/>
		<path fill="#FFF3D4" d="M147.605,124.54c0,0-3.785-1.616-7.596-3.163c-0.948-0.396-1.894-0.805-2.792-1.157
			c-0.905-0.329-1.756-0.621-2.5-0.836c-0.745-0.215-1.364-0.392-1.807-0.49c-0.441-0.106-0.699-0.152-0.699-0.152l-0.026,0.073
			c0,0,0.223,0.135,0.625,0.345c0.396,0.221,0.982,0.493,1.681,0.826c0.7,0.327,1.531,0.671,2.43,1.02
			c0.907,0.326,1.888,0.644,2.862,0.973c3.884,1.351,7.795,2.636,7.795,2.636L147.605,124.54z"/>
		<path fill="#FFF3D4" d="M139.571,125.061c0,0-1.721-1.713-3.488-3.37c-0.44-0.416-0.862-0.853-1.286-1.232
			c-0.431-0.37-0.86-0.684-1.239-0.936c-0.757-0.516-1.332-0.775-1.332-0.775l-0.054,0.061c0,0,0.343,0.53,0.964,1.2
			c0.31,0.338,0.684,0.716,1.114,1.086c0.437,0.359,0.932,0.713,1.411,1.085c1.904,1.5,3.855,2.944,3.855,2.944L139.571,125.061z"/>
	</g>
	<path fill="#75672A" d="M111.551,112.746c-0.711-0.58-1.539-1.259-2.437-1.971c-0.89-0.722-1.856-1.467-2.817-2.221
		c-0.475-0.384-0.949-0.77-1.417-1.149c-0.462-0.386-0.924-0.756-1.387-1.092c-0.468-0.329-0.928-0.637-1.383-0.9
		c-0.45-0.274-0.882-0.52-1.29-0.735c-1.383-0.751-2.468-1.14-2.758-1.238c-0.096-0.778-0.227-1.543-0.34-2.315
		c-0.129-0.806-0.272-1.607-0.425-2.409c-0.305-1.6-0.631-3.193-0.997-4.778c-0.351-1.588-0.738-3.166-1.174-4.732
		c-0.225-0.782-0.436-1.565-0.67-2.344l-0.698-2.338l-0.206-0.688l-0.676,0.131c-0.745,0.145-1.548,0.258-2.33,0.353
		c-0.787,0.094-1.579,0.171-2.372,0.226c-1.586,0.11-3.18,0.147-4.772,0.108c-3.18-0.08-6.361-0.462-9.439-1.267
		c-3.071-0.81-6.055-2.026-8.692-3.819c-2.641-1.779-4.898-4.138-6.567-6.878l-0.15,0.086c1.568,2.827,3.764,5.321,6.394,7.251
		c2.626,1.935,5.634,3.341,8.768,4.254c3.135,0.921,6.384,1.413,9.64,1.592c1.631,0.088,3.264,0.1,4.896,0.035
		c0.815-0.032,1.631-0.08,2.447-0.15c0.577-0.05,1.151-0.113,1.73-0.188l0.397,1.722c0.179,0.793,0.382,1.58,0.573,2.369
		c0.392,1.577,0.834,3.141,1.313,4.696c0.464,1.558,0.967,3.105,1.491,4.649c0.263,0.77,0.534,1.539,0.819,2.304
		c0.287,0.745,0.557,1.493,0.866,2.231l-0.009,0.012c0,0,0.014,0.018,0.028,0.037c0.001,0.003,0.002,0.004,0.003,0.006h0.002
		c0.155,0.2,0.896,1.124,2.104,2.215c0.339,0.312,0.714,0.641,1.122,0.972c0.4,0.342,0.842,0.674,1.309,1.005
		c0.47,0.324,0.974,0.638,1.492,0.945c0.513,0.313,1.032,0.635,1.554,0.954c1.031,0.655,2.057,1.319,3.032,1.921
		c0.97,0.61,1.884,1.165,2.669,1.642c1.562,0.961,2.616,1.581,2.616,1.581l0.102-0.142
		C113.911,114.69,112.975,113.9,111.551,112.746z"/>
	<g>
		<path fill="#75672A" d="M86.083,164.267l-0.04-0.059l0.064-0.003c0.001,0,0.208-1.457,0.279-3.635
			c0.041-1.089,0.056-2.358,0.011-3.716c-0.063-1.358-0.194-2.802-0.288-4.249c-0.191-2.894-0.363-5.788-0.538-7.957
			c-0.148-1.977-0.253-3.35-0.27-3.58c0.039-0.041,0.1-0.106,0.184-0.199c0.146-0.17,0.371-0.409,0.689-0.684
			c0.151-0.148,0.328-0.295,0.53-0.449c0.2-0.155,0.404-0.334,0.649-0.497c0.472-0.343,1.026-0.704,1.646-1.072
			c2.486-1.462,6.025-3.019,9.659-4.316c0.912-0.321,1.824-0.636,2.73-0.92c0.91-0.281,1.801-0.563,2.659-0.849
			c0.854-0.299,1.68-0.59,2.454-0.89c0.779-0.293,1.512-0.575,2.186-0.848c2.707-1.065,4.48-1.939,4.48-1.939l-0.045-0.167
			c0,0-1.984,0.123-4.846,0.779c-0.716,0.161-1.488,0.351-2.297,0.577c-0.812,0.214-1.658,0.479-2.524,0.778
			c-0.864,0.304-1.744,0.657-2.63,1.033c-0.887,0.379-1.789,0.756-2.684,1.154c-1.791,0.786-3.562,1.624-5.188,2.482
			c-1.628,0.852-3.096,1.75-4.294,2.607c-0.6,0.432-1.134,0.848-1.588,1.239c-0.448,0.396-0.836,0.75-1.116,1.079
			c-0.296,0.313-0.502,0.583-0.635,0.772c-0.138,0.186-0.212,0.283-0.212,0.283l0.072,0.054c-0.001,0.229-0.008,1.605-0.019,3.587
			c-0.023,2.177,0.008,5.076,0.018,7.975c0.008,1.449-0.022,2.901,0.008,4.259c0.051,1.358,0.154,2.622,0.271,3.705
			c0.192,1.874,0.448,3.201,0.515,3.528c-0.098,0.058-1.805,1.083-4.245,2.744c-2.529,1.693-5.801,4.098-8.934,6.703
			c-0.789,0.644-1.56,1.314-2.322,1.971c-0.762,0.659-1.488,1.335-2.162,2.021c-0.662,0.698-1.282,1.396-1.823,2.098
			c-0.549,0.695-1.036,1.38-1.453,2.037c-0.425,0.651-0.761,1.285-1.049,1.847c-0.267,0.578-0.489,1.08-0.628,1.517
			c-0.159,0.424-0.234,0.778-0.291,1.013c-0.053,0.236-0.082,0.361-0.082,0.361l0.164,0.061c0,0,0.067-0.106,0.2-0.307
			c0.134-0.198,0.303-0.495,0.565-0.848c0.243-0.362,0.57-0.781,0.934-1.26c0.19-0.236,0.395-0.484,0.607-0.747
			c0.221-0.258,0.452-0.527,0.693-0.81c0.491-0.558,1.033-1.151,1.614-1.774c0.59-0.616,1.212-1.268,1.854-1.939
			c0.643-0.681,1.308-1.385,1.982-2.098c0.681-0.712,1.395-1.413,2.12-2.107c1.457-1.382,2.963-2.719,4.399-3.945
			c1.442-1.219,2.801-2.348,3.978-3.298C84.461,165.477,86.083,164.267,86.083,164.267z"/>
		<path fill="#75672A" d="M113.814,134.542c0,0-1.427,0.774-3.424,2.165c-1.001,0.692-2.152,1.531-3.319,2.516
			c-1.173,0.978-2.387,2.075-3.524,3.263c-0.569,0.593-1.124,1.204-1.651,1.826c-0.535,0.618-1.024,1.264-1.443,1.929
			c-0.417,0.664-0.769,1.346-1.043,2.016c-0.144,0.333-0.251,0.674-0.373,0.992c-0.108,0.322-0.178,0.65-0.264,0.954
			c-0.092,0.303-0.119,0.614-0.172,0.896c-0.052,0.283-0.076,0.558-0.088,0.817c-0.049,0.514-0.011,0.965,0.009,1.331
			c0.026,0.363,0.096,0.649,0.129,0.841c0.04,0.189,0.061,0.291,0.061,0.291l0.072-0.003c0.128,0.388,0.543,1.664,1.091,3.441
			c0.649,2.147,1.545,5.001,2.335,7.879c0.188,0.722,0.377,1.443,0.562,2.153c0.161,0.716,0.354,1.412,0.517,2.088
			c0.17,0.674,0.361,1.321,0.532,1.935c0.157,0.615,0.345,1.193,0.478,1.729c0.126,0.537,0.291,1.028,0.38,1.466
			c0.103,0.439,0.192,0.823,0.267,1.14c0.066,0.449,0.121,0.767,0.15,0.913c-0.292,0.196-1.896,1.291-4.002,3.067
			c-0.586,0.487-1.208,1.026-1.857,1.608c-0.658,0.574-1.325,1.204-2.006,1.866c-0.675,0.669-1.354,1.379-2.032,2.108
			c-0.689,0.724-1.385,1.459-2.083,2.194c-2.806,2.927-5.631,5.834-7.708,8.055c-2.083,2.218-3.473,3.694-3.473,3.694l0.122,0.124
			c0,0,1.512-1.352,3.782-3.377c2.274-2.02,5.253-4.771,8.247-7.503c0.755-0.678,1.508-1.357,2.249-2.026
			c0.748-0.66,1.476-1.32,2.16-1.979c0.679-0.663,1.325-1.314,1.915-1.958c0.599-0.632,1.153-1.241,1.655-1.815
			c2.023-2.277,3.201-3.97,3.201-3.97l-0.032-0.033c0.018-0.114,0.066-0.456,0.117-0.999c0.024-0.335,0.007-0.737-0.001-1.205
			c-0.01-0.47-0.081-0.981-0.142-1.551c-0.06-0.569-0.182-1.168-0.297-1.809c-0.113-0.641-0.286-1.301-0.457-1.985
			c-0.382-1.361-0.88-2.78-1.359-4.203c-0.486-1.42-0.984-2.834-1.469-4.154c-0.479-1.321-0.955-2.544-1.371-3.588
			c-0.696-1.764-1.211-3.013-1.358-3.363c0.012-0.046,0.03-0.123,0.059-0.233c0.051-0.186,0.091-0.456,0.188-0.793
			c0.105-0.334,0.194-0.737,0.366-1.184c0.141-0.451,0.357-0.939,0.582-1.469c0.24-0.525,0.518-1.082,0.835-1.661
			c0.33-0.572,0.674-1.177,1.063-1.789c0.375-0.619,0.772-1.26,1.204-1.9c0.423-0.646,0.906-1.268,1.396-1.89
			c1.998-2.456,4.362-4.634,6.181-6.208c1.83-1.562,3.138-2.507,3.138-2.507L113.814,134.542z"/>
	</g>
	<path fill="#75672A" d="M179.837,72.691c-1.671,2.74-3.927,5.099-6.567,6.878c-2.638,1.793-5.621,3.011-8.692,3.819
		c-3.078,0.805-6.26,1.186-9.44,1.267c-1.593,0.039-3.186,0.002-4.772-0.108c-0.793-0.055-1.585-0.132-2.372-0.226
		c-0.782-0.096-1.585-0.209-2.33-0.353l-0.676-0.131l-0.206,0.688l-0.698,2.338c-0.234,0.778-0.445,1.561-0.67,2.344
		c-0.436,1.565-0.823,3.143-1.174,4.732c-0.366,1.584-0.692,3.178-0.997,4.778c-0.152,0.802-0.296,1.603-0.424,2.409
		c-0.114,0.772-0.245,1.537-0.341,2.315c-0.29,0.099-1.375,0.487-2.758,1.238c-0.407,0.216-0.84,0.461-1.29,0.735
		c-0.455,0.265-0.915,0.571-1.383,0.9c-0.463,0.336-0.925,0.706-1.387,1.092c-0.468,0.38-0.942,0.766-1.417,1.149
		c-0.961,0.754-1.928,1.499-2.817,2.221c-0.897,0.712-1.726,1.391-2.436,1.971c-1.424,1.154-2.36,1.943-2.36,1.943l0.101,0.142
		c0,0,1.055-0.62,2.616-1.581c0.785-0.477,1.699-1.031,2.669-1.642c0.976-0.602,2.001-1.266,3.032-1.921
		c0.521-0.319,1.041-0.641,1.554-0.954c0.519-0.308,1.022-0.621,1.492-0.945c0.467-0.331,0.908-0.663,1.309-1.005
		c0.408-0.331,0.783-0.659,1.122-0.972c1.208-1.091,1.948-2.015,2.104-2.215h0.002c0.001-0.002,0.002-0.003,0.003-0.006
		c0.015-0.02,0.028-0.037,0.028-0.037l-0.009-0.012c0.311-0.738,0.579-1.486,0.866-2.231c0.285-0.765,0.557-1.533,0.819-2.304
		c0.524-1.544,1.027-3.092,1.491-4.649c0.479-1.554,0.921-3.118,1.313-4.696c0.191-0.789,0.395-1.576,0.573-2.369l0.396-1.722
		c0.579,0.075,1.153,0.139,1.73,0.188c0.816,0.07,1.632,0.118,2.447,0.15c1.632,0.064,3.265,0.053,4.895-0.035
		c3.256-0.18,6.505-0.671,9.64-1.592c3.135-0.913,6.142-2.32,8.768-4.254c2.63-1.931,4.825-4.424,6.394-7.251L179.837,72.691z"/>
	<path fill="#D9D4DB" d="M186.248,39.893c0.543-0.048,0.972-0.488,0.972-1.041v-3.309h1.808v-2.116h-1.808v-3.095
		c0-0.585-0.475-1.059-1.061-1.059H50.539c-0.586,0-1.061,0.474-1.061,1.059v3.095H47.67v2.116h1.808v3.309
		c0,0.554,0.431,0.994,0.974,1.041c-3.346,2.341-5.562,6.372-5.562,10.96l5.181,160.786c0,7.209,5.511,13.075,12.283,13.075h111.993
		c6.772,0,12.283-5.866,12.283-13.044l5.181-160.848C191.811,46.254,189.593,42.231,186.248,39.893z M51.598,31.389h133.501v2.036
		H51.598V31.389z M185.1,35.542v2.251h-4.71c-0.286-0.021-0.571-0.046-0.862-0.046H57.172c-0.291,0-0.576,0.024-0.862,0.046h-4.711
		v-2.251H185.1z M183.448,211.639c0,5.459-4.084,9.9-9.102,9.9H62.352c-5.019,0-9.102-4.44-9.102-9.93L48.069,50.823
		c0-5.459,4.084-9.9,9.102-9.9h122.356c5.018,0,9.102,4.44,9.102,9.869L183.448,211.639z"/>
	<g opacity="0.3">
		<path fill="#F4F4F4" d="M172.566,224.549h-17.001l4-163.711c0-13.413-7.139-19.565-7.884-19.882l-0.067-11.514h18.247v11.427
			c3.851,2.634,6.705,5.417,6.705,19.969L172.566,224.549z"/>
	</g>
	<g opacity="0.3">
		<path fill="#F4F4F4" d="M150.288,224.699l-5.11,0.048c0.045-1.524,4.545-153.266,4.545-164.825c0-10.426-7.26-18.15-7.333-18.21
			l-0.917-0.749V29.725h5v11.192c2.333,2.278,8.25,8.533,8.25,19.004C154.723,71.555,150.472,218.471,150.288,224.699z"/>
	</g>
	<g opacity="0.3">
		<path fill="#F4F4F4" d="M69.902,224.699l5.11,0.048c-0.044-1.525-4.544-153.267-4.544-164.826c0-10.426,7.26-18.15,7.333-18.21
			l0.917-0.749V29.725h-5v11.192c-2.333,2.278-8.25,8.533-8.25,19.004C65.468,71.555,69.719,218.471,69.902,224.699z"/>
	</g>
	<path fill="#E8921F" d="M187.589,21.304v-5.832c0-0.806-1.143-1.457-2.555-1.457H51.664c-1.411,0-2.554,0.652-2.554,1.457v5.832
		c0,0.695,0.851,1.273,1.99,1.419c-1.139,0.147-1.99,0.725-1.99,1.42v3.868c0,0.807,138.48,0.981,138.48,0.981v-4.85
		c0-0.696-0.852-1.273-1.99-1.42C186.736,22.576,187.589,21.999,187.589,21.304z"/>
	<g>
		<path fill="#F8A01C" d="M186.611,24.717H50.086c-1.445,0-2.615,0.18-2.615,0.401v1.608c0,0.222,1.17,0.401,2.615,0.401h136.526
			c1.446,0,2.617-0.181,2.617-0.401v-1.608C189.229,24.895,188.058,24.717,186.611,24.717z"/>
		<path fill="#D17F1E" d="M186.611,26.973H50.086c-1.445,0-2.615,0.18-2.615,0.401v1.607c0,0.223,1.17,0.402,2.615,0.402h136.526
			c1.446,0,2.617-0.181,2.617-0.402v-1.607C189.229,27.152,188.058,26.973,186.611,26.973z"/>
	</g>
	<path fill="#FFB048" d="M185.162,13.675H51.669c-1.414,0-2.558,0.178-2.558,0.4v1.608c0,0.222,1.144,0.4,2.558,0.4h133.493
		c1.414,0,2.559-0.18,2.559-0.4v-1.608C187.722,13.853,186.576,13.675,185.162,13.675z"/>
	<g>
		<path fill="#FFB048" d="M50.858,21.463c-0.272,0-0.492-0.219-0.492-0.49v-3.657c0-0.272,0.22-0.491,0.492-0.491
			c0.271,0,0.491,0.22,0.491,0.491v3.657C51.349,21.245,51.129,21.463,50.858,21.463z"/>
	</g>
	<g>
		<path fill="#FFB048" d="M54.413,21.463c-0.273,0-0.492-0.219-0.492-0.49v-3.657c0-0.272,0.22-0.491,0.492-0.491
			c0.27,0,0.491,0.22,0.491,0.491v3.657C54.904,21.245,54.683,21.463,54.413,21.463z"/>
	</g>
	<g>
		<path fill="#FFB048" d="M57.968,21.463c-0.272,0-0.492-0.219-0.492-0.49v-3.657c0-0.272,0.22-0.491,0.492-0.491
			c0.271,0,0.491,0.22,0.491,0.491v3.657C58.459,21.245,58.238,21.463,57.968,21.463z"/>
	</g>
	<g>
		<path fill="#FFB048" d="M61.522,21.463c-0.272,0-0.492-0.219-0.492-0.49v-3.657c0-0.272,0.22-0.491,0.492-0.491
			c0.271,0,0.491,0.22,0.491,0.491v3.657C62.014,21.245,61.793,21.463,61.522,21.463z"/>
	</g>
	<g>
		<path fill="#FFB048" d="M65.078,21.463c-0.272,0-0.492-0.219-0.492-0.49v-3.657c0-0.272,0.22-0.491,0.492-0.491
			c0.271,0,0.491,0.22,0.491,0.491v3.657C65.569,21.245,65.349,21.463,65.078,21.463z"/>
	</g>
	<g>
		<path fill="#FFB048" d="M68.633,21.463c-0.272,0-0.492-0.219-0.492-0.49v-3.657c0-0.272,0.22-0.491,0.492-0.491
			c0.271,0,0.491,0.22,0.491,0.491v3.657C69.124,21.245,68.903,21.463,68.633,21.463z"/>
	</g>
	<g>
		<path fill="#FFB048" d="M72.187,21.463c-0.272,0-0.492-0.219-0.492-0.49v-3.657c0-0.272,0.22-0.491,0.492-0.491
			c0.271,0,0.491,0.22,0.491,0.491v3.657C72.679,21.245,72.458,21.463,72.187,21.463z"/>
	</g>
	<g>
		<path fill="#FFB048" d="M75.742,21.463c-0.272,0-0.492-0.219-0.492-0.49v-3.657c0-0.272,0.22-0.491,0.492-0.491
			c0.271,0,0.491,0.22,0.491,0.491v3.657C76.233,21.245,76.013,21.463,75.742,21.463z"/>
	</g>
	<g>
		<path fill="#FFB048" d="M79.297,21.463c-0.272,0-0.492-0.219-0.492-0.49v-3.657c0-0.272,0.22-0.491,0.492-0.491
			c0.271,0,0.491,0.22,0.491,0.491v3.657C79.788,21.245,79.567,21.463,79.297,21.463z"/>
	</g>
	<g>
		<path fill="#FFB048" d="M82.852,21.463c-0.272,0-0.492-0.219-0.492-0.49v-3.657c0-0.272,0.22-0.491,0.492-0.491
			c0.271,0,0.491,0.22,0.491,0.491v3.657C83.343,21.245,83.122,21.463,82.852,21.463z"/>
	</g>
	<g>
		<path fill="#FFB048" d="M86.407,21.463c-0.273,0-0.492-0.219-0.492-0.49v-3.657c0-0.272,0.22-0.491,0.492-0.491
			c0.27,0,0.491,0.22,0.491,0.491v3.657C86.898,21.245,86.678,21.463,86.407,21.463z"/>
	</g>
	<g>
		<path fill="#FFB048" d="M89.962,21.463c-0.272,0-0.492-0.219-0.492-0.49v-3.657c0-0.272,0.22-0.491,0.492-0.491
			c0.271,0,0.491,0.22,0.491,0.491v3.657C90.453,21.245,90.232,21.463,89.962,21.463z"/>
	</g>
	<g>
		<path fill="#FFB048" d="M93.517,21.463c-0.273,0-0.492-0.219-0.492-0.49v-3.657c0-0.272,0.22-0.491,0.492-0.491
			c0.271,0,0.491,0.22,0.491,0.491v3.657C94.008,21.245,93.787,21.463,93.517,21.463z"/>
	</g>
	<g>
		<path fill="#FFB048" d="M97.071,21.463c-0.272,0-0.492-0.219-0.492-0.49v-3.657c0-0.272,0.22-0.491,0.492-0.491
			c0.27,0,0.491,0.22,0.491,0.491v3.657C97.562,21.245,97.342,21.463,97.071,21.463z"/>
	</g>
	<g>
		<path fill="#FFB048" d="M100.626,21.463c-0.272,0-0.492-0.219-0.492-0.49v-3.657c0-0.272,0.22-0.491,0.492-0.491
			c0.271,0,0.491,0.22,0.491,0.491v3.657C101.117,21.245,100.896,21.463,100.626,21.463z"/>
	</g>
	<g>
		<path fill="#FFB048" d="M104.181,21.463c-0.272,0-0.492-0.219-0.492-0.49v-3.657c0-0.272,0.22-0.491,0.492-0.491
			c0.271,0,0.491,0.22,0.491,0.491v3.657C104.672,21.245,104.451,21.463,104.181,21.463z"/>
	</g>
	<g>
		<path fill="#FFB048" d="M107.736,21.463c-0.272,0-0.492-0.219-0.492-0.49v-3.657c0-0.272,0.22-0.491,0.492-0.491
			c0.271,0,0.491,0.22,0.491,0.491v3.657C108.228,21.245,108.007,21.463,107.736,21.463z"/>
	</g>
	<g>
		<path fill="#FFB048" d="M111.291,21.463c-0.273,0-0.492-0.219-0.492-0.49v-3.657c0-0.272,0.22-0.491,0.492-0.491
			c0.271,0,0.491,0.22,0.491,0.491v3.657C111.782,21.245,111.562,21.463,111.291,21.463z"/>
	</g>
	<g>
		<path fill="#FFB048" d="M114.846,21.463c-0.272,0-0.492-0.219-0.492-0.49v-3.657c0-0.272,0.22-0.491,0.492-0.491
			c0.271,0,0.491,0.22,0.491,0.491v3.657C115.337,21.245,115.116,21.463,114.846,21.463z"/>
	</g>
	<g>
		<path fill="#FFB048" d="M118.4,21.463c-0.272,0-0.492-0.219-0.492-0.49v-3.657c0-0.272,0.22-0.491,0.492-0.491
			c0.271,0,0.491,0.22,0.491,0.491v3.657C118.892,21.245,118.671,21.463,118.4,21.463z"/>
	</g>
	<g>
		<path fill="#FFB048" d="M121.955,21.463c-0.272,0-0.492-0.219-0.492-0.49v-3.657c0-0.272,0.22-0.491,0.492-0.491
			c0.271,0,0.491,0.22,0.491,0.491v3.657C122.446,21.245,122.226,21.463,121.955,21.463z"/>
	</g>
	<g>
		<path fill="#FFB048" d="M125.51,21.463c-0.272,0-0.492-0.219-0.492-0.49v-3.657c0-0.272,0.22-0.491,0.492-0.491
			c0.271,0,0.491,0.22,0.491,0.491v3.657C126.001,21.245,125.78,21.463,125.51,21.463z"/>
	</g>
	<g>
		<path fill="#FFB048" d="M129.065,21.463c-0.272,0-0.492-0.219-0.492-0.49v-3.657c0-0.272,0.22-0.491,0.492-0.491
			c0.271,0,0.491,0.22,0.491,0.491v3.657C129.557,21.245,129.336,21.463,129.065,21.463z"/>
	</g>
	<g>
		<path fill="#FFB048" d="M132.62,21.463c-0.272,0-0.492-0.219-0.492-0.49v-3.657c0-0.272,0.22-0.491,0.492-0.491
			c0.271,0,0.491,0.22,0.491,0.491v3.657C133.111,21.245,132.891,21.463,132.62,21.463z"/>
	</g>
	<g>
		<path fill="#FFB048" d="M136.175,21.463c-0.273,0-0.492-0.219-0.492-0.49v-3.657c0-0.272,0.22-0.491,0.492-0.491
			c0.27,0,0.491,0.22,0.491,0.491v3.657C136.666,21.245,136.445,21.463,136.175,21.463z"/>
	</g>
	<g>
		<path fill="#FFB048" d="M139.73,21.463c-0.273,0-0.492-0.219-0.492-0.49v-3.657c0-0.272,0.22-0.491,0.492-0.491
			c0.27,0,0.491,0.22,0.491,0.491v3.657C140.221,21.245,140,21.463,139.73,21.463z"/>
	</g>
	<g>
		<path fill="#FFB048" d="M143.284,21.463c-0.273,0-0.492-0.219-0.492-0.49v-3.657c0-0.272,0.22-0.491,0.492-0.491
			c0.27,0,0.491,0.22,0.491,0.491v3.657C143.775,21.245,143.555,21.463,143.284,21.463z"/>
	</g>
	<g>
		<path fill="#FFB048" d="M146.839,21.463c-0.272,0-0.492-0.219-0.492-0.49v-3.657c0-0.272,0.22-0.491,0.492-0.491
			c0.271,0,0.491,0.22,0.491,0.491v3.657C147.33,21.245,147.109,21.463,146.839,21.463z"/>
	</g>
	<g>
		<path fill="#FFB048" d="M150.395,21.463c-0.272,0-0.492-0.219-0.492-0.49v-3.657c0-0.272,0.22-0.491,0.492-0.491
			c0.271,0,0.491,0.22,0.491,0.491v3.657C150.886,21.245,150.665,21.463,150.395,21.463z"/>
	</g>
	<g>
		<path fill="#FFB048" d="M153.949,21.463c-0.272,0-0.492-0.219-0.492-0.49v-3.657c0-0.272,0.22-0.491,0.492-0.491
			c0.27,0,0.491,0.22,0.491,0.491v3.657C154.44,21.245,154.22,21.463,153.949,21.463z"/>
	</g>
	<g>
		<path fill="#FFB048" d="M157.504,21.463c-0.272,0-0.492-0.219-0.492-0.49v-3.657c0-0.272,0.22-0.491,0.492-0.491
			c0.271,0,0.491,0.22,0.491,0.491v3.657C157.995,21.245,157.774,21.463,157.504,21.463z"/>
	</g>
	<g>
		<path fill="#FFB048" d="M161.059,21.463c-0.272,0-0.492-0.219-0.492-0.49v-3.657c0-0.272,0.22-0.491,0.492-0.491
			c0.271,0,0.491,0.22,0.491,0.491v3.657C161.55,21.245,161.329,21.463,161.059,21.463z"/>
	</g>
	<g>
		<path fill="#FFB048" d="M164.613,21.463c-0.273,0-0.492-0.219-0.492-0.49v-3.657c0-0.272,0.22-0.491,0.492-0.491
			c0.27,0,0.491,0.22,0.491,0.491v3.657C165.104,21.245,164.884,21.463,164.613,21.463z"/>
	</g>
	<g>
		<path fill="#FFB048" d="M168.168,21.463c-0.273,0-0.492-0.219-0.492-0.49v-3.657c0-0.272,0.22-0.491,0.492-0.491
			c0.27,0,0.491,0.22,0.491,0.491v3.657C168.66,21.245,168.438,21.463,168.168,21.463z"/>
	</g>
	<g>
		<path fill="#FFB048" d="M171.724,21.463c-0.272,0-0.492-0.219-0.492-0.49v-3.657c0-0.272,0.22-0.491,0.492-0.491
			c0.271,0,0.491,0.22,0.491,0.491v3.657C172.215,21.245,171.994,21.463,171.724,21.463z"/>
	</g>
	<g>
		<path fill="#FFB048" d="M175.278,21.463c-0.272,0-0.492-0.219-0.492-0.49v-3.657c0-0.272,0.22-0.491,0.492-0.491
			c0.271,0,0.491,0.22,0.491,0.491v3.657C175.77,21.245,175.549,21.463,175.278,21.463z"/>
	</g>
	<g>
		<path fill="#FFB048" d="M178.833,21.463c-0.272,0-0.492-0.219-0.492-0.49v-3.657c0-0.272,0.22-0.491,0.492-0.491
			c0.271,0,0.491,0.22,0.491,0.491v3.657C179.324,21.245,179.104,21.463,178.833,21.463z"/>
	</g>
	<g>
		<path fill="#FFB048" d="M182.388,21.463c-0.272,0-0.492-0.219-0.492-0.49v-3.657c0-0.272,0.22-0.491,0.492-0.491
			c0.271,0,0.491,0.22,0.491,0.491v3.657C182.879,21.245,182.658,21.463,182.388,21.463z"/>
	</g>
	<g>
		<path fill="#FFB048" d="M185.942,21.463c-0.272,0-0.492-0.219-0.492-0.49v-3.657c0-0.272,0.22-0.491,0.492-0.491
			c0.271,0,0.491,0.22,0.491,0.491v3.657C186.434,21.245,186.213,21.463,185.942,21.463z"/>
	</g>
	<g>
		<rect x="141.52" y="13.714" opacity="0.3" fill="#F4F4F4" enable-background="new    " width="20.08" height="15.618"/>
		<path opacity="0.3" fill="#F4F4F4" enable-background="new    " d="M136.958,13.714h-5.475v15.612c0,0,4.381,0.003,5.475,0.003
			C136.958,29.365,136.958,13.714,136.958,13.714z"/>
	</g>
	<path opacity="0.3" fill="#F4F4F4" enable-background="new    " d="M75.373,13.737h-5.475V29.35c0,0,4.381,0.003,5.475,0.003
		C75.373,29.386,75.373,13.737,75.373,13.737z"/>
</g>
</svg>
