<?xml version="1.0" encoding="utf-8"?>
<!-- Generator: Adobe Illustrator 17.0.0, SVG Export Plug-In . SVG Version: 6.00 Build 0)  -->
<!DOCTYPE svg PUBLIC "-//W3C//DTD SVG 1.1//EN" "http://www.w3.org/Graphics/SVG/1.1/DTD/svg11.dtd">
<svg version="1.1" id="Layer_1" xmlns="http://www.w3.org/2000/svg" xmlns:xlink="http://www.w3.org/1999/xlink" x="0px" y="0px"
	 width="232px" height="232px" viewBox="0.205 0.205 232 232" enable-background="new 0.205 0.205 232 232" xml:space="preserve">
<g id="_x31_._Pasteurization">
	<rect x="0.205" y="0.205" fill="#0E7AC4" width="231.998" height="232"/>
	<g>
		<g>
			<path fill="#1392D8" d="M48.042,84.565c1.36-2.7,1.549-5.366-0.189-7.987c-0.745-1.122-1.687-1.984-3.031-2.346
				c-1.786-0.481-3.495-0.134-5.161,0.497c-1.013,0.381-1.876,1.001-2.337,2.022c-0.361,0.798-0.722,1.607-0.969,2.444
				c-0.42,1.419-1.054,2.661-2.262,3.594c-0.503,0.389-0.941,0.884-1.337,1.39c-0.915,1.164-0.894,2.292-0.001,3.477
				c0.293,0.39,0.658,0.753,0.85,1.189c0.203,0.455,0.339,0.987,0.326,1.479c-0.027,0.902-0.707,1.484-1.258,2.118
				c-1.102,1.273-1.937,2.606-1.172,4.399c0.373,0.872,1.167,1.471,2.131,1.446c0.859-0.022,1.722-0.098,2.577-0.054
				c0.375,0.02,0.781,0.217,1.099,0.441c0.946,0.672,1.02,1.66,0.958,2.725c-0.129,2.191-0.283,4.414,1.728,6.003
				c1.844,0,3.685,0,5.529,0c0.584-0.624,1.156-1.256,1.755-1.862c0.391-0.395,0.764-0.912,1.248-1.09
				c0.85-0.308,1.774-0.483,2.678-0.557c1.847-0.15,2.985-1.21,3.021-3.048c0.052-2.628-1.292-4.583-3.163-6.25
				c-0.871-0.777-1.809-1.482-2.658-2.282c-1.568-1.479-2.187-3.269-1.459-5.366C47.23,86.126,47.647,85.346,48.042,84.565z"/>
			<path fill="#1392D8" d="M66.306,63.8c1.83-0.559,3.641-0.164,5.426,0.38c0.981,0.298,2.005,0.484,3.009,0.163
				c3.164-1.017,5.161-3.644,4.736-7.209c-0.166-1.375-0.767-2.526-2.097-3.104c-0.907-0.394-1.857-0.722-2.817-0.952
				c-1.252-0.303-2.548-0.419-3.797-0.728c-1.797-0.446-3.008-1.951-2.88-3.576c0.123-1.537-0.375-2.799-1.446-3.863
				c-0.791-0.785-1.61-1.538-2.395-2.328c-0.574-0.58-0.958-1.285-0.749-2.111c0.161-0.635,0.484-1.229,0.742-1.838
				c0.25-0.591,0.568-1.161,0.743-1.774c0.409-1.432-0.418-2.711-1.861-3.075c-0.837-0.212-1.655-0.125-2.433,0.12
				c-2.325,0.734-4.492,0.683-6.715-0.541c-2.162-1.189-4.205-0.699-5.941,1.027c-0.989,0.982-1.21,2.231-0.586,3.485
				c0.349,0.699,0.782,1.356,1.093,2.07c0.547,1.252,0.497,2.846-0.756,3.759c-0.551,0.402-1.135,0.761-1.704,1.142
				c-1.48,0.992-2.663,2.177-3.153,3.989c-0.542,2.003-0.138,3.868,0.571,5.714c0.163,0.421,0.453,0.836,0.785,1.149
				c1.166,1.096,2.594,1.466,4.177,1.271c0.559,0.078,1.149,0.065,1.669,0.248c1.388,0.489,2.327,2.089,2.125,3.552
				c-0.084,0.631-0.23,1.262-0.414,1.874c-0.278,0.927-0.472,1.859-0.317,2.824c0.116,0.72,0.432,1.366,1.038,1.772
				c1.267,0.849,2.675,1.097,4.145,0.683c0.842-0.239,1.658-0.575,2.46-0.925c1.271-0.555,2.514-1.176,3.782-1.736
				C63.921,64.743,65.085,64.175,66.306,63.8z"/>
			<path fill="#1392D8" d="M18.892,51.742c0.434-1.433,0.142-2.416-1.001-3.324c-0.906-0.718-2.045-0.736-3.245-0.049
				c-0.237,0.139-0.474,0.28-0.696,0.439c-1.366,0.989-2.859,1.241-4.508,0.888c-1.885-0.405-3.25,0.364-3.724,2.127
				c-0.19,0.702-0.285,1.477-0.2,2.193c0.133,1.095,0.418,2.181,0.715,3.25c0.584,2.097,0.297,2.973-1.484,4.203
				c-0.016,0.011-0.033,0.02-0.05,0.032c-1.938,1.446-3.475,3.13-3.632,5.72c-0.121,1.991,0.36,3.9,2.487,4.814
				c1.722,0.743,3.008,2.002,3.729,3.784c0.631,1.556,1.876,2.389,3.462,2.791c2.308,0.588,4.293,0.094,5.912-1.701
				c1.385-1.533,3.007-1.987,5.035-1.338c1.298,0.416,2.673,0.297,3.714-0.758c0.484-0.491,0.886-1.102,1.192-1.726
				c0.649-1.327,1.624-2.272,2.968-2.866c0.68-0.297,1.352-0.61,2.024-0.925c1.591-0.747,2.613-2.507,2.466-4.234
				c-0.03-1.282-0.681-2.234-1.592-3.074c-0.741-0.684-1.572-1.297-1.933-2.31c-0.286-0.807-0.586-1.613-0.949-2.388
				c-0.477-1.017-1.213-1.84-2.409-1.888c-0.735-0.031-1.518,0.122-2.217,0.368c-0.99,0.349-1.921,0.867-2.882,1.3
				c-0.966,0.434-1.871,0.291-2.686-0.367c-0.941-0.765-1.218-1.801-1.046-2.94C18.447,53.079,18.691,52.41,18.892,51.742z"/>
			<path fill="#1392D8" d="M75.432,2.708c-1.858,0.358-3.473,1.223-4.642,2.743c-1.22,1.584-1.79,3.42-1.729,5.411
				c0.066,2.112,1.677,3.647,3.665,3.289c0.595-0.109,1.193-0.216,1.796-0.26c1.045-0.078,1.488,0.252,1.872,1.218
				c0.39,0.977,0.602,1.976,0.454,3.151c0.03,0.386,0.002,0.906,0.118,1.393c0.183,0.749,0.557,1.329,1.437,1.496
				c0.955,0.181,1.8-0.04,2.567-0.536c1.082-0.699,2.084-1.522,3.182-2.193c0.928-0.564,1.914-1.06,2.927-1.45
				c1.568-0.603,3.183-0.44,4.799-0.095c0.561,0.122,1.182,0.218,1.732,0.108c1.509-0.299,2.682-1.222,3.505-2.463
				c1.179-1.779,2.773-2.907,4.762-3.584c0.894-0.306,1.696-0.801,2.295-1.558c0.795-1.008,0.795-2.118,0.534-3.328
				c-0.381-1.793-1.053-3.29-2.934-3.988c-0.751-0.28-1.351-0.803-1.86-1.468c-0.102-0.133-0.211-0.247-0.317-0.369H77.702
				C77.487,1.389,76.524,2.496,75.432,2.708z"/>
			<path fill="#1392D8" d="M223.6,117.134c0.004,1.562,0.945,2.551,2.176,3.305c0.33,0.203,0.776,0.268,1.174,0.298
				c1.607,0.122,2.922-0.577,4.115-1.559c0.371-0.304,0.75-0.564,1.14-0.773v-13.978c-0.932,0.264-1.887,0.372-2.878,0.111
				c-1.152-0.302-2.277-0.71-3.435-0.976c-0.982-0.228-2-0.466-2.996-0.437c-2.124,0.059-3.663,1.24-4.813,2.943
				c-0.458,0.677-0.737,1.492-0.478,2.273c0.253,0.768,0.725,1.487,1.527,1.853c0.799,0.362,1.621,0.676,2.42,1.033
				c1.595,0.712,2.292,1.893,2.145,3.515C223.624,115.535,223.599,116.337,223.6,117.134z"/>
			<path fill="#1392D8" d="M106.864,70.539c1.207,0.434,2.527,0.599,3.659-0.26c0.58-0.439,1.054-1.033,1.536-1.591
				c1.118-1.3,1.918-2.749,1.562-4.529c-0.435-2.174-1.184-3.111-3.165-3.473c-0.801-0.147-1.598-0.327-2.388-0.536
				c-1.335-0.354-2.28-1.174-2.735-2.486c-0.242-0.702-0.37-1.438-0.628-2.131c-0.352-0.947-0.753-1.857-1.767-2.364
				c-1.045-0.521-2.141-0.707-3.281-0.749c-0.234,0-0.477-0.039-0.703,0.007c-2.893,0.573-5.609,1.549-7.943,3.427
				c-1.213,0.975-1.822,2.167-1.508,3.734c0.208,1.033,0.879,1.739,1.676,2.385c0.972,0.792,1.692,1.746,1.53,3.111
				c-0.051,0.426-0.089,0.854-0.138,1.28c-0.411,3.683,3.029,5.653,5.325,5.795c1.637,0.101,3.061-0.488,4.496-1.137
				C103.817,70.377,105.251,69.958,106.864,70.539z"/>
			<path fill="#1392D8" d="M25.521,90.021c0.083-2.549-1.281-4.636-3.654-5.689c-1.754-0.776-3.528-0.946-5.091,0.291
				c-1.265,1-2.607,1.446-4.117,1.341c-0.901,0.04-1.752,0.009-2.577,0.131c-1.017,0.15-2.078,0.28-3.011,0.678
				c-2.805,1.197-4.17,3.368-3.62,6.391c0.422,2.328,1.818,3.903,4.275,4.057c0.966,0.061,1.954-0.071,2.919-0.208
				c2.262-0.32,4.151,0.209,5.481,2.183c0.938,1.394,1.926,2.726,3.127,3.93c1.874,1.875,4.789,0.856,5.929-0.693
				c1.29-1.749,1.32-3.768,0.525-5.745c-0.666-1.66-0.727-3.326-0.415-5.045C25.389,91.106,25.505,90.565,25.521,90.021z"/>
			<path fill="#1392D8" d="M221.574,38.828c-0.285,0.986-0.603,2.003-0.624,3.016c-0.068,3.039,1.352,5.176,4.34,5.926
				c2.302,0.576,4.314-0.039,5.472-2.208c0.454-0.85,0.741-1.803,1.015-2.734c0.118-0.4,0.265-0.768,0.426-1.119V26.819
				c-0.217-0.14-0.435-0.275-0.665-0.388c-2.295-1.127-4.765-0.751-6.706,0.969c-1.434,1.271-2.323,2.811-1.837,4.742
				c0.39,1.561,0.245,2.965-0.476,4.292C222.183,37.27,221.804,38.028,221.574,38.828z"/>
			<path fill="#1392D8" d="M95.221,34.956c1.37-0.423,2.271-1.708,2.149-2.881c-0.134-1.274-0.818-2.185-2.023-2.637
				c-1.04-0.391-1.827-1.074-2.593-1.851c-0.432-0.437-1.027-0.829-1.614-0.974c-1.688-0.419-3.078,0.251-4.16,1.52
				c-0.73,0.857-1.589,1.228-2.711,1.238c-1.799,0.015-3.411-0.622-5.036-1.246c-1.657-0.636-3.317-0.805-4.793,0.336
				c-1.677,1.296-2.449,3.681-0.198,5.466c0.914,0.727,1.566,1.691,2.014,2.769c0.457,1.098,0.778,2.263,1.332,3.307
				c0.96,1.818,2.511,2.854,4.625,2.883c0.679,0.008,1.361-0.079,2.038-0.141c1.533-0.144,1.927,0.109,2.355,1.553
				c0.431,1.449,1.099,1.975,2.832,2.056c0.64-0.036,1.432-0.272,2.09-0.848c1.115-0.981,1.575-2.254,1.594-3.705
				c0.017-1.366-0.066-2.738,0.035-4.098C93.254,36.409,93.813,35.392,95.221,34.956z"/>
			<path fill="#1392D8" d="M0.206,8.884C0.518,8.9,0.838,8.892,1.166,8.858C2.528,8.714,3.885,8.47,5.252,8.411
				C6.554,8.355,7.632,8.79,8.23,10.132c0.583,1.308,1.969,2.05,3.121,1.79c1.255-0.282,2.08-1.064,2.391-2.311
				c0.269-1.075,0.855-1.936,1.54-2.785c0.384-0.479,0.704-1.113,0.781-1.712c0.221-1.72-0.609-3.017-2.001-3.939
				c-0.413-0.275-0.723-0.594-0.966-0.95H0.206V8.884z"/>
			<path fill="#1392D8" d="M27.709,0.658c-0.987,2.336-2.804,3.665-5.202,4.331c-0.956,0.266-1.901,0.588-2.82,0.965
				c-0.418,0.171-0.837,0.468-1.122,0.819c-0.898,1.099-1.318,2.371-1.188,3.81c0.064,0.729,0.34,1.318,0.808,1.892
				c0.852,1.048,2.02,1.503,3.226,1.915c1.067,0.363,2.083,0.796,2.815,1.708c0.439,0.548,0.878,1.098,1.334,1.634
				c2.384,2.805,6.665,2.411,8.606-0.399c0.453-0.654,0.803-1.38,1.241-2.045c0.244-0.368,0.536-0.73,0.88-1.002
				c0.53-0.424,1.121-0.78,1.696-1.147c1.186-0.756,1.968-1.758,2.049-3.243c-0.167-1.91-1.077-3.414-2.674-4.496
				c-1.705-1.155-3.228-2.446-4.098-4.389c-0.123-0.274-0.288-0.534-0.474-0.784h-4.851C27.856,0.369,27.772,0.509,27.709,0.658z"/>
			<path fill="#1392D8" d="M58.911,6.307c-1.188-1.063-2.41-1.176-3.822-0.398c-0.917,0.507-1.778,1.194-2.541,1.007
				c-2.184-0.24-3.256,0.798-4.086,2.161c-0.608,0.999-1.141,2.04-2.089,2.783c-0.182,0.14-0.348,0.32-0.47,0.515
				c-0.933,1.491-1.232,3.082-0.802,4.811c0.647,2.599,2.25,4.539,4.246,6.206c1.133,0.949,2.436,1.553,3.933,1.647
				c2.842,0.181,4.655-1.494,6.248-3.508c0.64-0.809,1.161-1.708,1.789-2.527c1.203-1.571,1.289-2.561,0.257-3.901
				c-0.167-0.217-0.359-0.413-0.556-0.604c-1.46-1.418-1.937-3.093-1.393-5.069C59.943,8.283,59.878,7.171,58.911,6.307z"/>
			<path fill="#1392D8" d="M1.621,30.017c0.662,0.963,1.395,1.877,1.676,3.046c0.056,0.224,0.15,0.45,0.278,0.642
				c0.976,1.461,2.306,2.393,4.063,2.716c2.642,0.489,5.076-0.165,7.424-1.288c1.336-0.637,2.425-1.567,3.132-2.889
				c1.337-2.504,0.559-4.843-0.623-7.122c-0.47-0.915-1.078-1.761-1.567-2.669c-0.934-1.743-1.804-2.231-3.455-1.847
				c-0.267,0.062-0.526,0.157-0.781,0.256c-1.901,0.741-3.626,0.48-5.205-0.834c-0.918-0.765-1.963-1.164-3.149-0.644
				c-1.461,0.64-2.071,1.702-1.942,3.308c0.082,1.041,0.352,2.105-0.133,2.721C0.217,27.296,0.72,28.697,1.621,30.017z"/>
			<path fill="#1392D8" d="M33.909,28.213c-0.196,0-0.392-0.017-0.585,0.004c-1.219,0.134-2.422,0.346-3.319,1.28
				c-0.743,0.776-1.169,1.735-1.427,2.774c-0.298,1.203-0.67,2.358-2.116,2.663c-0.361,0.077-0.715,0.194-1.075,0.283
				c-1.006,0.246-1.829,0.774-2.474,1.58c-0.606,0.754-0.695,1.813-0.073,2.543c0.521,0.614,1.144,1.166,1.794,1.651
				c1.195,0.894,1.827,2.507,1.383,3.76c-0.564,1.587-0.151,3.098,1.119,4.096c1.034,0.814,3.297,0.917,4.398,0.125
				c1.277-0.92,1.455-2.299,1.308-3.724c-0.075-0.73-0.304-1.449-0.51-2.159c-0.152-0.524-0.099-0.998,0.312-1.341
				c0.654-0.548,1.322-1.096,2.047-1.54c2.107-1.287,3.757-2.983,4.802-5.223c0.921-1.978,0.327-3.687-0.682-4.87
				C37.546,28.63,35.824,28.117,33.909,28.213z"/>
			<path fill="#1392D8" d="M0.206,41.116V55.33c0.32-0.961,0.788-1.809,1.623-2.454c0.383-0.296,0.716-0.673,1.017-1.058
				c0.699-0.887,0.682-1.745,0.001-2.647c-0.224-0.295-0.5-0.571-0.647-0.902c-0.154-0.348-0.259-0.752-0.248-1.126
				c0.019-0.688,0.538-1.13,0.957-1.614c0.84-0.968,1.474-1.983,0.892-3.348c-0.284-0.663-0.888-1.119-1.623-1.099
				c-0.655,0.017-1.311,0.074-1.963,0.039C0.212,41.119,0.209,41.116,0.206,41.116z"/>
			<path fill="#1392D8" d="M60.255,167.77c0.541-2.003,0.137-3.869-0.572-5.713c-0.163-0.423-0.452-0.838-0.785-1.149
				c-1.165-1.098-2.593-1.466-4.176-1.272c-0.559-0.077-1.149-0.065-1.671-0.25c-1.386-0.487-2.325-2.088-2.124-3.55
				c0.085-0.633,0.232-1.263,0.415-1.875c0.278-0.926,0.471-1.857,0.317-2.824c-0.115-0.719-0.432-1.365-1.038-1.771
				c-1.268-0.851-2.675-1.099-4.146-0.684c-0.842,0.237-1.656,0.576-2.459,0.924c-1.271,0.556-2.514,1.178-3.782,1.737
				c-1.175,0.518-2.339,1.087-3.561,1.461c-1.831,0.559-3.64,0.163-5.425-0.379c-0.981-0.299-2.005-0.485-3.009-0.164
				c-3.164,1.017-5.162,3.646-4.736,7.21c0.166,1.376,0.767,2.527,2.097,3.104c0.906,0.394,1.857,0.723,2.817,0.952
				c1.251,0.303,2.548,0.418,3.797,0.728c1.797,0.445,3.007,1.951,2.877,3.576c-0.121,1.538,0.377,2.799,1.448,3.863
				c0.791,0.784,1.61,1.538,2.394,2.329c0.574,0.578,0.958,1.284,0.749,2.111c-0.161,0.634-0.484,1.228-0.742,1.838
				c-0.25,0.591-0.569,1.161-0.744,1.774c-0.409,1.432,0.418,2.708,1.862,3.075c0.836,0.212,1.654,0.124,2.431-0.121
				c2.326-0.733,4.493-0.684,6.716,0.54c2.163,1.19,4.205,0.699,5.941-1.026c0.988-0.983,1.21-2.233,0.585-3.487
				c-0.348-0.698-0.781-1.357-1.093-2.069c-0.545-1.253-0.497-2.846,0.758-3.76c0.55-0.402,1.134-0.759,1.703-1.141
				C58.582,170.768,59.766,169.583,60.255,167.77z"/>
			<path fill="#1392D8" d="M98.234,155.138c0.016-0.011,0.033-0.02,0.049-0.033c1.939-1.447,3.477-3.13,3.633-5.719
				c0.121-1.992-0.36-3.901-2.487-4.816c-1.722-0.742-3.008-2.001-3.73-3.783c-0.63-1.558-1.876-2.389-3.461-2.792
				c-2.308-0.587-4.293-0.094-5.913,1.702c-1.384,1.533-3.006,1.986-5.034,1.339c-1.299-0.416-2.673-0.297-3.715,0.758
				c-0.484,0.49-0.887,1.103-1.192,1.726c-0.648,1.327-1.624,2.272-2.968,2.865c-0.681,0.297-1.352,0.611-2.024,0.925
				c-1.591,0.747-2.613,2.507-2.466,4.234c0.031,1.283,0.681,2.235,1.592,3.076c0.74,0.682,1.572,1.295,1.932,2.309
				c0.286,0.807,0.587,1.613,0.95,2.386c0.478,1.019,1.213,1.842,2.409,1.89c0.736,0.031,1.518-0.122,2.216-0.368
				c0.991-0.349,1.921-0.869,2.883-1.3c0.966-0.435,1.87-0.292,2.685,0.367c0.942,0.765,1.217,1.8,1.045,2.941
				c-0.104,0.687-0.347,1.354-0.549,2.023c-0.433,1.432-0.143,2.415,1.002,3.323c0.905,0.717,2.044,0.735,3.243,0.048
				c0.237-0.138,0.474-0.278,0.696-0.438c1.366-0.987,2.859-1.242,4.508-0.887c1.885,0.406,3.249-0.363,3.724-2.126
				c0.19-0.702,0.285-1.479,0.2-2.193c-0.134-1.096-0.418-2.181-0.715-3.25C96.165,157.243,96.452,156.369,98.234,155.138z"/>
			<path fill="#1392D8" d="M27.549,213.899c1.858-0.358,3.474-1.223,4.643-2.743c1.22-1.585,1.789-3.421,1.729-5.412
				c-0.067-2.111-1.677-3.647-3.666-3.287c-0.595,0.109-1.193,0.215-1.796,0.26c-1.045,0.077-1.489-0.253-1.872-1.218
				c-0.39-0.979-0.601-1.978-0.454-3.152c-0.03-0.386-0.001-0.908-0.118-1.394c-0.183-0.749-0.557-1.329-1.438-1.496
				c-0.955-0.182-1.801,0.041-2.567,0.536c-1.082,0.698-2.084,1.523-3.182,2.191c-0.928,0.566-1.914,1.062-2.927,1.451
				c-1.568,0.604-3.183,0.44-4.798,0.095c-0.563-0.12-1.182-0.218-1.733-0.106c-1.51,0.298-2.681,1.222-3.506,2.462
				c-1.178,1.78-2.772,2.907-4.76,3.585c-0.314,0.108-0.612,0.249-0.899,0.406v7.934c0.292,0.206,0.618,0.391,1.004,0.535
				c0.752,0.279,1.351,0.803,1.86,1.467c1.483,1.943,3.454,2.72,5.876,2.186c1.224-0.272,2.43-0.321,3.648,0.039
				c0.966,0.286,1.48,0.918,1.589,1.881c0.126,1.08,0.188,2.142,0.788,3.135c0.566,0.929,1.31,1.374,2.342,1.366
				c0.443-0.003,0.895-0.108,1.321-0.239c1.324-0.403,2.602-0.604,4.023-0.273c2.037,0.477,3.758-1.331,3.369-3.377
				c-0.216-1.127-0.479-2.248-0.742-3.367C24.944,215.913,26.148,214.169,27.549,213.899z"/>
			<path fill="#1392D8" d="M28.789,139.943c1.321-0.525,2.678-0.911,4.113-0.534c1.152,0.302,2.276,0.71,3.433,0.977
				c0.982,0.227,2.001,0.463,2.996,0.437c2.125-0.058,3.664-1.241,4.814-2.943c0.456-0.679,0.737-1.492,0.478-2.273
				c-0.255-0.769-0.725-1.488-1.527-1.854c-0.801-0.361-1.621-0.678-2.421-1.033c-1.596-0.713-2.292-1.891-2.144-3.515
				c0.071-0.794,0.098-1.596,0.097-2.394c-0.004-1.56-0.946-2.551-2.178-3.303c-0.328-0.202-0.774-0.269-1.172-0.298
				c-1.608-0.124-2.924,0.576-4.116,1.558c-1.244,1.021-2.541,1.618-4.206,0.963c-0.961-0.379-1.873,0.071-2.385,0.985
				c-0.228,0.408-0.332,0.893-0.6,1.269c-0.364,0.511-0.773,1.022-1.268,1.399c-0.423,0.32-0.975,0.512-1.497,0.652
				c-2.361,0.631-3.848,2.972-3.776,5.251c-0.013,1.568,0.405,2.982,1.256,4.158c1.338,1.847,3.339,2.246,5.495,2.018
				C25.822,141.288,27.282,140.539,28.789,139.943z"/>
			<path fill="#1392D8" d="M4.027,164.181c2.893-0.575,5.609-1.55,7.943-3.427c1.213-0.977,1.822-2.168,1.507-3.735
				c-0.207-1.033-0.878-1.739-1.675-2.386c-0.973-0.789-1.693-1.744-1.531-3.109c0.051-0.426,0.089-0.853,0.137-1.28
				c0.412-3.684-3.029-5.653-5.324-5.796c-1.637-0.101-3.061,0.489-4.496,1.139c-0.127,0.057-0.256,0.111-0.383,0.164v17.754
				c0.995,0.462,2.036,0.643,3.118,0.681C3.558,164.185,3.801,164.225,4.027,164.181z"/>
			<path fill="#1392D8" d="M95.254,119.387c-0.965-0.061-1.954,0.071-2.919,0.208c-2.262,0.321-4.15-0.209-5.48-2.184
				c-0.937-1.393-1.926-2.726-3.127-3.929c-1.874-1.876-4.788-0.857-5.928,0.692c-1.289,1.75-1.319,3.768-0.525,5.747
				c0.666,1.659,0.726,3.323,0.415,5.045c-0.096,0.537-0.211,1.078-0.228,1.62c-0.083,2.549,1.281,4.637,3.654,5.688
				c1.754,0.778,3.529,0.948,5.091-0.289c1.265-1.001,2.606-1.447,4.116-1.341c0.902-0.041,1.752-0.011,2.577-0.132
				c1.019-0.151,2.08-0.281,3.012-0.677c2.805-1.197,4.17-3.37,3.62-6.392C99.106,121.114,97.713,119.54,95.254,119.387z"/>
			<path fill="#1392D8" d="M0.483,122.184c-0.093,0.016-0.185,0.034-0.278,0.051v9.875c1.222,0.266,2.336,0.793,3.391,1.519
				c0.449,0.309,0.896,0.639,1.385,0.877c2.294,1.127,4.765,0.752,6.705-0.968c1.434-1.272,2.323-2.812,1.839-4.743
				c-0.391-1.56-0.247-2.966,0.475-4.291c0.335-0.835,0.714-1.595,0.944-2.396c0.283-0.986,0.604-2.002,0.625-3.014
				c0.068-3.04-1.354-5.176-4.341-5.927c-2.301-0.578-4.314,0.039-5.471,2.207c-0.454,0.852-0.742,1.802-1.015,2.734
				C4.101,120.298,2.838,121.795,0.483,122.184z"/>
			<path fill="#1392D8" d="M7.633,187.169c1.04,0.392,1.828,1.073,2.594,1.851c0.431,0.437,1.027,0.829,1.614,0.974
				c1.688,0.419,3.077-0.25,4.16-1.52c0.729-0.857,1.588-1.228,2.71-1.239c1.797-0.014,3.411,0.624,5.035,1.248
				c1.658,0.635,3.317,0.804,4.794-0.337c1.678-1.296,2.45-3.68,0.199-5.465c-0.915-0.727-1.566-1.693-2.014-2.77
				c-0.457-1.098-0.778-2.263-1.332-3.308c-0.96-1.818-2.511-2.855-4.626-2.883c-0.68-0.008-1.36,0.078-2.038,0.142
				c-1.533,0.144-1.926-0.109-2.353-1.554c-0.432-1.45-1.101-1.975-2.833-2.055c-0.64,0.036-1.433,0.271-2.09,0.848
				c-1.114,0.979-1.575,2.254-1.594,3.703c-0.018,1.366,0.065,2.737-0.035,4.097c-0.096,1.297-0.655,2.313-2.063,2.748
				c-1.37,0.425-2.271,1.71-2.15,2.882C5.745,185.806,6.429,186.715,7.633,187.169z"/>
			<path fill="#1392D8" d="M65.624,211.208c1.704,1.156,3.23,2.448,4.1,4.39c0.264,0.586,0.712,1.12,1.175,1.58
				c1.388,1.377,2.981,1.16,3.998-0.502c0.144-0.233,0.269-0.477,0.376-0.73c0.987-2.336,2.805-3.665,5.201-4.329
				c0.957-0.267,1.901-0.589,2.82-0.966c0.419-0.17,0.838-0.468,1.122-0.819c0.898-1.098,1.317-2.371,1.188-3.808
				c-0.065-0.73-0.341-1.318-0.808-1.894c-0.852-1.047-2.02-1.503-3.226-1.915c-1.067-0.362-2.083-0.795-2.814-1.707
				c-0.439-0.549-0.877-1.097-1.333-1.633c-2.385-2.805-6.666-2.412-8.607,0.398c-0.453,0.655-0.803,1.381-1.241,2.045
				c-0.243,0.368-0.536,0.73-0.88,1.003c-0.53,0.422-1.121,0.779-1.696,1.145c-1.185,0.757-1.968,1.759-2.049,3.245
				C63.117,208.623,64.027,210.127,65.624,211.208z"/>
			<path fill="#1392D8" d="M44.07,210.299c1.188,1.063,2.409,1.176,3.822,0.396c0.917-0.506,1.779-1.193,2.541-1.005
				c2.184,0.24,3.256-0.797,4.086-2.16c0.608-1.001,1.14-2.041,2.089-2.784c0.181-0.142,0.348-0.321,0.47-0.515
				c0.933-1.491,1.232-3.083,0.802-4.814c-0.646-2.599-2.25-4.539-4.246-6.206c-1.134-0.948-2.436-1.552-3.933-1.646
				c-2.842-0.182-4.655,1.494-6.248,3.509c-0.639,0.809-1.16,1.708-1.788,2.527c-1.204,1.571-1.29,2.561-0.257,3.9
				c0.166,0.216,0.359,0.414,0.556,0.604c1.46,1.419,1.937,3.094,1.392,5.07C43.039,208.325,43.104,209.436,44.07,210.299z"/>
			<path fill="#1392D8" d="M101.359,186.591c-0.662-0.966-1.394-1.878-1.677-3.047c-0.056-0.223-0.149-0.449-0.277-0.641
				c-0.976-1.463-2.306-2.393-4.064-2.717c-2.641-0.489-5.076,0.164-7.424,1.288c-1.335,0.636-2.425,1.567-3.132,2.889
				c-1.338,2.504-0.56,4.843,0.623,7.122c0.47,0.915,1.078,1.76,1.565,2.668c0.936,1.743,1.805,2.229,3.457,1.847
				c0.267-0.062,0.526-0.156,0.78-0.256c1.902-0.74,3.626-0.478,5.207,0.836c0.918,0.762,1.961,1.163,3.148,0.644
				c1.462-0.64,2.07-1.701,1.943-3.307c-0.083-1.042-0.353-2.106,0.133-2.721C102.764,189.31,102.262,187.909,101.359,186.591z"/>
			<path fill="#1392D8" d="M68.289,176.399c-2.108,1.288-3.757,2.985-4.802,5.225c-0.921,1.977-0.326,3.687,0.682,4.87
				c1.266,1.481,2.988,1.995,4.904,1.899c0.194,0,0.392,0.019,0.584-0.003c1.219-0.134,2.423-0.346,3.319-1.28
				c0.743-0.777,1.168-1.736,1.426-2.774c0.298-1.204,0.67-2.359,2.118-2.664c0.361-0.079,0.714-0.194,1.074-0.283
				c1.005-0.246,1.828-0.773,2.474-1.579c0.606-0.755,0.694-1.813,0.073-2.544c-0.523-0.614-1.144-1.165-1.794-1.65
				c-1.195-0.894-1.827-2.509-1.383-3.76c0.564-1.587,0.152-3.099-1.119-4.097c-1.034-0.813-3.297-0.916-4.398-0.124
				c-1.28,0.919-1.455,2.3-1.309,3.724c0.075,0.729,0.305,1.448,0.509,2.159c0.152,0.524,0.099,0.997-0.311,1.341
				C69.683,175.407,69.016,175.955,68.289,176.399z"/>
			<path fill="#1392D8" d="M160.297,107.405c1.843,0,3.684,0,5.53,0c0.582-0.624,1.155-1.256,1.753-1.862
				c0.389-0.395,0.764-0.912,1.248-1.09c0.851-0.308,1.773-0.483,2.677-0.557c1.848-0.15,2.986-1.21,3.023-3.048
				c0.05-2.628-1.293-4.583-3.165-6.25c-0.87-0.777-1.808-1.482-2.656-2.282c-1.568-1.479-2.186-3.269-1.46-5.366
				c0.283-0.825,0.702-1.604,1.096-2.385c1.359-2.7,1.55-5.366-0.189-7.987c-0.744-1.122-1.687-1.984-3.031-2.346
				c-1.787-0.481-3.496-0.134-5.163,0.497c-1.011,0.381-1.875,1.001-2.336,2.022c-0.36,0.798-0.721,1.607-0.968,2.444
				c-0.421,1.419-1.055,2.661-2.262,3.594c-0.504,0.389-0.941,0.884-1.338,1.39c-0.916,1.164-0.893,2.292-0.001,3.477
				c0.293,0.39,0.658,0.753,0.85,1.189c0.203,0.455,0.338,0.987,0.326,1.479c-0.026,0.902-0.708,1.484-1.258,2.118
				c-1.103,1.273-1.937,2.606-1.171,4.399c0.372,0.872,1.166,1.471,2.129,1.446c0.86-0.022,1.723-0.098,2.578-0.054
				c0.374,0.02,0.782,0.217,1.098,0.441c0.946,0.672,1.019,1.66,0.958,2.725C158.439,103.592,158.285,105.815,160.297,107.405z"/>
			<path fill="#1392D8" d="M163.025,48.837c-0.541,2.003-0.136,3.868,0.573,5.714c0.164,0.421,0.453,0.836,0.785,1.149
				c1.166,1.096,2.594,1.466,4.177,1.271c0.558,0.078,1.149,0.065,1.67,0.248c1.387,0.489,2.327,2.089,2.126,3.552
				c-0.086,0.631-0.233,1.262-0.415,1.874c-0.278,0.927-0.473,1.859-0.318,2.824c0.116,0.72,0.43,1.366,1.038,1.772
				c1.266,0.849,2.676,1.097,4.145,0.683c0.842-0.239,1.658-0.575,2.46-0.925c1.271-0.555,2.514-1.176,3.782-1.736
				c1.174-0.518,2.339-1.086,3.561-1.461c1.831-0.559,3.64-0.164,5.425,0.38c0.981,0.298,2.004,0.484,3.011,0.163
				c3.163-1.017,5.16-3.644,4.734-7.209c-0.166-1.375-0.768-2.526-2.098-3.104c-0.906-0.394-1.856-0.722-2.815-0.952
				c-1.253-0.303-2.549-0.419-3.798-0.728c-1.796-0.446-3.008-1.951-2.878-3.576c0.122-1.537-0.377-2.799-1.448-3.863
				c-0.788-0.785-1.61-1.538-2.393-2.328c-0.575-0.58-0.958-1.285-0.749-2.111c0.16-0.635,0.483-1.229,0.74-1.838
				c0.25-0.591,0.57-1.161,0.745-1.774c0.409-1.432-0.419-2.711-1.862-3.075c-0.837-0.212-1.653-0.125-2.433,0.12
				c-2.323,0.734-4.492,0.683-6.715-0.541c-2.161-1.189-4.204-0.699-5.941,1.027c-0.989,0.982-1.209,2.231-0.586,3.485
				c0.348,0.699,0.783,1.356,1.093,2.07c0.547,1.252,0.497,2.846-0.755,3.759c-0.551,0.402-1.135,0.761-1.705,1.142
				C164.7,45.84,163.516,47.024,163.025,48.837z"/>
			<path fill="#1392D8" d="M141.991,75.573c1.3,0.416,2.673,0.297,3.715-0.758c0.485-0.491,0.887-1.102,1.192-1.726
				c0.649-1.327,1.625-2.272,2.968-2.866c0.679-0.297,1.352-0.61,2.022-0.925c1.591-0.747,2.615-2.507,2.468-4.234
				c-0.032-1.282-0.682-2.234-1.592-3.074c-0.742-0.684-1.571-1.297-1.933-2.31c-0.286-0.807-0.585-1.613-0.95-2.388
				c-0.477-1.017-1.213-1.84-2.408-1.888c-0.735-0.031-1.518,0.122-2.218,0.368c-0.989,0.349-1.92,0.867-2.882,1.3
				c-0.967,0.434-1.871,0.291-2.685-0.367c-0.942-0.765-1.218-1.801-1.046-2.94c0.104-0.687,0.348-1.355,0.55-2.023
				c0.433-1.433,0.142-2.416-1.002-3.324c-0.906-0.718-2.045-0.736-3.245-0.049c-0.235,0.139-0.471,0.28-0.696,0.439
				c-1.366,0.989-2.859,1.241-4.507,0.888c-1.887-0.405-3.25,0.364-3.725,2.127c-0.19,0.702-0.285,1.477-0.2,2.193
				c0.135,1.095,0.419,2.181,0.716,3.25c0.584,2.097,0.297,2.973-1.484,4.203c-0.017,0.011-0.034,0.02-0.05,0.032
				c-1.94,1.446-3.476,3.13-3.632,5.72c-0.122,1.991,0.359,3.9,2.487,4.814c1.721,0.743,3.006,2.002,3.729,3.784
				c0.63,1.556,1.877,2.389,3.462,2.791c2.307,0.588,4.293,0.094,5.913-1.701C138.34,75.377,139.963,74.924,141.991,75.573z"/>
			<path fill="#1392D8" d="M195.734,2.708c-1.859,0.358-3.474,1.223-4.644,2.743c-1.22,1.584-1.789,3.42-1.728,5.411
				c0.065,2.112,1.678,3.647,3.665,3.289c0.595-0.109,1.193-0.216,1.796-0.26c1.045-0.078,1.488,0.252,1.871,1.218
				c0.39,0.977,0.601,1.976,0.455,3.151c0.028,0.386,0.001,0.906,0.118,1.393c0.181,0.749,0.556,1.329,1.438,1.496
				c0.954,0.181,1.8-0.04,2.568-0.536c1.081-0.699,2.083-1.522,3.18-2.193c0.928-0.564,1.914-1.06,2.927-1.45
				c1.567-0.603,3.183-0.44,4.799-0.095c0.563,0.122,1.182,0.218,1.73,0.108c1.51-0.299,2.683-1.222,3.506-2.463
				c1.179-1.779,2.773-2.907,4.762-3.584c0.896-0.306,1.696-0.801,2.295-1.558c0.795-1.008,0.795-2.118,0.534-3.328
				c-0.383-1.793-1.052-3.29-2.933-3.988c-0.752-0.28-1.351-0.803-1.86-1.468c-0.102-0.133-0.212-0.247-0.317-0.369h-21.892
				C197.788,1.389,196.826,2.496,195.734,2.708z"/>
			<path fill="#1392D8" d="M184.656,89.794c0.003,1.561,0.944,2.551,2.177,3.304c0.329,0.203,0.774,0.268,1.174,0.298
				c1.607,0.123,2.921-0.576,4.115-1.559c1.242-1.021,2.54-1.617,4.207-0.963c0.961,0.378,1.871-0.071,2.383-0.985
				c0.229-0.407,0.334-0.892,0.602-1.268c0.363-0.511,0.773-1.023,1.266-1.399c0.423-0.321,0.975-0.512,1.499-0.653
				c2.36-0.631,3.847-2.972,3.774-5.25c0.013-1.57-0.405-2.983-1.255-4.159c-1.338-1.847-3.34-2.246-5.496-2.017
				c-1.641,0.173-3.1,0.923-4.608,1.519c-1.321,0.523-2.677,0.911-4.112,0.534c-1.152-0.303-2.275-0.711-3.432-0.977
				c-0.983-0.228-2.002-0.465-2.998-0.437c-2.124,0.058-3.663,1.24-4.814,2.943c-0.457,0.678-0.735,1.492-0.478,2.273
				c0.255,0.768,0.725,1.487,1.528,1.853c0.8,0.362,1.62,0.677,2.42,1.033c1.596,0.711,2.292,1.893,2.146,3.515
				C184.68,88.196,184.655,88.997,184.656,89.794z"/>
			<path fill="#1392D8" d="M219.255,52.427c-2.894,0.573-5.609,1.549-7.944,3.427c-1.213,0.975-1.822,2.167-1.508,3.734
				c0.209,1.033,0.879,1.739,1.677,2.385c0.971,0.792,1.693,1.746,1.528,3.111c-0.05,0.426-0.087,0.854-0.136,1.28
				c-0.412,3.683,3.029,5.653,5.326,5.795c1.634,0.101,3.059-0.488,4.494-1.137c1.425-0.645,2.86-1.063,4.47-0.482
				c1.209,0.434,2.528,0.599,3.66-0.26c0.519-0.392,0.951-0.906,1.381-1.409v-7.688c-0.393-0.224-0.861-0.39-1.447-0.497
				c-0.801-0.147-1.598-0.327-2.388-0.536c-1.335-0.354-2.279-1.174-2.735-2.486c-0.243-0.702-0.369-1.438-0.628-2.131
				c-0.351-0.947-0.753-1.857-1.767-2.364c-1.046-0.521-2.14-0.707-3.28-0.749C219.725,52.421,219.482,52.381,219.255,52.427z"/>
			<path fill="#1392D8" d="M46.785,1.976c1.093,0.067,2.043-0.327,3.005-0.76c0.952-0.43,1.912-0.711,2.987-0.322
				c0.808,0.289,1.689,0.399,2.446-0.174c0.192-0.144,0.365-0.315,0.531-0.495H43.721C44.442,1.321,45.777,1.914,46.785,1.976z"/>
			<path fill="#1392D8" d="M175.371,2.979c1.348,1.35,3.442,0.617,4.262-0.498c0.519-0.705,0.746-1.47,0.752-2.257h-7.214
				C173.831,1.2,174.527,2.136,175.371,2.979z"/>
			<path fill="#1392D8" d="M227.918,0.766c0.992,0.788,1.567,1.734,1.742,2.9c0.187,0.679,0.305,1.33,0.54,1.937
				c0.288,0.747,0.574,1.533,1.037,2.173c0.297,0.409,0.624,0.749,0.967,1.04V0.225h-4.816
				C227.538,0.415,227.707,0.598,227.918,0.766z"/>
			<path fill="#1392D8" d="M218.539,98.494c0.643-2.185,1.906-3.683,4.26-4.075c1.659-0.275,3.284-0.621,4.882-1.216
				c2.486-0.928,2.76-3.993,1.816-5.669c-1.064-1.895-2.896-2.756-5.032-2.851c-1.79-0.08-3.337-0.716-4.78-1.708
				c-0.45-0.31-0.898-0.638-1.387-0.876c-2.293-1.128-4.764-0.754-6.704,0.967c-1.434,1.272-2.324,2.81-1.838,4.741
				c0.39,1.562,0.245,2.968-0.476,4.293c-0.336,0.835-0.715,1.592-0.946,2.395c-0.283,0.986-0.603,2.003-0.624,3.015
				c-0.066,3.04,1.352,5.177,4.341,5.926c2.302,0.577,4.315-0.038,5.471-2.207C217.978,100.378,218.265,99.427,218.539,98.494z"/>
			<path fill="#1392D8" d="M215.649,29.438c-1.039-0.391-1.828-1.074-2.594-1.851c-0.431-0.437-1.027-0.829-1.614-0.974
				c-1.689-0.419-3.077,0.251-4.159,1.52c-0.731,0.857-1.588,1.228-2.711,1.238c-1.798,0.015-3.411-0.622-5.035-1.246
				c-1.659-0.636-3.319-0.805-4.794,0.336c-1.676,1.296-2.45,3.681-0.197,5.466c0.914,0.727,1.565,1.691,2.014,2.769
				c0.455,1.098,0.777,2.263,1.329,3.307c0.962,1.818,2.511,2.854,4.627,2.883c0.678,0.008,1.361-0.079,2.038-0.141
				c1.533-0.144,1.927,0.109,2.354,1.553c0.431,1.449,1.1,1.975,2.832,2.056c0.64-0.036,1.433-0.272,2.09-0.847
				c1.115-0.981,1.575-2.254,1.594-3.705c0.018-1.366-0.065-2.738,0.035-4.098c0.096-1.296,0.655-2.313,2.063-2.748
				c1.37-0.423,2.271-1.708,2.148-2.881C217.537,30.801,216.854,29.891,215.649,29.438z"/>
			<path fill="#1392D8" d="M118.216,2.697c-1.393,0.597-1.836,1.321-1.716,3.046c0.111,0.629,0.438,1.387,1.09,1.97
				c1.107,0.991,2.432,1.298,3.876,1.146c1.364-0.144,2.719-0.387,4.086-0.446c1.305-0.057,2.381,0.378,2.981,1.722
				c0.582,1.308,1.967,2.05,3.118,1.79c1.256-0.282,2.081-1.064,2.392-2.311c0.269-1.075,0.855-1.936,1.54-2.785
				c0.384-0.479,0.704-1.113,0.781-1.712c0.221-1.72-0.609-3.017-2.002-3.939c-0.413-0.275-0.723-0.594-0.966-0.95h-13.899
				C119.807,1.69,119.593,2.109,118.216,2.697z"/>
			<path fill="#1392D8" d="M156.325,11.369c-1.704-1.155-3.227-2.447-4.1-4.389c-0.263-0.587-0.712-1.121-1.174-1.581
				c-1.387-1.377-2.98-1.161-3.999,0.502c-0.144,0.233-0.271,0.478-0.376,0.73c-0.987,2.336-2.803,3.664-5.201,4.331
				c-0.956,0.266-1.902,0.588-2.82,0.964c-0.419,0.171-0.838,0.469-1.123,0.819c-0.897,1.1-1.318,2.371-1.187,3.81
				c0.065,0.728,0.341,1.318,0.808,1.893c0.852,1.048,2.019,1.503,3.226,1.914c1.066,0.363,2.083,0.796,2.813,1.708
				c0.439,0.548,0.878,1.098,1.335,1.634c2.384,2.805,6.664,2.411,8.607-0.399c0.452-0.654,0.801-1.381,1.238-2.045
				c0.245-0.368,0.537-0.73,0.88-1.003c0.532-0.424,1.122-0.78,1.698-1.147c1.185-0.756,1.967-1.757,2.048-3.243
				C158.832,13.956,157.923,12.451,156.325,11.369z"/>
			<path fill="#1392D8" d="M179.212,6.307c-1.189-1.063-2.411-1.176-3.824-0.398c-0.917,0.507-1.776,1.194-2.54,1.007
				c-2.184-0.24-3.257,0.798-4.085,2.161c-0.609,0.999-1.141,2.04-2.09,2.783c-0.183,0.14-0.349,0.32-0.471,0.515
				c-0.931,1.491-1.231,3.082-0.802,4.811c0.646,2.599,2.25,4.539,4.246,6.206c1.134,0.949,2.436,1.553,3.933,1.647
				c2.841,0.181,4.655-1.494,6.249-3.508c0.638-0.809,1.16-1.708,1.787-2.527c1.203-1.571,1.292-2.561,0.259-3.901
				c-0.167-0.217-0.36-0.413-0.557-0.604c-1.461-1.418-1.937-3.093-1.393-5.069C180.243,8.283,180.178,7.171,179.212,6.307z"/>
			<path fill="#1392D8" d="M121.924,30.017c0.66,0.963,1.393,1.877,1.675,3.046c0.055,0.224,0.149,0.45,0.277,0.642
				c0.976,1.461,2.305,2.393,4.063,2.716c2.641,0.489,5.076-0.165,7.425-1.288c1.334-0.637,2.425-1.567,3.131-2.889
				c1.336-2.504,0.56-4.843-0.622-7.122c-0.473-0.915-1.079-1.761-1.567-2.669c-0.936-1.743-1.805-2.231-3.456-1.847
				c-0.266,0.062-0.525,0.157-0.781,0.256c-1.901,0.741-3.626,0.48-5.205-0.834c-0.919-0.765-1.961-1.164-3.15-0.644
				c-1.46,0.64-2.07,1.702-1.942,3.308c0.082,1.041,0.353,2.105-0.133,2.721C120.516,27.296,121.02,28.697,121.924,30.017z"/>
			<path fill="#1392D8" d="M154.992,40.206c2.107-1.287,3.758-2.983,4.803-5.223c0.922-1.978,0.327-3.687-0.682-4.87
				c-1.267-1.483-2.989-1.996-4.904-1.901c-0.195,0-0.392-0.017-0.584,0.004c-1.22,0.134-2.423,0.346-3.319,1.28
				c-0.744,0.776-1.169,1.735-1.426,2.774c-0.299,1.203-0.671,2.358-2.116,2.663c-0.362,0.077-0.716,0.194-1.075,0.283
				c-1.007,0.246-1.831,0.774-2.475,1.58c-0.606,0.754-0.695,1.813-0.073,2.543c0.522,0.614,1.144,1.166,1.794,1.651
				c1.196,0.894,1.827,2.507,1.383,3.76c-0.563,1.587-0.151,3.098,1.119,4.096c1.034,0.814,3.297,0.917,4.397,0.125
				c1.28-0.92,1.457-2.299,1.31-3.724c-0.075-0.73-0.304-1.449-0.509-2.159c-0.152-0.524-0.1-0.998,0.311-1.341
				C153.601,41.199,154.266,40.652,154.992,40.206z"/>
			<path fill="#1392D8" d="M183.623,141.879c1.012-0.38,1.875-1.003,2.336-2.023c0.361-0.798,0.722-1.606,0.968-2.444
				c0.42-1.419,1.055-2.662,2.261-3.593c0.504-0.389,0.94-0.885,1.339-1.39c0.916-1.165,0.894-2.294,0-3.479
				c-0.293-0.39-0.658-0.752-0.85-1.187c-0.201-0.457-0.339-0.986-0.325-1.479c0.025-0.902,0.707-1.483,1.255-2.12
				c1.103-1.272,1.938-2.607,1.173-4.398c-0.374-0.873-1.166-1.471-2.13-1.445c-0.86,0.022-1.723,0.097-2.578,0.052
				c-0.375-0.019-0.782-0.217-1.097-0.441c-0.948-0.67-1.02-1.66-0.958-2.725c0.128-2.193,0.283-4.413-1.73-6.002
				c-1.843,0-3.684,0-5.528,0c-0.583,0.621-1.155,1.256-1.756,1.862c-0.388,0.395-0.762,0.913-1.247,1.089
				c-0.849,0.308-1.772,0.483-2.677,0.558c-1.847,0.149-2.985,1.21-3.021,3.048c-0.052,2.627,1.293,4.583,3.163,6.249
				c0.872,0.778,1.808,1.481,2.658,2.282c1.568,1.481,2.186,3.271,1.46,5.367c-0.285,0.824-0.703,1.603-1.096,2.386
				c-1.359,2.699-1.549,5.366,0.188,7.987c0.745,1.123,1.687,1.983,3.031,2.346C180.247,142.855,181.955,142.509,183.623,141.879z"
				/>
			<path fill="#1392D8" d="M227.074,163.52c-0.706-0.215-1.443-0.349-2.168-0.117c-2.28,0.733-3.718,2.627-3.411,5.196
				c0.12,0.99,0.554,1.818,1.511,2.234c0.654,0.285,1.338,0.52,2.03,0.688c0.9,0.219,1.836,0.3,2.735,0.522
				c1.294,0.32,2.165,1.407,2.073,2.577c-0.088,1.107,0.272,2.016,1.041,2.783c0.435,0.43,0.877,0.852,1.317,1.279v-15.347
				c-0.401,0.171-0.806,0.333-1.221,0.459C229.664,164.197,228.36,163.913,227.074,163.52z"/>
			<path fill="#1392D8" d="M232.203,184.497v-1.611c-0.041,0.106-0.091,0.209-0.122,0.316
				C231.947,183.677,232.007,184.123,232.203,184.497z"/>
			<path fill="#1392D8" d="M219.73,144.571c-1.723-0.742-3.008-2.001-3.729-3.783c-0.631-1.558-1.878-2.389-3.463-2.792
				c-2.309-0.587-4.293-0.094-5.913,1.702c-1.383,1.533-3.006,1.986-5.033,1.339c-1.3-0.416-2.675-0.297-3.716,0.758
				c-0.485,0.49-0.887,1.103-1.193,1.726c-0.648,1.327-1.623,2.272-2.967,2.865c-0.679,0.297-1.353,0.611-2.023,0.925
				c-1.591,0.747-2.614,2.507-2.467,4.234c0.032,1.283,0.682,2.235,1.591,3.076c0.741,0.682,1.571,1.295,1.933,2.309
				c0.287,0.807,0.586,1.613,0.95,2.386c0.478,1.019,1.213,1.842,2.407,1.89c0.736,0.031,1.518-0.122,2.218-0.368
				c0.99-0.349,1.919-0.869,2.882-1.3c0.967-0.435,1.872-0.292,2.686,0.367c0.942,0.765,1.218,1.8,1.045,2.941
				c-0.103,0.687-0.347,1.354-0.549,2.023c-0.432,1.432-0.143,2.415,1.002,3.323c0.906,0.717,2.045,0.735,3.244,0.048
				c0.236-0.138,0.474-0.278,0.697-0.438c1.366-0.987,2.859-1.242,4.507-0.887c1.887,0.406,3.249-0.363,3.724-2.126
				c0.19-0.702,0.285-1.479,0.2-2.193c-0.133-1.096-0.417-2.181-0.715-3.25c-0.583-2.098-0.296-2.973,1.485-4.204
				c0.016-0.011,0.033-0.02,0.049-0.033c1.938-1.447,3.476-3.13,3.634-5.719C222.336,147.394,221.855,145.485,219.73,144.571z"/>
			<path fill="#1392D8" d="M150.192,226.978c-0.067-2.111-1.679-3.646-3.665-3.287c-0.595,0.109-1.195,0.216-1.796,0.26
				c-1.046,0.077-1.49-0.252-1.874-1.218c-0.389-0.979-0.6-1.977-0.454-3.152c-0.029-0.386-0.001-0.906-0.118-1.394
				c-0.181-0.749-0.557-1.33-1.437-1.496c-0.954-0.181-1.8,0.04-2.567,0.536c-1.081,0.699-2.082,1.524-3.182,2.192
				c-0.927,0.565-1.914,1.061-2.926,1.451c-1.568,0.604-3.185,0.44-4.799,0.096c-0.561-0.123-1.181-0.219-1.73-0.108
				c-1.51,0.299-2.682,1.222-3.506,2.462c-1.178,1.779-2.774,2.907-4.761,3.585c-0.895,0.306-1.698,0.8-2.296,1.558
				c-0.739,0.936-0.787,1.962-0.583,3.074h34.537C149.854,230.157,150.241,228.622,150.192,226.978z"/>
			<path fill="#1392D8" d="M176.674,230.211c0.071-0.793,0.098-1.595,0.097-2.393c-0.004-1.56-0.945-2.55-2.177-3.304
				c-0.329-0.202-0.774-0.269-1.174-0.297c-1.607-0.124-2.922,0.576-4.115,1.557c-1.243,1.023-2.54,1.619-4.207,0.964
				c-0.961-0.378-1.871,0.07-2.383,0.984c-0.228,0.408-0.333,0.893-0.6,1.268c-0.363,0.51-0.774,1.023-1.267,1.399
				c-0.422,0.321-0.974,0.512-1.498,0.653c-0.412,0.11-0.788,0.288-1.143,0.494h18.571
				C176.671,231.132,176.63,230.693,176.674,230.211z"/>
			<path fill="#1392D8" d="M112.825,155.921c0.803,0.146,1.6,0.327,2.389,0.535c1.336,0.354,2.28,1.173,2.736,2.488
				c0.242,0.7,0.37,1.437,0.627,2.129c0.353,0.949,0.755,1.858,1.768,2.364c1.045,0.52,2.141,0.708,3.281,0.748
				c0.234,0,0.476,0.04,0.702-0.004c2.893-0.575,5.61-1.55,7.944-3.427c1.213-0.977,1.823-2.168,1.507-3.735
				c-0.206-1.033-0.878-1.739-1.675-2.386c-0.973-0.789-1.692-1.744-1.529-3.109c0.05-0.426,0.087-0.853,0.136-1.28
				c0.413-3.684-3.029-5.653-5.325-5.796c-1.636-0.101-3.058,0.489-4.494,1.139c-1.424,0.644-2.86,1.063-4.47,0.481
				c-1.209-0.435-2.529-0.599-3.66,0.259c-0.582,0.439-1.055,1.032-1.537,1.592c-1.119,1.299-1.919,2.749-1.562,4.529
				C110.096,154.621,110.844,155.557,112.825,155.921z"/>
			<path fill="#1392D8" d="M197.761,126.585c-0.083,2.549,1.281,4.637,3.656,5.688c1.752,0.778,3.528,0.948,5.09-0.289
				c1.264-1.001,2.606-1.447,4.118-1.341c0.901-0.041,1.751-0.011,2.577-0.132c1.018-0.151,2.078-0.281,3.01-0.677
				c2.806-1.197,4.171-3.37,3.621-6.392c-0.422-2.328-1.817-3.903-4.275-4.056c-0.965-0.061-1.954,0.071-2.918,0.208
				c-2.262,0.321-4.151-0.209-5.48-2.184c-0.937-1.393-1.927-2.726-3.127-3.929c-1.875-1.876-4.789-0.857-5.928,0.692
				c-1.291,1.75-1.321,3.768-0.526,5.747c0.666,1.659,0.728,3.323,0.415,5.045C197.892,125.502,197.778,126.043,197.761,126.585z"/>
			<path fill="#1392D8" d="M59.892,228.709c0.068-3.039-1.354-5.177-4.34-5.926c-2.302-0.578-4.314,0.038-5.472,2.206
				c-0.453,0.852-0.741,1.803-1.015,2.735c-0.543,1.852-1.54,3.2-3.26,3.81h13.518C59.59,230.607,59.871,229.658,59.892,228.709z"/>
			<path fill="#1392D8" d="M3.491,231.041c-0.892-1.421-1.84-2.785-3.004-4.024c-0.091-0.097-0.187-0.181-0.282-0.263v4.781h3.645
				C3.727,231.377,3.603,231.221,3.491,231.041z"/>
			<path fill="#1392D8" d="M98.399,231.535c-0.269-0.732-0.551-1.457-0.912-2.14c-0.389-0.737-0.863-1.36-1.406-1.883
				c0.033-0.05,0.068-0.092,0.101-0.145c0.616-0.992,1.501-1.75,2.524-2.32c1.04-0.582,2.162-1.034,3.137-1.705
				c1.699-1.164,2.55-2.819,2.33-4.917c-0.07-0.673-0.237-1.339-0.378-2.003c-0.324-1.5-0.117-1.918,1.272-2.513
				c1.394-0.596,1.838-1.32,1.717-3.044c-0.111-0.63-0.437-1.389-1.09-1.971c-1.107-0.991-2.43-1.296-3.875-1.145
				c-1.364,0.145-2.72,0.386-4.086,0.446c-1.306,0.057-2.382-0.378-2.979-1.722c-0.583-1.308-1.97-2.048-3.121-1.789
				c-1.255,0.28-2.08,1.063-2.392,2.311c-0.269,1.074-0.854,1.935-1.539,2.785c-0.384,0.477-0.705,1.113-0.783,1.712
				c-0.219,1.719,0.611,3.017,2.003,3.939c0.937,0.623,1.409,1.429,1.549,2.54c0.226,1.778-0.22,3.45-0.65,5.132
				c-0.247,0.961-0.335,1.904-0.146,2.781c-0.195,0.02-0.391,0.038-0.585,0.055c-1.932,0.182-2.426-0.136-2.966-1.957
				c-0.542-1.828-1.386-2.489-3.569-2.59c-0.807,0.044-1.807,0.342-2.633,1.069c-1.405,1.235-1.985,2.84-2.009,4.668
				c-0.02,1.466,0.047,2.941-0.011,4.406L98.399,231.535L98.399,231.535z"/>
			<path fill="#1392D8" d="M225.366,213.908c1.394-0.596,1.837-1.32,1.716-3.044c-0.11-0.63-0.438-1.389-1.09-1.971
				c-1.107-0.991-2.43-1.296-3.875-1.145c-1.363,0.145-2.72,0.386-4.086,0.446c-1.305,0.057-2.382-0.378-2.979-1.722
				c-0.583-1.308-1.969-2.048-3.121-1.789c-1.253,0.28-2.081,1.063-2.392,2.311c-0.268,1.074-0.854,1.935-1.538,2.785
				c-0.385,0.477-0.706,1.113-0.782,1.712c-0.221,1.719,0.609,3.017,2.001,3.939c0.937,0.623,1.41,1.429,1.549,2.54
				c0.227,1.778-0.221,3.45-0.65,5.132c-0.44,1.717-0.414,3.378,0.893,4.707c1.487,1.51,3.955,1.996,5.469-0.442
				c0.616-0.992,1.502-1.75,2.524-2.32c1.04-0.582,2.161-1.034,3.137-1.705c1.698-1.164,2.549-2.819,2.328-4.917
				c-0.068-0.673-0.235-1.339-0.377-2.003C223.769,214.921,223.977,214.503,225.366,213.908z"/>
			<path fill="#1392D8" d="M185.924,211.208c1.705,1.156,3.229,2.448,4.1,4.39c0.264,0.586,0.712,1.12,1.176,1.58
				c1.388,1.377,2.98,1.16,3.999-0.502c0.144-0.233,0.269-0.477,0.375-0.73c0.987-2.336,2.804-3.665,5.201-4.329
				c0.956-0.267,1.901-0.589,2.82-0.966c0.419-0.17,0.839-0.468,1.123-0.819c0.896-1.098,1.317-2.371,1.187-3.808
				c-0.066-0.73-0.34-1.318-0.808-1.894c-0.852-1.047-2.019-1.503-3.226-1.915c-1.068-0.362-2.082-0.795-2.813-1.707
				c-0.44-0.549-0.879-1.097-1.334-1.633c-2.385-2.805-6.666-2.412-8.607,0.398c-0.453,0.655-0.801,1.381-1.24,2.045
				c-0.246,0.368-0.536,0.73-0.88,1.003c-0.532,0.422-1.122,0.779-1.697,1.145c-1.186,0.757-1.968,1.759-2.049,3.245
				C183.417,208.623,184.328,210.127,185.924,211.208z"/>
			<path fill="#1392D8" d="M164.371,210.299c1.189,1.063,2.411,1.176,3.824,0.396c0.917-0.506,1.777-1.193,2.54-1.005
				c2.184,0.24,3.255-0.797,4.085-2.16c0.608-1.001,1.139-2.041,2.09-2.784c0.18-0.142,0.348-0.321,0.469-0.515
				c0.933-1.491,1.233-3.083,0.802-4.814c-0.647-2.599-2.249-4.539-4.245-6.206c-1.136-0.948-2.437-1.552-3.934-1.646
				c-2.841-0.182-4.654,1.494-6.249,3.509c-0.639,0.809-1.16,1.708-1.787,2.527c-1.203,1.571-1.291,2.561-0.257,3.9
				c0.165,0.216,0.358,0.414,0.557,0.604c1.46,1.419,1.937,3.094,1.391,5.07C163.34,208.325,163.404,209.436,164.371,210.299z"/>
			<path fill="#1392D8" d="M219.983,183.544c-0.055-0.223-0.15-0.449-0.276-0.641c-0.975-1.463-2.306-2.393-4.063-2.717
				c-2.643-0.489-5.076,0.164-7.427,1.288c-1.334,0.636-2.423,1.567-3.129,2.889c-1.339,2.504-0.56,4.843,0.622,7.122
				c0.472,0.915,1.08,1.76,1.566,2.668c0.937,1.743,1.806,2.229,3.457,1.847c0.266-0.062,0.526-0.156,0.78-0.256
				c1.901-0.74,3.626-0.478,5.207,0.836c0.919,0.762,1.961,1.163,3.148,0.644c1.461-0.64,2.07-1.701,1.945-3.307
				c-0.083-1.042-0.354-2.106,0.132-2.721c1.122-1.884,0.62-3.284-0.283-4.603C220.998,185.624,220.267,184.712,219.983,183.544z"/>
			<path fill="#1392D8" d="M188.59,176.399c-2.107,1.288-3.757,2.985-4.801,5.225c-0.922,1.977-0.327,3.687,0.681,4.87
				c1.266,1.481,2.988,1.995,4.904,1.899c0.194,0,0.393,0.019,0.585-0.003c1.218-0.134,2.422-0.346,3.318-1.28
				c0.744-0.777,1.169-1.736,1.425-2.774c0.299-1.204,0.67-2.359,2.118-2.664c0.362-0.079,0.715-0.194,1.075-0.283
				c1.005-0.246,1.828-0.773,2.475-1.579c0.606-0.755,0.694-1.813,0.073-2.544c-0.522-0.614-1.145-1.165-1.795-1.65
				c-1.195-0.894-1.826-2.509-1.382-3.76c0.563-1.587,0.151-3.099-1.121-4.097c-1.034-0.813-3.296-0.916-4.397-0.124
				c-1.277,0.919-1.455,2.3-1.309,3.724c0.076,0.729,0.305,1.448,0.509,2.159c0.152,0.524,0.099,0.997-0.311,1.341
				C189.983,175.407,189.316,175.955,188.59,176.399z"/>
		</g>
	</g>
	<rect x="118.141" y="163.574" fill="none" width="39.68" height="35.437"/>
	<g>
		<g>
			<rect x="61.117" y="66.792" fill="#F2EEEC" width="77.882" height="144.833"/>
			<rect x="138.948" y="66.823" fill="#A2BCC5" width="44.971" height="144.802"/>
			<path fill="#F2EEEC" d="M82.87,33.139c0-6.615,5.364-11.979,11.979-11.979h54.091c6.615,0,11.979,5.364,11.979,11.979v4.749
				h-77.93L82.87,33.139z"/>
			<polygon fill="#8CA3AA" points="160.918,37.75 184.209,66.834 138.79,66.834 			"/>
			<polygon fill="#D9D4DB" points="136.982,66.834 150.008,52.127 183.756,66.834 			"/>
			<polygon fill="#FEA300" points="83.084,37.863 61.123,66.812 138.985,66.812 160.946,37.863 			"/>
			<path fill="#A2BCC5" d="M116.224,44.606c-0.567-0.637-1.213-1.165-1.905-1.607l0.009-0.014l-0.362-0.213
				c-0.045-0.025-0.089-0.053-0.134-0.078l-3.414-1.997l-0.541,0.822c-2.909-0.238-6.016,0.732-8.494,2.937
				c-4.138,3.686-5.066,9.508-2.403,13.629l-0.457,0.695l2.599,1.632c0.419,0.318,0.863,0.593,1.326,0.833l0.1,0.062l0.004-0.007
				c0.056,0.028,0.108,0.062,0.164,0.089c3.677,1.764,8.444,1.097,11.946-2.024C119.191,55.333,119.89,48.723,116.224,44.606z"/>
			
				<ellipse transform="matrix(0.7468 -0.6651 0.6651 0.7468 -6.6983 82.7037)" fill="#F2EEEC" cx="105.258" cy="50.148" rx="10.98" ry="9.61"/>
		</g>
		<rect x="61.131" y="168.066" fill="#FEA300" width="77.764" height="43.59"/>
		<rect x="138.91" y="168.066" fill="#BE6E30" width="44.906" height="43.59"/>
		<g>
			<path fill="#FEA300" d="M84.586,110.492c-0.101,4.001-0.101,14.228,0.051,16.406c0.153,2.633,0.963,3.596,3.292,3.596h2.381
				c-0.052,0.709-0.052,4,0,4.709c0,0-4.912-0.101-7.697-0.101s-7.696,0.101-7.696,0.101v-4.709h1.924
				c2.228,0,3.039-0.912,3.19-3.596c0.152-2.481,0.152-16.507,0-19.089c-0.102-2.076-1.114-3.039-2.937-3.039h-2.126v-4.607
				c3.798,0.101,11.645,0.101,15.444,0c1.924,4.253,6.127,12.861,9.013,18.431c2.835-5.875,6.633-14.127,8.456-18.431
				c3.392,0.101,10.836,0.101,14.228,0v4.607h-2.076c-1.823,0-2.784,1.165-2.886,3.14c-0.152,2.329-0.152,16.355,0,19.191
				c0.102,2.227,0.659,3.392,2.988,3.392h1.974v4.709c0,0-6.177-0.101-9.671-0.101c-3.545,0-9.722,0.101-9.722,0.101v-4.709h2.076
				c2.226,0,2.886-1.316,2.987-3.443c0.102-2.228,0.102-12.253,0.051-16.659c-3.139,6.227-8.102,16.861-10.38,22.026h-2.227
				C92.89,127.251,87.675,116.517,84.586,110.492z"/>
		</g>
		<path fill="#BE6E30" d="M176.537,76.229h-30.446c-0.552,0-0.998,0.446-0.998,0.998V145c0,0.552,0.446,0.998,0.998,0.998h30.446
			c0.552,0,0.998-0.446,0.998-0.998V77.227C177.535,76.675,177.089,76.229,176.537,76.229z M175.539,78.225v5.74h-28.45v-5.74
			H175.539z M147.089,121.648v-4.492h28.45v4.492H147.089z M175.539,122.147v5.49h-28.45v-5.49H175.539z M147.089,116.657v-4.492
			h28.45v4.492H147.089z M147.089,111.666v-4.492h28.45v4.492H147.089z M147.089,106.675v-4.492h28.45v4.492H147.089z
			 M147.089,101.684v-4.492h28.45v4.492H147.089z M147.089,96.692V92.2h28.45v4.492H147.089z M147.089,91.701v-5.74h28.45v5.74
			H147.089z M147.089,144.002v-14.368h28.45v14.368H147.089z"/>
	</g>
</g>
</svg>
