<?xml version="1.0" encoding="utf-8"?>
<!-- Generator: Adobe Illustrator 17.0.0, SVG Export Plug-In . SVG Version: 6.00 Build 0)  -->
<!DOCTYPE svg PUBLIC "-//W3C//DTD SVG 1.1//EN" "http://www.w3.org/Graphics/SVG/1.1/DTD/svg11.dtd">
<svg version="1.1" id="Layer_1" xmlns="http://www.w3.org/2000/svg" xmlns:xlink="http://www.w3.org/1999/xlink" x="0px" y="0px"
	 width="232px" height="232px" viewBox="0.731 0.281 232 232" enable-background="new 0.731 0.281 232 232" xml:space="preserve">
<g id="_x39_._Quarantines">
	<rect x="0.732" y="0.431" fill="#63AECF" width="232" height="231.849"/>
	<g>
		<g>
			<defs>
				<rect id="SVGID_1_" x="0.994" y="0.556" width="231.023" height="231.367"/>
			</defs>
			<clipPath id="SVGID_2_">
				<use xlink:href="#SVGID_1_"  overflow="visible"/>
			</clipPath>
			
				<line clip-path="url(#SVGID_2_)" fill="none" stroke="#7ACDEA" stroke-miterlimit="10" x1="118.533" y1="406.29" x2="-173.124" y2="114.211"/>
		</g>
		<g>
			<defs>
				<rect id="SVGID_3_" x="0.994" y="0.556" width="231.023" height="231.367"/>
			</defs>
			<clipPath id="SVGID_4_">
				<use xlink:href="#SVGID_3_"  overflow="visible"/>
			</clipPath>
			
				<line clip-path="url(#SVGID_4_)" fill="none" stroke="#7ACDEA" stroke-miterlimit="10" x1="122.89" y1="401.926" x2="-168.765" y2="109.845"/>
		</g>
		<g>
			<defs>
				<rect id="SVGID_5_" x="0.994" y="0.556" width="231.023" height="231.367"/>
			</defs>
			<clipPath id="SVGID_6_">
				<use xlink:href="#SVGID_5_"  overflow="visible"/>
			</clipPath>
			
				<line clip-path="url(#SVGID_6_)" fill="none" stroke="#7ACDEA" stroke-miterlimit="10" x1="127.248" y1="397.563" x2="-164.407" y2="105.482"/>
		</g>
		<g>
			<defs>
				<rect id="SVGID_7_" x="0.994" y="0.556" width="231.023" height="231.367"/>
			</defs>
			<clipPath id="SVGID_8_">
				<use xlink:href="#SVGID_7_"  overflow="visible"/>
			</clipPath>
			
				<line clip-path="url(#SVGID_8_)" fill="none" stroke="#7ACDEA" stroke-miterlimit="10" x1="131.604" y1="393.2" x2="-160.051" y2="101.117"/>
		</g>
		<g>
			<defs>
				<rect id="SVGID_9_" x="0.994" y="0.556" width="231.023" height="231.367"/>
			</defs>
			<clipPath id="SVGID_10_">
				<use xlink:href="#SVGID_9_"  overflow="visible"/>
			</clipPath>
			
				<line clip-path="url(#SVGID_10_)" fill="none" stroke="#7ACDEA" stroke-miterlimit="10" x1="135.964" y1="388.835" x2="-155.691" y2="96.753"/>
		</g>
		<g>
			<defs>
				<rect id="SVGID_11_" x="0.994" y="0.556" width="231.023" height="231.367"/>
			</defs>
			<clipPath id="SVGID_12_">
				<use xlink:href="#SVGID_11_"  overflow="visible"/>
			</clipPath>
			
				<line clip-path="url(#SVGID_12_)" fill="none" stroke="#7ACDEA" stroke-miterlimit="10" x1="140.32" y1="384.471" x2="-151.335" y2="92.389"/>
		</g>
		<g>
			<defs>
				<rect id="SVGID_13_" x="0.994" y="0.556" width="231.023" height="231.367"/>
			</defs>
			<clipPath id="SVGID_14_">
				<use xlink:href="#SVGID_13_"  overflow="visible"/>
			</clipPath>
			
				<line clip-path="url(#SVGID_14_)" fill="none" stroke="#7ACDEA" stroke-miterlimit="10" x1="144.679" y1="380.107" x2="-146.979" y2="88.025"/>
		</g>
		<g>
			<defs>
				<rect id="SVGID_15_" x="0.994" y="0.556" width="231.023" height="231.367"/>
			</defs>
			<clipPath id="SVGID_16_">
				<use xlink:href="#SVGID_15_"  overflow="visible"/>
			</clipPath>
			
				<line clip-path="url(#SVGID_16_)" fill="none" stroke="#7ACDEA" stroke-miterlimit="10" x1="149.035" y1="375.744" x2="-142.62" y2="83.662"/>
		</g>
		<g>
			<defs>
				<rect id="SVGID_17_" x="0.994" y="0.556" width="231.023" height="231.367"/>
			</defs>
			<clipPath id="SVGID_18_">
				<use xlink:href="#SVGID_17_"  overflow="visible"/>
			</clipPath>
			
				<line clip-path="url(#SVGID_18_)" fill="none" stroke="#7ACDEA" stroke-miterlimit="10" x1="153.393" y1="371.379" x2="-138.263" y2="79.297"/>
		</g>
		<g>
			<defs>
				<rect id="SVGID_19_" x="0.994" y="0.556" width="231.023" height="231.367"/>
			</defs>
			<clipPath id="SVGID_20_">
				<use xlink:href="#SVGID_19_"  overflow="visible"/>
			</clipPath>
			
				<line clip-path="url(#SVGID_20_)" fill="none" stroke="#7ACDEA" stroke-miterlimit="10" x1="157.75" y1="367.016" x2="-133.904" y2="74.934"/>
		</g>
		<g>
			<defs>
				<rect id="SVGID_21_" x="0.994" y="0.556" width="231.023" height="231.367"/>
			</defs>
			<clipPath id="SVGID_22_">
				<use xlink:href="#SVGID_21_"  overflow="visible"/>
			</clipPath>
			
				<line clip-path="url(#SVGID_22_)" fill="none" stroke="#7ACDEA" stroke-miterlimit="10" x1="162.108" y1="362.652" x2="-129.548" y2="70.571"/>
		</g>
		<g>
			<defs>
				<rect id="SVGID_23_" x="0.994" y="0.556" width="231.023" height="231.367"/>
			</defs>
			<clipPath id="SVGID_24_">
				<use xlink:href="#SVGID_23_"  overflow="visible"/>
			</clipPath>
			
				<line clip-path="url(#SVGID_24_)" fill="none" stroke="#7ACDEA" stroke-miterlimit="10" x1="166.466" y1="358.288" x2="-125.188" y2="66.204"/>
		</g>
		<g>
			<defs>
				<rect id="SVGID_25_" x="0.994" y="0.556" width="231.023" height="231.367"/>
			</defs>
			<clipPath id="SVGID_26_">
				<use xlink:href="#SVGID_25_"  overflow="visible"/>
			</clipPath>
			
				<line clip-path="url(#SVGID_26_)" fill="none" stroke="#7ACDEA" stroke-miterlimit="10" x1="170.822" y1="353.924" x2="-120.833" y2="61.842"/>
		</g>
		<g>
			<defs>
				<rect id="SVGID_27_" x="0.994" y="0.556" width="231.023" height="231.367"/>
			</defs>
			<clipPath id="SVGID_28_">
				<use xlink:href="#SVGID_27_"  overflow="visible"/>
			</clipPath>
			
				<line clip-path="url(#SVGID_28_)" fill="none" stroke="#7ACDEA" stroke-miterlimit="10" x1="175.181" y1="349.56" x2="-116.473" y2="57.479"/>
		</g>
		<g>
			<defs>
				<rect id="SVGID_29_" x="0.994" y="0.556" width="231.023" height="231.367"/>
			</defs>
			<clipPath id="SVGID_30_">
				<use xlink:href="#SVGID_29_"  overflow="visible"/>
			</clipPath>
			
				<line clip-path="url(#SVGID_30_)" fill="none" stroke="#7ACDEA" stroke-miterlimit="10" x1="179.539" y1="345.194" x2="-112.117" y2="53.113"/>
		</g>
		<g>
			<defs>
				<rect id="SVGID_31_" x="0.994" y="0.556" width="231.023" height="231.367"/>
			</defs>
			<clipPath id="SVGID_32_">
				<use xlink:href="#SVGID_31_"  overflow="visible"/>
			</clipPath>
			
				<line clip-path="url(#SVGID_32_)" fill="none" stroke="#7ACDEA" stroke-miterlimit="10" x1="183.895" y1="340.831" x2="-107.758" y2="48.75"/>
		</g>
		<g>
			<defs>
				<rect id="SVGID_33_" x="0.994" y="0.556" width="231.023" height="231.367"/>
			</defs>
			<clipPath id="SVGID_34_">
				<use xlink:href="#SVGID_33_"  overflow="visible"/>
			</clipPath>
			
				<line clip-path="url(#SVGID_34_)" fill="none" stroke="#7ACDEA" stroke-miterlimit="10" x1="188.253" y1="336.469" x2="-103.402" y2="44.385"/>
		</g>
		<g>
			<defs>
				<rect id="SVGID_35_" x="0.994" y="0.556" width="231.023" height="231.367"/>
			</defs>
			<clipPath id="SVGID_36_">
				<use xlink:href="#SVGID_35_"  overflow="visible"/>
			</clipPath>
			
				<line clip-path="url(#SVGID_36_)" fill="none" stroke="#7ACDEA" stroke-miterlimit="10" x1="192.613" y1="332.103" x2="-99.043" y2="40.023"/>
		</g>
		<g>
			<defs>
				<rect id="SVGID_37_" x="0.994" y="0.556" width="231.023" height="231.367"/>
			</defs>
			<clipPath id="SVGID_38_">
				<use xlink:href="#SVGID_37_"  overflow="visible"/>
			</clipPath>
			
				<line clip-path="url(#SVGID_38_)" fill="none" stroke="#7ACDEA" stroke-miterlimit="10" x1="196.968" y1="327.739" x2="-94.687" y2="35.657"/>
		</g>
		<g>
			<defs>
				<rect id="SVGID_39_" x="0.994" y="0.556" width="231.023" height="231.367"/>
			</defs>
			<clipPath id="SVGID_40_">
				<use xlink:href="#SVGID_39_"  overflow="visible"/>
			</clipPath>
			
				<line clip-path="url(#SVGID_40_)" fill="none" stroke="#7ACDEA" stroke-miterlimit="10" x1="201.327" y1="323.375" x2="-90.33" y2="31.294"/>
		</g>
		<g>
			<defs>
				<rect id="SVGID_41_" x="0.994" y="0.556" width="231.023" height="231.367"/>
			</defs>
			<clipPath id="SVGID_42_">
				<use xlink:href="#SVGID_41_"  overflow="visible"/>
			</clipPath>
			
				<line clip-path="url(#SVGID_42_)" fill="none" stroke="#7ACDEA" stroke-miterlimit="10" x1="205.684" y1="319.012" x2="-85.972" y2="26.932"/>
		</g>
		<g>
			<defs>
				<rect id="SVGID_43_" x="0.994" y="0.556" width="231.023" height="231.367"/>
			</defs>
			<clipPath id="SVGID_44_">
				<use xlink:href="#SVGID_43_"  overflow="visible"/>
			</clipPath>
			
				<line clip-path="url(#SVGID_44_)" fill="none" stroke="#7ACDEA" stroke-miterlimit="10" x1="210.044" y1="314.647" x2="-81.614" y2="22.566"/>
		</g>
		<g>
			<defs>
				<rect id="SVGID_45_" x="0.994" y="0.556" width="231.023" height="231.367"/>
			</defs>
			<clipPath id="SVGID_46_">
				<use xlink:href="#SVGID_45_"  overflow="visible"/>
			</clipPath>
			
				<line clip-path="url(#SVGID_46_)" fill="none" stroke="#7ACDEA" stroke-miterlimit="10" x1="214.399" y1="310.284" x2="-77.256" y2="18.202"/>
		</g>
		<g>
			<defs>
				<rect id="SVGID_47_" x="0.994" y="0.556" width="231.023" height="231.367"/>
			</defs>
			<clipPath id="SVGID_48_">
				<use xlink:href="#SVGID_47_"  overflow="visible"/>
			</clipPath>
			
				<line clip-path="url(#SVGID_48_)" fill="none" stroke="#7ACDEA" stroke-miterlimit="10" x1="218.756" y1="305.919" x2="-72.9" y2="13.839"/>
		</g>
		<g>
			<defs>
				<rect id="SVGID_49_" x="0.994" y="0.556" width="231.023" height="231.367"/>
			</defs>
			<clipPath id="SVGID_50_">
				<use xlink:href="#SVGID_49_"  overflow="visible"/>
			</clipPath>
			
				<line clip-path="url(#SVGID_50_)" fill="none" stroke="#7ACDEA" stroke-miterlimit="10" x1="223.115" y1="301.556" x2="-68.541" y2="9.472"/>
		</g>
		<g>
			<defs>
				<rect id="SVGID_51_" x="0.994" y="0.556" width="231.023" height="231.367"/>
			</defs>
			<clipPath id="SVGID_52_">
				<use xlink:href="#SVGID_51_"  overflow="visible"/>
			</clipPath>
			
				<line clip-path="url(#SVGID_52_)" fill="none" stroke="#7ACDEA" stroke-miterlimit="10" x1="227.471" y1="297.193" x2="-64.184" y2="5.11"/>
		</g>
		<g>
			<defs>
				<rect id="SVGID_53_" x="0.994" y="0.556" width="231.023" height="231.367"/>
			</defs>
			<clipPath id="SVGID_54_">
				<use xlink:href="#SVGID_53_"  overflow="visible"/>
			</clipPath>
			
				<line clip-path="url(#SVGID_54_)" fill="none" stroke="#7ACDEA" stroke-miterlimit="10" x1="231.83" y1="292.828" x2="-59.825" y2="0.746"/>
		</g>
		<g>
			<defs>
				<rect id="SVGID_55_" x="0.994" y="0.556" width="231.023" height="231.367"/>
			</defs>
			<clipPath id="SVGID_56_">
				<use xlink:href="#SVGID_55_"  overflow="visible"/>
			</clipPath>
			
				<line clip-path="url(#SVGID_56_)" fill="none" stroke="#7ACDEA" stroke-miterlimit="10" x1="236.187" y1="288.465" x2="-55.469" y2="-3.617"/>
		</g>
		<g>
			<defs>
				<rect id="SVGID_57_" x="0.994" y="0.556" width="231.023" height="231.367"/>
			</defs>
			<clipPath id="SVGID_58_">
				<use xlink:href="#SVGID_57_"  overflow="visible"/>
			</clipPath>
			
				<line clip-path="url(#SVGID_58_)" fill="none" stroke="#7ACDEA" stroke-miterlimit="10" x1="240.544" y1="284.101" x2="-51.111" y2="-7.982"/>
		</g>
		<g>
			<defs>
				<rect id="SVGID_59_" x="0.994" y="0.556" width="231.023" height="231.367"/>
			</defs>
			<clipPath id="SVGID_60_">
				<use xlink:href="#SVGID_59_"  overflow="visible"/>
			</clipPath>
			
				<line clip-path="url(#SVGID_60_)" fill="none" stroke="#7ACDEA" stroke-miterlimit="10" x1="244.902" y1="279.737" x2="-46.753" y2="-12.347"/>
		</g>
		<g>
			<defs>
				<rect id="SVGID_61_" x="0.994" y="0.556" width="231.023" height="231.367"/>
			</defs>
			<clipPath id="SVGID_62_">
				<use xlink:href="#SVGID_61_"  overflow="visible"/>
			</clipPath>
			
				<line clip-path="url(#SVGID_62_)" fill="none" stroke="#7ACDEA" stroke-miterlimit="10" x1="249.261" y1="275.373" x2="-42.397" y2="-16.708"/>
		</g>
		<g>
			<defs>
				<rect id="SVGID_63_" x="0.994" y="0.556" width="231.023" height="231.367"/>
			</defs>
			<clipPath id="SVGID_64_">
				<use xlink:href="#SVGID_63_"  overflow="visible"/>
			</clipPath>
			
				<line clip-path="url(#SVGID_64_)" fill="none" stroke="#7ACDEA" stroke-miterlimit="10" x1="253.617" y1="271.007" x2="-38.039" y2="-21.075"/>
		</g>
		<g>
			<defs>
				<rect id="SVGID_65_" x="0.994" y="0.556" width="231.023" height="231.367"/>
			</defs>
			<clipPath id="SVGID_66_">
				<use xlink:href="#SVGID_65_"  overflow="visible"/>
			</clipPath>
			
				<line clip-path="url(#SVGID_66_)" fill="none" stroke="#7ACDEA" stroke-miterlimit="10" x1="257.975" y1="266.645" x2="-33.681" y2="-25.436"/>
		</g>
		<g>
			<defs>
				<rect id="SVGID_67_" x="0.994" y="0.556" width="231.023" height="231.367"/>
			</defs>
			<clipPath id="SVGID_68_">
				<use xlink:href="#SVGID_67_"  overflow="visible"/>
			</clipPath>
			
				<line clip-path="url(#SVGID_68_)" fill="none" stroke="#7ACDEA" stroke-miterlimit="10" x1="262.333" y1="262.282" x2="-29.323" y2="-29.802"/>
		</g>
		<g>
			<defs>
				<rect id="SVGID_69_" x="0.994" y="0.556" width="231.023" height="231.367"/>
			</defs>
			<clipPath id="SVGID_70_">
				<use xlink:href="#SVGID_69_"  overflow="visible"/>
			</clipPath>
			
				<line clip-path="url(#SVGID_70_)" fill="none" stroke="#7ACDEA" stroke-miterlimit="10" x1="266.69" y1="257.915" x2="-24.966" y2="-34.166"/>
		</g>
		<g>
			<defs>
				<rect id="SVGID_71_" x="0.994" y="0.556" width="231.023" height="231.367"/>
			</defs>
			<clipPath id="SVGID_72_">
				<use xlink:href="#SVGID_71_"  overflow="visible"/>
			</clipPath>
			
				<line clip-path="url(#SVGID_72_)" fill="none" stroke="#7ACDEA" stroke-miterlimit="10" x1="271.048" y1="253.552" x2="-20.608" y2="-38.531"/>
		</g>
		<g>
			<defs>
				<rect id="SVGID_73_" x="0.994" y="0.556" width="231.023" height="231.367"/>
			</defs>
			<clipPath id="SVGID_74_">
				<use xlink:href="#SVGID_73_"  overflow="visible"/>
			</clipPath>
			
				<line clip-path="url(#SVGID_74_)" fill="none" stroke="#7ACDEA" stroke-miterlimit="10" x1="275.404" y1="249.188" x2="-16.25" y2="-42.894"/>
		</g>
		<g>
			<defs>
				<rect id="SVGID_75_" x="0.994" y="0.556" width="231.023" height="231.367"/>
			</defs>
			<clipPath id="SVGID_76_">
				<use xlink:href="#SVGID_75_"  overflow="visible"/>
			</clipPath>
			
				<line clip-path="url(#SVGID_76_)" fill="none" stroke="#7ACDEA" stroke-miterlimit="10" x1="279.762" y1="244.824" x2="-11.893" y2="-47.256"/>
		</g>
		<g>
			<defs>
				<rect id="SVGID_77_" x="0.994" y="0.556" width="231.023" height="231.367"/>
			</defs>
			<clipPath id="SVGID_78_">
				<use xlink:href="#SVGID_77_"  overflow="visible"/>
			</clipPath>
			
				<line clip-path="url(#SVGID_78_)" fill="none" stroke="#7ACDEA" stroke-miterlimit="10" x1="284.121" y1="240.46" x2="-7.535" y2="-51.622"/>
		</g>
		<g>
			<defs>
				<rect id="SVGID_79_" x="0.994" y="0.556" width="231.023" height="231.367"/>
			</defs>
			<clipPath id="SVGID_80_">
				<use xlink:href="#SVGID_79_"  overflow="visible"/>
			</clipPath>
			
				<line clip-path="url(#SVGID_80_)" fill="none" stroke="#7ACDEA" stroke-miterlimit="10" x1="288.478" y1="236.096" x2="-3.175" y2="-55.985"/>
		</g>
		<g>
			<defs>
				<rect id="SVGID_81_" x="0.994" y="0.556" width="231.023" height="231.367"/>
			</defs>
			<clipPath id="SVGID_82_">
				<use xlink:href="#SVGID_81_"  overflow="visible"/>
			</clipPath>
			
				<line clip-path="url(#SVGID_82_)" fill="none" stroke="#7ACDEA" stroke-miterlimit="10" x1="292.836" y1="231.734" x2="1.181" y2="-60.349"/>
		</g>
		<g>
			<defs>
				<rect id="SVGID_83_" x="0.994" y="0.556" width="231.023" height="231.367"/>
			</defs>
			<clipPath id="SVGID_84_">
				<use xlink:href="#SVGID_83_"  overflow="visible"/>
			</clipPath>
			
				<line clip-path="url(#SVGID_84_)" fill="none" stroke="#7ACDEA" stroke-miterlimit="10" x1="297.193" y1="227.368" x2="5.54" y2="-64.713"/>
		</g>
		<g>
			<defs>
				<rect id="SVGID_85_" x="0.994" y="0.556" width="231.023" height="231.367"/>
			</defs>
			<clipPath id="SVGID_86_">
				<use xlink:href="#SVGID_85_"  overflow="visible"/>
			</clipPath>
			
				<line clip-path="url(#SVGID_86_)" fill="none" stroke="#7ACDEA" stroke-miterlimit="10" x1="301.551" y1="223.005" x2="9.898" y2="-69.077"/>
		</g>
		<g>
			<defs>
				<rect id="SVGID_87_" x="0.994" y="0.556" width="231.023" height="231.367"/>
			</defs>
			<clipPath id="SVGID_88_">
				<use xlink:href="#SVGID_87_"  overflow="visible"/>
			</clipPath>
			
				<line clip-path="url(#SVGID_88_)" fill="none" stroke="#7ACDEA" stroke-miterlimit="10" x1="305.91" y1="218.64" x2="14.253" y2="-73.44"/>
		</g>
		<g>
			<defs>
				<rect id="SVGID_89_" x="0.994" y="0.556" width="231.023" height="231.367"/>
			</defs>
			<clipPath id="SVGID_90_">
				<use xlink:href="#SVGID_89_"  overflow="visible"/>
			</clipPath>
			
				<line clip-path="url(#SVGID_90_)" fill="none" stroke="#7ACDEA" stroke-miterlimit="10" x1="310.265" y1="214.274" x2="18.612" y2="-77.807"/>
		</g>
		<g>
			<defs>
				<rect id="SVGID_91_" x="0.994" y="0.556" width="231.023" height="231.367"/>
			</defs>
			<clipPath id="SVGID_92_">
				<use xlink:href="#SVGID_91_"  overflow="visible"/>
			</clipPath>
			
				<line clip-path="url(#SVGID_92_)" fill="none" stroke="#7ACDEA" stroke-miterlimit="10" x1="314.624" y1="209.914" x2="22.969" y2="-82.168"/>
		</g>
		<g>
			<defs>
				<rect id="SVGID_93_" x="0.994" y="0.556" width="231.023" height="231.367"/>
			</defs>
			<clipPath id="SVGID_94_">
				<use xlink:href="#SVGID_93_"  overflow="visible"/>
			</clipPath>
			
				<line clip-path="url(#SVGID_94_)" fill="none" stroke="#7ACDEA" stroke-miterlimit="10" x1="318.982" y1="205.549" x2="27.329" y2="-86.534"/>
		</g>
		<g>
			<defs>
				<rect id="SVGID_95_" x="0.994" y="0.556" width="231.023" height="231.367"/>
			</defs>
			<clipPath id="SVGID_96_">
				<use xlink:href="#SVGID_95_"  overflow="visible"/>
			</clipPath>
			
				<line clip-path="url(#SVGID_96_)" fill="none" stroke="#7ACDEA" stroke-miterlimit="10" x1="323.337" y1="201.185" x2="31.683" y2="-90.896"/>
		</g>
		<g>
			<defs>
				<rect id="SVGID_97_" x="0.994" y="0.556" width="231.023" height="231.367"/>
			</defs>
			<clipPath id="SVGID_98_">
				<use xlink:href="#SVGID_97_"  overflow="visible"/>
			</clipPath>
			
				<line clip-path="url(#SVGID_98_)" fill="none" stroke="#7ACDEA" stroke-miterlimit="10" x1="327.696" y1="196.821" x2="36.043" y2="-95.262"/>
		</g>
		<g>
			<defs>
				<rect id="SVGID_99_" x="0.994" y="0.556" width="231.023" height="231.367"/>
			</defs>
			<clipPath id="SVGID_100_">
				<use xlink:href="#SVGID_99_"  overflow="visible"/>
			</clipPath>
			
				<line clip-path="url(#SVGID_100_)" fill="none" stroke="#7ACDEA" stroke-miterlimit="10" x1="332.055" y1="192.456" x2="40.4" y2="-99.626"/>
		</g>
		<g>
			<defs>
				<rect id="SVGID_101_" x="0.994" y="0.556" width="231.023" height="231.367"/>
			</defs>
			<clipPath id="SVGID_102_">
				<use xlink:href="#SVGID_101_"  overflow="visible"/>
			</clipPath>
			
				<line clip-path="url(#SVGID_102_)" fill="none" stroke="#7ACDEA" stroke-miterlimit="10" x1="336.411" y1="188.093" x2="44.758" y2="-103.987"/>
		</g>
		<g>
			<defs>
				<rect id="SVGID_103_" x="0.994" y="0.556" width="231.023" height="231.367"/>
			</defs>
			<clipPath id="SVGID_104_">
				<use xlink:href="#SVGID_103_"  overflow="visible"/>
			</clipPath>
			
				<line clip-path="url(#SVGID_104_)" fill="none" stroke="#7ACDEA" stroke-miterlimit="10" x1="340.77" y1="183.728" x2="49.114" y2="-108.354"/>
		</g>
		<g>
			<defs>
				<rect id="SVGID_105_" x="0.994" y="0.556" width="231.023" height="231.367"/>
			</defs>
			<clipPath id="SVGID_106_">
				<use xlink:href="#SVGID_105_"  overflow="visible"/>
			</clipPath>
			
				<line clip-path="url(#SVGID_106_)" fill="none" stroke="#7ACDEA" stroke-miterlimit="10" x1="345.127" y1="179.365" x2="53.474" y2="-112.715"/>
		</g>
		<g>
			<defs>
				<rect id="SVGID_107_" x="0.994" y="0.556" width="231.023" height="231.367"/>
			</defs>
			<clipPath id="SVGID_108_">
				<use xlink:href="#SVGID_107_"  overflow="visible"/>
			</clipPath>
			
				<line clip-path="url(#SVGID_108_)" fill="none" stroke="#7ACDEA" stroke-miterlimit="10" x1="349.482" y1="175" x2="57.83" y2="-117.081"/>
		</g>
		<g>
			<defs>
				<rect id="SVGID_109_" x="0.994" y="0.556" width="231.023" height="231.367"/>
			</defs>
			<clipPath id="SVGID_110_">
				<use xlink:href="#SVGID_109_"  overflow="visible"/>
			</clipPath>
			
				<line clip-path="url(#SVGID_110_)" fill="none" stroke="#7ACDEA" stroke-miterlimit="10" x1="353.842" y1="170.637" x2="62.189" y2="-121.445"/>
		</g>
		<g>
			<defs>
				<rect id="SVGID_111_" x="0.994" y="0.556" width="231.023" height="231.367"/>
			</defs>
			<clipPath id="SVGID_112_">
				<use xlink:href="#SVGID_111_"  overflow="visible"/>
			</clipPath>
			
				<line clip-path="url(#SVGID_112_)" fill="none" stroke="#7ACDEA" stroke-miterlimit="10" x1="358.199" y1="166.272" x2="66.545" y2="-125.809"/>
		</g>
		<g>
			<defs>
				<rect id="SVGID_113_" x="0.994" y="0.556" width="231.023" height="231.367"/>
			</defs>
			<clipPath id="SVGID_114_">
				<use xlink:href="#SVGID_113_"  overflow="visible"/>
			</clipPath>
			
				<line clip-path="url(#SVGID_114_)" fill="none" stroke="#7ACDEA" stroke-miterlimit="10" x1="362.557" y1="161.908" x2="70.902" y2="-130.173"/>
		</g>
		<g>
			<defs>
				<rect id="SVGID_115_" x="0.994" y="0.556" width="231.023" height="231.367"/>
			</defs>
			<clipPath id="SVGID_116_">
				<use xlink:href="#SVGID_115_"  overflow="visible"/>
			</clipPath>
			
				<line clip-path="url(#SVGID_116_)" fill="none" stroke="#7ACDEA" stroke-miterlimit="10" x1="366.913" y1="157.545" x2="75.261" y2="-134.537"/>
		</g>
		<g>
			<defs>
				<rect id="SVGID_117_" x="0.994" y="0.556" width="231.023" height="231.367"/>
			</defs>
			<clipPath id="SVGID_118_">
				<use xlink:href="#SVGID_117_"  overflow="visible"/>
			</clipPath>
			
				<line clip-path="url(#SVGID_118_)" fill="none" stroke="#7ACDEA" stroke-miterlimit="10" x1="371.273" y1="153.181" x2="79.62" y2="-138.902"/>
		</g>
		<g>
			<defs>
				<rect id="SVGID_119_" x="0.994" y="0.556" width="231.023" height="231.367"/>
			</defs>
			<clipPath id="SVGID_120_">
				<use xlink:href="#SVGID_119_"  overflow="visible"/>
			</clipPath>
			
				<line clip-path="url(#SVGID_120_)" fill="none" stroke="#7ACDEA" stroke-miterlimit="10" x1="375.628" y1="148.816" x2="83.977" y2="-143.267"/>
		</g>
		<g>
			<defs>
				<rect id="SVGID_121_" x="0.994" y="0.556" width="231.023" height="231.367"/>
			</defs>
			<clipPath id="SVGID_122_">
				<use xlink:href="#SVGID_121_"  overflow="visible"/>
			</clipPath>
			
				<line clip-path="url(#SVGID_122_)" fill="none" stroke="#7ACDEA" stroke-miterlimit="10" x1="379.986" y1="144.452" x2="88.332" y2="-147.629"/>
		</g>
		<g>
			<defs>
				<rect id="SVGID_123_" x="0.994" y="0.556" width="231.023" height="231.367"/>
			</defs>
			<clipPath id="SVGID_124_">
				<use xlink:href="#SVGID_123_"  overflow="visible"/>
			</clipPath>
			
				<line clip-path="url(#SVGID_124_)" fill="none" stroke="#7ACDEA" stroke-miterlimit="10" x1="384.344" y1="140.088" x2="92.692" y2="-151.995"/>
		</g>
		<g>
			<defs>
				<rect id="SVGID_125_" x="0.994" y="0.556" width="231.023" height="231.367"/>
			</defs>
			<clipPath id="SVGID_126_">
				<use xlink:href="#SVGID_125_"  overflow="visible"/>
			</clipPath>
			
				<line clip-path="url(#SVGID_126_)" fill="none" stroke="#7ACDEA" stroke-miterlimit="10" x1="388.702" y1="135.726" x2="97.048" y2="-156.357"/>
		</g>
		<g>
			<defs>
				<rect id="SVGID_127_" x="0.994" y="0.556" width="231.023" height="231.367"/>
			</defs>
			<clipPath id="SVGID_128_">
				<use xlink:href="#SVGID_127_"  overflow="visible"/>
			</clipPath>
			
				<line clip-path="url(#SVGID_128_)" fill="none" stroke="#7ACDEA" stroke-miterlimit="10" x1="393.059" y1="131.362" x2="101.408" y2="-160.72"/>
		</g>
		<g>
			<defs>
				<rect id="SVGID_129_" x="0.994" y="0.556" width="231.023" height="231.367"/>
			</defs>
			<clipPath id="SVGID_130_">
				<use xlink:href="#SVGID_129_"  overflow="visible"/>
			</clipPath>
			
				<line clip-path="url(#SVGID_130_)" fill="none" stroke="#7ACDEA" stroke-miterlimit="10" x1="397.419" y1="126.995" x2="105.763" y2="-165.087"/>
		</g>
		<g>
			<defs>
				<rect id="SVGID_131_" x="0.994" y="0.556" width="231.023" height="231.367"/>
			</defs>
			<clipPath id="SVGID_132_">
				<use xlink:href="#SVGID_131_"  overflow="visible"/>
			</clipPath>
			
				<line clip-path="url(#SVGID_132_)" fill="none" stroke="#7ACDEA" stroke-miterlimit="10" x1="401.774" y1="122.634" x2="110.122" y2="-169.448"/>
		</g>
		<g>
			<defs>
				<rect id="SVGID_133_" x="0.994" y="0.556" width="231.023" height="231.367"/>
			</defs>
			<clipPath id="SVGID_134_">
				<use xlink:href="#SVGID_133_"  overflow="visible"/>
			</clipPath>
			
				<line clip-path="url(#SVGID_134_)" fill="none" stroke="#7ACDEA" stroke-miterlimit="10" x1="406.131" y1="118.267" x2="114.479" y2="-173.814"/>
		</g>
	</g>
	<g>
		<g>
			<defs>
				<rect id="SVGID_135_" x="1.269" y="0.28" width="231.3" height="231.918"/>
			</defs>
			<clipPath id="SVGID_136_">
				<use xlink:href="#SVGID_135_"  overflow="visible"/>
			</clipPath>
			
				<line clip-path="url(#SVGID_136_)" fill="none" stroke="#7ACDEA" stroke-miterlimit="10" x1="-172.426" y1="118.274" x2="118.526" y2="-174.514"/>
		</g>
		<g>
			<defs>
				<rect id="SVGID_137_" x="1.269" y="0.28" width="231.3" height="231.918"/>
			</defs>
			<clipPath id="SVGID_138_">
				<use xlink:href="#SVGID_137_"  overflow="visible"/>
			</clipPath>
			
				<line clip-path="url(#SVGID_138_)" fill="none" stroke="#7ACDEA" stroke-miterlimit="10" x1="-168.078" y1="122.649" x2="122.875" y2="-170.137"/>
		</g>
		<g>
			<defs>
				<rect id="SVGID_139_" x="1.269" y="0.28" width="231.3" height="231.918"/>
			</defs>
			<clipPath id="SVGID_140_">
				<use xlink:href="#SVGID_139_"  overflow="visible"/>
			</clipPath>
			
				<line clip-path="url(#SVGID_140_)" fill="none" stroke="#7ACDEA" stroke-miterlimit="10" x1="-163.732" y1="127.025" x2="127.221" y2="-165.761"/>
		</g>
		<g>
			<defs>
				<rect id="SVGID_141_" x="1.269" y="0.28" width="231.3" height="231.918"/>
			</defs>
			<clipPath id="SVGID_142_">
				<use xlink:href="#SVGID_141_"  overflow="visible"/>
			</clipPath>
			
				<line clip-path="url(#SVGID_142_)" fill="none" stroke="#7ACDEA" stroke-miterlimit="10" x1="-159.386" y1="131.397" x2="131.569" y2="-161.39"/>
		</g>
		<g>
			<defs>
				<rect id="SVGID_143_" x="1.269" y="0.28" width="231.3" height="231.918"/>
			</defs>
			<clipPath id="SVGID_144_">
				<use xlink:href="#SVGID_143_"  overflow="visible"/>
			</clipPath>
			
				<line clip-path="url(#SVGID_144_)" fill="none" stroke="#7ACDEA" stroke-miterlimit="10" x1="-155.037" y1="135.773" x2="135.916" y2="-157.013"/>
		</g>
		<g>
			<defs>
				<rect id="SVGID_145_" x="1.269" y="0.28" width="231.3" height="231.918"/>
			</defs>
			<clipPath id="SVGID_146_">
				<use xlink:href="#SVGID_145_"  overflow="visible"/>
			</clipPath>
			
				<line clip-path="url(#SVGID_146_)" fill="none" stroke="#7ACDEA" stroke-miterlimit="10" x1="-150.691" y1="140.147" x2="140.264" y2="-152.639"/>
		</g>
		<g>
			<defs>
				<rect id="SVGID_147_" x="1.269" y="0.28" width="231.3" height="231.918"/>
			</defs>
			<clipPath id="SVGID_148_">
				<use xlink:href="#SVGID_147_"  overflow="visible"/>
			</clipPath>
			
				<line clip-path="url(#SVGID_148_)" fill="none" stroke="#7ACDEA" stroke-miterlimit="10" x1="-146.343" y1="144.522" x2="144.61" y2="-148.266"/>
		</g>
		<g>
			<defs>
				<rect id="SVGID_149_" x="1.269" y="0.28" width="231.3" height="231.918"/>
			</defs>
			<clipPath id="SVGID_150_">
				<use xlink:href="#SVGID_149_"  overflow="visible"/>
			</clipPath>
			
				<line clip-path="url(#SVGID_150_)" fill="none" stroke="#7ACDEA" stroke-miterlimit="10" x1="-141.996" y1="148.896" x2="148.957" y2="-143.891"/>
		</g>
		<g>
			<defs>
				<rect id="SVGID_151_" x="1.269" y="0.28" width="231.3" height="231.918"/>
			</defs>
			<clipPath id="SVGID_152_">
				<use xlink:href="#SVGID_151_"  overflow="visible"/>
			</clipPath>
			
				<line clip-path="url(#SVGID_152_)" fill="none" stroke="#7ACDEA" stroke-miterlimit="10" x1="-137.649" y1="153.27" x2="153.304" y2="-139.516"/>
		</g>
		<g>
			<defs>
				<rect id="SVGID_153_" x="1.269" y="0.28" width="231.3" height="231.918"/>
			</defs>
			<clipPath id="SVGID_154_">
				<use xlink:href="#SVGID_153_"  overflow="visible"/>
			</clipPath>
			
				<line clip-path="url(#SVGID_154_)" fill="none" stroke="#7ACDEA" stroke-miterlimit="10" x1="-133.302" y1="157.644" x2="157.651" y2="-135.142"/>
		</g>
		<g>
			<defs>
				<rect id="SVGID_155_" x="1.269" y="0.28" width="231.3" height="231.918"/>
			</defs>
			<clipPath id="SVGID_156_">
				<use xlink:href="#SVGID_155_"  overflow="visible"/>
			</clipPath>
			
				<line clip-path="url(#SVGID_156_)" fill="none" stroke="#7ACDEA" stroke-miterlimit="10" x1="-128.956" y1="162.018" x2="161.998" y2="-130.768"/>
		</g>
		<g>
			<defs>
				<rect id="SVGID_157_" x="1.269" y="0.28" width="231.3" height="231.918"/>
			</defs>
			<clipPath id="SVGID_158_">
				<use xlink:href="#SVGID_157_"  overflow="visible"/>
			</clipPath>
			
				<line clip-path="url(#SVGID_158_)" fill="none" stroke="#7ACDEA" stroke-miterlimit="10" x1="-124.608" y1="166.395" x2="166.347" y2="-126.391"/>
		</g>
		<g>
			<defs>
				<rect id="SVGID_159_" x="1.269" y="0.28" width="231.3" height="231.918"/>
			</defs>
			<clipPath id="SVGID_160_">
				<use xlink:href="#SVGID_159_"  overflow="visible"/>
			</clipPath>
			
				<line clip-path="url(#SVGID_160_)" fill="none" stroke="#7ACDEA" stroke-miterlimit="10" x1="-120.262" y1="170.766" x2="170.693" y2="-122.02"/>
		</g>
		<g>
			<defs>
				<rect id="SVGID_161_" x="1.269" y="0.28" width="231.3" height="231.918"/>
			</defs>
			<clipPath id="SVGID_162_">
				<use xlink:href="#SVGID_161_"  overflow="visible"/>
			</clipPath>
			
				<line clip-path="url(#SVGID_162_)" fill="none" stroke="#7ACDEA" stroke-miterlimit="10" x1="-115.914" y1="175.143" x2="175.038" y2="-117.643"/>
		</g>
		<g>
			<defs>
				<rect id="SVGID_163_" x="1.269" y="0.28" width="231.3" height="231.918"/>
			</defs>
			<clipPath id="SVGID_164_">
				<use xlink:href="#SVGID_163_"  overflow="visible"/>
			</clipPath>
			
				<line clip-path="url(#SVGID_164_)" fill="none" stroke="#7ACDEA" stroke-miterlimit="10" x1="-111.565" y1="179.517" x2="179.388" y2="-113.269"/>
		</g>
		<g>
			<defs>
				<rect id="SVGID_165_" x="1.269" y="0.28" width="231.3" height="231.918"/>
			</defs>
			<clipPath id="SVGID_166_">
				<use xlink:href="#SVGID_165_"  overflow="visible"/>
			</clipPath>
			
				<line clip-path="url(#SVGID_166_)" fill="none" stroke="#7ACDEA" stroke-miterlimit="10" x1="-107.219" y1="183.891" x2="183.733" y2="-108.893"/>
		</g>
		<g>
			<defs>
				<rect id="SVGID_167_" x="1.269" y="0.28" width="231.3" height="231.918"/>
			</defs>
			<clipPath id="SVGID_168_">
				<use xlink:href="#SVGID_167_"  overflow="visible"/>
			</clipPath>
			
				<line clip-path="url(#SVGID_168_)" fill="none" stroke="#7ACDEA" stroke-miterlimit="10" x1="-102.873" y1="188.265" x2="188.082" y2="-104.521"/>
		</g>
		<g>
			<defs>
				<rect id="SVGID_169_" x="1.269" y="0.28" width="231.3" height="231.918"/>
			</defs>
			<clipPath id="SVGID_170_">
				<use xlink:href="#SVGID_169_"  overflow="visible"/>
			</clipPath>
			
				<line clip-path="url(#SVGID_170_)" fill="none" stroke="#7ACDEA" stroke-miterlimit="10" x1="-98.525" y1="192.641" x2="192.427" y2="-100.145"/>
		</g>
		<g>
			<defs>
				<rect id="SVGID_171_" x="1.269" y="0.28" width="231.3" height="231.918"/>
			</defs>
			<clipPath id="SVGID_172_">
				<use xlink:href="#SVGID_171_"  overflow="visible"/>
			</clipPath>
			
				<line clip-path="url(#SVGID_172_)" fill="none" stroke="#7ACDEA" stroke-miterlimit="10" x1="-94.177" y1="197.014" x2="196.776" y2="-95.77"/>
		</g>
		<g>
			<defs>
				<rect id="SVGID_173_" x="1.269" y="0.28" width="231.3" height="231.918"/>
			</defs>
			<clipPath id="SVGID_174_">
				<use xlink:href="#SVGID_173_"  overflow="visible"/>
			</clipPath>
			
				<line clip-path="url(#SVGID_174_)" fill="none" stroke="#7ACDEA" stroke-miterlimit="10" x1="-89.83" y1="201.39" x2="201.123" y2="-91.398"/>
		</g>
		<g>
			<defs>
				<rect id="SVGID_175_" x="1.269" y="0.28" width="231.3" height="231.918"/>
			</defs>
			<clipPath id="SVGID_176_">
				<use xlink:href="#SVGID_175_"  overflow="visible"/>
			</clipPath>
			
				<line clip-path="url(#SVGID_176_)" fill="none" stroke="#7ACDEA" stroke-miterlimit="10" x1="-85.484" y1="205.764" x2="205.467" y2="-87.022"/>
		</g>
		<g>
			<defs>
				<rect id="SVGID_177_" x="1.269" y="0.28" width="231.3" height="231.918"/>
			</defs>
			<clipPath id="SVGID_178_">
				<use xlink:href="#SVGID_177_"  overflow="visible"/>
			</clipPath>
			
				<line clip-path="url(#SVGID_178_)" fill="none" stroke="#7ACDEA" stroke-miterlimit="10" x1="-81.136" y1="210.14" x2="209.817" y2="-82.648"/>
		</g>
		<g>
			<defs>
				<rect id="SVGID_179_" x="1.269" y="0.28" width="231.3" height="231.918"/>
			</defs>
			<clipPath id="SVGID_180_">
				<use xlink:href="#SVGID_179_"  overflow="visible"/>
			</clipPath>
			
				<line clip-path="url(#SVGID_180_)" fill="none" stroke="#7ACDEA" stroke-miterlimit="10" x1="-76.79" y1="214.512" x2="214.164" y2="-78.274"/>
		</g>
		<g>
			<defs>
				<rect id="SVGID_181_" x="1.269" y="0.28" width="231.3" height="231.918"/>
			</defs>
			<clipPath id="SVGID_182_">
				<use xlink:href="#SVGID_181_"  overflow="visible"/>
			</clipPath>
			
				<line clip-path="url(#SVGID_182_)" fill="none" stroke="#7ACDEA" stroke-miterlimit="10" x1="-72.442" y1="218.887" x2="218.51" y2="-73.899"/>
		</g>
		<g>
			<defs>
				<rect id="SVGID_183_" x="1.269" y="0.28" width="231.3" height="231.918"/>
			</defs>
			<clipPath id="SVGID_184_">
				<use xlink:href="#SVGID_183_"  overflow="visible"/>
			</clipPath>
			
				<line clip-path="url(#SVGID_184_)" fill="none" stroke="#7ACDEA" stroke-miterlimit="10" x1="-68.095" y1="223.262" x2="222.86" y2="-69.524"/>
		</g>
		<g>
			<defs>
				<rect id="SVGID_185_" x="1.269" y="0.28" width="231.3" height="231.918"/>
			</defs>
			<clipPath id="SVGID_186_">
				<use xlink:href="#SVGID_185_"  overflow="visible"/>
			</clipPath>
			
				<line clip-path="url(#SVGID_186_)" fill="none" stroke="#7ACDEA" stroke-miterlimit="10" x1="-63.749" y1="227.635" x2="227.205" y2="-65.151"/>
		</g>
		<g>
			<defs>
				<rect id="SVGID_187_" x="1.269" y="0.28" width="231.3" height="231.918"/>
			</defs>
			<clipPath id="SVGID_188_">
				<use xlink:href="#SVGID_187_"  overflow="visible"/>
			</clipPath>
			
				<line clip-path="url(#SVGID_188_)" fill="none" stroke="#7ACDEA" stroke-miterlimit="10" x1="-59.401" y1="232.011" x2="231.552" y2="-60.775"/>
		</g>
		<g>
			<defs>
				<rect id="SVGID_189_" x="1.269" y="0.28" width="231.3" height="231.918"/>
			</defs>
			<clipPath id="SVGID_190_">
				<use xlink:href="#SVGID_189_"  overflow="visible"/>
			</clipPath>
			
				<line clip-path="url(#SVGID_190_)" fill="none" stroke="#7ACDEA" stroke-miterlimit="10" x1="-55.055" y1="236.386" x2="235.899" y2="-56.4"/>
		</g>
		<g>
			<defs>
				<rect id="SVGID_191_" x="1.269" y="0.28" width="231.3" height="231.918"/>
			</defs>
			<clipPath id="SVGID_192_">
				<use xlink:href="#SVGID_191_"  overflow="visible"/>
			</clipPath>
			
				<line clip-path="url(#SVGID_192_)" fill="none" stroke="#7ACDEA" stroke-miterlimit="10" x1="-50.708" y1="240.76" x2="240.246" y2="-52.027"/>
		</g>
		<g>
			<defs>
				<rect id="SVGID_193_" x="1.269" y="0.28" width="231.3" height="231.918"/>
			</defs>
			<clipPath id="SVGID_194_">
				<use xlink:href="#SVGID_193_"  overflow="visible"/>
			</clipPath>
			
				<line clip-path="url(#SVGID_194_)" fill="none" stroke="#7ACDEA" stroke-miterlimit="10" x1="-46.361" y1="245.133" x2="244.595" y2="-47.653"/>
		</g>
		<g>
			<defs>
				<rect id="SVGID_195_" x="1.269" y="0.28" width="231.3" height="231.918"/>
			</defs>
			<clipPath id="SVGID_196_">
				<use xlink:href="#SVGID_195_"  overflow="visible"/>
			</clipPath>
			
				<line clip-path="url(#SVGID_196_)" fill="none" stroke="#7ACDEA" stroke-miterlimit="10" x1="-42.014" y1="249.51" x2="248.939" y2="-43.278"/>
		</g>
		<g>
			<defs>
				<rect id="SVGID_197_" x="1.269" y="0.28" width="231.3" height="231.918"/>
			</defs>
			<clipPath id="SVGID_198_">
				<use xlink:href="#SVGID_197_"  overflow="visible"/>
			</clipPath>
			
				<line clip-path="url(#SVGID_198_)" fill="none" stroke="#7ACDEA" stroke-miterlimit="10" x1="-37.664" y1="253.882" x2="253.289" y2="-38.904"/>
		</g>
		<g>
			<defs>
				<rect id="SVGID_199_" x="1.269" y="0.28" width="231.3" height="231.918"/>
			</defs>
			<clipPath id="SVGID_200_">
				<use xlink:href="#SVGID_199_"  overflow="visible"/>
			</clipPath>
			
				<line clip-path="url(#SVGID_200_)" fill="none" stroke="#7ACDEA" stroke-miterlimit="10" x1="-33.32" y1="258.259" x2="257.633" y2="-34.529"/>
		</g>
		<g>
			<defs>
				<rect id="SVGID_201_" x="1.269" y="0.28" width="231.3" height="231.918"/>
			</defs>
			<clipPath id="SVGID_202_">
				<use xlink:href="#SVGID_201_"  overflow="visible"/>
			</clipPath>
			
				<line clip-path="url(#SVGID_202_)" fill="none" stroke="#7ACDEA" stroke-miterlimit="10" x1="-28.973" y1="262.632" x2="261.982" y2="-30.154"/>
		</g>
		<g>
			<defs>
				<rect id="SVGID_203_" x="1.269" y="0.28" width="231.3" height="231.918"/>
			</defs>
			<clipPath id="SVGID_204_">
				<use xlink:href="#SVGID_203_"  overflow="visible"/>
			</clipPath>
			
				<line clip-path="url(#SVGID_204_)" fill="none" stroke="#7ACDEA" stroke-miterlimit="10" x1="-24.624" y1="267.007" x2="266.33" y2="-25.781"/>
		</g>
		<g>
			<defs>
				<rect id="SVGID_205_" x="1.269" y="0.28" width="231.3" height="231.918"/>
			</defs>
			<clipPath id="SVGID_206_">
				<use xlink:href="#SVGID_205_"  overflow="visible"/>
			</clipPath>
			
				<line clip-path="url(#SVGID_206_)" fill="none" stroke="#7ACDEA" stroke-miterlimit="10" x1="-20.277" y1="271.381" x2="270.677" y2="-21.405"/>
		</g>
		<g>
			<defs>
				<rect id="SVGID_207_" x="1.269" y="0.28" width="231.3" height="231.918"/>
			</defs>
			<clipPath id="SVGID_208_">
				<use xlink:href="#SVGID_207_"  overflow="visible"/>
			</clipPath>
			
				<line clip-path="url(#SVGID_208_)" fill="none" stroke="#7ACDEA" stroke-miterlimit="10" x1="-15.929" y1="275.755" x2="275.024" y2="-17.031"/>
		</g>
		<g>
			<defs>
				<rect id="SVGID_209_" x="1.269" y="0.28" width="231.3" height="231.918"/>
			</defs>
			<clipPath id="SVGID_210_">
				<use xlink:href="#SVGID_209_"  overflow="visible"/>
			</clipPath>
			
				<line clip-path="url(#SVGID_210_)" fill="none" stroke="#7ACDEA" stroke-miterlimit="10" x1="-11.583" y1="280.129" x2="279.368" y2="-12.657"/>
		</g>
		<g>
			<defs>
				<rect id="SVGID_211_" x="1.269" y="0.28" width="231.3" height="231.918"/>
			</defs>
			<clipPath id="SVGID_212_">
				<use xlink:href="#SVGID_211_"  overflow="visible"/>
			</clipPath>
			
				<line clip-path="url(#SVGID_212_)" fill="none" stroke="#7ACDEA" stroke-miterlimit="10" x1="-7.235" y1="284.505" x2="283.718" y2="-8.283"/>
		</g>
		<g>
			<defs>
				<rect id="SVGID_213_" x="1.269" y="0.28" width="231.3" height="231.918"/>
			</defs>
			<clipPath id="SVGID_214_">
				<use xlink:href="#SVGID_213_"  overflow="visible"/>
			</clipPath>
			
				<line clip-path="url(#SVGID_214_)" fill="none" stroke="#7ACDEA" stroke-miterlimit="10" x1="-2.889" y1="288.88" x2="288.065" y2="-3.904"/>
		</g>
		<g>
			<defs>
				<rect id="SVGID_215_" x="1.269" y="0.28" width="231.3" height="231.918"/>
			</defs>
			<clipPath id="SVGID_216_">
				<use xlink:href="#SVGID_215_"  overflow="visible"/>
			</clipPath>
			
				<line clip-path="url(#SVGID_216_)" fill="none" stroke="#7ACDEA" stroke-miterlimit="10" x1="1.457" y1="293.254" x2="292.411" y2="0.468"/>
		</g>
		<g>
			<defs>
				<rect id="SVGID_217_" x="1.269" y="0.28" width="231.3" height="231.918"/>
			</defs>
			<clipPath id="SVGID_218_">
				<use xlink:href="#SVGID_217_"  overflow="visible"/>
			</clipPath>
			
				<line clip-path="url(#SVGID_218_)" fill="none" stroke="#7ACDEA" stroke-miterlimit="10" x1="5.806" y1="297.628" x2="296.759" y2="4.843"/>
		</g>
		<g>
			<defs>
				<rect id="SVGID_219_" x="1.269" y="0.28" width="231.3" height="231.918"/>
			</defs>
			<clipPath id="SVGID_220_">
				<use xlink:href="#SVGID_219_"  overflow="visible"/>
			</clipPath>
			
				<line clip-path="url(#SVGID_220_)" fill="none" stroke="#7ACDEA" stroke-miterlimit="10" x1="10.152" y1="302.002" x2="301.105" y2="9.218"/>
		</g>
		<g>
			<defs>
				<rect id="SVGID_221_" x="1.269" y="0.28" width="231.3" height="231.918"/>
			</defs>
			<clipPath id="SVGID_222_">
				<use xlink:href="#SVGID_221_"  overflow="visible"/>
			</clipPath>
			
				<line clip-path="url(#SVGID_222_)" fill="none" stroke="#7ACDEA" stroke-miterlimit="10" x1="14.5" y1="306.378" x2="305.452" y2="13.592"/>
		</g>
		<g>
			<defs>
				<rect id="SVGID_223_" x="1.269" y="0.28" width="231.3" height="231.918"/>
			</defs>
			<clipPath id="SVGID_224_">
				<use xlink:href="#SVGID_223_"  overflow="visible"/>
			</clipPath>
			
				<line clip-path="url(#SVGID_224_)" fill="none" stroke="#7ACDEA" stroke-miterlimit="10" x1="18.849" y1="310.751" x2="309.802" y2="17.967"/>
		</g>
		<g>
			<defs>
				<rect id="SVGID_225_" x="1.269" y="0.28" width="231.3" height="231.918"/>
			</defs>
			<clipPath id="SVGID_226_">
				<use xlink:href="#SVGID_225_"  overflow="visible"/>
			</clipPath>
			
				<line clip-path="url(#SVGID_226_)" fill="none" stroke="#7ACDEA" stroke-miterlimit="10" x1="23.193" y1="315.126" x2="314.146" y2="22.34"/>
		</g>
		<g>
			<defs>
				<rect id="SVGID_227_" x="1.269" y="0.28" width="231.3" height="231.918"/>
			</defs>
			<clipPath id="SVGID_228_">
				<use xlink:href="#SVGID_227_"  overflow="visible"/>
			</clipPath>
			
				<line clip-path="url(#SVGID_228_)" fill="none" stroke="#7ACDEA" stroke-miterlimit="10" x1="27.54" y1="319.501" x2="318.495" y2="26.717"/>
		</g>
		<g>
			<defs>
				<rect id="SVGID_229_" x="1.269" y="0.28" width="231.3" height="231.918"/>
			</defs>
			<clipPath id="SVGID_230_">
				<use xlink:href="#SVGID_229_"  overflow="visible"/>
			</clipPath>
			
				<line clip-path="url(#SVGID_230_)" fill="none" stroke="#7ACDEA" stroke-miterlimit="10" x1="31.888" y1="323.873" x2="322.84" y2="31.089"/>
		</g>
		<g>
			<defs>
				<rect id="SVGID_231_" x="1.269" y="0.28" width="231.3" height="231.918"/>
			</defs>
			<clipPath id="SVGID_232_">
				<use xlink:href="#SVGID_231_"  overflow="visible"/>
			</clipPath>
			
				<line clip-path="url(#SVGID_232_)" fill="none" stroke="#7ACDEA" stroke-miterlimit="10" x1="36.235" y1="328.249" x2="327.19" y2="35.465"/>
		</g>
		<g>
			<defs>
				<rect id="SVGID_233_" x="1.269" y="0.28" width="231.3" height="231.918"/>
			</defs>
			<clipPath id="SVGID_234_">
				<use xlink:href="#SVGID_233_"  overflow="visible"/>
			</clipPath>
			
				<line clip-path="url(#SVGID_234_)" fill="none" stroke="#7ACDEA" stroke-miterlimit="10" x1="40.583" y1="332.625" x2="331.536" y2="39.839"/>
		</g>
		<g>
			<defs>
				<rect id="SVGID_235_" x="1.269" y="0.28" width="231.3" height="231.918"/>
			</defs>
			<clipPath id="SVGID_236_">
				<use xlink:href="#SVGID_235_"  overflow="visible"/>
			</clipPath>
			
				<line clip-path="url(#SVGID_236_)" fill="none" stroke="#7ACDEA" stroke-miterlimit="10" x1="44.929" y1="336.997" x2="335.881" y2="44.213"/>
		</g>
		<g>
			<defs>
				<rect id="SVGID_237_" x="1.269" y="0.28" width="231.3" height="231.918"/>
			</defs>
			<clipPath id="SVGID_238_">
				<use xlink:href="#SVGID_237_"  overflow="visible"/>
			</clipPath>
			
				<line clip-path="url(#SVGID_238_)" fill="none" stroke="#7ACDEA" stroke-miterlimit="10" x1="49.277" y1="341.374" x2="340.231" y2="48.588"/>
		</g>
		<g>
			<defs>
				<rect id="SVGID_239_" x="1.269" y="0.28" width="231.3" height="231.918"/>
			</defs>
			<clipPath id="SVGID_240_">
				<use xlink:href="#SVGID_239_"  overflow="visible"/>
			</clipPath>
			
				<line clip-path="url(#SVGID_240_)" fill="none" stroke="#7ACDEA" stroke-miterlimit="10" x1="53.622" y1="345.748" x2="344.575" y2="52.964"/>
		</g>
		<g>
			<defs>
				<rect id="SVGID_241_" x="1.269" y="0.28" width="231.3" height="231.918"/>
			</defs>
			<clipPath id="SVGID_242_">
				<use xlink:href="#SVGID_241_"  overflow="visible"/>
			</clipPath>
			
				<line clip-path="url(#SVGID_242_)" fill="none" stroke="#7ACDEA" stroke-miterlimit="10" x1="57.972" y1="350.12" x2="348.924" y2="57.338"/>
		</g>
		<g>
			<defs>
				<rect id="SVGID_243_" x="1.269" y="0.28" width="231.3" height="231.918"/>
			</defs>
			<clipPath id="SVGID_244_">
				<use xlink:href="#SVGID_243_"  overflow="visible"/>
			</clipPath>
			
				<line clip-path="url(#SVGID_244_)" fill="none" stroke="#7ACDEA" stroke-miterlimit="10" x1="62.318" y1="354.496" x2="353.271" y2="61.712"/>
		</g>
		<g>
			<defs>
				<rect id="SVGID_245_" x="1.269" y="0.28" width="231.3" height="231.918"/>
			</defs>
			<clipPath id="SVGID_246_">
				<use xlink:href="#SVGID_245_"  overflow="visible"/>
			</clipPath>
			
				<line clip-path="url(#SVGID_246_)" fill="none" stroke="#7ACDEA" stroke-miterlimit="10" x1="66.665" y1="358.87" x2="357.618" y2="66.086"/>
		</g>
		<g>
			<defs>
				<rect id="SVGID_247_" x="1.269" y="0.28" width="231.3" height="231.918"/>
			</defs>
			<clipPath id="SVGID_248_">
				<use xlink:href="#SVGID_247_"  overflow="visible"/>
			</clipPath>
			
				<line clip-path="url(#SVGID_248_)" fill="none" stroke="#7ACDEA" stroke-miterlimit="10" x1="71.012" y1="363.245" x2="361.965" y2="70.461"/>
		</g>
		<g>
			<defs>
				<rect id="SVGID_249_" x="1.269" y="0.28" width="231.3" height="231.918"/>
			</defs>
			<clipPath id="SVGID_250_">
				<use xlink:href="#SVGID_249_"  overflow="visible"/>
			</clipPath>
			
				<line clip-path="url(#SVGID_250_)" fill="none" stroke="#7ACDEA" stroke-miterlimit="10" x1="75.358" y1="367.619" x2="366.312" y2="74.834"/>
		</g>
		<g>
			<defs>
				<rect id="SVGID_251_" x="1.269" y="0.28" width="231.3" height="231.918"/>
			</defs>
			<clipPath id="SVGID_252_">
				<use xlink:href="#SVGID_251_"  overflow="visible"/>
			</clipPath>
			
				<line clip-path="url(#SVGID_252_)" fill="none" stroke="#7ACDEA" stroke-miterlimit="10" x1="79.706" y1="371.995" x2="370.66" y2="79.211"/>
		</g>
		<g>
			<defs>
				<rect id="SVGID_253_" x="1.269" y="0.28" width="231.3" height="231.918"/>
			</defs>
			<clipPath id="SVGID_254_">
				<use xlink:href="#SVGID_253_"  overflow="visible"/>
			</clipPath>
			
				<line clip-path="url(#SVGID_254_)" fill="none" stroke="#7ACDEA" stroke-miterlimit="10" x1="84.053" y1="376.367" x2="375.008" y2="83.585"/>
		</g>
		<g>
			<defs>
				<rect id="SVGID_255_" x="1.269" y="0.28" width="231.3" height="231.918"/>
			</defs>
			<clipPath id="SVGID_256_">
				<use xlink:href="#SVGID_255_"  overflow="visible"/>
			</clipPath>
			
				<line clip-path="url(#SVGID_256_)" fill="none" stroke="#7ACDEA" stroke-miterlimit="10" x1="88.401" y1="380.742" x2="379.353" y2="87.957"/>
		</g>
		<g>
			<defs>
				<rect id="SVGID_257_" x="1.269" y="0.28" width="231.3" height="231.918"/>
			</defs>
			<clipPath id="SVGID_258_">
				<use xlink:href="#SVGID_257_"  overflow="visible"/>
			</clipPath>
			
				<line clip-path="url(#SVGID_258_)" fill="none" stroke="#7ACDEA" stroke-miterlimit="10" x1="92.747" y1="385.118" x2="383.702" y2="92.333"/>
		</g>
		<g>
			<defs>
				<rect id="SVGID_259_" x="1.269" y="0.28" width="231.3" height="231.918"/>
			</defs>
			<clipPath id="SVGID_260_">
				<use xlink:href="#SVGID_259_"  overflow="visible"/>
			</clipPath>
			
				<line clip-path="url(#SVGID_260_)" fill="none" stroke="#7ACDEA" stroke-miterlimit="10" x1="97.094" y1="389.491" x2="388.047" y2="96.707"/>
		</g>
		<g>
			<defs>
				<rect id="SVGID_261_" x="1.269" y="0.28" width="231.3" height="231.918"/>
			</defs>
			<clipPath id="SVGID_262_">
				<use xlink:href="#SVGID_261_"  overflow="visible"/>
			</clipPath>
			
				<line clip-path="url(#SVGID_262_)" fill="none" stroke="#7ACDEA" stroke-miterlimit="10" x1="101.441" y1="393.866" x2="392.394" y2="101.084"/>
		</g>
		<g>
			<defs>
				<rect id="SVGID_263_" x="1.269" y="0.28" width="231.3" height="231.918"/>
			</defs>
			<clipPath id="SVGID_264_">
				<use xlink:href="#SVGID_263_"  overflow="visible"/>
			</clipPath>
			
				<line clip-path="url(#SVGID_264_)" fill="none" stroke="#7ACDEA" stroke-miterlimit="10" x1="105.79" y1="398.242" x2="396.743" y2="105.456"/>
		</g>
		<g>
			<defs>
				<rect id="SVGID_265_" x="1.269" y="0.28" width="231.3" height="231.918"/>
			</defs>
			<clipPath id="SVGID_266_">
				<use xlink:href="#SVGID_265_"  overflow="visible"/>
			</clipPath>
			
				<line clip-path="url(#SVGID_266_)" fill="none" stroke="#7ACDEA" stroke-miterlimit="10" x1="110.135" y1="402.615" x2="401.088" y2="109.832"/>
		</g>
		<g>
			<defs>
				<rect id="SVGID_267_" x="1.269" y="0.28" width="231.3" height="231.918"/>
			</defs>
			<clipPath id="SVGID_268_">
				<use xlink:href="#SVGID_267_"  overflow="visible"/>
			</clipPath>
			
				<line clip-path="url(#SVGID_268_)" fill="none" stroke="#7ACDEA" stroke-miterlimit="10" x1="114.484" y1="406.988" x2="405.436" y2="114.206"/>
		</g>
	</g>
	<g>
		<rect x="112.695" y="159.452" fill="#A56F00" width="5.962" height="33.585"/>
	</g>
	<rect x="112.666" y="158.727" fill="#A54800" width="5.992" height="4.361"/>
	<g>
		<path fill="#F76C1E" d="M116.312,160.365h-2.402v-0.052c-18.64-0.806-34.299-11.037-45.404-29.713
			c-8.585-14.438-11.399-28.673-11.515-29.271l5.854-1.142c0.026,0.139,2.773,13.938,10.864,27.484
			c10.345,17.317,24.265,26.293,41.393,26.694c41.525-0.989,52.173-53.639,52.275-54.176l5.854,1.14
			c-0.116,0.599-2.931,14.833-11.515,29.271c-11.106,18.676-26.765,28.908-45.404,29.713L116.312,160.365L116.312,160.365z"/>
	</g>
	<g>
		<g>
			<path fill="none" d="M115.001,24.761c-30.501,0-55.314,24.911-55.314,55.528c0,30.619,24.814,55.53,55.314,55.53
				c30.5,0,55.314-24.911,55.314-55.53C170.315,49.672,145.501,24.761,115.001,24.761z"/>
		</g>
		<path fill="#8CA3AA" d="M169.573,57.147c-2.983-7.082-7.253-13.44-12.692-18.898c-5.441-5.461-11.774-9.748-18.826-12.743
			c-4.738-2.012-9.669-3.369-14.731-4.081v4.469c26.291,4.037,46.495,26.893,46.495,54.395c0,30.345-24.591,55.031-54.817,55.031
			s-54.817-24.686-54.817-55.031c0-27.502,20.204-50.358,46.495-54.395v-4.469c-5.062,0.712-9.994,2.069-14.731,4.081
			c-7.053,2.995-13.387,7.282-18.825,12.743c-5.44,5.46-9.71,11.817-12.692,18.898c-3.089,7.33-4.656,15.115-4.656,23.142
			c0,8.028,1.566,15.814,4.656,23.143c2.982,7.081,7.253,13.44,12.692,18.899c5.44,5.461,11.774,9.747,18.825,12.742
			c7.302,3.1,15.058,4.673,23.054,4.673s15.752-1.572,23.054-4.673c7.054-2.995,13.387-7.282,18.826-12.742
			c5.439-5.461,9.71-11.819,12.692-18.899c3.089-7.33,4.655-15.115,4.655-23.143C174.227,72.262,172.661,64.477,169.573,57.147z"/>
		<path fill="#D9D4DB" d="M123.323,18.353V21.8c5.011,0.71,9.895,2.057,14.586,4.049c7.009,2.976,13.303,7.236,18.708,12.661
			s9.648,11.744,12.612,18.78c3.07,7.284,4.625,15.022,4.625,22.997s-1.555,15.714-4.625,22.998
			c-2.964,7.036-7.208,13.355-12.612,18.781c-5.405,5.426-11.699,9.686-18.708,12.661c-7.255,3.081-14.963,4.643-22.909,4.643
			s-15.653-1.562-22.909-4.643c-7.009-2.976-13.303-7.235-18.708-12.661c-5.404-5.426-9.648-11.745-12.612-18.781
			c-3.069-7.284-4.625-15.023-4.625-22.998s1.556-15.713,4.625-22.997c2.964-7.036,7.209-13.354,12.612-18.78
			c5.405-5.426,11.699-9.686,18.708-12.661c4.691-1.992,9.575-3.34,14.586-4.049v-3.448c-30.413,4.099-53.948,30.301-53.948,61.936
			c0,34.47,27.934,62.513,62.27,62.513s62.27-28.043,62.27-62.513C177.271,48.654,153.737,22.452,123.323,18.353z"/>
	</g>
	<rect x="105.905" y="21.763" fill="#A2BCC5" width="1.739" height="5.861"/>
	<rect x="105.905" y="16.04" fill="#FFFFFF" width="1.739" height="5.861"/>
	<rect x="121.681" y="21.714" fill="#A2BCC5" width="1.739" height="5.861"/>
	<rect x="121.681" y="15.992" fill="#FFFFFF" width="1.739" height="5.861"/>
	<path fill="#FE6F00" d="M110.812,13.743c-1.749,0-3.168,1.203-3.168,2.688v5.534h6.335V16.43
		C113.979,14.946,112.561,13.743,110.812,13.743z"/>
	<path fill="#A56F00" d="M110.812,30.095c1.749,0,3.168-1.203,3.168-2.688v-5.534h-6.335v5.534
		C107.644,28.892,109.063,30.095,110.812,30.095z"/>
	<path fill="#FE6F00" d="M118.514,13.743c-1.749,0-3.168,1.203-3.168,2.688v5.534h6.335V16.43
		C121.681,14.946,120.263,13.743,118.514,13.743z"/>
	<path fill="#A56F00" d="M118.514,30.095c1.749,0,3.168-1.203,3.168-2.688v-5.534h-6.335v5.534
		C115.346,28.892,116.765,30.095,118.514,30.095z"/>
	<g>
		<ellipse fill="#0A5A90" cx="115.239" cy="81.265" rx="49.709" ry="49.153"/>
		<g id="Continents" transform="matrix(1.41985, 0, 0, 1.41985, 15.322, -182.215)">
			<polyline id="svg_3" fill="#76CAB9" points="71.319,207.204 71.189,207.574 71.143,209.208 70.805,209.964 69.577,210.406 
				69.046,211.446 69.071,212.965 70.032,213.699 71.482,214.577 73.07,216.139 74.106,217.358 74.929,217.406 75.007,218.302 
				74.607,219.204 74.757,219.825 74.844,219.894 78.405,219.187 81.838,218.152 85.144,216.761 89.045,214.603 92.5,212.064 
				92.562,211.036 93.15,209.507 94.229,207.977 94.835,207.072 93.94,206.394 93.461,206.327 92.308,206.834 90.052,207.348 
				88.206,207.594 86.688,205.828 84.288,205.873 82.514,205.566 80.45,204.697 78.814,205.075 76.565,205.112 75.678,205.536 
				74.03,204.957 72.939,205.457 71.998,206.226 71.471,206.772 70.627,206.596 69.324,206.48 68.221,205.673 68.015,205.121 
				68.339,204.156 68.402,203.334 67.644,202.786 66.483,202.467 65.183,202.487 65.033,201.867 65.439,201.1 65.632,199.787 
				64.864,199.322 63.849,199.68 63.444,200.377 62.7,200.597 61.732,200.269 60.418,199.197 60.274,197.823 60.455,196.579 
				61.54,195.111 62.97,194.808 63.864,194.929 64.477,195.269 65.093,195.188 65.779,194.827 66.936,194.94 68.034,195.406 
				68.806,196.563 69.427,197.446 70.109,197.232 69.895,196.134 69.469,195.239 69.662,194.135 70.197,193.228 71.544,192.245 
				72.357,191.542 72.416,190.236 72.95,188.774 73.617,187.79 74.095,187.652 74.364,186.958 75.029,185.914 75.641,185.626 
				76.261,185.956 76.734,185.404 77.754,184.831 78.496,184.404 78.214,183.717 77.19,183.877 76.712,183.74 76.64,182.994 
				75.953,182.797 75.275,183.352 74.527,183.716 74.451,183.376 75.193,182.6 76.414,181.962 77.171,181.881 78.197,181.442 
				78.523,180.683 78.169,179.717 77.133,178.5 75.266,177.082 74.168,176.964 73.551,176.841 72.928,176.028 71.078,175.236 
				70.395,175.449 70.403,176.624 70.491,178.138 70.98,178.676 70.577,179.302 70.395,180.619 70.199,181.796 69.437,181.113 
				68.887,180.231 68.804,179.2 67.91,178.802 66.534,178.48 66.043,177.735 66.163,176.144 66.973,174.884 68.259,173.631 
				69.412,172.776 69.941,172.084 69.323,171.405 68.504,171.698 67.615,171.432 67.464,170.533 67.383,169.71 66.77,169.72 
				66.584,170.904 66.034,171.392 65.566,171.056 65.539,169.607 65.188,168.658 64.428,168.256 63.808,167.297 62.783,167.386 
				62.171,167.952 62.93,168.617 63.084,169.443 63.977,170.118 63.853,171.019 61.086,168.864 59.641,167.58 58.875,166.488 
				58.869,165.519 58.574,164.225 57.949,163.951 56.793,163.972 56.313,164.256 55.696,164.132 55.016,164.203 54.755,164.902 
				54.484,165.387 53.177,165.141 52.367,165.701 51.903,166.679 51.636,167.504 50.887,167.386 50.122,166.778 50.406,167.67 
				51.58,168.201 52.882,168.665 53.983,169.266 54.407,170.422 54.491,171.73 54.04,173.667 53.443,175.675 53.324,177.265 
				53.342,178.167 53.56,179.12 52.748,180.101 52.008,181.361 51.279,183.023 50.96,185.027 50.721,187.857 51.008,188.884 
				51.579,190.804 52.003,192.31 52.642,194.098 53.468,194.979 54.16,195.238 53.466,194.423 53.107,193.395 52.895,192.225 
				52.678,191.2 53.217,191.054 53.501,191.875 54,193.866 55.054,195.984 55.344,197.147 55.073,197.912 55.71,198.863 
				56.943,199.462 58.812,201.155 59.97,201.618 61.763,202.2 63.815,203.061 64.853,203.741 65.818,204.608 66.592,206.317 
				68.102,206.913 69.069,207.24 70.16,207.091 71.319,207.204 			"/>
			<polyline id="svg_4" fill="#76CAB9" points="67.466,199.417 68.285,199.055 69.59,199.374 71.096,199.835 72.254,199.949 
				73.291,200.421 73.022,200.968 71.793,201.133 70.767,200.389 69.522,199.785 67.466,199.417 			"/>
			<polyline id="svg_5" fill="#76CAB9" points="73.634,200.753 73.581,201.305 74.471,201.641 75.293,201.76 76.722,201.532 
				75.759,200.986 75.824,200.647 75.269,200.448 73.634,200.753 			"/>
			<polyline id="svg_6" fill="#76CAB9" points="78.73,180.609 79.213,181.085 80.113,181.825 81.072,182.629 81.355,183.244 
				79.846,183.278 78.885,182.195 78.533,181.434 78.73,180.609 			"/>
			<polyline id="svg_7" fill="#76CAB9" points="72.303,175.009 71.413,174.744 70.316,174.554 71.401,173.713 71.455,172.535 
				70.964,171.79 69.66,171.398 68.766,170.999 67.867,169.838 68.609,169.133 69.642,169.402 70.946,170.072 72.186,170.731 
				72.676,171.826 73.09,172.159 74.117,172.625 74.75,173.722 74.204,174.346 74.019,175.249 73.204,175.398 72.303,175.009 			"/>
			<polyline id="svg_8" fill="#76CAB9" points="77.283,173.95 78.519,174.753 79.073,175.025 80.301,174.655 81.79,174.142 
				80.351,173.621 79.866,172.865 79.986,171.553 80.095,169.284 80.908,168.51 80.895,167.273 79.585,165.986 78.202,164.974 
				76.548,164.45 75.179,163.581 73.6,163.541 72.377,163.972 71.768,164.744 71.081,164.826 71.019,164.275 70.057,164.287 
				68.905,164.792 69.113,165.55 68.584,166.87 69.145,167.689 70.233,168.355 70.704,166.691 71.238,166.065 71.601,167.225 
				72.558,168.175 73.452,168.574 74.839,169.646 76.015,170.732 76.307,172.799 77.136,173.258 77.283,173.95 			"/>
			<polyline id="svg_9" fill="#76CAB9" points="81.929,168.285 82.088,169.452 82.497,170.072 83.248,170.397 84.201,169.284 
				84.588,167.892 83.764,167.287 82.875,167.579 82.473,168.131 81.929,168.285 			"/>
			<polyline id="svg_10" fill="#76CAB9" points="96.429,162.584 96.917,163.752 96.861,164.914 97.143,165.878 98.112,166.485 
				98.043,167.245 97.232,167.526 96.686,167.475 95.945,167.831 97.454,168.498 97.257,169.118 95.886,169.137 96.033,169.9 
				96.384,170.85 96.403,171.958 97.029,172.976 97.516,173.939 98.279,174.62 97.94,175.094 97.81,175.583 97.548,176.63 
				96.737,177.264 95.431,176.46 95.354,175.695 94.586,175.025 94.579,174.056 95.249,173.352 95.177,172.328 93.933,172.002 
				93.319,172.012 92.905,171.33 93.025,169.74 92.118,168.034 91.222,167.428 90.93,166.34 90.699,164.825 89.594,163.183 
				89.304,161.951 88.408,161.626 87.456,161.086 86.898,160.753 86.561,161.109 87.048,161.649 86.238,162.279 86.986,162.471 
				87.821,163.081 88.719,163.966 89.82,164.566 88.729,165.065 88.397,165.764 87.433,165.569 86.271,164.972 85.356,163.465 
				84.664,162.928 83.088,162.135 81.917,161.532 81.09,160.372 82.033,159.809 83.739,159.505 83.531,158.745 82.844,158.549 
				82.644,158.964 81.472,158.991 81.671,158.226 80.92,157.901 80.433,157.216 79.056,156.34 76.984,154.926 76.571,155.149 
				76.181,155.635 75.293,155.926 74.734,155.663 73.709,155.474 72.347,155.573 71.666,155.991 70.236,156.222 68.937,156.036 
				68.04,155.709 67.903,155.023 66.527,154.983 65.988,155.476 64.555,155.572 63.256,155.868 63.267,156.621 62.587,157.041 
				61.152,157.21 60.616,157.633 60.825,158.319 60.211,158.68 58.505,158.911 58.379,159.534 58.322,160.301 57.777,160.645 
				56.831,161.63 56.151,162.329 55.278,163.038 54.186,163.26 54.457,162.846 54.991,162.012 54.844,161.526 53.965,161.545 
				53.478,160.861 53.054,160.173 53.729,159.412 54.469,158.779 55.082,158.696 55.631,157.652 55.472,156.487 56.29,156.122 
				57.437,155.557 57.497,154.249 56.872,153.698 56.256,153.502 59.441,152.357 62.117,151.607 64.714,151.102 67.968,150.729 
				70.862,150.655 74.25,150.879 78.458,151.6 82.571,152.845 85.373,154.059 88.266,155.593 90.71,157.195 93.005,158.923 
				95.019,160.825 96.372,162.256 96.429,162.584 			"/>
			<polyline id="svg_11" fill="#76CAB9" points="88.479,166.793 87.867,167.081 88.14,167.691 88.777,168.644 88.986,169.331 
				89.272,170.356 90.243,171.169 90.917,171.224 90.645,170.616 89.806,169.872 89.737,169.449 90.564,169.792 91.463,170.253 
				92.282,170.517 92.277,169.827 92.305,169.758 92.335,169.689 92.353,169.611 92.354,169.539 92.357,169.396 92.343,169.254 
				92.311,169.118 92.288,169.017 92.266,168.959 92.259,168.926 91.711,168.597 89.993,167.871 89.237,167.529 88.479,166.793 			
				"/>
			<polyline id="svg_12" fill="#76CAB9" points="98.784,165.285 98.724,166.196 99.011,167.223 98.738,167.783 98.267,167.795 
				98.682,168.476 99.516,169.554 99.596,171.007 98.848,170.814 98.366,170.893 98.252,172.545 98.338,173.988 98.141,174.68 
				98.218,175.926 97.815,176.622 97.563,177.515 97.979,178.755 98.683,180.392 98.629,181.571 98.592,183.986 98.894,186.175 
				99.461,187.962 100.368,189.946 101.546,191.237 102.922,191.56 103.722,190.294 104.266,189.465 105.011,189.128 
				105.191,186.905 105.213,184.845 105.124,182.729 104.861,180.245 104.303,177.326 103.611,174.833 102.83,172.62 
				101.855,170.419 100.856,168.465 99.643,166.509 98.784,165.285 			"/>
		</g>
		<g>
			<path fill="#76CAB9" d="M78.933,92.331c0.049-0.067,0.11-0.03,0.166-0.034c0.009,0,0.021,0.013,0.026,0.022
				c0.033,0.056,0.057,0.112,0.043,0.181c-0.004,0.023-0.001,0.049,0.001,0.073c0.001,0.01,0.008,0.023,0.016,0.026
				c0.028,0.012,0.049,0.029,0.051,0.062c0,0.004,0.002,0.011,0.006,0.013c0.068,0.047,0.112,0.122,0.2,0.148
				c0.042,0.011,0.075,0.054,0.111,0.083c0.005,0.005,0.009,0.017,0.006,0.023c-0.023,0.082-0.056,0.155-0.125,0.213
				c-0.077,0.063-0.141,0.144-0.215,0.209c-0.054,0.047-0.108,0.1-0.173,0.123c-0.058,0.022-0.106,0.05-0.154,0.085
				c-0.02,0.015-0.038,0.033-0.06,0.038c-0.068,0.018-0.13,0.057-0.203,0.048c-0.014-0.001-0.029-0.001-0.04-0.008
				c-0.044-0.029-0.09-0.026-0.137-0.01c-0.013,0.003-0.026,0.01-0.034,0.019c-0.037,0.039-0.068,0.084-0.107,0.118
				c-0.035,0.029-0.076,0.055-0.118,0.069c-0.04,0.015-0.068,0.037-0.086,0.072c-0.023,0.044-0.056,0.073-0.109,0.074
				c-0.022,0-0.045,0.007-0.047,0.037c0,0.005-0.009,0.012-0.014,0.016c-0.026,0.03-0.055,0.058-0.078,0.089
				c-0.008,0.011-0.007,0.03-0.007,0.046c0.001,0.043-0.02,0.075-0.045,0.109c-0.028,0.038-0.041,0.086-0.063,0.128
				c-0.007,0.014-0.021,0.022-0.033,0.033c-0.007,0.007-0.018,0.011-0.021,0.018c-0.021,0.06-0.068,0.096-0.116,0.13
				c-0.032,0.023-0.048,0.019-0.051-0.021c-0.007-0.079-0.072-0.101-0.123-0.131c-0.051-0.029-0.097-0.062-0.135-0.105
				c-0.009-0.01-0.021-0.018-0.033-0.021c-0.035-0.008-0.07-0.016-0.103-0.023c-0.033-0.009-0.056-0.024-0.061-0.064
				c-0.004-0.029-0.02-0.061-0.039-0.082c-0.04-0.044-0.043-0.094-0.038-0.146c0.014-0.118,0.029-0.234,0.043-0.353
				c0.01-0.071,0.021-0.145,0.021-0.215c0.001-0.038-0.019-0.076-0.031-0.114c-0.03-0.089-0.062-0.179-0.06-0.275
				c-0.058-0.025-0.086-0.085-0.075-0.152c0.001-0.006,0.004-0.011,0.003-0.015c-0.019-0.068-0.038-0.135-0.058-0.201
				c-0.002-0.008-0.007-0.016-0.007-0.021c0.002-0.034-0.019-0.05-0.047-0.059c-0.034-0.012-0.048-0.034-0.045-0.071
				c0.001-0.017-0.012-0.034-0.021-0.052c-0.007-0.016-0.017-0.028-0.022-0.045c-0.007-0.016-0.011-0.032-0.016-0.049
				c-0.003-0.009-0.01-0.019-0.007-0.024c0.024-0.072-0.008-0.161,0.078-0.215c0.039-0.025,0.062-0.076,0.091-0.116
				c0.025-0.035,0.056-0.057,0.099-0.048c0.024,0.004,0.03-0.005,0.032-0.027c0.001-0.015,0.011-0.029,0.019-0.042
				c0.017-0.03,0.035-0.059,0.054-0.088c0.029-0.048,0.059-0.094,0.088-0.141c0.006-0.007,0.017-0.01,0.024-0.017
				c0.011-0.011,0.027-0.023,0.03-0.037c0.012-0.061,0.011-0.118-0.032-0.171c-0.035-0.044-0.071-0.089-0.094-0.14
				c-0.019-0.042-0.021-0.093-0.029-0.141c-0.002-0.012,0.004-0.026-0.001-0.037c-0.021-0.054-0.01-0.109-0.005-0.165
				c0.008-0.079,0.082-0.146,0.16-0.133c0.033,0.006,0.065,0.03,0.096,0.044c0.017,0.008,0.034,0.014,0.05,0.022
				c0.025,0.015,0.052,0.029,0.076,0.047c0.024,0.017,0.047,0.035,0.045,0.07c-0.001,0.004,0.007,0.01,0.012,0.014
				c0.032,0.019,0.065,0.036,0.096,0.057c0.022,0.014,0.042,0.031,0.062,0.047c0.026,0.018,0.053,0.033,0.078,0.052
				c0.014,0.01,0.025,0.023,0.034,0.037c0.011,0.02,0.023,0.024,0.042,0.014c0.033-0.02,0.063-0.012,0.096,0
				c0.066,0.026,0.135,0.047,0.2,0.075c0.041,0.018,0.079,0.045,0.117,0.066c0.04,0.023,0.079,0.048,0.119,0.07
				c0.029,0.018,0.059,0.034,0.088,0.053c0.003,0.001,0.005,0.005,0.009,0.007c0.088,0.024,0.141,0.104,0.218,0.147
				c0.048,0.028,0.08,0.079,0.125,0.11c0.065,0.045,0.084,0.125,0.144,0.175c0.041,0.033,0.033,0.083,0.031,0.131
				c-0.004,0.079,0,0.157,0.002,0.235C78.924,92.309,78.928,92.316,78.933,92.331z"/>
			<path fill="#76CAB9" d="M75.404,90.33c-0.03-0.012-0.061-0.021-0.089-0.033c-0.018-0.008-0.035-0.017-0.048-0.03
				c-0.021-0.021-0.039-0.041-0.075-0.036c-0.014,0.002-0.034-0.016-0.045-0.03c-0.021-0.024-0.033-0.055-0.053-0.078
				c-0.037-0.042-0.072-0.085-0.068-0.146c0-0.006-0.001-0.011-0.004-0.016c-0.04-0.08-0.009-0.151,0.023-0.223
				c0.018-0.038,0.036-0.071,0.078-0.088c0.009-0.003,0.013-0.017,0.021-0.025c0.007-0.007,0.015-0.02,0.022-0.02
				c0.023-0.002,0.05,0.007,0.064-0.021c0.001-0.001,0.012,0,0.017,0.003c0.018,0.015,0.035,0.027,0.05,0.044
				c0.013,0.013,0.021,0.03,0.032,0.045c0.007,0.008,0.015,0.016,0.023,0.02c0.028,0.015,0.046,0.031,0.055,0.065
				c0.011,0.043,0.034,0.083,0.057,0.121c0.021,0.035,0.048,0.066,0.07,0.101c0.013,0.021,0.022,0.034,0.053,0.024
				c0.051-0.018,0.103-0.024,0.155-0.04c0.026-0.008,0.051-0.023,0.075-0.038c0.038-0.022,0.074-0.047,0.109-0.07
				c0.004-0.001,0.008-0.004,0.011-0.003c0.043,0.015,0.089-0.006,0.131,0.021c0.017,0.01,0.039,0.013,0.06,0.014
				c0.026,0.001,0.047,0.002,0.05,0.035c0.001,0.008,0.005,0.015,0.01,0.02c0.034,0.036,0.069,0.07,0.103,0.105
				c0.019,0.018,0.034,0.04,0.056,0.054c0.019,0.012,0.043,0.021,0.065,0.021c0.025-0.002,0.034,0.007,0.041,0.03
				c0.005,0.017,0.017,0.031,0.025,0.048c0.013,0.022,0.032,0.03,0.058,0.022c0.025-0.007,0.046-0.004,0.062,0.023
				c0.008,0.014,0.03,0.023,0.047,0.025c0.061,0.009,0.11,0.039,0.144,0.088c0.018,0.026,0.022,0.069,0.018,0.103
				c-0.005,0.043-0.023,0.085-0.043,0.123c-0.008,0.018-0.03,0.027-0.046,0.041c-0.018,0.017-0.046,0.028-0.052,0.049
				c-0.012,0.046-0.048,0.043-0.079,0.057c-0.037,0.016-0.071,0.039-0.102,0.064c-0.025,0.021-0.047,0.044-0.082,0.026
				c-0.007-0.003-0.015-0.004-0.021-0.002c-0.026,0.009-0.048,0.008-0.071-0.013c-0.025-0.021-0.087-0.006-0.118,0.024
				c-0.04,0.038-0.095,0.049-0.138,0.079c-0.045,0.029-0.09,0.017-0.134,0.03c-0.036,0.011-0.073,0.024-0.109,0.032
				c-0.04,0.008-0.076,0-0.099-0.04c-0.008-0.013-0.028-0.019-0.041-0.028c-0.01-0.007-0.025-0.017-0.024-0.024
				c0.004-0.027,0.01-0.053-0.022-0.069c-0.002,0-0.002-0.01,0.001-0.013c0.036-0.034,0.021-0.077,0.016-0.115
				c-0.009-0.072-0.025-0.145-0.035-0.215c-0.003-0.021-0.003-0.043-0.001-0.063c0.003-0.048-0.017-0.091-0.049-0.104
				c-0.065-0.027-0.092-0.021-0.134,0.025c-0.004,0.005-0.009,0.009-0.014,0.014C75.405,90.337,75.404,90.334,75.404,90.33z"/>
			<path fill="#76CAB9" d="M72.96,88.917c-0.003-0.015-0.006-0.025-0.008-0.038c-0.004-0.018-0.014-0.038-0.01-0.056
				c0.006-0.023,0.027-0.017,0.047-0.014c0.017,0.003,0.035-0.001,0.053-0.001c0.011,0,0.027-0.002,0.03,0.004
				c0.006,0.01,0.005,0.024,0.001,0.035c-0.006,0.017-0.02,0.028-0.024,0.045c-0.01,0.034-0.004,0.062,0.039,0.072
				c0.032,0.01,0.038,0.044,0.033,0.071c-0.011,0.068,0.012,0.113,0.075,0.141c0.017,0.008,0.029,0.022,0.045,0.033
				c0.027,0.019,0.031,0.045,0.007,0.066c-0.03,0.03-0.063,0.056-0.098,0.086c0.002,0.007,0.003,0.018,0.006,0.031
				c-0.016,0.002-0.031,0.007-0.044,0.003c-0.012-0.004-0.028-0.017-0.029-0.026c-0.004-0.029-0.018-0.029-0.042-0.026
				c-0.045,0.005-0.085,0.019-0.12,0.051c-0.024,0.021-0.089,0.007-0.099-0.023c-0.014-0.043-0.05-0.057-0.08-0.075
				c-0.02-0.012-0.033-0.02-0.025-0.045c0.002-0.008-0.007-0.022-0.015-0.028c-0.013-0.008-0.029-0.012-0.046-0.019
				c-0.006,0.008-0.013,0.018-0.02,0.025c-0.016,0.019-0.033,0.028-0.059,0.019c-0.014-0.006-0.028-0.009-0.044-0.011
				c-0.037-0.008-0.05-0.022-0.045-0.054c0.006-0.034,0.032-0.051,0.067-0.043c0.007-0.021,0.021-0.043,0.02-0.065
				c-0.001-0.012-0.022-0.024-0.04-0.042c-0.005,0.026-0.009,0.041-0.012,0.057c-0.005,0-0.009,0-0.013,0
				c-0.002-0.013-0.002-0.024-0.007-0.036c-0.005-0.009-0.016-0.015-0.023-0.023c-0.004,0.012-0.013,0.023-0.011,0.034
				c0.004,0.023,0.034,0.037,0.02,0.067c-0.002,0.003-0.004,0.005-0.011,0.018c-0.021-0.041-0.038-0.076-0.058-0.116
				c-0.018,0.021-0.031,0.037-0.046,0.055c0.026,0.019,0.057,0.031,0.074,0.054c0.016,0.02,0.021,0.05,0.021,0.076
				c0,0.012-0.021,0.03-0.036,0.034c-0.073,0.017-0.146,0.029-0.221,0.044c-0.041,0.008-0.061-0.019-0.072-0.051
				c-0.013-0.035-0.022-0.072-0.033-0.109c-0.017-0.058-0.037-0.111-0.094-0.141c-0.01-0.004-0.014-0.022-0.019-0.034
				c-0.018-0.048-0.026-0.098-0.078-0.133c-0.038-0.025-0.076-0.072-0.058-0.133c0.02-0.062-0.003-0.108-0.051-0.146
				c-0.017-0.014-0.031-0.03-0.045-0.046c-0.013-0.016-0.007-0.029,0.014-0.031c0.093-0.012,0.186-0.035,0.281-0.021
				c0.023,0.003,0.049,0.001,0.072-0.006c0.011-0.002,0.017-0.021,0.023-0.033c0.007-0.01,0.012-0.023,0.021-0.031
				c0.033-0.028,0.074-0.048,0.082-0.099c0.003-0.02,0.026-0.035,0.04-0.053c0.04-0.047,0.082-0.091,0.137-0.123
				c0.03-0.017,0.062-0.015,0.082,0.007c0.034,0.034,0.063,0.075,0.092,0.116c0.021,0.028,0.042,0.056,0.027,0.097
				c-0.002,0.007,0.007,0.021,0.013,0.029c0.027,0.044,0.056,0.089,0.083,0.133c0.004,0.007,0.009,0.016,0.016,0.019
				c0.075,0.034,0.096,0.116,0.06,0.189c-0.011,0.021,0.005,0.064,0.021,0.088c0.02,0.027,0.051,0.046,0.057,0.084
				c0.002,0.008,0.011,0.016,0.019,0.021C72.919,88.898,72.935,88.905,72.96,88.917z"/>
			<path fill="#76CAB9" d="M71.404,88.035c0.04,0.011,0.053,0.059,0.032,0.104c-0.022,0.048-0.04,0.098-0.06,0.147
				c-0.001,0.003-0.001,0.009-0.003,0.01c-0.055,0.019-0.03,0.065-0.037,0.101c-0.006,0.03-0.007,0.061-0.008,0.091
				c-0.001,0.008,0.003,0.016,0.006,0.024c0.007,0.019,0.014,0.037,0.017,0.046c-0.036,0.021-0.064,0.038-0.099,0.059
				c0.026,0.009,0.042,0.014,0.06,0.02c-0.034,0.025-0.071,0.042-0.087,0.07c-0.033,0.053-0.087,0.077-0.13,0.116
				c-0.008,0.007-0.027,0.008-0.038,0.003c-0.055-0.023-0.105-0.047-0.172-0.038c-0.041,0.005-0.086-0.021-0.13-0.033
				c-0.012-0.004-0.027-0.016-0.033-0.011c-0.036,0.026-0.051-0.007-0.069-0.025c-0.033-0.036-0.066-0.071-0.095-0.111
				c-0.019-0.022-0.038-0.029-0.065-0.026c-0.028,0.004-0.054-0.002-0.072-0.027c-0.005-0.007-0.016-0.015-0.023-0.015
				c-0.057-0.007-0.079-0.053-0.111-0.088c-0.063-0.07-0.043-0.176,0.021-0.223c0.049-0.036,0.072-0.084,0.081-0.143
				c0.009-0.057,0.052-0.081,0.104-0.097c0.053-0.016,0.102-0.046,0.147-0.075c0.035-0.022,0.062-0.057,0.094-0.081
				c0.022-0.015,0.051-0.022,0.078-0.029c0.006-0.002,0.017,0.009,0.024,0.017c0.02,0.017,0.036,0.038,0.058,0.052
				c0.038,0.024,0.07,0.01,0.075-0.034c0.002-0.029,0.018-0.031,0.037-0.027c0.032,0.006,0.063,0.016,0.095,0.021
				c0.012,0.002,0.024-0.009,0.037-0.011c0.022-0.002,0.047-0.007,0.067-0.001c0.034,0.009,0.066,0.026,0.099,0.038
				C71.359,87.879,71.405,87.958,71.404,88.035z"/>
			<path fill="#76CAB9" d="M75.022,89.275c-0.005,0.086-0.06,0.136-0.102,0.191c-0.017,0.021-0.036,0.04-0.059,0.057
				c-0.023,0.017-0.052,0.03-0.078,0.044c-0.011,0.007-0.021,0.012-0.031,0.019c-0.063,0.041-0.126,0.067-0.2,0.024
				c-0.017-0.009-0.038-0.009-0.057-0.015c-0.068-0.019-0.135-0.039-0.203-0.059c-0.005-0.003-0.012-0.006-0.015-0.011
				c-0.032-0.046-0.082-0.05-0.131-0.062c-0.068-0.018-0.124,0.023-0.187,0.023c-0.064,0.002-0.127,0.014-0.19,0.014
				c-0.056,0-0.11-0.006-0.165-0.017c-0.023-0.004-0.031-0.027-0.021-0.051c0.018-0.042,0.036-0.084,0.057-0.125
				c0.005-0.01,0.018-0.018,0.027-0.023c0.058-0.032,0.077-0.093,0.048-0.154c-0.005-0.01-0.006-0.021-0.009-0.031
				c0.046,0.003,0.086,0.005,0.127,0.008c0.007,0,0.016,0.004,0.02,0.01c0.039,0.062,0.101,0.048,0.159,0.049
				c0.029,0.001,0.061,0.007,0.089,0.013c0.07,0.015,0.138,0.031,0.208,0.042c0.012,0.002,0.032-0.023,0.039-0.04
				c0.008-0.024,0.009-0.061,0.038-0.06c0.018,0.001,0.034,0.033,0.052,0.051c0.002,0.003,0.002,0.007,0.004,0.011
				c0.015,0.026,0.004,0.069,0.049,0.074c0.029,0.004,0.06,0.007,0.088,0.008c0.043,0.003,0.085,0.004,0.128,0.004
				c0.014,0,0.029-0.004,0.042-0.011c0.02-0.012,0.036-0.02,0.058-0.004c0.006,0.004,0.019,0.001,0.027,0
				c0.031-0.003,0.062-0.006,0.094-0.008c0.002,0,0.005,0.001,0.006,0.003C74.951,89.289,74.986,89.285,75.022,89.275z"/>
			<path fill="#76CAB9" d="M74.353,90.386c0.009-0.084-0.005-0.149-0.041-0.206c-0.019-0.029-0.053-0.054-0.084-0.066
				c-0.049-0.02-0.077-0.078-0.044-0.117c0.02-0.023,0.052-0.041,0.08-0.054c0.055-0.023,0.11-0.003,0.167,0.004
				c0.032,0.004,0.065,0.009,0.097,0.015c0.055,0.011,0.086,0.053,0.121,0.091c0.029,0.03,0.063,0.056,0.087,0.089
				c0.031,0.041,0.056,0.088,0.079,0.132c0.006,0.01,0.006,0.026,0.002,0.036c-0.021,0.047-0.045,0.093-0.069,0.139
				c-0.001,0.004-0.004,0.006-0.007,0.008c-0.091,0.039-0.178,0.095-0.282,0.092c-0.045-0.001-0.079-0.023-0.094-0.08
				C74.358,90.436,74.355,90.404,74.353,90.386z"/>
			<path fill="#76CAB9" d="M75.367,91.1c-0.025,0.011-0.051,0.033-0.075,0.031c-0.022,0-0.045-0.024-0.072-0.016
				c-0.034,0.011-0.068,0.022-0.102,0.033c-0.011,0.003-0.024,0.003-0.036,0c-0.055-0.013-0.08-0.08-0.05-0.126
				c0.025-0.039,0.06-0.065,0.103-0.084c0.038-0.015,0.07-0.048,0.103-0.075c0.062-0.052,0.131-0.04,0.165,0.034
				c0.007,0.018,0.003,0.044-0.006,0.062c-0.018,0.034-0.018,0.045,0.016,0.062c0.008,0.005,0.016,0.014,0.018,0.021
				C75.436,91.07,75.397,91.11,75.367,91.1z"/>
		</g>
	</g>
	<g>
		<path fill="#D9D4DB" d="M125.266,195.996c5.337,5.356,5.337,14.045,0,19.405c-5.337,5.355-13.992,5.355-19.329-0.003
			c-5.335-5.357-5.335-14.046,0-19.402C111.274,190.636,119.929,190.641,125.266,195.996z"/>
		<path fill="#8CA3AA" d="M125.308,215.441c5.336-5.357,5.336-14.042,0-19.402l-19.328,19.402
			C111.317,220.799,119.971,220.799,125.308,215.441z"/>
	</g>
	<ellipse fill="#F2EEEC" cx="115.623" cy="205.719" rx="10.931" ry="10.973"/>
	<ellipse fill="none" stroke="#8CA3AA" stroke-miterlimit="10" cx="115.623" cy="205.719" rx="6.293" ry="6.318"/>
</g>
</svg>
