<?xml version="1.0" encoding="utf-8"?>
<!-- Generator: Adobe Illustrator 17.0.0, SVG Export Plug-In . SVG Version: 6.00 Build 0)  -->
<!DOCTYPE svg PUBLIC "-//W3C//DTD SVG 1.1//EN" "http://www.w3.org/Graphics/SVG/1.1/DTD/svg11.dtd">
<svg version="1.1" id="Layer_1" xmlns="http://www.w3.org/2000/svg" xmlns:xlink="http://www.w3.org/1999/xlink" x="0px" y="0px"
	 width="232px" height="232px" viewBox="0.24 0.36 232 232" enable-background="new 0.24 0.36 232 232" xml:space="preserve">
<g id="_x34_._Stem_Cell_Research_1_">
	<rect x="0.24" y="0.36" fill="#63D2D2" width="231.932" height="231.69"/>
	<g>
		<g>
			<defs>
				<rect id="SVGID_1_" x="0.308" y="0.671" width="231.931" height="231.69"/>
			</defs>
			<clipPath id="SVGID_2_">
				<use xlink:href="#SVGID_1_"  overflow="visible"/>
			</clipPath>
			<path clip-path="url(#SVGID_2_)" fill="#76E5E2" d="M-175.235,209.407l7.647,7.639l10.404-2.783l7.648,7.639l10.403-2.784
				l7.647,7.639l10.404-2.784l7.648,7.639l10.403-2.783l7.647,7.639l10.404-2.784l7.648,7.64l10.404-2.784l7.647,7.639l10.403-2.785
				l7.647,7.64l10.404-2.784l7.647,7.639l10.442-2.793l7.707,7.696l10.403-2.783l7.646,7.638l10.405-2.783l7.647,7.639l10.403-2.784
				l7.647,7.639l10.405-2.784l7.646,7.639l10.404-2.784l7.648,7.64l10.404-2.784l7.646,7.639l10.405-2.783l7.647,7.638l10.403-2.783
				l7.647,7.639l10.405-2.784l7.646,7.64l11.222-3.004l2.786-10.393l10.405-2.784l2.787-10.394l10.403-2.783l2.787-10.393
				l10.403-2.784l2.789-10.394l10.403-2.783l2.787-10.393l10.403-2.784l2.787-10.393l10.405-2.784l2.786-10.393l10.404-2.783
				l2.787-10.392l10.405-2.784l2.786-10.393l10.404-2.783l2.787-10.394l10.405-2.783l2.791-10.409l10.419-2.789l2.786-10.392
				l10.404-2.783l2.787-10.393l10.405-2.784l2.786-10.393l10.404-2.784l2.787-10.393l10.405-2.783l2.786-10.393l10.404-2.784
				l2.787-10.393l10.403-2.783l2.788-10.393l10.403-2.783l2.788-10.394l10.403-2.783l2.788-10.393l10.404-2.783l2.786-10.393
				l10.404-2.784l3.006-11.209l-8.212-8.205l-10.405,2.784l-7.647-7.64L411.999,3.27l-7.646-7.64l-10.405,2.784l-7.647-7.64
				L375.899-6.44l-7.649-7.64l-10.403,2.784l-7.646-7.64l-10.405,2.784l-7.647-7.639l-10.403,2.783l-7.647-7.639l-10.405,2.784
				l-7.646-7.64l-10.404,2.784l-7.649-7.64l-10.441,2.795l-7.705-7.697l-10.403,2.783l-7.649-7.639l-10.403,2.784l-7.647-7.639
				l-10.405,2.784l-7.646-7.64l-10.403,2.784l-7.648-7.639l-10.404,2.784l-7.647-7.64l-10.403,2.784l-7.648-7.64l-10.404,2.784
				l-7.647-7.639l-10.405,2.784l-7.646-7.639l-10.403,2.784l-7.649-7.64l-11.22,3.004l-2.784,10.395l-10.404,2.784l-2.787,10.393
				L59.793-57.6l-2.786,10.392l-10.405,2.784l-2.786,10.392l-10.405,2.784l-2.787,10.393L20.22-18.071L17.435-7.679L7.033-4.894
				L4.244,5.499L-6.158,8.283l-2.787,10.392l-10.403,2.784l-2.789,10.392l-10.402,2.784l-2.788,10.393l-10.402,2.785l-2.793,10.409
				l-10.418,2.787l-2.786,10.393l-10.405,2.783l-2.787,10.393l-10.404,2.784l-2.786,10.393l-10.403,2.785l-2.789,10.392
				l-10.403,2.784l-2.787,10.392l-10.404,2.785l-2.788,10.392l-10.403,2.785l-2.787,10.392l-10.404,2.785l-2.787,10.392
				l-10.404,2.785l-2.787,10.392l-10.405,2.784l-2.786,10.392l-10.404,2.784l-3.006,11.21l8.213,8.204L-175.235,209.407z
				 M-160.976,195.228l2.568-9.576l9.585-2.565l7.018,7.009l-2.569,9.576l-9.586,2.566L-160.976,195.228z M-147.786,182.051
				l2.569-9.576l9.585-2.566l7.017,7.01l-2.569,9.575l-9.585,2.566L-147.786,182.051z M-134.595,168.875l2.57-9.576l9.585-2.566
				l7.018,7.01l-2.569,9.575l-9.585,2.566L-134.595,168.875z M-121.405,155.698l2.568-9.575l9.586-2.566l7.018,7.01l-2.57,9.575
				l-9.584,2.566L-121.405,155.698z M-108.214,142.52l2.567-9.575l9.586-2.566l7.018,7.01l-2.569,9.575l-9.585,2.566
				L-108.214,142.52z M-95.024,129.344l2.568-9.575l9.586-2.566l7.018,7.01l-2.57,9.575l-9.584,2.567L-95.024,129.344z
				 M-81.832,116.167l2.567-9.575l9.586-2.566l7.016,7.009l-2.567,9.576l-9.585,2.566L-81.832,116.167z M-68.642,102.99l2.568-9.575
				l9.586-2.566l7.017,7.009l-2.568,9.576L-61.624,110L-68.642,102.99z M-55.452,89.813l2.567-9.576l9.586-2.565l7.017,7.01
				l-2.569,9.575l-9.585,2.565L-55.452,89.813z M-42.262,76.636l2.569-9.575l9.584-2.565l7.017,7.009l-2.568,9.576l-9.585,2.565
				L-42.262,76.636z M-15.861,50.262l2.568-9.575l9.586-2.566L3.31,45.13l-2.569,9.575l-9.584,2.566L-15.861,50.262z M-2.669,37.086
				l2.567-9.576l9.588-2.565l7.017,7.009l-2.569,9.575l-9.585,2.566L-2.669,37.086z M10.52,23.909l2.569-9.575l9.585-2.566
				l7.017,7.01l-2.568,9.575l-9.584,2.566L10.52,23.909z M23.712,10.732l2.567-9.575l9.587-2.566l7.015,7.01l-2.567,9.576
				l-9.585,2.566L23.712,10.732z M36.901-2.445l2.569-9.575l9.585-2.566l7.017,7.01l-2.568,9.575l-9.586,2.566L36.901-2.445z
				 M50.093-15.621l2.567-9.575l9.585-2.566l7.018,7.009l-2.57,9.575l-9.584,2.566L50.093-15.621z M63.282-28.798l2.569-9.575
				l9.584-2.566l7.018,7.009l-2.569,9.576l-9.585,2.566L63.282-28.798z M76.472-41.974l2.569-9.576l9.585-2.566l7.018,7.01
				l-2.57,9.575l-9.584,2.566L76.472-41.974z M402.601,35.482l-2.569,9.575l-9.585,2.566l-7.016-7.01l2.568-9.575l9.585-2.566
				L402.601,35.482z M389.411,48.659l-2.569,9.575l-9.584,2.566l-7.017-7.009l2.568-9.576l9.584-2.566L389.411,48.659z
				 M376.22,61.835l-2.567,9.575l-9.587,2.566l-7.016-7.009l2.568-9.576l9.585-2.565L376.22,61.835z M363.029,75.012l-2.568,9.575
				l-9.585,2.565l-7.017-7.009l2.567-9.576l9.587-2.565L363.029,75.012z M349.841,88.189l-2.57,9.576l-9.585,2.566l-7.018-7.009
				l2.568-9.576l9.585-2.566L349.841,88.189z M336.649,101.366l-2.569,9.576l-9.585,2.566l-7.017-7.01l2.567-9.575l9.588-2.566
				L336.649,101.366z M323.46,114.543l-2.57,9.576l-9.585,2.566l-7.018-7.01l2.568-9.575l9.585-2.566L323.46,114.543z
				 M310.268,127.72l-2.569,9.575l-9.585,2.566l-7.017-7.01l2.569-9.575l9.585-2.566L310.268,127.72z M297.078,140.897l-2.569,9.575
				l-9.584,2.566l-7.019-7.01l2.57-9.575l9.585-2.567L297.078,140.897z M270.676,167.27l-2.569,9.575l-9.584,2.566l-7.018-7.01
				l2.568-9.575l9.587-2.566L270.676,167.27z M257.486,180.447l-2.569,9.576l-9.585,2.566l-7.018-7.01l2.568-9.575l9.586-2.566
				L257.486,180.447z M244.296,193.624l-2.569,9.575l-9.585,2.567l-7.018-7.01l2.569-9.575l9.585-2.566L244.296,193.624z
				 M231.106,206.8l-2.57,9.575l-9.584,2.567l-7.018-7.01l2.569-9.575l9.584-2.566L231.106,206.8z M217.914,219.977l-2.569,9.575
				l-9.585,2.567l-7.017-7.01l2.569-9.575l9.585-2.566L217.914,219.977z M204.724,233.154l-2.57,9.575l-9.585,2.565l-7.017-7.009
				l2.568-9.575l9.584-2.566L204.724,233.154z M191.533,246.332l-2.569,9.575l-9.585,2.565l-7.015-7.009l2.567-9.575l9.585-2.566
				L191.533,246.332z M178.344,259.508l-2.569,9.575l-9.584,2.564l-7.018-7.009l2.568-9.575l9.586-2.564L178.344,259.508z
				 M-129.734,186.907l2.568-9.576l9.585-2.565l7.019,7.009l-2.57,9.576l-9.584,2.566L-129.734,186.907z M-24.212,81.492
				l2.569-9.575l9.585-2.565l7.019,7.01l-2.57,9.575l-9.584,2.565L-24.212,81.492z M279.026,136.041l-2.567,9.575l-9.587,2.566
				l-7.016-7.01l2.567-9.575l9.587-2.566L279.026,136.041z M-98.495,178.586l2.569-9.576l9.584-2.565l7.019,7.009l-2.57,9.576
				l-9.584,2.566L-98.495,178.586z M-6.16,86.347l2.567-9.575l9.587-2.566l7.017,7.009l-2.569,9.576l-9.585,2.566L-6.16,86.347z
				 M260.977,131.185l-2.569,9.575l-9.585,2.566l-7.018-7.01l2.568-9.575l9.586-2.566L260.977,131.185z M304.017,42.414
				l-2.569,9.575l-9.585,2.566l-7.018-7.01l2.569-9.575L297,35.404L304.017,42.414z M11.89,91.202l2.568-9.575l9.584-2.566
				l7.018,7.009l-2.569,9.576l-9.584,2.566L11.89,91.202z M242.926,126.33l-2.569,9.575l-9.585,2.566l-7.017-7.01l2.567-9.575
				l9.585-2.566L242.926,126.33z M-54.061,157.087l2.567-9.576l9.587-2.566l7.015,7.01l-2.567,9.575l-9.585,2.566L-54.061,157.087z
				 M-40.872,143.91l2.569-9.575l9.585-2.566l7.017,7.01l-2.569,9.575l-9.584,2.566L-40.872,143.91z M-27.68,130.733l2.567-9.576
				l9.586-2.566l7.019,7.01l-2.57,9.575l-9.584,2.567L-27.68,130.733z M-14.491,117.556l2.567-9.575l9.588-2.566l7.016,7.01
				L2.112,122l-9.584,2.567L-14.491,117.556z M38.291,64.829l2.569-9.576l9.585-2.566l7.019,7.01l-2.57,9.575l-9.584,2.566
				L38.291,64.829z M51.483,51.652l2.567-9.575l9.587-2.566l7.016,7.01l-2.568,9.575l-9.585,2.566L51.483,51.652z M64.672,38.475
				L67.24,28.9l9.585-2.566l7.017,7.01l-2.568,9.575l-9.586,2.566L64.672,38.475z M77.863,25.299l2.567-9.576l9.585-2.566
				l7.018,7.01l-2.57,9.575l-9.584,2.566L77.863,25.299z M91.054,12.122l2.568-9.575l9.584-2.566l7.018,7.01l-2.569,9.575
				l-9.585,2.566L91.054,12.122z M295.688,73.624l-2.569,9.575l-9.585,2.566l-7.019-7.009l2.569-9.576l9.585-2.565L295.688,73.624z
				 M282.498,86.8l-2.569,9.575l-9.585,2.566l-7.017-7.009l2.569-9.576l9.585-2.565L282.498,86.8z M269.307,99.977l-2.569,9.575
				l-9.584,2.565l-7.019-7.009l2.57-9.576l9.584-2.565L269.307,99.977z M216.524,152.704l-2.569,9.576l-9.585,2.566l-7.017-7.009
				l2.569-9.576l9.585-2.565L216.524,152.704z M203.335,165.881l-2.57,9.576l-9.585,2.565l-7.018-7.009l2.569-9.575l9.584-2.565
				L203.335,165.881z M190.143,179.057l-2.569,9.576l-9.585,2.565l-7.017-7.009l2.569-9.575l9.585-2.565L190.143,179.057z
				 M176.953,192.234l-2.569,9.576l-9.584,2.566l-7.017-7.01l2.568-9.575l9.585-2.566L176.953,192.234z M163.762,205.41
				l-2.569,9.576l-9.585,2.566l-7.016-7.01l2.568-9.575l9.585-2.566L163.762,205.41z M29.94,96.058l2.57-9.575l9.584-2.566
				l7.018,7.01l-2.569,9.575l-9.585,2.567L29.94,96.058z M277.637,68.768l-2.569,9.575l-9.585,2.567l-7.018-7.01l2.569-9.575
				l9.585-2.567L277.637,68.768z M224.875,121.475l-2.567,9.575l-9.585,2.565l-7.017-7.009l2.567-9.575l9.586-2.566L224.875,121.475
				z M47.992,100.914l2.567-9.575l9.587-2.566l7.016,7.01l-2.568,9.575l-9.585,2.567L47.992,100.914z M246.396,77.089l-2.569,9.575
				l-9.585,2.567l-7.017-7.01l2.569-9.575l9.585-2.566L246.396,77.089z M206.826,116.619l-2.57,9.575l-9.585,2.565l-7.018-7.009
				l2.569-9.575l9.584-2.566L206.826,116.619z M52.853,118.946l2.567-9.575l9.585-2.566l7.017,7.01l-2.569,9.575l-9.585,2.566
				L52.853,118.946z M66.042,105.769l2.569-9.575l9.584-2.566l7.019,7.01l-2.57,9.575l-9.584,2.567L66.042,105.769z M215.155,85.41
				l-2.57,9.575L203,97.552l-7.018-7.01l2.569-9.575l9.585-2.566L215.155,85.41z M201.965,98.587l-2.569,9.575l-9.585,2.566
				l-7.016-7.009l2.568-9.575l9.584-2.566L201.965,98.587z M188.774,111.764l-2.57,9.575l-9.584,2.566l-7.016-7.009l2.567-9.575
				l9.585-2.566L188.774,111.764z M92.444,79.395l2.568-9.575l9.585-2.565l7.017,7.01l-2.567,9.575l-9.585,2.565L92.444,79.395z
				 M162.373,138.138l-2.569,9.575l-9.585,2.566l-7.017-7.01l2.569-9.575l9.585-2.567L162.373,138.138z M183.914,93.732
				l-2.569,9.575l-9.584,2.567l-7.018-7.01l2.569-9.575l9.585-2.566L183.914,93.732z M84.092,110.625l2.567-9.575l9.586-2.566
				l7.018,7.01l-2.569,9.575l-9.586,2.566L84.092,110.625z M170.725,106.908l-2.569,9.575l-9.585,2.566l-7.018-7.009l2.57-9.575
				l9.585-2.566L170.725,106.908z M102.143,115.48l2.567-9.576l9.587-2.565l7.016,7.008l-2.568,9.576l-9.585,2.565L102.143,115.48z
				 M120.291,120.381l2.569-9.575l9.584-2.566l7.019,7.009l-2.569,9.576l-9.585,2.566L120.291,120.381z M152.673,102.053
				l-2.569,9.575l-9.584,2.567l-7.019-7.01l2.57-9.575l9.584-2.566L152.673,102.053z M134.523,97.151l-2.567,9.576l-9.586,2.566
				l-7.017-7.01l2.567-9.575l9.587-2.566L134.523,97.151z M138.342,125.237l2.567-9.575l9.585-2.566l7.017,7.009l-2.569,9.576
				l-9.584,2.566L138.342,125.237z M116.476,92.295l-2.569,9.576l-9.585,2.566l-7.018-7.009l2.57-9.576l9.584-2.566L116.476,92.295z
				 M88.952,128.657l2.568-9.576l9.585-2.565l7.017,7.009l-2.568,9.576l-9.586,2.565L88.952,128.657z M107.1,133.559l2.569-9.575
				l9.585-2.566l7.017,7.01l-2.569,9.575l-9.585,2.566L107.1,133.559z M125.151,138.414l2.568-9.575l9.586-2.566l7.017,7.01
				l-2.568,9.575l-9.585,2.566L125.151,138.414z M165.864,88.876l-2.569,9.575l-9.585,2.567l-7.017-7.01l2.569-9.575l9.585-2.566
				L165.864,88.876z M147.715,83.974l-2.568,9.576l-9.587,2.566l-7.017-7.009l2.569-9.576l9.585-2.566L147.715,83.974z
				 M129.664,79.119l-2.569,9.575l-9.584,2.565l-7.018-7.009l2.569-9.576l9.585-2.565L129.664,79.119z M90.074,118.67l-2.57,9.575
				l-9.584,2.566l-7.018-7.009l2.569-9.576l9.585-2.565L90.074,118.67z M156.391,130.092l2.57-9.575l9.584-2.566l7.018,7.01
				l-2.569,9.575l-9.584,2.566L156.391,130.092z M98.424,87.441l-2.568,9.575l-9.585,2.565l-7.017-7.009l2.567-9.576l9.587-2.565
				L98.424,87.441z M57.712,136.978l2.569-9.576l9.584-2.565l7.018,7.009l-2.569,9.576l-9.585,2.565L57.712,136.978z
				 M75.763,141.834l2.567-9.575l9.587-2.565l7.016,7.009l-2.568,9.576l-9.586,2.565L75.763,141.834z M93.909,146.736l2.569-9.575
				l9.584-2.567l7.019,7.01l-2.57,9.575l-9.584,2.566L93.909,146.736z M111.961,151.591l2.567-9.575l9.586-2.567l7.016,7.01
				l-2.567,9.575l-9.585,2.566L111.961,151.591z M130.01,156.446l2.57-9.575l9.585-2.567l7.018,7.01l-2.569,9.575l-9.585,2.566
				L130.01,156.446z M197.103,80.555l-2.567,9.575l-9.585,2.567l-7.018-7.01l2.568-9.575l9.587-2.566L197.103,80.555z
				 M179.054,75.699l-2.569,9.575l-9.584,2.567l-7.019-7.01l2.57-9.575l9.585-2.567L179.054,75.699z M160.905,70.797l-2.567,9.576
				l-9.586,2.565l-7.016-7.01l2.567-9.575l9.587-2.565L160.905,70.797z M142.856,65.942l-2.569,9.576l-9.585,2.565l-7.018-7.009
				l2.57-9.576l9.584-2.565L142.856,65.942z M124.804,61.087l-2.569,9.575l-9.585,2.566l-7.017-7.009l2.568-9.576l9.585-2.566
				L124.804,61.087z M58.833,126.991l-2.57,9.575l-9.584,2.565l-7.017-7.009l2.568-9.575l9.584-2.566L58.833,126.991z
				 M26.47,145.299l2.568-9.575l9.586-2.565l7.016,7.009l-2.567,9.576l-9.585,2.565L26.47,145.299z M44.52,150.155l2.569-9.575
				l9.585-2.565l7.018,7.009l-2.57,9.576l-9.584,2.565L44.52,150.155z M62.572,155.01l2.568-9.575l9.586-2.566l7.017,7.009
				l-2.568,9.575l-9.586,2.566L62.572,155.01z M80.719,159.913l2.569-9.575l9.585-2.567l7.017,7.01l-2.569,9.575l-9.585,2.566
				L80.719,159.913z M98.769,164.768l2.569-9.575l9.586-2.567l7.018,7.01l-2.57,9.575l-9.585,2.566L98.769,164.768z
				 M116.821,169.623l2.568-9.575l9.584-2.567l7.018,7.01l-2.569,9.575l-9.585,2.566L116.821,169.623z M134.871,174.479l2.569-9.576
				l9.585-2.566l7.017,7.009l-2.569,9.576l-9.585,2.566L134.871,174.479z M148.061,161.302l2.57-9.575l9.585-2.567l7.018,7.01
				l-2.569,9.575l-9.585,2.566L148.061,161.302z M161.252,148.125l2.569-9.575l9.585-2.567l7.017,7.01l-2.569,9.575l-9.584,2.566
				L161.252,148.125z M174.442,134.948l2.568-9.575l9.586-2.566l7.016,7.01l-2.567,9.575l-9.585,2.566L174.442,134.948z
				 M214.034,95.397l2.569-9.575l9.585-2.566l7.019,7.01l-2.57,9.575l-9.585,2.566L214.034,95.397z M228.346,72.234l-2.569,9.575
				l-9.585,2.567l-7.017-7.01l2.569-9.575l9.584-2.567L228.346,72.234z M210.295,67.378l-2.569,9.575l-9.585,2.566l-7.018-7.01
				l2.568-9.575l9.586-2.567L210.295,67.378z M192.244,62.522l-2.569,9.575l-9.585,2.566l-7.017-7.01l2.569-9.575l9.585-2.566
				L192.244,62.522z M174.097,57.62l-2.568,9.576l-9.586,2.565l-7.017-7.009l2.569-9.575l9.585-2.565L174.097,57.62z
				 M156.046,52.766l-2.569,9.575l-9.584,2.566l-7.018-7.009l2.568-9.576l9.586-2.566L156.046,52.766z M137.995,47.911l-2.569,9.575
				l-9.585,2.566l-7.016-7.009l2.568-9.576l9.585-2.566L137.995,47.911z M119.945,43.055l-2.569,9.575l-9.584,2.566l-7.019-7.01
				l2.568-9.576l9.586-2.566L119.945,43.055z M106.755,56.232l-2.569,9.575l-9.585,2.566l-7.017-7.009l2.567-9.576l9.586-2.566
				L106.755,56.232z M93.565,69.409l-2.57,9.575l-9.584,2.566l-7.018-7.009l2.568-9.576l9.586-2.566L93.565,69.409z M80.374,82.585
				l-2.569,9.575l-9.585,2.565l-7.017-7.009l2.569-9.576l9.584-2.565L80.374,82.585z M40.782,122.136l-2.569,9.575l-9.586,2.566
				l-7.017-7.009l2.567-9.575l9.587-2.566L40.782,122.136z M27.591,135.313l-2.569,9.575l-9.584,2.566l-7.019-7.01l2.569-9.576
				l9.585-2.566L27.591,135.313z M200.844,108.574l2.569-9.576l9.585-2.566l7.017,7.009l-2.569,9.575l-9.585,2.566L200.844,108.574z
				 M53.973,108.959l-2.569,9.575l-9.584,2.567l-7.019-7.01l2.569-9.575l9.585-2.566L53.973,108.959z M-4.77,153.62l2.569-9.575
				l9.585-2.565l7.017,7.009l-2.569,9.576l-9.585,2.565L-4.77,153.62z M13.28,158.476l2.568-9.575l9.587-2.565l7.016,7.009
				l-2.568,9.576l-9.585,2.565L13.28,158.476z M31.329,163.331l2.57-9.575l9.584-2.566l7.018,7.009l-2.569,9.575l-9.585,2.566
				L31.329,163.331z M49.381,168.187l2.567-9.575l9.587-2.566l7.016,7.009l-2.568,9.575l-9.585,2.566L49.381,168.187z
				 M67.529,173.09l2.569-9.575l9.584-2.567l7.019,7.01l-2.57,9.575l-9.584,2.566L67.529,173.09z M85.58,177.945l2.569-9.575
				l9.584-2.567l7.018,7.01l-2.569,9.575l-9.585,2.566L85.58,177.945z M103.63,182.8l2.567-9.576l9.587-2.566l7.016,7.009
				l-2.568,9.576l-9.586,2.566L103.63,182.8z M121.68,187.654l2.569-9.575l9.586-2.566l7.018,7.009l-2.569,9.576l-9.585,2.565
				L121.68,187.654z M139.731,192.51l2.567-9.575l9.587-2.566l7.015,7.01l-2.567,9.575l-9.585,2.565L139.731,192.51z
				 M152.921,179.333l2.569-9.575l9.585-2.566l7.017,7.009l-2.568,9.576l-9.585,2.565L152.921,179.333z M166.113,166.157
				l2.567-9.576l9.587-2.566l7.015,7.009l-2.567,9.576l-9.586,2.566L166.113,166.157z M179.303,152.981l2.569-9.575l9.584-2.567
				l7.018,7.01l-2.569,9.575l-9.585,2.566L179.303,152.981z M192.494,139.804l2.567-9.575l9.585-2.567l7.018,7.01l-2.57,9.575
				l-9.584,2.566L192.494,139.804z M232.086,100.253l2.567-9.575l9.586-2.566l7.016,7.009l-2.567,9.575l-9.586,2.566
				L232.086,100.253z M245.276,87.076l2.569-9.575l9.585-2.566l7.018,7.01l-2.569,9.575l-9.585,2.566L245.276,87.076z
				 M259.586,63.912l-2.567,9.575l-9.585,2.566l-7.018-7.01l2.568-9.575l9.585-2.567L259.586,63.912z M241.536,59.057l-2.57,9.575
				l-9.584,2.566l-7.018-7.01l2.569-9.575l9.585-2.567L241.536,59.057z M223.485,54.201l-2.569,9.575l-9.585,2.566l-7.015-7.01
				l2.567-9.575l9.585-2.566L223.485,54.201z M205.436,49.346l-2.57,9.575l-9.584,2.566l-7.018-7.01l2.569-9.575l9.585-2.566
				L205.436,49.346z M187.287,44.443l-2.568,9.576l-9.587,2.565l-7.016-7.008L170.684,40l9.587-2.565L187.287,44.443z
				 M169.238,39.589l-2.569,9.575l-9.585,2.566l-7.018-7.009l2.568-9.576l9.587-2.566L169.238,39.589z M151.186,34.733l-2.569,9.575
				l-9.584,2.566l-7.019-7.01l2.57-9.576l9.584-2.566L151.186,34.733z M133.134,29.878l-2.567,9.575l-9.585,2.566l-7.017-7.009
				l2.567-9.575l9.587-2.566L133.134,29.878z M115.085,25.023l-2.569,9.575l-9.585,2.566l-7.018-7.01l2.569-9.576l9.584-2.566
				L115.085,25.023z M101.894,38.199l-2.569,9.575l-9.586,2.566l-7.017-7.01l2.569-9.576l9.585-2.566L101.894,38.199z
				 M88.704,51.376l-2.57,9.575l-9.584,2.566l-7.018-7.01l2.569-9.576l9.584-2.566L88.704,51.376z M75.513,64.553l-2.569,9.575
				l-9.586,2.566l-7.015-7.009l2.567-9.576l9.585-2.566L75.513,64.553z M62.323,77.73l-2.57,9.575l-9.584,2.566l-7.017-7.009
				l2.568-9.576l9.584-2.566L62.323,77.73z M22.731,117.28l-2.569,9.575l-9.586,2.567l-7.018-7.01l2.57-9.575l9.584-2.566
				L22.731,117.28z M9.539,130.457l-2.569,9.575l-9.585,2.565l-7.016-7.009l2.567-9.575l9.586-2.566L9.539,130.457z M-3.649,143.634
				l-2.569,9.575l-9.585,2.566l-7.017-7.009l2.568-9.576l9.584-2.566L-3.649,143.634z M218.894,113.429l2.568-9.575l9.587-2.566
				l7.017,7.009l-2.569,9.575l-9.585,2.565L218.894,113.429z M35.921,104.103l-2.569,9.575l-9.584,2.567l-7.018-7.01l2.569-9.575
				l9.585-2.566L35.921,104.103z M-36.011,161.941l2.568-9.575l9.585-2.565l7.016,7.009l-2.567,9.576l-9.585,2.565L-36.011,161.941z
				 M-17.962,166.797l2.569-9.575l9.586-2.565l7.018,7.009l-2.569,9.576l-9.584,2.565L-17.962,166.797z M0.09,171.653l2.568-9.575
				l9.586-2.566l7.018,7.009l-2.569,9.575l-9.585,2.566L0.09,171.653z M18.141,176.508l2.567-9.575l9.585-2.566l7.017,7.009
				l-2.569,9.575l-9.584,2.566L18.141,176.508z M36.19,181.363l2.569-9.575l9.585-2.567l7.019,7.01l-2.57,9.575l-9.585,2.566
				L36.19,181.363z M54.339,186.266l2.568-9.575l9.586-2.567l7.017,7.01l-2.569,9.575l-9.585,2.566L54.339,186.266z M72.389,191.122
				l2.569-9.575l9.585-2.567l7.018,7.01l-2.57,9.575l-9.584,2.566L72.389,191.122z M90.44,195.977l2.568-9.575l9.585-2.566
				l7.017,7.01l-2.568,9.575l-9.584,2.565L90.44,195.977z M108.49,200.832l2.569-9.575l9.585-2.566l7.017,7.01l-2.569,9.575
				l-9.585,2.565L108.49,200.832z M126.541,205.686l2.57-9.575l9.584-2.566l7.018,7.009l-2.569,9.576l-9.585,2.566L126.541,205.686z
				 M210.543,144.659l2.568-9.576l9.585-2.566l7.019,7.01l-2.57,9.575l-9.585,2.566L210.543,144.659z M290.829,55.591l-2.569,9.575
				l-9.585,2.566l-7.018-7.01l2.57-9.575l9.584-2.567L290.829,55.591z M272.777,50.736l-2.568,9.575l-9.584,2.566l-7.018-7.01
				l2.568-9.575l9.587-2.566L272.777,50.736z M254.727,45.88l-2.569,9.575l-9.585,2.566l-7.017-7.01l2.569-9.575l9.585-2.566
				L254.727,45.88z M236.676,41.025l-2.57,9.575l-9.584,2.566l-7.017-7.01l2.568-9.575l9.584-2.566L236.676,41.025z M218.626,36.169
				l-2.569,9.575l-9.585,2.566l-7.017-7.009l2.569-9.575l9.585-2.566L218.626,36.169z M200.477,31.266l-2.569,9.576l-9.585,2.565
				l-7.016-7.009l2.568-9.575l9.585-2.566L200.477,31.266z M182.427,26.412l-2.57,9.576l-9.584,2.566l-7.018-7.009l2.568-9.576
				l9.586-2.566L182.427,26.412z M164.377,21.557l-2.569,9.575l-9.585,2.566l-7.017-7.009l2.569-9.575l9.585-2.566L164.377,21.557z
				 M146.326,16.702l-2.568,9.575l-9.585,2.566l-7.019-7.009l2.569-9.575l9.585-2.566L146.326,16.702z M128.275,11.846l-2.569,9.575
				l-9.584,2.566l-7.018-7.01l2.568-9.575l9.586-2.566L128.275,11.846z M44.273,72.874l-2.569,9.575l-9.585,2.566l-7.017-7.009
				l2.567-9.576l9.587-2.566L44.273,72.874z M236.945,118.285l2.569-9.576l9.585-2.565l7.017,7.009l-2.569,9.576l-9.586,2.565
				L236.945,118.285z M308.878,60.447l-2.569,9.575l-9.585,2.566l-7.017-7.009l2.567-9.576l9.587-2.566L308.878,60.447z
				 M17.87,99.248l-2.567,9.575l-9.587,2.567l-7.016-7.01l2.568-9.575l9.586-2.566L17.87,99.248z M-67.253,170.264l2.569-9.576
				l9.586-2.565l7.018,7.009l-2.569,9.576l-9.584,2.566L-67.253,170.264z M-49.201,175.118l2.568-9.575l9.585-2.565l7.017,7.009
				l-2.569,9.576l-9.585,2.565L-49.201,175.118z M-31.152,179.974l2.569-9.575l9.584-2.566l7.018,7.009l-2.569,9.575l-9.585,2.566
				L-31.152,179.974z M-13.101,184.829l2.568-9.575l9.586-2.566l7.017,7.009l-2.568,9.576l-9.584,2.566L-13.101,184.829z
				 M4.95,189.685l2.569-9.575l9.585-2.567l7.017,7.01l-2.568,9.575l-9.586,2.566L4.95,189.685z M23.001,194.54l2.569-9.575
				l9.585-2.567l7.017,7.01l-2.569,9.575l-9.586,2.566L23.001,194.54z M41.148,199.443l2.568-9.575l9.584-2.567l7.018,7.01
				l-2.569,9.575l-9.584,2.566L41.148,199.443z M59.199,204.298l2.569-9.575l9.584-2.566l7.018,7.01l-2.569,9.575l-9.585,2.565
				L59.199,204.298z M77.25,209.154l2.567-9.575l9.588-2.565l7.016,7.009l-2.568,9.575l-9.585,2.565L77.25,209.154z M95.299,214.008
				l2.569-9.576l9.584-2.566l7.019,7.009l-2.57,9.576l-9.584,2.566L95.299,214.008z M113.351,218.863l2.569-9.575l9.584-2.566
				l7.018,7.009l-2.569,9.576l-9.585,2.566L113.351,218.863z M131.402,223.719l2.568-9.575l9.586-2.566l7.016,7.01l-2.568,9.575
				l-9.585,2.567L131.402,223.719z M285.967,37.559l-2.567,9.575l-9.587,2.566l-7.016-7.01l2.568-9.575l9.586-2.566L285.967,37.559z
				 M267.917,32.703l-2.569,9.575l-9.584,2.566l-7.019-7.01l2.569-9.575l9.586-2.566L267.917,32.703z M249.866,27.848l-2.569,9.576
				l-9.585,2.566l-7.017-7.01l2.569-9.575l9.585-2.566L249.866,27.848z M231.815,22.993l-2.568,9.575l-9.585,2.566l-7.018-7.01
				l2.568-9.575l9.585-2.566L231.815,22.993z M213.668,18.09l-2.57,9.576l-9.584,2.566l-7.018-7.009l2.569-9.576l9.585-2.566
				L213.668,18.09z M195.616,13.235l-2.567,9.575l-9.585,2.566l-7.017-7.009l2.567-9.575l9.586-2.566L195.616,13.235z M177.567,8.38
				l-2.57,9.575l-9.585,2.566l-7.019-7.01l2.57-9.575l9.584-2.566L177.567,8.38z M159.515,3.525l-2.569,9.575l-9.584,2.566
				l-7.016-7.01l2.567-9.575l9.585-2.566L159.515,3.525z M141.467-1.331l-2.569,9.576l-9.585,2.566l-7.018-7.01l2.568-9.575
				l9.586-2.566L141.467-1.331z M123.415-6.186l-2.569,9.575l-9.584,2.566l-7.019-7.01l2.569-9.575l9.585-2.566L123.415-6.186z
				 M149.451,228.574l2.57-9.575l9.585-2.566l7.018,7.01l-2.569,9.575l-9.585,2.567L149.451,228.574z M162.641,215.397l2.569-9.575
				l9.585-2.566l7.017,7.01l-2.569,9.575l-9.584,2.567L162.641,215.397z M175.833,202.221l2.567-9.575l9.587-2.566l7.018,7.009
				l-2.569,9.576l-9.585,2.566L175.833,202.221z M189.023,189.044l2.568-9.575l9.586-2.566l7.018,7.009l-2.57,9.576l-9.584,2.566
				L189.023,189.044z M202.214,175.868l2.567-9.575l9.586-2.565l7.016,7.009l-2.567,9.576l-9.585,2.565L202.214,175.868z
				 M215.403,162.691l2.568-9.575l9.586-2.565l7.017,7.009l-2.569,9.576l-9.585,2.565L215.403,162.691z M228.595,149.515
				l2.567-9.576l9.586-2.565l7.016,7.009l-2.567,9.576l-9.587,2.566L228.595,149.515z M254.996,123.14l2.568-9.575l9.586-2.566
				l7.017,7.009l-2.569,9.576l-9.585,2.566L254.996,123.14z M268.186,109.964l2.568-9.576l9.586-2.565l7.016,7.009l-2.567,9.575
				l-9.585,2.565L268.186,109.964z M281.377,96.787l2.568-9.576l9.587-2.565l7.016,7.009l-2.568,9.575l-9.584,2.565L281.377,96.787z
				 M294.568,83.611l2.568-9.576l9.587-2.565l7.016,7.009l-2.567,9.575l-9.588,2.566L294.568,83.611z M307.758,70.434l2.568-9.576
				l9.585-2.566l7.018,7.01l-2.57,9.575l-9.585,2.566L307.758,70.434z M320.949,57.257l2.567-9.576l9.585-2.566l7.017,7.01
				l-2.569,9.575l-9.585,2.566L320.949,57.257z M322.101,47.302l-2.569,9.575l-9.585,2.565l-7.082-7.075l2.569-9.575l9.584-2.565
				L322.101,47.302z M105.363-11.042l-2.567,9.575l-9.585,2.566L86.194-5.91l2.567-9.575l9.586-2.566L105.363-11.042z M92.174,2.135
				l-2.569,9.575l-9.584,2.566l-7.018-7.01l2.568-9.576l9.586-2.566L92.174,2.135z M78.984,15.311l-2.569,9.576l-9.585,2.566
				l-7.017-7.01l2.567-9.576l9.586-2.566L78.984,15.311z M65.793,28.488l-2.57,9.576l-9.584,2.566l-7.018-7.01l2.568-9.576
				l9.586-2.565L65.793,28.488z M52.603,41.665l-2.569,9.575l-9.585,2.566l-7.019-7.01l2.57-9.575l9.584-2.566L52.603,41.665z
				 M39.412,54.842l-2.569,9.575l-9.584,2.566l-7.018-7.01l2.569-9.575l9.585-2.567L39.412,54.842z M26.222,68.019l-2.569,9.575
				l-9.585,2.566L7.05,73.15l2.57-9.575l9.584-2.567L26.222,68.019z M-0.18,94.392l-2.569,9.576l-9.586,2.566l-7.018-7.01
				l2.568-9.575l9.586-2.566L-0.18,94.392z M-13.37,107.569l-2.569,9.575l-9.586,2.567l-7.017-7.01l2.568-9.575l9.586-2.566
				L-13.37,107.569z M-26.559,120.746l-2.569,9.575l-9.585,2.567l-7.018-7.01l2.568-9.575l9.586-2.566L-26.559,120.746z
				 M-39.751,133.922l-2.569,9.576l-9.584,2.566l-7.018-7.01l2.569-9.576l9.585-2.566L-39.751,133.922z M-52.941,147.1l-2.569,9.575
				l-9.585,2.566l-7.018-7.009l2.569-9.576l9.585-2.566L-52.941,147.1z M-66.132,160.276l-2.569,9.575l-9.585,2.566l-7.017-7.009
				l2.569-9.576l9.585-2.566L-66.132,160.276z M-80.443,183.439l2.567-9.575l9.586-2.565l7.018,7.009l-2.569,9.576l-9.586,2.565
				L-80.443,183.439z M-62.392,188.295l2.568-9.576l9.587-2.566l7.016,7.009l-2.568,9.575l-9.585,2.566L-62.392,188.295z
				 M-44.342,193.15l2.57-9.575l9.584-2.566l7.017,7.009l-2.568,9.575l-9.585,2.566L-44.342,193.15z M-26.291,198.006l2.567-9.575
				l9.585-2.566l7.019,7.009l-2.569,9.576l-9.586,2.565L-26.291,198.006z M-8.24,202.861l2.567-9.575l9.587-2.567l7.015,7.01
				l-2.567,9.575l-9.586,2.567L-8.24,202.861z M9.809,207.717l2.57-9.575l9.584-2.566l7.018,7.01l-2.569,9.575l-9.584,2.566
				L9.809,207.717z M27.957,212.619l2.568-9.575l9.586-2.565l7.016,7.009l-2.567,9.575l-9.586,2.565L27.957,212.619z
				 M46.007,217.475l2.569-9.575l9.585-2.566l7.017,7.009l-2.569,9.575l-9.584,2.565L46.007,217.475z M64.059,222.331l2.569-9.576
				l9.584-2.566l7.019,7.009l-2.57,9.576l-9.584,2.566L64.059,222.331z M82.11,227.185l2.567-9.575l9.585-2.566l7.017,7.009
				l-2.569,9.576l-9.585,2.566L82.11,227.185z M100.159,232.04l2.569-9.575l9.585-2.566l7.018,7.01l-2.57,9.575l-9.584,2.567
				L100.159,232.04z M118.211,236.895l2.568-9.575l9.586-2.566l7.016,7.01l-2.567,9.575l-9.585,2.566L118.211,236.895z
				 M136.261,241.751l2.569-9.575l9.585-2.566l7.017,7.01l-2.569,9.575l-9.584,2.566L136.261,241.751z M353.311,38.949l-2.57,9.575
				l-9.584,2.566l-7.018-7.01l2.569-9.575l9.584-2.566L353.311,38.949z M335.259,34.093l-2.568,9.575l-9.585,2.566l-7.017-7.01
				l2.567-9.575l9.587-2.566L335.259,34.093z M317.209,29.238l-2.569,9.575l-9.585,2.566l-7.018-7.01l2.57-9.575l9.584-2.566
				L317.209,29.238z M299.157,24.382l-2.569,9.575l-9.584,2.566l-7.017-7.01l2.568-9.575l9.584-2.566L299.157,24.382z
				 M281.108,19.527l-2.569,9.575l-9.585,2.566l-7.017-7.01l2.569-9.575l9.585-2.566L281.108,19.527z M263.057,14.671l-2.569,9.575
				l-9.585,2.566l-7.018-7.01l2.569-9.575l9.584-2.566L263.057,14.671z M245.005,9.816l-2.568,9.576l-9.586,2.566l-7.016-7.01
				l2.567-9.576l9.587-2.566L245.005,9.816z M226.859,4.913l-2.569,9.575l-9.585,2.566l-7.017-7.01l2.569-9.575l9.584-2.566
				L226.859,4.913z M208.808,0.058l-2.569,9.575l-9.584,2.566l-7.018-7.01l2.568-9.575l9.586-2.566L208.808,0.058z M190.757-4.796
				l-2.569,9.575l-9.585,2.566l-7.018-7.01l2.567-9.576l9.587-2.566L190.757-4.796z M172.706-9.652l-2.569,9.575l-9.585,2.566
				l-7.017-7.01l2.569-9.575l9.585-2.566L172.706-9.652z M154.656-14.508l-2.569,9.575l-9.584,2.566l-7.018-7.01l2.568-9.576
				l9.586-2.566L154.656-14.508z M136.605-19.363l-2.569,9.576l-9.586,2.566l-7.017-7.01l2.569-9.575l9.585-2.566L136.605-19.363z
				 M118.555-24.218l-2.569,9.575l-9.585,2.566l-7.017-7.01l2.568-9.575l9.586-2.566L118.555-24.218z M154.311,246.606l2.569-9.575
				l9.585-2.566l7.018,7.01l-2.569,9.575l-9.584,2.564L154.311,246.606z M167.502,233.43l2.567-9.575l9.587-2.566l7.017,7.01
				l-2.569,9.575l-9.585,2.566L167.502,233.43z M180.693,220.253l2.568-9.575l9.585-2.566l7.017,7.01l-2.568,9.575l-9.584,2.567
				L180.693,220.253z M193.884,207.076l2.567-9.575l9.587-2.566l7.016,7.01l-2.568,9.575l-9.587,2.567L193.884,207.076z
				 M207.074,193.9l2.568-9.575l9.585-2.566l7.018,7.009l-2.569,9.576l-9.585,2.566L207.074,193.9z M220.264,180.723l2.567-9.575
				l9.585-2.566l7.018,7.009l-2.569,9.576l-9.585,2.565L220.264,180.723z M233.454,167.546l2.569-9.575l9.585-2.566l7.018,7.009
				l-2.569,9.575l-9.585,2.566L233.454,167.546z M246.644,154.37l2.57-9.575l9.585-2.565l7.018,7.009l-2.569,9.576l-9.584,2.565
				L246.644,154.37z M273.046,127.995l2.569-9.575l9.584-2.566l7.018,7.01l-2.569,9.576l-9.585,2.566L273.046,127.995z
				 M286.238,114.818l2.567-9.575l9.585-2.566l7.018,7.009l-2.57,9.576l-9.584,2.566L286.238,114.818z M299.428,101.643l2.569-9.576
				l9.585-2.565l7.018,7.009l-2.569,9.575l-9.585,2.565L299.428,101.643z M312.617,88.466l2.569-9.576l9.585-2.565l7.018,7.009
				l-2.57,9.575l-9.584,2.565L312.617,88.466z M325.808,75.29l2.569-9.576l9.584-2.565l7.018,7.009l-2.569,9.575l-9.585,2.566
				L325.808,75.29z M338.998,62.113l2.568-9.576l9.586-2.566l7.018,7.01l-2.57,9.575l-9.584,2.566L338.998,62.113z M352.19,48.936
				l2.567-9.576l9.587-2.566l7.018,7.01l-2.569,9.575l-9.585,2.566L352.19,48.936z M100.504-29.074l-2.569,9.576l-9.585,2.566
				l-7.017-7.01l2.567-9.575l9.587-2.566L100.504-29.074z M87.315-15.897l-2.57,9.575l-9.584,2.566l-7.018-7.01l2.569-9.575
				l9.584-2.566L87.315-15.897z M74.123-2.72l-2.569,9.576l-9.585,2.566l-7.017-7.01l2.569-9.576l9.585-2.566L74.123-2.72z
				 M60.933,10.456l-2.57,9.575l-9.584,2.566l-7.019-7.01l2.57-9.575l9.584-2.566L60.933,10.456z M47.742,23.633l-2.569,9.575
				l-9.585,2.566l-7.016-7.01l2.568-9.575l9.586-2.566L47.742,23.633z M34.552,36.809l-2.569,9.575l-9.584,2.566l-7.017-7.01
				l2.568-9.575l9.584-2.566L34.552,36.809z M21.361,49.986l-2.567,9.575l-9.587,2.566l-7.016-7.01l2.568-9.575l9.587-2.566
				L21.361,49.986z M8.17,63.163l-2.568,9.575l-9.584,2.566l-7.018-7.01l2.568-9.575l9.586-2.567L8.17,63.163z M-18.231,89.537
				l-2.569,9.576l-9.583,2.566l-7.019-7.01l2.57-9.575l9.585-2.566L-18.231,89.537z M-31.421,102.713l-2.569,9.576l-9.585,2.566
				l-7.017-7.01l2.569-9.575l9.585-2.566L-31.421,102.713z M-44.611,115.89l-2.569,9.575l-9.584,2.567l-7.019-7.01l2.57-9.575
				l9.584-2.566L-44.611,115.89z M-57.802,129.067l-2.569,9.575l-9.585,2.567l-7.016-7.01l2.568-9.575l9.584-2.566L-57.802,129.067z
				 M-70.992,142.245l-2.57,9.575l-9.584,2.566l-7.016-7.01l2.567-9.575l9.586-2.566L-70.992,142.245z M-84.183,155.422
				l-2.568,9.575l-9.585,2.566l-7.018-7.009l2.568-9.576l9.586-2.566L-84.183,155.422z M-97.373,168.599l-2.568,9.575l-9.585,2.566
				l-7.017-7.009l2.567-9.576l9.587-2.566L-97.373,168.599z M-111.682,191.762l2.567-9.575l9.585-2.565l7.017,7.009l-2.569,9.576
				l-9.585,2.565L-111.682,191.762z M-93.634,196.617l2.569-9.575l9.585-2.566l7.018,7.009l-2.57,9.575l-9.584,2.566
				L-93.634,196.617z M-75.583,201.471l2.568-9.575l9.586-2.566l7.016,7.009l-2.567,9.576l-9.585,2.565L-75.583,201.471z
				 M-57.533,206.327l2.569-9.575l9.586-2.566l7.017,7.009l-2.569,9.576l-9.585,2.566L-57.533,206.327z M-39.482,211.182
				l2.569-9.575l9.586-2.566l7.017,7.01l-2.569,9.575l-9.584,2.567L-39.482,211.182z M-21.432,216.038l2.569-9.575l9.586-2.566
				l7.017,7.01l-2.568,9.575l-9.584,2.567L-21.432,216.038z M-3.381,220.894l2.569-9.575l9.585-2.566l7.017,7.009l-2.569,9.575
				l-9.585,2.566L-3.381,220.894z M14.768,225.796l2.568-9.575l9.586-2.566l7.016,7.009l-2.568,9.575l-9.584,2.565L14.768,225.796z
				 M32.817,230.652l2.57-9.576l9.584-2.566l7.018,7.009l-2.569,9.576l-9.585,2.566L32.817,230.652z M50.868,235.506l2.569-9.575
				l9.586-2.566l7.017,7.009l-2.569,9.576l-9.585,2.565L50.868,235.506z M68.919,240.362l2.568-9.575l9.586-2.566l7.017,7.01
				l-2.569,9.575l-9.585,2.566L68.919,240.362z M86.969,245.217l2.569-9.575l9.584-2.566l7.018,7.01l-2.569,9.575l-9.585,2.566
				L86.969,245.217z M105.02,250.072l2.567-9.574l9.587-2.566l7.016,7.01l-2.568,9.575l-9.585,2.566L105.02,250.072z
				 M123.071,254.928l2.569-9.575l9.585-2.566l7.018,7.011l-2.569,9.575l-9.585,2.565L123.071,254.928z M141.122,259.784
				l2.567-9.575l9.587-2.566l7.017,7.01l-2.569,9.574l-9.585,2.566L141.122,259.784z M384.55,30.627l-2.568,9.575l-9.584,2.566
				l-7.019-7.01l2.569-9.576l9.585-2.566L384.55,30.627z M366.5,25.772l-2.569,9.575l-9.585,2.566l-7.017-7.01l2.569-9.575
				l9.585-2.566L366.5,25.772z M348.45,20.917l-2.568,9.575l-9.587,2.566l-7.016-7.01l2.568-9.575l9.585-2.566L348.45,20.917z
				 M330.4,16.061l-2.57,9.575l-9.584,2.566l-7.018-7.01l2.569-9.575l9.585-2.566L330.4,16.061z M312.348,11.205l-2.569,9.576
				l-9.585,2.566l-7.017-7.01l2.569-9.575l9.585-2.566L312.348,11.205z M294.297,6.35l-2.568,9.575l-9.584,2.566l-7.019-7.01
				l2.569-9.575l9.585-2.566L294.297,6.35z M276.247,1.495l-2.569,9.575l-9.584,2.566l-7.018-7.01l2.569-9.575l9.585-2.566
				L276.247,1.495z M258.196-3.36l-2.569,9.575l-9.586,2.566l-7.016-7.009l2.568-9.575l9.585-2.566L258.196-3.36z M240.049-8.263
				l-2.569,9.576l-9.585,2.565l-7.019-7.009l2.569-9.575l9.585-2.566L240.049-8.263z M221.998-13.119l-2.569,9.575l-9.585,2.566
				l-7.015-7.01l2.567-9.575l9.585-2.566L221.998-13.119z M203.949-17.974l-2.57,9.575l-9.584,2.566l-7.018-7.01l2.568-9.575
				l9.585-2.566L203.949-17.974z M185.897-22.829l-2.57,9.575l-9.584,2.566l-7.018-7.01l2.569-9.576l9.585-2.566L185.897-22.829z
				 M167.845-27.684l-2.567,9.575l-9.585,2.566l-7.018-7.009l2.568-9.576l9.586-2.566L167.845-27.684z M149.796-32.54l-2.569,9.575
				l-9.585,2.566l-7.019-7.01l2.57-9.576l9.584-2.566L149.796-32.54z M131.744-37.395l-2.569,9.576l-9.584,2.566l-7.016-7.01
				l2.567-9.575l9.585-2.566L131.744-37.395z M113.695-42.251l-2.57,9.575l-9.584,2.566l-7.018-7.01l2.568-9.575l9.585-2.566
				L113.695-42.251z M264.695,159.225l2.568-9.575l9.587-2.566l7.018,7.009l-2.569,9.575l-9.585,2.566L264.695,159.225z
				 M-9.88,58.307l-2.569,9.575l-9.586,2.566l-7.017-7.01l2.568-9.575l9.585-2.567L-9.88,58.307z M-142.925,200.083l2.567-9.575
				l9.587-2.565l7.017,7.009l-2.569,9.576l-9.585,2.565L-142.925,200.083z M-124.874,204.938l2.568-9.575l9.586-2.566l7.017,7.009
				l-2.569,9.576l-9.585,2.565L-124.874,204.938z M-106.823,209.793l2.569-9.575l9.584-2.566l7.018,7.009l-2.569,9.576l-9.585,2.566
				L-106.823,209.793z M-88.773,214.648l2.567-9.575l9.587-2.566l7.016,7.009l-2.568,9.576l-9.585,2.566L-88.773,214.648z
				 M-70.722,219.504l2.569-9.575l9.584-2.566l7.018,7.01l-2.569,9.575l-9.585,2.567L-70.722,219.504z M-52.672,224.359l2.567-9.575
				l9.587-2.566l7.017,7.01l-2.569,9.575l-9.585,2.567L-52.672,224.359z M-34.622,229.215l2.568-9.575l9.586-2.566l7.018,7.01
				l-2.569,9.575l-9.585,2.567L-34.622,229.215z M-16.571,234.07l2.568-9.575l9.584-2.566l7.018,7.009l-2.569,9.576l-9.584,2.565
				L-16.571,234.07z M1.577,238.973l2.569-9.576l9.585-2.566l7.018,7.009l-2.569,9.577l-9.585,2.565L1.577,238.973z M19.628,243.828
				l2.567-9.575l9.585-2.566l7.017,7.009l-2.569,9.576l-9.584,2.565L19.628,243.828z M37.677,248.683l2.57-9.574l9.584-2.567
				l7.018,7.01l-2.569,9.575l-9.584,2.566L37.677,248.683z M55.729,253.538l2.567-9.575l9.586-2.566l7.016,7.01l-2.567,9.575
				l-9.585,2.566L55.729,253.538z M73.778,258.394l2.569-9.575l9.585-2.566l7.018,7.011l-2.57,9.575l-9.584,2.566L73.778,258.394z
				 M91.829,263.249l2.568-9.575l9.585-2.566l7.019,7.01l-2.57,9.574l-9.584,2.566L91.829,263.249z M109.881,268.106l2.567-9.576
				l9.585-2.565l7.017,7.009l-2.569,9.575l-9.584,2.566L109.881,268.106z M127.93,272.961l2.57-9.576l9.584-2.565l7.018,7.009
				l-2.569,9.576l-9.585,2.565L127.93,272.961z M145.982,277.816l2.568-9.575l9.587-2.566l7.016,7.009l-2.567,9.576L153,284.825
				L145.982,277.816z M415.792,22.305l-2.569,9.575l-9.585,2.566l-7.018-7.01l2.57-9.576l9.584-2.566L415.792,22.305z M397.74,17.45
				l-2.567,9.575l-9.585,2.566l-7.017-7.009l2.567-9.575l9.587-2.566L397.74,17.45z M379.691,12.594l-2.569,9.575l-9.585,2.566
				l-7.018-7.01l2.569-9.575l9.584-2.566L379.691,12.594z M361.639,7.74l-2.57,9.575l-9.584,2.566l-7.016-7.01l2.567-9.575
				l9.585-2.566L361.639,7.74z M343.591,2.884l-2.569,9.575l-9.585,2.566l-7.017-7.01l2.569-9.575l9.585-2.566L343.591,2.884z
				 M325.54-1.971l-2.57,9.575l-9.584,2.566l-7.018-7.01l2.569-9.575l9.585-2.566L325.54-1.971z M307.487-6.827l-2.567,9.576
				l-9.585,2.566l-7.017-7.01l2.567-9.575l9.587-2.566L307.487-6.827z M289.438-11.682l-2.569,9.575l-9.585,2.566l-7.018-7.009
				l2.57-9.575l9.585-2.566L289.438-11.682z M271.387-16.537l-2.569,9.575l-9.584,2.566l-7.017-7.009l2.567-9.575l9.585-2.566
				L271.387-16.537z M253.239-21.44l-2.569,9.576l-9.585,2.566l-7.017-7.009l2.569-9.576l9.585-2.565L253.239-21.44z
				 M235.189-26.295l-2.569,9.575l-9.585,2.566l-7.017-7.01l2.568-9.575l9.585-2.566L235.189-26.295z M217.139-31.151l-2.569,9.576
				l-9.585,2.566l-7.017-7.009l2.567-9.576l9.587-2.566L217.139-31.151z M199.088-36.006l-2.569,9.575l-9.585,2.566l-7.017-7.009
				l2.569-9.575l9.584-2.566L199.088-36.006z M181.037-40.861l-2.569,9.575l-9.585,2.566l-7.017-7.01l2.568-9.575l9.586-2.566
				L181.037-40.861z M162.986-45.716l-2.569,9.575l-9.585,2.566l-7.017-7.01l2.567-9.575l9.587-2.566L162.986-45.716z
				 M144.936-50.572l-2.569,9.575l-9.585,2.566l-7.017-7.01l2.569-9.575l9.584-2.566L144.936-50.572z M126.884-55.427l-2.568,9.575
				l-9.585,2.566l-7.017-7.01l2.567-9.575l9.587-2.566L126.884-55.427z M108.834-60.283l-2.569,9.576l-9.585,2.566l-7.017-7.01
				l2.569-9.575l9.585-2.566L108.834-60.283z M-174.166,208.404l2.568-9.575l9.586-2.565l7.017,7.009l-2.568,9.576l-9.585,2.565
				L-174.166,208.404z M-156.117,213.259l2.569-9.575l9.585-2.565l7.018,7.01l-2.569,9.576l-9.584,2.565L-156.117,213.259z
				 M-138.065,218.115l2.568-9.575l9.587-2.566l7.016,7.009l-2.567,9.576l-9.586,2.566L-138.065,218.115z M-120.015,222.97
				l2.569-9.575l9.585-2.566l7.018,7.009l-2.57,9.576l-9.584,2.566L-120.015,222.97z M-101.963,227.826l2.568-9.575l9.585-2.566
				l7.019,7.01l-2.57,9.575l-9.584,2.567L-101.963,227.826z M-83.912,232.68l2.567-9.575l9.585-2.566l7.017,7.01l-2.569,9.575
				l-9.584,2.567L-83.912,232.68z M-65.863,237.536l2.57-9.576l9.584-2.566l7.018,7.01l-2.569,9.575l-9.584,2.566L-65.863,237.536z
				 M-47.811,242.392l2.568-9.575l9.586-2.566l7.016,7.01l-2.567,9.575l-9.585,2.565L-47.811,242.392z M-29.762,247.247l2.569-9.576
				l9.585-2.565l7.017,7.008l-2.567,9.577l-9.587,2.565L-29.762,247.247z M-11.614,252.149l2.569-9.575l9.585-2.566l7.017,7.009
				l-2.569,9.576l-9.585,2.566L-11.614,252.149z M6.437,257.004l2.569-9.574l9.585-2.565l7.018,7.009l-2.569,9.576l-9.585,2.566
				L6.437,257.004z M24.487,261.86l2.569-9.575l9.585-2.566l7.017,7.011l-2.569,9.574l-9.585,2.566L24.487,261.86z M42.538,266.716
				l2.568-9.575l9.586-2.566l7.017,7.01l-2.569,9.575l-9.584,2.566L42.538,266.716z M60.59,271.572l2.568-9.575l9.584-2.566
				l7.018,7.009l-2.569,9.575l-9.585,2.566L60.59,271.572z M78.64,276.427l2.567-9.577l9.587-2.565l7.017,7.01l-2.569,9.575
				l-9.585,2.565L78.64,276.427z M96.689,281.281l2.568-9.575l9.586-2.566l7.017,7.009l-2.569,9.576l-9.585,2.565L96.689,281.281z
				 M114.74,286.136l2.569-9.575l9.585-2.565l7.017,7.009l-2.569,9.575l-9.585,2.565L114.74,286.136z M132.791,290.992l2.568-9.575
				l9.586-2.565l7.017,7.009l-2.569,9.575l-9.585,2.565L132.791,290.992z M157.858,302.857l-7.017-7.009l2.569-9.575l9.585-2.566
				l7.018,7.009l-2.569,9.575L157.858,302.857z M171.049,289.68l-7.018-7.009l2.569-9.575l9.585-2.565l7.018,7.009l-2.57,9.575
				L171.049,289.68z M184.24,276.503l-7.017-7.009l2.569-9.575l9.584-2.565l7.018,7.009l-2.569,9.577L184.24,276.503z
				 M197.43,263.327l-7.018-7.009l2.569-9.575l9.585-2.565l7.018,7.009l-2.57,9.575L197.43,263.327z M210.62,250.15l-7.017-7.009
				l2.567-9.575l9.586-2.566l7.018,7.01l-2.569,9.576L210.62,250.15z M223.811,236.974l-7.018-7.009l2.568-9.575l9.587-2.566
				l7.018,7.01l-2.569,9.575L223.811,236.974z M237.002,223.798l-7.017-7.01l2.567-9.575l9.587-2.566l7.018,7.01l-2.569,9.575
				L237.002,223.798z M250.193,210.621l-7.019-7.01l2.569-9.575l9.585-2.566l7.017,7.01l-2.568,9.575L250.193,210.621z
				 M263.382,197.444l-7.017-7.01l2.567-9.575l9.587-2.566l7.015,7.01l-2.567,9.575L263.382,197.444z M276.572,184.267l-7.017-7.01
				l2.569-9.575l9.584-2.566l7.018,7.009l-2.569,9.576L276.572,184.267z M301.917,158.949l-2.569,9.575l-9.584,2.566l-7.016-7.01
				l2.567-9.575l9.585-2.566L301.917,158.949z M302.974,157.893l-7.017-7.01l2.567-9.576l9.586-2.566l7.018,7.01l-2.569,9.575
				L302.974,157.893z M316.165,144.717l-7.018-7.01l2.568-9.575l9.586-2.566l7.017,7.01l-2.569,9.575L316.165,144.717z
				 M329.354,131.54l-7.015-7.01l2.567-9.575l9.587-2.566l7.016,7.01l-2.567,9.575L329.354,131.54z M342.546,118.363l-7.017-7.01
				l2.568-9.575l9.584-2.566l7.018,7.009l-2.569,9.576L342.546,118.363z M355.736,105.186l-7.016-7.01l2.567-9.575l9.585-2.566
				l7.017,7.009l-2.569,9.576L355.736,105.186z M368.926,92.01L361.909,85l2.57-9.576l9.585-2.566l7.018,7.009l-2.569,9.576
				L368.926,92.01z M382.117,78.833l-7.018-7.009l2.569-9.576l9.585-2.565l7.017,7.009l-2.569,9.575L382.117,78.833z
				 M395.308,65.656l-7.018-7.009l2.57-9.577l9.584-2.565l7.018,7.01l-2.569,9.575L395.308,65.656z M408.499,52.479l-7.018-7.009
				l2.568-9.576l9.586-2.566l7.017,7.01l-2.569,9.576L408.499,52.479z M421.688,39.302l-7.018-7.01l2.568-9.575l9.586-2.566
				l7.018,7.01l-2.569,9.575L421.688,39.302z M447.034,13.984l-2.57,9.575l-9.584,2.566l-7.018-7.009l2.568-9.576l9.586-2.566
				L447.034,13.984z M428.982,9.129l-2.569,9.575l-9.585,2.566l-7.017-7.009l2.569-9.575l9.585-2.566L428.982,9.129z M410.932,4.273
				l-2.568,9.575l-9.586,2.566l-7.017-7.01l2.569-9.575l9.585-2.566L410.932,4.273z M392.881-0.582l-2.569,9.575l-9.584,2.566
				l-7.018-7.01l2.568-9.575l9.586-2.566L392.881-0.582z M374.83-5.438l-2.569,9.575l-9.585,2.566l-7.017-7.01l2.569-9.576
				l9.585-2.566L374.83-5.438z M356.779-10.292l-2.569,9.576l-9.584,2.566l-7.018-7.01l2.568-9.575l9.586-2.566L356.779-10.292z
				 M338.729-15.148l-2.569,9.575l-9.585,2.566l-7.017-7.01l2.569-9.575l9.585-2.566L338.729-15.148z M320.679-20.003l-2.569,9.575
				l-9.585,2.566l-7.017-7.009l2.569-9.576l9.584-2.566L320.679-20.003z M302.628-24.858l-2.569,9.575l-9.585,2.566l-7.018-7.01
				l2.569-9.575l9.585-2.566L302.628-24.858z M284.577-29.715l-2.569,9.576l-9.585,2.566l-7.017-7.01l2.569-9.575l9.585-2.566
				L284.577-29.715z M266.429-34.617l-2.568,9.576l-9.584,2.565l-7.019-7.009l2.569-9.576l9.585-2.566L266.429-34.617z
				 M248.378-39.472l-2.569,9.576l-9.585,2.566l-7.018-7.009l2.569-9.576l9.585-2.566L248.378-39.472z M230.327-44.327l-2.568,9.575
				l-9.585,2.566l-7.018-7.009l2.568-9.575l9.585-2.566L230.327-44.327z M212.279-49.183l-2.57,9.575l-9.585,2.566l-7.018-7.01
				l2.569-9.576l9.585-2.566L212.279-49.183z M194.227-54.037l-2.569,9.575l-9.585,2.566l-7.015-7.01l2.567-9.575l9.585-2.566
				L194.227-54.037z M176.177-58.893l-2.569,9.575l-9.584,2.566l-7.019-7.01l2.569-9.575l9.585-2.566L176.177-58.893z
				 M158.126-63.748l-2.569,9.575l-9.584,2.566l-7.018-7.01l2.569-9.575l9.585-2.566L158.126-63.748z M140.075-68.604l-2.567,9.575
				l-9.586,2.566l-7.018-7.01l2.568-9.575l9.586-2.566L140.075-68.604z M122.025-73.459l-2.57,9.575l-9.584,2.566l-7.018-7.01
				l2.569-9.575l9.585-2.566L122.025-73.459z M96.957-85.324l7.017,7.009l-2.569,9.575l-9.585,2.566l-7.015-7.01l2.567-9.575
				L96.957-85.324z M83.767-72.148l7.017,7.01l-2.569,9.576l-9.585,2.566l-7.017-7.009l2.568-9.576L83.767-72.148z M70.576-58.971
				l7.016,7.01l-2.567,9.575L65.44-39.82l-7.018-7.01l2.568-9.575L70.576-58.971z M57.387-45.794l7.017,7.01l-2.569,9.575
				l-9.584,2.566l-7.018-7.01l2.568-9.575L57.387-45.794z M44.196-32.618l7.018,7.009l-2.569,9.575l-9.585,2.566l-7.018-7.01
				l2.568-9.575L44.196-32.618z M31.005-19.441l7.017,7.009l-2.569,9.575l-9.584,2.566l-7.018-7.01l2.568-9.575L31.005-19.441z
				 M17.814-6.265l7.018,7.01l-2.569,9.576l-9.585,2.566L5.66,5.877l2.57-9.576L17.814-6.265z M4.624,6.912l7.017,7.01l-2.569,9.575
				l-9.584,2.566l-7.018-7.01l2.569-9.575L4.624,6.912z M-8.567,20.089l7.019,7.01l-2.569,9.576l-9.585,2.566l-7.018-7.01
				l2.569-9.576L-8.567,20.089z M-21.757,33.266l7.017,7.009l-2.569,9.575l-9.584,2.566l-7.019-7.009l2.57-9.576L-21.757,33.266z
				 M-47.101,58.584l2.569-9.575l9.585-2.566l7.017,7.009l-2.569,9.575l-9.586,2.566L-47.101,58.584z M-48.158,59.64l7.017,7.009
				l-2.569,9.576l-9.584,2.566l-7.018-7.009l2.568-9.576L-48.158,59.64z M-61.349,72.817l7.019,7.01l-2.569,9.575l-9.585,2.565
				l-7.018-7.01l2.568-9.575L-61.349,72.817z M-74.539,85.994l7.017,7.009l-2.569,9.575l-9.585,2.565l-7.017-7.009l2.567-9.576
				L-74.539,85.994z M-87.73,99.17l7.019,7.009l-2.57,9.576l-9.584,2.566l-7.018-7.009l2.569-9.576L-87.73,99.17z M-100.92,112.346
				l7.017,7.009l-2.569,9.576l-9.585,2.566l-7.017-7.01l2.569-9.575L-100.92,112.346z M-114.111,125.523l7.019,7.01l-2.57,9.575
				l-9.585,2.567l-7.018-7.01l2.569-9.575L-114.111,125.523z M-127.301,138.7l7.017,7.01l-2.569,9.575l-9.585,2.566l-7.016-7.01
				l2.568-9.575L-127.301,138.7z M-140.492,151.877l7.018,7.01l-2.569,9.575l-9.584,2.566l-7.017-7.01l2.568-9.575L-140.492,151.877
				z M-153.682,165.054l7.017,7.01l-2.567,9.575l-9.586,2.566l-7.018-7.01l2.569-9.576L-153.682,165.054z M-166.871,178.231
				l7.017,7.01l-2.569,9.575l-9.585,2.566l-7.017-7.009l2.567-9.576L-166.871,178.231z M-192.217,203.549l2.569-9.577l9.585-2.565
				l7.018,7.009l-2.569,9.576l-9.584,2.566L-192.217,203.549z"/>
		</g>
	</g>
	<g>
		<g>
			<defs>
				<rect id="SVGID_3_" x="0.24" y="0.412" width="231.931" height="231.637"/>
			</defs>
			<clipPath id="SVGID_4_">
				<use xlink:href="#SVGID_3_"  overflow="visible"/>
			</clipPath>
			<g clip-path="url(#SVGID_4_)">
				<g>
					<path fill="#88E5E2" d="M154.745-104.432H121.7c-1.781,0-3.225-1.449-3.225-3.234c0-1.788,1.444-3.237,3.225-3.237h33.045
						c1.782,0,3.226,1.449,3.226,3.237C157.972-105.88,156.527-104.432,154.745-104.432z"/>
				</g>
				<g>
					<path fill="#FED073" d="M116.062-104.432H83.02c-1.783,0-3.228-1.449-3.228-3.234c0-1.788,1.445-3.237,3.228-3.237h33.043
						c1.781,0,3.227,1.449,3.227,3.237C119.291-105.88,117.845-104.432,116.062-104.432z"/>
				</g>
				<g>
					<path fill="#1144A9" d="M154.745-90.792H121.7c-1.781,0-3.225-1.449-3.225-3.235c0-1.788,1.444-3.237,3.225-3.237h33.045
						c1.782,0,3.226,1.449,3.226,3.237C157.972-92.241,156.527-90.792,154.745-90.792z"/>
				</g>
				<g>
					<path fill="#A56F00" d="M116.062-90.792H83.02c-1.783,0-3.228-1.449-3.228-3.235c0-1.788,1.445-3.237,3.228-3.237h33.043
						c1.781,0,3.227,1.449,3.227,3.237C119.291-92.241,117.845-90.792,116.062-90.792z"/>
				</g>
				<g>
					<path fill="#88E5E2" d="M154.745-77.153H121.7c-1.781,0-3.225-1.449-3.225-3.237c0-1.786,1.444-3.234,3.225-3.234h33.045
						c1.782,0,3.226,1.448,3.226,3.234C157.972-78.602,156.527-77.153,154.745-77.153z"/>
				</g>
				<g>
					<path fill="#FED073" d="M116.062-77.153H83.02c-1.783,0-3.228-1.449-3.228-3.237c0-1.786,1.445-3.234,3.228-3.234h33.043
						c1.781,0,3.227,1.448,3.227,3.234C119.291-78.602,117.845-77.153,116.062-77.153z"/>
				</g>
				<g>
					<path fill="#88E5E2" d="M154.745,319.766H121.7c-1.781,0-3.225-1.449-3.225-3.236c0-1.786,1.444-3.235,3.225-3.235h33.045
						c1.782,0,3.226,1.448,3.226,3.235C157.971,318.316,156.527,319.766,154.745,319.766z"/>
				</g>
				<g>
					<path fill="#FED073" d="M116.062,319.766H83.02c-1.783,0-3.228-1.449-3.228-3.236c0-1.786,1.445-3.235,3.228-3.235h33.043
						c1.781,0,3.227,1.448,3.227,3.235C119.29,318.316,117.845,319.766,116.062,319.766z"/>
				</g>
				<g>
					<path fill="#1144A9" d="M154.745,333.405H121.7c-1.781,0-3.225-1.449-3.225-3.235c0-1.787,1.444-3.238,3.225-3.238h33.045
						c1.782,0,3.226,1.45,3.226,3.238C157.972,331.955,156.527,333.405,154.745,333.405z"/>
				</g>
				<g>
					<path fill="#A56F00" d="M116.062,333.405H83.02c-1.783,0-3.228-1.449-3.228-3.235c0-1.787,1.445-3.238,3.228-3.238h33.043
						c1.781,0,3.227,1.45,3.227,3.238C119.291,331.955,117.845,333.405,116.062,333.405z"/>
				</g>
				<g>
					<path fill="#88E5E2" d="M154.745,347.042H121.7c-1.781,0-3.225-1.447-3.225-3.233c0-1.788,1.444-3.238,3.225-3.238h33.045
						c1.782,0,3.226,1.45,3.226,3.238C157.972,345.595,156.527,347.042,154.745,347.042z"/>
				</g>
				<g>
					<path fill="#FED073" d="M116.062,347.042H83.02c-1.783,0-3.228-1.447-3.228-3.233c0-1.788,1.445-3.238,3.228-3.238h33.043
						c1.781,0,3.227,1.45,3.227,3.238C119.291,345.595,117.845,347.042,116.062,347.042z"/>
				</g>
				<g>
					<path fill="#88E5E2" d="M116.061-9.527H83.016c-1.781,0-3.226-1.448-3.226-3.235c0-1.788,1.445-3.237,3.226-3.237h33.045
						c1.78,0,3.226,1.448,3.226,3.237C119.288-10.974,117.842-9.527,116.061-9.527z"/>
				</g>
				<g>
					<path fill="#FED073" d="M154.742-9.527h-33.044c-1.781,0-3.227-1.448-3.227-3.235c0-1.788,1.446-3.237,3.227-3.237h33.044
						c1.782,0,3.228,1.448,3.228,3.237C157.971-10.974,156.524-9.527,154.742-9.527z"/>
				</g>
				<g>
					<path fill="#1144A9" d="M116.061,4.113H83.016c-1.781,0-3.226-1.448-3.226-3.236c0-1.786,1.445-3.234,3.226-3.234h33.045
						c1.78,0,3.226,1.448,3.226,3.234C119.288,2.664,117.842,4.113,116.061,4.113z"/>
				</g>
				<g>
					<path fill="#A56F00" d="M154.742,4.113h-33.044c-1.781,0-3.227-1.448-3.227-3.236c0-1.786,1.446-3.234,3.227-3.234h33.044
						c1.782,0,3.228,1.448,3.228,3.234C157.971,2.664,156.524,4.113,154.742,4.113z"/>
				</g>
				<g>
					<path fill="#FE6F00" d="M116.061,17.751H83.016c-1.781,0-3.226-1.448-3.226-3.236c0-1.786,1.445-3.237,3.226-3.237h33.045
						c1.78,0,3.226,1.449,3.226,3.237C119.288,16.304,117.842,17.751,116.061,17.751z"/>
				</g>
				<g>
					<path fill="#225E79" d="M154.742,17.751h-33.044c-1.781,0-3.227-1.448-3.227-3.236c0-1.786,1.446-3.237,3.227-3.237h33.044
						c1.782,0,3.228,1.449,3.228,3.237C157.971,16.304,156.524,17.751,154.742,17.751z"/>
				</g>
				<g>
					<path fill="#FE6F00" d="M154.745,105.867H121.7c-1.781,0-3.225-1.448-3.225-3.235c0-1.786,1.444-3.236,3.225-3.236h33.045
						c1.782,0,3.226,1.449,3.226,3.236C157.972,104.419,156.527,105.867,154.745,105.867z"/>
				</g>
				<g>
					<path fill="#225E79" d="M116.062,105.867H83.02c-1.783,0-3.228-1.448-3.228-3.235c0-1.786,1.445-3.236,3.228-3.236h33.043
						c1.781,0,3.227,1.449,3.227,3.236C119.291,104.419,117.845,105.867,116.062,105.867z"/>
				</g>
				<g>
					<path fill="#1144A9" d="M154.745,119.508H121.7c-1.781,0-3.225-1.449-3.225-3.235c0-1.786,1.444-3.236,3.225-3.236h33.045
						c1.782,0,3.226,1.449,3.226,3.236C157.972,118.06,156.527,119.508,154.745,119.508z"/>
				</g>
				<g>
					<path fill="#A56F00" d="M116.062,119.508H83.02c-1.783,0-3.228-1.449-3.228-3.235c0-1.786,1.445-3.236,3.228-3.236h33.043
						c1.781,0,3.227,1.449,3.227,3.236C119.291,118.06,117.845,119.508,116.062,119.508z"/>
				</g>
				<g>
					<path fill="#FE6F00" d="M154.745,133.145H121.7c-1.781,0-3.225-1.448-3.225-3.236c0-1.786,1.444-3.235,3.225-3.235h33.045
						c1.782,0,3.226,1.448,3.226,3.235C157.972,131.696,156.527,133.145,154.745,133.145z"/>
				</g>
				<g>
					<path fill="#225E79" d="M116.062,133.145H83.02c-1.783,0-3.228-1.448-3.228-3.236c0-1.786,1.445-3.235,3.228-3.235h33.043
						c1.781,0,3.227,1.448,3.227,3.235C119.291,131.696,117.845,133.145,116.062,133.145z"/>
				</g>
				<g>
					<path fill="#FE6F00" d="M116.061,221.262H83.016c-1.781,0-3.226-1.447-3.226-3.235c0-1.785,1.445-3.236,3.226-3.236h33.045
						c1.78,0,3.226,1.449,3.226,3.236C119.288,219.814,117.842,221.262,116.061,221.262z"/>
				</g>
				<g>
					<path fill="#225E79" d="M154.742,221.262h-33.044c-1.781,0-3.227-1.447-3.227-3.235c0-1.785,1.446-3.236,3.227-3.236h33.044
						c1.782,0,3.228,1.449,3.228,3.236C157.971,219.814,156.524,221.262,154.742,221.262z"/>
				</g>
				<g>
					<path fill="#1144A9" d="M116.061,234.904H83.016c-1.781,0-3.226-1.449-3.226-3.234c0-1.787,1.445-3.237,3.226-3.237h33.045
						c1.78,0,3.226,1.449,3.226,3.237C119.288,233.455,117.842,234.904,116.061,234.904z"/>
				</g>
				<g>
					<path fill="#A56F00" d="M154.742,234.904h-33.044c-1.781,0-3.227-1.449-3.227-3.234c0-1.787,1.446-3.237,3.227-3.237h33.044
						c1.782,0,3.228,1.449,3.228,3.237C157.971,233.455,156.524,234.904,154.742,234.904z"/>
				</g>
				<g>
					<path fill="#88E5E2" d="M116.061,248.54H83.016c-1.781,0-3.226-1.449-3.226-3.236s1.445-3.234,3.226-3.234h33.045
						c1.78,0,3.226,1.448,3.226,3.234C119.288,247.091,117.842,248.54,116.061,248.54z"/>
				</g>
				<g>
					<path fill="#FED073" d="M154.742,248.54h-33.044c-1.781,0-3.227-1.449-3.227-3.236s1.446-3.234,3.227-3.234h33.044
						c1.782,0,3.228,1.448,3.228,3.234C157.971,247.091,156.524,248.54,154.742,248.54z"/>
				</g>
				<g>
					<g>
						<path fill="#FE4540" d="M177.37,349.446h-25.822c0-20.232-15.252-31.173-40.372-46.793
							c-24.646-15.326-52.584-32.696-52.584-68.795c0-36.096,27.935-53.465,52.584-68.787c25.12-15.616,40.372-26.558,40.372-46.793
							c0-20.229-15.252-31.17-40.372-46.782C86.527,56.174,58.592,38.807,58.592,2.712c0-36.093,27.935-53.459,52.584-68.782
							c25.12-15.615,40.372-26.556,40.372-46.788h25.822c0,36.096-27.936,53.463-52.584,68.784
							C99.665-28.457,84.414-17.516,84.414,2.713s15.252,31.172,40.372,46.784c24.648,15.322,52.584,32.689,52.584,68.782
							c0,36.097-27.936,53.466-52.584,68.788c-25.12,15.616-40.372,26.558-40.372,46.792c0,20.236,15.254,31.178,40.375,46.8
							C149.433,295.983,177.37,313.349,177.37,349.446z"/>
					</g>
				</g>
				<g>
					<g>
						<path fill="#FEA300" d="M84.414,349.446H58.592c0-36.094,27.935-53.462,52.584-68.784
							c25.12-15.617,40.372-26.559,40.372-46.791c0-20.229-15.252-31.17-40.372-46.782C86.53,171.768,58.592,154.4,58.592,118.308
							c0-36.099,27.935-53.467,52.582-68.79c25.122-15.616,40.374-26.559,40.374-46.794c0-20.233-15.252-31.175-40.374-46.794
							c-24.647-15.322-52.582-32.691-52.582-68.788h25.822c0,20.232,15.252,31.177,40.372,46.794
							c24.648,15.323,52.584,32.691,52.584,68.788s-27.936,53.466-52.584,68.789c-25.12,15.617-40.372,26.56-40.372,46.795
							c0,20.227,15.252,31.17,40.372,46.785c24.648,15.318,52.584,32.686,52.584,68.778c0,36.096-27.936,53.463-52.584,68.785
							C99.665,318.274,84.414,329.214,84.414,349.446z"/>
					</g>
				</g>
			</g>
		</g>
	</g>
</g>
</svg>
