<?xml version="1.0" encoding="utf-8"?>
<!-- Generator: Adobe Illustrator 17.0.0, SVG Export Plug-In . SVG Version: 6.00 Build 0)  -->
<!DOCTYPE svg PUBLIC "-//W3C//DTD SVG 1.1//EN" "http://www.w3.org/Graphics/SVG/1.1/DTD/svg11.dtd">
<svg version="1.1" id="Layer_1" xmlns="http://www.w3.org/2000/svg" xmlns:xlink="http://www.w3.org/1999/xlink" x="0px" y="0px"
	 width="232px" height="232px" viewBox="0.343 1.014 232 232" enable-background="new 0.343 1.014 232 232" xml:space="preserve">
<g id="_x35_._Toilets_1_">
	<rect x="0.618" y="1.014" fill="#03889B" width="231.725" height="231.121"/>
	<g>
		<g>
			<defs>
				<rect id="SVGID_1_" x="0.343" y="1.893" width="231.725" height="231.121"/>
			</defs>
			<clipPath id="SVGID_2_">
				<use xlink:href="#SVGID_1_"  overflow="visible"/>
			</clipPath>
			<g clip-path="url(#SVGID_2_)">
				<g>
					<g>
						<path fill="none" stroke="#049EAA" stroke-miterlimit="10" d="M-0.355,234.116c4.018,0,4.018,3.978,8.037,3.978
							s4.019-3.978,8.038-3.978c4.018,0,4.018,3.978,8.037,3.978c4.018,0,4.018-3.978,8.036-3.978c4.016,0,4.016,3.978,8.032,3.978
							c4.017,0,4.017-3.978,8.034-3.978c4.018,0,4.018,3.978,8.037,3.978c4.017,0,4.017-3.978,8.033-3.978
							c4.019,0,4.019,3.978,8.038,3.978c4.017,0,4.017-3.978,8.035-3.978c4.018,0,4.018,3.978,8.036,3.978s4.018-3.978,8.036-3.978
							c4.019,0,4.019,3.978,8.038,3.978c4.018,0,4.018-3.978,8.036-3.978c4.019,0,4.019,3.978,8.038,3.978
							c4.02,0,4.02-3.978,8.04-3.978c4.02,0,4.02,3.978,8.039,3.978c4.019,0,4.019-3.978,8.038-3.978c4.02,0,4.02,3.978,8.04,3.978
							c4.021,0,4.021-3.978,8.041-3.978s4.02,3.978,8.039,3.978s4.019-3.978,8.038-3.978c4.019,0,4.019,3.978,8.038,3.978
							c4.019,0,4.019-3.978,8.039-3.978c4.021,0,4.021,3.978,8.041,3.978c4.022,0,4.022-3.978,8.043-3.978
							c4.02,0,4.02,3.978,8.041,3.978c4.024,0,4.024-3.978,8.047-3.978s4.023,3.978,8.046,3.978"/>
					</g>
					<g>
						<path fill="none" stroke="#049EAA" stroke-miterlimit="10" d="M-0.355,219.201c4.018,0,4.018,3.978,8.037,3.978
							s4.019-3.978,8.038-3.978c4.018,0,4.018,3.978,8.037,3.978c4.018,0,4.018-3.978,8.036-3.978c4.016,0,4.016,3.978,8.032,3.978
							c4.017,0,4.017-3.978,8.034-3.978c4.018,0,4.018,3.978,8.037,3.978c4.017,0,4.017-3.978,8.033-3.978
							c4.019,0,4.019,3.978,8.038,3.978c4.017,0,4.017-3.978,8.035-3.978c4.018,0,4.018,3.978,8.036,3.978s4.018-3.978,8.036-3.978
							c4.019,0,4.019,3.978,8.038,3.978c4.018,0,4.018-3.978,8.036-3.978c4.019,0,4.019,3.978,8.038,3.978
							c4.02,0,4.02-3.978,8.04-3.978c4.02,0,4.02,3.978,8.039,3.978c4.019,0,4.019-3.978,8.038-3.978c4.02,0,4.02,3.978,8.04,3.978
							c4.021,0,4.021-3.978,8.041-3.978s4.02,3.978,8.039,3.978s4.019-3.978,8.038-3.978c4.019,0,4.019,3.978,8.038,3.978
							c4.019,0,4.019-3.978,8.039-3.978c4.021,0,4.021,3.978,8.041,3.978c4.022,0,4.022-3.978,8.043-3.978
							c4.02,0,4.02,3.978,8.041,3.978c4.024,0,4.024-3.978,8.047-3.978s4.023,3.978,8.046,3.978"/>
					</g>
					<g>
						<path fill="none" stroke="#049EAA" stroke-miterlimit="10" d="M-0.355,204.287c4.018,0,4.018,3.978,8.037,3.978
							s4.019-3.978,8.038-3.978c4.018,0,4.018,3.978,8.037,3.978c4.018,0,4.018-3.978,8.036-3.978c4.016,0,4.016,3.978,8.032,3.978
							c4.017,0,4.017-3.978,8.034-3.978c4.018,0,4.018,3.978,8.037,3.978c4.017,0,4.017-3.978,8.033-3.978
							c4.019,0,4.019,3.978,8.038,3.978c4.017,0,4.017-3.978,8.035-3.978c4.018,0,4.018,3.978,8.036,3.978s4.018-3.978,8.036-3.978
							c4.019,0,4.019,3.978,8.038,3.978c4.018,0,4.018-3.978,8.036-3.978c4.019,0,4.019,3.978,8.038,3.978
							c4.02,0,4.02-3.978,8.04-3.978c4.02,0,4.02,3.978,8.039,3.978c4.019,0,4.019-3.978,8.038-3.978c4.02,0,4.02,3.978,8.04,3.978
							c4.021,0,4.021-3.978,8.041-3.978s4.02,3.978,8.039,3.978s4.019-3.978,8.038-3.978c4.019,0,4.019,3.978,8.038,3.978
							c4.019,0,4.019-3.978,8.039-3.978c4.021,0,4.021,3.978,8.041,3.978c4.022,0,4.022-3.978,8.043-3.978
							c4.02,0,4.02,3.978,8.041,3.978c4.024,0,4.024-3.978,8.047-3.978s4.023,3.978,8.046,3.978"/>
					</g>
					<g>
						<path fill="none" stroke="#049EAA" stroke-miterlimit="10" d="M-0.355,189.373c4.018,0,4.018,3.978,8.037,3.978
							s4.019-3.978,8.038-3.978c4.018,0,4.018,3.978,8.037,3.978c4.018,0,4.018-3.978,8.036-3.978c4.016,0,4.016,3.978,8.032,3.978
							c4.017,0,4.017-3.978,8.034-3.978c4.018,0,4.018,3.978,8.037,3.978c4.017,0,4.017-3.978,8.033-3.978
							c4.019,0,4.019,3.978,8.038,3.978c4.017,0,4.017-3.978,8.035-3.978c4.018,0,4.018,3.978,8.036,3.978s4.018-3.978,8.036-3.978
							c4.019,0,4.019,3.978,8.038,3.978c4.018,0,4.018-3.978,8.036-3.978c4.019,0,4.019,3.978,8.038,3.978
							c4.02,0,4.02-3.978,8.04-3.978c4.02,0,4.02,3.978,8.039,3.978c4.019,0,4.019-3.978,8.038-3.978c4.02,0,4.02,3.978,8.04,3.978
							c4.021,0,4.021-3.978,8.041-3.978s4.02,3.978,8.039,3.978s4.019-3.978,8.038-3.978c4.019,0,4.019,3.978,8.038,3.978
							c4.019,0,4.019-3.978,8.039-3.978c4.021,0,4.021,3.978,8.041,3.978c4.022,0,4.022-3.978,8.043-3.978
							c4.02,0,4.02,3.978,8.041,3.978c4.024,0,4.024-3.978,8.047-3.978s4.023,3.978,8.046,3.978"/>
					</g>
					<g>
						<path fill="none" stroke="#049EAA" stroke-miterlimit="10" d="M-0.355,174.459c4.018,0,4.018,3.978,8.037,3.978
							s4.019-3.978,8.038-3.978c4.018,0,4.018,3.978,8.037,3.978c4.018,0,4.018-3.978,8.036-3.978c4.016,0,4.016,3.978,8.032,3.978
							c4.017,0,4.017-3.978,8.034-3.978c4.018,0,4.018,3.978,8.037,3.978c4.017,0,4.017-3.978,8.033-3.978
							c4.019,0,4.019,3.978,8.038,3.978c4.017,0,4.017-3.978,8.035-3.978c4.018,0,4.018,3.978,8.036,3.978s4.018-3.978,8.036-3.978
							c4.019,0,4.019,3.978,8.038,3.978c4.018,0,4.018-3.978,8.036-3.978c4.019,0,4.019,3.978,8.038,3.978
							c4.02,0,4.02-3.978,8.04-3.978c4.02,0,4.02,3.978,8.039,3.978c4.019,0,4.019-3.978,8.038-3.978c4.02,0,4.02,3.978,8.04,3.978
							c4.021,0,4.021-3.978,8.041-3.978s4.02,3.978,8.039,3.978s4.019-3.978,8.038-3.978c4.019,0,4.019,3.978,8.038,3.978
							c4.019,0,4.019-3.978,8.039-3.978c4.021,0,4.021,3.978,8.041,3.978c4.022,0,4.022-3.978,8.043-3.978
							c4.02,0,4.02,3.978,8.041,3.978c4.024,0,4.024-3.978,8.047-3.978s4.023,3.978,8.046,3.978"/>
					</g>
					<g>
						<path fill="none" stroke="#049EAA" stroke-miterlimit="10" d="M-0.355,159.545c4.018,0,4.018,3.978,8.037,3.978
							s4.019-3.978,8.038-3.978c4.018,0,4.018,3.978,8.037,3.978c4.018,0,4.018-3.978,8.036-3.978c4.016,0,4.016,3.978,8.032,3.978
							c4.017,0,4.017-3.978,8.034-3.978c4.018,0,4.018,3.978,8.037,3.978c4.017,0,4.017-3.978,8.033-3.978
							c4.019,0,4.019,3.978,8.038,3.978c4.017,0,4.017-3.978,8.035-3.978c4.018,0,4.018,3.978,8.036,3.978s4.018-3.978,8.036-3.978
							c4.019,0,4.019,3.978,8.038,3.978c4.018,0,4.018-3.978,8.036-3.978c4.019,0,4.019,3.978,8.038,3.978
							c4.02,0,4.02-3.978,8.04-3.978c4.02,0,4.02,3.978,8.039,3.978c4.019,0,4.019-3.978,8.038-3.978c4.02,0,4.02,3.978,8.04,3.978
							c4.021,0,4.021-3.978,8.041-3.978s4.02,3.978,8.039,3.978s4.019-3.978,8.038-3.978c4.019,0,4.019,3.978,8.038,3.978
							c4.019,0,4.019-3.978,8.039-3.978c4.021,0,4.021,3.978,8.041,3.978c4.022,0,4.022-3.978,8.043-3.978
							c4.02,0,4.02,3.978,8.041,3.978c4.024,0,4.024-3.978,8.047-3.978s4.023,3.978,8.046,3.978"/>
					</g>
					<g>
						<path fill="none" stroke="#049EAA" stroke-miterlimit="10" d="M-0.355,144.631c4.018,0,4.018,3.978,8.037,3.978
							s4.019-3.978,8.038-3.978c4.018,0,4.018,3.978,8.037,3.978c4.018,0,4.018-3.978,8.036-3.978c4.016,0,4.016,3.978,8.032,3.978
							c4.017,0,4.017-3.978,8.034-3.978c4.018,0,4.018,3.978,8.037,3.978c4.017,0,4.017-3.978,8.033-3.978
							c4.019,0,4.019,3.978,8.038,3.978c4.017,0,4.017-3.978,8.035-3.978c4.018,0,4.018,3.978,8.036,3.978s4.018-3.978,8.036-3.978
							c4.019,0,4.019,3.978,8.038,3.978c4.018,0,4.018-3.978,8.036-3.978c4.019,0,4.019,3.978,8.038,3.978
							c4.02,0,4.02-3.978,8.04-3.978c4.02,0,4.02,3.978,8.039,3.978c4.019,0,4.019-3.978,8.038-3.978c4.02,0,4.02,3.978,8.04,3.978
							c4.021,0,4.021-3.978,8.041-3.978s4.02,3.978,8.039,3.978s4.019-3.978,8.038-3.978c4.019,0,4.019,3.978,8.038,3.978
							c4.019,0,4.019-3.978,8.039-3.978c4.021,0,4.021,3.978,8.041,3.978c4.022,0,4.022-3.978,8.043-3.978
							c4.02,0,4.02,3.978,8.041,3.978c4.024,0,4.024-3.978,8.047-3.978s4.023,3.978,8.046,3.978"/>
					</g>
					<g>
						<path fill="none" stroke="#049EAA" stroke-miterlimit="10" d="M-0.355,129.717c4.018,0,4.018,3.978,8.037,3.978
							s4.019-3.978,8.038-3.978c4.018,0,4.018,3.978,8.037,3.978c4.018,0,4.018-3.978,8.036-3.978c4.016,0,4.016,3.978,8.032,3.978
							c4.017,0,4.017-3.978,8.034-3.978c4.018,0,4.018,3.978,8.037,3.978c4.017,0,4.017-3.978,8.033-3.978
							c4.019,0,4.019,3.978,8.038,3.978c4.017,0,4.017-3.978,8.035-3.978c4.018,0,4.018,3.978,8.036,3.978s4.018-3.978,8.036-3.978
							c4.019,0,4.019,3.978,8.038,3.978c4.018,0,4.018-3.978,8.036-3.978c4.019,0,4.019,3.978,8.038,3.978
							c4.02,0,4.02-3.978,8.04-3.978c4.02,0,4.02,3.978,8.039,3.978c4.019,0,4.019-3.978,8.038-3.978c4.02,0,4.02,3.978,8.04,3.978
							c4.021,0,4.021-3.978,8.041-3.978s4.02,3.978,8.039,3.978s4.019-3.978,8.038-3.978c4.019,0,4.019,3.978,8.038,3.978
							c4.019,0,4.019-3.978,8.039-3.978c4.021,0,4.021,3.978,8.041,3.978c4.022,0,4.022-3.978,8.043-3.978
							c4.02,0,4.02,3.978,8.041,3.978c4.024,0,4.024-3.978,8.047-3.978s4.023,3.978,8.046,3.978"/>
					</g>
					<g>
						<path fill="none" stroke="#049EAA" stroke-miterlimit="10" d="M-0.355,114.803c4.018,0,4.018,3.978,8.037,3.978
							s4.019-3.978,8.038-3.978c4.018,0,4.018,3.978,8.037,3.978c4.018,0,4.018-3.978,8.036-3.978c4.016,0,4.016,3.978,8.032,3.978
							c4.017,0,4.017-3.978,8.034-3.978c4.018,0,4.018,3.978,8.037,3.978c4.017,0,4.017-3.978,8.033-3.978
							c4.019,0,4.019,3.978,8.038,3.978c4.017,0,4.017-3.978,8.035-3.978c4.018,0,4.018,3.978,8.036,3.978s4.018-3.978,8.036-3.978
							c4.019,0,4.019,3.978,8.038,3.978c4.018,0,4.018-3.978,8.036-3.978c4.019,0,4.019,3.978,8.038,3.978
							c4.02,0,4.02-3.978,8.04-3.978c4.02,0,4.02,3.978,8.039,3.978c4.019,0,4.019-3.978,8.038-3.978c4.02,0,4.02,3.978,8.04,3.978
							c4.021,0,4.021-3.978,8.041-3.978s4.02,3.978,8.039,3.978s4.019-3.978,8.038-3.978c4.019,0,4.019,3.978,8.038,3.978
							c4.019,0,4.019-3.978,8.039-3.978c4.021,0,4.021,3.978,8.041,3.978c4.022,0,4.022-3.978,8.043-3.978
							c4.02,0,4.02,3.978,8.041,3.978c4.024,0,4.024-3.978,8.047-3.978s4.023,3.978,8.046,3.978"/>
					</g>
					<g>
						<path fill="none" stroke="#049EAA" stroke-miterlimit="10" d="M-0.355,99.889c4.018,0,4.018,3.978,8.037,3.978
							s4.019-3.978,8.038-3.978c4.018,0,4.018,3.978,8.037,3.978c4.018,0,4.018-3.978,8.036-3.978c4.016,0,4.016,3.978,8.032,3.978
							c4.017,0,4.017-3.978,8.034-3.978c4.018,0,4.018,3.978,8.037,3.978c4.017,0,4.017-3.978,8.033-3.978
							c4.019,0,4.019,3.978,8.038,3.978c4.017,0,4.017-3.978,8.035-3.978c4.018,0,4.018,3.978,8.036,3.978s4.018-3.978,8.036-3.978
							c4.019,0,4.019,3.978,8.038,3.978c4.018,0,4.018-3.978,8.036-3.978c4.019,0,4.019,3.978,8.038,3.978
							c4.02,0,4.02-3.978,8.04-3.978c4.02,0,4.02,3.978,8.039,3.978c4.019,0,4.019-3.978,8.038-3.978c4.02,0,4.02,3.978,8.04,3.978
							c4.021,0,4.021-3.978,8.041-3.978s4.02,3.978,8.039,3.978s4.019-3.978,8.038-3.978c4.019,0,4.019,3.978,8.038,3.978
							c4.019,0,4.019-3.978,8.039-3.978c4.021,0,4.021,3.978,8.041,3.978c4.022,0,4.022-3.978,8.043-3.978
							c4.02,0,4.02,3.978,8.041,3.978c4.024,0,4.024-3.978,8.047-3.978s4.023,3.978,8.046,3.978"/>
					</g>
					<g>
						<path fill="none" stroke="#049EAA" stroke-miterlimit="10" d="M-0.355,84.975c4.018,0,4.018,3.978,8.037,3.978
							s4.019-3.978,8.038-3.978c4.018,0,4.018,3.978,8.037,3.978c4.018,0,4.018-3.978,8.036-3.978c4.016,0,4.016,3.978,8.032,3.978
							c4.017,0,4.017-3.978,8.034-3.978c4.018,0,4.018,3.978,8.037,3.978c4.017,0,4.017-3.978,8.033-3.978
							c4.019,0,4.019,3.978,8.038,3.978c4.017,0,4.017-3.978,8.035-3.978c4.018,0,4.018,3.978,8.036,3.978s4.018-3.978,8.036-3.978
							c4.019,0,4.019,3.978,8.038,3.978c4.018,0,4.018-3.978,8.036-3.978c4.019,0,4.019,3.978,8.038,3.978
							c4.02,0,4.02-3.978,8.04-3.978c4.02,0,4.02,3.978,8.039,3.978c4.019,0,4.019-3.978,8.038-3.978c4.02,0,4.02,3.978,8.04,3.978
							c4.021,0,4.021-3.978,8.041-3.978s4.02,3.978,8.039,3.978s4.019-3.978,8.038-3.978c4.019,0,4.019,3.978,8.038,3.978
							c4.019,0,4.019-3.978,8.039-3.978c4.021,0,4.021,3.978,8.041,3.978c4.022,0,4.022-3.978,8.043-3.978
							c4.02,0,4.02,3.978,8.041,3.978c4.024,0,4.024-3.978,8.047-3.978s4.023,3.978,8.046,3.978"/>
					</g>
					<g>
						<path fill="none" stroke="#049EAA" stroke-miterlimit="10" d="M-0.355,70.061c4.018,0,4.018,3.978,8.037,3.978
							s4.019-3.978,8.038-3.978c4.018,0,4.018,3.978,8.037,3.978c4.018,0,4.018-3.978,8.036-3.978c4.016,0,4.016,3.978,8.032,3.978
							c4.017,0,4.017-3.978,8.034-3.978c4.018,0,4.018,3.978,8.037,3.978c4.017,0,4.017-3.978,8.033-3.978
							c4.019,0,4.019,3.978,8.038,3.978c4.017,0,4.017-3.978,8.035-3.978c4.018,0,4.018,3.978,8.036,3.978s4.018-3.978,8.036-3.978
							c4.019,0,4.019,3.978,8.038,3.978c4.018,0,4.018-3.978,8.036-3.978c4.019,0,4.019,3.978,8.038,3.978
							c4.02,0,4.02-3.978,8.04-3.978c4.02,0,4.02,3.978,8.039,3.978c4.019,0,4.019-3.978,8.038-3.978c4.02,0,4.02,3.978,8.04,3.978
							c4.021,0,4.021-3.978,8.041-3.978s4.02,3.978,8.039,3.978s4.019-3.978,8.038-3.978c4.019,0,4.019,3.978,8.038,3.978
							c4.019,0,4.019-3.978,8.039-3.978c4.021,0,4.021,3.978,8.041,3.978c4.022,0,4.022-3.978,8.043-3.978
							c4.02,0,4.02,3.978,8.041,3.978c4.024,0,4.024-3.978,8.047-3.978s4.023,3.978,8.046,3.978"/>
					</g>
					<g>
						<path fill="none" stroke="#049EAA" stroke-miterlimit="10" d="M-0.355,55.148c4.018,0,4.018,3.978,8.037,3.978
							s4.019-3.978,8.038-3.978c4.018,0,4.018,3.978,8.037,3.978c4.018,0,4.018-3.978,8.036-3.978c4.016,0,4.016,3.978,8.032,3.978
							c4.017,0,4.017-3.978,8.034-3.978c4.018,0,4.018,3.978,8.037,3.978c4.017,0,4.017-3.978,8.033-3.978
							c4.019,0,4.019,3.978,8.038,3.978c4.017,0,4.017-3.978,8.035-3.978c4.018,0,4.018,3.978,8.036,3.978s4.018-3.978,8.036-3.978
							c4.019,0,4.019,3.978,8.038,3.978c4.018,0,4.018-3.978,8.036-3.978c4.019,0,4.019,3.978,8.038,3.978
							c4.02,0,4.02-3.978,8.04-3.978c4.02,0,4.02,3.978,8.039,3.978c4.019,0,4.019-3.978,8.038-3.978c4.02,0,4.02,3.978,8.04,3.978
							c4.021,0,4.021-3.978,8.041-3.978s4.02,3.978,8.039,3.978s4.019-3.978,8.038-3.978c4.019,0,4.019,3.978,8.038,3.978
							c4.019,0,4.019-3.978,8.039-3.978c4.021,0,4.021,3.978,8.041,3.978c4.022,0,4.022-3.978,8.043-3.978
							c4.02,0,4.02,3.978,8.041,3.978c4.024,0,4.024-3.978,8.047-3.978s4.023,3.978,8.046,3.978"/>
					</g>
					<g>
						<path fill="none" stroke="#049EAA" stroke-miterlimit="10" d="M-0.355,40.234c4.018,0,4.018,3.978,8.037,3.978
							s4.019-3.978,8.038-3.978c4.018,0,4.018,3.978,8.037,3.978c4.018,0,4.018-3.978,8.036-3.978c4.016,0,4.016,3.978,8.032,3.978
							c4.017,0,4.017-3.978,8.034-3.978c4.018,0,4.018,3.978,8.037,3.978c4.017,0,4.017-3.978,8.033-3.978
							c4.019,0,4.019,3.978,8.038,3.978c4.017,0,4.017-3.978,8.035-3.978c4.018,0,4.018,3.978,8.036,3.978s4.018-3.978,8.036-3.978
							c4.019,0,4.019,3.978,8.038,3.978c4.018,0,4.018-3.978,8.036-3.978c4.019,0,4.019,3.978,8.038,3.978
							c4.02,0,4.02-3.978,8.04-3.978c4.02,0,4.02,3.978,8.039,3.978c4.019,0,4.019-3.978,8.038-3.978c4.02,0,4.02,3.978,8.04,3.978
							c4.021,0,4.021-3.978,8.041-3.978s4.02,3.978,8.039,3.978s4.019-3.978,8.038-3.978c4.019,0,4.019,3.978,8.038,3.978
							c4.019,0,4.019-3.978,8.039-3.978c4.021,0,4.021,3.978,8.041,3.978c4.022,0,4.022-3.978,8.043-3.978
							c4.02,0,4.02,3.978,8.041,3.978c4.024,0,4.024-3.978,8.047-3.978s4.023,3.978,8.046,3.978"/>
					</g>
					<g>
						<path fill="none" stroke="#049EAA" stroke-miterlimit="10" d="M-0.355,25.32c4.018,0,4.018,3.978,8.037,3.978
							s4.019-3.978,8.038-3.978c4.018,0,4.018,3.978,8.037,3.978c4.018,0,4.018-3.978,8.036-3.978c4.016,0,4.016,3.978,8.032,3.978
							c4.017,0,4.017-3.978,8.034-3.978c4.018,0,4.018,3.978,8.037,3.978c4.017,0,4.017-3.978,8.033-3.978
							c4.019,0,4.019,3.978,8.038,3.978c4.017,0,4.017-3.978,8.035-3.978c4.018,0,4.018,3.978,8.036,3.978s4.018-3.978,8.036-3.978
							c4.019,0,4.019,3.978,8.038,3.978c4.018,0,4.018-3.978,8.036-3.978c4.019,0,4.019,3.978,8.038,3.978
							c4.02,0,4.02-3.978,8.04-3.978c4.02,0,4.02,3.978,8.039,3.978c4.019,0,4.019-3.978,8.038-3.978c4.02,0,4.02,3.978,8.04,3.978
							c4.021,0,4.021-3.978,8.041-3.978s4.02,3.978,8.039,3.978s4.019-3.978,8.038-3.978c4.019,0,4.019,3.978,8.038,3.978
							c4.019,0,4.019-3.978,8.039-3.978c4.021,0,4.021,3.978,8.041,3.978c4.022,0,4.022-3.978,8.043-3.978
							c4.02,0,4.02,3.978,8.041,3.978c4.024,0,4.024-3.978,8.047-3.978s4.023,3.978,8.046,3.978"/>
					</g>
					<g>
						<path fill="none" stroke="#049EAA" stroke-miterlimit="10" d="M-0.355,10.405c4.018,0,4.018,3.978,8.037,3.978
							s4.019-3.978,8.038-3.978c4.018,0,4.018,3.978,8.037,3.978c4.018,0,4.018-3.978,8.036-3.978c4.016,0,4.016,3.978,8.032,3.978
							c4.017,0,4.017-3.978,8.034-3.978c4.018,0,4.018,3.978,8.037,3.978c4.017,0,4.017-3.978,8.033-3.978
							c4.019,0,4.019,3.978,8.038,3.978c4.017,0,4.017-3.978,8.035-3.978c4.018,0,4.018,3.978,8.036,3.978s4.018-3.978,8.036-3.978
							c4.019,0,4.019,3.978,8.038,3.978c4.018,0,4.018-3.978,8.036-3.978c4.019,0,4.019,3.978,8.038,3.978
							c4.02,0,4.02-3.978,8.04-3.978c4.02,0,4.02,3.978,8.039,3.978c4.019,0,4.019-3.978,8.038-3.978c4.02,0,4.02,3.978,8.04,3.978
							c4.021,0,4.021-3.978,8.041-3.978s4.02,3.978,8.039,3.978s4.019-3.978,8.038-3.978c4.019,0,4.019,3.978,8.038,3.978
							c4.019,0,4.019-3.978,8.039-3.978c4.021,0,4.021,3.978,8.041,3.978c4.022,0,4.022-3.978,8.043-3.978
							c4.02,0,4.02,3.978,8.041,3.978c4.024,0,4.024-3.978,8.047-3.978s4.023,3.978,8.046,3.978"/>
					</g>
					<g>
						<path fill="none" stroke="#049EAA" stroke-miterlimit="10" d="M-0.355-4.508c4.018,0,4.018,3.978,8.037,3.978
							s4.019-3.978,8.038-3.978c4.018,0,4.018,3.978,8.037,3.978c4.018,0,4.018-3.978,8.036-3.978c4.016,0,4.016,3.978,8.032,3.978
							c4.017,0,4.017-3.978,8.034-3.978c4.018,0,4.018,3.978,8.037,3.978c4.017,0,4.017-3.978,8.033-3.978
							c4.019,0,4.019,3.978,8.038,3.978c4.017,0,4.017-3.978,8.035-3.978c4.018,0,4.018,3.978,8.036,3.978s4.018-3.978,8.036-3.978
							c4.019,0,4.019,3.978,8.038,3.978c4.018,0,4.018-3.978,8.036-3.978c4.019,0,4.019,3.978,8.038,3.978
							c4.02,0,4.02-3.978,8.04-3.978c4.02,0,4.02,3.978,8.039,3.978c4.019,0,4.019-3.978,8.038-3.978c4.02,0,4.02,3.978,8.04,3.978
							c4.021,0,4.021-3.978,8.041-3.978s4.02,3.978,8.039,3.978s4.019-3.978,8.038-3.978c4.019,0,4.019,3.978,8.038,3.978
							c4.019,0,4.019-3.978,8.039-3.978c4.021,0,4.021,3.978,8.041,3.978c4.022,0,4.022-3.978,8.043-3.978
							c4.02,0,4.02,3.978,8.041,3.978c4.024,0,4.024-3.978,8.047-3.978s4.023,3.978,8.046,3.978"/>
					</g>
				</g>
			</g>
		</g>
	</g>
	<rect x="91.536" y="96.236" fill="#D9D4DB" width="52.851" height="26.217"/>
	<rect x="91.536" y="93.942" fill="#A2BCC5" width="52.851" height="9.169"/>
	<g>
		<path fill="#FFFFFF" d="M157.418,92.446c0,4.156-3.38,7.525-7.547,7.525H86.053c-4.168,0-7.547-3.37-7.547-7.525V61.082
			c0-4.157,3.38-7.526,7.547-7.526h63.817c4.168,0,7.547,3.37,7.547,7.526L157.418,92.446L157.418,92.446z"/>
		<path fill="#F2EEEC" d="M157.418,92.446c0,4.156-3.38,7.525-7.547,7.525H86.053c-2.397,0-4.534-1.114-5.917-2.852
			c-1.021-1.284,75.07-41.359,75.07-41.359s2.21,3.244,2.21,5.322L157.418,92.446L157.418,92.446z"/>
	</g>
	<rect x="78.495" y="55.236" fill="#D9D4DB" width="78.933" height="5.659"/>
	<g>
		<path fill="#F2EEEC" d="M151.068,44.762h-33.224v11.285h41.134v-3.394C158.978,48.296,155.436,44.762,151.068,44.762z"/>
		<path fill="#FFFFFF" d="M84.854,44.762h33.225v11.285H76.944v-3.394C76.944,48.296,80.485,44.762,84.854,44.762z"/>
	</g>
	<rect x="83.224" y="117.454" fill="#D9D4DB" width="68.806" height="5.912"/>
	<path fill="#D9D4DB" d="M152.311,179.371h-0.633v-0.004c-0.059,0.002-0.114,0.004-0.173,0.004
		c-10.682,0-19.344-8.636-19.344-19.291c0-6.075,2.82-11.494,7.223-15.031h-9.525h-25.516h-9.526
		c4.403,3.537,7.221,8.956,7.221,15.031c0,10.656-8.66,19.291-19.343,19.291c-0.057,0-0.115-0.002-0.171-0.004v0.004H81.89
		c-3.207,0-5.806,2.595-5.806,5.792v2.492h6.44h21.819h1.762h0.172h21.646h0.173h1.763h21.818h6.44v-2.492
		C158.117,181.965,155.517,179.371,152.311,179.371z"/>
	<g>
		<path fill="#FFFFFF" d="M154.439,118.588H81.482c-1.428,0-2.585-1.154-2.585-2.58c0-1.422,1.158-2.578,2.585-2.578h72.957
			c1.429,0,2.585,1.156,2.585,2.578C157.025,117.435,155.868,118.588,154.439,118.588z"/>
	</g>
	<g>
		<path fill="#FFFFFF" d="M152.569,112.087H83.353c-1.354,0-2.453-1.096-2.453-2.445c0-1.351,1.099-2.447,2.453-2.447h69.216
			c1.355,0,2.454,1.096,2.454,2.447C155.023,110.992,153.925,112.087,152.569,112.087z"/>
	</g>
	<path fill="#F2EEEC" d="M83.149,121.69c0,18.968,15.417,34.348,34.435,34.348c19.019,0,34.437-15.379,34.437-34.348
		c0-0.33-0.018-0.654-0.025-0.983H83.175C83.165,121.036,83.149,121.36,83.149,121.69z"/>
	<path fill="#F2EEEC" d="M82.695,179.371c-0.057,0-0.115-0.002-0.171-0.004v0.004H81.89c-3.207,0-5.806,2.595-5.806,5.792v2.492
		h6.44h21.819h1.762h0.172h21.646h0.173h1.763h21.818h6.44v-2.492c0-3.197-2.599-5.792-5.807-5.792h-0.633v-0.004
		c-0.059,0.002-0.114,0.004-0.173,0.004c-1.531,0-3.02-0.183-4.449-0.518H87.145C85.717,179.188,84.227,179.371,82.695,179.371z"/>
	<path fill="#A2BCC5" d="M91.488,64.299c-0.118,0-0.233,0.01-0.349,0.018l0.077-0.075h-6.751h-3.151v1.22
		c0,1.564,1.271,2.833,2.84,2.833h0.311v0.002c0.027,0,0.055-0.002,0.083-0.002c0.731,0,1.444,0.088,2.128,0.245
		c-0.024,0.196-0.041,0.396-0.041,0.601c0,2.673,2.174,4.839,4.853,4.839c2.679,0,4.853-2.167,4.853-4.839
		C96.34,66.468,94.168,64.299,91.488,64.299z"/>
</g>
</svg>
