<?xml version="1.0" encoding="utf-8"?>
<!-- Generator: Adobe Illustrator 17.0.0, SVG Export Plug-In . SVG Version: 6.00 Build 0)  -->
<!DOCTYPE svg PUBLIC "-//W3C//DTD SVG 1.1//EN" "http://www.w3.org/Graphics/SVG/1.1/DTD/svg11.dtd">
<svg version="1.1" id="Layer_1" xmlns="http://www.w3.org/2000/svg" xmlns:xlink="http://www.w3.org/1999/xlink" x="0px" y="0px"
	 width="232px" height="232px" viewBox="0 0 232 232" enable-background="new 0 0 232 232" xml:space="preserve">
<g id="Where_do_you_Stand_x3F_">
	<rect x="-0.263" y="166.488" fill="#363947" width="232.646" height="65.512"/>
	<g>
		<path fill="#363947" d="M86.18,79.635h2.906l2.393,13.701h0.058l1.965-13.701h3.305l-3.617,21.505h-2.963l-2.564-14.208h-0.057
			l-2.394,14.208h-2.962l-3.903-21.505h3.305l2.165,13.701h0.057L86.18,79.635z"/>
		<path fill="#363947" d="M99.961,101.14V79.635h3.191v6.97c1.168-1.072,1.852-1.787,3.703-1.787c1.681,0,2.678,1.28,2.678,3.366
			v12.956h-3.19V88.719c0-0.804-0.456-1.161-1.14-1.161s-1.311,0.446-2.051,1.013v12.569H99.961z"/>
		<path fill="#363947" d="M122.933,93.753h-6.724v2.323c0,1.847,0.627,2.621,1.767,2.621s1.767-0.774,1.767-2.621v-0.357h3.19
			c-0.057,3.396-1.396,5.719-4.957,5.719c-3.646,0-4.957-2.442-4.957-5.957v-4.706c0-3.515,1.311-5.957,4.957-5.957
			s4.957,2.442,4.957,5.957V93.753z M119.742,91.013v-0.834c0-1.847-0.627-2.621-1.767-2.621s-1.767,0.774-1.767,2.621v0.834
			H119.742z"/>
		<path fill="#363947" d="M126.393,101.14V85.115h3.049v1.877h0.057c0.77-1.371,2.108-2.175,3.618-2.175h0.655v3.485
			c-0.57-0.149-1.111-0.328-2.052-0.328c-1.082,0-2.136,0.715-2.136,2.145v11.021H126.393z"/>
		<path fill="#363947" d="M146.496,93.753h-6.723v2.323c0,1.847,0.626,2.621,1.766,2.621s1.767-0.774,1.767-2.621v-0.357h3.19
			c-0.057,3.396-1.396,5.719-4.957,5.719c-3.646,0-4.957-2.442-4.957-5.957v-4.706c0-3.515,1.311-5.957,4.957-5.957
			s4.957,2.442,4.957,5.957V93.753z M143.306,91.013v-0.834c0-1.847-0.627-2.621-1.767-2.621s-1.766,0.774-1.766,2.621v0.834
			H143.306z"/>
		<path fill="#363947" d="M40.738,117.425h5.242c3.646,0,5.584,2.085,5.584,6.493v8.519c0,4.408-1.938,6.493-5.584,6.493h-5.242
			V117.425z M44.271,135.892h1.225c1.88,0,2.535-0.745,2.535-3.009v-9.412c0-2.264-0.655-3.008-2.535-3.008h-1.225V135.892z"/>
		<path fill="#363947" d="M55.189,128.564c0-3.515,1.311-5.957,4.957-5.957s4.957,2.442,4.957,5.957v4.706
			c0,3.515-1.311,5.957-4.957,5.957s-4.957-2.442-4.957-5.957V128.564z M61.913,127.969c0-1.847-0.627-2.621-1.767-2.621
			s-1.766,0.774-1.766,2.621v5.897c0,1.847,0.626,2.621,1.766,2.621s1.767-0.774,1.767-2.621V127.969z"/>
		<path fill="#363947" d="M82.309,138.93h-3.533v-8.936l-4.272-12.569h3.589l2.479,8.19h0.058l2.364-8.19h3.59l-4.273,12.569V138.93
			z"/>
		<path fill="#363947" d="M87.962,128.564c0-3.515,1.311-5.957,4.957-5.957s4.957,2.442,4.957,5.957v4.706
			c0,3.515-1.311,5.957-4.957,5.957s-4.957-2.442-4.957-5.957V128.564z M94.686,127.969c0-1.847-0.627-2.621-1.767-2.621
			s-1.767,0.774-1.767,2.621v5.897c0,1.847,0.627,2.621,1.767,2.621s1.767-0.774,1.767-2.621V127.969z"/>
		<path fill="#363947" d="M110.908,122.905v16.024h-3.02v-1.608c-1.339,1.191-2.022,1.906-3.875,1.906
			c-1.681,0-2.678-1.28-2.678-3.366v-12.956h3.191v12.421c0,0.804,0.455,1.161,1.139,1.161c0.685,0,1.311-0.446,2.052-1.013v-12.569
			H110.908z"/>
		<path fill="#363947" d="M128.341,122.727c-0.143-1.847-1.082-2.383-1.88-2.383c-1.14,0-1.767,0.774-1.767,2.115
			c0,3.663,7.179,5.42,7.179,11.258c0,3.545-2.278,5.511-5.583,5.511c-3.276,0-5.156-2.74-5.299-5.957l3.361-0.507
			c0.143,2.175,0.969,3.247,2.108,3.247c1.225,0,2.051-0.685,2.051-1.966c0-4.26-7.179-5.391-7.179-11.557
			c0-3.426,1.994-5.361,5.47-5.361c2.877,0,4.587,2.174,4.899,5.213L128.341,122.727z"/>
		<path fill="#363947" d="M134.394,125.646v-2.74h1.766v-4.319h3.191v4.319h2.137v2.74h-2.137v9.233
			c0,0.834,0.342,1.311,1.082,1.311h1.055v2.859c-0.428,0.119-0.798,0.179-1.596,0.179c-2.394,0-3.732-1.161-3.732-3.604v-9.978
			H134.394z"/>
		<path fill="#363947" d="M144.393,127.611c0.171-3.246,2.137-5.004,5.128-5.004c2.963,0,4.644,1.43,4.644,4.349v10.276
			c0,0.506,0.114,1.161,0.199,1.697h-3.048c-0.028-0.447-0.143-0.863-0.171-1.251c-1.196,1.013-2.193,1.549-3.732,1.549
			c-2.165,0-3.247-1.549-3.247-3.604c0-3.514,2.222-5.45,6.809-7.268v-0.953c0-1.34-0.513-2.055-1.567-2.055
			c-1.452,0-1.766,0.894-1.823,2.264H144.393z M150.974,130.799c-2.906,1.727-3.618,2.829-3.618,4.229
			c0,1.043,0.513,1.46,1.481,1.46c0.883,0,1.596-0.685,2.137-1.489V130.799z"/>
		<path fill="#363947" d="M157.88,138.93v-16.024h3.021v1.608c1.339-1.191,2.022-1.906,3.874-1.906c1.681,0,2.678,1.281,2.678,3.365
			v12.957h-3.19v-12.42c0-0.805-0.456-1.162-1.14-1.162s-1.311,0.447-2.051,1.013v12.569H157.88z"/>
		<path fill="#363947" d="M177.719,138.93v-1.668h-0.058c-1.054,1.4-1.823,1.966-3.418,1.966c-1.994,0-3.248-1.549-3.248-4.468
			v-7.685c0-2.919,1.254-4.468,3.248-4.468c1.396,0,2.051,0.596,3.305,1.668v-6.851h3.19v21.505H177.719z M177.548,126.182
			c-0.627-0.477-1.196-0.834-1.823-0.834c-0.854,0-1.539,0.477-1.539,2.592v5.957c0,2.114,0.685,2.591,1.539,2.591
			c0.627,0,1.196-0.357,1.823-0.834V126.182z"/>
		<path fill="#363947" d="M187.036,132.615v-2.502c0-2.055,0.74-3.723,1.48-5.152c0.741-1.43,1.481-2.651,1.481-3.754
			c0-0.715-0.484-1.34-1.196-1.34c-1.196,0-1.766,1.221-2.022,2.264l-2.734-1.072c0.883-2.621,2.449-3.932,5.156-3.932
			c2.137,0,4.102,1.697,4.102,3.991c0,2.204-0.883,3.336-1.766,4.616c-0.884,1.252-1.767,2.621-1.767,5.272v1.608H187.036z
			 M186.665,138.93v-3.515h3.362v3.515H186.665z"/>
		<path fill="#F2F2F2" d="M7.527,186.324h1.894l1.664,5.685l1.802-5.708h1.515l1.802,5.708l1.663-5.685h1.848l-2.742,8.455h-1.538
			l-1.812-5.492l-1.813,5.492h-1.537L7.527,186.324z"/>
		<path fill="#F2F2F2" d="M21.189,186.324h1.768v3.322h3.258v-3.322h1.768v8.396h-1.768v-3.37h-3.258v3.37h-1.768V186.324z"/>
		<path fill="#F2F2F2" d="M32.848,186.265h1.629l3.443,8.455h-1.848l-0.734-1.883h-3.396l-0.734,1.883h-1.802L32.848,186.265z
			 M34.707,191.206l-1.067-2.723l-1.067,2.723H34.707z"/>
		<path fill="#F2F2F2" d="M40.285,188.027h-2.443v-1.703h6.654v1.703h-2.443v6.692h-1.768V188.027z"/>
		<path fill="#F2F2F2" d="M49.639,186.324h1.629l3.764,5.169v-5.169h1.744v8.396h-1.503l-3.89-5.337v5.337h-1.744V186.324z"/>
		<path fill="#F2F2F2" d="M59.025,186.324h6.059v1.644h-4.303v1.703h3.786v1.643h-3.786v1.763h4.36v1.644h-6.116V186.324z"/>
		<path fill="#F2F2F2" d="M66.391,186.324h1.893l1.664,5.685l1.802-5.708h1.515l1.801,5.708l1.664-5.685h1.848l-2.742,8.455h-1.538
			l-1.812-5.492l-1.813,5.492h-1.537L66.391,186.324z"/>
		<path fill="#F2F2F2" d="M83.674,186.324h1.768v3.322h3.258v-3.322h1.768v8.396h-1.768v-3.37h-3.258v3.37h-1.768V186.324z"/>
		<path fill="#F2F2F2" d="M92.716,186.324h6.059v1.644h-4.303v1.703h3.786v1.643h-3.786v1.763h4.36v1.644h-6.116V186.324z"/>
		<path fill="#F2F2F2" d="M103.518,186.265h1.629l3.443,8.455h-1.848l-0.734-1.883h-3.396l-0.734,1.883h-1.802L103.518,186.265z
			 M105.377,191.206l-1.067-2.723l-1.067,2.723H105.377z"/>
		<path fill="#F2F2F2" d="M110.019,186.324h1.767v6.717h4.005v1.679h-5.771V186.324z"/>
		<path fill="#F2F2F2" d="M118.195,188.027h-2.443v-1.703h6.654v1.703h-2.443v6.692h-1.768V188.027z"/>
		<path fill="#F2F2F2" d="M123.888,186.324h1.767v3.322h3.26v-3.322h1.767v8.396h-1.767v-3.37h-3.26v3.37h-1.767V186.324z"/>
		<path fill="#F2F2F2" d="M136.477,186.324h1.768v8.396h-1.768V186.324z"/>
		<path fill="#F2F2F2" d="M140.512,186.324h1.629l3.764,5.169v-5.169h1.744v8.396h-1.503l-3.89-5.337v5.337h-1.744V186.324z"/>
		<path fill="#F2F2F2" d="M149.898,186.324h1.629l3.764,5.169v-5.169h1.744v8.396h-1.503l-3.89-5.337v5.337h-1.744V186.324z"/>
		<path fill="#F2F2F2" d="M158.877,190.546v-0.023c0-2.387,1.801-4.342,4.279-4.342s4.258,1.931,4.258,4.317v0.024
			c0,2.387-1.802,4.341-4.28,4.341S158.877,192.933,158.877,190.546z M165.566,190.546v-0.023c0-1.439-1.01-2.639-2.433-2.639
			s-2.409,1.175-2.409,2.614v0.024c0,1.438,1.01,2.638,2.432,2.638C164.58,193.16,165.566,191.985,165.566,190.546z"/>
		<path fill="#F2F2F2" d="M168.09,186.324h1.951l2.1,5.913l2.1-5.913h1.904l-3.247,8.455h-1.561L168.09,186.324z"/>
		<path fill="#F2F2F2" d="M179.549,186.265h1.629l3.443,8.455h-1.848l-0.734-1.883h-3.396l-0.734,1.883h-1.802L179.549,186.265z
			 M181.408,191.206l-1.067-2.723l-1.067,2.723H181.408z"/>
		<path fill="#F2F2F2" d="M186.986,188.027h-2.443v-1.703h6.654v1.703h-2.443v6.692h-1.768V188.027z"/>
		<path fill="#F2F2F2" d="M192.719,186.324h1.768v8.396h-1.768V186.324z"/>
		<path fill="#F2F2F2" d="M196.346,190.546v-0.023c0-2.387,1.801-4.342,4.279-4.342s4.258,1.931,4.258,4.317v0.024
			c0,2.387-1.802,4.341-4.28,4.341S196.346,192.933,196.346,190.546z M203.035,190.546v-0.023c0-1.439-1.01-2.639-2.433-2.639
			s-2.409,1.175-2.409,2.614v0.024c0,1.438,1.01,2.638,2.432,2.638C202.049,193.16,203.035,191.985,203.035,190.546z"/>
		<path fill="#F2F2F2" d="M206.706,186.324h1.63l3.764,5.169v-5.169h1.744v8.396h-1.504l-3.89-5.337v5.337h-1.744V186.324z"/>
		<path fill="#F2F2F2" d="M215.514,193.496l1.044-1.307c0.724,0.623,1.48,1.02,2.398,1.02c0.723,0,1.159-0.3,1.159-0.792v-0.024
			c0-0.468-0.275-0.707-1.618-1.067c-1.618-0.432-2.662-0.899-2.662-2.566v-0.023c0-1.523,1.171-2.531,2.812-2.531
			c1.17,0,2.168,0.384,2.983,1.067l-0.918,1.392c-0.712-0.516-1.411-0.827-2.089-0.827c-0.677,0-1.032,0.323-1.032,0.731v0.023
			c0,0.552,0.344,0.731,1.732,1.104c1.63,0.444,2.548,1.056,2.548,2.519v0.024c0,1.667-1.217,2.603-2.949,2.603
			C217.705,194.84,216.478,194.396,215.514,193.496z"/>
		<path fill="#F2F2F2" d="M36.104,202.055h1.629l3.443,8.455h-1.848l-0.734-1.883h-3.396l-0.734,1.883h-1.802L36.104,202.055z
			 M37.963,206.996l-1.067-2.723l-1.067,2.723H37.963z"/>
		<path fill="#F2F2F2" d="M42.604,202.114h3.672c1.021,0,1.813,0.3,2.341,0.852c0.447,0.468,0.688,1.128,0.688,1.919v0.024
			c0,1.354-0.7,2.206-1.722,2.603l1.963,2.998h-2.065l-1.722-2.687h-1.389v2.687h-1.767V202.114z M46.162,206.192
			c0.86,0,1.354-0.479,1.354-1.188v-0.024c0-0.791-0.527-1.199-1.389-1.199h-1.756v2.411H46.162z"/>
		<path fill="#F2F2F2" d="M51.204,202.114h6.059v1.644H52.96v1.703h3.786v1.643H52.96v1.763h4.36v1.644h-6.116V202.114z"/>
		<path fill="#F2F2F2" d="M64.941,207.199l-3.087-5.085h2.065l1.916,3.37l1.951-3.37h2.008l-3.087,5.05v3.346h-1.767V207.199z"/>
		<path fill="#F2F2F2" d="M70.155,206.336v-0.023c0-2.387,1.802-4.342,4.28-4.342s4.257,1.931,4.257,4.317v0.024
			c0,2.387-1.802,4.341-4.28,4.341S70.155,208.723,70.155,206.336z M76.845,206.336v-0.023c0-1.439-1.01-2.639-2.433-2.639
			s-2.41,1.175-2.41,2.614v0.024c0,1.438,1.01,2.638,2.434,2.638C75.857,208.95,76.845,207.775,76.845,206.336z"/>
		<path fill="#F2F2F2" d="M80.403,206.912v-4.798h1.767v4.749c0,1.368,0.654,2.075,1.732,2.075c1.079,0,1.733-0.684,1.733-2.015
			v-4.81h1.767v4.737c0,2.543-1.365,3.79-3.522,3.79S80.403,209.383,80.403,206.912z"/>
		<path fill="#F2F2F2" d="M94.862,203.817h-2.444v-1.703h6.656v1.703H96.63v6.692h-1.768V203.817z"/>
		<path fill="#F2F2F2" d="M102.427,202.055h1.63l3.441,8.455h-1.847l-0.734-1.883h-3.396l-0.734,1.883h-1.802L102.427,202.055z
			 M104.285,206.996l-1.066-2.723l-1.067,2.723H104.285z"/>
		<path fill="#F2F2F2" d="M108.927,202.114h1.767v6.717h4.005v1.679h-5.771V202.114z"/>
		<path fill="#F2F2F2" d="M116.167,202.114h1.767v3.67l3.26-3.67h2.134l-3.271,3.562l3.42,4.833h-2.123l-2.49-3.574l-0.93,1.008
			v2.566h-1.767V202.114z"/>
		<path fill="#F2F2F2" d="M124.859,202.114h1.768v8.396h-1.768V202.114z"/>
		<path fill="#F2F2F2" d="M128.895,202.114h1.629l3.764,5.169v-5.169h1.744v8.396h-1.503l-3.89-5.337v5.337h-1.744V202.114z"/>
		<path fill="#F2F2F2" d="M137.874,206.336v-0.023c0-2.387,1.778-4.342,4.211-4.342c1.446,0,2.317,0.407,3.155,1.151l-1.113,1.403
			c-0.619-0.54-1.17-0.852-2.1-0.852c-1.285,0-2.307,1.188-2.307,2.614v0.024c0,1.535,1.01,2.662,2.434,2.662
			c0.643,0,1.216-0.168,1.663-0.504v-1.199h-1.778v-1.595h3.488v3.646c-0.826,0.731-1.962,1.331-3.431,1.331
			C139.595,210.653,137.874,208.818,137.874,206.336z"/>
		<path fill="#F2F2F2" d="M153.768,202.055h1.629l3.443,8.455h-1.848l-0.734-1.883h-3.396l-0.734,1.883h-1.802L153.768,202.055z
			 M155.627,206.996l-1.067-2.723l-1.067,2.723H155.627z"/>
		<path fill="#F2F2F2" d="M160.269,202.114h3.729c0.918,0,1.641,0.264,2.1,0.744c0.367,0.384,0.551,0.852,0.551,1.427v0.024
			c0,0.947-0.482,1.475-1.056,1.811c0.93,0.372,1.503,0.936,1.503,2.062v0.024c0,1.535-1.193,2.303-3.006,2.303h-3.821V202.114z
			 M164.893,204.597c0-0.552-0.413-0.863-1.158-0.863h-1.744v1.775h1.629c0.78,0,1.273-0.264,1.273-0.888V204.597z M164.032,207.044
			h-2.042v1.847h2.1c0.78,0,1.25-0.288,1.25-0.911v-0.024C165.34,207.392,164.938,207.044,164.032,207.044z"/>
		<path fill="#F2F2F2" d="M168.414,206.336v-0.023c0-2.387,1.801-4.342,4.279-4.342s4.258,1.931,4.258,4.317v0.024
			c0,2.387-1.802,4.341-4.28,4.341S168.414,208.723,168.414,206.336z M175.104,206.336v-0.023c0-1.439-1.01-2.639-2.433-2.639
			s-2.409,1.175-2.409,2.614v0.024c0,1.438,1.01,2.638,2.432,2.638C174.117,208.95,175.104,207.775,175.104,206.336z"/>
		<path fill="#F2F2F2" d="M178.662,206.912v-4.798h1.767v4.749c0,1.368,0.654,2.075,1.733,2.075c1.078,0,1.732-0.684,1.732-2.015
			v-4.81h1.767v4.737c0,2.543-1.365,3.79-3.522,3.79S178.662,209.383,178.662,206.912z"/>
		<path fill="#F2F2F2" d="M189.522,203.817h-2.444v-1.703h6.656v1.703h-2.444v6.692h-1.768V203.817z"/>
		<path fill="#F2F2F2" d="M196.611,205.713l0.058-0.061c1.446-0.06,2.009-0.456,2.009-1.092v-0.023c0-0.54-0.391-0.852-1.057-0.852
			c-0.643,0-1.193,0.275-1.721,0.827l-1.056-1.211c0.665-0.768,1.561-1.295,2.812-1.295c1.652,0,2.776,0.887,2.776,2.482v0.023
			c0,1.523-1.01,2.147-2.261,2.411l-0.126,0.731h-1.17L196.611,205.713z M196.497,208.591h1.858v1.919h-1.858V208.591z"/>
	</g>
	<g>
		<g>
			<path fill="#363947" d="M110.509,34.623l0.196-0.196c4.926-0.195,6.841-1.485,6.841-3.558v-0.078c0-1.759-1.33-2.775-3.597-2.775
				c-2.189,0-4.065,0.899-5.864,2.697l-3.596-3.948c2.267-2.502,5.316-4.222,9.577-4.222c5.63,0,9.46,2.893,9.46,8.092v0.078
				c0,4.965-3.439,6.998-7.701,7.858l-0.431,2.385h-3.987L110.509,34.623z M110.119,44.005h6.333v6.255h-6.333V44.005z"/>
		</g>
	</g>
	<g>
		<path fill="#363947" d="M114.477,11.286c11.306,0,21.488,7.836,24.017,19.331c0.934,4.242,0.712,8.471-0.455,12.355l9.156,16.694
			l-19.827-2.796c-2.288,1.41-4.85,2.465-7.625,3.076c-1.781,0.392-3.56,0.58-5.312,0.58c-11.305,0-21.488-7.836-24.017-19.331
			c-2.921-13.277,5.475-26.409,18.751-29.33C110.945,11.474,112.725,11.286,114.477,11.286 M114.477,8.286L114.477,8.286
			c-1.993,0-3.997,0.219-5.958,0.65c-14.871,3.272-24.308,18.033-21.036,32.905c2.765,12.566,14.097,21.686,26.947,21.686
			c1.992,0,3.996-0.219,5.957-0.65c2.684-0.591,5.234-1.561,7.598-2.889l18.79,2.65l5.928,0.836l-2.879-5.249l-8.572-15.63
			c1.027-4.116,1.088-8.453,0.171-12.622C138.658,17.407,127.326,8.286,114.477,8.286L114.477,8.286z"/>
	</g>
</g>
</svg>
