<?xml version="1.0"?>
<!--Icons from directory ""-->
<svg xmlns="http://www.w3.org/2000/svg" width="51" height="102" viewBox="0 0 51 102"><svg xmlns:xlink="http://www.w3.org/1999/xlink" id="arrow-left" xml:space="preserve" height="51" viewBox="0 0 51.235 51.235" width="51" version="1.1" y="0" x="0px" enable-background="new 0 0 51.235 51.235">	<circle cy="25.617" cx="25.617" r="25.617" fill="#F4F4F4"/>	<path d="m39.795 21.353h-14.357c1.177-2.836 1.773-6.136 1.847-8.72-4.091 5.498-9.41 10.295-15.845 12.983 6.435 2.576 11.519 7.661 15.845 12.983-0.223-2.785-0.741-5.944-1.881-8.72h14.391v-8.526z" fill="#FE3300"/></svg><svg xmlns:xlink="http://www.w3.org/1999/xlink" id="arrow-right" xml:space="preserve" height="51" viewBox="0 0 51.234 51.235" width="51" version="1.1" y="51" x="0px" enable-background="new 0 0 51.234 51.235">	<circle cy="25.618" cx="25.617" r="25.617" fill="#F4F4F4"/>	<path d="m11.44 29.882h14.356c-1.178 2.836-1.773 6.136-1.847 8.72 4.091-5.498 9.409-10.295 15.844-12.983-6.435-2.575-11.519-7.66-15.844-12.983 0.222 2.785 0.74 5.944 1.88 8.72h-14.389v8.526z" fill="#FE3300"/></svg></svg>
