<?xml version="1.0" encoding="utf-8"?>
<!-- Generator: Adobe Illustrator 17.0.0, SVG Export Plug-In . SVG Version: 6.00 Build 0)  -->
<!DOCTYPE svg PUBLIC "-//W3C//DTD SVG 1.1//EN" "http://www.w3.org/Graphics/SVG/1.1/DTD/svg11.dtd">
<svg version="1.1" id="Layer_1" xmlns="http://www.w3.org/2000/svg" xmlns:xlink="http://www.w3.org/1999/xlink" x="0px" y="0px"
	 width="38.705px" height="55px" viewBox="0 0 38.705 55" enable-background="new 0 0 38.705 55" xml:space="preserve">
<g id="_x23_1_un-highlighted">
	<g>
		<path fill="#3FA6DF" stroke="#3FA6DF" stroke-miterlimit="10" d="M13.793,30.137v-0.729h2.402V11.241h-2.402v-0.728h1.984
			c1.637,0,2.96-0.108,3.97-0.327c1.01-0.219,2.089-0.655,3.308-1.311v20.533h2.333v0.729H13.793z"/>
	</g>
	<g>
		<path fill="#3FA6DF" d="M19.352,3c9.017,0,16.352,7.336,16.352,16.353c0,9.017-7.336,16.352-16.352,16.352
			C10.335,35.705,3,28.369,3,19.353C3,10.336,10.335,3,19.352,3 M19.352,0C8.664,0,0,8.664,0,19.353
			c0,10.688,8.664,19.352,19.353,19.352s19.352-8.664,19.352-19.352C38.705,8.664,30.041,0,19.352,0L19.352,0z"/>
	</g>
</g>
</svg>
