<?xml version="1.0" encoding="utf-8"?>
<!-- Generator: Adobe Illustrator 17.0.0, SVG Export Plug-In . SVG Version: 6.00 Build 0)  -->
<!DOCTYPE svg PUBLIC "-//W3C//DTD SVG 1.1//EN" "http://www.w3.org/Graphics/SVG/1.1/DTD/svg11.dtd">
<svg version="1.1" id="Layer_1" xmlns="http://www.w3.org/2000/svg" xmlns:xlink="http://www.w3.org/1999/xlink" x="0px" y="0px"
	 width="750px" height="83px" viewBox="0 0 750 83" enable-background="new 0 0 750 83" xml:space="preserve">
<g id="pattern_3_">
	<defs>
		
			<rect id="SVGID_1_" x="0.027" y="0.247" transform="matrix(-1 6.600936e-04 -6.600936e-04 -1 750.0273 82.7544)" width="749.945" height="82.507"/>
	</defs>
	<clipPath id="SVGID_2_">
		<use xlink:href="#SVGID_1_"  overflow="visible"/>
	</clipPath>
	
		<ellipse clip-path="url(#SVGID_2_)" fill="none" stroke="#93B9C6" stroke-miterlimit="10" cx="766.418" cy="60.522" rx="3.786" ry="3.777"/>
	
		<ellipse clip-path="url(#SVGID_2_)" fill="none" stroke="#93B9C6" stroke-miterlimit="10" cx="766.418" cy="42.57" rx="3.786" ry="3.777"/>
	
		<ellipse clip-path="url(#SVGID_2_)" fill="none" stroke="#93B9C6" stroke-miterlimit="10" cx="766.418" cy="24.618" rx="3.786" ry="3.777"/>
	
		<ellipse clip-path="url(#SVGID_2_)" fill="none" stroke="#93B9C6" stroke-miterlimit="10" cx="766.418" cy="6.665" rx="3.787" ry="3.777"/>
	
		<ellipse clip-path="url(#SVGID_2_)" fill="none" stroke="#93B9C6" stroke-miterlimit="10" cx="766.418" cy="-11.287" rx="3.786" ry="3.777"/>
	
		<ellipse clip-path="url(#SVGID_2_)" fill="none" stroke="#93B9C6" stroke-miterlimit="10" cx="751.617" cy="68.485" rx="3.787" ry="3.778"/>
	
		<ellipse clip-path="url(#SVGID_2_)" fill="none" stroke="#93B9C6" stroke-miterlimit="10" cx="751.617" cy="50.532" rx="3.787" ry="3.778"/>
	
		<ellipse clip-path="url(#SVGID_2_)" fill="none" stroke="#93B9C6" stroke-miterlimit="10" cx="751.617" cy="32.581" rx="3.786" ry="3.777"/>
	
		<ellipse clip-path="url(#SVGID_2_)" fill="none" stroke="#93B9C6" stroke-miterlimit="10" cx="751.617" cy="14.628" rx="3.786" ry="3.777"/>
	
		<ellipse clip-path="url(#SVGID_2_)" fill="none" stroke="#93B9C6" stroke-miterlimit="10" cx="751.617" cy="-3.324" rx="3.787" ry="3.778"/>
	<path clip-path="url(#SVGID_2_)" fill="none" stroke="#93B9C6" stroke-miterlimit="10" d="M751.617-17.5"/>
	
		<ellipse clip-path="url(#SVGID_2_)" fill="none" stroke="#93B9C6" stroke-miterlimit="10" cx="739.225" cy="60.522" rx="3.786" ry="3.777"/>
	
		<ellipse clip-path="url(#SVGID_2_)" fill="none" stroke="#93B9C6" stroke-miterlimit="10" cx="739.226" cy="42.57" rx="3.787" ry="3.778"/>
	
		<ellipse clip-path="url(#SVGID_2_)" fill="none" stroke="#93B9C6" stroke-miterlimit="10" cx="739.225" cy="24.618" rx="3.786" ry="3.777"/>
	
		<ellipse clip-path="url(#SVGID_2_)" fill="none" stroke="#93B9C6" stroke-miterlimit="10" cx="739.225" cy="6.665" rx="3.786" ry="3.777"/>
	
		<ellipse clip-path="url(#SVGID_2_)" fill="none" stroke="#93B9C6" stroke-miterlimit="10" cx="739.225" cy="-11.287" rx="3.786" ry="3.777"/>
	
		<ellipse clip-path="url(#SVGID_2_)" fill="none" stroke="#93B9C6" stroke-miterlimit="10" cx="724.424" cy="68.485" rx="3.786" ry="3.778"/>
	
		<ellipse clip-path="url(#SVGID_2_)" fill="none" stroke="#93B9C6" stroke-miterlimit="10" cx="724.424" cy="50.532" rx="3.786" ry="3.778"/>
	
		<ellipse clip-path="url(#SVGID_2_)" fill="none" stroke="#93B9C6" stroke-miterlimit="10" cx="724.423" cy="32.58" rx="3.787" ry="3.778"/>
	
		<ellipse clip-path="url(#SVGID_2_)" fill="none" stroke="#93B9C6" stroke-miterlimit="10" cx="724.424" cy="14.628" rx="3.786" ry="3.779"/>
	
		<ellipse clip-path="url(#SVGID_2_)" fill="none" stroke="#93B9C6" stroke-miterlimit="10" cx="724.423" cy="-3.324" rx="3.786" ry="3.777"/>
	<path clip-path="url(#SVGID_2_)" fill="none" stroke="#93B9C6" stroke-miterlimit="10" d="M724.423-17.5"/>
	
		<ellipse clip-path="url(#SVGID_2_)" fill="none" stroke="#93B9C6" stroke-miterlimit="10" cx="710.133" cy="60.523" rx="3.786" ry="3.778"/>
	
		<ellipse clip-path="url(#SVGID_2_)" fill="none" stroke="#93B9C6" stroke-miterlimit="10" cx="710.133" cy="42.57" rx="3.787" ry="3.778"/>
	
		<ellipse clip-path="url(#SVGID_2_)" fill="none" stroke="#93B9C6" stroke-miterlimit="10" cx="710.133" cy="24.618" rx="3.786" ry="3.777"/>
	
		<ellipse clip-path="url(#SVGID_2_)" fill="none" stroke="#93B9C6" stroke-miterlimit="10" cx="710.133" cy="6.665" rx="3.786" ry="3.777"/>
	
		<ellipse clip-path="url(#SVGID_2_)" fill="none" stroke="#93B9C6" stroke-miterlimit="10" cx="710.133" cy="-11.287" rx="3.786" ry="3.777"/>
	
		<ellipse clip-path="url(#SVGID_2_)" fill="none" stroke="#93B9C6" stroke-miterlimit="10" cx="695.331" cy="68.484" rx="3.787" ry="3.777"/>
	
		<ellipse clip-path="url(#SVGID_2_)" fill="none" stroke="#93B9C6" stroke-miterlimit="10" cx="695.331" cy="50.533" rx="3.787" ry="3.778"/>
	
		<ellipse clip-path="url(#SVGID_2_)" fill="none" stroke="#93B9C6" stroke-miterlimit="10" cx="695.332" cy="32.58" rx="3.786" ry="3.777"/>
	
		<ellipse clip-path="url(#SVGID_2_)" fill="none" stroke="#93B9C6" stroke-miterlimit="10" cx="695.331" cy="14.628" rx="3.787" ry="3.776"/>
	
		<ellipse clip-path="url(#SVGID_2_)" fill="none" stroke="#93B9C6" stroke-miterlimit="10" cx="695.331" cy="-3.324" rx="3.787" ry="3.778"/>
	<path clip-path="url(#SVGID_2_)" fill="none" stroke="#93B9C6" stroke-miterlimit="10" d="M695.332-17.5"/>
	
		<ellipse clip-path="url(#SVGID_2_)" fill="none" stroke="#93B9C6" stroke-miterlimit="10" cx="682.94" cy="60.523" rx="3.786" ry="3.778"/>
	
		<ellipse clip-path="url(#SVGID_2_)" fill="none" stroke="#93B9C6" stroke-miterlimit="10" cx="682.94" cy="42.57" rx="3.786" ry="3.778"/>
	
		<ellipse clip-path="url(#SVGID_2_)" fill="none" stroke="#93B9C6" stroke-miterlimit="10" cx="682.939" cy="24.618" rx="3.786" ry="3.777"/>
	
		<ellipse clip-path="url(#SVGID_2_)" fill="none" stroke="#93B9C6" stroke-miterlimit="10" cx="682.94" cy="6.665" rx="3.786" ry="3.777"/>
	
		<ellipse clip-path="url(#SVGID_2_)" fill="none" stroke="#93B9C6" stroke-miterlimit="10" cx="682.94" cy="-11.287" rx="3.786" ry="3.777"/>
	
		<ellipse clip-path="url(#SVGID_2_)" fill="none" stroke="#93B9C6" stroke-miterlimit="10" cx="668.138" cy="68.484" rx="3.786" ry="3.777"/>
	
		<ellipse clip-path="url(#SVGID_2_)" fill="none" stroke="#93B9C6" stroke-miterlimit="10" cx="668.138" cy="50.533" rx="3.786" ry="3.777"/>
	
		<ellipse clip-path="url(#SVGID_2_)" fill="none" stroke="#93B9C6" stroke-miterlimit="10" cx="668.138" cy="32.58" rx="3.787" ry="3.778"/>
	
		<ellipse clip-path="url(#SVGID_2_)" fill="none" stroke="#93B9C6" stroke-miterlimit="10" cx="668.137" cy="14.628" rx="3.786" ry="3.778"/>
	
		<ellipse clip-path="url(#SVGID_2_)" fill="none" stroke="#93B9C6" stroke-miterlimit="10" cx="668.137" cy="-3.324" rx="3.786" ry="3.778"/>
	<path clip-path="url(#SVGID_2_)" fill="none" stroke="#93B9C6" stroke-miterlimit="10" d="M668.138-17.5"/>
	
		<ellipse clip-path="url(#SVGID_2_)" fill="none" stroke="#93B9C6" stroke-miterlimit="10" cx="655.746" cy="60.523" rx="3.787" ry="3.778"/>
	
		<ellipse clip-path="url(#SVGID_2_)" fill="none" stroke="#93B9C6" stroke-miterlimit="10" cx="655.746" cy="42.57" rx="3.787" ry="3.778"/>
	
		<ellipse clip-path="url(#SVGID_2_)" fill="none" stroke="#93B9C6" stroke-miterlimit="10" cx="655.746" cy="24.618" rx="3.787" ry="3.777"/>
	
		<ellipse clip-path="url(#SVGID_2_)" fill="none" stroke="#93B9C6" stroke-miterlimit="10" cx="655.746" cy="6.665" rx="3.787" ry="3.778"/>
	
		<ellipse clip-path="url(#SVGID_2_)" fill="none" stroke="#93B9C6" stroke-miterlimit="10" cx="655.746" cy="-11.287" rx="3.787" ry="3.777"/>
	
		<ellipse clip-path="url(#SVGID_2_)" fill="none" stroke="#93B9C6" stroke-miterlimit="10" cx="640.944" cy="68.485" rx="3.787" ry="3.778"/>
	
		<ellipse clip-path="url(#SVGID_2_)" fill="none" stroke="#93B9C6" stroke-miterlimit="10" cx="640.944" cy="50.532" rx="3.786" ry="3.778"/>
	
		<ellipse clip-path="url(#SVGID_2_)" fill="none" stroke="#93B9C6" stroke-miterlimit="10" cx="640.943" cy="32.58" rx="3.786" ry="3.777"/>
	
		<ellipse clip-path="url(#SVGID_2_)" fill="none" stroke="#93B9C6" stroke-miterlimit="10" cx="640.944" cy="14.628" rx="3.786" ry="3.779"/>
	
		<ellipse clip-path="url(#SVGID_2_)" fill="none" stroke="#93B9C6" stroke-miterlimit="10" cx="640.944" cy="-3.324" rx="3.786" ry="3.778"/>
	<path clip-path="url(#SVGID_2_)" fill="none" stroke="#93B9C6" stroke-miterlimit="10" d="M640.943-17.5"/>
	
		<ellipse clip-path="url(#SVGID_2_)" fill="none" stroke="#93B9C6" stroke-miterlimit="10" cx="628.552" cy="60.522" rx="3.786" ry="3.777"/>
	
		<ellipse clip-path="url(#SVGID_2_)" fill="none" stroke="#93B9C6" stroke-miterlimit="10" cx="628.552" cy="42.57" rx="3.786" ry="3.778"/>
	
		<ellipse clip-path="url(#SVGID_2_)" fill="none" stroke="#93B9C6" stroke-miterlimit="10" cx="628.552" cy="24.618" rx="3.786" ry="3.777"/>
	
		<ellipse clip-path="url(#SVGID_2_)" fill="none" stroke="#93B9C6" stroke-miterlimit="10" cx="628.552" cy="6.665" rx="3.786" ry="3.777"/>
	
		<ellipse clip-path="url(#SVGID_2_)" fill="none" stroke="#93B9C6" stroke-miterlimit="10" cx="628.552" cy="-11.287" rx="3.786" ry="3.777"/>
	
		<ellipse clip-path="url(#SVGID_2_)" fill="none" stroke="#93B9C6" stroke-miterlimit="10" cx="613.75" cy="68.485" rx="3.786" ry="3.778"/>
	
		<ellipse clip-path="url(#SVGID_2_)" fill="none" stroke="#93B9C6" stroke-miterlimit="10" cx="613.75" cy="50.532" rx="3.787" ry="3.778"/>
	
		<ellipse clip-path="url(#SVGID_2_)" fill="none" stroke="#93B9C6" stroke-miterlimit="10" cx="613.75" cy="32.58" rx="3.787" ry="3.778"/>
	
		<ellipse clip-path="url(#SVGID_2_)" fill="none" stroke="#93B9C6" stroke-miterlimit="10" cx="613.75" cy="14.628" rx="3.787" ry="3.777"/>
	
		<ellipse clip-path="url(#SVGID_2_)" fill="none" stroke="#93B9C6" stroke-miterlimit="10" cx="613.75" cy="-3.324" rx="3.787" ry="3.778"/>
	<path clip-path="url(#SVGID_2_)" fill="none" stroke="#93B9C6" stroke-miterlimit="10" d="M613.75-17.5"/>
	
		<ellipse clip-path="url(#SVGID_2_)" fill="none" stroke="#93B9C6" stroke-miterlimit="10" cx="601.358" cy="60.523" rx="3.786" ry="3.779"/>
	
		<ellipse clip-path="url(#SVGID_2_)" fill="none" stroke="#93B9C6" stroke-miterlimit="10" cx="601.358" cy="42.57" rx="3.786" ry="3.778"/>
	
		<ellipse clip-path="url(#SVGID_2_)" fill="none" stroke="#93B9C6" stroke-miterlimit="10" cx="601.358" cy="24.618" rx="3.786" ry="3.777"/>
	
		<ellipse clip-path="url(#SVGID_2_)" fill="none" stroke="#93B9C6" stroke-miterlimit="10" cx="601.358" cy="6.666" rx="3.786" ry="3.778"/>
	
		<ellipse clip-path="url(#SVGID_2_)" fill="none" stroke="#93B9C6" stroke-miterlimit="10" cx="601.358" cy="-11.287" rx="3.786" ry="3.777"/>
	
		<ellipse clip-path="url(#SVGID_2_)" fill="none" stroke="#93B9C6" stroke-miterlimit="10" cx="586.556" cy="68.484" rx="3.787" ry="3.777"/>
	
		<ellipse clip-path="url(#SVGID_2_)" fill="none" stroke="#93B9C6" stroke-miterlimit="10" cx="586.556" cy="50.532" rx="3.786" ry="3.778"/>
	
		<ellipse clip-path="url(#SVGID_2_)" fill="none" stroke="#93B9C6" stroke-miterlimit="10" cx="586.556" cy="32.58" rx="3.786" ry="3.777"/>
	
		<ellipse clip-path="url(#SVGID_2_)" fill="none" stroke="#93B9C6" stroke-miterlimit="10" cx="586.556" cy="14.628" rx="3.786" ry="3.777"/>
	
		<ellipse clip-path="url(#SVGID_2_)" fill="none" stroke="#93B9C6" stroke-miterlimit="10" cx="586.556" cy="-3.324" rx="3.787" ry="3.778"/>
	<path clip-path="url(#SVGID_2_)" fill="none" stroke="#93B9C6" stroke-miterlimit="10" d="M586.557-17.5"/>
	
		<ellipse clip-path="url(#SVGID_2_)" fill="none" stroke="#93B9C6" stroke-miterlimit="10" cx="574.165" cy="60.523" rx="3.787" ry="3.778"/>
	
		<ellipse clip-path="url(#SVGID_2_)" fill="none" stroke="#93B9C6" stroke-miterlimit="10" cx="574.164" cy="42.57" rx="3.786" ry="3.778"/>
	
		<ellipse clip-path="url(#SVGID_2_)" fill="none" stroke="#93B9C6" stroke-miterlimit="10" cx="574.164" cy="24.618" rx="3.786" ry="3.777"/>
	
		<ellipse clip-path="url(#SVGID_2_)" fill="none" stroke="#93B9C6" stroke-miterlimit="10" cx="574.164" cy="6.665" rx="3.786" ry="3.777"/>
	
		<ellipse clip-path="url(#SVGID_2_)" fill="none" stroke="#93B9C6" stroke-miterlimit="10" cx="574.165" cy="-11.287" rx="3.787" ry="3.777"/>
	
		<ellipse clip-path="url(#SVGID_2_)" fill="none" stroke="#93B9C6" stroke-miterlimit="10" cx="559.363" cy="68.484" rx="3.786" ry="3.777"/>
	
		<ellipse clip-path="url(#SVGID_2_)" fill="none" stroke="#93B9C6" stroke-miterlimit="10" cx="559.363" cy="50.532" rx="3.786" ry="3.778"/>
	
		<ellipse clip-path="url(#SVGID_2_)" fill="none" stroke="#93B9C6" stroke-miterlimit="10" cx="559.362" cy="32.58" rx="3.787" ry="3.778"/>
	
		<ellipse clip-path="url(#SVGID_2_)" fill="none" stroke="#93B9C6" stroke-miterlimit="10" cx="559.362" cy="14.628" rx="3.787" ry="3.777"/>
	
		<ellipse clip-path="url(#SVGID_2_)" fill="none" stroke="#93B9C6" stroke-miterlimit="10" cx="559.362" cy="-3.324" rx="3.786" ry="3.778"/>
	<path clip-path="url(#SVGID_2_)" fill="none" stroke="#93B9C6" stroke-miterlimit="10" d="M559.362-17.5"/>
	
		<ellipse clip-path="url(#SVGID_2_)" fill="none" stroke="#93B9C6" stroke-miterlimit="10" cx="546.97" cy="60.522" rx="3.787" ry="3.777"/>
	
		<ellipse clip-path="url(#SVGID_2_)" fill="none" stroke="#93B9C6" stroke-miterlimit="10" cx="546.97" cy="42.57" rx="3.787" ry="3.777"/>
	
		<ellipse clip-path="url(#SVGID_2_)" fill="none" stroke="#93B9C6" stroke-miterlimit="10" cx="546.97" cy="24.618" rx="3.786" ry="3.777"/>
	
		<ellipse clip-path="url(#SVGID_2_)" fill="none" stroke="#93B9C6" stroke-miterlimit="10" cx="546.97" cy="6.665" rx="3.787" ry="3.777"/>
	
		<ellipse clip-path="url(#SVGID_2_)" fill="none" stroke="#93B9C6" stroke-miterlimit="10" cx="546.97" cy="-11.287" rx="3.787" ry="3.777"/>
	
		<ellipse clip-path="url(#SVGID_2_)" fill="none" stroke="#93B9C6" stroke-miterlimit="10" cx="532.169" cy="68.485" rx="3.787" ry="3.778"/>
	
		<ellipse clip-path="url(#SVGID_2_)" fill="none" stroke="#93B9C6" stroke-miterlimit="10" cx="532.169" cy="50.532" rx="3.787" ry="3.778"/>
	
		<ellipse clip-path="url(#SVGID_2_)" fill="none" stroke="#93B9C6" stroke-miterlimit="10" cx="532.17" cy="32.581" rx="3.786" ry="3.777"/>
	
		<ellipse clip-path="url(#SVGID_2_)" fill="none" stroke="#93B9C6" stroke-miterlimit="10" cx="532.169" cy="14.628" rx="3.787" ry="3.777"/>
	
		<ellipse clip-path="url(#SVGID_2_)" fill="none" stroke="#93B9C6" stroke-miterlimit="10" cx="532.169" cy="-3.324" rx="3.787" ry="3.778"/>
	<path clip-path="url(#SVGID_2_)" fill="none" stroke="#93B9C6" stroke-miterlimit="10" d="M532.168-17.5"/>
	
		<ellipse clip-path="url(#SVGID_2_)" fill="none" stroke="#93B9C6" stroke-miterlimit="10" cx="519.777" cy="60.522" rx="3.786" ry="3.777"/>
	
		<ellipse clip-path="url(#SVGID_2_)" fill="none" stroke="#93B9C6" stroke-miterlimit="10" cx="519.777" cy="42.57" rx="3.787" ry="3.778"/>
	
		<ellipse clip-path="url(#SVGID_2_)" fill="none" stroke="#93B9C6" stroke-miterlimit="10" cx="519.777" cy="24.618" rx="3.786" ry="3.777"/>
	
		<ellipse clip-path="url(#SVGID_2_)" fill="none" stroke="#93B9C6" stroke-miterlimit="10" cx="519.777" cy="6.665" rx="3.786" ry="3.777"/>
	
		<ellipse clip-path="url(#SVGID_2_)" fill="none" stroke="#93B9C6" stroke-miterlimit="10" cx="519.777" cy="-11.287" rx="3.786" ry="3.777"/>
	
		<ellipse clip-path="url(#SVGID_2_)" fill="none" stroke="#93B9C6" stroke-miterlimit="10" cx="504.975" cy="68.485" rx="3.786" ry="3.778"/>
	
		<ellipse clip-path="url(#SVGID_2_)" fill="none" stroke="#93B9C6" stroke-miterlimit="10" cx="504.975" cy="50.532" rx="3.786" ry="3.778"/>
	
		<ellipse clip-path="url(#SVGID_2_)" fill="none" stroke="#93B9C6" stroke-miterlimit="10" cx="504.975" cy="32.58" rx="3.787" ry="3.778"/>
	
		<ellipse clip-path="url(#SVGID_2_)" fill="none" stroke="#93B9C6" stroke-miterlimit="10" cx="504.975" cy="14.628" rx="3.786" ry="3.779"/>
	
		<ellipse clip-path="url(#SVGID_2_)" fill="none" stroke="#93B9C6" stroke-miterlimit="10" cx="504.976" cy="-3.324" rx="3.786" ry="3.777"/>
	<path clip-path="url(#SVGID_2_)" fill="none" stroke="#93B9C6" stroke-miterlimit="10" d="M504.976-17.5"/>
	
		<ellipse clip-path="url(#SVGID_2_)" fill="none" stroke="#93B9C6" stroke-miterlimit="10" cx="490.685" cy="60.523" rx="3.787" ry="3.778"/>
	
		<ellipse clip-path="url(#SVGID_2_)" fill="none" stroke="#93B9C6" stroke-miterlimit="10" cx="490.685" cy="42.57" rx="3.787" ry="3.778"/>
	
		<ellipse clip-path="url(#SVGID_2_)" fill="none" stroke="#93B9C6" stroke-miterlimit="10" cx="490.685" cy="24.618" rx="3.787" ry="3.777"/>
	
		<ellipse clip-path="url(#SVGID_2_)" fill="none" stroke="#93B9C6" stroke-miterlimit="10" cx="490.685" cy="6.665" rx="3.787" ry="3.777"/>
	
		<ellipse clip-path="url(#SVGID_2_)" fill="none" stroke="#93B9C6" stroke-miterlimit="10" cx="490.685" cy="-11.287" rx="3.787" ry="3.777"/>
	
		<ellipse clip-path="url(#SVGID_2_)" fill="none" stroke="#93B9C6" stroke-miterlimit="10" cx="475.883" cy="68.484" rx="3.786" ry="3.777"/>
	
		<ellipse clip-path="url(#SVGID_2_)" fill="none" stroke="#93B9C6" stroke-miterlimit="10" cx="475.884" cy="50.533" rx="3.787" ry="3.778"/>
	
		<ellipse clip-path="url(#SVGID_2_)" fill="none" stroke="#93B9C6" stroke-miterlimit="10" cx="475.883" cy="32.58" rx="3.786" ry="3.777"/>
	
		<ellipse clip-path="url(#SVGID_2_)" fill="none" stroke="#93B9C6" stroke-miterlimit="10" cx="475.883" cy="14.628" rx="3.786" ry="3.776"/>
	
		<ellipse clip-path="url(#SVGID_2_)" fill="none" stroke="#93B9C6" stroke-miterlimit="10" cx="475.884" cy="-3.324" rx="3.787" ry="3.778"/>
	<path clip-path="url(#SVGID_2_)" fill="none" stroke="#93B9C6" stroke-miterlimit="10" d="M475.884-17.5"/>
	
		<ellipse clip-path="url(#SVGID_2_)" fill="none" stroke="#93B9C6" stroke-miterlimit="10" cx="463.491" cy="60.523" rx="3.786" ry="3.778"/>
	
		<ellipse clip-path="url(#SVGID_2_)" fill="none" stroke="#93B9C6" stroke-miterlimit="10" cx="463.491" cy="42.57" rx="3.786" ry="3.778"/>
	
		<ellipse clip-path="url(#SVGID_2_)" fill="none" stroke="#93B9C6" stroke-miterlimit="10" cx="463.491" cy="24.618" rx="3.786" ry="3.777"/>
	
		<ellipse clip-path="url(#SVGID_2_)" fill="none" stroke="#93B9C6" stroke-miterlimit="10" cx="463.491" cy="6.665" rx="3.786" ry="3.777"/>
	
		<ellipse clip-path="url(#SVGID_2_)" fill="none" stroke="#93B9C6" stroke-miterlimit="10" cx="463.492" cy="-11.287" rx="3.786" ry="3.777"/>
	
		<ellipse clip-path="url(#SVGID_2_)" fill="none" stroke="#93B9C6" stroke-miterlimit="10" cx="448.69" cy="68.484" rx="3.786" ry="3.777"/>
	
		<ellipse clip-path="url(#SVGID_2_)" fill="none" stroke="#93B9C6" stroke-miterlimit="10" cx="448.69" cy="50.533" rx="3.786" ry="3.777"/>
	
		<ellipse clip-path="url(#SVGID_2_)" fill="none" stroke="#93B9C6" stroke-miterlimit="10" cx="448.689" cy="32.58" rx="3.787" ry="3.778"/>
	
		<ellipse clip-path="url(#SVGID_2_)" fill="none" stroke="#93B9C6" stroke-miterlimit="10" cx="448.689" cy="14.628" rx="3.787" ry="3.778"/>
	
		<ellipse clip-path="url(#SVGID_2_)" fill="none" stroke="#93B9C6" stroke-miterlimit="10" cx="448.689" cy="-3.324" rx="3.787" ry="3.778"/>
	<path clip-path="url(#SVGID_2_)" fill="none" stroke="#93B9C6" stroke-miterlimit="10" d="M448.69-17.5"/>
	
		<ellipse clip-path="url(#SVGID_2_)" fill="none" stroke="#93B9C6" stroke-miterlimit="10" cx="436.298" cy="60.523" rx="3.786" ry="3.778"/>
	
		<ellipse clip-path="url(#SVGID_2_)" fill="none" stroke="#93B9C6" stroke-miterlimit="10" cx="436.298" cy="42.57" rx="3.786" ry="3.778"/>
	
		<ellipse clip-path="url(#SVGID_2_)" fill="none" stroke="#93B9C6" stroke-miterlimit="10" cx="436.298" cy="24.618" rx="3.786" ry="3.777"/>
	
		<ellipse clip-path="url(#SVGID_2_)" fill="none" stroke="#93B9C6" stroke-miterlimit="10" cx="436.298" cy="6.665" rx="3.786" ry="3.778"/>
	
		<ellipse clip-path="url(#SVGID_2_)" fill="none" stroke="#93B9C6" stroke-miterlimit="10" cx="436.298" cy="-11.287" rx="3.786" ry="3.777"/>
	
		<ellipse clip-path="url(#SVGID_2_)" fill="none" stroke="#93B9C6" stroke-miterlimit="10" cx="421.497" cy="68.485" rx="3.787" ry="3.778"/>
	
		<ellipse clip-path="url(#SVGID_2_)" fill="none" stroke="#93B9C6" stroke-miterlimit="10" cx="421.496" cy="50.532" rx="3.786" ry="3.778"/>
	
		<ellipse clip-path="url(#SVGID_2_)" fill="none" stroke="#93B9C6" stroke-miterlimit="10" cx="421.496" cy="32.58" rx="3.786" ry="3.777"/>
	
		<ellipse clip-path="url(#SVGID_2_)" fill="none" stroke="#93B9C6" stroke-miterlimit="10" cx="421.496" cy="14.628" rx="3.786" ry="3.779"/>
	
		<ellipse clip-path="url(#SVGID_2_)" fill="none" stroke="#93B9C6" stroke-miterlimit="10" cx="421.496" cy="-3.324" rx="3.786" ry="3.778"/>
	<path clip-path="url(#SVGID_2_)" fill="none" stroke="#93B9C6" stroke-miterlimit="10" d="M421.496-17.5"/>
	
		<ellipse clip-path="url(#SVGID_2_)" fill="none" stroke="#93B9C6" stroke-miterlimit="10" cx="409.104" cy="60.522" rx="3.787" ry="3.777"/>
	
		<ellipse clip-path="url(#SVGID_2_)" fill="none" stroke="#93B9C6" stroke-miterlimit="10" cx="409.104" cy="42.57" rx="3.787" ry="3.778"/>
	
		<ellipse clip-path="url(#SVGID_2_)" fill="none" stroke="#93B9C6" stroke-miterlimit="10" cx="409.104" cy="24.618" rx="3.787" ry="3.777"/>
	
		<ellipse clip-path="url(#SVGID_2_)" fill="none" stroke="#93B9C6" stroke-miterlimit="10" cx="409.104" cy="6.665" rx="3.787" ry="3.777"/>
	
		<ellipse clip-path="url(#SVGID_2_)" fill="none" stroke="#93B9C6" stroke-miterlimit="10" cx="409.104" cy="-11.287" rx="3.787" ry="3.777"/>
	
		<ellipse clip-path="url(#SVGID_2_)" fill="none" stroke="#93B9C6" stroke-miterlimit="10" cx="394.302" cy="68.485" rx="3.786" ry="3.778"/>
	
		<ellipse clip-path="url(#SVGID_2_)" fill="none" stroke="#93B9C6" stroke-miterlimit="10" cx="394.303" cy="50.532" rx="3.787" ry="3.778"/>
	
		<ellipse clip-path="url(#SVGID_2_)" fill="none" stroke="#93B9C6" stroke-miterlimit="10" cx="394.303" cy="32.58" rx="3.787" ry="3.778"/>
	
		<ellipse clip-path="url(#SVGID_2_)" fill="none" stroke="#93B9C6" stroke-miterlimit="10" cx="394.302" cy="14.628" rx="3.786" ry="3.777"/>
	
		<ellipse clip-path="url(#SVGID_2_)" fill="none" stroke="#93B9C6" stroke-miterlimit="10" cx="394.302" cy="-3.324" rx="3.786" ry="3.778"/>
	<path clip-path="url(#SVGID_2_)" fill="none" stroke="#93B9C6" stroke-miterlimit="10" d="M394.302-17.5"/>
	
		<ellipse clip-path="url(#SVGID_2_)" fill="none" stroke="#93B9C6" stroke-miterlimit="10" cx="381.91" cy="60.523" rx="3.787" ry="3.779"/>
	
		<ellipse clip-path="url(#SVGID_2_)" fill="none" stroke="#93B9C6" stroke-miterlimit="10" cx="381.91" cy="42.57" rx="3.786" ry="3.778"/>
	
		<ellipse clip-path="url(#SVGID_2_)" fill="none" stroke="#93B9C6" stroke-miterlimit="10" cx="381.91" cy="24.618" rx="3.786" ry="3.777"/>
	
		<ellipse clip-path="url(#SVGID_2_)" fill="none" stroke="#93B9C6" stroke-miterlimit="10" cx="381.91" cy="6.666" rx="3.786" ry="3.778"/>
	
		<ellipse clip-path="url(#SVGID_2_)" fill="none" stroke="#93B9C6" stroke-miterlimit="10" cx="381.91" cy="-11.287" rx="3.786" ry="3.777"/>
	
		<ellipse clip-path="url(#SVGID_2_)" fill="none" stroke="#93B9C6" stroke-miterlimit="10" cx="367.108" cy="68.484" rx="3.787" ry="3.777"/>
	
		<ellipse clip-path="url(#SVGID_2_)" fill="none" stroke="#93B9C6" stroke-miterlimit="10" cx="367.108" cy="50.532" rx="3.787" ry="3.778"/>
	
		<ellipse clip-path="url(#SVGID_2_)" fill="none" stroke="#93B9C6" stroke-miterlimit="10" cx="367.108" cy="32.58" rx="3.787" ry="3.777"/>
	
		<ellipse clip-path="url(#SVGID_2_)" fill="none" stroke="#93B9C6" stroke-miterlimit="10" cx="367.108" cy="14.628" rx="3.787" ry="3.777"/>
	
		<ellipse clip-path="url(#SVGID_2_)" fill="none" stroke="#93B9C6" stroke-miterlimit="10" cx="367.108" cy="-3.324" rx="3.787" ry="3.778"/>
	<path clip-path="url(#SVGID_2_)" fill="none" stroke="#93B9C6" stroke-miterlimit="10" d="M367.108-17.5"/>
	
		<ellipse clip-path="url(#SVGID_2_)" fill="none" stroke="#93B9C6" stroke-miterlimit="10" cx="354.717" cy="60.523" rx="3.787" ry="3.778"/>
	
		<ellipse clip-path="url(#SVGID_2_)" fill="none" stroke="#93B9C6" stroke-miterlimit="10" cx="354.717" cy="42.57" rx="3.786" ry="3.778"/>
	
		<ellipse clip-path="url(#SVGID_2_)" fill="none" stroke="#93B9C6" stroke-miterlimit="10" cx="354.716" cy="24.618" rx="3.786" ry="3.777"/>
	
		<ellipse clip-path="url(#SVGID_2_)" fill="none" stroke="#93B9C6" stroke-miterlimit="10" cx="354.716" cy="6.665" rx="3.786" ry="3.777"/>
	
		<ellipse clip-path="url(#SVGID_2_)" fill="none" stroke="#93B9C6" stroke-miterlimit="10" cx="354.717" cy="-11.287" rx="3.786" ry="3.777"/>
	
		<ellipse clip-path="url(#SVGID_2_)" fill="none" stroke="#93B9C6" stroke-miterlimit="10" cx="339.915" cy="68.484" rx="3.786" ry="3.777"/>
	
		<ellipse clip-path="url(#SVGID_2_)" fill="none" stroke="#93B9C6" stroke-miterlimit="10" cx="339.915" cy="50.532" rx="3.786" ry="3.778"/>
	
		<ellipse clip-path="url(#SVGID_2_)" fill="none" stroke="#93B9C6" stroke-miterlimit="10" cx="339.914" cy="32.58" rx="3.787" ry="3.778"/>
	
		<ellipse clip-path="url(#SVGID_2_)" fill="none" stroke="#93B9C6" stroke-miterlimit="10" cx="339.914" cy="14.628" rx="3.787" ry="3.777"/>
	
		<ellipse clip-path="url(#SVGID_2_)" fill="none" stroke="#93B9C6" stroke-miterlimit="10" cx="339.914" cy="-3.324" rx="3.786" ry="3.778"/>
	<path clip-path="url(#SVGID_2_)" fill="none" stroke="#93B9C6" stroke-miterlimit="10" d="M339.914-17.5"/>
	
		<ellipse clip-path="url(#SVGID_2_)" fill="none" stroke="#93B9C6" stroke-miterlimit="10" cx="327.523" cy="60.522" rx="3.786" ry="3.777"/>
	
		<ellipse clip-path="url(#SVGID_2_)" fill="none" stroke="#93B9C6" stroke-miterlimit="10" cx="327.523" cy="42.57" rx="3.786" ry="3.777"/>
	
		<ellipse clip-path="url(#SVGID_2_)" fill="none" stroke="#93B9C6" stroke-miterlimit="10" cx="327.522" cy="24.618" rx="3.786" ry="3.777"/>
	
		<ellipse clip-path="url(#SVGID_2_)" fill="none" stroke="#93B9C6" stroke-miterlimit="10" cx="327.523" cy="6.665" rx="3.787" ry="3.777"/>
	
		<ellipse clip-path="url(#SVGID_2_)" fill="none" stroke="#93B9C6" stroke-miterlimit="10" cx="327.523" cy="-11.287" rx="3.787" ry="3.777"/>
	
		<ellipse clip-path="url(#SVGID_2_)" fill="none" stroke="#93B9C6" stroke-miterlimit="10" cx="312.721" cy="68.485" rx="3.787" ry="3.778"/>
	
		<ellipse clip-path="url(#SVGID_2_)" fill="none" stroke="#93B9C6" stroke-miterlimit="10" cx="312.721" cy="50.532" rx="3.787" ry="3.778"/>
	
		<ellipse clip-path="url(#SVGID_2_)" fill="none" stroke="#93B9C6" stroke-miterlimit="10" cx="312.721" cy="32.581" rx="3.786" ry="3.777"/>
	
		<ellipse clip-path="url(#SVGID_2_)" fill="none" stroke="#93B9C6" stroke-miterlimit="10" cx="312.721" cy="14.628" rx="3.786" ry="3.777"/>
	
		<ellipse clip-path="url(#SVGID_2_)" fill="none" stroke="#93B9C6" stroke-miterlimit="10" cx="312.721" cy="-3.324" rx="3.787" ry="3.778"/>
	<path clip-path="url(#SVGID_2_)" fill="none" stroke="#93B9C6" stroke-miterlimit="10" d="M312.721-17.5"/>
	
		<ellipse clip-path="url(#SVGID_2_)" fill="none" stroke="#93B9C6" stroke-miterlimit="10" cx="300.329" cy="60.522" rx="3.787" ry="3.777"/>
	
		<ellipse clip-path="url(#SVGID_2_)" fill="none" stroke="#93B9C6" stroke-miterlimit="10" cx="300.329" cy="42.57" rx="3.787" ry="3.778"/>
	
		<ellipse clip-path="url(#SVGID_2_)" fill="none" stroke="#93B9C6" stroke-miterlimit="10" cx="300.329" cy="24.618" rx="3.787" ry="3.777"/>
	
		<ellipse clip-path="url(#SVGID_2_)" fill="none" stroke="#93B9C6" stroke-miterlimit="10" cx="300.329" cy="6.665" rx="3.786" ry="3.777"/>
	
		<ellipse clip-path="url(#SVGID_2_)" fill="none" stroke="#93B9C6" stroke-miterlimit="10" cx="300.329" cy="-11.287" rx="3.786" ry="3.777"/>
	
		<ellipse clip-path="url(#SVGID_2_)" fill="none" stroke="#93B9C6" stroke-miterlimit="10" cx="285.527" cy="68.485" rx="3.787" ry="3.778"/>
	
		<ellipse clip-path="url(#SVGID_2_)" fill="none" stroke="#93B9C6" stroke-miterlimit="10" cx="285.527" cy="50.532" rx="3.787" ry="3.778"/>
	
		<ellipse clip-path="url(#SVGID_2_)" fill="none" stroke="#93B9C6" stroke-miterlimit="10" cx="285.527" cy="32.58" rx="3.787" ry="3.778"/>
	
		<ellipse clip-path="url(#SVGID_2_)" fill="none" stroke="#93B9C6" stroke-miterlimit="10" cx="285.527" cy="14.628" rx="3.787" ry="3.779"/>
	
		<ellipse clip-path="url(#SVGID_2_)" fill="none" stroke="#93B9C6" stroke-miterlimit="10" cx="285.527" cy="-3.324" rx="3.786" ry="3.777"/>
	<path clip-path="url(#SVGID_2_)" fill="none" stroke="#93B9C6" stroke-miterlimit="10" d="M285.527-17.5"/>
	
		<ellipse clip-path="url(#SVGID_2_)" fill="none" stroke="#93B9C6" stroke-miterlimit="10" cx="271.237" cy="60.523" rx="3.787" ry="3.778"/>
	
		<ellipse clip-path="url(#SVGID_2_)" fill="none" stroke="#93B9C6" stroke-miterlimit="10" cx="271.237" cy="42.57" rx="3.787" ry="3.778"/>
	
		<ellipse clip-path="url(#SVGID_2_)" fill="none" stroke="#93B9C6" stroke-miterlimit="10" cx="271.237" cy="24.618" rx="3.786" ry="3.777"/>
	
		<ellipse clip-path="url(#SVGID_2_)" fill="none" stroke="#93B9C6" stroke-miterlimit="10" cx="271.237" cy="6.665" rx="3.786" ry="3.777"/>
	
		<ellipse clip-path="url(#SVGID_2_)" fill="none" stroke="#93B9C6" stroke-miterlimit="10" cx="271.237" cy="-11.287" rx="3.787" ry="3.777"/>
	
		<ellipse clip-path="url(#SVGID_2_)" fill="none" stroke="#93B9C6" stroke-miterlimit="10" cx="256.435" cy="68.484" rx="3.786" ry="3.777"/>
	
		<ellipse clip-path="url(#SVGID_2_)" fill="none" stroke="#93B9C6" stroke-miterlimit="10" cx="256.435" cy="50.533" rx="3.787" ry="3.778"/>
	
		<ellipse clip-path="url(#SVGID_2_)" fill="none" stroke="#93B9C6" stroke-miterlimit="10" cx="256.435" cy="32.58" rx="3.786" ry="3.777"/>
	
		<ellipse clip-path="url(#SVGID_2_)" fill="none" stroke="#93B9C6" stroke-miterlimit="10" cx="256.435" cy="14.628" rx="3.786" ry="3.776"/>
	
		<ellipse clip-path="url(#SVGID_2_)" fill="none" stroke="#93B9C6" stroke-miterlimit="10" cx="256.435" cy="-3.324" rx="3.787" ry="3.778"/>
	<path clip-path="url(#SVGID_2_)" fill="none" stroke="#93B9C6" stroke-miterlimit="10" d="M256.436-17.5"/>
	
		<ellipse clip-path="url(#SVGID_2_)" fill="none" stroke="#93B9C6" stroke-miterlimit="10" cx="244.043" cy="60.523" rx="3.787" ry="3.778"/>
	
		<ellipse clip-path="url(#SVGID_2_)" fill="none" stroke="#93B9C6" stroke-miterlimit="10" cx="244.043" cy="42.57" rx="3.787" ry="3.778"/>
	
		<ellipse clip-path="url(#SVGID_2_)" fill="none" stroke="#93B9C6" stroke-miterlimit="10" cx="244.043" cy="24.618" rx="3.786" ry="3.777"/>
	
		<ellipse clip-path="url(#SVGID_2_)" fill="none" stroke="#93B9C6" stroke-miterlimit="10" cx="244.043" cy="6.665" rx="3.787" ry="3.777"/>
	
		<ellipse clip-path="url(#SVGID_2_)" fill="none" stroke="#93B9C6" stroke-miterlimit="10" cx="244.044" cy="-11.287" rx="3.786" ry="3.777"/>
	
		<ellipse clip-path="url(#SVGID_2_)" fill="none" stroke="#93B9C6" stroke-miterlimit="10" cx="229.242" cy="68.484" rx="3.786" ry="3.777"/>
	
		<ellipse clip-path="url(#SVGID_2_)" fill="none" stroke="#93B9C6" stroke-miterlimit="10" cx="229.242" cy="50.533" rx="3.786" ry="3.777"/>
	
		<ellipse clip-path="url(#SVGID_2_)" fill="none" stroke="#93B9C6" stroke-miterlimit="10" cx="229.242" cy="32.58" rx="3.787" ry="3.778"/>
	
		<ellipse clip-path="url(#SVGID_2_)" fill="none" stroke="#93B9C6" stroke-miterlimit="10" cx="229.241" cy="14.628" rx="3.786" ry="3.778"/>
	
		<ellipse clip-path="url(#SVGID_2_)" fill="none" stroke="#93B9C6" stroke-miterlimit="10" cx="229.241" cy="-3.324" rx="3.786" ry="3.778"/>
	<path clip-path="url(#SVGID_2_)" fill="none" stroke="#93B9C6" stroke-miterlimit="10" d="M229.242-17.5"/>
	
		<ellipse clip-path="url(#SVGID_2_)" fill="none" stroke="#93B9C6" stroke-miterlimit="10" cx="216.85" cy="60.523" rx="3.787" ry="3.778"/>
	
		<ellipse clip-path="url(#SVGID_2_)" fill="none" stroke="#93B9C6" stroke-miterlimit="10" cx="216.85" cy="42.57" rx="3.786" ry="3.778"/>
	
		<ellipse clip-path="url(#SVGID_2_)" fill="none" stroke="#93B9C6" stroke-miterlimit="10" cx="216.85" cy="24.618" rx="3.786" ry="3.777"/>
	
		<ellipse clip-path="url(#SVGID_2_)" fill="none" stroke="#93B9C6" stroke-miterlimit="10" cx="216.85" cy="6.665" rx="3.787" ry="3.778"/>
	
		<ellipse clip-path="url(#SVGID_2_)" fill="none" stroke="#93B9C6" stroke-miterlimit="10" cx="216.85" cy="-11.287" rx="3.786" ry="3.777"/>
	
		<ellipse clip-path="url(#SVGID_2_)" fill="none" stroke="#93B9C6" stroke-miterlimit="10" cx="202.048" cy="68.485" rx="3.787" ry="3.778"/>
	
		<ellipse clip-path="url(#SVGID_2_)" fill="none" stroke="#93B9C6" stroke-miterlimit="10" cx="202.048" cy="50.532" rx="3.786" ry="3.778"/>
	
		<ellipse clip-path="url(#SVGID_2_)" fill="none" stroke="#93B9C6" stroke-miterlimit="10" cx="202.048" cy="32.58" rx="3.786" ry="3.777"/>
	
		<ellipse clip-path="url(#SVGID_2_)" fill="none" stroke="#93B9C6" stroke-miterlimit="10" cx="202.048" cy="14.628" rx="3.786" ry="3.779"/>
	
		<ellipse clip-path="url(#SVGID_2_)" fill="none" stroke="#93B9C6" stroke-miterlimit="10" cx="202.048" cy="-3.324" rx="3.786" ry="3.778"/>
	<path clip-path="url(#SVGID_2_)" fill="none" stroke="#93B9C6" stroke-miterlimit="10" d="M202.048-17.5"/>
	
		<ellipse clip-path="url(#SVGID_2_)" fill="none" stroke="#93B9C6" stroke-miterlimit="10" cx="189.656" cy="60.522" rx="3.786" ry="3.777"/>
	
		<ellipse clip-path="url(#SVGID_2_)" fill="none" stroke="#93B9C6" stroke-miterlimit="10" cx="189.656" cy="42.57" rx="3.787" ry="3.778"/>
	
		<ellipse clip-path="url(#SVGID_2_)" fill="none" stroke="#93B9C6" stroke-miterlimit="10" cx="189.656" cy="24.618" rx="3.787" ry="3.777"/>
	
		<ellipse clip-path="url(#SVGID_2_)" fill="none" stroke="#93B9C6" stroke-miterlimit="10" cx="189.656" cy="6.665" rx="3.786" ry="3.777"/>
	
		<ellipse clip-path="url(#SVGID_2_)" fill="none" stroke="#93B9C6" stroke-miterlimit="10" cx="189.656" cy="-11.287" rx="3.786" ry="3.777"/>
	
		<ellipse clip-path="url(#SVGID_2_)" fill="none" stroke="#93B9C6" stroke-miterlimit="10" cx="174.854" cy="68.485" rx="3.786" ry="3.778"/>
	
		<ellipse clip-path="url(#SVGID_2_)" fill="none" stroke="#93B9C6" stroke-miterlimit="10" cx="174.855" cy="50.532" rx="3.787" ry="3.778"/>
	
		<ellipse clip-path="url(#SVGID_2_)" fill="none" stroke="#93B9C6" stroke-miterlimit="10" cx="174.854" cy="32.58" rx="3.787" ry="3.778"/>
	
		<ellipse clip-path="url(#SVGID_2_)" fill="none" stroke="#93B9C6" stroke-miterlimit="10" cx="174.854" cy="14.628" rx="3.786" ry="3.777"/>
	
		<ellipse clip-path="url(#SVGID_2_)" fill="none" stroke="#93B9C6" stroke-miterlimit="10" cx="174.854" cy="-3.324" rx="3.787" ry="3.778"/>
	<path clip-path="url(#SVGID_2_)" fill="none" stroke="#93B9C6" stroke-miterlimit="10" d="M174.854-17.5"/>
	
		<ellipse clip-path="url(#SVGID_2_)" fill="none" stroke="#93B9C6" stroke-miterlimit="10" cx="162.462" cy="60.523" rx="3.787" ry="3.779"/>
	
		<ellipse clip-path="url(#SVGID_2_)" fill="none" stroke="#93B9C6" stroke-miterlimit="10" cx="162.462" cy="42.57" rx="3.786" ry="3.778"/>
	
		<ellipse clip-path="url(#SVGID_2_)" fill="none" stroke="#93B9C6" stroke-miterlimit="10" cx="162.462" cy="24.618" rx="3.786" ry="3.777"/>
	
		<ellipse clip-path="url(#SVGID_2_)" fill="none" stroke="#93B9C6" stroke-miterlimit="10" cx="162.462" cy="6.666" rx="3.786" ry="3.778"/>
	
		<ellipse clip-path="url(#SVGID_2_)" fill="none" stroke="#93B9C6" stroke-miterlimit="10" cx="162.462" cy="-11.287" rx="3.786" ry="3.777"/>
	
		<ellipse clip-path="url(#SVGID_2_)" fill="none" stroke="#93B9C6" stroke-miterlimit="10" cx="147.66" cy="68.484" rx="3.787" ry="3.777"/>
	
		<ellipse clip-path="url(#SVGID_2_)" fill="none" stroke="#93B9C6" stroke-miterlimit="10" cx="147.66" cy="50.532" rx="3.786" ry="3.778"/>
	
		<ellipse clip-path="url(#SVGID_2_)" fill="none" stroke="#93B9C6" stroke-miterlimit="10" cx="147.66" cy="32.58" rx="3.786" ry="3.777"/>
	
		<ellipse clip-path="url(#SVGID_2_)" fill="none" stroke="#93B9C6" stroke-miterlimit="10" cx="147.66" cy="14.628" rx="3.787" ry="3.777"/>
	
		<ellipse clip-path="url(#SVGID_2_)" fill="none" stroke="#93B9C6" stroke-miterlimit="10" cx="147.66" cy="-3.324" rx="3.787" ry="3.778"/>
	<path clip-path="url(#SVGID_2_)" fill="none" stroke="#93B9C6" stroke-miterlimit="10" d="M147.66-17.5"/>
	
		<ellipse clip-path="url(#SVGID_2_)" fill="none" stroke="#93B9C6" stroke-miterlimit="10" cx="135.269" cy="60.523" rx="3.787" ry="3.778"/>
	
		<ellipse clip-path="url(#SVGID_2_)" fill="none" stroke="#93B9C6" stroke-miterlimit="10" cx="135.269" cy="42.57" rx="3.786" ry="3.778"/>
	
		<ellipse clip-path="url(#SVGID_2_)" fill="none" stroke="#93B9C6" stroke-miterlimit="10" cx="135.268" cy="24.618" rx="3.786" ry="3.777"/>
	
		<ellipse clip-path="url(#SVGID_2_)" fill="none" stroke="#93B9C6" stroke-miterlimit="10" cx="135.268" cy="6.665" rx="3.786" ry="3.777"/>
	
		<ellipse clip-path="url(#SVGID_2_)" fill="none" stroke="#93B9C6" stroke-miterlimit="10" cx="135.269" cy="-11.287" rx="3.786" ry="3.777"/>
	
		<ellipse clip-path="url(#SVGID_2_)" fill="none" stroke="#93B9C6" stroke-miterlimit="10" cx="120.467" cy="68.484" rx="3.786" ry="3.777"/>
	
		<ellipse clip-path="url(#SVGID_2_)" fill="none" stroke="#93B9C6" stroke-miterlimit="10" cx="120.467" cy="50.532" rx="3.786" ry="3.778"/>
	
		<ellipse clip-path="url(#SVGID_2_)" fill="none" stroke="#93B9C6" stroke-miterlimit="10" cx="120.466" cy="32.58" rx="3.787" ry="3.778"/>
	
		<ellipse clip-path="url(#SVGID_2_)" fill="none" stroke="#93B9C6" stroke-miterlimit="10" cx="120.466" cy="14.628" rx="3.787" ry="3.777"/>
	
		<ellipse clip-path="url(#SVGID_2_)" fill="none" stroke="#93B9C6" stroke-miterlimit="10" cx="120.466" cy="-3.324" rx="3.786" ry="3.778"/>
	<path clip-path="url(#SVGID_2_)" fill="none" stroke="#93B9C6" stroke-miterlimit="10" d="M120.466-17.5"/>
	
		<ellipse clip-path="url(#SVGID_2_)" fill="none" stroke="#93B9C6" stroke-miterlimit="10" cx="108.075" cy="60.522" rx="3.786" ry="3.777"/>
	
		<ellipse clip-path="url(#SVGID_2_)" fill="none" stroke="#93B9C6" stroke-miterlimit="10" cx="108.075" cy="42.57" rx="3.786" ry="3.777"/>
	
		<ellipse clip-path="url(#SVGID_2_)" fill="none" stroke="#93B9C6" stroke-miterlimit="10" cx="108.074" cy="24.618" rx="3.786" ry="3.777"/>
	
		<ellipse clip-path="url(#SVGID_2_)" fill="none" stroke="#93B9C6" stroke-miterlimit="10" cx="108.075" cy="6.665" rx="3.787" ry="3.777"/>
	
		<ellipse clip-path="url(#SVGID_2_)" fill="none" stroke="#93B9C6" stroke-miterlimit="10" cx="108.075" cy="-11.287" rx="3.787" ry="3.777"/>
	
		<ellipse clip-path="url(#SVGID_2_)" fill="none" stroke="#93B9C6" stroke-miterlimit="10" cx="93.273" cy="68.485" rx="3.787" ry="3.778"/>
	
		<ellipse clip-path="url(#SVGID_2_)" fill="none" stroke="#93B9C6" stroke-miterlimit="10" cx="93.273" cy="50.532" rx="3.787" ry="3.778"/>
	
		<ellipse clip-path="url(#SVGID_2_)" fill="none" stroke="#93B9C6" stroke-miterlimit="10" cx="93.273" cy="32.581" rx="3.786" ry="3.777"/>
	
		<ellipse clip-path="url(#SVGID_2_)" fill="none" stroke="#93B9C6" stroke-miterlimit="10" cx="93.273" cy="14.628" rx="3.786" ry="3.777"/>
	
		<ellipse clip-path="url(#SVGID_2_)" fill="none" stroke="#93B9C6" stroke-miterlimit="10" cx="93.273" cy="-3.324" rx="3.787" ry="3.778"/>
	<path clip-path="url(#SVGID_2_)" fill="none" stroke="#93B9C6" stroke-miterlimit="10" d="M93.273-17.5"/>
	
		<ellipse clip-path="url(#SVGID_2_)" fill="none" stroke="#93B9C6" stroke-miterlimit="10" cx="80.881" cy="60.522" rx="3.787" ry="3.777"/>
	
		<ellipse clip-path="url(#SVGID_2_)" fill="none" stroke="#93B9C6" stroke-miterlimit="10" cx="80.881" cy="42.57" rx="3.787" ry="3.778"/>
	
		<ellipse clip-path="url(#SVGID_2_)" fill="none" stroke="#93B9C6" stroke-miterlimit="10" cx="80.881" cy="24.618" rx="3.787" ry="3.777"/>
	
		<ellipse clip-path="url(#SVGID_2_)" fill="none" stroke="#93B9C6" stroke-miterlimit="10" cx="80.881" cy="6.665" rx="3.786" ry="3.777"/>
	
		<ellipse clip-path="url(#SVGID_2_)" fill="none" stroke="#93B9C6" stroke-miterlimit="10" cx="80.881" cy="-11.287" rx="3.786" ry="3.777"/>
	
		<ellipse clip-path="url(#SVGID_2_)" fill="none" stroke="#93B9C6" stroke-miterlimit="10" cx="66.079" cy="68.485" rx="3.787" ry="3.778"/>
	
		<ellipse clip-path="url(#SVGID_2_)" fill="none" stroke="#93B9C6" stroke-miterlimit="10" cx="66.079" cy="50.532" rx="3.787" ry="3.778"/>
	
		<ellipse clip-path="url(#SVGID_2_)" fill="none" stroke="#93B9C6" stroke-miterlimit="10" cx="66.079" cy="32.58" rx="3.787" ry="3.778"/>
	
		<ellipse clip-path="url(#SVGID_2_)" fill="none" stroke="#93B9C6" stroke-miterlimit="10" cx="66.079" cy="14.628" rx="3.787" ry="3.779"/>
	
		<ellipse clip-path="url(#SVGID_2_)" fill="none" stroke="#93B9C6" stroke-miterlimit="10" cx="66.079" cy="-3.324" rx="3.786" ry="3.777"/>
	<path clip-path="url(#SVGID_2_)" fill="none" stroke="#93B9C6" stroke-miterlimit="10" d="M66.079-17.5"/>
	
		<ellipse clip-path="url(#SVGID_2_)" fill="none" stroke="#93B9C6" stroke-miterlimit="10" cx="51.789" cy="60.523" rx="3.787" ry="3.778"/>
	
		<ellipse clip-path="url(#SVGID_2_)" fill="none" stroke="#93B9C6" stroke-miterlimit="10" cx="51.789" cy="42.57" rx="3.787" ry="3.778"/>
	
		<ellipse clip-path="url(#SVGID_2_)" fill="none" stroke="#93B9C6" stroke-miterlimit="10" cx="51.789" cy="24.618" rx="3.786" ry="3.777"/>
	
		<ellipse clip-path="url(#SVGID_2_)" fill="none" stroke="#93B9C6" stroke-miterlimit="10" cx="51.789" cy="6.665" rx="3.786" ry="3.777"/>
	
		<ellipse clip-path="url(#SVGID_2_)" fill="none" stroke="#93B9C6" stroke-miterlimit="10" cx="51.789" cy="-11.287" rx="3.787" ry="3.777"/>
	
		<ellipse clip-path="url(#SVGID_2_)" fill="none" stroke="#93B9C6" stroke-miterlimit="10" cx="36.987" cy="68.484" rx="3.786" ry="3.777"/>
	
		<ellipse clip-path="url(#SVGID_2_)" fill="none" stroke="#93B9C6" stroke-miterlimit="10" cx="36.987" cy="50.533" rx="3.787" ry="3.778"/>
	
		<ellipse clip-path="url(#SVGID_2_)" fill="none" stroke="#93B9C6" stroke-miterlimit="10" cx="36.987" cy="32.58" rx="3.786" ry="3.777"/>
	
		<ellipse clip-path="url(#SVGID_2_)" fill="none" stroke="#93B9C6" stroke-miterlimit="10" cx="36.987" cy="14.628" rx="3.786" ry="3.776"/>
	
		<ellipse clip-path="url(#SVGID_2_)" fill="none" stroke="#93B9C6" stroke-miterlimit="10" cx="36.987" cy="-3.324" rx="3.787" ry="3.778"/>
	<path clip-path="url(#SVGID_2_)" fill="none" stroke="#93B9C6" stroke-miterlimit="10" d="M36.988-17.5"/>
	
		<ellipse clip-path="url(#SVGID_2_)" fill="none" stroke="#93B9C6" stroke-miterlimit="10" cx="24.596" cy="60.523" rx="3.787" ry="3.778"/>
	
		<ellipse clip-path="url(#SVGID_2_)" fill="none" stroke="#93B9C6" stroke-miterlimit="10" cx="24.596" cy="42.57" rx="3.787" ry="3.778"/>
	
		<ellipse clip-path="url(#SVGID_2_)" fill="none" stroke="#93B9C6" stroke-miterlimit="10" cx="24.595" cy="24.618" rx="3.786" ry="3.777"/>
	
		<ellipse clip-path="url(#SVGID_2_)" fill="none" stroke="#93B9C6" stroke-miterlimit="10" cx="24.596" cy="6.665" rx="3.787" ry="3.777"/>
	
		<ellipse clip-path="url(#SVGID_2_)" fill="none" stroke="#93B9C6" stroke-miterlimit="10" cx="24.596" cy="-11.287" rx="3.786" ry="3.777"/>
	
		<ellipse clip-path="url(#SVGID_2_)" fill="none" stroke="#93B9C6" stroke-miterlimit="10" cx="9.794" cy="68.484" rx="3.786" ry="3.777"/>
	
		<ellipse clip-path="url(#SVGID_2_)" fill="none" stroke="#93B9C6" stroke-miterlimit="10" cx="9.794" cy="50.533" rx="3.786" ry="3.777"/>
	
		<ellipse clip-path="url(#SVGID_2_)" fill="none" stroke="#93B9C6" stroke-miterlimit="10" cx="9.794" cy="32.58" rx="3.787" ry="3.778"/>
	
		<ellipse clip-path="url(#SVGID_2_)" fill="none" stroke="#93B9C6" stroke-miterlimit="10" cx="9.793" cy="14.628" rx="3.786" ry="3.778"/>
	
		<ellipse clip-path="url(#SVGID_2_)" fill="none" stroke="#93B9C6" stroke-miterlimit="10" cx="9.793" cy="-3.324" rx="3.786" ry="3.778"/>
	<path clip-path="url(#SVGID_2_)" fill="none" stroke="#93B9C6" stroke-miterlimit="10" d="M9.794-17.5"/>
	
		<ellipse clip-path="url(#SVGID_2_)" fill="none" stroke="#93B9C6" stroke-miterlimit="10" cx="-2.598" cy="60.523" rx="3.787" ry="3.778"/>
	
		<ellipse clip-path="url(#SVGID_2_)" fill="none" stroke="#93B9C6" stroke-miterlimit="10" cx="-2.598" cy="42.57" rx="3.786" ry="3.778"/>
	
		<ellipse clip-path="url(#SVGID_2_)" fill="none" stroke="#93B9C6" stroke-miterlimit="10" cx="-2.598" cy="24.618" rx="3.786" ry="3.777"/>
	
		<ellipse clip-path="url(#SVGID_2_)" fill="none" stroke="#93B9C6" stroke-miterlimit="10" cx="-2.598" cy="6.665" rx="3.787" ry="3.778"/>
	
		<ellipse clip-path="url(#SVGID_2_)" fill="none" stroke="#93B9C6" stroke-miterlimit="10" cx="-2.598" cy="-11.287" rx="3.786" ry="3.777"/>
	
		<ellipse clip-path="url(#SVGID_2_)" fill="none" stroke="#93B9C6" stroke-miterlimit="10" cx="-17.4" cy="68.485" rx="3.787" ry="3.778"/>
	
		<ellipse clip-path="url(#SVGID_2_)" fill="none" stroke="#93B9C6" stroke-miterlimit="10" cx="-17.4" cy="50.532" rx="3.786" ry="3.778"/>
	
		<ellipse clip-path="url(#SVGID_2_)" fill="none" stroke="#93B9C6" stroke-miterlimit="10" cx="-17.4" cy="32.58" rx="3.786" ry="3.777"/>
	
		<ellipse clip-path="url(#SVGID_2_)" fill="none" stroke="#93B9C6" stroke-miterlimit="10" cx="-17.4" cy="14.628" rx="3.786" ry="3.779"/>
	
		<ellipse clip-path="url(#SVGID_2_)" fill="none" stroke="#93B9C6" stroke-miterlimit="10" cx="-17.4" cy="-3.324" rx="3.786" ry="3.778"/>
	<path clip-path="url(#SVGID_2_)" fill="none" stroke="#93B9C6" stroke-miterlimit="10" d="M-17.4-17.5"/>
	<path clip-path="url(#SVGID_2_)" fill="none" stroke="#93B9C6" stroke-miterlimit="10" d="M-26.006,60.523"/>
	<path clip-path="url(#SVGID_2_)" fill="none" stroke="#93B9C6" stroke-miterlimit="10" d="M-26.005,42.57"/>
	<path clip-path="url(#SVGID_2_)" fill="none" stroke="#93B9C6" stroke-miterlimit="10" d="M-26.005,24.618"/>
	<path clip-path="url(#SVGID_2_)" fill="none" stroke="#93B9C6" stroke-miterlimit="10" d="M-26.006,6.665"/>
	<path clip-path="url(#SVGID_2_)" fill="none" stroke="#93B9C6" stroke-miterlimit="10" d="M-26.006-11.287"/>
</g>
</svg>
