<?xml version="1.0" encoding="utf-8"?>
<!-- Generator: Adobe Illustrator 17.0.0, SVG Export Plug-In . SVG Version: 6.00 Build 0)  -->
<!DOCTYPE svg PUBLIC "-//W3C//DTD SVG 1.1//EN" "http://www.w3.org/Graphics/SVG/1.1/DTD/svg11.dtd">
<svg version="1.1" id="Layer_1" xmlns="http://www.w3.org/2000/svg" xmlns:xlink="http://www.w3.org/1999/xlink" x="0px" y="0px"
	 width="750px" height="83px" viewBox="0 0 750 83" enable-background="new 0 0 750 83" xml:space="preserve">
<g id="Pattern_2_">
	<defs>
		
			<rect id="SVGID_1_" x="0.027" y="0.247" transform="matrix(-1 6.600936e-04 -6.600936e-04 -1 750.0273 82.7544)" width="749.945" height="82.507"/>
	</defs>
	<clipPath id="SVGID_2_">
		<use xlink:href="#SVGID_1_"  overflow="visible"/>
	</clipPath>
	<path clip-path="url(#SVGID_2_)" fill="#04B5DE" d="M653.723,363.771"/>
	
		<line clip-path="url(#SVGID_2_)" fill="none" stroke="#7ACDEA" stroke-miterlimit="10" x1="-198.248" y1="46.196" x2="383.074" y2="-535.146"/>
	
		<line clip-path="url(#SVGID_2_)" fill="none" stroke="#7ACDEA" stroke-miterlimit="10" x1="-189.563" y1="54.882" x2="391.766" y2="-526.457"/>
	
		<line clip-path="url(#SVGID_2_)" fill="none" stroke="#7ACDEA" stroke-miterlimit="10" x1="-180.878" y1="63.571" x2="400.447" y2="-517.768"/>
	
		<line clip-path="url(#SVGID_2_)" fill="none" stroke="#7ACDEA" stroke-miterlimit="10" x1="-172.196" y1="72.252" x2="409.136" y2="-509.087"/>
	
		<line clip-path="url(#SVGID_2_)" fill="none" stroke="#7ACDEA" stroke-miterlimit="10" x1="-163.507" y1="80.941" x2="417.821" y2="-500.397"/>
	
		<line clip-path="url(#SVGID_2_)" fill="none" stroke="#7ACDEA" stroke-miterlimit="10" x1="-154.823" y1="89.625" x2="426.508" y2="-491.713"/>
	
		<line clip-path="url(#SVGID_2_)" fill="none" stroke="#7ACDEA" stroke-miterlimit="10" x1="-146.137" y1="98.311" x2="435.191" y2="-483.032"/>
	
		<line clip-path="url(#SVGID_2_)" fill="none" stroke="#7ACDEA" stroke-miterlimit="10" x1="-137.451" y1="106.996" x2="443.876" y2="-474.343"/>
	
		<line clip-path="url(#SVGID_2_)" fill="none" stroke="#7ACDEA" stroke-miterlimit="10" x1="-128.765" y1="115.681" x2="452.564" y2="-465.657"/>
	
		<line clip-path="url(#SVGID_2_)" fill="none" stroke="#7ACDEA" stroke-miterlimit="10" x1="-120.08" y1="124.366" x2="461.247" y2="-456.972"/>
	
		<line clip-path="url(#SVGID_2_)" fill="none" stroke="#7ACDEA" stroke-miterlimit="10" x1="-111.396" y1="133.051" x2="469.932" y2="-448.287"/>
	
		<line clip-path="url(#SVGID_2_)" fill="none" stroke="#7ACDEA" stroke-miterlimit="10" x1="-102.71" y1="141.741" x2="478.623" y2="-439.598"/>
	
		<line clip-path="url(#SVGID_2_)" fill="none" stroke="#7ACDEA" stroke-miterlimit="10" x1="-94.025" y1="150.421" x2="487.304" y2="-430.917"/>
	
		<line clip-path="url(#SVGID_2_)" fill="none" stroke="#7ACDEA" stroke-miterlimit="10" x1="-85.339" y1="159.111" x2="495.987" y2="-422.228"/>
	
		<line clip-path="url(#SVGID_2_)" fill="none" stroke="#7ACDEA" stroke-miterlimit="10" x1="-76.65" y1="167.797" x2="504.678" y2="-413.543"/>
	
		<line clip-path="url(#SVGID_2_)" fill="none" stroke="#7ACDEA" stroke-miterlimit="10" x1="-67.965" y1="176.481" x2="513.362" y2="-404.854"/>
	
		<line clip-path="url(#SVGID_2_)" fill="none" stroke="#7ACDEA" stroke-miterlimit="10" x1="-59.282" y1="185.167" x2="522.049" y2="-396.173"/>
	
		<line clip-path="url(#SVGID_2_)" fill="none" stroke="#7ACDEA" stroke-miterlimit="10" x1="-50.594" y1="193.854" x2="530.73" y2="-387.483"/>
	
		<line clip-path="url(#SVGID_2_)" fill="none" stroke="#7ACDEA" stroke-miterlimit="10" x1="-41.908" y1="202.536" x2="539.421" y2="-378.798"/>
	
		<line clip-path="url(#SVGID_2_)" fill="none" stroke="#7ACDEA" stroke-miterlimit="10" x1="-33.223" y1="211.226" x2="548.104" y2="-370.117"/>
	
		<line clip-path="url(#SVGID_2_)" fill="none" stroke="#7ACDEA" stroke-miterlimit="10" x1="-24.539" y1="219.91" x2="556.785" y2="-361.428"/>
	
		<line clip-path="url(#SVGID_2_)" fill="none" stroke="#7ACDEA" stroke-miterlimit="10" x1="-15.852" y1="228.6" x2="565.476" y2="-352.743"/>
	
		<line clip-path="url(#SVGID_2_)" fill="none" stroke="#7ACDEA" stroke-miterlimit="10" x1="-7.167" y1="237.282" x2="574.16" y2="-344.058"/>
	
		<line clip-path="url(#SVGID_2_)" fill="none" stroke="#7ACDEA" stroke-miterlimit="10" x1="1.519" y1="245.966" x2="582.845" y2="-335.373"/>
	
		<line clip-path="url(#SVGID_2_)" fill="none" stroke="#7ACDEA" stroke-miterlimit="10" x1="10.204" y1="254.655" x2="591.536" y2="-326.684"/>
	
		<line clip-path="url(#SVGID_2_)" fill="none" stroke="#7ACDEA" stroke-miterlimit="10" x1="18.888" y1="263.335" x2="600.217" y2="-318.002"/>
	
		<line clip-path="url(#SVGID_2_)" fill="none" stroke="#7ACDEA" stroke-miterlimit="10" x1="27.574" y1="272.025" x2="608.902" y2="-309.313"/>
	
		<line clip-path="url(#SVGID_2_)" fill="none" stroke="#7ACDEA" stroke-miterlimit="10" x1="36.26" y1="280.71" x2="617.587" y2="-300.629"/>
	
		<line clip-path="url(#SVGID_2_)" fill="none" stroke="#7ACDEA" stroke-miterlimit="10" x1="44.944" y1="289.396" x2="626.275" y2="-291.944"/>
	
		<line clip-path="url(#SVGID_2_)" fill="none" stroke="#7ACDEA" stroke-miterlimit="10" x1="53.631" y1="298.082" x2="634.962" y2="-283.258"/>
	
		<line clip-path="url(#SVGID_2_)" fill="none" stroke="#7ACDEA" stroke-miterlimit="10" x1="62.315" y1="306.77" x2="643.643" y2="-274.573"/>
	
		<line clip-path="url(#SVGID_2_)" fill="none" stroke="#7ACDEA" stroke-miterlimit="10" x1="71.005" y1="315.452" x2="652.334" y2="-265.888"/>
	
		<line clip-path="url(#SVGID_2_)" fill="none" stroke="#7ACDEA" stroke-miterlimit="10" x1="79.686" y1="324.139" x2="661.013" y2="-257.203"/>
	
		<line clip-path="url(#SVGID_2_)" fill="none" stroke="#7ACDEA" stroke-miterlimit="10" x1="88.37" y1="332.825" x2="669.702" y2="-248.514"/>
	
		<line clip-path="url(#SVGID_2_)" fill="none" stroke="#7ACDEA" stroke-miterlimit="10" x1="97.062" y1="341.511" x2="678.389" y2="-239.832"/>
	
		<line clip-path="url(#SVGID_2_)" fill="none" stroke="#7ACDEA" stroke-miterlimit="10" x1="105.746" y1="350.195" x2="687.075" y2="-231.143"/>
	
		<line clip-path="url(#SVGID_2_)" fill="none" stroke="#7ACDEA" stroke-miterlimit="10" x1="114.432" y1="358.881" x2="695.76" y2="-222.459"/>
	
		<line clip-path="url(#SVGID_2_)" fill="none" stroke="#7ACDEA" stroke-miterlimit="10" x1="123.117" y1="367.567" x2="704.441" y2="-213.774"/>
	
		<line clip-path="url(#SVGID_2_)" fill="none" stroke="#7ACDEA" stroke-miterlimit="10" x1="131.803" y1="376.255" x2="713.132" y2="-205.088"/>
	
		<line clip-path="url(#SVGID_2_)" fill="none" stroke="#7ACDEA" stroke-miterlimit="10" x1="140.488" y1="384.94" x2="721.815" y2="-196.395"/>
	
		<line clip-path="url(#SVGID_2_)" fill="none" stroke="#7ACDEA" stroke-miterlimit="10" x1="149.17" y1="393.624" x2="730.5" y2="-187.714"/>
	
		<line clip-path="url(#SVGID_2_)" fill="none" stroke="#7ACDEA" stroke-miterlimit="10" x1="157.859" y1="402.31" x2="739.187" y2="-179.025"/>
	
		<line clip-path="url(#SVGID_2_)" fill="none" stroke="#7ACDEA" stroke-miterlimit="10" x1="166.544" y1="410.996" x2="747.871" y2="-170.34"/>
	
		<line clip-path="url(#SVGID_2_)" fill="none" stroke="#7ACDEA" stroke-miterlimit="10" x1="175.23" y1="419.684" x2="756.556" y2="-161.655"/>
	
		<line clip-path="url(#SVGID_2_)" fill="none" stroke="#7ACDEA" stroke-miterlimit="10" x1="183.921" y1="428.366" x2="765.247" y2="-152.97"/>
	
		<line clip-path="url(#SVGID_2_)" fill="none" stroke="#7ACDEA" stroke-miterlimit="10" x1="192.599" y1="437.056" x2="773.928" y2="-144.285"/>
	
		<line clip-path="url(#SVGID_2_)" fill="none" stroke="#7ACDEA" stroke-miterlimit="10" x1="201.285" y1="445.74" x2="782.615" y2="-135.595"/>
	
		<line clip-path="url(#SVGID_2_)" fill="none" stroke="#7ACDEA" stroke-miterlimit="10" x1="209.972" y1="454.422" x2="791.298" y2="-126.914"/>
	
		<line clip-path="url(#SVGID_2_)" fill="none" stroke="#7ACDEA" stroke-miterlimit="10" x1="218.657" y1="463.109" x2="799.989" y2="-118.225"/>
	
		<line clip-path="url(#SVGID_2_)" fill="none" stroke="#7ACDEA" stroke-miterlimit="10" x1="227.346" y1="471.799" x2="808.673" y2="-109.54"/>
	
		<line clip-path="url(#SVGID_2_)" fill="none" stroke="#7ACDEA" stroke-miterlimit="10" x1="236.028" y1="480.481" x2="817.354" y2="-100.855"/>
	
		<line clip-path="url(#SVGID_2_)" fill="none" stroke="#7ACDEA" stroke-miterlimit="10" x1="244.716" y1="489.169" x2="826.045" y2="-92.17"/>
	
		<line clip-path="url(#SVGID_2_)" fill="none" stroke="#7ACDEA" stroke-miterlimit="10" x1="253.397" y1="497.855" x2="834.724" y2="-83.481"/>
	
		<line clip-path="url(#SVGID_2_)" fill="none" stroke="#7ACDEA" stroke-miterlimit="10" x1="262.087" y1="506.535" x2="843.413" y2="-74.796"/>
	
		<line clip-path="url(#SVGID_2_)" fill="none" stroke="#7ACDEA" stroke-miterlimit="10" x1="270.773" y1="515.224" x2="852.1" y2="-66.111"/>
	
		<line clip-path="url(#SVGID_2_)" fill="none" stroke="#7ACDEA" stroke-miterlimit="10" x1="279.457" y1="523.91" x2="860.784" y2="-57.425"/>
	
		<line clip-path="url(#SVGID_2_)" fill="none" stroke="#7ACDEA" stroke-miterlimit="10" x1="288.143" y1="532.594" x2="869.469" y2="-48.74"/>
	
		<line clip-path="url(#SVGID_2_)" fill="none" stroke="#7ACDEA" stroke-miterlimit="10" x1="296.826" y1="541.28" x2="878.156" y2="-40.055"/>
	
		<line clip-path="url(#SVGID_2_)" fill="none" stroke="#7ACDEA" stroke-miterlimit="10" x1="305.514" y1="549.97" x2="886.843" y2="-31.367"/>
	
		<line clip-path="url(#SVGID_2_)" fill="none" stroke="#7ACDEA" stroke-miterlimit="10" x1="314.199" y1="558.65" x2="895.53" y2="-22.681"/>
	
		<line clip-path="url(#SVGID_2_)" fill="none" stroke="#7ACDEA" stroke-miterlimit="10" x1="322.885" y1="567.336" x2="904.211" y2="-14"/>
	
		<line clip-path="url(#SVGID_2_)" fill="none" stroke="#7ACDEA" stroke-miterlimit="10" x1="331.57" y1="576.024" x2="912.902" y2="-5.311"/>
	
		<line clip-path="url(#SVGID_2_)" fill="none" stroke="#7ACDEA" stroke-miterlimit="10" x1="340.255" y1="584.709" x2="921.582" y2="3.374"/>
	
		<line clip-path="url(#SVGID_2_)" fill="none" stroke="#7ACDEA" stroke-miterlimit="10" x1="348.941" y1="593.395" x2="930.267" y2="12.064"/>
	
		<line clip-path="url(#SVGID_2_)" fill="none" stroke="#7ACDEA" stroke-miterlimit="10" x1="357.63" y1="602.083" x2="938.958" y2="20.745"/>
	
		<line clip-path="url(#SVGID_2_)" fill="none" stroke="#7ACDEA" stroke-miterlimit="10" x1="366.31" y1="610.765" x2="947.639" y2="29.433"/>
	
		<line clip-path="url(#SVGID_2_)" fill="none" stroke="#7ACDEA" stroke-miterlimit="10" x1="375.001" y1="619.451" x2="956.326" y2="38.118"/>
	
		<line clip-path="url(#SVGID_2_)" fill="none" stroke="#7ACDEA" stroke-miterlimit="10" x1="374.986" y1="-533.757" x2="957.719" y2="46.178"/>
	
		<line clip-path="url(#SVGID_2_)" fill="none" stroke="#7ACDEA" stroke-miterlimit="10" x1="366.279" y1="-525.093" x2="949.01" y2="54.847"/>
	
		<line clip-path="url(#SVGID_2_)" fill="none" stroke="#7ACDEA" stroke-miterlimit="10" x1="357.57" y1="-516.429" x2="940.3" y2="63.509"/>
	
		<line clip-path="url(#SVGID_2_)" fill="none" stroke="#7ACDEA" stroke-miterlimit="10" x1="348.868" y1="-507.767" x2="931.598" y2="72.177"/>
	
		<line clip-path="url(#SVGID_2_)" fill="none" stroke="#7ACDEA" stroke-miterlimit="10" x1="340.159" y1="-499.099" x2="922.888" y2="80.841"/>
	
		<line clip-path="url(#SVGID_2_)" fill="none" stroke="#7ACDEA" stroke-miterlimit="10" x1="331.453" y1="-490.436" x2="914.182" y2="89.507"/>
	
		<line clip-path="url(#SVGID_2_)" fill="none" stroke="#7ACDEA" stroke-miterlimit="10" x1="322.746" y1="-481.77" x2="905.48" y2="98.171"/>
	
		<line clip-path="url(#SVGID_2_)" fill="none" stroke="#7ACDEA" stroke-miterlimit="10" x1="314.041" y1="-473.106" x2="896.771" y2="106.834"/>
	
		<line clip-path="url(#SVGID_2_)" fill="none" stroke="#7ACDEA" stroke-miterlimit="10" x1="305.335" y1="-464.44" x2="888.064" y2="115.5"/>
	
		<line clip-path="url(#SVGID_2_)" fill="none" stroke="#7ACDEA" stroke-miterlimit="10" x1="296.629" y1="-455.776" x2="879.358" y2="124.164"/>
	
		<line clip-path="url(#SVGID_2_)" fill="none" stroke="#7ACDEA" stroke-miterlimit="10" x1="287.923" y1="-447.113" x2="870.653" y2="132.828"/>
	
		<line clip-path="url(#SVGID_2_)" fill="none" stroke="#7ACDEA" stroke-miterlimit="10" x1="279.213" y1="-438.447" x2="861.943" y2="141.497"/>
	
		<line clip-path="url(#SVGID_2_)" fill="none" stroke="#7ACDEA" stroke-miterlimit="10" x1="270.511" y1="-429.783" x2="853.241" y2="150.16"/>
	
		<line clip-path="url(#SVGID_2_)" fill="none" stroke="#7ACDEA" stroke-miterlimit="10" x1="261.802" y1="-421.117" x2="844.531" y2="158.822"/>
	
		<line clip-path="url(#SVGID_2_)" fill="none" stroke="#7ACDEA" stroke-miterlimit="10" x1="253.095" y1="-412.449" x2="835.825" y2="167.491"/>
	
		<line clip-path="url(#SVGID_2_)" fill="none" stroke="#7ACDEA" stroke-miterlimit="10" x1="244.389" y1="-403.785" x2="827.115" y2="176.153"/>
	
		<line clip-path="url(#SVGID_2_)" fill="none" stroke="#7ACDEA" stroke-miterlimit="10" x1="235.684" y1="-395.123" x2="818.414" y2="184.822"/>
	
		<line clip-path="url(#SVGID_2_)" fill="none" stroke="#7ACDEA" stroke-miterlimit="10" x1="226.974" y1="-386.456" x2="809.703" y2="193.48"/>
	
		<line clip-path="url(#SVGID_2_)" fill="none" stroke="#7ACDEA" stroke-miterlimit="10" x1="218.271" y1="-377.79" x2="800.997" y2="202.15"/>
	
		<line clip-path="url(#SVGID_2_)" fill="none" stroke="#7ACDEA" stroke-miterlimit="10" x1="209.562" y1="-369.126" x2="792.296" y2="210.815"/>
	
		<line clip-path="url(#SVGID_2_)" fill="none" stroke="#7ACDEA" stroke-miterlimit="10" x1="200.856" y1="-360.462" x2="783.586" y2="219.475"/>
	
		<line clip-path="url(#SVGID_2_)" fill="none" stroke="#7ACDEA" stroke-miterlimit="10" x1="192.146" y1="-351.797" x2="774.879" y2="228.144"/>
	
		<line clip-path="url(#SVGID_2_)" fill="none" stroke="#7ACDEA" stroke-miterlimit="10" x1="183.444" y1="-343.133" x2="766.174" y2="236.808"/>
	
		<line clip-path="url(#SVGID_2_)" fill="none" stroke="#7ACDEA" stroke-miterlimit="10" x1="174.738" y1="-334.467" x2="757.468" y2="245.473"/>
	
		<line clip-path="url(#SVGID_2_)" fill="none" stroke="#7ACDEA" stroke-miterlimit="10" x1="166.029" y1="-325.803" x2="748.759" y2="254.141"/>
	
		<line clip-path="url(#SVGID_2_)" fill="none" stroke="#7ACDEA" stroke-miterlimit="10" x1="157.327" y1="-317.139" x2="740.056" y2="262.803"/>
	
		<line clip-path="url(#SVGID_2_)" fill="none" stroke="#7ACDEA" stroke-miterlimit="10" x1="148.617" y1="-308.474" x2="731.346" y2="271.468"/>
	
		<line clip-path="url(#SVGID_2_)" fill="none" stroke="#7ACDEA" stroke-miterlimit="10" x1="139.911" y1="-299.81" x2="722.641" y2="280.129"/>
	
		<line clip-path="url(#SVGID_2_)" fill="none" stroke="#7ACDEA" stroke-miterlimit="10" x1="131.205" y1="-291.146" x2="713.935" y2="288.796"/>
	
		<line clip-path="url(#SVGID_2_)" fill="none" stroke="#7ACDEA" stroke-miterlimit="10" x1="122.498" y1="-282.48" x2="705.228" y2="297.464"/>
	
		<line clip-path="url(#SVGID_2_)" fill="none" stroke="#7ACDEA" stroke-miterlimit="10" x1="113.79" y1="-273.816" x2="696.523" y2="306.125"/>
	
		<line clip-path="url(#SVGID_2_)" fill="none" stroke="#7ACDEA" stroke-miterlimit="10" x1="105.087" y1="-265.147" x2="687.817" y2="314.793"/>
	
		<line clip-path="url(#SVGID_2_)" fill="none" stroke="#7ACDEA" stroke-miterlimit="10" x1="96.378" y1="-256.486" x2="679.111" y2="323.453"/>
	
		<line clip-path="url(#SVGID_2_)" fill="none" stroke="#7ACDEA" stroke-miterlimit="10" x1="87.672" y1="-247.823" x2="670.402" y2="332.122"/>
	
		<line clip-path="url(#SVGID_2_)" fill="none" stroke="#7ACDEA" stroke-miterlimit="10" x1="78.965" y1="-239.153" x2="661.699" y2="340.786"/>
	
		<line clip-path="url(#SVGID_2_)" fill="none" stroke="#7ACDEA" stroke-miterlimit="10" x1="70.26" y1="-230.489" x2="652.989" y2="349.453"/>
	
		<line clip-path="url(#SVGID_2_)" fill="none" stroke="#7ACDEA" stroke-miterlimit="10" x1="61.554" y1="-221.824" x2="644.284" y2="358.117"/>
	
		<line clip-path="url(#SVGID_2_)" fill="none" stroke="#7ACDEA" stroke-miterlimit="10" x1="52.847" y1="-213.159" x2="635.578" y2="366.776"/>
	
		<line clip-path="url(#SVGID_2_)" fill="none" stroke="#7ACDEA" stroke-miterlimit="10" x1="44.138" y1="-204.494" x2="626.871" y2="375.446"/>
	
		<line clip-path="url(#SVGID_2_)" fill="none" stroke="#7ACDEA" stroke-miterlimit="10" x1="35.432" y1="-195.83" x2="618.158" y2="384.11"/>
	
		<line clip-path="url(#SVGID_2_)" fill="none" stroke="#7ACDEA" stroke-miterlimit="10" x1="26.727" y1="-187.168" x2="609.456" y2="392.773"/>
	
		<line clip-path="url(#SVGID_2_)" fill="none" stroke="#7ACDEA" stroke-miterlimit="10" x1="18.02" y1="-178.501" x2="600.747" y2="401.439"/>
	
		<line clip-path="url(#SVGID_2_)" fill="none" stroke="#7ACDEA" stroke-miterlimit="10" x1="9.314" y1="-169.836" x2="592.04" y2="410.104"/>
	
		<line clip-path="url(#SVGID_2_)" fill="none" stroke="#7ACDEA" stroke-miterlimit="10" x1="0.605" y1="-161.171" x2="583.334" y2="418.768"/>
	
		<line clip-path="url(#SVGID_2_)" fill="none" stroke="#7ACDEA" stroke-miterlimit="10" x1="-8.098" y1="-152.501" x2="574.628" y2="427.436"/>
	
		<line clip-path="url(#SVGID_2_)" fill="none" stroke="#7ACDEA" stroke-miterlimit="10" x1="-16.808" y1="-143.843" x2="565.923" y2="436.097"/>
	
		<line clip-path="url(#SVGID_2_)" fill="none" stroke="#7ACDEA" stroke-miterlimit="10" x1="-25.513" y1="-135.178" x2="557.212" y2="444.765"/>
	
		<line clip-path="url(#SVGID_2_)" fill="none" stroke="#7ACDEA" stroke-miterlimit="10" x1="-34.216" y1="-126.511" x2="548.511" y2="453.426"/>
	
		<line clip-path="url(#SVGID_2_)" fill="none" stroke="#7ACDEA" stroke-miterlimit="10" x1="-42.924" y1="-117.848" x2="539.801" y2="462.096"/>
	
		<line clip-path="url(#SVGID_2_)" fill="none" stroke="#7ACDEA" stroke-miterlimit="10" x1="-51.635" y1="-109.179" x2="531.095" y2="470.76"/>
	
		<line clip-path="url(#SVGID_2_)" fill="none" stroke="#7ACDEA" stroke-miterlimit="10" x1="-60.337" y1="-100.518" x2="522.389" y2="479.421"/>
	
		<line clip-path="url(#SVGID_2_)" fill="none" stroke="#7ACDEA" stroke-miterlimit="10" x1="-69.046" y1="-91.851" x2="513.683" y2="488.089"/>
	
		<line clip-path="url(#SVGID_2_)" fill="none" stroke="#7ACDEA" stroke-miterlimit="10" x1="-77.753" y1="-83.19" x2="504.973" y2="496.75"/>
	
		<line clip-path="url(#SVGID_2_)" fill="none" stroke="#7ACDEA" stroke-miterlimit="10" x1="-86.454" y1="-74.521" x2="496.268" y2="505.418"/>
	
		<line clip-path="url(#SVGID_2_)" fill="none" stroke="#7ACDEA" stroke-miterlimit="10" x1="-95.164" y1="-65.856" x2="487.562" y2="514.083"/>
	
		<line clip-path="url(#SVGID_2_)" fill="none" stroke="#7ACDEA" stroke-miterlimit="10" x1="-103.871" y1="-57.193" x2="478.855" y2="522.747"/>
	
		<line clip-path="url(#SVGID_2_)" fill="none" stroke="#7ACDEA" stroke-miterlimit="10" x1="-112.575" y1="-48.527" x2="470.15" y2="531.411"/>
	
		<line clip-path="url(#SVGID_2_)" fill="none" stroke="#7ACDEA" stroke-miterlimit="10" x1="-121.282" y1="-39.865" x2="461.444" y2="540.076"/>
	
		<line clip-path="url(#SVGID_2_)" fill="none" stroke="#7ACDEA" stroke-miterlimit="10" x1="-129.993" y1="-31.198" x2="452.735" y2="548.742"/>
	
		<line clip-path="url(#SVGID_2_)" fill="none" stroke="#7ACDEA" stroke-miterlimit="10" x1="-138.693" y1="-22.533" x2="444.028" y2="557.41"/>
	
		<line clip-path="url(#SVGID_2_)" fill="none" stroke="#7ACDEA" stroke-miterlimit="10" x1="-147.4" y1="-13.868" x2="435.326" y2="566.069"/>
	
		<line clip-path="url(#SVGID_2_)" fill="none" stroke="#7ACDEA" stroke-miterlimit="10" x1="-156.109" y1="-5.204" x2="426.617" y2="574.739"/>
	
		<line clip-path="url(#SVGID_2_)" fill="none" stroke="#7ACDEA" stroke-miterlimit="10" x1="-164.815" y1="3.46" x2="417.911" y2="583.4"/>
	
		<line clip-path="url(#SVGID_2_)" fill="none" stroke="#7ACDEA" stroke-miterlimit="10" x1="-173.522" y1="12.125" x2="409.2" y2="592.064"/>
	
		<line clip-path="url(#SVGID_2_)" fill="none" stroke="#7ACDEA" stroke-miterlimit="10" x1="-182.231" y1="20.794" x2="400.499" y2="600.733"/>
	
		<line clip-path="url(#SVGID_2_)" fill="none" stroke="#7ACDEA" stroke-miterlimit="10" x1="-190.933" y1="29.453" x2="391.789" y2="609.393"/>
	
		<line clip-path="url(#SVGID_2_)" fill="none" stroke="#7ACDEA" stroke-miterlimit="10" x1="-199.64" y1="38.123" x2="383.083" y2="618.062"/>
	<rect x="263.054" y="-73.829" clip-path="url(#SVGID_2_)" fill="none" width="231.968" height="231.966"/>
</g>
</svg>
